<svg width="156" height="103" viewBox="0 0 156 103" fill="none" xmlns="http://www.w3.org/2000/svg">
<rect y="36.1367" width="142.358" height="68.3875" rx="6.28049" transform="rotate(-14.7051 0 36.1367)" fill="#FFD746"/>
<path d="M40.0427 56.4557C40.6366 56.2998 41.1407 56.0759 41.5626 55.7884C42.4065 55.2136 42.8369 54.3349 42.5814 53.3614C42.4577 52.89 42.2153 52.5151 41.8559 52.2429C41.1326 51.7063 40.1262 51.6367 38.969 51.9404L38.7547 51.9966L38.7113 51.8313L38.7603 51.8184C40.3264 51.4271 41.4187 50.3027 41.0739 49.0385C40.7217 47.6715 39.1464 47.28 37.4507 47.7512L31.8239 49.2279C32.2342 50.043 32.604 51.0781 32.9334 52.3333L33.5713 54.764C33.8991 56.013 34.0853 57.0964 34.1282 58.0079L40.0427 56.4557ZM35.5645 50.7134L37.1565 50.2957C37.8177 50.1221 38.3138 50.2668 38.4311 50.7138C38.5516 51.173 38.1844 51.5442 37.5292 51.7161L35.9373 52.1339L35.5645 50.7134ZM36.2073 53.1625L38.087 52.6692C38.7788 52.4877 39.3322 52.6762 39.4672 53.1905C39.6022 53.7048 39.2156 54.1269 38.5298 54.3069L36.6379 54.8034L36.2073 53.1625ZM48.1407 54.5202C48.7591 54.3579 49.3691 54.1389 49.9663 53.8709C50.5619 53.5968 51.0026 53.3307 51.2943 53.0708L50.7038 51.0203C50.5386 51.3386 50.2427 51.6322 49.8159 51.9013C49.3891 52.1703 48.9186 52.3723 48.4104 52.5057C47.7492 52.6793 47.1351 52.6834 46.5697 52.5241C45.9983 52.3665 45.6405 52.1005 45.4903 51.7276L45.5722 51.6407C46.3729 51.9737 47.2445 51.9282 48.3221 51.6454C49.9568 51.2164 50.7426 50.395 50.4389 49.2378C50.3152 48.7663 50.0573 48.3824 49.5933 48.0854C48.9311 47.6571 47.8058 47.5336 46.2123 47.9452C44.8959 48.2907 43.9102 48.9486 43.408 49.7283C42.9013 50.5157 42.7522 51.4187 42.9916 52.331C43.2519 53.3229 43.8481 54.0237 44.7848 54.4258C45.7215 54.8279 46.8365 54.8625 48.1407 54.5202ZM47.0442 51.2151C46.3891 51.387 45.8514 51.358 45.425 51.1296C45.3885 50.7661 45.4786 50.4611 45.6814 50.2115C45.8858 49.968 46.1556 49.7991 46.4862 49.7123C47.2271 49.5179 47.776 49.7141 47.9061 50.2101C47.9624 50.4244 47.9033 50.6231 47.7304 50.8125C47.5592 51.0079 47.332 51.1395 47.0442 51.2151ZM56.3513 52.3654C56.6207 52.2947 56.8927 52.1841 57.1689 52.0396C57.439 51.8967 57.6598 51.7406 57.8223 51.5867L57.2438 49.3825C57.1128 49.6067 56.7625 49.8426 56.4135 49.9342C56.0767 50.0226 55.7632 50.0001 55.4776 49.8591C55.1935 49.7243 55.0032 49.4732 54.9084 49.1119L54.3283 46.9016L56.3733 46.3649L56.1532 45.5261L54.1082 46.0628L53.4494 43.5525L50.986 44.9385L51.4632 46.757L50.3489 47.0494L50.569 47.8882L51.6833 47.5958L52.5301 50.8224C52.9463 52.4082 54.2206 52.9246 56.3513 52.3654ZM62.1189 50.8518C62.3883 50.7811 62.6603 50.6704 62.9365 50.5259C63.2066 50.3831 63.4274 50.2269 63.5899 50.073L63.0114 47.8689C62.8805 48.093 62.5301 48.3289 62.1811 48.4205C61.8443 48.5089 61.5309 48.4865 61.2452 48.3455C60.9611 48.2106 60.7708 47.9595 60.676 47.5983L60.096 45.388L62.1409 44.8513L61.9208 44.0125L59.8758 44.5491L59.217 42.0388L56.7536 43.4249L57.2308 45.2433L56.1165 45.5358L56.3366 46.3746L57.4509 46.0821L58.2977 49.3088C58.7139 50.8946 59.9882 51.4109 62.1189 50.8518ZM68.5049 49.1758C69.1233 49.0135 69.7333 48.7945 70.3305 48.5265C70.9261 48.2524 71.3667 47.9863 71.6585 47.7265L71.068 45.6759C70.9028 45.9942 70.6069 46.2878 70.1801 46.5569C69.7533 46.8259 69.2828 47.028 68.7746 47.1613C68.1134 47.3349 67.4993 47.339 66.9339 47.1797C66.3625 47.0221 66.0047 46.7561 65.8545 46.3832L65.9364 46.2963C66.7371 46.6293 67.6087 46.5838 68.6863 46.301C70.321 45.872 71.1068 45.0506 70.8031 43.8934C70.6793 43.422 70.4215 43.0381 69.9575 42.741C69.2953 42.3127 68.17 42.1892 66.5765 42.6008C65.2601 42.9463 64.2744 43.6042 63.7722 44.3839C63.2655 45.1713 63.1164 46.0743 63.3558 46.9866C63.6161 47.9785 64.2123 48.6793 65.149 49.0814C66.0857 49.4835 67.2007 49.5181 68.5049 49.1758ZM67.4084 45.8707C66.7533 46.0426 66.2156 46.0136 65.7891 45.7852C65.7527 45.4217 65.8428 45.1167 66.0456 44.8671C66.25 44.6237 66.5198 44.4547 66.8504 44.3679C67.5913 44.1735 68.1402 44.3698 68.2703 44.8657C68.3266 45.08 68.2675 45.2787 68.0946 45.4681C67.9234 45.6635 67.6962 45.7952 67.4084 45.8707ZM76.2403 46.9559C75.9329 46.5327 75.6755 45.9262 75.4682 45.1363L75.3204 44.573C75.1838 44.0526 75.2611 43.5742 75.5446 43.1333C75.8281 42.6924 76.2301 42.4037 76.7444 42.2687C77.3383 42.1128 78.0042 42.2064 78.411 42.4596L77.7329 39.8758C77.4114 39.8228 77.0647 39.8483 76.6851 39.9479C75.485 40.2629 74.8799 41.2986 75.0219 42.8124L74.8689 42.8526L74.7709 42.4791C74.6921 42.1791 74.6469 41.8572 74.6413 41.5118C74.6296 41.168 74.6724 40.8819 74.7602 40.6429L71.1722 41.5845C71.5822 42.3735 71.9228 43.2723 72.1879 44.2826L72.4611 45.3234C72.5928 45.8255 72.6792 46.2544 72.7264 46.6085C72.7751 46.9688 72.8044 47.3799 72.8177 47.8542L76.2403 46.9559ZM90.005 43.5464C90.3479 43.4564 90.7233 43.2663 90.9213 43.1227C91.1176 42.973 91.3184 42.8156 91.3413 42.803L90.5431 39.6618C90.0865 40.1415 89.3646 40.5077 88.3788 40.7664L85.8869 41.4204L85.1429 38.5856C84.8247 37.3733 84.6479 36.3006 84.6202 35.372L81.1853 36.2734C81.3739 36.6428 81.5698 37.1149 81.7808 37.6944C81.9917 38.2738 82.1641 38.8307 82.3071 39.3756L82.945 41.8063C83.0912 42.3635 83.2242 42.97 83.3394 43.6334C83.4562 44.303 83.5178 44.8366 83.5394 45.2432C83.7535 45.0365 84.0581 44.8257 84.45 44.5985C84.842 44.3713 85.2928 44.1941 85.801 44.0607C87.2885 43.6441 88.7563 43.9003 90.005 43.5464ZM95.4571 42.1024C96.7245 41.7698 97.4168 40.9664 97.534 39.6922L97.6993 39.6489L97.7395 39.8019C97.876 40.3224 97.8834 40.8243 97.7678 41.3063L101.258 40.3903C100.84 39.6229 100.5 38.7241 100.23 37.6955L99.9599 36.6669C99.8265 36.1587 99.7369 35.7175 99.6943 35.3557C99.6456 34.9954 99.6223 34.5827 99.6123 34.1207L96.1775 35.0221C96.3413 35.2474 96.5176 35.62 96.708 36.146C96.8939 36.6796 97.0421 37.1447 97.1498 37.5549L97.3072 38.1549C97.4133 38.559 97.3747 38.9356 97.1837 39.2802C96.9943 39.631 96.6884 39.8618 96.266 39.9727C95.8557 40.0803 95.5081 40.0276 95.2109 39.8176C94.9153 39.6138 94.7073 39.2953 94.5949 38.8667L94.4406 38.279C94.1931 37.3361 94.0552 36.4364 94.0284 35.5861L90.6058 36.4844C91.0157 37.2734 91.3692 38.2212 91.66 39.3294L91.8352 39.9967C92.0682 40.8845 92.4962 41.5183 93.1256 41.8963C93.7549 42.2743 94.5326 42.3451 95.4571 42.1024ZM106.637 39.1683C107.096 39.0478 107.607 38.8745 108.171 38.6545C108.734 38.4284 109.146 38.2286 109.4 38.0506L108.835 35.8954C108.593 36.1485 108.271 36.3902 107.871 36.6129C107.471 36.8356 107.082 36.9967 106.708 37.0948C105.239 37.4804 104.265 37.1862 104.035 36.3107C103.804 35.429 104.473 34.7103 105.795 34.3632C106.181 34.262 106.587 34.2143 107.016 34.2262C107.444 34.2381 107.786 34.2924 108.04 34.3892L107.616 32.2754C107.316 32.2297 106.874 32.241 106.296 32.3077C105.712 32.3759 105.248 32.452 104.899 32.5435C103.356 32.9485 102.27 33.626 101.751 34.4166C101.228 35.215 101.109 36.0838 101.353 37.0145C101.598 37.9451 102.128 38.6437 102.974 39.076C103.816 39.516 105.094 39.5733 106.637 39.1683ZM117.674 36.285C117.992 36.2015 118.28 36.0538 118.533 35.8436C118.787 35.6395 118.946 35.4211 119.01 35.1947L118.269 32.4704C118.201 33.0838 117.781 33.6261 116.979 33.8366C116.593 33.9378 116.196 33.8718 115.96 33.7701C115.718 33.6701 115.385 33.5742 115.109 33.6204L115.069 33.4673L115.136 33.4497C116.024 33.2167 116.69 32.8849 117.133 32.4545C117.572 32.0317 117.72 31.5479 117.577 31.003C117.284 29.8886 116.379 29.5307 114.854 29.9308C114.107 30.1268 113.523 30.496 113.105 31.0444C112.68 31.5944 112.483 32.2155 112.501 32.9108L112.397 32.9381L112.039 31.5727C111.694 30.2564 111.507 29.173 111.481 28.3227L108.058 29.221C108.468 30.01 108.844 31.0435 109.18 32.3231L109.818 34.7539C110.152 36.0274 110.332 37.1123 110.362 38.001L113.785 37.1027C113.419 36.433 113.129 35.6779 112.909 34.8391L112.818 34.4901C112.96 34.407 113.094 34.3456 113.216 34.3135C114.012 34.1046 114.504 34.5579 114.977 35.0882C115.295 35.4499 115.642 35.8236 116.032 36.0877C116.423 36.358 117.006 36.4602 117.674 36.285ZM112.645 33.7827C112.603 33.4731 112.702 33.1526 112.952 32.8318C113.202 32.5111 113.506 32.3003 113.867 32.2055C114.388 32.0689 114.781 32.1948 114.879 32.5683C114.982 32.9601 114.745 33.2316 114.176 33.381L112.645 33.7827ZM47.9672 72.9855C47.8024 72.6819 47.6049 72.2036 47.3714 71.5385C47.138 70.8733 46.9435 70.2568 46.794 69.6874L46.4132 68.2363L46.5969 68.1881L51.0897 72.166L53.7837 71.459L52.3135 65.8567C51.9648 64.5281 51.7848 63.4431 51.7673 62.6035L48.3324 63.5049C48.4879 63.7979 48.6773 64.2456 48.8979 64.8617C49.1186 65.4779 49.2941 66.047 49.4307 66.5675L49.8227 68.0614L49.6452 68.108L45.3387 64.3168L42.2281 65.107C42.638 65.896 43.014 66.9295 43.3498 68.2091L43.9877 70.6399C44.322 71.9134 44.502 72.9983 44.5323 73.887L47.9672 72.9855ZM59.3653 70.184C59.9837 70.0217 60.5937 69.8027 61.1909 69.5347C61.7865 69.2606 62.2272 68.9944 62.5189 68.7346L61.9284 66.6841C61.7632 67.0023 61.4673 67.296 61.0405 67.565C60.6138 67.8341 60.1432 68.0361 59.635 68.1695C58.9738 68.343 58.3597 68.3471 57.7943 68.1879C57.2229 68.0303 56.8651 67.7642 56.7149 67.3914L56.7968 67.3044C57.5975 67.6375 58.4691 67.592 59.5467 67.3092C61.1814 66.8801 61.9672 66.0588 61.6635 64.9016C61.5398 64.4301 61.2819 64.0462 60.8179 63.7492C60.1557 63.3208 59.0304 63.1973 57.4369 63.609C56.1205 63.9545 55.1348 64.6124 54.6326 65.392C54.1259 66.1795 53.9768 67.0825 54.2162 67.9948C54.4765 68.9866 55.0727 69.6875 56.0094 70.0896C56.9461 70.4916 58.0612 70.5262 59.3653 70.184ZM58.2688 66.8788C57.6137 67.0508 57.076 67.0217 56.6496 66.7933C56.6131 66.4299 56.7032 66.1248 56.906 65.8753C57.1104 65.6318 57.3802 65.4628 57.7108 65.3761C58.4517 65.1816 59.0006 65.3779 59.1307 65.8738C59.187 66.0881 59.1279 66.2869 58.9551 66.4762C58.7838 66.6717 58.5566 66.8033 58.2688 66.8788ZM66.0904 68.2292C66.1778 67.6893 66.3199 67.1088 66.5063 66.4971L66.7538 65.8693L66.8824 65.8356L67.4031 66.2486C67.8719 66.6884 68.2869 67.1227 68.6436 67.5592L71.8213 66.7252C71.2381 66.3482 70.4478 65.731 69.4428 64.8691L68.5547 64.1532L68.8991 63.271C69.2913 62.1471 69.6827 61.2198 70.0718 60.4829L66.8757 61.3216C66.7971 61.82 66.6727 62.3435 66.4964 62.8937L66.2728 63.4628L66.1319 63.4998L65.6576 63.1138C65.2339 62.7211 64.8684 62.3262 64.5552 61.9306L61.3714 62.7662C62.077 63.2355 62.8734 63.8511 63.7499 64.6223L64.4831 65.2218L64.061 66.2815C63.6523 67.4424 63.267 68.3681 62.9005 69.0664L66.0904 68.2292ZM76.1599 65.7764C76.4293 65.7057 76.7013 65.595 76.9776 65.4505C77.2476 65.3077 77.4685 65.1516 77.6309 64.9977L77.0525 62.7935C76.9215 63.0176 76.5711 63.2536 76.2221 63.3452C75.8854 63.4335 75.5719 63.4111 75.2862 63.2701C75.0021 63.1352 74.8119 62.8841 74.7171 62.5229L74.137 60.3126L76.182 59.7759L75.9619 58.9371L73.9169 59.4738L73.2581 56.9634L70.7946 58.3495L71.2719 60.1679L70.1575 60.4604L70.3777 61.2992L71.492 61.0067L72.3388 64.2334C72.755 65.8192 74.0292 66.3356 76.1599 65.7764ZM87.3853 62.6406C86.9753 61.8516 86.5994 60.8181 86.2652 59.5445L85.5501 56.8199L86.64 56.5339C87.289 56.3636 87.8892 56.3566 88.4452 56.5052L87.1015 53.3303L79.5522 55.3116L79.9407 58.7371C80.3399 58.3378 80.8662 58.0492 81.5214 57.8772L82.6908 57.5703L83.4058 60.2949C83.7401 61.5685 83.9201 62.6534 83.9504 63.542L87.3853 62.6406ZM91.6121 54.0838C91.8217 53.7604 91.8728 53.4067 91.7716 53.021C91.6688 52.6291 91.4489 52.3399 91.1075 52.1612C90.7661 51.9825 90.3666 51.9565 89.9013 52.0786C89.4359 52.2007 89.1007 52.4196 88.8972 52.7413C88.6876 53.0646 88.638 53.4245 88.7409 53.8163C88.8421 54.2021 89.0603 54.4851 89.4017 54.6638C89.737 54.8442 90.1365 54.8702 90.6019 54.7481C91.0672 54.626 91.4024 54.4071 91.6121 54.0838ZM94.0529 60.8907C93.643 60.1017 93.267 59.0682 92.9328 57.7947L92.4781 56.062C92.327 55.4864 92.2387 55.0253 92.2055 54.6741C91.9223 55.0167 91.4663 55.2738 90.8234 55.4426C90.1805 55.6113 89.6386 55.6161 89.187 55.4663C89.3128 55.7212 89.4623 56.1663 89.631 56.8091L90.0857 58.5419C90.42 59.8154 90.6 60.9003 90.6303 61.789L94.0529 60.8907ZM98.6021 59.6968C98.4337 59.4793 98.2558 59.1006 98.0622 58.5624C97.8641 58.0319 97.7159 57.5669 97.6147 57.1811L97.4572 56.5811C97.3463 56.1587 97.3727 55.7853 97.5269 55.4503C97.6827 55.1214 97.9719 54.9016 98.3821 54.7939C99.1903 54.5818 99.701 55.0564 99.9308 55.932L100.082 56.5075C100.249 57.1443 100.37 57.6557 100.45 58.034C100.525 58.42 100.566 58.8018 100.58 59.1778L103.904 58.3053C103.494 57.5163 103.157 56.6297 102.9 55.6501L102.765 55.1358C102.673 54.7607 102.715 54.3963 102.881 54.0581C103.048 53.7199 103.317 53.4988 103.703 53.3975C104.493 53.1903 105.003 53.6649 105.233 54.5404L105.384 55.116C105.636 56.0772 105.767 56.9724 105.784 57.812L109.219 56.9106C108.822 56.1705 108.468 55.2227 108.165 54.0655L107.99 53.3982C107.541 51.6899 106.474 50.7397 104.594 51.233C103.253 51.5849 102.478 52.4952 102.374 53.694L102.22 53.7342C101.601 52.7189 100.717 52.2701 99.2918 52.6245C98.055 52.9491 97.3705 53.7571 97.2304 55.0438L97.0774 55.084L97.034 54.9186C96.891 54.3737 96.8836 53.8717 97.0057 53.4143L93.5157 54.3302C93.9128 55.0702 94.2534 55.9691 94.5314 57.0283L94.8013 58.0569C94.9379 58.5773 95.0275 59.0185 95.0763 59.3787C95.1266 59.7451 95.1543 60.1501 95.1611 60.5999L98.6021 59.6968ZM114.409 55.7384C115.027 55.5761 115.637 55.3571 116.234 55.0891C116.83 54.815 117.27 54.5488 117.562 54.289L116.972 52.2385C116.807 52.5567 116.511 52.8504 116.084 53.1194C115.657 53.3885 115.187 53.5905 114.678 53.7239C114.017 53.8974 113.403 53.9015 112.838 53.7423C112.266 53.5847 111.908 53.3186 111.758 52.9458L111.84 52.8588C112.641 53.1919 113.512 53.1464 114.59 52.8636C116.225 52.4345 117.01 51.6132 116.707 50.456C116.583 49.9845 116.325 49.6006 115.861 49.3036C115.199 48.8752 114.074 48.7517 112.48 49.1634C111.164 49.5089 110.178 50.1668 109.676 50.9465C109.169 51.7339 109.02 52.6369 109.26 53.5492C109.52 54.541 110.116 55.2419 111.053 55.644C111.989 56.046 113.104 56.0806 114.409 55.7384ZM113.312 52.4332C112.657 52.6052 112.119 52.5761 111.693 52.3477C111.656 51.9843 111.746 51.6792 111.949 51.4297C112.154 51.1862 112.424 51.0172 112.754 50.9305C113.495 50.736 114.044 50.9323 114.174 51.4282C114.23 51.6425 114.171 51.8413 113.998 52.0306C113.827 52.2261 113.6 52.3577 113.312 52.4332Z" fill="#F05127"/>
<rect x="8.28654" y="40.2152" width="128.168" height="56.0592" rx="5.35004" transform="rotate(-14.7051 8.28654 40.2152)" stroke="#F05127" stroke-width="1.86089"/>
</svg>
