<svg width="405" height="247" viewBox="0 0 405 247" fill="none" xmlns="http://www.w3.org/2000/svg">
<path fill-rule="evenodd" clip-rule="evenodd" d="M2.72628 76.4907C11.5104 75.1051 17.4108 66.2445 15.9053 56.7001V56.7L359.454 2.50879V2.50894C360.96 12.0532 369.301 18.6672 378.085 17.2819L402.237 170.398C393.454 171.784 387.553 180.644 389.059 190.188L45.5097 244.379C44.0042 234.835 35.6627 228.221 26.8786 229.606L26.8784 229.607L2.72604 76.4907C2.72612 76.4907 2.7262 76.4907 2.72628 76.4907Z" fill="#A9E9F5"/>
<path d="M350.569 29.4588L32.6547 79.6064C29.2105 80.1497 26.8589 83.3821 27.4022 86.8263L47.0822 211.589C47.6254 215.033 50.8579 217.385 54.3021 216.842L372.217 166.694C375.661 166.151 378.012 162.918 377.469 159.474L357.789 34.7113C357.246 31.2672 354.013 28.9155 350.569 29.4588Z" stroke="#025F71" stroke-width="1.30621"/>
<path d="M56.7923 75.1379L78.6431 213.663" stroke="#025F71" stroke-width="1.30621"/>
<path d="M327.518 32.4338L349.368 170.959" stroke="#025F71" stroke-width="1.30621"/>
<path d="M92.2459 106.412C91.546 104.655 90.9701 102.387 90.5336 99.6195L89.5997 93.6994L91.9678 93.3259C93.378 93.1034 94.6502 93.2164 95.7956 93.6493L93.6268 86.6423L77.2234 89.2297L77.3169 96.5641C78.2468 95.8038 79.4225 95.3048 80.846 95.0802L83.3869 94.6794L84.3208 100.6C84.7573 103.367 84.9074 105.702 84.7825 107.589L92.2459 106.412ZM107.013 104.083C106.718 103.598 106.424 102.771 106.146 101.615C105.871 100.473 105.654 99.4433 105.511 98.5386L105.279 97.2391C105.125 96.3498 105.287 95.5608 105.778 94.8698C106.255 94.1809 106.952 93.7574 107.87 93.6126C109.639 93.3335 110.876 94.4336 111.172 96.3094L111.37 97.56C111.699 99.6486 111.784 101.571 111.643 103.353L119.106 102.175C118.423 100.524 117.876 98.4425 117.48 95.9281L117.251 94.478C116.947 92.549 116.175 91.1163 114.923 90.1821C113.672 89.2479 112.04 88.9325 110.005 89.2536C107.304 89.6796 105.67 91.2464 105.099 93.9405L104.793 93.9888L104.481 92.0066C104.036 89.1862 103.872 86.8532 104.004 85.0055L96.5536 86.1806C96.8854 86.9873 97.1975 88.0152 97.5187 89.2734C97.842 90.545 98.0903 91.7738 98.2813 92.9845L99.1144 98.266C99.3054 99.4766 99.4473 100.722 99.5269 102.005C99.6087 103.301 99.6302 104.388 99.5628 105.258L107.013 104.083ZM130.382 100.792C131.725 100.58 133.063 100.246 134.385 99.8061C135.704 99.3526 136.693 98.883 137.366 98.395L136.553 93.9285C136.135 94.567 135.446 95.1256 134.485 95.6044C133.525 96.0832 132.486 96.4107 131.381 96.5849C129.945 96.8115 128.644 96.6895 127.481 96.2321C126.305 95.7768 125.604 95.1374 125.365 94.3161L125.557 94.1495C127.181 95.025 129.036 95.1142 131.378 94.7448C134.93 94.1845 136.768 92.6129 136.371 90.0985C136.21 89.0742 135.745 88.2066 134.826 87.4789C133.516 86.4313 131.16 85.9303 127.699 86.4626C124.838 86.9138 122.612 88.0967 121.383 89.6404C120.142 91.1995 119.634 93.0794 119.947 95.0617C120.287 97.2169 121.4 98.8274 123.297 99.878C125.195 100.929 127.548 101.239 130.382 100.792ZM128.764 93.5618C127.34 93.7864 126.208 93.6105 125.354 93.0362C125.354 92.259 125.61 91.6324 126.092 91.1472C126.577 90.6754 127.184 90.3751 127.903 90.2618C129.512 90.0079 130.632 90.5402 130.802 91.6178C130.876 92.0834 130.708 92.4916 130.302 92.8556C129.898 93.2329 129.389 93.4632 128.764 93.5618ZM156.284 96.7063C159.144 96.2551 161.495 94.998 163.117 93.0923C164.726 91.1888 165.441 88.3763 164.935 85.1701C164.53 82.6026 163.448 80.4963 161.966 79.1349C159.705 77.0782 156.561 76.3334 153.155 76.8706C150.281 77.3239 147.905 78.5985 146.295 80.4888C144.673 82.3944 143.944 85.209 144.448 88.4018C144.954 91.608 146.513 94.0617 148.643 95.3755C150.759 96.6914 153.41 97.1596 156.284 96.7063ZM155.518 91.8505C154.414 92.0246 153.438 91.715 152.592 90.9349C151.733 90.1569 151.176 88.963 150.927 87.3799C150.677 85.7967 150.841 84.5028 151.406 83.5003C151.97 82.4977 152.819 81.9139 153.923 81.7397C155.014 81.5677 155.988 81.864 156.833 82.6441C157.679 83.4242 158.233 84.6048 158.483 86.1879C158.733 87.7711 158.571 89.0783 158.007 90.0808C157.442 91.0834 156.609 91.6784 155.518 91.8505ZM175.766 93.2378C175.097 91.6798 174.534 89.4917 174.087 86.658L173.783 84.729L174.049 84.687C174.575 85.8585 175.431 86.7051 176.62 87.2402C177.808 87.7753 179.116 87.9373 180.552 87.7106C182.428 87.4148 183.82 86.5545 184.751 85.1122C185.685 83.6833 185.964 81.8258 185.603 79.5376C184.837 74.6818 180.393 72.9559 175.963 73.6547L165.293 75.3377C165.993 77.0952 166.569 79.3632 167.008 82.1436L167.841 87.4251C168.277 90.1923 168.428 92.5274 168.303 94.415L175.766 93.2378ZM177.126 84.2289C176.288 84.3611 175.484 84.188 174.728 83.7209C173.973 83.2537 173.494 82.5521 173.292 81.6159L173.048 80.0727C173.826 79.8138 174.813 79.5899 176.01 79.401C177.926 79.0988 179.249 79.9672 179.484 81.4572C179.595 82.1623 179.418 82.7631 178.966 83.2706C178.503 83.7936 177.885 84.1093 177.126 84.2289ZM204.855 89.0447C207.662 88.6019 209.895 87.7998 211.521 86.6161C213.135 85.4344 213.909 83.7716 213.598 81.8027C213.338 80.1531 212.358 79.0396 211.084 78.5724C209.813 78.1185 208.169 77.9005 206.588 77.9864C203.394 78.0538 200.272 78.5736 200.035 77.0703C199.966 76.6313 200.248 76.2595 200.864 75.9305C201.48 75.6015 202.302 75.3629 203.339 75.1992C204.71 74.9831 206.111 74.9665 207.529 75.1382C208.947 75.31 210.102 75.6322 210.993 76.0917L209.906 69.2004C208.896 69.0189 207.679 68.9109 206.242 68.8785C204.805 68.8461 203.416 68.9425 202.099 69.1502C200.263 69.4398 198.674 69.9087 197.346 70.5681C196.005 71.2295 194.979 72.0731 194.286 73.1232C193.592 74.1734 193.339 75.3314 193.54 76.6086C193.777 78.1119 194.58 79.226 195.647 79.7667C196.716 80.3207 198.075 80.6381 199.497 80.6593C203.007 80.7872 206.801 79.9434 207.015 81.3004C207.149 82.1518 206.019 82.7664 203.638 83.142C202.002 83.4001 200.327 83.4188 198.629 83.1959C196.917 82.9751 195.449 82.484 194.198 81.7269L195.089 88.9354C196.449 89.1708 198.078 89.2957 199.977 89.3233C201.877 89.3509 203.498 89.2587 204.855 89.0447ZM228.129 84.9781C227.429 83.2206 226.853 80.9526 226.417 78.1855L225.483 72.2653L227.851 71.8918C229.261 71.6694 230.533 71.7823 231.679 72.2152L229.51 65.2082L213.107 67.7957L213.2 75.13C214.13 74.3697 215.306 73.8707 216.729 73.6462L219.27 73.2453L220.204 79.1655C220.64 81.9326 220.791 84.2677 220.666 86.1554L228.129 84.9781ZM245.764 82.5918C247.374 82.3379 248.78 82.0069 249.999 81.6101C251.203 81.2021 252.405 80.6988 253.606 80.1004L252.479 72.9563C251.801 73.7586 250.903 74.4594 249.784 75.0585C248.665 75.6577 247.435 76.0699 246.104 76.2798C242.858 76.7918 239.771 76.1472 239.351 73.4865C239.16 72.2758 239.583 71.241 240.605 70.3709C241.629 69.514 243.037 68.9373 244.82 68.6561C245.871 68.4903 246.947 68.4842 248.035 68.6398C249.112 68.8108 250 69.0798 250.701 69.4601L249.711 62.8398C248.871 62.6177 247.816 62.4978 246.557 62.4647C245.299 62.4449 244.005 62.54 242.662 62.7519C240.413 63.1066 238.318 63.9142 236.544 65.2849C235.657 65.9702 234.908 66.7564 234.309 67.628C233.1 69.3867 232.526 71.7952 232.944 74.4426C233.363 77.1033 234.64 79.2335 236.331 80.5346C238.878 82.5053 242.431 83.1584 245.764 82.5918ZM98.0928 138.898C99.3832 138.694 100.498 138.328 101.452 137.809C103.361 136.772 104.459 135.003 104.126 132.888C103.964 131.863 103.531 131.018 102.828 130.366C101.411 129.076 99.2951 128.714 96.7807 129.111L96.3151 129.184L96.2584 128.825L96.3649 128.808C99.7636 128.313 102.315 126.165 101.854 123.416C101.4 120.447 98.1483 119.283 94.4582 119.919L82.2322 121.848C82.9272 123.661 83.4898 125.931 83.92 128.658L84.7531 133.939C85.1812 136.653 85.3447 138.986 85.2415 140.925L98.0928 138.898ZM89.8348 125.789L93.2937 125.243C94.7305 125.016 95.7499 125.428 95.9031 126.399C96.0605 127.397 95.2041 128.105 93.7806 128.33L90.3217 128.875L89.8348 125.789ZM90.6742 131.11L94.7584 130.466C96.2617 130.229 97.3931 130.746 97.5694 131.863C97.7457 132.981 96.8374 133.792 95.3474 134.027L91.2366 134.676L90.6742 131.11ZM115.289 136.581C118.269 136.111 120.524 134.937 121.751 133.38C122.965 131.825 123.437 129.978 123.12 127.969C122.803 125.96 121.785 124.348 120.152 123.243C118.505 122.139 116.011 121.714 113.045 122.182C110.065 122.652 107.809 123.826 106.596 125.381C105.369 126.938 104.896 128.785 105.213 130.794C105.53 132.803 106.548 134.415 108.195 135.518C109.828 136.624 112.322 137.049 115.289 136.581ZM114.661 132.603C113.717 132.752 112.91 132.566 112.228 132.046C111.548 131.54 111.134 130.814 110.987 129.883C110.84 128.952 111.011 128.134 111.5 127.43C111.991 126.739 112.701 126.313 113.646 126.164C114.617 126.011 115.437 126.195 116.116 126.702C116.783 127.21 117.197 127.935 117.346 128.88C117.495 129.825 117.324 130.642 116.847 131.331C116.356 132.022 115.632 132.45 114.661 132.603ZM131.147 134.079C133.821 133.658 135.442 132.352 135.935 130.638L136.241 130.59L136.279 130.829C136.417 131.707 136.376 132.396 136.154 132.894L143.099 131.799C142.739 131.16 142.451 130.374 142.209 129.444C141.967 128.514 141.702 127.179 141.429 125.449L141.064 123.134C140.512 119.636 137.364 118.346 131.603 119.255C130.512 119.427 129.303 119.713 127.991 120.125C126.665 120.538 125.715 120.906 125.125 121.231L125.74 125.129C126.163 124.612 126.825 124.14 127.725 123.711C128.612 123.285 129.6 122.979 130.678 122.809C131.888 122.618 132.941 122.725 133.839 123.142C134.723 123.562 135.246 124.284 135.412 125.335L135.601 126.532L135.242 126.589C134.266 125.161 132.331 124.389 129.711 124.803C127.941 125.082 126.627 125.739 125.783 126.786C124.939 127.832 124.621 129.014 124.829 130.331C124.963 131.183 125.298 131.921 125.817 132.534C126.86 133.788 128.792 134.451 131.147 134.079ZM133.471 130.577C131.875 130.829 130.763 130.268 130.61 129.296C130.451 128.285 131.328 127.452 132.938 127.198C133.723 127.074 134.387 127.133 134.918 127.39C135.449 127.647 135.752 128.008 135.825 128.474C135.987 129.498 135.081 130.323 133.471 130.577ZM152.771 130.273C152.21 129.312 151.794 127.973 151.524 126.257L151.33 125.033C151.152 123.902 151.418 122.906 152.112 122.033C152.806 121.16 153.718 120.634 154.836 120.458C156.126 120.254 157.516 120.594 158.323 121.216L157.437 115.602C156.768 115.422 156.029 115.402 155.204 115.532C152.596 115.943 151.095 118.007 151.073 121.242L150.741 121.294L150.613 120.483C150.51 119.831 150.483 119.14 150.544 118.408C150.593 117.677 150.744 117.081 150.981 116.594L143.185 117.823C143.885 119.581 144.415 121.556 144.761 123.751L145.118 126.013C145.29 127.104 145.381 128.03 145.406 128.79C145.432 129.563 145.407 130.439 145.334 131.446L152.771 130.273ZM167.026 128.42C169.887 127.969 171.598 126.199 172.131 123.783L172.516 123.722L172.569 124.055C172.659 124.627 172.697 125.126 172.682 125.551C172.654 125.978 172.576 126.522 172.42 127.174L179.857 126.001C179.157 124.243 178.581 121.975 178.144 119.208L177.311 113.926C176.873 111.146 176.723 108.811 176.848 106.923L169.411 108.096C170.111 109.854 170.687 112.122 171.125 114.902L171.434 116.858L171.074 116.914C169.86 114.747 167.629 113.572 164.756 114.025C162.641 114.359 161.064 115.426 160.262 116.916C159.461 118.405 159.202 120.219 159.519 122.228C160.14 126.166 162.689 129.104 167.026 128.42ZM169.143 124.118C168.119 124.28 167.246 124.104 166.535 123.575C165.824 123.046 165.392 122.297 165.239 121.325C165.086 120.354 165.266 119.508 165.779 118.786C166.293 118.064 167.069 117.628 168.094 117.466C169.092 117.309 169.927 117.505 170.624 118.035C171.321 118.566 171.74 119.318 171.891 120.276C172.036 121.194 171.854 122.027 171.358 122.774C170.862 123.52 170.114 123.965 169.143 124.118ZM187.497 117.733L186.558 113.163L190.784 115.06L191.606 113.008L187.216 111.546L190.942 108.804L189.525 107.078L186.084 110.157L185.575 105.547L183.366 105.895L184.301 110.438L180.079 108.568L179.288 110.642L183.651 112.108L179.952 114.846L181.338 116.55L184.775 113.444L185.289 118.081L187.497 117.733Z" fill="#025F71"/>
<path d="M342.437 70.0554C342.632 71.2933 342.956 72.3657 343.418 73.271C343.87 74.1683 344.451 74.8418 345.172 75.2995C345.883 75.7586 346.673 75.9149 347.552 75.7763C349.801 75.4215 350.329 73.5466 350.455 71.5218C350.59 69.0017 350.099 66.2607 351.452 66.057C352.256 65.9302 352.822 66.945 353.095 68.6743C353.244 69.6193 353.258 70.5663 353.148 71.5232C353.037 72.4801 352.83 73.2585 352.54 73.8756L356.434 73.2615C356.592 72.607 356.687 71.7978 356.721 70.8434C356.753 69.8795 356.701 68.9385 356.555 68.0124C356.032 64.4532 353.927 61.9765 351.372 62.4182C346.203 63.2336 349.684 71.7306 347.482 72.0779C346.61 72.1962 346.028 71.0288 345.792 69.4098C345.621 68.323 345.609 67.2015 345.753 66.0262C345.897 64.851 346.22 63.8315 346.712 62.9597L342.623 63.44C342.426 64.3427 342.308 65.4363 342.27 66.7305C342.232 68.0246 342.29 69.1293 342.437 70.0554ZM345.178 85.6521C346.065 85.2603 347.397 84.9243 349.183 84.6425L355.127 83.7049L355.46 85.8123C355.603 86.7195 355.556 87.5307 355.331 88.2538L359.282 87.0205L357.487 75.6425L353.347 75.6757C353.787 76.3134 354.082 77.0804 354.224 77.9781L354.568 80.1611L348.624 81.0987C346.923 81.3671 345.554 81.4668 344.507 81.3995L345.178 85.6521ZM346.914 98.4435C347.087 99.5397 347.326 100.5 347.632 101.333C347.936 102.156 348.322 102.948 348.783 103.718L352.865 103.074C352.295 102.592 351.788 101.956 351.365 101.18C350.932 100.396 350.641 99.5312 350.493 98.5956C350.35 97.6884 350.354 96.8549 350.496 96.0965C350.636 95.3286 350.941 94.6801 351.419 94.1494C351.886 93.6109 352.502 93.2812 353.268 93.1605C354.354 92.989 355.305 93.3039 356.109 94.1068C356.914 94.9097 357.428 96.0199 357.653 97.4469C357.769 98.184 357.779 98.9186 357.673 99.6617C357.568 100.405 357.377 101.035 357.112 101.571L360.892 101.033C361.058 100.426 361.147 99.7045 361.178 98.857C361.209 98.0095 361.149 97.1376 361.011 96.2587C360.753 94.6239 360.14 93.1322 359.145 91.9234C358.652 91.3136 358.088 90.8117 357.463 90.4067C356.201 89.5889 354.507 89.2265 352.692 89.5127C348.024 90.2491 346.279 94.4177 346.914 98.4435ZM356.172 105.312C357.2 106.361 358.582 106.898 359.981 106.678C360.557 106.587 360.995 106.353 361.285 105.978C361.574 105.603 361.683 105.189 361.612 104.735C361.549 104.338 361.354 104.021 361.025 103.782C360.686 103.535 360.324 103.447 359.917 103.511C359.53 103.572 359.237 103.744 359.021 104.03C358.803 104.307 358.728 104.628 358.783 104.978C358.802 105.101 358.839 105.211 358.895 105.319C358.554 105.305 358.187 105.188 357.781 104.952C357.376 104.716 357.054 104.457 356.824 104.164L356.172 105.312ZM350.836 121.525L355.112 120.937C354.488 120.484 353.969 119.529 353.768 118.253L353.102 114.029L353.294 113.96L355.886 116.941C357.589 119.142 359.047 120.036 360.701 119.775C361.863 119.591 362.729 118.942 363.297 117.816C363.865 116.69 364.022 115.348 363.774 113.779C363.603 112.692 363.339 111.756 362.973 110.971C362.605 110.177 362.08 109.301 361.395 108.334L357.709 108.915C358.371 109.489 358.936 110.184 359.405 111.011C359.873 111.828 360.167 112.644 360.296 113.466C360.42 114.25 360.397 114.903 360.238 115.431C360.069 115.952 359.748 116.254 359.276 116.329C358.945 116.381 358.595 116.31 358.225 116.117C357.856 115.923 357.365 115.516 356.756 114.906L351.775 109.483L349.006 109.92L350.836 121.525ZM352.95 134.925L357.225 134.338C356.602 133.884 356.083 132.929 355.882 131.654L355.216 127.429L355.408 127.36L357.999 130.341C359.702 132.542 361.161 133.436 362.814 133.175C363.977 132.992 364.843 132.342 365.411 131.216C365.979 130.09 366.135 128.748 365.888 127.179C365.717 126.093 365.453 125.156 365.087 124.371C364.719 123.577 364.194 122.701 363.508 121.734L359.823 122.315C360.485 122.889 361.05 123.584 361.519 124.411C361.987 125.228 362.28 126.044 362.41 126.866C362.534 127.65 362.511 128.303 362.352 128.832C362.182 129.352 361.862 129.655 361.389 129.729C361.059 129.781 360.709 129.711 360.339 129.517C359.97 129.324 359.479 128.917 358.87 128.306L353.888 122.883L351.119 123.32L352.95 134.925Z" fill="#025F71"/>
<path d="M42.6277 117.347C42.823 118.585 43.1471 119.657 43.6095 120.562C44.061 121.46 44.6418 122.133 45.3629 122.591C46.0746 123.05 46.8644 123.206 47.7432 123.068C49.9923 122.713 50.5198 120.838 50.646 118.813C50.7811 116.293 50.2907 113.552 51.6435 113.348C52.4468 113.222 53.0136 114.236 53.2864 115.966C53.4355 116.911 53.4492 117.858 53.3387 118.815C53.2281 119.772 53.0216 120.55 52.7315 121.167L56.625 120.553C56.7833 119.899 56.8784 119.089 56.9118 118.135C56.9438 117.171 56.8922 116.23 56.7461 115.304C56.2235 111.745 54.1185 109.268 51.5635 109.71C46.3943 110.525 49.875 119.022 47.6732 119.369C46.8008 119.488 46.2195 118.32 45.9835 116.701C45.8121 115.615 45.7998 114.493 45.9437 113.318C46.0877 112.143 46.4111 111.123 46.9031 110.251L42.8142 110.732C42.6176 111.634 42.4996 112.728 42.4616 114.022C42.4236 115.316 42.4816 116.421 42.6277 117.347ZM45.3688 132.944C46.2562 132.552 47.5881 132.216 49.3742 131.934L55.3183 130.996L55.6507 133.104C55.7938 134.011 55.7475 134.822 55.5225 135.545L59.4733 134.312L57.6785 122.934L53.5385 122.967C53.9781 123.605 54.2734 124.372 54.415 125.27L54.7593 127.453L48.8152 128.39C47.1142 128.659 45.7449 128.758 44.698 128.691L45.3688 132.944ZM47.1056 145.735C47.2786 146.831 47.5171 147.791 47.8229 148.624C48.1272 149.448 48.5135 150.239 48.9739 151.009L53.0564 150.365C52.4865 149.884 51.9792 149.247 51.5566 148.471C51.123 147.687 50.8317 146.823 50.6841 145.887C50.541 144.98 50.5451 144.146 50.687 143.388C50.8274 142.62 51.1319 141.972 51.6099 141.441C52.077 140.902 52.6933 140.573 53.4587 140.452C54.5455 140.281 55.4959 140.596 56.3005 141.398C57.1051 142.201 57.6192 143.311 57.8443 144.738C57.9606 145.476 57.9699 146.21 57.8644 146.953C57.7588 147.696 57.5677 148.327 57.3036 148.862L61.0831 148.324C61.2488 147.717 61.3385 146.996 61.3694 146.148C61.4004 145.301 61.3403 144.429 61.2017 143.55C60.9438 141.915 60.3308 140.424 59.3363 139.215C58.843 138.605 58.2795 138.103 57.6539 137.698C56.3917 136.88 54.6978 136.518 52.8834 136.804C48.215 137.541 46.4706 141.709 47.1056 145.735ZM56.3635 152.604C57.3909 153.653 58.7735 154.19 60.1721 153.969C60.7485 153.878 61.1862 153.645 61.4758 153.27C61.7653 152.895 61.8743 152.48 61.8027 152.027C61.7401 151.63 61.5447 151.312 61.2165 151.073C60.8773 150.827 60.5148 150.739 60.1084 150.803C59.7209 150.864 59.4285 151.036 59.2121 151.322C58.9942 151.598 58.919 151.92 58.9742 152.27C58.9936 152.393 59.0304 152.503 59.086 152.61C58.7449 152.596 58.3778 152.48 57.9725 152.244C57.5672 152.007 57.2454 151.748 57.0152 151.455L56.3635 152.604ZM51.0273 168.816L55.3027 168.229C54.6791 167.775 54.1605 166.821 53.9593 165.545L53.2929 161.321L53.4854 161.252L56.0767 164.233C57.7799 166.434 59.238 167.327 60.8918 167.066C62.0541 166.883 62.9201 166.233 63.4883 165.107C64.0564 163.981 64.2128 162.639 63.9654 161.071C63.7939 159.984 63.53 159.047 63.1641 158.263C62.7966 157.468 62.271 156.592 61.5858 155.625L57.9003 156.207C58.5622 156.78 59.1271 157.476 59.5965 158.302C60.0644 159.119 60.3577 159.935 60.4874 160.757C60.6111 161.542 60.5881 162.194 60.4294 162.723C60.2597 163.244 59.9393 163.546 59.4668 163.621C59.1361 163.673 58.786 163.602 58.4164 163.408C58.0469 163.215 57.5566 162.808 56.9469 162.197L51.9657 156.775L49.1968 157.211L51.0273 168.816ZM53.1411 182.216L57.4165 181.629C56.7928 181.176 56.2742 180.221 56.073 178.945L55.4067 174.721L55.5992 174.652L58.1905 177.633C59.8936 179.834 61.3517 180.728 63.0055 180.467C64.1679 180.283 65.0339 179.633 65.602 178.508C66.1702 177.382 66.3266 176.04 66.0791 174.471C65.9077 173.384 65.6437 172.448 65.2778 171.663C64.9104 170.868 64.3848 169.992 63.6996 169.026L60.014 169.607C60.6759 170.18 61.2408 170.876 61.7102 171.703C62.1781 172.52 62.4714 173.335 62.6011 174.158C62.7248 174.942 62.7019 175.595 62.5431 176.123C62.3734 176.644 62.0531 176.946 61.5806 177.021C61.2498 177.073 60.8997 177.002 60.5302 176.809C60.1607 176.615 59.6703 176.208 59.0607 175.597L54.0794 170.175L51.3105 170.612L53.1411 182.216Z" fill="#025F71"/>
<path d="M94.2663 194.169C94.1218 193.785 93.9932 193.257 93.8879 192.589L93.343 189.053L93.4438 189.037C93.6794 189.794 94.1316 190.368 94.7983 190.747C95.4598 191.133 96.1968 191.263 97.0032 191.135C97.8663 190.999 98.5998 190.574 99.093 189.934C99.5798 189.296 99.7985 188.389 99.6395 187.381C99.4805 186.373 98.9242 185.589 98.1395 185.158C97.3484 184.727 96.3378 184.583 95.2289 184.758L91.3985 185.362C91.5616 185.782 91.6911 186.317 91.7915 186.953L92.7058 192.75C92.8081 193.398 92.8495 193.947 92.8236 194.397L94.2663 194.169ZM96.4984 190.104C95.8495 190.207 95.1118 190.033 94.4546 189.633C93.7975 189.233 93.2549 188.453 93.0965 187.49L92.9176 186.356C93.543 186.186 94.3309 186.023 95.2759 185.874C96.1453 185.737 96.8628 185.824 97.4231 186.143C97.9834 186.461 98.3106 186.939 98.413 187.588C98.5113 188.211 98.3776 188.756 98.0075 189.234C97.6374 189.712 97.1347 190.004 96.4984 190.104ZM105.098 192.635C106.156 192.468 106.969 192.011 107.542 191.268C108.11 190.526 108.315 189.661 108.159 188.672C108.003 187.683 107.541 186.923 106.779 186.391C106.011 185.86 105.097 185.675 104.039 185.842C102.968 186.01 102.149 186.469 101.582 187.211C101.008 187.953 100.802 188.819 100.958 189.808C101.114 190.797 101.577 191.557 102.351 192.087C103.119 192.618 104.033 192.803 105.098 192.635ZM103.064 191.329C102.511 190.932 102.177 190.371 102.061 189.634C101.945 188.897 102.09 188.26 102.494 187.712C102.898 187.164 103.454 186.838 104.166 186.726C104.877 186.613 105.506 186.753 106.06 187.15C106.613 187.547 106.947 188.108 107.063 188.845C107.179 189.582 107.035 190.218 106.63 190.766C106.226 191.314 105.671 191.641 104.959 191.753C104.247 191.865 103.618 191.726 103.064 191.329ZM111.743 191.412C111.601 191.131 111.475 190.654 111.366 189.967L111.075 188.122C111.015 187.744 111.059 187.362 111.204 186.971C111.35 186.587 111.593 186.245 111.928 185.953C112.262 185.661 112.653 185.477 113.094 185.408C114.386 185.204 115.26 185.795 115.474 187.15L115.805 189.248C115.895 189.821 115.929 190.32 115.907 190.756L117.318 190.533C117.163 190.125 117.038 189.615 116.939 188.991L116.588 186.761C116.444 185.848 116.087 185.181 115.519 184.773C114.944 184.367 114.226 184.235 113.357 184.372C112.065 184.575 111.203 185.37 110.958 186.603L110.839 186.622L110.763 186.143C110.686 185.652 110.675 185.26 110.738 184.959L109.308 185.185C109.443 185.512 109.567 186.009 109.672 186.677L110.224 190.174C110.322 190.797 110.353 191.283 110.325 191.636L111.743 191.412ZM122.095 189.954C122.744 189.851 123.277 189.587 123.694 189.159C124.111 188.732 124.39 188.249 124.517 187.706L124.637 187.687L124.716 188.191C124.781 188.6 124.804 188.991 124.778 189.356L126.17 189.137C126.025 188.753 125.896 188.218 125.787 187.531L124.873 181.735C124.767 181.061 124.725 180.512 124.745 180.102L123.34 180.324C123.495 180.732 123.623 181.261 123.727 181.916L124.136 184.512L124.016 184.531C123.737 184.026 123.329 183.651 122.791 183.394C122.253 183.136 121.654 183.063 120.999 183.166C120.073 183.312 119.379 183.745 118.906 184.471C118.433 185.198 118.279 186.062 118.435 187.051C118.591 188.04 119.009 188.807 119.683 189.353C120.356 189.899 121.163 190.101 122.095 189.954ZM122.4 188.937C121.688 189.05 121.06 188.916 120.515 188.531C119.97 188.145 119.644 187.596 119.531 186.878C119.418 186.16 119.558 185.537 119.958 185.003C120.358 184.468 120.915 184.148 121.627 184.036C122.301 183.929 122.898 184.074 123.419 184.47C123.94 184.865 124.259 185.416 124.37 186.115C124.431 186.505 124.391 186.906 124.248 187.309C124.105 187.713 123.871 188.072 123.538 188.377C123.205 188.681 122.828 188.87 122.4 188.937ZM128.067 180.573C128.183 180.412 128.226 180.231 128.195 180.036C128.132 179.633 127.78 179.372 127.333 179.442C126.886 179.513 126.62 179.871 126.683 180.275C126.714 180.47 126.81 180.629 126.977 180.745C127.144 180.86 127.337 180.901 127.558 180.866C127.778 180.831 127.95 180.733 128.067 180.573ZM129.509 188.61C129.362 188.252 129.232 187.717 129.12 187.006L128.54 183.326C128.459 182.816 128.424 182.428 128.441 182.167C128.334 182.268 128.126 182.339 127.817 182.388C127.508 182.437 127.282 182.433 127.124 182.374C127.216 182.586 127.307 182.959 127.393 183.507L127.974 187.186C128.08 187.86 128.115 188.41 128.085 188.835L129.509 188.61ZM138.745 187.153C138.6 186.808 138.47 186.273 138.356 185.549L137.373 179.318L139.345 179.007C139.874 178.923 140.298 178.908 140.61 178.962L140.18 177.668L132.992 178.802L132.987 180.165C133.267 180.017 133.663 179.903 134.185 179.821L136.189 179.505L137.172 185.735C137.276 186.397 137.317 186.946 137.296 187.382L138.745 187.153ZM143.495 186.404C143.364 186.147 143.253 185.732 143.161 185.146L142.86 183.237C142.755 182.569 142.896 181.953 143.285 181.388C143.674 180.823 144.17 180.493 144.769 180.398C145.178 180.334 145.652 180.388 145.885 180.513L145.714 179.429C145.432 179.364 145.116 179.362 144.763 179.418C143.622 179.598 142.891 180.488 142.739 181.855L142.644 181.87L142.541 181.215C142.464 180.73 142.462 180.304 142.528 179.945L141.073 180.174C141.207 180.534 141.324 181.032 141.424 181.668L141.978 185.178C142.071 185.77 142.109 186.254 142.09 186.626L143.495 186.404ZM147.849 177.452C147.966 177.292 148.008 177.111 147.977 176.916C147.914 176.512 147.563 176.251 147.115 176.322C146.668 176.392 146.402 176.751 146.465 177.154C146.496 177.349 146.592 177.509 146.759 177.624C146.926 177.74 147.119 177.781 147.34 177.746C147.56 177.711 147.732 177.613 147.849 177.452ZM149.291 185.49C149.144 185.132 149.015 184.597 148.902 183.885L148.322 180.206C148.242 179.696 148.206 179.307 148.223 179.046C148.116 179.147 147.908 179.219 147.599 179.267C147.291 179.316 147.064 179.313 146.906 179.254C146.998 179.466 147.089 179.839 147.175 180.387L147.756 184.066C147.862 184.74 147.897 185.29 147.867 185.714L149.291 185.49ZM153.025 187.548C152.858 187.103 152.723 186.575 152.626 185.958L152.214 183.35L152.347 183.329C152.626 183.834 153.029 184.216 153.56 184.474C154.093 184.739 154.686 184.813 155.341 184.71C156.273 184.563 156.979 184.122 157.451 183.395C157.924 182.669 158.086 181.81 157.93 180.821C157.774 179.832 157.355 179.059 156.681 178.513C156.008 177.967 155.202 177.771 154.27 177.918C153.621 178.021 153.081 178.286 152.664 178.707C152.24 179.136 151.968 179.618 151.846 180.154L151.713 180.175L151.634 179.671C151.573 179.286 151.558 178.901 151.587 178.516L150.195 178.735C150.327 179.082 150.451 179.618 150.563 180.33L151.479 186.139C151.592 186.857 151.639 187.399 151.62 187.77L153.025 187.548ZM154.738 183.836C154.07 183.942 153.472 183.791 152.935 183.378C152.399 182.966 152.082 182.428 151.976 181.76C151.911 181.344 151.949 180.932 152.097 180.521C152.24 180.117 152.475 179.764 152.81 179.472C153.145 179.18 153.53 179.003 153.965 178.935C154.677 178.822 155.305 178.956 155.844 179.342C156.376 179.73 156.702 180.279 156.815 180.997C156.928 181.715 156.787 182.338 156.4 182.87C156.006 183.404 155.45 183.724 154.738 183.836ZM169.18 182.553C169.671 182.475 169.991 182.25 170.144 181.871L169.864 180.669C169.751 181.1 169.572 181.354 169.2 181.413C168.198 181.571 168.018 179.281 166.456 179.528L166.44 179.427L166.503 179.417C167.933 179.192 168.695 178.458 168.527 177.393C168.363 176.354 167.558 175.835 166.273 176.038C165.612 176.142 165.073 176.414 164.671 176.852C164.27 177.296 164.036 177.818 163.969 178.416L163.887 178.429L163.449 175.65C163.345 174.995 163.305 174.453 163.326 174.017L161.921 174.238C162.066 174.622 162.196 175.157 162.302 175.831L163.216 181.627C163.324 182.314 163.366 182.863 163.347 183.273L164.751 183.051C164.608 182.673 164.497 182.213 164.41 181.665L164.184 180.228C164.261 180.184 164.408 180.135 164.637 180.073C164.861 180.018 165.054 179.975 165.212 179.95C165.785 179.86 166.269 179.983 166.574 180.239C166.873 180.495 167.168 180.849 167.369 181.224C167.822 181.966 168.203 182.707 169.18 182.553ZM164.081 179.457C163.895 178.401 164.953 177.163 166.036 177.031C166.773 176.914 167.264 177.205 167.352 177.759C167.468 178.497 166.923 179.009 165.921 179.167L164.081 179.457ZM173.825 181.794C174.462 181.694 174.978 181.489 175.38 181.174C175.777 180.866 176.026 180.517 176.125 180.121L176.225 180.105L176.241 180.205C176.309 180.634 176.317 180.975 176.274 181.233L177.641 181.018C177.507 180.736 177.38 180.22 177.261 179.464L176.849 176.855C176.593 175.23 175.413 174.583 173.308 174.915C172.867 174.985 172.409 175.109 171.933 175.281C171.456 175.453 171.1 175.612 170.858 175.754L170.996 176.629C171.143 176.496 171.44 176.333 171.887 176.14C172.328 175.948 172.786 175.818 173.252 175.744C174.739 175.509 175.575 175.984 175.763 177.175L175.932 178.246L175.806 178.266C175.593 177.938 175.248 177.676 174.773 177.486C174.291 177.298 173.748 177.254 173.137 177.35C172.287 177.485 171.651 177.792 171.23 178.278C170.81 178.764 170.648 179.338 170.753 179.999C170.856 180.655 171.186 181.151 171.736 181.484C172.287 181.824 172.981 181.927 173.825 181.794ZM174.134 180.925C173.497 181.026 172.973 180.973 172.572 180.765C172.165 180.558 171.927 180.24 171.86 179.812C171.791 179.377 171.919 179.002 172.236 178.681C172.554 178.359 173.037 178.148 173.68 178.046C174.297 177.949 174.837 178.019 175.295 178.256C175.752 178.494 176.005 178.79 176.062 179.149C176.134 179.609 175.995 179.993 175.649 180.299C175.305 180.611 174.795 180.821 174.134 180.925ZM183.729 180.232C184.661 180.085 185.36 179.645 185.833 178.918C186.306 178.192 186.462 177.334 186.306 176.345C186.149 175.356 185.737 174.582 185.063 174.036C184.389 173.49 183.59 173.293 182.658 173.44C182.009 173.543 181.461 173.797 181.029 174.207C180.596 174.618 180.317 175.101 180.207 175.667L180.087 175.686L179.677 173.09C179.58 172.473 179.546 171.93 179.568 171.455L178.163 171.676C178.295 172.023 178.419 172.559 178.531 173.271L179.445 179.067C179.559 179.792 179.607 180.34 179.588 180.711L180.98 180.491C180.831 180.114 180.726 179.737 180.667 179.365L180.588 178.861L180.72 178.84C181.001 179.313 181.409 179.687 181.95 179.964C182.491 180.246 183.08 180.334 183.729 180.232ZM183.114 179.36C182.679 179.429 182.262 179.365 181.852 179.178C181.03 178.798 180.475 178.065 180.352 177.284C180.242 176.585 180.376 175.963 180.756 175.425C181.136 174.888 181.666 174.565 182.34 174.459C183.052 174.347 183.68 174.48 184.219 174.866C184.752 175.254 185.077 175.803 185.19 176.521C185.304 177.239 185.163 177.862 184.776 178.394C184.382 178.928 183.826 179.248 183.114 179.36ZM191.1 170.843C191.535 170.774 191.8 170.41 191.738 170.013C191.674 169.61 191.31 169.351 190.876 169.419C190.422 169.491 190.162 169.848 190.226 170.251C190.288 170.648 190.647 170.915 191.1 170.843ZM190.93 182.002C192.562 181.744 193.252 180.802 192.996 179.177L192.062 173.255C191.983 172.757 191.951 172.388 191.964 172.147C191.858 172.247 191.649 172.319 191.341 172.368C191.032 172.416 190.806 172.413 190.66 172.352C190.757 172.595 190.84 172.957 190.915 173.436L191.833 179.257C192.016 180.416 191.654 181.028 190.628 181.19C190.331 181.237 190.055 181.242 189.797 181.205L189.933 182.068C190.276 182.072 190.608 182.052 190.93 182.002ZM197.35 178.083C197.986 177.983 198.503 177.779 198.905 177.463C199.302 177.155 199.55 176.806 199.649 176.41L199.75 176.394L199.766 176.495C199.833 176.923 199.842 177.264 199.799 177.523L201.166 177.307C201.031 177.025 200.904 176.509 200.785 175.753L200.374 173.145C200.117 171.519 198.937 170.872 196.833 171.204C196.392 171.274 195.934 171.398 195.457 171.57C194.981 171.742 194.625 171.901 194.382 172.043L194.52 172.919C194.667 172.786 194.964 172.623 195.412 172.429C195.853 172.237 196.31 172.107 196.776 172.033C198.263 171.799 199.1 172.274 199.288 173.464L199.457 174.535L199.331 174.555C199.118 174.227 198.773 173.965 198.297 173.776C197.816 173.587 197.273 173.543 196.662 173.64C195.811 173.774 195.175 174.081 194.755 174.567C194.334 175.053 194.173 175.627 194.277 176.289C194.381 176.944 194.711 177.441 195.26 177.774C195.811 178.113 196.505 178.216 197.35 178.083ZM197.658 177.215C197.022 177.315 196.497 177.262 196.096 177.054C195.689 176.847 195.452 176.53 195.384 176.101C195.315 175.666 195.444 175.291 195.761 174.97C196.078 174.649 196.561 174.437 197.204 174.335C197.821 174.238 198.362 174.308 198.819 174.546C199.276 174.783 199.53 175.079 199.586 175.438C199.659 175.898 199.519 176.282 199.174 176.588C198.829 176.901 198.32 177.11 197.658 177.215ZM204.518 176.778C204.376 176.497 204.249 176.02 204.141 175.333L203.85 173.487C203.79 173.109 203.833 172.728 203.978 172.337C204.124 171.952 204.367 171.611 204.702 171.319C205.037 171.027 205.428 170.843 205.869 170.773C207.16 170.57 208.035 171.161 208.249 172.516L208.58 174.614C208.67 175.187 208.703 175.685 208.682 176.121L210.093 175.899C209.938 175.491 209.813 174.981 209.714 174.357L209.363 172.127C209.218 171.214 208.861 170.547 208.293 170.139C207.719 169.732 207.001 169.6 206.132 169.738C204.84 169.941 203.978 170.736 203.733 171.969L203.613 171.988L203.538 171.509C203.46 171.018 203.45 170.625 203.512 170.325L202.082 170.551C202.218 170.878 202.342 171.375 202.447 172.043L202.998 175.539C203.097 176.163 203.128 176.649 203.1 177.002L204.518 176.778ZM214.511 175.376C215.147 175.276 215.664 175.072 216.066 174.756C216.463 174.448 216.712 174.099 216.81 173.703L216.911 173.687L216.927 173.788C216.995 174.216 217.003 174.557 216.96 174.816L218.327 174.6C218.192 174.318 218.066 173.802 217.947 173.046L217.535 170.438C217.279 168.812 216.098 168.165 213.994 168.497C213.553 168.567 213.095 168.691 212.618 168.863C212.142 169.035 211.786 169.194 211.544 169.336L211.682 170.212C211.829 170.079 212.126 169.916 212.573 169.722C213.014 169.53 213.471 169.4 213.938 169.326C215.425 169.092 216.261 169.567 216.449 170.757L216.618 171.828L216.492 171.848C216.279 171.52 215.934 171.258 215.459 171.069C214.977 170.88 214.434 170.836 213.823 170.933C212.973 171.067 212.337 171.374 211.916 171.86C211.496 172.346 211.334 172.92 211.439 173.582C211.542 174.237 211.872 174.734 212.422 175.067C212.973 175.406 213.667 175.509 214.511 175.376ZM214.82 174.508C214.183 174.608 213.658 174.555 213.258 174.347C212.85 174.14 212.613 173.823 212.545 173.394C212.477 172.959 212.605 172.584 212.922 172.263C213.24 171.942 213.723 171.73 214.365 171.628C214.983 171.531 215.523 171.601 215.98 171.839C216.438 172.076 216.691 172.372 216.748 172.731C216.82 173.191 216.68 173.575 216.335 173.881C215.99 174.194 215.481 174.403 214.82 174.508ZM225.018 173.545C224.887 173.288 224.766 172.809 224.654 172.098L224.35 170.254C224.291 169.876 224.334 169.494 224.479 169.103C224.625 168.719 224.868 168.377 225.203 168.085C225.538 167.793 225.928 167.609 226.369 167.54C227.661 167.336 228.535 167.928 228.749 169.282L229.08 171.38C229.17 171.953 229.204 172.452 229.182 172.888L230.594 172.665C230.439 172.257 230.313 171.747 230.215 171.124L229.863 168.893C229.574 167.06 228.39 166.227 226.632 166.504C225.341 166.708 224.478 167.502 224.234 168.735L224.126 168.752L223.715 166.144C223.603 165.432 223.561 164.883 223.593 164.51L222.175 164.734C222.311 165.061 222.44 165.59 222.556 166.327L223.47 172.123C223.587 172.866 223.629 173.415 223.6 173.768L225.018 173.545ZM235.011 172.143C235.648 172.042 236.164 171.838 236.567 171.523C236.964 171.215 237.212 170.866 237.311 170.469L237.412 170.453L237.428 170.554C237.495 170.982 237.504 171.323 237.461 171.582L238.828 171.366C238.693 171.084 238.566 170.568 238.447 169.812L238.036 167.204C237.779 165.578 236.599 164.932 234.495 165.264C234.054 165.333 233.595 165.457 233.119 165.629C232.642 165.801 232.287 165.961 232.044 166.102L232.182 166.978C232.329 166.845 232.626 166.682 233.074 166.489C233.515 166.296 233.972 166.166 234.438 166.093C235.925 165.858 236.762 166.333 236.95 167.524L237.119 168.595L236.993 168.615C236.779 168.287 236.435 168.025 235.959 167.835C235.477 167.646 234.935 167.603 234.323 167.699C233.473 167.833 232.837 168.14 232.416 168.626C231.996 169.112 231.835 169.686 231.939 170.348C232.042 171.003 232.373 171.5 232.922 171.833C233.473 172.172 234.167 172.276 235.011 172.143ZM235.32 171.274C234.684 171.374 234.159 171.321 233.758 171.113C233.351 170.906 233.113 170.589 233.046 170.16C232.977 169.726 233.105 169.35 233.423 169.029C233.74 168.708 234.223 168.496 234.866 168.395C235.483 168.297 236.024 168.367 236.481 168.605C236.938 168.843 237.191 169.138 237.248 169.498C237.321 169.957 237.181 170.341 236.835 170.647C236.491 170.96 235.981 171.169 235.32 171.274ZM240.674 162.81C240.791 162.65 240.833 162.469 240.803 162.273C240.739 161.87 240.388 161.609 239.941 161.68C239.493 161.75 239.227 162.109 239.291 162.512C239.321 162.707 239.418 162.866 239.584 162.982C239.751 163.098 239.945 163.138 240.165 163.104C240.386 163.069 240.557 162.971 240.674 162.81ZM242.116 170.847C241.97 170.49 241.84 169.955 241.728 169.243L241.147 165.564C241.067 165.053 241.031 164.665 241.048 164.404C240.942 164.505 240.733 164.577 240.425 164.625C240.116 164.674 239.889 164.671 239.732 164.612C239.823 164.823 239.914 165.196 240.001 165.745L240.581 169.424C240.687 170.098 240.722 170.648 240.693 171.072L242.116 170.847ZM245.449 167.662L245.337 166.214C246.832 165.745 247.941 164.75 247.681 163.145C247.567 162.42 247.194 161.859 246.563 161.462C245.932 161.064 245.17 160.939 244.275 161.08C243.324 161.23 242.569 161.562 241.998 162.072L242.169 163.156C242.739 162.556 243.462 162.183 244.337 162.045C244.904 161.956 245.396 162.046 245.807 162.317C246.218 162.588 246.464 162.962 246.539 163.435C246.625 163.983 246.457 164.474 246.033 164.896C245.61 165.325 244.99 165.61 244.167 165.752L244.662 167.786L245.449 167.662ZM245.444 170.497C245.892 170.426 246.155 170.049 246.094 169.665C246.031 169.261 245.667 169.002 245.22 169.073C244.785 169.142 244.519 169.5 244.582 169.903C244.643 170.288 245.016 170.564 245.444 170.497ZM251.548 166.7L251.435 165.252C252.931 164.783 254.039 163.788 253.779 162.183C253.665 161.458 253.293 160.897 252.662 160.5C252.031 160.102 251.268 159.977 250.374 160.118C249.423 160.268 248.668 160.6 248.096 161.11L248.267 162.194C248.837 161.594 249.56 161.221 250.436 161.083C251.003 160.994 251.495 161.084 251.906 161.355C252.316 161.626 252.563 162 252.637 162.473C252.724 163.021 252.556 163.512 252.132 163.934C251.708 164.363 251.088 164.648 250.265 164.791L250.76 166.824L251.548 166.7ZM251.543 169.535C251.99 169.464 252.254 169.087 252.193 168.703C252.129 168.3 251.766 168.041 251.318 168.111C250.884 168.18 250.617 168.538 250.681 168.941C250.741 169.326 251.114 169.602 251.543 169.535Z" fill="#025F71"/>
</svg>
