<svg width="301" height="308" viewBox="0 0 301 308" fill="none" xmlns="http://www.w3.org/2000/svg">
<g filter="url(#filter0_d_1595:4063)">
<path fill-rule="evenodd" clip-rule="evenodd" d="M266.913 58.8232C264.225 57.1265 261.817 55.9896 260.068 55.2491C258.739 48.8648 258.237 43.7106 258.01 40.0841C257.991 39.7358 257.974 39.3961 257.957 39.0631C257.824 36.353 257.712 34.0918 256.523 31.3034C254.669 26.9422 251.532 24.4643 250.943 24.0095C246.081 20.2664 238 18.249 231.814 21.998C228.968 23.7238 227.365 26.161 226.531 27.7294C224.922 27.1347 220.788 25.8636 215.815 27.1347C209.116 28.8488 205.769 33.9505 204.947 35.2448C204.626 35.7462 200.212 42.9235 202.341 50.2058C202.608 51.124 202.966 51.9932 203.351 52.9305C204.141 54.8499 205.048 57.0546 205.542 60.549C205.746 61.9833 205.816 63.1785 205.839 63.9715C205.332 64.0473 204.823 64.1216 204.314 64.196C203.805 64.2703 203.297 64.3446 202.79 64.4204C201.88 61.3886 199.775 56.0362 194.825 51.3952C194.207 50.8121 191.193 48.0368 186.342 45.8854C183.771 44.7426 179.363 42.7894 173.614 43.1334C167.763 43.4828 163.539 46.0355 159.858 48.2605L159.842 48.2701C157.085 49.9376 154.991 51.6342 153.592 52.882C151.773 50.9171 147.295 46.62 140.048 44.5444C132.008 42.2414 125.419 44.0663 123.822 44.5444C114.085 47.4713 109.123 54.8118 107.374 57.4938C104.185 62.3739 102.972 67.0616 102.459 69.9244C97.3282 68.6533 93.5967 69.1897 91.2179 69.8486C83.3584 72.0292 76.3794 79.4105 73.8781 82.0576C73.8781 82.0576 69.686 86.4945 64.3511 88.3836C63.7972 88.5818 63.0626 88.8034 62.1181 88.8326C60.0872 88.8914 58.7235 88.0042 57.408 87.1485C56.8993 86.8176 56.3978 86.4914 55.8678 86.2263C51.8331 84.209 46.1251 85.7074 42.9883 88.0105C42.7493 88.1854 40.8194 90.1094 36.9596 93.9633L35.0239 95.8991C33.0241 96.8669 28.9894 99.1816 26.0917 103.863C22.1036 110.312 22.9782 116.86 23.3397 119.273C23.6487 121.355 24.4183 126.077 28.179 130.584C31.6481 134.736 35.7877 136.467 37.7059 137.132C37.98 138.193 38.9187 141.33 41.9505 143.831C45.0407 146.385 48.3815 146.682 49.466 146.735C51.7107 149.947 55.3606 154.641 60.7071 159.463L60.7159 159.471C66.7112 164.877 71.3688 169.078 78.869 170.704C81.2653 171.223 88.5067 172.686 96.1388 169.065C99.5146 167.462 101.888 165.375 103.357 163.853C103.616 165.194 103.877 166.534 104.138 167.873C104.399 169.213 104.66 170.552 104.919 171.893C102.681 171.654 99.2756 171.538 95.3167 172.412C87.0899 174.231 81.9416 179.106 78.869 182.091C78.621 182.332 78.3468 182.59 78.0521 182.868C75.243 185.52 70.575 189.926 69.0447 197.197C68.4616 199.984 67.5579 207.173 67.5579 207.173C67.5583 207.178 67.5566 207.208 67.5536 207.261C67.5143 207.948 67.2531 212.517 68.6015 215.214C69.2247 216.456 70.4359 217.802 72.908 218.846C71.5459 221.188 64.0607 221.582 56.1942 221.997C46.7748 222.494 36.8087 223.019 36.1535 226.951C34.9289 234.298 32.3049 261.937 34.2292 265.611C36.1535 269.284 65.1703 274.533 71.1181 274.183C75.8763 273.903 84.8795 274.066 88.7864 274.183H113.102L133.845 272.052C134.136 272.227 136.434 273.381 143.291 276.6C150.925 280.183 155.283 280.112 158.863 280.054C159.303 280.046 159.731 280.039 160.152 280.039C164.001 280.039 172.668 273.817 174.242 271.543C174.877 270.627 180.831 270.993 186.768 271.358C192.615 271.718 198.446 272.077 199.17 271.209H217.188H263.713V256.864C263.713 252.491 262.138 238.321 259.164 234.123C257.647 231.981 246.388 229.019 235.722 226.214C225.481 223.52 215.788 220.971 215.788 219.428C215.788 218.826 215.755 218.346 215.7 217.964C216.102 217.632 216.472 217.246 216.794 216.799C217.179 216.263 218.287 214.549 217.389 207.867C216.876 204.042 216.135 198.882 212.923 192.784C211.757 190.574 209.244 186.294 204.784 182.266C201.985 179.741 200.073 178.062 197.437 178.097C196.028 178.113 194.891 178.615 193.899 179.052C192.768 179.551 191.827 179.966 190.89 179.484C189.394 178.72 189.192 176.336 189.112 175.394C189.11 175.367 189.108 175.341 189.105 175.316C188.75 171.065 187.269 164.028 183.648 151.994C185.339 148.717 187.024 145.405 188.709 142.07C190.522 138.485 192.306 134.911 194.067 131.354C195.624 135.535 203.221 154.787 220.765 161.923C223.966 163.229 229.738 165.491 237.242 164.506C239.381 164.226 246.273 163.223 252.325 157.76C257.841 152.78 259.581 146.869 260.956 142.195L260.96 142.181C262.89 135.604 262.802 130.334 262.645 121.442C262.534 115.099 261.846 108.248 261.654 106.359C261.403 103.916 261.152 101.869 260.96 100.406C261.963 99.9337 275.822 93.1296 277.233 79.568C277.367 78.2736 278.253 68.5834 272.668 63.0911C270.848 61.3011 267.683 59.3071 266.913 58.8232Z" fill="#FFF5F1"/>
<path d="M260.068 55.2491L257.131 55.8607L257.451 57.3991L258.898 58.0118L260.068 55.2491ZM266.913 58.8232L265.312 61.3601L265.316 61.3629L266.913 58.8232ZM258.01 40.0841L255.014 40.2487L255.015 40.2603L255.016 40.2718L258.01 40.0841ZM257.957 39.0631L254.961 39.211L254.961 39.211L257.957 39.0631ZM256.523 31.3034L253.762 32.4772L253.763 32.4802L256.523 31.3034ZM250.943 24.0095L252.777 21.6351L252.773 21.6323L250.943 24.0095ZM231.814 21.998L230.259 19.4324L230.258 19.433L231.814 21.998ZM226.531 27.7294L225.491 30.5433L227.95 31.452L229.18 29.1375L226.531 27.7294ZM215.815 27.1347L215.072 24.2281L215.071 24.2283L215.815 27.1347ZM204.947 35.2448L207.474 36.8612L207.479 36.8532L204.947 35.2448ZM202.341 50.2058L205.221 49.3658L205.22 49.3643L202.341 50.2058ZM203.351 52.9305L200.577 54.0717L200.577 54.0717L203.351 52.9305ZM205.542 60.549L202.571 60.9686L202.571 60.9716L205.542 60.549ZM205.839 63.9715L206.282 66.9385L208.916 66.545L208.838 63.8833L205.839 63.9715ZM202.79 64.4204L199.916 65.2825L200.663 67.7715L203.233 67.3875L202.79 64.4204ZM194.825 51.3952L192.766 53.5774L192.773 53.5837L194.825 51.3952ZM186.342 45.8854L185.123 48.6268L185.126 48.6278L186.342 45.8854ZM173.614 43.1334L173.793 46.1281L173.793 46.1281L173.614 43.1334ZM159.858 48.2605L161.41 50.8282L161.41 50.8279L159.858 48.2605ZM159.842 48.2701L158.291 45.7023L158.29 45.7029L159.842 48.2701ZM153.592 52.882L151.391 54.9201L153.391 57.0807L155.589 55.1211L153.592 52.882ZM140.048 44.5444L139.222 47.4284L139.222 47.4284L140.048 44.5444ZM123.822 44.5444L122.962 41.6703L122.958 41.6714L123.822 44.5444ZM107.374 57.4938L109.885 59.135L109.887 59.1327L107.374 57.4938ZM102.459 69.9244L101.738 72.8364L104.847 73.6066L105.412 70.4536L102.459 69.9244ZM91.2179 69.8486L90.4172 66.9574L90.4158 66.9578L91.2179 69.8486ZM73.8781 82.0576L71.6976 79.9971L71.6975 79.9973L73.8781 82.0576ZM64.3511 88.3836L63.3498 85.5556L63.3402 85.5591L64.3511 88.3836ZM62.1181 88.8326L62.205 91.8313L62.2106 91.8311L62.1181 88.8326ZM57.408 87.1485L55.7721 89.6632L55.7721 89.6632L57.408 87.1485ZM55.8678 86.2263L57.2095 83.5431L57.2095 83.5431L55.8678 86.2263ZM42.9883 88.0105L44.7599 90.4316L44.7638 90.4287L42.9883 88.0105ZM36.9596 93.9633L34.8399 91.8404L34.8383 91.842L36.9596 93.9633ZM35.0239 95.8991L36.3308 98.5994L36.7869 98.3787L37.1452 98.0204L35.0239 95.8991ZM26.0917 103.863L23.5407 102.285L23.5402 102.286L26.0917 103.863ZM23.3397 119.273L26.3072 118.833L26.3066 118.829L23.3397 119.273ZM28.179 130.584L25.8755 132.506L25.877 132.508L28.179 130.584ZM37.7059 137.132L40.6107 136.382L40.2084 134.824L38.6882 134.297L37.7059 137.132ZM41.9505 143.831L43.8616 141.519L43.8597 141.517L41.9505 143.831ZM49.466 146.735L51.9251 145.017L51.0817 143.809L49.611 143.738L49.466 146.735ZM60.7071 159.463L58.6979 161.691L58.6989 161.691L60.7071 159.463ZM60.7159 159.471L62.725 157.243L62.7241 157.242L60.7159 159.471ZM78.869 170.704L78.2334 173.636L78.2341 173.636L78.869 170.704ZM96.1388 169.065L97.4247 171.776L97.4259 171.775L96.1388 169.065ZM103.357 163.853L106.302 163.283L105.206 157.619L101.199 161.769L103.357 163.853ZM104.138 167.873L101.194 168.447L101.194 168.447L104.138 167.873ZM104.919 171.893L104.601 174.876L108.636 175.307L107.865 171.323L104.919 171.893ZM95.3167 172.412L94.6696 169.483L94.669 169.483L95.3167 172.412ZM78.869 182.091L80.9589 184.243L80.9595 184.242L78.869 182.091ZM78.0521 182.868L75.9929 180.687L75.9929 180.687L78.0521 182.868ZM69.0447 197.197L66.109 196.58L66.1082 196.583L69.0447 197.197ZM67.5579 207.173L64.5813 206.799L64.5408 207.122L64.5703 207.446L67.5579 207.173ZM67.5536 207.261L64.5585 207.089L64.5585 207.089L67.5536 207.261ZM68.6015 215.214L65.9183 216.555L65.92 216.559L68.6015 215.214ZM72.908 218.846L75.5012 220.354L77.2147 217.409L74.0755 216.083L72.908 218.846ZM56.1942 221.997L56.3521 224.993L56.3521 224.993L56.1942 221.997ZM36.1535 226.951L39.1126 227.444L39.1126 227.444L36.1535 226.951ZM71.1181 274.183L70.9419 271.188L70.9419 271.188L71.1181 274.183ZM88.7864 274.183L88.6969 277.181L88.7416 277.183H88.7864L88.7864 274.183ZM113.102 274.183L113.102 277.183H113.256L113.409 277.167L113.102 274.183ZM133.845 272.052L135.388 269.479L134.532 268.965L133.538 269.067L133.845 272.052ZM143.291 276.6L142.017 279.316L142.017 279.316L143.291 276.6ZM158.863 280.054L158.814 277.054L158.814 277.054L158.863 280.054ZM174.242 271.543L176.709 273.251L176.709 273.251L174.242 271.543ZM186.768 271.358L186.584 274.353L186.584 274.353L186.768 271.358ZM199.17 271.209V268.209H197.764L196.865 269.288L199.17 271.209ZM263.713 271.209V274.209H266.713V271.209H263.713ZM259.164 234.123L256.716 235.857L256.716 235.857L259.164 234.123ZM235.722 226.214L234.958 229.115L234.958 229.115L235.722 226.214ZM215.7 217.964L213.788 215.653L212.492 216.725L212.731 218.39L215.7 217.964ZM216.794 216.799L219.227 218.554L219.232 218.548L216.794 216.799ZM217.389 207.867L214.416 208.266L214.416 208.267L217.389 207.867ZM212.923 192.784L215.577 191.386L215.576 191.384L212.923 192.784ZM204.784 182.266L206.794 180.039L206.793 180.038L204.784 182.266ZM197.437 178.097L197.472 181.097L197.477 181.097L197.437 178.097ZM193.899 179.052L192.688 176.307L192.688 176.307L193.899 179.052ZM190.89 179.484L192.259 176.816L192.255 176.813L190.89 179.484ZM189.112 175.394L192.101 175.141L192.101 175.14L189.112 175.394ZM189.105 175.316L186.116 175.566L186.116 175.573L189.105 175.316ZM183.648 151.994L180.982 150.618L180.426 151.696L180.775 152.858L183.648 151.994ZM188.709 142.07L186.032 140.717L186.031 140.718L188.709 142.07ZM194.067 131.354L196.879 130.307L194.457 123.805L191.379 130.023L194.067 131.354ZM220.765 161.923L221.898 159.145L221.895 159.144L220.765 161.923ZM237.242 164.506L236.853 161.531L236.851 161.532L237.242 164.506ZM252.325 157.76L254.335 159.987L254.335 159.987L252.325 157.76ZM260.956 142.195L258.079 141.344L258.078 141.348L260.956 142.195ZM260.96 142.181L263.837 143.032L263.839 143.026L260.96 142.181ZM262.645 121.442L259.645 121.495L259.645 121.495L262.645 121.442ZM261.654 106.359L264.638 106.055L264.638 106.053L261.654 106.359ZM260.96 100.406L259.682 97.6919L257.7 98.6252L257.986 100.797L260.96 100.406ZM277.233 79.568L280.217 79.8784L280.217 79.8771L277.233 79.568ZM272.668 63.0911L270.563 65.2295L270.564 65.2302L272.668 63.0911ZM258.898 58.0118C260.54 58.7069 262.796 59.7719 265.312 61.3601L268.514 56.2863C265.655 54.4812 263.094 53.2723 261.237 52.4865L258.898 58.0118ZM255.016 40.2718C255.25 44.0041 255.766 49.3047 257.131 55.8607L263.005 54.6376C261.711 48.4248 261.225 43.4172 261.004 39.8964L255.016 40.2718ZM254.961 39.211C254.977 39.5428 254.995 39.8907 255.014 40.2487L261.005 39.9195C260.987 39.5809 260.97 39.2494 260.954 38.9152L254.961 39.211ZM253.763 32.4802C254.721 34.7251 254.827 36.498 254.961 39.211L260.954 38.9153C260.82 36.2081 260.703 33.4585 259.283 30.1266L253.763 32.4802ZM249.11 26.3839C249.554 26.7275 252.208 28.8217 253.762 32.4772L259.284 30.1297C257.13 25.0628 253.51 22.2011 252.777 21.6351L249.11 26.3839ZM233.368 24.5636C238.142 21.6705 244.858 23.1111 249.113 26.3868L252.773 21.6323C247.303 17.4217 237.857 14.8276 230.259 19.4324L233.368 24.5636ZM229.18 29.1375C229.882 27.8172 231.166 25.8994 233.369 24.5631L230.258 19.433C226.77 21.5483 224.848 24.5047 223.882 26.3212L229.18 29.1375ZM216.558 30.0412C220.679 28.9878 224.132 30.0412 225.491 30.5433L227.571 24.9154C225.711 24.2281 220.897 22.7394 215.072 24.2281L216.558 30.0412ZM207.479 36.8532C208.213 35.6974 211.025 31.4568 216.558 30.041L215.071 24.2283C207.206 26.2409 203.324 32.2036 202.414 33.6364L207.479 36.8532ZM205.22 49.3643C204.385 46.5075 204.806 43.5447 205.585 41.0893C206.358 38.6523 207.401 36.9753 207.474 36.8612L202.419 33.6285C202.172 34.0158 200.848 36.1781 199.866 39.2757C198.889 42.3548 198.168 46.6218 199.461 51.0473L205.22 49.3643ZM206.126 51.7892C205.73 50.8262 205.436 50.1046 205.221 49.3658L199.461 51.0458C199.781 52.1433 200.202 53.1602 200.577 54.0717L206.126 51.7892ZM208.512 60.1294C207.964 56.2527 206.939 53.7667 206.126 51.7892L200.577 54.0717C201.343 55.9331 202.131 57.8565 202.571 60.9686L208.512 60.1294ZM208.838 63.8833C208.812 63.0037 208.735 61.694 208.512 60.1264L202.571 60.9716C202.757 62.2726 202.819 63.3534 202.84 64.0597L208.838 63.8833ZM204.748 67.1644C205.256 67.0902 205.769 67.0152 206.282 66.9385L205.396 61.0044C204.894 61.0794 204.39 61.153 203.88 61.2275L204.748 67.1644ZM203.233 67.3875C203.735 67.3125 204.238 67.2389 204.748 67.1644L203.88 61.2275C203.372 61.3017 202.859 61.3767 202.346 61.4534L203.233 67.3875ZM192.773 53.5837C197.192 57.7268 199.089 62.5252 199.916 65.2825L205.663 63.5584C204.671 60.252 202.358 54.3457 196.877 49.2067L192.773 53.5837ZM185.126 48.6278C189.542 50.5865 192.273 53.1114 192.766 53.5774L196.884 49.213C196.142 48.5129 192.843 45.4871 187.558 43.143L185.126 48.6278ZM173.793 46.1281C178.765 45.8306 182.597 47.5039 185.123 48.6268L187.56 43.144C184.944 41.9814 179.961 39.7483 173.435 40.1388L173.793 46.1281ZM161.41 50.8279C165.108 48.5926 168.759 46.4286 173.793 46.1281L173.435 40.1388C166.766 40.5369 161.97 43.4784 158.306 45.6931L161.41 50.8279ZM161.394 50.8378L161.41 50.8282L158.307 45.6927L158.291 45.7023L161.394 50.8378ZM155.589 55.1211C156.887 53.9638 158.831 52.3871 161.395 50.8373L158.29 45.7029C155.338 47.4881 153.096 49.3046 151.596 50.6428L155.589 55.1211ZM139.222 47.4284C145.728 49.2919 149.757 53.1551 151.391 54.9201L155.794 50.8439C153.789 48.6791 148.862 43.9482 140.874 41.6604L139.222 47.4284ZM124.682 47.4185C126.062 47.0054 131.992 45.3574 139.222 47.4284L140.874 41.6604C132.024 39.1253 124.777 41.1272 122.962 41.6703L124.682 47.4185ZM109.887 59.1327C111.562 56.5648 116.024 50.021 124.685 47.4174L122.958 41.6714C112.146 44.9216 106.685 53.0588 104.861 55.855L109.887 59.1327ZM105.412 70.4536C105.881 67.8378 106.987 63.5705 109.885 59.135L104.863 55.8527C101.383 61.1774 100.063 66.2854 99.5061 69.3951L105.412 70.4536ZM92.0186 72.7397C93.9706 72.1991 97.1739 71.7058 101.738 72.8364L103.18 67.0124C97.4825 65.6009 93.2229 66.1804 90.4172 66.9574L92.0186 72.7397ZM76.0586 84.118C77.3006 82.8037 79.5516 80.4256 82.4207 78.1144C85.3198 75.779 88.6568 73.6725 92.0199 72.7394L90.4158 66.9578C85.9196 68.2053 81.8372 70.8798 78.6567 73.4419C75.446 76.0283 72.9569 78.6644 71.6976 79.9971L76.0586 84.118ZM65.3525 91.2115C68.4459 90.1162 71.1188 88.3224 72.9669 86.8725C73.9043 86.1371 74.661 85.4651 75.1888 84.9715C75.4533 84.7242 75.6619 84.5202 75.8086 84.3735C75.882 84.3001 75.94 84.241 75.9819 84.1979C76.0029 84.1763 76.0198 84.1587 76.0326 84.1453C76.0391 84.1386 76.0445 84.1329 76.0488 84.1283C76.051 84.126 76.0529 84.124 76.0546 84.1223C76.0554 84.1214 76.0561 84.1206 76.0568 84.1199C76.0572 84.1195 76.0577 84.119 76.0578 84.1188C76.0583 84.1183 76.0587 84.1179 73.8781 82.0576C71.6975 79.9973 71.6979 79.9968 71.6983 79.9964C71.6984 79.9963 71.6988 79.9959 71.699 79.9957C71.6994 79.9952 71.6998 79.9948 71.7001 79.9945C71.7007 79.9938 71.7011 79.9934 71.7013 79.9932C71.7016 79.9929 71.7009 79.9937 71.6992 79.9954C71.6958 79.9989 71.6886 80.0065 71.6775 80.0179C71.6554 80.0406 71.6182 80.0786 71.5665 80.1303C71.4631 80.2337 71.3025 80.391 71.0906 80.5892C70.6657 80.9866 70.041 81.5419 69.2635 82.1519C67.6818 83.3927 65.5912 84.762 63.3498 85.5557L65.3525 91.2115ZM62.2106 91.8311C63.5942 91.7884 64.6609 91.4591 65.362 91.2082L63.3402 85.5591C62.9336 85.7046 62.531 85.8184 62.0255 85.834L62.2106 91.8311ZM55.7721 89.6632C57.0659 90.5048 59.1425 91.9201 62.205 91.8313L62.0311 85.8338C61.032 85.8628 60.3811 85.5037 59.0439 84.6338L55.7721 89.6632ZM54.5262 88.9096C54.8784 89.0857 55.2379 89.3157 55.7721 89.6632L59.0439 84.6338C58.5607 84.3194 57.9173 83.897 57.2095 83.5431L54.5262 88.9096ZM44.7638 90.4287C45.9303 89.5722 47.7042 88.7896 49.6131 88.4525C51.533 88.1135 53.2639 88.2785 54.5262 88.9096L57.2095 83.5431C54.4371 82.1569 51.2966 82.0624 48.5696 82.544C45.8316 83.0275 43.1831 84.1457 41.2129 85.5922L44.7638 90.4287ZM39.0794 96.0863C41.011 94.1575 42.4531 92.7184 43.4421 91.7395C43.9376 91.2491 44.3108 90.8827 44.5713 90.6313C44.9279 90.2873 44.9086 90.3227 44.7599 90.4316L41.2168 85.5894C40.9485 85.7857 40.5984 86.1271 40.4052 86.3135C40.1161 86.5925 39.7207 86.9808 39.2214 87.475C38.2208 88.4654 36.768 89.9152 34.8399 91.8404L39.0794 96.0863ZM37.1452 98.0204L39.081 96.0847L34.8383 91.842L32.9026 93.7777L37.1452 98.0204ZM28.6426 105.442C31.1168 101.445 34.5804 99.4466 36.3308 98.5994L33.717 93.1987C31.4678 94.2872 26.862 96.9185 23.5407 102.285L28.6426 105.442ZM26.3066 118.829C25.9646 116.545 25.2487 110.93 28.6432 105.441L23.5402 102.286C18.9585 109.694 19.9918 117.174 20.3728 119.718L26.3066 118.829ZM30.4824 128.662C27.2666 124.808 26.5947 120.77 26.3072 118.833L20.3722 119.714C20.7027 121.94 21.57 127.347 25.8755 132.506L30.4824 128.662ZM38.6882 134.297C37.0264 133.722 33.4598 132.225 30.481 128.661L25.877 132.508C29.8364 137.246 34.5491 139.213 36.7237 139.967L38.6882 134.297ZM43.8597 141.517C41.5483 139.61 40.8231 137.205 40.6107 136.382L34.8012 137.882C35.1368 139.182 36.289 143.05 40.0414 146.145L43.8597 141.517ZM49.611 143.738C48.7821 143.698 46.2171 143.465 43.8616 141.519L40.0394 146.144C43.8642 149.305 47.9809 149.666 49.321 149.731L49.611 143.738ZM62.7163 157.235C57.5835 152.606 54.0796 148.1 51.9251 145.017L47.0068 148.453C49.3418 151.795 53.1377 156.676 58.6979 161.691L62.7163 157.235ZM62.7241 157.242L62.7153 157.234L58.6989 161.691L58.7076 161.699L62.7241 157.242ZM79.5046 167.772C72.8934 166.339 68.788 162.711 62.725 157.243L58.7067 161.698C64.6343 167.044 69.8442 171.817 78.2334 173.636L79.5046 167.772ZM94.8529 166.355C88.1646 169.528 81.7674 168.262 79.5039 167.772L78.2341 173.636C80.7632 174.184 88.8489 175.844 97.4247 171.776L94.8529 166.355ZM101.199 161.769C99.8967 163.118 97.8089 164.951 94.8517 166.356L97.4259 171.775C101.22 169.973 103.879 167.632 105.515 165.937L101.199 161.769ZM107.083 167.3C106.822 165.96 106.561 164.622 106.302 163.283L100.412 164.423C100.671 165.766 100.933 167.107 101.194 168.447L107.083 167.3ZM107.865 171.323C107.605 169.98 107.344 168.639 107.083 167.3L101.194 168.447C101.454 169.787 101.715 171.124 101.974 172.463L107.865 171.323ZM95.9638 175.342C99.5158 174.557 102.578 174.66 104.601 174.876L105.238 168.91C102.783 168.648 99.0353 168.518 94.6696 169.483L95.9638 175.342ZM80.9595 184.242C83.9776 181.31 88.6118 176.967 95.9644 175.341L94.669 169.483C85.568 171.495 79.9057 176.901 76.7785 179.939L80.9595 184.242ZM80.1113 185.05C80.4021 184.776 80.6927 184.501 80.9589 184.243L76.7791 179.938C76.5493 180.162 76.2914 180.405 75.9929 180.687L80.1113 185.05ZM71.9803 197.815C73.3014 191.538 77.3133 187.691 80.1113 185.05L75.9929 180.687C73.1728 183.349 67.8486 188.314 66.109 196.58L71.9803 197.815ZM67.5579 207.173C70.5345 207.548 70.5345 207.548 70.5345 207.548C70.5345 207.547 70.5345 207.547 70.5345 207.547C70.5345 207.547 70.5345 207.547 70.5346 207.547C70.5347 207.546 70.5348 207.545 70.535 207.543C70.5354 207.54 70.5361 207.535 70.5369 207.528C70.5385 207.515 70.5411 207.495 70.5444 207.469C70.551 207.417 70.5608 207.34 70.5736 207.24C70.5991 207.04 70.6364 206.751 70.6829 206.396C70.776 205.684 70.906 204.707 71.054 203.644C71.3553 201.481 71.714 199.089 71.9811 197.812L66.1082 196.583C65.7923 198.093 65.4076 200.689 65.1113 202.817C64.9604 203.9 64.8281 204.894 64.7335 205.617C64.6862 205.979 64.6483 206.274 64.6221 206.478C64.609 206.58 64.5989 206.66 64.592 206.715C64.5886 206.742 64.5859 206.763 64.5841 206.777C64.5832 206.784 64.5825 206.789 64.5821 206.793C64.5818 206.795 64.5817 206.796 64.5815 206.797C64.5815 206.798 64.5814 206.798 64.5814 206.799C64.5814 206.799 64.5813 206.799 64.5813 206.799C64.5813 206.799 64.5813 206.799 67.5579 207.173ZM70.5487 207.432C70.55 207.41 70.5518 207.378 70.5531 207.353C70.5537 207.341 70.555 207.316 70.556 207.286C70.5565 207.272 70.5575 207.242 70.5578 207.205C70.558 207.186 70.5581 207.154 70.5574 207.115C70.5568 207.085 70.5549 207.004 70.5455 206.901L64.5703 207.446C64.5651 207.389 64.5625 207.342 64.5611 207.312C64.5596 207.28 64.5589 207.254 64.5585 207.234C64.5578 207.196 64.5579 207.165 64.5581 207.148C64.5584 207.113 64.5593 207.086 64.5596 207.077C64.5601 207.064 64.5605 207.055 64.5607 207.052C64.5608 207.047 64.561 207.045 64.561 207.045C64.561 207.045 64.561 207.045 64.5608 207.048C64.5607 207.05 64.5605 207.053 64.5603 207.057C64.5598 207.066 64.5593 207.076 64.5585 207.089L70.5487 207.432ZM71.2848 213.872C70.8898 213.082 70.6436 211.765 70.5512 210.295C70.4644 208.913 70.531 207.742 70.5487 207.432L64.5585 207.089C64.5369 207.467 64.4532 208.924 64.563 210.672C64.6674 212.333 64.9648 214.648 65.9183 216.555L71.2848 213.872ZM74.0755 216.083C72.1853 215.284 71.5514 214.403 71.2831 213.868L65.92 216.559C66.8979 218.508 68.6864 220.319 71.7406 221.61L74.0755 216.083ZM56.3521 224.993C60.2381 224.788 64.2324 224.58 67.4251 224.112C69.0191 223.879 70.5621 223.561 71.8612 223.084C73.0515 222.648 74.6167 221.875 75.5012 220.354L70.3148 217.338C70.5183 216.988 70.637 217.143 69.7949 217.452C69.0616 217.72 67.9863 217.966 66.5553 218.176C63.6983 218.594 60.0167 218.791 56.0363 219.001L56.3521 224.993ZM39.1126 227.444C39.0518 227.809 38.8185 227.666 39.62 227.25C40.3986 226.845 41.6548 226.46 43.4261 226.137C46.9469 225.494 51.5778 225.245 56.3521 224.993L56.0363 219.001C51.3912 219.246 46.3293 219.508 42.3484 220.234C40.3689 220.596 38.422 221.11 36.8533 221.926C35.3076 222.729 33.5827 224.126 33.1943 226.457L39.1126 227.444ZM36.8867 264.219C36.9464 264.333 36.8061 264.037 36.6948 262.903C36.5981 261.917 36.5485 260.614 36.5458 259.048C36.5405 255.927 36.7213 251.977 37.0035 247.864C37.569 239.62 38.5231 230.981 39.1126 227.444L33.1943 226.457C32.5593 230.267 31.5891 239.122 31.0175 247.453C30.7312 251.627 30.5402 255.735 30.5458 259.059C30.5487 260.716 30.6002 262.232 30.7235 263.489C30.8323 264.599 31.0309 265.971 31.5717 267.003L36.8867 264.219ZM70.9419 271.188C69.793 271.255 67.1447 271.04 63.5299 270.536C60.0144 270.046 55.8367 269.32 51.7805 268.469C47.7117 267.616 43.8354 266.652 40.8965 265.696C39.4182 265.216 38.2624 264.764 37.464 264.365C37.0641 264.165 36.8225 264.012 36.6971 263.918C36.5353 263.796 36.7095 263.881 36.8867 264.219L31.5717 267.003C31.9894 267.8 32.6158 268.356 33.0934 268.715C33.6074 269.101 34.1923 269.437 34.7816 269.732C35.9615 270.322 37.4348 270.88 39.0405 271.402C42.2693 272.452 46.3798 273.467 50.5491 274.342C54.7311 275.219 59.0432 275.969 62.7012 276.479C66.26 276.975 69.4693 277.285 71.2942 277.177L70.9419 271.188ZM88.8759 271.184C84.9819 271.068 75.8517 270.899 70.9419 271.188L71.2942 277.177C75.9008 276.906 84.7771 277.064 88.6969 277.181L88.8759 271.184ZM113.102 271.183H88.7864L88.7864 277.183H113.102L113.102 271.183ZM133.538 269.067L112.796 271.198L113.409 277.167L134.152 275.036L133.538 269.067ZM144.566 273.884C141.144 272.278 138.868 271.191 137.416 270.486C136.69 270.133 136.175 269.878 135.829 269.704C135.438 269.507 135.347 269.454 135.388 269.479L132.301 274.624C132.761 274.9 135.254 276.141 142.017 279.316L144.566 273.884ZM158.814 277.054C155.497 277.108 151.641 277.205 144.566 273.884L142.017 279.316C150.21 283.161 155.068 283.116 158.912 283.053L158.814 277.054ZM160.152 277.039C159.703 277.039 159.25 277.047 158.814 277.054L158.912 283.053C159.357 283.046 159.76 283.039 160.152 283.039V277.039ZM171.776 269.836C171.636 270.038 171.081 270.631 170.008 271.517C169.01 272.341 167.753 273.264 166.421 274.125C165.083 274.99 163.727 275.756 162.527 276.295C161.239 276.873 160.456 277.039 160.152 277.039V283.039C161.773 283.039 163.516 282.428 164.985 281.769C166.542 281.069 168.172 280.138 169.679 279.163C171.192 278.185 172.638 277.126 173.828 276.144C174.943 275.223 176.062 274.186 176.709 273.251L171.776 269.836ZM186.953 268.364C184.011 268.183 180.951 267.994 178.546 267.97C177.354 267.958 176.211 267.985 175.275 268.098C174.814 268.153 174.287 268.242 173.786 268.406C173.408 268.53 172.438 268.879 171.776 269.836L176.709 273.251C176.43 273.654 176.115 273.87 175.957 273.964C175.791 274.062 175.673 274.102 175.653 274.108C175.621 274.118 175.71 274.088 175.99 274.055C176.534 273.989 177.369 273.959 178.487 273.97C180.703 273.992 183.588 274.168 186.584 274.353L186.953 268.364ZM196.865 269.288C197.143 268.955 197.426 268.784 197.558 268.713C197.699 268.638 197.794 268.609 197.801 268.607C197.807 268.606 197.698 268.636 197.415 268.667C196.861 268.73 196.027 268.757 194.925 268.744C192.737 268.719 189.902 268.545 186.953 268.364L186.584 274.353C189.481 274.531 192.485 274.716 194.856 274.744C196.032 274.757 197.158 274.734 198.083 274.63C198.539 274.579 199.05 274.498 199.537 274.351C199.911 274.238 200.799 273.939 201.474 273.129L196.865 269.288ZM217.188 268.209H199.17V274.209H217.188V268.209ZM263.713 268.209H217.188V274.209H263.713V268.209ZM260.713 256.864V271.209H266.713V256.864H260.713ZM256.716 235.857C257.152 236.472 257.697 237.733 258.244 239.654C258.769 241.496 259.222 243.678 259.594 245.919C260.343 250.431 260.713 254.894 260.713 256.864H266.713C266.713 254.461 266.295 249.652 265.513 244.937C265.12 242.564 264.622 240.143 264.015 238.011C263.43 235.957 262.664 233.873 261.612 232.389L256.716 235.857ZM234.958 229.115C240.313 230.523 245.72 231.946 249.977 233.28C252.11 233.948 253.876 234.57 255.167 235.13C255.815 235.411 256.28 235.649 256.587 235.838C256.953 236.063 256.88 236.088 256.716 235.857L261.612 232.389C261.069 231.622 260.313 231.086 259.73 230.728C259.09 230.334 258.343 229.968 257.555 229.626C255.975 228.94 253.975 228.245 251.771 227.554C247.352 226.17 241.796 224.71 236.485 223.312L234.958 229.115ZM212.788 219.428C212.788 221.14 214.021 222.138 214.378 222.417C214.928 222.846 215.585 223.195 216.196 223.48C217.449 224.064 219.134 224.659 221.013 225.251C224.801 226.444 229.865 227.775 234.958 229.115L236.485 223.312C231.338 221.959 226.435 220.668 222.816 219.528C220.992 218.953 219.614 218.453 218.73 218.041C218.518 217.942 218.356 217.858 218.237 217.79C218.113 217.72 218.067 217.684 218.071 217.688C218.075 217.691 218.105 217.714 218.149 217.758C218.193 217.802 218.267 217.881 218.35 217.998C218.507 218.221 218.788 218.716 218.788 219.428H212.788ZM212.731 218.39C212.76 218.597 212.788 218.931 212.788 219.428H218.788C218.788 218.722 218.75 218.094 218.67 217.539L212.731 218.39ZM214.361 215.044C214.198 215.27 214.007 215.471 213.788 215.653L217.613 220.276C218.198 219.792 218.746 219.222 219.227 218.554L214.361 215.044ZM214.416 208.267C214.842 211.437 214.761 213.221 214.61 214.164C214.537 214.623 214.45 214.859 214.413 214.949C214.384 215.017 214.374 215.026 214.357 215.051L219.232 218.548C220.254 217.123 221.308 214.502 220.362 207.468L214.416 208.267ZM210.269 194.182C213.226 199.796 213.913 204.522 214.416 208.266L220.362 207.468C219.838 203.562 219.045 197.969 215.577 191.386L210.269 194.182ZM202.773 184.492C206.872 188.195 209.19 192.138 210.27 194.184L215.576 191.384C214.323 189.01 211.615 184.394 206.794 180.039L202.773 184.492ZM197.477 181.097C198.715 181.08 199.727 181.744 202.774 184.493L206.793 180.038C204.243 177.738 201.43 175.044 197.397 175.097L197.477 181.097ZM195.109 181.797C196.133 181.346 196.751 181.105 197.472 181.097L197.402 175.097C195.305 175.121 193.648 175.884 192.688 176.307L195.109 181.797ZM189.52 182.153C190.758 182.789 191.972 182.779 192.951 182.569C193.805 182.386 194.622 182.012 195.109 181.797L192.688 176.307C192.392 176.438 192.186 176.528 191.999 176.601C191.818 176.671 191.727 176.695 191.693 176.703C191.666 176.708 191.733 176.69 191.86 176.702C192 176.714 192.142 176.755 192.259 176.816L189.52 182.153ZM186.123 175.647C186.162 176.105 186.249 177.231 186.601 178.383C186.929 179.457 187.685 181.215 189.524 182.156L192.255 176.813C192.435 176.905 192.502 177.011 192.488 176.991C192.467 176.96 192.407 176.851 192.339 176.628C192.196 176.161 192.142 175.625 192.101 175.141L186.123 175.647ZM186.116 175.573C186.118 175.596 186.12 175.62 186.123 175.648L192.101 175.14C192.099 175.114 192.097 175.086 192.094 175.059L186.116 175.573ZM180.775 152.858C184.386 164.859 185.788 171.645 186.116 175.566L192.095 175.066C191.712 170.485 190.152 163.197 186.521 151.13L180.775 152.858ZM186.031 140.718C184.349 144.048 182.668 147.351 180.982 150.618L186.314 153.37C188.01 150.083 189.699 146.763 191.387 143.423L186.031 140.718ZM191.379 130.023C189.621 133.574 187.84 137.14 186.032 140.717L191.386 143.424C193.204 139.829 194.992 136.248 196.756 132.685L191.379 130.023ZM221.895 159.144C213.856 155.874 207.986 149.777 203.892 143.829C199.807 137.895 197.62 132.298 196.879 130.307L191.256 132.401C192.071 134.59 194.461 140.71 198.95 147.231C203.429 153.739 210.13 160.836 219.634 164.702L221.895 159.144ZM236.851 161.532C230.159 162.41 224.999 160.411 221.898 159.145L219.632 164.701C222.932 166.048 229.317 168.572 237.632 167.481L236.851 161.532ZM250.315 155.533C244.961 160.366 238.833 161.272 236.853 161.531L237.631 167.481C239.93 167.18 247.585 166.08 254.335 159.987L250.315 155.533ZM258.078 141.348C256.703 146.022 255.144 151.173 250.315 155.533L254.335 159.987C260.538 154.387 262.459 147.716 263.834 143.042L258.078 141.348ZM258.083 141.331L258.079 141.344L263.833 143.045L263.837 143.032L258.083 141.331ZM259.645 121.495C259.804 130.446 259.863 135.266 258.081 141.337L263.839 143.026C265.917 135.943 265.801 130.222 265.645 121.389L259.645 121.495ZM258.669 106.663C258.861 108.549 259.537 115.289 259.645 121.495L265.645 121.39C265.531 114.908 264.831 107.947 264.638 106.055L258.669 106.663ZM257.986 100.797C258.175 102.237 258.422 104.254 258.669 106.665L264.638 106.053C264.384 103.577 264.13 101.502 263.934 100.015L257.986 100.797ZM274.249 79.2575C273.647 85.0423 270.379 89.507 266.915 92.6848C263.456 95.8581 260.037 97.5248 259.682 97.6919L262.238 103.12C262.886 102.815 266.898 100.843 270.971 97.1062C275.04 93.3735 279.408 87.6552 280.217 79.8784L274.249 79.2575ZM270.564 65.2302C272.683 67.3134 273.707 70.3499 274.124 73.3214C274.535 76.2444 274.305 78.7151 274.249 79.2588L280.217 79.8771C280.295 79.1265 280.575 76.1049 280.066 72.4861C279.564 68.9158 278.238 64.361 274.771 60.952L270.564 65.2302ZM265.316 61.3629C266.149 61.8867 269.019 63.71 270.563 65.2295L274.772 60.9527C272.678 58.8922 269.216 56.7276 268.51 56.2835L265.316 61.3629Z" fill="#C33D59"/>
<path d="M216.209 72.9157C218.349 72.4085 216.355 67.1261 214.227 59.3191C211.941 50.9349 210.641 49.1508 211.247 45.326C211.44 44.1191 212.349 38.3994 217.101 35.9973C221.031 34.0091 226.232 34.9769 230.301 38.3819C230.43 37.3558 230.914 34.6271 233.182 32.429C235.91 29.7762 240.283 28.8141 243.898 30.4467C246.667 31.6944 248.003 34.0149 248.463 34.9128C249.122 40.5742 249.938 46.4338 250.947 52.48C251.536 56.0365 252.171 59.5115 252.83 62.899C254.702 62.9748 257.623 63.3071 260.87 64.6831C263.127 65.6393 265.348 66.5838 267.121 68.8519C269.919 72.4318 269.622 76.7813 269.4 78.3789C268.712 83.4047 265.36 86.454 263.547 88.1041C262.789 88.7979 260.083 91.1709 255.804 92.5702C253.874 93.1999 252.177 93.4564 250.941 93.5614C251.728 97.2112 252.684 102.342 253.326 108.546C254.597 120.889 253.746 128.941 253.524 130.876C252.329 141.359 249.927 145.499 249.157 146.753C247.612 149.271 245.361 152.822 240.919 154.694C236.039 156.746 231.467 155.539 229.409 154.991C224.523 153.697 221.497 151.055 217.801 147.744C214.903 145.149 210.886 140.986 206.49 134.048C203.429 129.22 199.499 121.962 196.566 112.312C194.741 111.828 192.52 111.548 191.406 112.709C190.561 113.589 190.817 114.808 190.613 116.58C190.287 119.425 189.074 121.075 187.832 123.326C185.897 126.859 181.425 136.392 174.929 150.618C176.055 156.705 177.396 163.072 178.999 169.672C180.906 177.514 182.987 184.895 185.15 191.805C189.488 190.551 191.383 188.633 192.298 187.041C192.776 186.207 192.852 185.7 193.389 185.455C195.709 184.382 201.085 190.603 203.907 195.18C205.796 198.241 208.39 203.553 209.067 211.354C164.837 211.354 120.607 211.354 76.3831 211.354C75.9458 208.451 75.5318 202.678 78.2954 196.469C82.3243 187.403 90.3295 183.683 93.0348 182.476C95.7285 181.275 100.2 179.287 106.212 179.794C113.278 180.394 118.088 184.05 119.907 185.601C115.803 178.19 112.042 169.025 110.229 158.209C109.961 156.624 109.751 155.067 109.582 153.545C118.036 132.515 123.365 120.638 125.709 117.571C125.901 117.32 126.572 116.475 126.303 115.787C125.639 114.055 119.651 114.679 113.5 115.787C113.371 119.11 112.969 123.921 111.716 129.582C110.007 137.284 107.529 148.461 98.5155 156.577C95.6877 159.119 91.9212 162.512 86.4056 162.926C84.7206 163.055 80.2487 163.101 71.2231 156.676C66.5238 153.329 59.7313 147.621 53.3586 138.415C52.1225 138.263 49.7087 137.785 47.3066 136.03C43.8957 133.541 42.7646 130.124 42.444 128.981C41.1671 128.97 38.4792 128.748 36.1937 126.9C33.0219 124.329 32.6779 120.277 32.4214 117.274C32.1357 113.869 31.7509 110.971 33.6108 108.242C35.7273 105.141 39.243 104.33 40.3508 104.12C41.4411 102.313 42.5606 100.954 43.4351 100.01C44.8344 98.4939 46.2396 96.9722 48.5951 95.8935C49.5105 95.4738 51.108 94.7624 53.2595 94.8032C54.0524 94.8207 57.4399 94.8849 58.7168 97.083C58.95 97.4853 59.0549 97.8584 59.1132 98.1266C58.1279 98.6688 61.0781 97.0247 62.0926 96.5407C63.3403 95.9402 65.3285 95.398 68.4711 95.8469C70.3602 94.9024 72.2842 93.8645 74.2374 92.7218C81.9511 88.209 88.2422 83.1482 93.2914 78.3205C99.2968 78.099 105.302 77.8716 111.302 77.65C111.08 75.7785 110.946 72.9507 111.564 69.6098C112.001 67.2427 112.631 63.8435 115.214 60.3802C116.013 59.3133 118.934 55.6284 124.035 53.9026C126.268 53.1446 128.047 53.063 131.481 52.8997C134.74 52.7423 136.437 52.6607 138.629 53.3079C141.008 54.0075 142.524 55.1503 145.142 57.1035C147.684 59.0042 148.955 59.9546 149.981 61.5696C150.197 61.9078 152.785 66.0358 152.436 68.4904C152.412 68.6536 152.336 69.0851 152.587 69.4233C153.042 70.0413 154.272 69.913 155.193 69.7206C155.106 68.7061 155.083 67.196 155.456 65.4411C156.832 58.9751 162.283 55.5468 163.531 54.7597C167.402 52.3225 171.093 51.9436 172.86 51.7803C175.023 51.5821 180.066 51.1914 185.168 54.165C188.771 56.2639 190.689 59.0451 191.616 60.4152C194.683 64.9571 195.406 69.8314 195.721 72.0994C195.797 72.63 195.569 73.3413 195.872 73.3647C202.414 73.8602 209.953 74.4025 216.209 72.9157Z" fill="#FFF5F1" stroke="black" stroke-width="1.74914" stroke-miterlimit="10"/>
<path d="M190.25 113.058C183.469 113.058 176.689 113.058 169.908 113.058C164.824 124.386 159.734 135.721 154.649 147.049C154.177 147.638 153.098 149.142 152.865 151.364C152.597 153.853 153.547 155.713 153.909 156.349C157.658 166.027 161.401 175.7 165.15 185.379C162.62 183.49 158.731 181.152 153.565 179.921C149.723 179.006 146.65 179.058 145.525 179.105C143.589 179.181 139.385 179.385 134.633 181.688C129.736 184.061 126.943 187.355 125.305 189.332C123.427 191.594 121.544 193.862 120.64 197.372C120.372 198.41 120.209 200.264 119.894 203.919C119.859 204.31 119.346 210.31 119.299 210.864" stroke="black" stroke-width="1.74914" stroke-miterlimit="10"/>
<path d="M167.447 116.94C166.537 118.019 165.115 119.505 163.091 120.922C161.313 122.164 159.529 123.418 156.952 123.826C153.938 124.304 151.524 123.365 150.439 122.934C144.842 120.683 142.533 115.43 141.991 114.188C141.134 112.235 140.86 110.637 140.504 108.533C139.857 104.743 139.921 101.536 140.096 99.3379C140.959 99.9792 142.265 100.848 143.967 101.647C147.961 103.518 151.477 103.746 153.273 103.845C156.316 104.014 158.579 103.629 160.38 103.326C162.916 102.894 164.957 102.533 167.266 101.204C168.893 100.265 170.391 98.8248 170.391 98.819C170.881 98.3642 171.271 97.9619 171.546 97.6646C171.353 100.761 170.91 104.364 170.018 108.311C169.283 111.553 168.374 114.439 167.447 116.94Z" stroke="black" stroke-width="1.74914" stroke-miterlimit="10"/>
<path d="M76.1976 92.2666C76.2734 96.3829 76.3492 100.505 76.4192 104.621C83.2175 108.295 90.0158 111.968 96.8141 115.635C97.0649 118.107 97.1873 121.705 96.441 125.908C94.9542 134.287 89.8992 145.726 84.0862 145.633C82.1972 145.604 80.827 144.362 78.2791 142.059C74.2561 138.421 72.2912 134.333 71.3584 131.937C72.5944 131.313 74.6701 130.06 76.495 127.768C77.3404 126.707 78.8039 124.818 79.3228 121.961C79.5676 120.608 80.174 117.303 78.1334 114.591C76.6349 112.603 74.501 111.979 73.5215 111.688C70.9852 110.942 68.8629 111.408 66.8981 111.839C65.8194 112.078 63.7963 112.533 61.5399 113.921C59.4234 115.221 57.2486 116.562 56.6248 119.133C56.2108 120.842 56.4674 123.156 57.9658 124.713C59.3301 126.136 61.0851 126.264 63.324 126.427C64.8457 126.538 67.2129 126.713 69.4285 125.238C70.4546 124.556 71.1193 123.739 71.5099 123.156" stroke="black" stroke-width="1.74914" stroke-miterlimit="10"/>
<path d="M68.9768 96.1372C69.7289 96.6153 70.7784 97.3616 71.8804 98.4461C72.924 99.4722 74.2417 100.772 75.0813 102.836C75.7576 104.498 75.8159 105.909 75.8976 107.897C75.9675 109.524 75.8626 110.882 75.746 111.844" stroke="black" stroke-width="1.74914" stroke-miterlimit="10"/>
<path d="M59.101 98.1196C58.3897 98.8193 57.4218 99.9329 56.6172 101.495C55.5444 103.577 55.317 105.39 55.2004 106.335C55.0371 107.693 54.8331 109.442 55.4978 111.547C56.1274 113.541 57.2352 114.9 57.9524 115.64" stroke="black" stroke-width="1.74914" stroke-miterlimit="10"/>
<path d="M40.5391 104.545C40.4924 106.714 40.6207 108.515 40.7606 109.827C41.0638 112.661 41.2154 114.078 42.0258 115.407C42.7663 116.62 43.74 117.454 45.4483 118.905C46.3695 119.692 47.1799 120.287 47.7572 120.689" stroke="black" stroke-width="1.74914" stroke-miterlimit="10"/>
<path d="M56.1695 113.506C55.6214 114.491 54.5836 116.054 52.7936 117.453C50.6422 119.132 48.4732 119.727 47.313 119.96" stroke="black" stroke-width="1.74914" stroke-miterlimit="10"/>
<path d="M47.4879 120.251C47.4938 121.039 47.4121 123.33 45.8263 125.586C44.2579 127.814 42.1589 128.671 41.4126 128.933" stroke="black" stroke-width="1.74914" stroke-miterlimit="10"/>
<path d="M62.6557 134.653C61.4254 135.289 60.0086 135.936 58.4111 136.513C56.0381 137.37 53.8575 137.872 52.0034 138.169" stroke="black" stroke-width="1.74914" stroke-miterlimit="10"/>
<path d="M71.1748 132.387C70.5859 132.626 69.8746 132.859 69.0525 133.022C67.5832 133.314 66.3005 133.279 65.3677 133.174" stroke="black" stroke-width="1.74914" stroke-miterlimit="10"/>
<path d="M96.8463 114.97C96.4906 114.306 95.9601 113.075 96.03 111.507C96.1816 108.009 99.1727 106.009 99.5283 105.776C98.6829 104.936 96.5664 102.592 95.9193 98.89C95.068 94.0274 97.3769 90.3425 97.9308 89.5088C97.0387 88.3835 95.791 86.5294 94.9922 83.964C94.3567 81.935 94.2109 80.145 94.2109 78.8682" stroke="black" stroke-width="1.74914" stroke-miterlimit="10"/>
<path d="M99.9792 105.42C113.115 104.721 126.251 104.027 139.393 103.327" stroke="black" stroke-width="1.74914" stroke-miterlimit="10"/>
<path d="M96.7148 115.291C111.652 115.11 126.584 114.929 141.522 114.743" stroke="black" stroke-width="1.74914" stroke-miterlimit="10"/>
<path d="M222.754 87.1064C224.398 87.7361 227.092 88.4649 230.298 87.9984C231.628 87.806 233.429 87.5262 235.26 86.2143C236.065 85.6371 238.03 84.1853 238.735 81.4508C238.91 80.7687 239.586 78.1916 238.041 75.6962C236.625 73.4048 234.31 72.7576 233.773 72.6177C230.782 72.4661 222.013 72.1688 216.603 74.4018C215.728 74.7633 215.04 75.1481 214.422 75.5912C210.749 78.2149 209.874 82.4945 209.659 83.5323C209.396 84.8092 208.58 88.7972 210.848 92.7619C212.965 96.4584 216.439 97.8111 217.996 98.4175C222.626 100.219 226.876 99.2979 229.109 98.8139C231.138 98.3767 232.759 97.7353 233.873 97.2281C234.665 99.327 235.709 102.534 236.356 106.557C237.435 113.268 235.972 113.314 236.555 122.83C236.829 127.319 237.342 130.345 235.563 133.744C235.062 134.706 233.913 136.834 232.088 137.021C230.905 137.143 229.71 136.42 227.622 134.042C224.007 129.914 222.264 126.001 222.264 126.001C220.748 122.596 218.369 117.915 214.521 112.107C208.732 112.265 202.942 112.422 197.152 112.58" stroke="black" stroke-width="1.74914" stroke-miterlimit="10"/>
<path d="M190.984 112.894C190.301 113.034 189.619 113.18 188.937 113.32" stroke="black" stroke-width="1.74914" stroke-miterlimit="10"/>
<path d="M146.631 121.144C137.087 141.947 132.918 150.605 131.944 152.109C131.857 152.243 131.489 152.791 131.25 153.596C130.673 155.532 131.314 157.316 131.548 157.963C133.017 162.068 134.107 166.312 135.716 170.37C136.562 172.504 137.699 175.6 138.795 179.501" stroke="black" stroke-width="1.74914" stroke-miterlimit="10"/>
<path d="M98.4089 89.4024C105.073 89.4024 114.746 88.8193 121.41 88.8193" stroke="black" stroke-width="1.74914" stroke-miterlimit="10"/>
<path d="M146.292 86.6094C150.361 86.6094 156.314 86.6094 160.384 86.6094" stroke="black" stroke-width="1.74914" stroke-miterlimit="10"/>
<path d="M206.576 74.6001C206.739 86.9373 206.909 99.2804 207.072 111.618" stroke="black" stroke-width="1.74914" stroke-miterlimit="10"/>
<path d="M198.336 74.2026C198.896 86.709 199.461 99.2095 200.021 111.716" stroke="black" stroke-width="1.74914" stroke-miterlimit="10"/>
<path d="M192.684 81.7656C193.144 90.9952 193.611 101.793 194.071 111.023" stroke="black" stroke-width="1.74914" stroke-miterlimit="10"/>
<path d="M171.84 101.099C178.854 101.099 185.868 101.099 192.888 101.099" stroke="black" stroke-width="1.74914" stroke-miterlimit="10"/>
<path d="M132.04 92.7137C143.14 92.7137 152.138 83.7157 152.138 72.6161C152.138 61.5165 143.14 52.5186 132.04 52.5186C120.941 52.5186 111.943 61.5165 111.943 72.6161C111.943 83.7157 120.941 92.7137 132.04 92.7137Z" fill="black" stroke="black" stroke-width="1.74914" stroke-miterlimit="10"/>
<path d="M174.639 92.7147C185.739 92.7147 194.737 83.7167 194.737 72.6171C194.737 61.5175 185.739 52.5195 174.639 52.5195C163.54 52.5195 154.542 61.5175 154.542 72.6171C154.542 83.7167 163.54 92.7147 174.639 92.7147Z" fill="black" stroke="black" stroke-width="1.74914" stroke-miterlimit="10"/>
<path d="M68.4561 104.773C68.7359 105.386 69.0216 106.132 69.2373 107.007C69.593 108.464 69.628 109.747 69.5697 110.691" stroke="black" stroke-width="1.74914" stroke-miterlimit="10"/>
<path d="M230.443 38.9238C230.688 40.294 230.939 41.67 231.19 43.0401C232.7 51.3777 234.239 59.6803 235.802 67.9479" stroke="black" stroke-width="1.74914" stroke-miterlimit="10"/>
<path d="M233.568 68.5942C235.037 68.6584 236.512 68.7283 237.982 68.7925" stroke="black" stroke-width="1.74914" stroke-miterlimit="10"/>
<path d="M254.061 63.8315C251.402 63.9482 249.414 64.5895 248.155 65.1201C245.234 66.3503 243.31 68.1694 240.663 70.6765C239.17 72.0933 238.016 73.3527 237.24 74.2506" stroke="black" stroke-width="1.74914" stroke-miterlimit="10"/>
<path d="M258.577 78.5234C257.737 78.9082 256.571 79.4388 255.178 80.0627C246.479 83.9283 244.572 84.2256 242.8 83.6601C241.931 83.3802 240.671 82.7622 239.4 81.1763" stroke="black" stroke-width="1.74914" stroke-miterlimit="10"/>
<path d="M146.63 103.058C146.63 108.871 146.63 114.684 146.63 120.497" stroke="black" stroke-width="1.74914" stroke-miterlimit="10"/>
<path d="M155.267 104.347C155.267 110.784 155.267 117.215 155.267 123.652" stroke="black" stroke-width="1.74914" stroke-miterlimit="10"/>
<path d="M164.862 102.936C165.462 107.897 166.069 112.853 166.669 117.815" stroke="black" stroke-width="1.74914" stroke-miterlimit="10"/>
<path d="M117.789 84.2896C119.835 83.5024 122.581 82.4296 125.147 79.0655C125.747 78.2784 126.774 76.8965 127.427 74.85C128.435 71.7133 127.829 69.1595 127.724 67.9526C127.467 65.0724 129.147 60.6412 138.295 54.0586C139.111 53.738 139.554 53.8371 139.758 53.9187C139.863 53.9595 140.16 54.0878 140.393 54.1986C140.563 54.2744 140.679 54.3327 140.86 54.4201C141.192 54.5834 141.513 54.7408 141.921 54.9623C141.921 54.9623 142.178 55.0964 142.422 55.2422C143.892 56.0818 145.816 57.9884 145.816 57.9884C147.717 59.8891 147.396 59.8133 148.784 61.2184C148.784 61.2184 149.343 61.784 149.81 62.7985C149.88 62.9559 149.985 63.2008 149.967 63.5215C149.955 63.7955 149.862 64.0112 149.792 64.1395C148.632 64.7459 146.177 66.2326 144.405 69.2003C143.192 71.2352 142.778 73.1592 142.621 74.3603C142.335 76.1794 141.822 78.3017 140.883 80.5639C138.219 86.9832 134.272 90.2541 131.683 92.114C130.004 92.0266 128.639 91.7584 127.654 91.5135C126.989 91.3502 126.208 91.152 125.234 90.7322C124.313 90.3357 123.917 90.0384 122.657 89.2571C119.433 87.2631 118.541 87.0474 118.051 85.8696C117.789 85.2516 117.771 84.6685 117.789 84.2896Z" fill="#FFF5F1"/>
<path d="M160.503 84.29C162.549 83.5029 165.296 82.4301 167.861 79.066C168.461 78.2788 169.488 76.897 170.141 74.8505C171.149 71.7137 170.543 69.16 170.438 67.9531C170.181 65.0729 171.861 60.6417 181.009 54.0591C181.825 53.7384 182.268 53.8376 182.472 53.9192C182.577 53.96 182.874 54.0883 183.108 54.199C183.277 54.2748 183.393 54.3331 183.574 54.4206C183.906 54.5839 184.227 54.7413 184.635 54.9628C184.635 54.9628 184.892 55.0969 185.137 55.2427C186.606 56.0823 188.53 57.9888 188.53 57.9888C190.431 59.8896 190.11 59.8138 191.498 61.2189C191.498 61.2189 192.057 61.7845 192.524 62.799C192.594 62.9564 192.699 63.2013 192.681 63.5219C192.67 63.796 192.576 64.0117 192.506 64.14C191.346 64.7463 188.891 66.2331 187.119 69.2008C185.906 71.2356 185.492 73.1597 185.335 74.3608C185.049 76.1799 184.536 78.3022 183.597 80.5644C180.933 86.9837 176.986 90.2546 174.397 92.1145C172.718 92.0271 171.353 91.7589 170.368 91.514C169.703 91.3507 168.922 91.1525 167.948 90.7327C167.027 90.3362 166.631 90.0389 165.371 89.2576C162.147 87.2636 161.255 87.0479 160.765 85.8701C160.503 85.2521 160.485 84.669 160.503 84.29Z" fill="#FFF5F1"/>
<path d="M70.0963 257.007C73.9808 257.007 77.1637 255.946 79.4397 253.944C81.7157 251.942 83.0333 248.759 83.0333 244.738C83.0333 240.751 81.7157 237.55 79.4397 235.548C77.1637 233.546 73.9466 232.468 70.0963 232.468H58.1861C58.4256 233.563 58.6139 234.932 58.7679 236.592C58.9219 238.252 58.9903 239.826 58.9903 241.349V248.143C58.9903 249.666 58.9219 251.24 58.7679 252.883C58.6139 254.526 58.4256 255.895 58.1861 257.007H70.0963ZM66.9476 240.357H70.4386C71.6193 240.357 72.629 240.751 73.4675 241.538C74.306 242.342 74.7167 243.403 74.7167 244.738C74.7167 246.09 74.306 247.151 73.4846 247.938C72.6461 248.725 71.6364 249.118 70.4386 249.118H66.9476V240.357ZM96.5008 257.504C98.2292 257.504 99.9746 257.35 101.72 257.059C103.466 256.751 104.8 256.357 105.742 255.878L105.605 250.111C104.954 250.83 103.979 251.394 102.678 251.805C101.378 252.216 100.009 252.421 98.5885 252.421C96.7404 252.421 95.1318 252.01 93.7628 251.206C92.3767 250.402 91.6238 249.461 91.4869 248.383L91.7607 248.212C93.6259 249.632 95.9361 250.111 98.9479 250.111C103.517 250.111 106.135 248.502 106.135 245.268C106.135 243.951 105.724 242.77 104.715 241.675C103.277 240.1 100.42 239.005 95.9703 238.988C92.2911 238.988 89.2622 240.032 87.4141 241.726C85.5488 243.437 84.5392 245.696 84.5392 248.246C84.5392 251.018 85.6173 253.26 87.7906 254.954C89.9639 256.648 92.8559 257.504 96.5008 257.504ZM95.9019 248.109C94.0708 248.109 92.6847 247.664 91.7264 246.774C91.8804 245.799 92.3254 245.063 93.027 244.549C93.7286 244.053 94.55 243.797 95.4741 243.797C97.5447 243.797 98.8452 244.686 98.8452 246.072C98.8452 246.671 98.5543 247.151 97.9725 247.527C97.3907 247.921 96.7062 248.109 95.9019 248.109ZM117.6 257.504C120.886 257.504 123.419 257.007 125.215 255.998C127.012 254.988 127.902 253.585 127.902 251.754C127.919 249.084 125.472 247.938 122.751 247.476C119.072 246.791 114.794 247.116 114.794 245.901C114.794 245.2 116.043 244.703 118.114 244.703C119.568 244.703 121.023 244.892 122.46 245.285C123.898 245.679 125.079 246.107 126.003 246.569L126.037 240.562C123.367 239.518 120.527 238.988 117.515 238.988C114.383 238.988 111.988 239.484 110.328 240.477C108.651 241.486 107.812 242.787 107.812 244.395C107.812 251.001 120.886 248.04 120.886 250.453C120.886 251.223 119.517 251.651 117.104 251.651C115.821 251.651 114.264 251.429 112.45 251.001C110.619 250.573 109.044 250.043 107.709 249.444V256.032C108.856 256.408 110.447 256.751 112.501 257.059C114.537 257.35 116.249 257.504 117.6 257.504ZM137.725 237.533C138.495 236.832 138.871 235.942 138.871 234.864C138.871 233.769 138.495 232.862 137.725 232.16C136.955 231.458 135.928 231.116 134.627 231.116C133.327 231.116 132.3 231.458 131.547 232.16C130.777 232.862 130.401 233.769 130.401 234.864C130.401 235.942 130.777 236.832 131.547 237.533C132.3 238.235 133.327 238.577 134.627 238.577C135.928 238.577 136.955 238.235 137.725 237.533ZM139.436 257.007C138.905 254.663 138.632 251.702 138.632 248.143V243.3C138.632 241.692 138.717 240.425 138.871 239.484C137.896 240.186 136.527 240.545 134.73 240.545C132.933 240.545 131.513 240.186 130.435 239.484C130.589 240.237 130.674 241.503 130.674 243.3V248.143C130.674 251.702 130.401 254.663 129.87 257.007H139.436ZM153.057 264.999C159.954 264.999 166.166 262.021 166.166 256.306C166.166 255.382 165.926 254.475 165.464 253.602V248.348C165.464 244.789 165.738 241.829 166.268 239.484H156.702C157.027 240.288 157.233 240.939 157.353 241.452C157.455 241.983 157.507 242.633 157.507 243.403V243.797H157.045C155.864 240.853 153.314 238.988 149.686 238.988C146.965 238.988 144.792 240.032 143.492 241.743C142.174 243.454 141.489 245.696 141.489 248.28C141.489 250.864 142.174 253.071 143.492 254.766C144.792 256.477 146.965 257.504 149.686 257.504C153.4 257.504 155.932 255.57 157.045 252.627H157.438C158.157 253.379 158.516 254.201 158.516 255.108C158.516 256.665 157.883 257.863 156.634 258.719C155.385 259.557 153.691 259.985 151.586 259.985C149.738 259.985 147.855 259.711 145.939 259.146C144.022 258.582 142.55 257.846 141.524 256.939L141.558 263.596C142.91 264.023 144.655 264.366 146.794 264.622C148.933 264.879 151.021 264.999 153.057 264.999ZM153.16 252.524C151.842 252.524 150.799 252.13 150.029 251.326C149.241 250.522 148.848 249.512 148.848 248.28C148.848 247.014 149.241 245.97 150.029 245.166C150.799 244.361 151.842 243.968 153.16 243.968C154.444 243.968 155.453 244.378 156.223 245.183C156.993 245.987 157.37 247.031 157.37 248.28C157.37 249.461 156.976 250.47 156.189 251.292C155.402 252.113 154.392 252.524 153.16 252.524ZM179.325 257.007C179.051 256.34 178.846 255.228 178.709 253.705C178.572 252.182 178.504 250.864 178.504 249.752L178.469 248.075C178.469 246.928 178.846 245.97 179.582 245.2C180.318 244.43 181.293 244.036 182.474 244.036C184.75 244.036 186.084 245.662 186.084 248.075V249.683C186.084 252.216 185.811 254.663 185.28 257.007H194.88C194.315 254.714 194.042 251.993 194.042 248.845V246.979C194.042 244.498 193.357 242.547 191.971 241.127C190.585 239.707 188.6 238.988 186.016 238.988C182.542 238.988 180.181 240.631 178.931 243.899H178.504V243.437C178.504 241.914 178.829 240.596 179.462 239.484H169.708C170.238 241.692 170.512 244.276 170.512 247.236V250.111C170.512 251.566 170.444 252.781 170.324 253.756C170.204 254.748 169.999 255.827 169.708 257.007H179.325ZM209.34 257.504C211.069 257.504 212.814 257.35 214.56 257.059C216.305 256.751 217.64 256.357 218.581 255.878L218.444 250.111C217.794 250.83 216.818 251.394 215.518 251.805C214.217 252.216 212.848 252.421 211.428 252.421C209.58 252.421 207.971 252.01 206.602 251.206C205.216 250.402 204.463 249.461 204.326 248.383L204.6 248.212C206.465 249.632 208.776 250.111 211.787 250.111C216.356 250.111 218.975 248.502 218.975 245.268C218.975 243.951 218.564 242.77 217.554 241.675C216.117 240.1 213.259 239.005 208.81 238.988C205.131 238.988 202.102 240.032 200.254 241.726C198.388 243.437 197.379 245.696 197.379 248.246C197.379 251.018 198.457 253.26 200.63 254.954C202.803 256.648 205.695 257.504 209.34 257.504ZM208.741 248.109C206.91 248.109 205.524 247.664 204.566 246.774C204.72 245.799 205.165 245.063 205.866 244.549C206.568 244.053 207.389 243.797 208.313 243.797C210.384 243.797 211.685 244.686 211.685 246.072C211.685 246.671 211.394 247.151 210.812 247.527C210.23 247.921 209.546 248.109 208.741 248.109ZM231.09 257.007C230.577 255.69 230.32 253.927 230.32 251.72V250.145C230.32 248.691 230.851 247.493 231.894 246.535C232.938 245.576 234.187 245.097 235.625 245.097C237.285 245.097 238.962 245.799 239.852 246.74V239.518C239.047 239.159 238.123 238.988 237.062 238.988C233.708 238.988 231.415 241.281 230.748 245.337H230.32V244.293C230.32 243.454 230.423 242.582 230.645 241.675C230.851 240.768 231.159 240.049 231.552 239.484H221.524C222.055 241.829 222.329 244.413 222.329 247.236V250.145C222.329 251.548 222.26 252.729 222.14 253.688C222.021 254.663 221.815 255.758 221.524 257.007H231.09Z" fill="black"/>
</g>
<defs>
<filter id="filter0_d_1595:4063" x="-0.000488281" y="0.994629" width="300.364" height="306.074" filterUnits="userSpaceOnUse" color-interpolation-filters="sRGB">
<feFlood flood-opacity="0" result="BackgroundImageFix"/>
<feColorMatrix in="SourceAlpha" type="matrix" values="0 0 0 0 0 0 0 0 0 0 0 0 0 0 0 0 0 0 127 0" result="hardAlpha"/>
<feOffset dy="4"/>
<feGaussianBlur stdDeviation="10"/>
<feComposite in2="hardAlpha" operator="out"/>
<feColorMatrix type="matrix" values="0 0 0 0 0 0 0 0 0 0 0 0 0 0 0 0 0 0 0.25 0"/>
<feBlend mode="normal" in2="BackgroundImageFix" result="effect1_dropShadow_1595:4063"/>
<feBlend mode="normal" in="SourceGraphic" in2="effect1_dropShadow_1595:4063" result="shape"/>
</filter>
</defs>
</svg>
