<svg width="188" height="47" viewBox="0 0 188 47" fill="none" xmlns="http://www.w3.org/2000/svg">
<path d="M16.8672 36C22.1875 36 26.5469 34.5469 29.6641 31.8047C32.7812 29.0625 34.5859 24.7031 34.5859 19.1953C34.5859 13.7344 32.7812 9.35156 29.6641 6.60938C26.5469 3.86719 22.1406 2.39062 16.8672 2.39062H0.554688C0.882812 3.89062 1.14062 5.76562 1.35156 8.03906C1.5625 10.3125 1.65625 12.4688 1.65625 14.5547V23.8594C1.65625 25.9453 1.5625 28.1016 1.35156 30.3516C1.14062 32.6016 0.882812 34.4766 0.554688 36H16.8672ZM12.5547 13.1953H17.3359C18.9531 13.1953 20.3359 13.7344 21.4844 14.8125C22.6328 15.9141 23.1953 17.3672 23.1953 19.1953C23.1953 21.0469 22.6328 22.5 21.5078 23.5781C20.3594 24.6562 18.9766 25.1953 17.3359 25.1953H12.5547V13.1953ZM53.0312 36.6797C55.3984 36.6797 57.7891 36.4688 60.1797 36.0703C62.5703 35.6484 64.3984 35.1094 65.6875 34.4531L65.5 26.5547C64.6094 27.5391 63.2734 28.3125 61.4922 28.875C59.7109 29.4375 57.8359 29.7188 55.8906 29.7188C53.3594 29.7188 51.1562 29.1562 49.2812 28.0547C47.3828 26.9531 46.3516 25.6641 46.1641 24.1875L46.5391 23.9531C49.0938 25.8984 52.2578 26.5547 56.3828 26.5547C62.6406 26.5547 66.2266 24.3516 66.2266 19.9219C66.2266 18.1172 65.6641 16.5 64.2812 15C62.3125 12.8438 58.3984 11.3438 52.3047 11.3203C47.2656 11.3203 43.1172 12.75 40.5859 15.0703C38.0312 17.4141 36.6484 20.5078 36.6484 24C36.6484 27.7969 38.125 30.8672 41.1016 33.1875C44.0781 35.5078 48.0391 36.6797 53.0312 36.6797ZM52.2109 23.8125C49.7031 23.8125 47.8047 23.2031 46.4922 21.9844C46.7031 20.6484 47.3125 19.6406 48.2734 18.9375C49.2344 18.2578 50.3594 17.9062 51.625 17.9062C54.4609 17.9062 56.2422 19.125 56.2422 21.0234C56.2422 21.8438 55.8438 22.5 55.0469 23.0156C54.25 23.5547 53.3125 23.8125 52.2109 23.8125ZM81.9297 36.6797C86.4297 36.6797 89.8984 36 92.3594 34.6172C94.8203 33.2344 96.0391 31.3125 96.0391 28.8047C96.0625 25.1484 92.7109 23.5781 88.9844 22.9453C83.9453 22.0078 78.0859 22.4531 78.0859 20.7891C78.0859 19.8281 79.7969 19.1484 82.6328 19.1484C84.625 19.1484 86.6172 19.4062 88.5859 19.9453C90.5547 20.4844 92.1719 21.0703 93.4375 21.7031L93.4844 13.4766C89.8281 12.0469 85.9375 11.3203 81.8125 11.3203C77.5234 11.3203 74.2422 12 71.9688 13.3594C69.6719 14.7422 68.5234 16.5234 68.5234 18.7266C68.5234 27.7734 86.4297 23.7188 86.4297 27.0234C86.4297 28.0781 84.5547 28.6641 81.25 28.6641C79.4922 28.6641 77.3594 28.3594 74.875 27.7734C72.3672 27.1875 70.2109 26.4609 68.3828 25.6406V34.6641C69.9531 35.1797 72.1328 35.6484 74.9453 36.0703C77.7344 36.4688 80.0781 36.6797 81.9297 36.6797ZM109.492 9.32812C110.547 8.36719 111.062 7.14844 111.062 5.67188C111.062 4.17188 110.547 2.92969 109.492 1.96875C108.438 1.00781 107.031 0.539062 105.25 0.539062C103.469 0.539062 102.062 1.00781 101.031 1.96875C99.9766 2.92969 99.4609 4.17188 99.4609 5.67188C99.4609 7.14844 99.9766 8.36719 101.031 9.32812C102.062 10.2891 103.469 10.7578 105.25 10.7578C107.031 10.7578 108.438 10.2891 109.492 9.32812ZM111.836 36C111.109 32.7891 110.734 28.7344 110.734 23.8594V17.2266C110.734 15.0234 110.852 13.2891 111.062 12C109.727 12.9609 107.852 13.4531 105.391 13.4531C102.93 13.4531 100.984 12.9609 99.5078 12C99.7188 13.0312 99.8359 14.7656 99.8359 17.2266V23.8594C99.8359 28.7344 99.4609 32.7891 98.7344 36H111.836ZM130.492 46.9453C139.938 46.9453 148.445 42.8672 148.445 35.0391C148.445 33.7734 148.117 32.5312 147.484 31.3359V24.1406C147.484 19.2656 147.859 15.2109 148.586 12H135.484C135.93 13.1016 136.211 13.9922 136.375 14.6953C136.516 15.4219 136.586 16.3125 136.586 17.3672V17.9062H135.953C134.336 13.875 130.844 11.3203 125.875 11.3203C122.148 11.3203 119.172 12.75 117.391 15.0938C115.586 17.4375 114.648 20.5078 114.648 24.0469C114.648 27.5859 115.586 30.6094 117.391 32.9297C119.172 35.2734 122.148 36.6797 125.875 36.6797C130.961 36.6797 134.43 34.0312 135.953 30H136.492C137.477 31.0312 137.969 32.1562 137.969 33.3984C137.969 35.5312 137.102 37.1719 135.391 38.3438C133.68 39.4922 131.359 40.0781 128.477 40.0781C125.945 40.0781 123.367 39.7031 120.742 38.9297C118.117 38.1562 116.102 37.1484 114.695 35.9062L114.742 45.0234C116.594 45.6094 118.984 46.0781 121.914 46.4297C124.844 46.7812 127.703 46.9453 130.492 46.9453ZM130.633 29.8594C128.828 29.8594 127.398 29.3203 126.344 28.2188C125.266 27.1172 124.727 25.7344 124.727 24.0469C124.727 22.3125 125.266 20.8828 126.344 19.7812C127.398 18.6797 128.828 18.1406 130.633 18.1406C132.391 18.1406 133.773 18.7031 134.828 19.8047C135.883 20.9062 136.398 22.3359 136.398 24.0469C136.398 25.6641 135.859 27.0469 134.781 28.1719C133.703 29.2969 132.32 29.8594 130.633 29.8594ZM166.469 36C166.094 35.0859 165.812 33.5625 165.625 31.4766C165.438 29.3906 165.344 27.5859 165.344 26.0625L165.297 23.7656C165.297 22.1953 165.812 20.8828 166.82 19.8281C167.828 18.7734 169.164 18.2344 170.781 18.2344C173.898 18.2344 175.727 20.4609 175.727 23.7656V25.9688C175.727 29.4375 175.352 32.7891 174.625 36H187.773C187 32.8594 186.625 29.1328 186.625 24.8203V22.2656C186.625 18.8672 185.688 16.1953 183.789 14.25C181.891 12.3047 179.172 11.3203 175.633 11.3203C170.875 11.3203 167.641 13.5703 165.93 18.0469H165.344V17.4141C165.344 15.3281 165.789 13.5234 166.656 12H153.297C154.023 15.0234 154.398 18.5625 154.398 22.6172V26.5547C154.398 28.5469 154.305 30.2109 154.141 31.5469C153.977 32.9062 153.695 34.3828 153.297 36H166.469Z" fill="#AFAFAF"/>
</svg>
