<svg width="134" height="153" viewBox="0 0 134 153" fill="none" xmlns="http://www.w3.org/2000/svg">
<g clip-path="url(#clip0_2285_4180)">
<circle cx="75.6737" cy="75.5586" r="61.8863" transform="rotate(8.19939 75.6737 75.5586)" fill="#FEB913"/>
<path d="M71.768 31.956L68.7761 52.7196M92.5316 34.9479L89.5397 55.7114M127.925 83.4969C123.795 112.165 97.2054 132.057 68.5368 127.926C39.8683 123.795 19.9766 97.2062 24.1075 68.5376M137.269 84.8433C132.395 118.672 101.019 142.144 67.1905 137.27C33.3616 132.395 9.88942 101.02 14.7639 67.1913C19.6383 33.3624 51.0136 9.89024 84.8424 14.7647C118.671 19.6391 142.143 51.0144 137.269 84.8433Z" stroke="#343434" stroke-width="2.48012"/>
</g>
<defs>
<clipPath id="clip0_2285_4180">
<rect width="134.259" height="134.259" fill="white" transform="translate(19.1475) rotate(8.19939)"/>
</clipPath>
</defs>
</svg>
