<svg width="2461" height="99" viewBox="0 0 2461 99" fill="none" xmlns="http://www.w3.org/2000/svg">
<path d="M77.0244 75L80.71 53.3848C76.7754 55.8252 70.4004 57.0703 61.5352 57.0703H24.7793V45.1172H53.0684C58.248 45.1172 62.2324 45.3662 64.9717 45.8145V32.7656C62.0332 33.1641 58.0488 33.3633 53.0684 33.3633H24.7793V21.5596H61.4355C69.6533 21.5596 75.1318 22.4062 77.9707 24.0996L74.8828 3.58008H0.922852C2.61621 9.1582 3.46289 16.2803 3.46289 24.9961V53.584C3.46289 62.5986 2.61621 69.7705 0.922852 75H77.0244ZM116.071 75C114.378 70.5674 113.531 64.541 113.531 56.9707V50.3965C113.531 46.2627 115.125 42.8262 118.263 39.9873C121.4 37.1484 125.136 35.7539 129.419 35.7539C133.603 35.7539 136.939 36.9492 139.43 39.3398C141.87 41.7305 143.115 44.8682 143.115 48.8027V56.8213C143.115 63.4951 142.318 69.5713 140.675 75H166.474C164.78 69.6709 163.934 63.2959 163.934 55.9248V45.7148C163.934 38.5928 161.692 32.915 157.26 28.7812C152.777 24.6475 146.402 22.5557 138.185 22.5557C132.756 22.5557 127.925 23.8008 123.691 26.3408C119.458 28.8809 116.47 32.6162 114.627 37.4473H113.531V34.8076C113.531 30.4248 114.278 26.8389 115.772 24H90.2725C91.916 29.4287 92.7129 35.6543 92.7129 42.5771V57.3691C92.7129 63.6943 91.916 69.5713 90.2725 75H116.071ZM237.993 68.9736C244.518 63.9932 247.805 57.5186 247.805 49.5C247.805 41.4814 244.518 35.0068 237.993 30.0264C231.469 25.0459 222.653 22.5557 211.597 22.5557C200.54 22.5557 191.725 25.0459 185.2 30.0264C178.676 35.0068 175.389 41.4814 175.389 49.5C175.389 57.5186 178.676 63.9932 185.2 68.9736C191.725 73.9541 200.54 76.4443 211.597 76.4443C222.653 76.4443 231.469 73.9541 237.993 68.9736ZM211.597 64.1924C206.716 64.1924 202.731 62.8477 199.594 60.1582C196.456 57.5186 194.862 53.9326 194.862 49.5C194.862 45.0176 196.456 41.4316 199.594 38.7422C202.731 36.0527 206.716 34.708 211.597 34.708C216.527 34.708 220.512 36.0527 223.649 38.7422C226.737 41.4316 228.281 45.0176 228.281 49.5C228.281 53.9824 226.737 57.5684 223.649 60.208C220.512 62.8477 216.527 64.1924 211.597 64.1924ZM284.66 76.4443C290.139 76.4443 294.97 75.1992 299.203 72.6094C303.387 70.0693 306.375 66.3838 308.218 61.5527H309.313V64.0928C309.313 68.4258 308.616 72.0615 307.172 75H332.672C331.028 69.5713 330.231 63.3457 330.231 56.4229V41.5312C330.231 35.2061 331.028 29.3291 332.672 24H306.873C308.517 28.1836 309.313 34.1602 309.313 41.9297V48.6035C309.313 52.7373 307.77 56.1738 304.632 59.0127C301.494 61.8516 297.759 63.2461 293.525 63.2461C289.342 63.2461 286.005 62.0508 283.564 59.6602C281.124 57.2695 279.879 54.1318 279.879 50.1973V42.0293C279.879 35.3555 280.676 29.3291 282.319 24H256.62C258.264 29.3291 259.061 35.6543 259.061 42.9756V53.2852C259.061 60.4072 261.302 66.085 265.734 70.2188C270.167 74.3525 276.442 76.4443 284.66 76.4443ZM378.741 98.2588C401.203 98.2588 421.175 89.792 421.175 72.7588C421.175 69.123 420.029 65.8359 417.688 62.9473V44.8184C417.688 36.999 418.485 30.0264 420.129 24H394.131C395.974 27.3369 396.92 31.2217 396.92 35.6045V37.1484H395.874C393.832 32.5664 390.595 28.9805 386.112 26.3906C381.58 23.8506 376.251 22.5557 370.075 22.5557C361.31 22.5557 354.337 25.0459 349.107 30.0264C343.878 35.0068 341.288 41.4814 341.288 49.5C341.288 57.5186 343.928 63.9932 349.157 68.9736C354.387 73.9541 361.359 76.4443 370.175 76.4443C376.201 76.4443 381.381 75.1494 385.813 72.5596C390.246 70.0195 393.533 66.5332 395.675 62.1504H396.571C399.161 64.6406 400.456 67.3301 400.456 70.2188C400.456 75.3984 398.115 79.3828 393.434 82.1221C388.702 84.8613 382.477 86.2061 374.757 86.2061C368.88 86.2061 362.854 85.459 356.628 83.915C350.402 82.3711 345.571 80.3789 342.234 77.9385L342.135 93.7764C346.418 95.1211 351.996 96.2168 358.819 97.0635C365.643 97.8604 372.316 98.2588 378.741 98.2588ZM378.741 62.8477C373.412 62.8477 369.129 61.6025 365.842 59.1621C362.555 56.7217 360.911 53.4844 360.911 49.5C360.911 45.5156 362.555 42.2783 365.842 39.8379C369.129 37.3975 373.412 36.1523 378.741 36.1523C383.871 36.1523 388.055 37.3975 391.342 39.8877C394.629 42.4277 396.272 45.6152 396.272 49.5C396.272 53.2354 394.629 56.373 391.292 58.9629C387.955 61.5527 383.771 62.8477 378.741 62.8477ZM458.528 75C456.885 70.7168 456.088 64.6904 456.088 56.9707L455.988 50.3965C455.988 46.3125 457.582 42.8262 460.77 39.9873C463.957 37.1484 467.643 35.7539 471.876 35.7539C476.06 35.7539 479.396 36.9492 481.887 39.3398C484.327 41.7305 485.572 44.8682 485.572 48.8027V56.8213C485.572 63.4951 484.775 69.5713 483.132 75H508.931C507.237 69.6709 506.391 63.2959 506.391 55.9248V45.7148C506.391 38.5928 504.199 32.915 499.767 28.7812C495.334 24.6475 489.009 22.5557 480.791 22.5557C475.263 22.5557 470.432 23.8008 466.198 26.3408C461.965 28.8809 458.977 32.6162 457.184 37.4473H456.088V23.4023C456.088 15.6328 456.885 9.00879 458.528 3.58008H432.729C434.373 8.70996 435.17 15.2842 435.17 23.4023V55.2275C435.17 63.2959 434.373 69.8701 432.729 75H458.528ZM607.942 68.9736C614.467 63.9932 617.754 57.5186 617.754 49.5C617.754 41.4814 614.467 35.0068 607.942 30.0264C601.418 25.0459 592.603 22.5557 581.546 22.5557C570.489 22.5557 561.674 25.0459 555.149 30.0264C548.625 35.0068 545.338 41.4814 545.338 49.5C545.338 57.5186 548.625 63.9932 555.149 68.9736C561.674 73.9541 570.489 76.4443 581.546 76.4443C592.603 76.4443 601.418 73.9541 607.942 68.9736ZM581.546 64.1924C576.665 64.1924 572.681 62.8477 569.543 60.1582C566.405 57.5186 564.812 53.9326 564.812 49.5C564.812 45.0176 566.405 41.4316 569.543 38.7422C572.681 36.0527 576.665 34.708 581.546 34.708C586.477 34.708 590.461 36.0527 593.599 38.7422C596.687 41.4316 598.23 45.0176 598.23 49.5C598.23 53.9824 596.687 57.5684 593.599 60.208C590.461 62.8477 586.477 64.1924 581.546 64.1924ZM660.237 75C658.544 69.6709 657.697 63.1465 657.697 55.4268V31.8691H672.39V24H657.598C652.667 23.9502 648.633 23.4521 645.495 22.5059C642.357 21.5596 640.764 20.1152 640.764 18.1729C640.764 14.7861 644.549 12.8936 651.272 12.8936C656.751 12.8936 662.08 14.2881 667.26 17.0771V4.12793C662.628 2.7832 658.893 1.83691 656.054 1.28906C653.215 0.791016 650.077 0.541992 646.69 0.541992C640.863 0.541992 636.132 1.58789 632.446 3.67969C628.711 5.82129 626.868 8.75977 626.868 12.4951C626.868 19.667 633.293 22.4561 638.921 22.8545V24H621.589V31.8691H636.879V55.4268C636.879 63.0469 636.082 69.5713 634.438 75H660.237ZM737.285 76.4443C740.323 76.4443 743.511 76.1455 746.848 75.498C750.135 74.8008 752.824 73.9541 754.916 72.8584V57.7676C752.476 60.1084 747.844 61.6523 743.312 61.6523C736.588 61.6523 732.105 58.3154 732.105 51.542V31.8691H753.82V24H732.105V4.22754L711.885 8.61035V24H700.081V31.8691H711.885V58.0664C711.885 71.8623 723.19 76.4443 737.285 76.4443ZM785.247 76.4443C791.074 76.4443 796.055 75.498 800.238 73.6055C804.372 71.7627 807.261 69.2725 808.904 66.2344H810.05V67.2305C810.05 70.5674 809.452 73.1572 808.207 75H832.711C831.067 70.5674 830.271 64.1426 830.271 55.8252V43.9717C830.271 37.7461 827.73 32.7158 823.597 29.4785C817.072 24.5977 807.012 22.5059 795.059 22.5557C790.327 22.5557 785.396 22.9043 780.366 23.6514C775.336 24.3984 771.003 25.2949 767.417 26.4404V39.29C770.206 37.5967 773.692 36.252 777.926 35.3057C782.109 34.3594 786.442 33.9111 790.975 33.9111C802.978 33.9111 810.05 37.7959 810.05 46.2129V52.3389H808.805C807.111 49.3506 804.223 46.96 800.089 45.1172C795.955 43.2744 790.975 42.3779 785.247 42.3779C777.129 42.3779 770.854 43.9219 766.421 47.0098C761.988 50.1475 759.747 54.2812 759.747 59.4111C759.747 64.541 761.988 68.625 766.421 71.7627C770.854 74.9004 777.129 76.4443 785.247 76.4443ZM794.361 66.0352C785.247 66.0352 779.868 63.2461 779.868 58.8633C779.868 54.5303 785.197 51.8408 794.361 51.8408C798.445 51.8408 801.981 52.4883 804.92 53.833C807.858 55.1777 809.353 56.8213 809.353 58.8633C809.353 63.4951 802.33 66.0352 794.361 66.0352ZM869.417 75C867.773 69.5713 866.977 62.9473 866.977 55.2275V23.4023C866.977 15.5332 867.773 8.90918 869.417 3.58008H843.718C845.361 8.90918 846.158 15.5332 846.158 23.4023V55.2275C846.158 62.9473 845.361 69.5713 843.718 75H869.417ZM945.718 76.5439C948.407 76.5439 950.947 76.0459 953.338 74.9502C955.729 73.9043 957.472 72.6094 958.567 71.0156L958.269 53.0859C956.127 57.3193 951.943 60.208 945.519 60.208C942.381 60.208 939.791 58.8633 937.998 57.2197C935.408 54.8291 932.669 51.7412 927.539 51.542V50.3965H928.685C936.404 50.3965 942.58 49.1514 947.162 46.6113C951.694 44.1211 953.985 40.6846 953.985 36.3516C953.985 27.5361 947.112 22.5557 932.968 22.5557C926.344 22.6553 920.766 24.0996 916.184 26.8887C911.602 29.7275 908.265 33.4629 906.223 38.1943H905.326V23.4023C905.326 15.334 906.123 8.70996 907.667 3.58008H881.968C883.611 8.90918 884.408 15.5332 884.408 23.4023V55.2275C884.408 62.9473 883.611 69.5713 881.968 75H907.667C906.123 69.9199 905.326 64.4414 905.326 58.5645V54.2812C906.87 53.8828 908.962 53.6836 911.651 53.6836C919.819 53.6836 923.754 57.917 926.443 62.6982C928.386 65.9355 930.328 69.2725 932.918 71.9619C935.458 74.6514 939.891 76.5439 945.718 76.5439ZM905.525 47.1592C905.924 43.6729 907.966 40.7344 911.602 38.3438C915.237 36.0029 919.122 34.8076 923.355 34.8076C929.681 34.8076 933.665 36.999 933.665 40.7344C933.665 44.9678 929.481 47.1592 922.758 47.1592H905.525ZM978.29 18.8203C981.826 18.8203 984.665 18.0234 986.856 16.4297C988.998 14.8857 990.094 12.8936 990.094 10.4531C990.094 7.91309 988.998 5.87109 986.856 4.27734C984.665 2.68359 981.826 1.88672 978.29 1.88672C974.804 1.88672 971.965 2.68359 969.823 4.27734C967.632 5.9209 966.536 7.96289 966.536 10.4531C966.536 12.8936 967.632 14.8857 969.823 16.4297C971.965 18.0234 974.804 18.8203 978.29 18.8203ZM991.239 75C989.596 69.7705 988.749 63.1465 988.749 55.2275V34.1104C988.749 29.6777 988.948 26.3408 989.396 24C986.309 25.2949 982.673 25.9424 978.489 25.9424C974.256 25.9424 970.521 25.2949 967.233 24C967.682 26.3408 967.881 29.6777 967.881 34.1104V55.2275C967.881 63.1465 967.034 69.7705 965.391 75H991.239ZM1028.59 75C1026.9 70.5674 1026.05 64.541 1026.05 56.9707V50.3965C1026.05 46.2627 1027.65 42.8262 1030.78 39.9873C1033.92 37.1484 1037.66 35.7539 1041.94 35.7539C1046.12 35.7539 1049.46 36.9492 1051.95 39.3398C1054.39 41.7305 1055.64 44.8682 1055.64 48.8027V56.8213C1055.64 63.4951 1054.84 69.5713 1053.2 75H1079C1077.3 69.6709 1076.46 63.2959 1076.46 55.9248V45.7148C1076.46 38.5928 1074.21 32.915 1069.78 28.7812C1065.3 24.6475 1058.92 22.5557 1050.71 22.5557C1045.28 22.5557 1040.45 23.8008 1036.21 26.3408C1031.98 28.8809 1028.99 32.6162 1027.15 37.4473H1026.05V34.8076C1026.05 30.4248 1026.8 26.8389 1028.29 24H1002.79C1004.44 29.4287 1005.23 35.6543 1005.23 42.5771V57.3691C1005.23 63.6943 1004.44 69.5713 1002.79 75H1028.59ZM1125.01 98.2588C1147.48 98.2588 1167.45 89.792 1167.45 72.7588C1167.45 69.123 1166.3 65.8359 1163.96 62.9473V44.8184C1163.96 36.999 1164.76 30.0264 1166.4 24H1140.4C1142.25 27.3369 1143.19 31.2217 1143.19 35.6045V37.1484H1142.15C1140.11 32.5664 1136.87 28.9805 1132.39 26.3906C1127.85 23.8506 1122.52 22.5557 1116.35 22.5557C1107.58 22.5557 1100.61 25.0459 1095.38 30.0264C1090.15 35.0068 1087.56 41.4814 1087.56 49.5C1087.56 57.5186 1090.2 63.9932 1095.43 68.9736C1100.66 73.9541 1107.63 76.4443 1116.45 76.4443C1122.47 76.4443 1127.65 75.1494 1132.09 72.5596C1136.52 70.0195 1139.81 66.5332 1141.95 62.1504H1142.84C1145.43 64.6406 1146.73 67.3301 1146.73 70.2188C1146.73 75.3984 1144.39 79.3828 1139.71 82.1221C1134.98 84.8613 1128.75 86.2061 1121.03 86.2061C1115.15 86.2061 1109.13 85.459 1102.9 83.915C1096.68 82.3711 1091.84 80.3789 1088.51 77.9385L1088.41 93.7764C1092.69 95.1211 1098.27 96.2168 1105.09 97.0635C1111.92 97.8604 1118.59 98.2588 1125.01 98.2588ZM1125.01 62.8477C1119.69 62.8477 1115.4 61.6025 1112.12 59.1621C1108.83 56.7217 1107.18 53.4844 1107.18 49.5C1107.18 45.5156 1108.83 42.2783 1112.12 39.8379C1115.4 37.3975 1119.69 36.1523 1125.01 36.1523C1130.14 36.1523 1134.33 37.3975 1137.62 39.8877C1140.9 42.4277 1142.55 45.6152 1142.55 49.5C1142.55 53.2354 1140.9 56.373 1137.57 58.9629C1134.23 61.5527 1130.04 62.8477 1125.01 62.8477ZM1185.23 88.9951C1188.42 87.1523 1191.16 84.4629 1193.5 80.877C1195.79 77.2412 1196.93 73.4062 1196.93 69.2725C1196.93 65.9854 1195.99 63.3955 1194.14 61.5029C1192.25 59.6104 1189.86 58.6641 1186.97 58.6641C1184.23 58.6641 1181.94 59.4609 1180.15 61.0547C1178.36 62.6982 1177.46 64.79 1177.46 67.3301C1177.46 69.8203 1178.26 71.8623 1179.85 73.4062C1181.39 75 1183.34 75.7969 1185.63 75.7969C1186.17 75.7969 1186.87 75.6475 1187.67 75.3984C1187.37 76.5439 1186.47 77.9385 1184.93 79.582C1183.39 81.1758 1181.64 82.5205 1179.8 83.5664L1185.23 88.9951Z" fill="#FBFFFE"/>
<path d="M1311.08 76.5439C1314.02 76.5439 1316.81 75.9961 1319.45 74.8008C1322.09 73.6553 1323.98 72.2109 1325.23 70.418L1324.73 46.7607C1322.19 52.5879 1317.71 55.5264 1311.38 55.5264C1307.35 55.5264 1304.16 53.4844 1301.77 50.9443C1300.58 49.6992 1299.33 48.4043 1297.99 47.1592C1295.3 44.6191 1290.67 42.5771 1284.64 42.5771H1284.04V41.6309H1289.02C1298.14 41.6309 1305.46 39.8877 1311.08 36.4512C1316.66 33.0146 1319.45 28.2832 1319.45 22.3564C1319.45 16.3301 1316.61 11.6982 1310.89 8.46094C1305.16 5.22363 1297.59 3.58008 1288.12 3.58008H1235.68C1237.32 8.90918 1238.12 16.0811 1238.12 24.9961V53.584C1238.12 62.3994 1237.32 69.5713 1235.68 75H1261.93C1260.28 69.7705 1259.44 62.9473 1259.44 54.5801V47.1592C1261.18 46.7109 1264.47 46.4619 1269.35 46.4619C1280.6 46.4619 1284.69 52.3389 1287.98 59.0127C1289.57 62.3496 1291.11 65.7363 1293.35 68.7246C1296.54 73.207 1301.72 76.5439 1311.08 76.5439ZM1259.44 21.7588H1285.68C1289.42 21.7588 1292.41 22.4062 1294.7 23.751C1296.99 25.0957 1298.14 26.8887 1298.14 29.1797C1298.14 33.9111 1293.11 36.6504 1285.29 36.6504H1259.44V21.7588ZM1409.7 75L1413.38 53.3848C1409.45 55.8252 1403.07 57.0703 1394.21 57.0703H1357.45V45.1172H1385.74C1390.92 45.1172 1394.91 45.3662 1397.65 45.8145V32.7656C1394.71 33.1641 1390.72 33.3633 1385.74 33.3633H1357.45V21.5596H1394.11C1402.33 21.5596 1407.81 22.4062 1410.64 24.0996L1407.56 3.58008H1333.6C1335.29 9.1582 1336.14 16.2803 1336.14 24.9961V53.584C1336.14 62.5986 1335.29 69.7705 1333.6 75H1409.7ZM1466.43 76.4443C1474.94 76.4443 1482.76 75.2988 1489.98 72.958C1497.16 70.6172 1502.88 67.4297 1507.12 63.3955V34.4092H1463.89L1463.34 46.3623C1465.83 45.665 1468.92 45.3164 1472.55 45.3164H1487V52.1396C1484.85 54.082 1481.96 55.5762 1478.43 56.6221C1474.84 57.7178 1471.06 58.2656 1467.02 58.2656C1458.91 58.2656 1452.38 56.5723 1447.55 53.1855C1442.72 49.7988 1440.28 45.2168 1440.28 39.4893C1440.28 33.4629 1442.92 28.7314 1448.25 25.2949C1453.53 21.8584 1460.55 20.1152 1469.36 20.1152C1474.89 20.1152 1480.22 20.6631 1485.4 21.709C1490.58 22.7549 1494.71 24.249 1497.85 26.1416L1498.65 7.06641C1488.59 3.8291 1477.93 2.18555 1466.72 2.18555C1452.93 2.18555 1440.93 5.82129 1432.61 12.1465C1424.24 18.5215 1419.31 28.084 1419.31 39.3896C1419.31 46.96 1421.3 53.5342 1425.29 59.1621C1429.22 64.79 1434.75 69.0732 1441.87 72.0117C1448.94 74.9502 1457.11 76.4443 1466.43 76.4443ZM1544.42 75C1542.78 69.8701 1541.93 62.6982 1541.93 53.584V24.9961C1541.93 16.1807 1542.78 9.05859 1544.42 3.58008H1518.07C1519.77 9.1582 1520.61 16.2803 1520.61 24.9961V53.584C1520.61 62.5986 1519.77 69.7705 1518.07 75H1544.42ZM1597.31 76.4443C1622.31 76.5938 1638.3 68.625 1638.2 54.3809C1638.2 48.2549 1635.26 43.623 1630.58 40.8838C1625.9 38.1445 1619.62 36.252 1612.9 35.3555C1596.17 33.1641 1577.49 33.6621 1577.49 26.3408C1577.49 22.1074 1583.92 20.0156 1596.76 20.0156C1603.09 20.0156 1609.32 20.7129 1615.34 22.1074C1621.37 23.502 1626.45 25.3447 1630.53 27.6855V7.76367C1626.2 6.07031 1620.92 4.72559 1614.59 3.67969C1608.27 2.68359 1602.09 2.18555 1596.07 2.18555C1584.51 2.18555 1574.65 3.92871 1567.28 7.31543C1559.86 10.752 1555.48 16.3799 1555.48 23.502C1555.48 29.6777 1558.46 34.5088 1563.15 37.3477C1567.83 40.1865 1574.05 42.2285 1580.73 43.2246C1597.21 45.9639 1615.94 45.1172 1615.94 52.1396C1615.94 56.4727 1609.56 58.6641 1596.86 58.6641C1580.28 58.6641 1565.59 55.0283 1555.18 47.8564L1554.33 69.3721C1559.76 71.3643 1566.68 73.0576 1575.1 74.4023C1583.47 75.7471 1590.89 76.4443 1597.31 76.4443ZM1695.88 75C1694.13 69.5713 1693.29 62.3994 1693.29 53.584V22.1572H1707.58C1714.65 22.1572 1720.18 22.9043 1724.12 24.3984L1720.23 3.58008H1644.98L1641.09 24.3984C1644.93 22.9043 1650.4 22.1572 1657.63 22.1572H1671.97V53.584C1671.97 62.3994 1671.17 69.5713 1669.53 75H1695.88ZM1808.63 75L1812.32 53.3848C1808.38 55.8252 1802.01 57.0703 1793.14 57.0703H1756.39V45.1172H1784.68C1789.86 45.1172 1793.84 45.3662 1796.58 45.8145V32.7656C1793.64 33.1641 1789.66 33.3633 1784.68 33.3633H1756.39V21.5596H1793.04C1801.26 21.5596 1806.74 22.4062 1809.58 24.0996L1806.49 3.58008H1732.53C1734.23 9.1582 1735.07 16.2803 1735.07 24.9961V53.584C1735.07 62.5986 1734.23 69.7705 1732.53 75H1808.63ZM1898.08 76.5439C1901.02 76.5439 1903.81 75.9961 1906.45 74.8008C1909.09 73.6553 1910.98 72.2109 1912.23 70.418L1911.73 46.7607C1909.19 52.5879 1904.71 55.5264 1898.38 55.5264C1894.35 55.5264 1891.16 53.4844 1888.77 50.9443C1887.57 49.6992 1886.33 48.4043 1884.98 47.1592C1882.29 44.6191 1877.66 42.5771 1871.64 42.5771H1871.04V41.6309H1876.02C1885.13 41.6309 1892.46 39.8877 1898.08 36.4512C1903.66 33.0146 1906.45 28.2832 1906.45 22.3564C1906.45 16.3301 1903.61 11.6982 1897.88 8.46094C1892.16 5.22363 1884.59 3.58008 1875.12 3.58008H1822.68C1824.32 8.90918 1825.12 16.0811 1825.12 24.9961V53.584C1825.12 62.3994 1824.32 69.5713 1822.68 75H1848.93C1847.28 69.7705 1846.44 62.9473 1846.44 54.5801V47.1592C1848.18 46.7109 1851.47 46.4619 1856.35 46.4619C1867.6 46.4619 1871.69 52.3389 1874.97 59.0127C1876.57 62.3496 1878.11 65.7363 1880.35 68.7246C1883.54 73.207 1888.72 76.5439 1898.08 76.5439ZM1846.44 21.7588H1872.68C1876.42 21.7588 1879.41 22.4062 1881.7 23.751C1883.99 25.0957 1885.13 26.8887 1885.13 29.1797C1885.13 33.9111 1880.1 36.6504 1872.28 36.6504H1846.44V21.7588ZM1974.33 75C1973.69 72.6592 1973.09 69.2227 1972.59 64.6904C1972.09 60.1582 1971.84 55.9248 1971.84 51.9404V29.0801H1973.19L2016.97 75H2036.44V24.9961C2036.44 16.4297 2037.24 9.30762 2038.88 3.58008H2012.68C2013.33 5.72168 2013.93 8.80957 2014.43 12.7441C2014.88 16.7285 2015.12 20.6631 2015.12 24.5977V47.3584H2013.68L1972.59 3.67969L1947.99 3.58008C1949.68 8.80957 1950.53 15.9814 1950.53 24.9961V53.584C1950.53 62.2998 1949.68 69.4219 1947.99 75H1974.33ZM2095.21 76.4443C2108.51 76.4443 2119.96 72.958 2128.18 66.7324C2136.35 60.5566 2141.23 50.8945 2141.23 39.29C2141.23 27.6855 2136.35 18.0234 2128.18 11.7979C2119.96 5.62207 2108.51 2.18555 2095.21 2.18555C2086.34 2.18555 2078.48 3.62988 2071.65 6.46875C2064.78 9.30762 2059.35 13.5908 2055.37 19.2188C2051.33 24.8965 2049.34 31.5703 2049.34 39.29C2049.34 50.8945 2054.22 60.5566 2062.39 66.7324C2070.56 72.958 2082.01 76.4443 2095.21 76.4443ZM2095.21 59.8096C2088.09 59.8096 2082.26 57.9668 2077.73 54.2812C2073.2 50.5957 2070.96 45.6152 2070.96 39.29C2070.96 32.9648 2073.2 27.9844 2077.73 24.2988C2082.26 20.6631 2088.09 18.8203 2095.21 18.8203C2102.43 18.8203 2108.31 20.6631 2112.84 24.2988C2117.37 27.9844 2119.61 32.9648 2119.61 39.29C2119.61 45.6152 2117.37 50.5957 2112.84 54.2812C2108.31 57.9668 2102.43 59.8096 2095.21 59.8096ZM2193.08 75L2208.37 27.3867H2209.41L2224.7 75H2251.75C2252.29 68.6748 2253.99 61.2041 2256.83 52.6377L2266.74 24.9961C2269.78 15.8818 2272.81 8.75977 2275.9 3.58008H2249.06C2248.81 7.56445 2248.01 11.9971 2246.62 16.8779L2237.35 41.8301C2235.71 47.1592 2234.66 50.8945 2234.17 53.0859H2233.27L2217.03 3.58008H2200.75L2184.51 53.0859H2183.61C2182.72 49.5498 2181.62 45.8145 2180.33 41.8301L2171.16 16.8779C2169.72 12.2461 2168.97 7.81348 2168.82 3.58008H2141.88C2144.96 8.75977 2148 15.8818 2151.04 24.9961L2160.95 52.6377C2163.79 61.0547 2165.48 68.5254 2166.13 75H2193.08ZM2299.21 51.8408L2302.05 3.58008H2281.03L2284.22 51.8408H2299.21ZM2299.16 73.8047C2301.1 72.1113 2302.05 69.8701 2302.05 67.1309C2302.05 64.3916 2301.1 62.1504 2299.16 60.4072C2297.22 58.7139 2294.68 57.8672 2291.54 57.8672C2288.4 57.8672 2285.86 58.7139 2283.92 60.4072C2281.98 62.1504 2281.03 64.3916 2281.03 67.1309C2281.03 69.8701 2281.98 72.1113 2283.92 73.8047C2285.86 75.498 2288.4 76.3447 2291.54 76.3447C2294.68 76.3447 2297.22 75.498 2299.16 73.8047ZM2330.89 51.8408L2333.72 3.58008H2312.71L2315.89 51.8408H2330.89ZM2330.84 73.8047C2332.78 72.1113 2333.72 69.8701 2333.72 67.1309C2333.72 64.3916 2332.78 62.1504 2330.84 60.4072C2328.89 58.7139 2326.35 57.8672 2323.22 57.8672C2320.08 57.8672 2317.54 58.7139 2315.6 60.4072C2313.65 62.1504 2312.71 64.3916 2312.71 67.1309C2312.71 69.8701 2313.65 72.1113 2315.6 73.8047C2317.54 75.498 2320.08 76.3447 2323.22 76.3447C2326.35 76.3447 2328.89 75.498 2330.84 73.8047Z" fill="#F05127"/>
<path d="M2362.56 51.8408L2365.4 3.58008H2344.38L2347.57 51.8408H2362.56ZM2362.51 73.8047C2364.45 72.1113 2365.4 69.8701 2365.4 67.1309C2365.4 64.3916 2364.45 62.1504 2362.51 60.4072C2360.57 58.7139 2358.03 57.8672 2354.89 57.8672C2351.75 57.8672 2349.21 58.7139 2347.27 60.4072C2345.33 62.1504 2344.38 64.3916 2344.38 67.1309C2344.38 69.8701 2345.33 72.1113 2347.27 73.8047C2349.21 75.498 2351.75 76.3447 2354.89 76.3447C2358.03 76.3447 2360.57 75.498 2362.51 73.8047ZM2394.24 51.8408L2397.08 3.58008H2376.06L2379.25 51.8408H2394.24ZM2394.19 73.8047C2396.13 72.1113 2397.08 69.8701 2397.08 67.1309C2397.08 64.3916 2396.13 62.1504 2394.19 60.4072C2392.25 58.7139 2389.71 57.8672 2386.57 57.8672C2383.43 57.8672 2380.89 58.7139 2378.95 60.4072C2377 62.1504 2376.06 64.3916 2376.06 67.1309C2376.06 69.8701 2377 72.1113 2378.95 73.8047C2380.89 75.498 2383.43 76.3447 2386.57 76.3447C2389.71 76.3447 2392.25 75.498 2394.19 73.8047ZM2425.91 51.8408L2428.75 3.58008H2407.73L2410.92 51.8408H2425.91ZM2425.86 73.8047C2427.81 72.1113 2428.75 69.8701 2428.75 67.1309C2428.75 64.3916 2427.81 62.1504 2425.86 60.4072C2423.92 58.7139 2421.38 57.8672 2418.24 57.8672C2415.11 57.8672 2412.57 58.7139 2410.62 60.4072C2408.68 62.1504 2407.73 64.3916 2407.73 67.1309C2407.73 69.8701 2408.68 72.1113 2410.62 73.8047C2412.57 75.498 2415.11 76.3447 2418.24 76.3447C2421.38 76.3447 2423.92 75.498 2425.86 73.8047ZM2457.59 51.8408L2460.43 3.58008H2439.41L2442.6 51.8408H2457.59ZM2457.54 73.8047C2459.48 72.1113 2460.43 69.8701 2460.43 67.1309C2460.43 64.3916 2459.48 62.1504 2457.54 60.4072C2455.6 58.7139 2453.06 57.8672 2449.92 57.8672C2446.78 57.8672 2444.24 58.7139 2442.3 60.4072C2440.36 62.1504 2439.41 64.3916 2439.41 67.1309C2439.41 69.8701 2440.36 72.1113 2442.3 73.8047C2444.24 75.498 2446.78 76.3447 2449.92 76.3447C2453.06 76.3447 2455.6 75.498 2457.54 73.8047Z" fill="black"/>
</svg>
