<svg width="2334" height="99" viewBox="0 0 2334 99" fill="none" xmlns="http://www.w3.org/2000/svg">
<path d="M77.0244 75.1204L80.71 53.5051C76.7754 55.9456 70.4004 57.1907 61.5352 57.1907H24.7793V45.2375H53.0684C58.248 45.2375 62.2324 45.4866 64.9717 45.9348V32.886C62.0332 33.2844 58.0488 33.4836 53.0684 33.4836H24.7793V21.6799H61.4355C69.6533 21.6799 75.1318 22.5266 77.9707 24.22L74.8828 3.70044H0.922852C2.61621 9.27856 3.46289 16.4006 3.46289 25.1165V53.7043C3.46289 62.719 2.61621 69.8909 0.922852 75.1204H77.0244ZM116.071 75.1204C114.378 70.6877 113.531 64.6614 113.531 57.0911V50.5168C113.531 46.3831 115.125 42.9465 118.263 40.1077C121.4 37.2688 125.136 35.8743 129.419 35.8743C133.603 35.8743 136.939 37.0696 139.43 39.4602C141.87 41.8508 143.115 44.9885 143.115 48.9231V56.9417C143.115 63.6155 142.318 69.6917 140.675 75.1204H166.474C164.78 69.7913 163.934 63.4163 163.934 56.0452V45.8352C163.934 38.7131 161.692 33.0354 157.26 28.9016C152.777 24.7678 146.402 22.676 138.185 22.676C132.756 22.676 127.925 23.9211 123.691 26.4612C119.458 29.0012 116.47 32.7366 114.627 37.5676H113.531V34.928C113.531 30.5452 114.278 26.9592 115.772 24.1204H90.2725C91.916 29.5491 92.7129 35.7747 92.7129 42.6975V57.4895C92.7129 63.8147 91.916 69.6917 90.2725 75.1204H116.071ZM237.993 69.094C244.518 64.1135 247.805 57.6389 247.805 49.6204C247.805 41.6018 244.518 35.1272 237.993 30.1467C231.469 25.1663 222.653 22.676 211.597 22.676C200.54 22.676 191.725 25.1663 185.2 30.1467C178.676 35.1272 175.389 41.6018 175.389 49.6204C175.389 57.6389 178.676 64.1135 185.2 69.094C191.725 74.0745 200.54 76.5647 211.597 76.5647C222.653 76.5647 231.469 74.0745 237.993 69.094ZM211.597 64.3127C206.716 64.3127 202.731 62.968 199.594 60.2786C196.456 57.6389 194.862 54.053 194.862 49.6204C194.862 45.1379 196.456 41.552 199.594 38.8625C202.731 36.1731 206.716 34.8284 211.597 34.8284C216.527 34.8284 220.512 36.1731 223.649 38.8625C226.737 41.552 228.281 45.1379 228.281 49.6204C228.281 54.1028 226.737 57.6887 223.649 60.3284C220.512 62.968 216.527 64.3127 211.597 64.3127ZM284.66 76.5647C290.139 76.5647 294.97 75.3196 299.203 72.7297C303.387 70.1897 306.375 66.5042 308.218 61.6731H309.313V64.2131C309.313 68.5461 308.616 72.1819 307.172 75.1204H332.672C331.028 69.6917 330.231 63.4661 330.231 56.5432V41.6516C330.231 35.3264 331.028 29.4495 332.672 24.1204H306.873C308.517 28.304 309.313 34.2805 309.313 42.05V48.7239C309.313 52.8577 307.77 56.2942 304.632 59.1331C301.494 61.9719 297.759 63.3665 293.525 63.3665C289.342 63.3665 286.005 62.1711 283.564 59.7805C281.124 57.3899 279.879 54.2522 279.879 50.3176V42.1497C279.879 35.4758 280.676 29.4495 282.319 24.1204H256.62C258.264 29.4495 259.061 35.7747 259.061 43.0959V53.4055C259.061 60.5276 261.302 66.2053 265.734 70.3391C270.167 74.4729 276.442 76.5647 284.66 76.5647ZM378.741 98.3792C401.203 98.3792 421.175 89.9124 421.175 72.8792C421.175 69.2434 420.029 65.9563 417.688 63.0676V44.9387C417.688 37.1194 418.485 30.1467 420.129 24.1204H394.131C395.974 27.4573 396.92 31.342 396.92 35.7249V37.2688H395.874C393.832 32.6868 390.595 29.1008 386.112 26.511C381.58 23.9709 376.251 22.676 370.075 22.676C361.31 22.676 354.337 25.1663 349.107 30.1467C343.878 35.1272 341.288 41.6018 341.288 49.6204C341.288 57.6389 343.928 64.1135 349.157 69.094C354.387 74.0745 361.359 76.5647 370.175 76.5647C376.201 76.5647 381.381 75.2698 385.813 72.6799C390.246 70.1399 393.533 66.6536 395.675 62.2708H396.571C399.161 64.761 400.456 67.4504 400.456 70.3391C400.456 75.5188 398.115 79.5032 393.434 82.2424C388.702 84.9817 382.477 86.3264 374.757 86.3264C368.88 86.3264 362.854 85.5793 356.628 84.0354C350.402 82.4915 345.571 80.4993 342.234 78.0588L342.135 93.8967C346.418 95.2415 351.996 96.3372 358.819 97.1838C365.643 97.9807 372.316 98.3792 378.741 98.3792ZM378.741 62.968C373.412 62.968 369.129 61.7229 365.842 59.2825C362.555 56.842 360.911 53.6047 360.911 49.6204C360.911 45.636 362.555 42.3987 365.842 39.9583C369.129 37.5178 373.412 36.2727 378.741 36.2727C383.871 36.2727 388.055 37.5178 391.342 40.0081C394.629 42.5481 396.272 45.7356 396.272 49.6204C396.272 53.3557 394.629 56.4934 391.292 59.0833C387.955 61.6731 383.771 62.968 378.741 62.968ZM458.528 75.1204C456.885 70.8372 456.088 64.8108 456.088 57.0911L455.988 50.5168C455.988 46.4329 457.582 42.9465 460.77 40.1077C463.957 37.2688 467.643 35.8743 471.876 35.8743C476.06 35.8743 479.396 37.0696 481.887 39.4602C484.327 41.8508 485.572 44.9885 485.572 48.9231V56.9417C485.572 63.6155 484.775 69.6917 483.132 75.1204H508.931C507.237 69.7913 506.391 63.4163 506.391 56.0452V45.8352C506.391 38.7131 504.199 33.0354 499.767 28.9016C495.334 24.7678 489.009 22.676 480.791 22.676C475.263 22.676 470.432 23.9211 466.198 26.4612C461.965 29.0012 458.977 32.7366 457.184 37.5676H456.088V23.5227C456.088 15.7532 456.885 9.12915 458.528 3.70044H432.729C434.373 8.83032 435.17 15.4045 435.17 23.5227V55.3479C435.17 63.4163 434.373 69.9905 432.729 75.1204H458.528ZM607.942 69.094C614.467 64.1135 617.754 57.6389 617.754 49.6204C617.754 41.6018 614.467 35.1272 607.942 30.1467C601.418 25.1663 592.603 22.676 581.546 22.676C570.489 22.676 561.674 25.1663 555.149 30.1467C548.625 35.1272 545.338 41.6018 545.338 49.6204C545.338 57.6389 548.625 64.1135 555.149 69.094C561.674 74.0745 570.489 76.5647 581.546 76.5647C592.603 76.5647 601.418 74.0745 607.942 69.094ZM581.546 64.3127C576.665 64.3127 572.681 62.968 569.543 60.2786C566.405 57.6389 564.812 54.053 564.812 49.6204C564.812 45.1379 566.405 41.552 569.543 38.8625C572.681 36.1731 576.665 34.8284 581.546 34.8284C586.477 34.8284 590.461 36.1731 593.599 38.8625C596.687 41.552 598.23 45.1379 598.23 49.6204C598.23 54.1028 596.687 57.6887 593.599 60.3284C590.461 62.968 586.477 64.3127 581.546 64.3127ZM660.237 75.1204C658.544 69.7913 657.697 63.2668 657.697 55.5471V31.9895H672.39V24.1204H657.598C652.667 24.0706 648.633 23.5725 645.495 22.6262C642.357 21.6799 640.764 20.2356 640.764 18.2932C640.764 14.9065 644.549 13.0139 651.272 13.0139C656.751 13.0139 662.08 14.4084 667.26 17.1975V4.24829C662.628 2.90356 658.893 1.95728 656.054 1.40942C653.215 0.911377 650.077 0.662354 646.69 0.662354C640.863 0.662354 636.132 1.70825 632.446 3.80005C628.711 5.94165 626.868 8.88013 626.868 12.6155C626.868 19.7874 633.293 22.5764 638.921 22.9749V24.1204H621.589V31.9895H636.879V55.5471C636.879 63.1672 636.082 69.6917 634.438 75.1204H660.237ZM737.285 76.5647C740.323 76.5647 743.511 76.2659 746.848 75.6184C750.135 74.9211 752.824 74.0745 754.916 72.9788V57.8879C752.476 60.2288 747.844 61.7727 743.312 61.7727C736.588 61.7727 732.105 58.4358 732.105 51.6624V31.9895H753.82V24.1204H732.105V4.3479L711.885 8.73071V24.1204H700.081V31.9895H711.885V58.1868C711.885 71.9827 723.19 76.5647 737.285 76.5647ZM785.247 76.5647C791.074 76.5647 796.055 75.6184 800.238 73.7258C804.372 71.8831 807.261 69.3928 808.904 66.3547H810.05V67.3508C810.05 70.6877 809.452 73.2776 808.207 75.1204H832.711C831.067 70.6877 830.271 64.2629 830.271 55.9456V44.092C830.271 37.8665 827.73 32.8362 823.597 29.5989C817.072 24.718 807.012 22.6262 795.059 22.676C790.327 22.676 785.396 23.0247 780.366 23.7717C775.336 24.5188 771.003 25.4153 767.417 26.5608V39.4104C770.206 37.717 773.692 36.3723 777.926 35.426C782.109 34.4797 786.442 34.0315 790.975 34.0315C802.978 34.0315 810.05 37.9163 810.05 46.3333V52.4592H808.805C807.111 49.4709 804.223 47.0803 800.089 45.2375C795.955 43.3948 790.975 42.4983 785.247 42.4983C777.129 42.4983 770.854 44.0422 766.421 47.1301C761.988 50.2678 759.747 54.4016 759.747 59.5315C759.747 64.6614 761.988 68.7454 766.421 71.8831C770.854 75.0208 777.129 76.5647 785.247 76.5647ZM794.361 66.1555C785.247 66.1555 779.868 63.3665 779.868 58.9836C779.868 54.6506 785.197 51.9612 794.361 51.9612C798.445 51.9612 801.981 52.6086 804.92 53.9534C807.858 55.2981 809.353 56.9417 809.353 58.9836C809.353 63.6155 802.33 66.1555 794.361 66.1555ZM869.417 75.1204C867.773 69.6917 866.977 63.0676 866.977 55.3479V23.5227C866.977 15.6536 867.773 9.02954 869.417 3.70044H843.718C845.361 9.02954 846.158 15.6536 846.158 23.5227V55.3479C846.158 63.0676 845.361 69.6917 843.718 75.1204H869.417ZM945.718 76.6643C948.407 76.6643 950.947 76.1663 953.338 75.0706C955.729 74.0247 957.472 72.7297 958.567 71.136L958.269 53.2063C956.127 57.4397 951.943 60.3284 945.519 60.3284C942.381 60.3284 939.791 58.9836 937.998 57.3401C935.408 54.9495 932.669 51.8616 927.539 51.6624V50.5168H928.685C936.404 50.5168 942.58 49.2717 947.162 46.7317C951.694 44.2415 953.985 40.8049 953.985 36.4719C953.985 27.6565 947.112 22.676 932.968 22.676C926.344 22.7756 920.766 24.22 916.184 27.009C911.602 29.8479 908.265 33.5833 906.223 38.3147H905.326V23.5227C905.326 15.4543 906.123 8.83032 907.667 3.70044H881.968C883.611 9.02954 884.408 15.6536 884.408 23.5227V55.3479C884.408 63.0676 883.611 69.6917 881.968 75.1204H907.667C906.123 70.0403 905.326 64.5618 905.326 58.6848V54.4016C906.87 54.0032 908.962 53.804 911.651 53.804C919.819 53.804 923.754 58.0374 926.443 62.8186C928.386 66.0559 930.328 69.3928 932.918 72.0823C935.458 74.7717 939.891 76.6643 945.718 76.6643ZM905.525 47.2795C905.924 43.7932 907.966 40.8547 911.602 38.4641C915.237 36.1233 919.122 34.928 923.355 34.928C929.681 34.928 933.665 37.1194 933.665 40.8547C933.665 45.0881 929.481 47.2795 922.758 47.2795H905.525ZM978.29 18.9407C981.826 18.9407 984.665 18.1438 986.856 16.55C988.998 15.0061 990.094 13.0139 990.094 10.5735C990.094 8.03345 988.998 5.99146 986.856 4.39771C984.665 2.80396 981.826 2.00708 978.29 2.00708C974.804 2.00708 971.965 2.80396 969.823 4.39771C967.632 6.04126 966.536 8.08325 966.536 10.5735C966.536 13.0139 967.632 15.0061 969.823 16.55C971.965 18.1438 974.804 18.9407 978.29 18.9407ZM991.239 75.1204C989.596 69.8909 988.749 63.2668 988.749 55.3479V34.2307C988.749 29.7981 988.948 26.4612 989.396 24.1204C986.309 25.4153 982.673 26.0627 978.489 26.0627C974.256 26.0627 970.521 25.4153 967.233 24.1204C967.682 26.4612 967.881 29.7981 967.881 34.2307V55.3479C967.881 63.2668 967.034 69.8909 965.391 75.1204H991.239ZM1028.59 75.1204C1026.9 70.6877 1026.05 64.6614 1026.05 57.0911V50.5168C1026.05 46.3831 1027.65 42.9465 1030.78 40.1077C1033.92 37.2688 1037.66 35.8743 1041.94 35.8743C1046.12 35.8743 1049.46 37.0696 1051.95 39.4602C1054.39 41.8508 1055.64 44.9885 1055.64 48.9231V56.9417C1055.64 63.6155 1054.84 69.6917 1053.2 75.1204H1079C1077.3 69.7913 1076.46 63.4163 1076.46 56.0452V45.8352C1076.46 38.7131 1074.21 33.0354 1069.78 28.9016C1065.3 24.7678 1058.92 22.676 1050.71 22.676C1045.28 22.676 1040.45 23.9211 1036.21 26.4612C1031.98 29.0012 1028.99 32.7366 1027.15 37.5676H1026.05V34.928C1026.05 30.5452 1026.8 26.9592 1028.29 24.1204H1002.79C1004.44 29.5491 1005.23 35.7747 1005.23 42.6975V57.4895C1005.23 63.8147 1004.44 69.6917 1002.79 75.1204H1028.59ZM1125.01 98.3792C1147.48 98.3792 1167.45 89.9124 1167.45 72.8792C1167.45 69.2434 1166.3 65.9563 1163.96 63.0676V44.9387C1163.96 37.1194 1164.76 30.1467 1166.4 24.1204H1140.4C1142.25 27.4573 1143.19 31.342 1143.19 35.7249V37.2688H1142.15C1140.11 32.6868 1136.87 29.1008 1132.39 26.511C1127.85 23.9709 1122.52 22.676 1116.35 22.676C1107.58 22.676 1100.61 25.1663 1095.38 30.1467C1090.15 35.1272 1087.56 41.6018 1087.56 49.6204C1087.56 57.6389 1090.2 64.1135 1095.43 69.094C1100.66 74.0745 1107.63 76.5647 1116.45 76.5647C1122.47 76.5647 1127.65 75.2698 1132.09 72.6799C1136.52 70.1399 1139.81 66.6536 1141.95 62.2708H1142.84C1145.43 64.761 1146.73 67.4504 1146.73 70.3391C1146.73 75.5188 1144.39 79.5032 1139.71 82.2424C1134.98 84.9817 1128.75 86.3264 1121.03 86.3264C1115.15 86.3264 1109.13 85.5793 1102.9 84.0354C1096.68 82.4915 1091.84 80.4993 1088.51 78.0588L1088.41 93.8967C1092.69 95.2415 1098.27 96.3372 1105.09 97.1838C1111.92 97.9807 1118.59 98.3792 1125.01 98.3792ZM1125.01 62.968C1119.69 62.968 1115.4 61.7229 1112.12 59.2825C1108.83 56.842 1107.18 53.6047 1107.18 49.6204C1107.18 45.636 1108.83 42.3987 1112.12 39.9583C1115.4 37.5178 1119.69 36.2727 1125.01 36.2727C1130.14 36.2727 1134.33 37.5178 1137.62 40.0081C1140.9 42.5481 1142.55 45.7356 1142.55 49.6204C1142.55 53.3557 1140.9 56.4934 1137.57 59.0833C1134.23 61.6731 1130.04 62.968 1125.01 62.968ZM1185.23 89.1155C1188.42 87.2727 1191.16 84.5833 1193.5 80.9973C1195.79 77.3616 1196.93 73.5266 1196.93 69.3928C1196.93 66.1057 1195.99 63.5159 1194.14 61.6233C1192.25 59.7307 1189.86 58.7844 1186.97 58.7844C1184.23 58.7844 1181.94 59.5813 1180.15 61.175C1178.36 62.8186 1177.46 64.9104 1177.46 67.4504C1177.46 69.9407 1178.26 71.9827 1179.85 73.5266C1181.39 75.1204 1183.34 75.9172 1185.63 75.9172C1186.17 75.9172 1186.87 75.7678 1187.67 75.5188C1187.37 76.6643 1186.47 78.0588 1184.93 79.7024C1183.39 81.2961 1181.64 82.6409 1179.8 83.6868L1185.23 89.1155Z" fill="#FBFFFE"/>
<path d="M1311.08 76.6643C1314.02 76.6643 1316.81 76.1165 1319.45 74.9211C1322.09 73.7756 1323.98 72.3313 1325.23 70.5383L1324.73 46.8811C1322.19 52.7083 1317.71 55.6467 1311.38 55.6467C1307.35 55.6467 1304.16 53.6047 1301.77 51.0647C1300.58 49.8196 1299.33 48.5247 1297.99 47.2795C1295.3 44.7395 1290.67 42.6975 1284.64 42.6975H1284.04V41.7512H1289.02C1298.14 41.7512 1305.46 40.0081 1311.08 36.5715C1316.66 33.135 1319.45 28.4036 1319.45 22.4768C1319.45 16.4504 1316.61 11.8186 1310.89 8.5813C1305.16 5.34399 1297.59 3.70044 1288.12 3.70044H1235.68C1237.32 9.02954 1238.12 16.2014 1238.12 25.1165V53.7043C1238.12 62.5198 1237.32 69.6917 1235.68 75.1204H1261.93C1260.28 69.8909 1259.44 63.0676 1259.44 54.7004V47.2795C1261.18 46.8313 1264.47 46.5823 1269.35 46.5823C1280.6 46.5823 1284.69 52.4592 1287.98 59.1331C1289.57 62.47 1291.11 65.8567 1293.35 68.845C1296.54 73.3274 1301.72 76.6643 1311.08 76.6643ZM1259.44 21.8792H1285.68C1289.42 21.8792 1292.41 22.5266 1294.7 23.8713C1296.99 25.2161 1298.14 27.009 1298.14 29.3C1298.14 34.0315 1293.11 36.7708 1285.29 36.7708H1259.44V21.8792ZM1409.7 75.1204L1413.38 53.5051C1409.45 55.9456 1403.07 57.1907 1394.21 57.1907H1357.45V45.2375H1385.74C1390.92 45.2375 1394.91 45.4866 1397.65 45.9348V32.886C1394.71 33.2844 1390.72 33.4836 1385.74 33.4836H1357.45V21.6799H1394.11C1402.33 21.6799 1407.81 22.5266 1410.64 24.22L1407.56 3.70044H1333.6C1335.29 9.27856 1336.14 16.4006 1336.14 25.1165V53.7043C1336.14 62.719 1335.29 69.8909 1333.6 75.1204H1409.7ZM1466.43 76.5647C1474.94 76.5647 1482.76 75.4192 1489.98 73.0784C1497.16 70.7375 1502.88 67.55 1507.12 63.5159V34.5295H1463.89L1463.34 46.4827C1465.83 45.7854 1468.92 45.4368 1472.55 45.4368H1487V52.26C1484.85 54.2024 1481.96 55.6965 1478.43 56.7424C1474.84 57.8381 1471.06 58.386 1467.02 58.386C1458.91 58.386 1452.38 56.6926 1447.55 53.3059C1442.72 49.9192 1440.28 45.3372 1440.28 39.6096C1440.28 33.5833 1442.92 28.8518 1448.25 25.4153C1453.53 21.9788 1460.55 20.2356 1469.36 20.2356C1474.89 20.2356 1480.22 20.7834 1485.4 21.8293C1490.58 22.8752 1494.71 24.3694 1497.85 26.262L1498.65 7.18677C1488.59 3.94946 1477.93 2.30591 1466.72 2.30591C1452.93 2.30591 1440.93 5.94165 1432.61 12.2668C1424.24 18.6418 1419.31 28.2043 1419.31 39.51C1419.31 47.0803 1421.3 53.6545 1425.29 59.2825C1429.22 64.9104 1434.75 69.1936 1441.87 72.1321C1448.94 75.0706 1457.11 76.5647 1466.43 76.5647ZM1544.42 75.1204C1542.78 69.9905 1541.93 62.8186 1541.93 53.7043V25.1165C1541.93 16.301 1542.78 9.17896 1544.42 3.70044H1518.07C1519.77 9.27856 1520.61 16.4006 1520.61 25.1165V53.7043C1520.61 62.719 1519.77 69.8909 1518.07 75.1204H1544.42ZM1597.31 76.5647C1622.31 76.7141 1638.3 68.7454 1638.2 54.5012C1638.2 48.3752 1635.26 43.7434 1630.58 41.0042C1625.9 38.2649 1619.62 36.3723 1612.9 35.4758C1596.17 33.2844 1577.49 33.7825 1577.49 26.4612C1577.49 22.2278 1583.92 20.136 1596.76 20.136C1603.09 20.136 1609.32 20.8333 1615.34 22.2278C1621.37 23.6223 1626.45 25.4651 1630.53 27.8059V7.88403C1626.2 6.19067 1620.92 4.84595 1614.59 3.80005C1608.27 2.80396 1602.09 2.30591 1596.07 2.30591C1584.51 2.30591 1574.65 4.04907 1567.28 7.43579C1559.86 10.8723 1555.48 16.5002 1555.48 23.6223C1555.48 29.7981 1558.46 34.6292 1563.15 37.468C1567.83 40.3069 1574.05 42.3489 1580.73 43.345C1597.21 46.0842 1615.94 45.2375 1615.94 52.26C1615.94 56.593 1609.56 58.7844 1596.86 58.7844C1580.28 58.7844 1565.59 55.1487 1555.18 47.9768L1554.33 69.4924C1559.76 71.4846 1566.68 73.178 1575.1 74.5227C1583.47 75.8674 1590.89 76.5647 1597.31 76.5647ZM1695.88 75.1204C1694.13 69.6917 1693.29 62.5198 1693.29 53.7043V22.2776H1707.58C1714.65 22.2776 1720.18 23.0247 1724.12 24.5188L1720.23 3.70044H1644.98L1641.09 24.5188C1644.93 23.0247 1650.4 22.2776 1657.63 22.2776H1671.97V53.7043C1671.97 62.5198 1671.17 69.6917 1669.53 75.1204H1695.88ZM1808.63 75.1204L1812.32 53.5051C1808.38 55.9456 1802.01 57.1907 1793.14 57.1907H1756.39V45.2375H1784.68C1789.86 45.2375 1793.84 45.4866 1796.58 45.9348V32.886C1793.64 33.2844 1789.66 33.4836 1784.68 33.4836H1756.39V21.6799H1793.04C1801.26 21.6799 1806.74 22.5266 1809.58 24.22L1806.49 3.70044H1732.53C1734.23 9.27856 1735.07 16.4006 1735.07 25.1165V53.7043C1735.07 62.719 1734.23 69.8909 1732.53 75.1204H1808.63ZM1898.08 76.6643C1901.02 76.6643 1903.81 76.1165 1906.45 74.9211C1909.09 73.7756 1910.98 72.3313 1912.23 70.5383L1911.73 46.8811C1909.19 52.7083 1904.71 55.6467 1898.38 55.6467C1894.35 55.6467 1891.16 53.6047 1888.77 51.0647C1887.57 49.8196 1886.33 48.5247 1884.98 47.2795C1882.29 44.7395 1877.66 42.6975 1871.64 42.6975H1871.04V41.7512H1876.02C1885.13 41.7512 1892.46 40.0081 1898.08 36.5715C1903.66 33.135 1906.45 28.4036 1906.45 22.4768C1906.45 16.4504 1903.61 11.8186 1897.88 8.5813C1892.16 5.34399 1884.59 3.70044 1875.12 3.70044H1822.68C1824.32 9.02954 1825.12 16.2014 1825.12 25.1165V53.7043C1825.12 62.5198 1824.32 69.6917 1822.68 75.1204H1848.93C1847.28 69.8909 1846.44 63.0676 1846.44 54.7004V47.2795C1848.18 46.8313 1851.47 46.5823 1856.35 46.5823C1867.6 46.5823 1871.69 52.4592 1874.97 59.1331C1876.57 62.47 1878.11 65.8567 1880.35 68.845C1883.54 73.3274 1888.72 76.6643 1898.08 76.6643ZM1846.44 21.8792H1872.68C1876.42 21.8792 1879.41 22.5266 1881.7 23.8713C1883.99 25.2161 1885.13 27.009 1885.13 29.3C1885.13 34.0315 1880.1 36.7708 1872.28 36.7708H1846.44V21.8792ZM1974.33 75.1204C1973.69 72.7795 1973.09 69.343 1972.59 64.8108C1972.09 60.2786 1971.84 56.0452 1971.84 52.0608V29.2004H1973.19L2016.97 75.1204H2036.44V25.1165C2036.44 16.55 2037.24 9.42798 2038.88 3.70044H2012.68C2013.33 5.84204 2013.93 8.92993 2014.43 12.8645C2014.88 16.8489 2015.12 20.7834 2015.12 24.718V47.4788H2013.68L1972.59 3.80005L1947.99 3.70044C1949.68 8.92993 1950.53 16.1018 1950.53 25.1165V53.7043C1950.53 62.4202 1949.68 69.5422 1947.99 75.1204H1974.33ZM2095.21 76.5647C2108.51 76.5647 2119.96 73.0784 2128.18 66.8528C2136.35 60.677 2141.23 51.0149 2141.23 39.4104C2141.23 27.8059 2136.35 18.1438 2128.18 11.9182C2119.96 5.74243 2108.51 2.30591 2095.21 2.30591C2086.34 2.30591 2078.48 3.75024 2071.65 6.58911C2064.78 9.42798 2059.35 13.7112 2055.37 19.3391C2051.33 25.0168 2049.34 31.6907 2049.34 39.4104C2049.34 51.0149 2054.22 60.677 2062.39 66.8528C2070.56 73.0784 2082.01 76.5647 2095.21 76.5647ZM2095.21 59.9299C2088.09 59.9299 2082.26 58.0872 2077.73 54.4016C2073.2 50.7161 2070.96 45.7356 2070.96 39.4104C2070.96 33.0852 2073.2 28.1047 2077.73 24.4192C2082.26 20.7834 2088.09 18.9407 2095.21 18.9407C2102.43 18.9407 2108.31 20.7834 2112.84 24.4192C2117.37 28.1047 2119.61 33.0852 2119.61 39.4104C2119.61 45.7356 2117.37 50.7161 2112.84 54.4016C2108.31 58.0872 2102.43 59.9299 2095.21 59.9299ZM2193.08 75.1204L2208.37 27.5071H2209.41L2224.7 75.1204H2251.75C2252.29 68.7952 2253.99 61.3245 2256.83 52.7581L2266.74 25.1165C2269.78 16.0022 2272.81 8.88013 2275.9 3.70044H2249.06C2248.81 7.68481 2248.01 12.1174 2246.62 16.9983L2237.35 41.9504C2235.71 47.2795 2234.66 51.0149 2234.17 53.2063H2233.27L2217.03 3.70044H2200.75L2184.51 53.2063H2183.61C2182.72 49.6702 2181.62 45.9348 2180.33 41.9504L2171.16 16.9983C2169.72 12.3665 2168.97 7.93384 2168.82 3.70044H2141.88C2144.96 8.88013 2148 16.0022 2151.04 25.1165L2160.95 52.7581C2163.79 61.175 2165.48 68.6458 2166.13 75.1204H2193.08ZM2299.21 51.9612L2302.05 3.70044H2281.03L2284.22 51.9612H2299.21ZM2299.16 73.925C2301.1 72.2317 2302.05 69.9905 2302.05 67.2512C2302.05 64.512 2301.1 62.2708 2299.16 60.5276C2297.22 58.8342 2294.68 57.9875 2291.54 57.9875C2288.4 57.9875 2285.86 58.8342 2283.92 60.5276C2281.98 62.2708 2281.03 64.512 2281.03 67.2512C2281.03 69.9905 2281.98 72.2317 2283.92 73.925C2285.86 75.6184 2288.4 76.4651 2291.54 76.4651C2294.68 76.4651 2297.22 75.6184 2299.16 73.925ZM2330.89 51.9612L2333.72 3.70044H2312.71L2315.89 51.9612H2330.89ZM2330.84 73.925C2332.78 72.2317 2333.72 69.9905 2333.72 67.2512C2333.72 64.512 2332.78 62.2708 2330.84 60.5276C2328.89 58.8342 2326.35 57.9875 2323.22 57.9875C2320.08 57.9875 2317.54 58.8342 2315.6 60.5276C2313.65 62.2708 2312.71 64.512 2312.71 67.2512C2312.71 69.9905 2313.65 72.2317 2315.6 73.925C2317.54 75.6184 2320.08 76.4651 2323.22 76.4651C2326.35 76.4651 2328.89 75.6184 2330.84 73.925Z" fill="#F05127"/>
</svg>
