<svg width="267" height="258" viewBox="0 0 267 258" fill="none" xmlns="http://www.w3.org/2000/svg">
<g clip-path="url(#clip0_238:2415)">
<path d="M173.555 39.8451C174.951 39.9017 176.903 40.0607 179.193 40.5325C179.849 40.6663 182.545 41.219 184.261 41.9802C189.53 44.3146 191.43 51.216 191.673 52.1419C194.215 61.8448 186.436 70.1199 185.868 70.7049C186.379 71.6626 187.082 73.0067 187.887 74.6238C188.509 75.8746 190.758 80.4132 192.478 84.752C194.889 90.8331 196.315 94.4394 196.69 99.4675C196.954 103.043 197.291 107.568 194.781 112.431C192.029 117.76 187.544 120.236 186.144 120.983C181.232 123.605 176.672 123.543 174.13 123.473C160.202 123.105 149.984 111.818 147.829 109.343C147.538 112.248 147.235 115.171 146.916 118.109C146.62 120.842 146.318 123.559 146.002 126.253C151.613 133.6 154.456 138.062 155.802 140.896C156.082 141.483 156.846 143.161 158.11 143.304C159.557 143.47 160.192 141.458 162.259 140.653C164.064 139.946 165.816 140.606 168.397 141.62C172.511 143.238 175.35 145.533 176.726 146.753C180.518 150.119 182.364 153.48 183.708 155.981C186.057 160.349 185.739 161.816 185.613 162.285C184.768 165.398 180.845 166.627 180.15 166.838C150.106 178.142 120.067 189.445 90.024 200.75C86.1789 201.395 84.2377 200.572 83.1699 199.585C81.4181 197.962 80.389 194.362 80.3684 194.32C80.3684 194.32 79.1282 189.136 78.8076 187.066C77.8903 181.096 80.5167 176.542 81.6581 174.12C83.0002 171.268 85.2821 166.578 90.4751 163.195C92.9742 161.567 95.3488 160.765 96.9522 160.35C95.9001 158.637 94.8455 156.931 93.7934 155.219C93.176 156.647 92.083 158.699 90.1741 160.677C85.8573 165.148 80.4924 166.016 78.7081 166.28C73.1202 167.104 68.8237 165.416 63.2912 163.245C58.3609 161.31 54.632 159.024 52.2542 157.394C51.494 157.639 49.1167 158.3 46.3275 157.342C43.5921 156.405 42.1331 154.489 41.6696 153.829C40.1767 153.868 36.8779 153.749 33.4139 151.789C29.657 149.66 27.9037 146.608 27.1517 145.255C26.2774 143.687 23.979 139.405 25.0542 133.932C25.8364 129.958 28.0147 127.319 29.1408 126.135C29.3336 125.709 29.6216 125.074 29.9721 124.3C31.6312 120.647 32.4614 118.822 32.5807 118.64C34.1438 116.242 37.6856 113.731 40.9861 114.075C42.541 114.237 44.0469 115.036 45.9647 114.25C46.6075 113.985 47.0559 113.642 47.3859 113.362C50.5696 110.68 52.3064 106.539 52.3064 106.539C53.3428 104.068 56.2357 97.1781 61.0821 93.6406C62.5492 92.5707 64.9794 91.2347 68.8413 90.7806C68.4529 88.6766 68.0735 85.1349 69.005 80.9487C69.5145 78.6489 71.029 72.3095 76.9746 67.7718C77.9507 67.0287 82.0141 64.0654 88.1465 63.5681C93.6741 63.1197 97.8703 64.9182 99.6318 65.7997C100.272 64.5781 101.274 62.8677 102.74 61.0052C104.7 58.5171 106.948 55.6597 110.891 53.9008C114.76 52.1746 118.301 52.3775 120.368 52.4981C124.265 52.7227 127.059 53.8526 127.636 54.0939C132.246 56.0069 135.082 59.1468 136.494 60.9986C137.153 60.6314 137.818 60.2667 138.477 59.8995C138.256 59.3596 137.898 58.5548 137.386 57.6201C135.533 54.2297 133.789 53.0434 132.502 51.328C129.15 46.8654 130.33 40.7803 130.421 40.352C130.651 39.2479 131.634 34.8683 135.802 31.9526C138.897 29.789 142.073 29.5932 143.335 29.5858C143.502 28.2899 143.975 26.1965 145.487 24.2712C148.775 20.0873 154.861 19.3828 159.179 20.7002C159.702 20.8608 162.504 21.7542 164.91 24.2766C166.641 26.0864 167.264 27.7905 168.209 29.937C169.305 32.375 170.985 35.7938 173.555 39.8451Z" fill="#F77655"/>
<path d="M147.93 63.372C149.272 62.4684 146.531 59.348 143.043 54.5242C139.297 49.3437 137.94 48.4521 137.366 45.6616C137.186 44.7808 136.331 40.6071 138.98 37.7222C141.171 35.3352 145.002 34.6543 148.686 35.9443C148.509 35.2046 148.135 33.2005 149.127 31.0995C150.319 28.5661 153.08 26.7708 155.992 26.9584C158.222 27.0999 159.742 28.3517 160.292 28.8506C162.212 32.5778 164.292 36.4008 166.553 40.3023C167.88 42.5985 169.218 44.8264 170.549 46.988C171.857 46.5553 173.955 46.0274 176.547 46.1335C178.348 46.2072 180.123 46.2821 181.93 47.3845C184.785 49.1242 185.707 52.1959 185.968 53.3533C186.797 56.9919 185.278 59.9599 184.457 61.5657C184.115 62.2398 182.867 64.5744 180.283 66.6466C179.118 67.5801 178.016 68.1963 177.192 68.5888C178.68 70.8978 180.667 74.1827 182.716 78.2878C186.789 86.4568 188.289 92.2211 188.638 93.6113C190.531 101.139 189.949 104.611 189.744 105.674C189.333 107.808 188.703 110.836 186.129 113.275C183.301 115.953 179.841 116.306 178.282 116.462C174.582 116.837 171.815 115.802 168.412 114.479C165.744 113.444 161.9 111.618 157.076 107.98C153.718 105.449 149.131 101.47 144.612 95.5856C143.23 95.7252 141.628 96.108 141.162 97.1954C140.808 98.0206 141.301 98.7931 141.619 100.066C142.132 102.11 141.724 103.56 141.452 105.431C141.035 108.366 140.425 116.088 139.639 127.565C141.991 131.465 144.563 135.501 147.377 139.63C150.722 144.535 154.067 149.078 157.346 153.274C160.008 151.288 160.816 149.476 161.034 148.143C161.147 147.445 161.068 147.076 161.374 146.769C162.693 145.429 168.006 148.319 171.135 150.74C173.228 152.358 176.391 155.343 178.878 160.538C148.425 171.997 117.972 183.456 87.5236 194.913C86.4703 193.027 84.6899 189.16 84.984 184.169C85.4091 176.883 89.9571 172.248 91.5071 170.716C93.0505 169.191 95.6145 166.663 99.8846 165.455C104.906 164.038 109.164 165.309 110.819 165.906C106.073 161.867 101.109 156.53 97.0587 149.554C96.4632 148.531 95.9154 147.514 95.4047 146.51C95.7772 129.84 96.3694 120.282 97.1886 117.563C97.2562 117.341 97.4988 116.585 97.1359 116.181C96.2296 115.161 92.2686 117.142 88.3204 119.498C89.0931 121.819 90.0623 125.235 90.6659 129.458C91.485 135.204 92.6745 143.541 88.571 151.464C87.2826 153.947 85.5685 157.259 81.8781 158.973C80.7512 159.498 77.6843 160.689 69.8056 158.603C65.703 157.516 59.5476 155.346 52.7749 150.658C51.8846 150.874 50.0988 151.17 47.9902 150.584C44.9969 149.754 43.3329 147.694 42.8161 146.991C41.9339 147.313 40.0259 147.857 37.9735 147.177C35.1236 146.228 33.8369 143.527 32.8824 141.526C31.8036 139.256 30.7879 137.361 31.3616 135C32.0152 132.316 34.2259 130.847 34.9342 130.416C35.2167 128.889 35.6355 127.664 35.9929 126.787C36.5636 125.381 37.1369 123.969 38.4792 122.616C39.0007 122.09 39.9163 121.186 41.4082 120.657C41.9587 120.463 44.3076 119.63 45.7562 120.813C46.021 121.029 46.1899 121.259 46.2996 121.428C45.7616 122.057 47.3669 120.161 47.94 119.565C48.6435 118.828 49.8719 117.94 52.152 117.435C53.2079 116.295 54.2638 115.082 55.3125 113.789C59.4543 108.684 62.4747 103.569 64.7004 98.9373C68.7778 97.229 72.8536 95.5166 76.927 93.8098C76.2895 92.5786 75.4646 90.6664 75.0246 88.2061C74.7125 86.463 74.2654 83.9595 75.1465 80.9058C75.4201 79.9643 76.4766 76.6705 79.542 74.1605C80.8832 73.0602 82.0864 72.5433 84.4085 71.5412C86.6117 70.5884 87.7588 70.0927 89.4358 69.9703C91.2549 69.8358 92.5947 70.2299 94.9032 70.8964C97.1458 71.5465 98.2671 71.8716 99.3921 72.7177C99.6282 72.8947 102.48 75.0661 102.875 76.8468C102.901 76.9653 102.961 77.2819 103.221 77.4498C103.694 77.7575 104.508 77.3505 105.093 76.9794C104.769 76.3035 104.362 75.2699 104.164 73.9649C103.437 69.1565 106.302 65.3838 106.957 64.5186C108.991 61.8377 111.434 60.6206 112.608 60.0505C114.046 59.3536 117.417 57.7781 121.7 58.5037C124.725 59.0154 126.766 60.4333 127.759 61.1365C131.047 63.4691 132.808 66.6378 133.612 68.1178C133.802 68.4635 133.83 69.0122 134.045 68.9497C138.677 67.5961 144.008 66.0164 147.93 63.372Z" fill="#F77655" stroke="black" stroke-width="1.28673" stroke-miterlimit="10"/>
<path d="M140.464 97.7337C135.795 99.4903 131.126 101.247 126.458 103.004C125.892 112.121 125.324 121.243 124.758 130.36C124.586 130.888 124.233 132.203 124.648 133.793C125.108 135.577 126.244 136.611 126.658 136.955C131.746 142.647 136.829 148.337 141.918 154.03C139.686 153.385 136.403 152.783 132.528 153.274C129.645 153.639 127.543 154.471 126.78 154.795C125.467 155.349 122.626 156.578 119.951 159.395C117.194 162.297 116.124 165.289 115.508 167.074C114.802 169.118 114.093 171.168 114.38 173.818C114.464 174.603 114.832 175.921 115.562 178.52C115.639 178.798 116.84 183.062 116.952 183.455" stroke="black" stroke-width="1.28673" stroke-miterlimit="10"/>
<path d="M125.769 106.315C125.422 107.293 124.828 108.685 123.802 110.185C122.9 111.501 121.996 112.826 120.327 113.775C118.376 114.885 116.471 114.864 115.612 114.848C111.175 114.748 108.225 111.729 107.53 111.015C106.434 109.892 105.831 108.863 105.041 107.506C103.614 105.064 102.827 102.84 102.378 101.281C103.138 101.499 104.262 101.759 105.642 101.868C108.876 102.122 111.356 101.368 112.618 100.971C114.757 100.299 116.215 99.4475 117.377 98.772C119.011 97.8179 120.323 97.0403 121.568 95.5269C122.445 94.4592 123.103 93.0795 123.102 93.0754C123.321 92.6354 123.486 92.2573 123.598 91.9815C124.267 94.163 124.896 96.7586 125.304 99.7074C125.638 102.13 125.76 104.352 125.769 106.315Z" stroke="black" stroke-width="1.28673" stroke-miterlimit="10"/>
<path d="M56.5485 112.967C57.6671 115.781 58.7872 118.6 59.9018 121.416C65.5341 122.183 71.1664 122.951 76.7972 123.715C77.6103 125.352 78.6265 127.797 79.2017 130.885C80.3487 137.039 79.8318 146.224 75.8054 147.666C74.4972 148.135 73.2321 147.635 70.8812 146.71C67.1687 145.247 64.7571 142.942 63.494 141.534C64.1834 140.784 65.2877 139.383 65.9506 137.333C66.2578 136.383 66.776 134.703 66.3931 132.602C66.2113 131.607 65.7723 129.174 63.6649 127.836C62.1182 126.855 60.4873 126.979 59.7374 127.032C57.7978 127.175 56.4574 128.046 55.2164 128.852C54.5356 129.296 53.2605 130.133 52.0664 131.673C50.9461 133.117 49.7961 134.603 50.0327 136.535C50.1903 137.819 50.9666 139.346 52.4016 140.03C53.7095 140.656 54.951 140.289 56.5348 139.822C57.6112 139.504 59.2864 139.011 60.4297 137.421C60.9595 136.686 61.2056 135.952 61.3235 135.449" stroke="black" stroke-width="1.28673" stroke-miterlimit="10"/>
<path d="M52.5815 117.502C53.2233 117.637 54.1392 117.878 55.1788 118.34C56.1632 118.776 57.4073 119.33 58.5201 120.533C59.4162 121.502 59.8219 122.458 60.3932 123.806C60.8628 124.908 61.1425 125.871 61.3114 126.563" stroke="black" stroke-width="1.28673" stroke-miterlimit="10"/>
<path d="M46.2952 121.426C45.9867 122.092 45.6089 123.109 45.4597 124.394C45.2603 126.105 45.5735 127.412 45.7379 128.093C45.9775 129.07 46.2901 130.327 47.293 131.604C48.2432 132.814 49.3578 133.462 50.0434 133.786" stroke="black" stroke-width="1.28673" stroke-miterlimit="10"/>
<path d="M35.181 130.658C35.7108 132.163 36.2659 133.37 36.7021 134.237C37.6449 136.11 38.1163 137.046 39.0187 137.751C39.8427 138.394 40.7291 138.716 42.2814 139.273C43.1196 139.576 43.8317 139.776 44.3333 139.903" stroke="black" stroke-width="1.28673" stroke-miterlimit="10"/>
<path d="M48.2648 132.778C48.1427 133.598 47.8329 134.943 46.9631 136.37C45.9168 138.084 44.5775 139.055 43.8391 139.516" stroke="black" stroke-width="1.28673" stroke-miterlimit="10"/>
<path d="M44.0355 139.672C44.2434 140.212 44.7808 141.811 44.2735 143.775C43.7706 145.715 42.5475 146.849 42.1017 147.223" stroke="black" stroke-width="1.28673" stroke-miterlimit="10"/>
<path d="M58.2033 145.66C57.5209 146.416 56.7131 147.229 55.7627 148.04C54.3509 149.245 52.9795 150.155 51.78 150.84" stroke="black" stroke-width="1.28673" stroke-miterlimit="10"/>
<path d="M63.4817 141.891C63.1381 142.208 62.7088 142.553 62.1851 142.879C61.249 143.46 60.3568 143.768 59.6873 143.938" stroke="black" stroke-width="1.28673" stroke-miterlimit="10"/>
<path d="M76.6488 123.248C76.2318 122.883 75.5478 122.173 75.1896 121.075C74.3877 118.628 75.9289 116.476 76.1134 116.223C75.3138 115.864 73.2494 114.799 71.8446 112.417C69.9988 109.29 70.6339 106.154 70.7992 105.437C69.8935 104.893 68.5541 103.94 67.3395 102.381C66.3763 101.148 65.8122 99.9536 65.4814 99.0745" stroke="black" stroke-width="1.28673" stroke-miterlimit="10"/>
<path d="M76.3299 115.862C85.1929 111.977 94.0574 108.096 102.924 104.21" stroke="black" stroke-width="1.28673" stroke-miterlimit="10"/>
<path d="M76.6391 123.504C86.8769 119.51 97.1108 115.517 107.347 111.519" stroke="black" stroke-width="1.28673" stroke-miterlimit="10"/>
<path d="M156.114 71.4466C157.409 71.4542 159.453 71.2581 161.54 70.1062C162.405 69.6293 163.573 68.9699 164.494 67.5924C164.898 66.9865 165.875 65.4779 165.652 63.4124C165.596 62.8974 165.394 60.9479 163.684 59.63C162.115 58.4195 160.353 58.5735 159.948 58.6162C157.849 59.2867 151.735 61.3537 148.588 64.2929C148.079 64.7684 147.705 65.2116 147.395 65.6768C145.545 68.4348 146.052 71.6079 146.172 72.3783C146.322 73.3255 146.794 76.2827 149.382 78.4249C151.797 80.4217 154.54 80.4527 155.769 80.4669C159.423 80.508 162.111 78.7726 163.523 77.8609C164.807 77.0342 165.756 76.1727 166.392 75.5349C167.482 76.7747 169.031 78.7122 170.519 81.3144C173 85.6554 172.004 86.0667 174.871 92.467C176.223 95.4871 177.36 97.4376 177.016 100.239C176.92 101.031 176.681 102.794 175.472 103.395C174.689 103.786 173.679 103.598 171.626 102.501C168.067 100.595 165.854 98.353 165.854 98.353C163.928 96.4014 161.077 93.7942 156.923 90.7928C152.978 92.4011 149.032 94.0094 145.087 95.6177" stroke="black" stroke-width="1.28673" stroke-miterlimit="10"/>
<path d="M140.925 97.4311C140.492 97.7042 140.06 97.9813 139.626 98.2543" stroke="black" stroke-width="1.28673" stroke-miterlimit="10"/>
<path d="M112.526 114.602C111.344 131.397 110.717 138.439 110.436 139.727C110.411 139.842 110.3 140.314 110.344 140.93C110.448 142.412 111.352 143.475 111.68 143.86C113.755 146.305 115.605 148.945 117.764 151.322C118.899 152.572 120.484 154.41 122.249 156.811" stroke="black" stroke-width="1.28673" stroke-miterlimit="10"/>
<path d="M71.1047 105.239C75.693 103.513 82.2018 100.606 86.7901 98.879" stroke="black" stroke-width="1.28673" stroke-miterlimit="10"/>
<path d="M103.346 90.9124C106.148 89.858 110.247 88.3158 113.049 87.2615" stroke="black" stroke-width="1.28673" stroke-miterlimit="10"/>
<path d="M141.739 67.026C145.048 75.478 148.362 83.9325 151.671 92.3846" stroke="black" stroke-width="1.28673" stroke-miterlimit="10"/>
<path d="M135.965 68.8872C139.59 77.3529 143.218 85.8131 146.843 94.2788" stroke="black" stroke-width="1.28673" stroke-miterlimit="10"/>
<path d="M134.029 75.5591C136.737 81.7944 139.856 89.1081 142.564 95.3435" stroke="black" stroke-width="1.28673" stroke-miterlimit="10"/>
<path d="M124.688 94.2705C129.517 92.4534 134.346 90.6363 139.18 88.8177" stroke="black" stroke-width="1.28673" stroke-miterlimit="10"/>
<path d="M95.1159 98.807C102.758 95.9314 106.622 87.4051 103.747 79.763C100.871 72.1208 92.3448 68.2567 84.7026 71.1322C77.0604 74.0078 73.1963 82.5341 76.0719 90.1762C78.9474 97.8184 87.4737 101.683 95.1159 98.807Z" fill="black" stroke="black" stroke-width="1.28673" stroke-miterlimit="10"/>
<path d="M124.445 87.7713C132.087 84.8958 135.951 76.3695 133.076 68.7273C130.2 61.0851 121.674 57.221 114.032 60.0966C106.39 62.9721 102.525 71.4984 105.401 79.1406C108.277 86.7828 116.803 90.6469 124.445 87.7713Z" fill="black" stroke="black" stroke-width="1.28673" stroke-miterlimit="10"/>
<path d="M54.4565 123.583C54.8078 123.932 55.1979 124.372 55.573 124.919C56.1955 125.83 56.5519 126.704 56.7564 127.37" stroke="black" stroke-width="1.28673" stroke-miterlimit="10"/>
<path d="M148.928 36.2799C149.451 37.1598 149.98 38.0423 150.508 38.9207C153.708 44.2699 156.918 49.5876 160.136 54.8751" stroke="black" stroke-width="1.28673" stroke-miterlimit="10"/>
<path d="M158.766 55.8992C159.794 55.5627 160.828 55.2287 161.856 54.8922" stroke="black" stroke-width="1.28673" stroke-miterlimit="10"/>
<path d="M171.642 47.3102C169.842 48.0793 168.639 49.0359 167.91 49.7275C166.217 51.3313 165.364 53.0822 164.191 55.4941C163.53 56.8563 163.062 58.0225 162.76 58.8416" stroke="black" stroke-width="1.28673" stroke-miterlimit="10"/>
<path d="M178.559 56.2556C178.08 56.7381 177.415 57.4055 176.617 58.196C171.629 63.1112 170.393 63.8098 169.027 63.8796C168.356 63.912 167.329 63.8128 166.043 63.0501" stroke="black" stroke-width="1.28673" stroke-miterlimit="10"/>
<path d="M107.84 102.149C109.346 106.151 110.852 110.154 112.358 114.156" stroke="black" stroke-width="1.28673" stroke-miterlimit="10"/>
<path d="M114.12 100.799C115.788 105.231 117.454 109.659 119.121 114.091" stroke="black" stroke-width="1.28673" stroke-miterlimit="10"/>
<path d="M120.362 97.3416C122.061 100.602 123.763 103.857 125.461 107.118" stroke="black" stroke-width="1.28673" stroke-miterlimit="10"/>
<path d="M83.1201 96.6993C84.3252 95.6272 85.938 94.1772 86.8327 91.1963C87.0423 90.4988 87.3908 89.2815 87.3103 87.7033C87.1921 85.2823 86.113 83.6811 85.7281 82.8773C84.8053 80.9607 84.8134 77.4748 89.4066 70.5727C89.8855 70.1404 90.2163 70.0939 90.3779 70.0972C90.4608 70.0981 90.6987 70.1094 90.888 70.1253C91.024 70.1336 91.1194 70.1436 91.2665 70.157C91.5376 70.1833 91.7992 70.2086 92.1376 70.2554C92.1376 70.2554 92.349 70.2813 92.5553 70.3182C93.7845 70.5156 95.6031 71.3298 95.6031 71.3298C97.4042 72.1461 97.1638 72.177 98.4832 72.7849C98.4832 72.7849 99.0151 73.0293 99.5991 73.607C99.688 73.6972 99.8237 73.8386 99.8948 74.0639C99.9577 74.2556 99.9494 74.4283 99.9345 74.5348C99.2927 75.2529 97.9878 76.9124 97.5363 79.4149C97.2285 81.1301 97.4419 82.5621 97.6447 83.4298C97.9193 84.7563 98.1158 86.3504 98.0556 88.1512C97.8841 93.2612 96.0138 96.5359 94.7133 98.4871C93.5345 98.8619 92.5257 99.0307 91.7838 99.1174C91.2839 99.1771 90.6946 99.2431 89.9154 99.2063C89.1785 99.172 88.8285 99.0699 87.759 98.8583C85.0225 98.3207 84.3524 98.4033 83.71 97.7193C83.3693 97.3617 83.2062 96.9648 83.1201 96.6993Z" fill="#F77655"/>
<path d="M112.527 85.6337C113.732 84.5616 115.345 83.1115 116.24 80.1306C116.45 79.4331 116.798 78.2158 116.717 76.6376C116.599 74.2166 115.52 72.6154 115.135 71.8117C114.213 69.895 114.221 66.4091 118.814 59.507C119.293 59.0748 119.623 59.0282 119.785 59.0315C119.868 59.0325 120.106 59.0437 120.295 59.0596C120.431 59.068 120.527 59.0779 120.674 59.0913C120.945 59.1176 121.206 59.1429 121.545 59.1897C121.545 59.1897 121.756 59.2156 121.963 59.2525C123.192 59.4499 125.01 60.2641 125.01 60.2641C126.811 61.0804 126.571 61.1113 127.89 61.7192C127.89 61.7192 128.422 61.9636 129.006 62.5413C129.095 62.6315 129.231 62.773 129.302 62.9983C129.365 63.19 129.357 63.3627 129.342 63.4691C128.7 64.1872 127.395 65.8467 126.944 68.3492C126.636 70.0644 126.849 71.4964 127.052 72.3641C127.327 73.6906 127.523 75.2847 127.463 77.0855C127.291 82.1955 125.421 85.4702 124.12 87.4214C122.942 87.7962 121.933 87.965 121.191 88.0517C120.691 88.1115 120.102 88.1774 119.323 88.1406C118.586 88.1063 118.236 88.0043 117.166 87.7926C114.43 87.255 113.76 87.3376 113.117 86.6536C112.777 86.296 112.613 85.8991 112.527 85.6337Z" fill="#F77655"/>
<path d="M84.4095 197.619C84.7047 197.476 85.105 197.388 85.5065 197.478L89.3943 196.981C98.3429 194.209 116.321 188.664 116.647 188.651C116.972 188.639 135.912 180.532 145.341 176.479L176.928 165.419C178.863 162.766 183.042 158.499 184.275 162.654C184.446 162.499 184.95 162.621 185.603 164.355C186.418 166.523 216.139 161.115 219.274 163.235C222.409 165.355 227.164 174.703 228.297 177.714L232.013 187.591L199.981 199.644L187.575 204.312C187.025 205.894 170.895 209.421 170.499 211C170.004 212.973 165.649 219.503 162.999 220.5C160.349 221.497 157.443 223.049 150.499 222.5C144.944 222.06 143.063 221.86 142.817 221.815L129.087 228.656L112.346 234.956C109.625 235.888 103.384 238.108 100.181 239.533C96.1763 241.315 74.8384 245.219 72.5618 243.188C70.2852 241.157 64.9313 221.448 63.871 216.072C62.8107 210.696 87.2193 205.086 87.094 200.734C87.0284 198.456 86.2654 197.649 85.5065 197.478L84.4095 197.619Z" fill="#F77655"/>
<path d="M88.0528 234.782C91.1437 233.619 93.3587 231.822 94.5702 229.547C95.7817 227.273 95.8772 224.345 94.6732 221.146C93.4794 217.973 91.4729 215.821 89.0625 214.91C86.6521 213.998 83.7694 214.103 80.7057 215.256L71.2288 218.822C71.7473 219.622 72.307 220.655 72.9265 221.929C73.546 223.204 74.0718 224.436 74.5278 225.648L76.5618 231.054C77.0178 232.266 77.4347 233.539 77.804 234.892C78.1733 236.245 78.4334 237.391 78.5758 238.348L88.0528 234.782ZM80.5623 222.476L83.34 221.431C84.2795 221.077 85.2007 221.088 86.1036 221.463C87.0116 221.852 87.656 222.574 88.0557 223.636C88.4604 224.711 88.4513 225.679 88.0334 226.551C87.6019 227.428 86.9163 228.044 85.9632 228.402L83.1855 229.447L80.5623 222.476ZM109.211 227.271C110.587 226.754 111.929 226.109 113.231 225.355C114.528 224.587 115.472 223.874 116.077 223.211L114.242 218.663C113.94 219.43 113.333 220.171 112.421 220.887C111.509 221.604 110.481 222.177 109.351 222.602C107.88 223.155 106.477 223.31 105.147 223.08C103.804 222.855 102.923 222.332 102.491 221.515L102.658 221.297C104.567 221.868 106.549 221.558 108.945 220.656C112.581 219.288 114.182 217.225 113.214 214.651C112.82 213.603 112.139 212.786 111.008 212.217C109.393 211.395 106.791 211.379 103.246 212.697C100.318 213.799 98.2206 215.536 97.2573 217.438C96.2854 219.358 96.1584 221.457 96.9218 223.486C97.7518 225.692 99.2808 227.153 101.517 227.85C103.754 228.548 106.311 228.363 109.211 227.271ZM105.922 219.975C104.465 220.523 103.229 220.584 102.2 220.163C102.031 219.341 102.164 218.622 102.569 218.004C102.978 217.399 103.555 216.949 104.29 216.672C105.938 216.052 107.239 216.371 107.654 217.474C107.834 217.95 107.746 218.419 107.395 218.892C107.05 219.38 106.562 219.734 105.922 219.975ZM126 220.954C128.615 219.97 130.481 218.817 131.609 217.476C132.736 216.135 133.024 214.752 132.476 213.295C131.69 211.165 129.4 210.986 127.096 211.433C123.964 211.99 120.657 213.529 120.294 212.562C120.083 212.004 120.929 211.235 122.576 210.615C123.734 210.18 124.948 209.894 126.209 209.777C127.471 209.66 128.538 209.647 129.412 209.738L127.641 204.948C125.204 204.917 122.785 205.345 120.389 206.247C117.897 207.184 116.139 208.297 115.116 209.583C114.083 210.889 113.806 212.175 114.287 213.455C116.265 218.71 125.781 212.44 126.504 214.36C126.734 214.973 125.773 215.723 123.853 216.446C122.832 216.83 121.526 217.119 119.955 217.322C118.37 217.53 116.958 217.579 115.717 217.502L117.689 222.744C118.714 222.701 120.083 222.497 121.809 222.127C123.517 221.749 124.925 221.359 126 220.954ZM136.034 199.039C136.437 198.25 136.47 197.429 136.147 196.571C135.819 195.7 135.248 195.091 134.425 194.763C133.602 194.435 132.683 194.47 131.648 194.86C130.613 195.249 129.899 195.829 129.51 196.613C129.107 197.401 129.079 198.236 129.407 199.107C129.73 199.965 130.296 200.56 131.119 200.888C131.928 201.221 132.847 201.186 133.882 200.797C134.917 200.407 135.631 199.827 136.034 199.039ZM143.226 214.022C142.102 212.315 140.998 210.041 139.932 207.209L138.482 203.356C138.001 202.076 137.69 201.043 137.53 200.248C136.964 201.098 135.983 201.794 134.553 202.332C133.123 202.87 131.885 203.009 130.818 202.773C131.165 203.326 131.613 204.308 132.151 205.738L133.601 209.592C134.666 212.424 135.335 214.861 135.615 216.886L143.226 214.022ZM156.457 216.302C161.945 214.237 165.996 210.008 164.285 205.46C164.008 204.725 163.546 204.075 162.917 203.519L161.344 199.339C160.278 196.507 159.61 194.069 159.33 192.045L151.719 194.909C152.218 195.452 152.576 195.907 152.825 196.28C153.066 196.671 153.301 197.174 153.532 197.786L153.65 198.099L153.282 198.238C151.461 196.249 148.874 195.528 145.987 196.615C143.822 197.429 142.406 198.911 141.883 200.662C141.347 202.418 141.473 204.406 142.247 206.462C143.021 208.519 144.226 210.07 145.782 211.024C147.329 211.996 149.366 212.162 151.531 211.348C154.486 210.236 155.922 207.939 155.926 205.264L156.239 205.146C157.036 205.53 157.568 206.076 157.84 206.798C158.306 208.037 158.161 209.179 157.423 210.234C156.68 211.275 155.46 212.123 153.785 212.753C152.315 213.307 150.735 213.652 149.041 213.777C147.347 213.901 145.955 213.756 144.867 213.342L146.887 218.629C148.091 218.564 149.582 218.314 151.361 217.878C153.14 217.442 154.837 216.912 156.457 216.302ZM152.804 206.345C151.756 206.74 150.807 206.739 149.954 206.33C149.086 205.925 148.471 205.24 148.102 204.259C147.723 203.252 147.724 202.303 148.109 201.428C148.481 200.557 149.194 199.931 150.242 199.537C151.264 199.153 152.19 199.177 153.043 199.587C153.897 199.996 154.509 200.714 154.883 201.708C155.237 202.647 155.226 203.569 154.845 204.458C154.465 205.347 153.784 205.976 152.804 206.345ZM174.966 202.079C174.548 201.63 174.052 200.806 173.487 199.635C172.922 198.464 172.473 197.436 172.14 196.551L171.611 195.227C171.267 194.315 171.28 193.44 171.635 192.607C171.99 191.774 172.648 191.168 173.588 190.815C175.399 190.134 176.947 191.027 177.67 192.947L178.151 194.227C178.91 196.242 179.424 198.272 179.704 200.296L187.343 197.422C186.207 195.766 185.175 193.683 184.232 191.178L183.673 189.693C182.931 187.719 181.802 186.372 180.274 185.657C178.745 184.941 176.951 184.964 174.895 185.738C172.131 186.778 170.743 188.792 170.728 191.767L170.388 191.895L170.249 191.527C169.793 190.315 169.658 189.169 169.828 188.095L162.067 191.015C163.15 192.613 164.142 194.587 165.028 196.942L165.889 199.23C166.324 200.387 166.633 201.375 166.83 202.187C167.032 203.012 167.191 203.932 167.313 204.958L174.966 202.079ZM198.997 193.487C200.373 192.97 201.715 192.325 203.017 191.57C204.314 190.803 205.258 190.09 205.863 189.427L204.028 184.879C203.726 185.646 203.119 186.387 202.207 187.103C201.295 187.819 200.267 188.393 199.137 188.818C197.666 189.371 196.263 189.526 194.933 189.296C193.59 189.071 192.709 188.548 192.277 187.731L192.444 187.513C194.353 188.084 196.335 187.774 198.731 186.872C202.367 185.504 203.968 183.44 203 180.867C202.606 179.818 201.925 179.002 200.794 178.433C199.179 177.61 196.577 177.595 193.032 178.913C190.104 180.015 188.007 181.752 187.043 183.653C186.071 185.574 185.944 187.673 186.708 189.702C187.538 191.908 189.067 193.369 191.303 194.066C193.54 194.763 196.097 194.578 198.997 193.487ZM195.708 186.191C194.251 186.739 193.015 186.8 191.986 186.379C191.817 185.557 191.95 184.838 192.355 184.22C192.765 183.615 193.341 183.165 194.077 182.888C195.724 182.268 197.025 182.587 197.44 183.69C197.62 184.166 197.532 184.634 197.181 185.108C196.836 185.596 196.348 185.95 195.708 186.191ZM216.155 186.58C215.352 185.686 214.62 184.36 213.959 182.603L213.488 181.351C213.052 180.193 213.116 179.081 213.66 178.006C214.203 176.931 215.054 176.176 216.198 175.746C217.518 175.249 219.063 175.305 220.053 175.787L217.891 170.041C217.143 169.996 216.356 170.137 215.512 170.454C212.843 171.458 211.705 173.97 212.389 177.396L212.048 177.525L211.736 176.694C211.485 176.027 211.305 175.302 211.211 174.513C211.102 173.73 211.132 173.066 211.276 172.499L203.297 175.501C204.421 177.208 205.413 179.182 206.258 181.429L207.129 183.743C207.549 184.86 207.848 185.82 208.04 186.618C208.237 187.43 208.401 188.363 208.544 189.444L216.155 186.58Z" fill="black"/>
</g>
<defs>
<clipPath id="clip0_238:2415">
<rect width="211" height="196" fill="white" transform="translate(0.246094 74.4321) rotate(-20.62)"/>
</clipPath>
</defs>
</svg>
