<svg width="293" height="293" viewBox="0 0 293 293" fill="none" xmlns="http://www.w3.org/2000/svg">
<g filter="url(#filter0_i_318:3)">
<path d="M181.819 256.45C242.77 236.717 276.183 171.311 256.45 110.36C236.717 49.41 171.311 15.9966 110.36 35.7295C49.41 55.4623 15.9966 120.869 35.7295 181.819C55.4623 242.77 120.869 276.183 181.819 256.45Z" fill="#B5F4D6"/>
<path d="M177.736 243.838C231.721 226.36 261.315 168.428 243.838 114.444C226.36 60.459 168.428 30.8642 114.444 48.3419C60.459 65.8196 30.8643 123.751 48.3419 177.736C65.8196 231.721 123.751 261.315 177.736 243.838Z" stroke="#06A462" stroke-width="9"/>
<path d="M120.175 67.3885C75.5327 81.8413 51.0811 129.706 65.534 174.347C77.1094 210.101 110.015 232.812 145.599 233.12C149.868 232.519 150.598 229.604 149.912 227.483C149.29 225.564 147.129 219.234 144.939 212.467C125.848 222.776 117.783 215.791 114.696 211.769C113.035 209.74 106.774 203.845 102.719 203.037C99.4005 202.438 94.1506 200.009 100.885 197.717C107.215 195.556 113.69 200.044 115.989 201.977C127.218 211.844 137.721 204.649 141.68 201.024C140.687 195.543 141.663 191.322 143.333 188.55C124.701 192.35 103.659 191.463 93.6525 160.557C90.8077 151.77 91.5843 143.485 94.9042 136.161C93.4422 134.403 87.9329 127.036 88.78 114.488C88.78 114.488 94.8603 110.176 113.681 115.576C119.557 111.665 126.13 108.533 132.998 106.309C139.866 104.086 147.029 102.771 154.081 102.496C166.133 86.9892 173.62 87.0204 173.62 87.0204C181.661 96.6915 181.514 105.889 181.36 108.171C188.342 112.159 193.795 118.316 196.672 127.204C206.711 158.211 190.047 171.194 172.723 179.034C176.47 180.611 180.564 184.641 183.017 192.216C186.516 203.023 189.227 211.742 190.109 214.469C190.796 216.59 193.129 218.625 196.907 216.509C211.195 205.902 221.797 191.08 227.219 174.131C232.642 157.183 232.612 138.96 227.133 122.029C212.68 77.3872 164.816 52.9356 120.175 67.3885Z" fill="#06A462"/>
</g>
<defs>
<filter id="filter0_i_318:3" x="30.0585" y="30.0585" width="232.063" height="236.063" filterUnits="userSpaceOnUse" color-interpolation-filters="sRGB">
<feFlood flood-opacity="0" result="BackgroundImageFix"/>
<feBlend mode="normal" in="SourceGraphic" in2="BackgroundImageFix" result="shape"/>
<feColorMatrix in="SourceAlpha" type="matrix" values="0 0 0 0 0 0 0 0 0 0 0 0 0 0 0 0 0 0 127 0" result="hardAlpha"/>
<feOffset dy="4"/>
<feGaussianBlur stdDeviation="10"/>
<feComposite in2="hardAlpha" operator="arithmetic" k2="-1" k3="1"/>
<feColorMatrix type="matrix" values="0 0 0 0 0 0 0 0 0 0 0 0 0 0 0 0 0 0 0.25 0"/>
<feBlend mode="normal" in2="shape" result="effect1_innerShadow_318:3"/>
</filter>
</defs>
</svg>
