<svg width="157" height="168" viewBox="0 0 157 168" fill="none" xmlns="http://www.w3.org/2000/svg">
<path d="M50.8254 77.8761L51.0425 79.0571L51.7835 78.1123L66.6672 59.1366L59.5054 82.1651L59.1488 83.3116L60.244 82.8195L82.2414 72.9341L65.198 89.9966L64.3495 90.8461L65.548 90.9192L89.6196 92.3889L66.5991 99.5765L65.453 99.9344L66.4802 100.556L87.1116 113.044L63.3877 108.71L62.2066 108.494L62.8272 109.522L75.292 130.168L56.2995 115.305L55.3539 114.565L55.4258 115.764L56.8684 139.837L46.9583 117.851L46.4649 116.756L45.9715 117.851L36.0615 139.837L37.5041 115.764L37.5759 114.565L36.6303 115.305L17.6379 130.168L30.1027 109.522L30.7233 108.494L29.5421 108.71L5.81824 113.044L26.4497 100.556L27.4769 99.9344L26.3307 99.5765L3.31024 92.3889L27.3819 90.9192L28.5804 90.8461L27.7318 89.9966L10.6885 72.9341L32.6858 82.8195L33.781 83.3116L33.4245 82.1651L26.2627 59.1365L41.1464 78.1123L41.8874 79.0571L42.1045 77.8761L46.4649 54.1571L50.8254 77.8761Z" fill="#06A462" stroke="#FFD746" stroke-width="1.08241"/>
<g clip-path="url(#clip0_2654_4371)">
<circle cx="104.073" cy="114.494" r="38.5979" transform="rotate(17.847 104.073 114.494)" fill="#FEB913"/>
<path d="M106.23 87.2764L102.22 99.7306M118.684 91.2863L114.674 103.74M135.372 124.837C129.836 142.033 111.408 151.484 94.2122 145.948C77.0166 140.411 67.565 121.983 73.1014 104.788M140.977 126.642C134.444 146.932 112.699 158.085 92.4078 151.552C72.1169 145.019 60.964 123.274 67.4971 102.983C74.0301 82.6925 95.7752 71.5396 116.066 78.0726C136.357 84.6056 147.51 106.351 140.977 126.642Z" stroke="#343434" stroke-width="1.54683"/>
</g>
<mask id="path-4-inside-1_2654_4371" fill="white">
<path fill-rule="evenodd" clip-rule="evenodd" d="M81.9043 56.2478L106.393 51.3867L113.595 87.6662L113.593 87.6664L113.413 86.7591L88.9258 91.62L81.9043 56.2478ZM99.5473 81.0268L113.343 86.7729L88.9929 91.6064L99.5473 81.0268Z"/>
</mask>
<path fill-rule="evenodd" clip-rule="evenodd" d="M81.9043 56.2478L106.393 51.3867L113.595 87.6662L113.593 87.6664L113.413 86.7591L88.9258 91.62L81.9043 56.2478ZM99.5473 81.0268L113.343 86.7729L88.9929 91.6064L99.5473 81.0268Z" fill="#E63D25"/>
<path d="M106.393 51.3867L107.3 51.2067L107.12 50.2997L106.213 50.4798L106.393 51.3867ZM81.9043 56.2478L81.7243 55.3408L80.8173 55.5209L80.9973 56.4279L81.9043 56.2478ZM113.595 87.6662L113.775 88.5732L114.682 88.3931L114.501 87.4861L113.595 87.6662ZM113.593 87.6664L112.686 87.8464L112.866 88.7534L113.773 88.5734L113.593 87.6664ZM113.413 86.7591L114.32 86.5791L114.14 85.6721L113.233 85.8521L113.413 86.7591ZM88.9258 91.62L88.0188 91.8L88.1988 92.707L89.1058 92.527L88.9258 91.62ZM113.343 86.7729L113.523 87.6799L116.504 87.0881L113.698 85.9193L113.343 86.7729ZM99.5473 81.0268L99.9029 80.1732L99.3306 79.9348L98.8927 80.3737L99.5473 81.0268ZM88.9929 91.6064L88.3382 90.9533L86.1915 93.1052L89.1729 92.5134L88.9929 91.6064ZM106.213 50.4798L81.7243 55.3408L82.0843 57.1548L106.573 52.2937L106.213 50.4798ZM114.501 87.4861L107.3 51.2067L105.486 51.5668L112.688 87.8462L114.501 87.4861ZM113.773 88.5734L113.775 88.5732L113.414 86.7592L113.413 86.7594L113.773 88.5734ZM112.506 86.9392L112.686 87.8464L114.5 87.4864L114.32 86.5791L112.506 86.9392ZM89.1058 92.527L113.593 87.6661L113.233 85.8521L88.7458 90.713L89.1058 92.527ZM80.9973 56.4279L88.0188 91.8L89.8328 91.44L82.8113 56.0678L80.9973 56.4279ZM113.698 85.9193L99.9029 80.1732L99.1918 81.8804L112.987 87.6265L113.698 85.9193ZM89.1729 92.5134L113.523 87.6799L113.162 85.8659L88.8128 90.6994L89.1729 92.5134ZM98.8927 80.3737L88.3382 90.9533L89.6475 92.2595L100.202 81.6799L98.8927 80.3737Z" fill="black" mask="url(#path-4-inside-1_2654_4371)"/>
<mask id="path-6-inside-2_2654_4371" fill="white">
<path d="M81.9554 8.34339C82.7702 5.42162 86.5621 4.66893 88.4312 7.05792L91.1208 10.4957C92.3854 12.112 94.7242 12.3897 96.3322 11.1145L99.7521 8.40236C102.129 6.51759 105.639 8.13743 105.747 11.1688L105.902 15.5309C105.975 17.5819 107.704 19.1813 109.754 19.0948L114.115 18.9108C117.146 18.7829 119.034 22.1566 117.339 24.6724L114.901 28.2927C113.754 29.9949 114.213 32.305 115.923 33.4403L119.559 35.8548C122.086 37.5326 121.63 41.3715 118.78 42.4109L114.68 43.9066C112.752 44.6098 111.765 46.7482 112.481 48.6716L114.003 52.7623C115.061 55.605 112.436 58.4428 109.52 57.6087L105.323 56.4084C103.35 55.8441 101.295 56.9941 100.743 58.9709L99.5707 63.1753C98.7558 66.0971 94.9639 66.8498 93.0948 64.4608L90.4052 61.023C89.1406 59.4067 86.8018 59.1289 85.1939 60.4041L81.7739 63.1163C79.3972 65.0011 75.8871 63.3813 75.7792 60.3499L75.6239 55.9878C75.5509 53.9368 73.8221 52.3374 71.7716 52.4239L67.4106 52.6079C64.38 52.7358 62.4924 49.3621 64.1869 46.8463L66.6253 43.226C67.7717 41.5238 67.3131 39.2136 65.6035 38.0784L61.9672 35.6639C59.4402 33.986 59.8961 30.1472 62.7458 29.1078L66.8464 27.6121C68.7744 26.9089 69.7613 24.7704 69.0454 22.8471L67.5228 18.7564C66.4647 15.9136 69.0899 13.0759 72.0063 13.91L76.2029 15.1103C78.176 15.6746 80.2314 14.5246 80.7827 12.5478L81.9554 8.34339Z"/>
</mask>
<path d="M81.9554 8.34339C82.7702 5.42162 86.5621 4.66893 88.4312 7.05792L91.1208 10.4957C92.3854 12.112 94.7242 12.3897 96.3322 11.1145L99.7521 8.40236C102.129 6.51759 105.639 8.13743 105.747 11.1688L105.902 15.5309C105.975 17.5819 107.704 19.1813 109.754 19.0948L114.115 18.9108C117.146 18.7829 119.034 22.1566 117.339 24.6724L114.901 28.2927C113.754 29.9949 114.213 32.305 115.923 33.4403L119.559 35.8548C122.086 37.5326 121.63 41.3715 118.78 42.4109L114.68 43.9066C112.752 44.6098 111.765 46.7482 112.481 48.6716L114.003 52.7623C115.061 55.605 112.436 58.4428 109.52 57.6087L105.323 56.4084C103.35 55.8441 101.295 56.9941 100.743 58.9709L99.5707 63.1753C98.7558 66.0971 94.9639 66.8498 93.0948 64.4608L90.4052 61.023C89.1406 59.4067 86.8018 59.1289 85.1939 60.4041L81.7739 63.1163C79.3972 65.0011 75.8871 63.3813 75.7792 60.3499L75.6239 55.9878C75.5509 53.9368 73.8221 52.3374 71.7716 52.4239L67.4106 52.6079C64.38 52.7358 62.4924 49.3621 64.1869 46.8463L66.6253 43.226C67.7717 41.5238 67.3131 39.2136 65.6035 38.0784L61.9672 35.6639C59.4402 33.986 59.8961 30.1472 62.7458 29.1078L66.8464 27.6121C68.7744 26.9089 69.7613 24.7704 69.0454 22.8471L67.5228 18.7564C66.4647 15.9136 69.0899 13.0759 72.0063 13.91L76.2029 15.1103C78.176 15.6746 80.2314 14.5246 80.7827 12.5478L81.9554 8.34339Z" fill="#F77655"/>
<path d="M76.2029 15.1103L75.9486 15.9993L76.2029 15.1103ZM80.7827 12.5478L81.6734 12.7962L80.7827 12.5478ZM67.5228 18.7564L68.3894 18.4338L67.5228 18.7564ZM72.0063 13.91L72.2605 13.021L72.0063 13.91ZM66.8464 27.6121L67.1632 28.4808L66.8464 27.6121ZM69.0454 22.8471L68.1788 23.1697L69.0454 22.8471ZM61.9672 35.6639L62.4787 34.8936L61.9672 35.6639ZM62.7458 29.1078L62.4289 28.2391L62.7458 29.1078ZM66.6253 43.226L65.8583 42.7094L66.6253 43.226ZM65.6035 38.0784L65.092 38.8487L65.6035 38.0784ZM67.4106 52.6079L67.3716 51.6841L67.4106 52.6079ZM64.1869 46.8463L64.9539 47.3628L64.1869 46.8463ZM75.6239 55.9878L74.6998 56.0207L75.6239 55.9878ZM71.7716 52.4239L71.8106 53.3478L71.7716 52.4239ZM81.7739 63.1163L82.3484 63.8408L81.7739 63.1163ZM75.7792 60.3499L76.7033 60.317L75.7792 60.3499ZM90.4052 61.023L91.1335 60.4532L90.4052 61.023ZM85.1939 60.4041L84.6193 59.6796L85.1939 60.4041ZM99.5707 63.1753L100.461 63.4237L99.5707 63.1753ZM93.0948 64.4608L92.3666 65.0306L93.0948 64.4608ZM105.323 56.4084L105.069 57.2974L105.323 56.4084ZM100.743 58.9709L99.8526 58.7225L100.743 58.9709ZM114.003 52.7623L114.87 52.4397L114.003 52.7623ZM109.52 57.6087L109.774 56.7196L109.52 57.6087ZM114.68 43.9066L114.996 44.7753L114.68 43.9066ZM112.481 48.6716L111.614 48.9942L112.481 48.6716ZM119.559 35.8548L120.07 35.0844L119.559 35.8548ZM118.78 42.4109L118.463 41.5422L118.78 42.4109ZM114.901 28.2927L115.668 28.8093L114.901 28.2927ZM115.923 33.4403L115.411 34.2106L115.923 33.4403ZM114.115 18.9108L114.154 19.8346L114.115 18.9108ZM117.339 24.6724L116.572 24.1559L117.339 24.6724ZM105.902 15.5309L104.978 15.5638L105.902 15.5309ZM109.754 19.0948L109.715 18.1709L109.754 19.0948ZM99.7521 8.40236L100.327 9.12687L99.7521 8.40236ZM105.747 11.1688L106.671 11.1359L105.747 11.1688ZM91.1208 10.4957L90.3926 11.0655L91.1208 10.4957ZM96.3322 11.1145L95.7576 10.39L96.3322 11.1145ZM88.4312 7.05792L89.1595 6.48813L88.4312 7.05792ZM81.9554 8.34339L81.0647 8.09497L81.9554 8.34339ZM87.7029 7.6277L90.3926 11.0655L91.8491 9.92588L89.1595 6.48813L87.7029 7.6277ZM96.9067 11.8391L100.327 9.12687L99.1776 7.67786L95.7576 10.39L96.9067 11.8391ZM104.823 11.2017L104.978 15.5638L106.826 15.498L106.671 11.1359L104.823 11.2017ZM109.793 20.0186L114.154 19.8346L114.076 17.9869L109.715 18.1709L109.793 20.0186ZM116.572 24.1559L114.134 27.7762L115.668 28.8093L118.106 25.189L116.572 24.1559ZM115.411 34.2106L119.047 36.6251L120.07 35.0844L116.434 32.6699L115.411 34.2106ZM118.463 41.5422L114.363 43.0378L114.996 44.7753L119.097 43.2796L118.463 41.5422ZM111.614 48.9942L113.137 53.0849L114.87 52.4397L113.347 48.349L111.614 48.9942ZM109.774 56.7196L105.577 55.5194L105.069 57.2974L109.265 58.4977L109.774 56.7196ZM99.8526 58.7225L98.68 62.9269L100.461 63.4237L101.634 59.2193L99.8526 58.7225ZM93.8231 63.891L91.1335 60.4532L89.6769 61.5928L92.3666 65.0306L93.8231 63.891ZM84.6193 59.6796L81.1993 62.3918L82.3484 63.8408L85.7684 61.1286L84.6193 59.6796ZM76.7033 60.317L76.548 55.9549L74.6998 56.0207L74.8551 60.3828L76.7033 60.317ZM71.7326 51.5001L67.3716 51.6841L67.4496 53.5318L71.8106 53.3478L71.7326 51.5001ZM64.9539 47.3628L67.3922 43.7425L65.8583 42.7094L63.42 46.3297L64.9539 47.3628ZM66.115 37.3081L62.4787 34.8936L61.4557 36.4343L65.092 38.8487L66.115 37.3081ZM63.0626 29.9765L67.1632 28.4808L66.5295 26.7434L62.4289 28.2391L63.0626 29.9765ZM69.912 22.5245L68.3894 18.4338L66.6562 19.0789L68.1788 23.1697L69.912 22.5245ZM71.752 14.799L75.9486 15.9993L76.4571 14.2212L72.2605 13.021L71.752 14.799ZM81.6734 12.7962L82.846 8.59181L81.0647 8.09497L79.892 12.2994L81.6734 12.7962ZM75.9486 15.9993C78.415 16.7047 80.9842 15.2672 81.6734 12.7962L79.892 12.2994C79.4785 13.782 77.937 14.6445 76.4571 14.2212L75.9486 15.9993ZM68.3894 18.4338C67.5958 16.3018 69.5647 14.1735 71.752 14.799L72.2605 13.021C68.6151 11.9784 65.3335 15.5255 66.6562 19.0789L68.3894 18.4338ZM67.1632 28.4808C69.5733 27.6018 70.8069 24.9287 69.912 22.5245L68.1788 23.1697C68.7157 24.6122 67.9756 26.216 66.5295 26.7434L67.1632 28.4808ZM62.4787 34.8936C60.5835 33.6352 60.9254 30.756 63.0626 29.9765L62.4289 28.2391C58.8669 29.5383 58.297 34.3369 61.4557 36.4343L62.4787 34.8936ZM67.3922 43.7425C68.8253 41.6148 68.2521 38.7271 66.115 37.3081L65.092 38.8487C66.3742 39.7002 66.7181 41.4328 65.8583 42.7094L67.3922 43.7425ZM67.3716 51.6841C65.0987 51.78 63.683 49.2497 64.9539 47.3628L63.42 46.3297C61.3019 49.4745 63.6614 53.6916 67.4496 53.5318L67.3716 51.6841ZM76.548 55.9549C76.4567 53.3912 74.2957 51.3919 71.7326 51.5001L71.8106 53.3478C73.3484 53.2829 74.6451 54.4825 74.6998 56.0207L76.548 55.9549ZM81.1993 62.3918C79.4168 63.8054 76.7843 62.5905 76.7033 60.317L74.8551 60.3828C74.99 64.172 79.3776 66.1968 82.3484 63.8408L81.1993 62.3918ZM91.1335 60.4532C89.5527 58.4328 86.6293 58.0856 84.6193 59.6796L85.7684 61.1286C86.9744 60.1722 88.7285 60.3806 89.6769 61.5928L91.1335 60.4532ZM98.68 62.9269C98.0688 65.1182 95.2249 65.6827 93.8231 63.891L92.3666 65.0306C94.7029 68.0168 99.4427 67.0759 100.461 63.4237L98.68 62.9269ZM105.577 55.5194C103.111 54.8139 100.542 56.2514 99.8526 58.7225L101.634 59.2193C102.048 57.7367 103.589 56.8742 105.069 57.2974L105.577 55.5194ZM113.137 53.0849C113.93 55.2169 111.961 57.3452 109.774 56.7196L109.265 58.4977C112.911 59.5403 116.192 55.9932 114.87 52.4397L113.137 53.0849ZM114.363 43.0378C111.953 43.9169 110.719 46.59 111.614 48.9942L113.347 48.349C112.81 46.9065 113.55 45.3027 114.996 44.7753L114.363 43.0378ZM119.047 36.6251C120.943 37.8835 120.601 40.7626 118.463 41.5422L119.097 43.2796C122.659 41.9804 123.229 37.1818 120.07 35.0844L119.047 36.6251ZM114.134 27.7762C112.701 29.9039 113.274 32.7916 115.411 34.2106L116.434 32.6699C115.152 31.8185 114.808 30.0859 115.668 28.8093L114.134 27.7762ZM114.154 19.8346C116.427 19.7387 117.843 22.269 116.572 24.1559L118.106 25.189C120.224 22.0442 117.865 17.8271 114.076 17.9869L114.154 19.8346ZM104.978 15.5638C105.069 18.1275 107.23 20.1268 109.793 20.0186L109.715 18.1709C108.178 18.2358 106.881 17.0362 106.826 15.498L104.978 15.5638ZM100.327 9.12687C102.109 7.71329 104.742 8.92818 104.823 11.2017L106.671 11.1359C106.536 7.34669 102.148 5.32189 99.1776 7.67786L100.327 9.12687ZM90.3926 11.0655C91.9733 13.0859 94.8968 13.4331 96.9067 11.8391L95.7576 10.39C94.5516 11.3464 92.7975 11.1381 91.8491 9.92588L90.3926 11.0655ZM89.1595 6.48813C86.8231 3.5019 82.0833 4.44276 81.0647 8.09497L82.846 8.59181C83.4572 6.40048 86.3011 5.83596 87.7029 7.6277L89.1595 6.48813Z" fill="black" mask="url(#path-6-inside-2_2654_4371)"/>
<circle cx="90.3988" cy="36.3028" r="14.7949" transform="rotate(-11.2275 90.3988 36.3028)" fill="#FFD746" stroke="black" stroke-width="0.924683"/>
<path d="M87.2683 40.9735L86.6987 38.1037L89.2354 37.6002L88.9766 36.2964L86.4398 36.8L85.8857 34.0081L84.4472 34.2937L85.0014 37.0855L82.4576 37.5904L82.7164 38.8942L85.2602 38.3893L85.8299 41.259L87.2683 40.9735ZM98.9551 40.0751L98.3277 36.9148L95.8052 37.4156L94.7587 32.1437C94.5997 31.343 94.5198 30.7549 94.5147 30.3951L92.5519 30.7847C92.2466 31.2872 91.8124 31.7343 91.2579 32.1316C90.7034 32.5289 90.0979 32.8553 89.4388 33.0966L90.0197 36.0231C90.982 35.7878 91.9021 35.3769 92.7813 34.7973L93.396 37.8938L90.2711 38.5141L90.8985 41.6744L98.9551 40.0751Z" fill="black"/>
<defs>
<clipPath id="clip0_2654_4371">
<rect width="83.7363" height="83.7363" fill="white" transform="translate(77.2148 62.1275) rotate(17.847)"/>
</clipPath>
</defs>
</svg>
