<svg width="241" height="217" viewBox="0 0 241 217" fill="none" xmlns="http://www.w3.org/2000/svg">
<path d="M15.4416 145.403C13.5993 146.993 10.1596 150.365 10.8856 153.572C11.5194 156.36 15.0017 157.744 16.3201 158.265C36.8224 166.407 178.15 168.095 189.254 172.144C189.872 172.369 193.072 173.689 196.56 172.642C199.426 171.782 201.157 169.719 202.091 168.577C206.687 162.968 206.147 155.636 205.897 153.398C211.874 155.206 216.721 155.05 219.615 154.717C223.352 154.288 226.349 153.935 228.551 151.552C232.137 147.678 230.702 141.584 230.475 140.689C225.173 124.262 220.714 111.081 217.644 102.12C213.88 91.1418 211.254 83.7751 205.881 68.0205C201.351 54.7361 201.199 51.9632 198.196 45.2628C192.729 33.0504 189.321 25.4272 181.282 19.4059C166.798 8.55173 148.846 11.5482 145.127 12.1689C141.125 12.8369 132.774 14.2337 124.333 20.4814C121.815 22.3476 112.96 28.8967 110.425 37.6288C109.934 39.3208 109.296 42.4117 107.344 46.6241C105.839 49.874 105.064 50.532 104.38 52.6682C103.801 54.4785 103.463 56.8183 104.72 63.3578C106.227 71.1931 107.215 76.3147 111.069 81.9826C113.173 85.0765 115.395 87.2563 116.945 88.6081C106.974 104.54 103.433 108.023 102.307 107.475C101.226 106.944 102.945 102.969 101.021 98.2513C99.6091 94.7945 96.9005 92.5439 94.5962 91.1093C68.3932 88.8844 42.1901 86.6596 15.9871 84.4347C15.4776 84.5987 10.8 86.1924 9.31536 90.8963C8.44969 93.6352 9.11131 96.012 9.43197 96.9468C11.4336 113.099 13.4353 129.251 15.4416 145.403Z" fill="#F4B5C2"/>
<path d="M200.076 145.121C206.882 145.658 213.689 146.195 220.495 146.732C220.744 146.696 221.868 146.497 222.635 145.481C223.47 144.373 223.175 142.878 223.081 142.356C221.891 135.975 198.165 68.4745 195.436 59.7727C193.861 54.7485 191.766 49.8922 190.295 44.8345C189.744 42.935 189.07 40.4876 187.398 37.4975C185.589 34.2598 183.597 32.1585 182.096 30.6017C178.532 26.8962 175.157 24.7507 172.725 23.2272C169.599 21.2684 167.587 20.01 164.534 18.9479C158.532 16.8643 153.338 17.2341 150.116 17.495C148.724 17.6079 145.249 17.9648 140.972 19.3024C138.893 19.9504 135.961 20.8838 132.632 22.9087C128.416 25.4715 125.916 28.346 123.451 31.1861C119.802 35.3851 117.884 38.9412 117.397 39.868C116.372 41.8101 115.656 43.5354 115.167 44.8471" fill="#0A2A2B"/>
<path d="M200.076 145.121C206.882 145.658 213.689 146.195 220.495 146.732C220.744 146.696 221.868 146.497 222.635 145.481C223.47 144.373 223.175 142.878 223.081 142.356C221.891 135.975 198.165 68.4745 195.436 59.7727C193.861 54.7485 191.766 49.8922 190.295 44.8345C189.744 42.935 189.07 40.4876 187.398 37.4975C185.589 34.2598 183.597 32.1585 182.096 30.6017C178.532 26.8962 175.157 24.7507 172.725 23.2272C169.599 21.2684 167.587 20.01 164.534 18.9479C158.532 16.8643 153.338 17.2341 150.116 17.495C148.724 17.6079 145.249 17.9648 140.972 19.3024C138.893 19.9504 135.961 20.8838 132.632 22.9087C128.416 25.4715 125.916 28.346 123.451 31.1861C119.802 35.3851 117.884 38.9412 117.397 39.868C116.372 41.8101 115.656 43.5354 115.167 44.8471" stroke="#0A2A2B" stroke-width="1.85026" stroke-miterlimit="10" stroke-linecap="round" stroke-linejoin="round"/>
<path d="M183.661 135.687C183.611 136.036 174.749 135.207 137.236 130.248C136.817 130.377 135.881 130.721 135.054 131.616C134.232 132.507 133.961 133.465 133.867 133.894C133.268 141.488 132.669 149.083 132.07 156.673C132.139 157.092 132.352 157.986 133.088 158.768C134.449 160.216 136.418 160.023 136.661 159.996C155.402 161.474 174.147 162.953 192.887 164.432C193.52 164.468 194.576 164.43 195.535 163.81C195.535 163.81 196.596 163.119 197.187 161.629C198.52 158.264 201.296 110.194 201.423 107.935C201.004 106.654 200.225 104.82 198.732 102.99C196.152 99.8169 192.964 98.526 191.481 98.0332C171.744 94.0726 161.334 91.9847 161.334 91.9847C161.374 87.9464 161.572 83.67 161.986 79.1833C162.165 77.2764 162.372 75.4135 162.603 73.6036C163.603 73.2788 165.143 72.6347 166.635 71.3139C167.408 70.6279 170.206 68.1528 170.342 64.1406C170.348 63.8859 170.434 58.733 166.238 56.1143C165.994 55.9606 162.278 53.7186 159.081 55.2528C155.768 56.8428 155.384 61.3551 154.291 61.1529C153.614 61.0253 153.337 59.1938 152.781 55.5261C152.32 52.4969 152.387 51.5278 151.516 50.5682C151.29 50.3183 150.597 49.628 147.781 49.0903C143.782 48.3247 143.159 49.3336 140.117 48.6064C138.856 48.3027 136.642 47.7754 134.631 46.0392C133.389 44.9667 133.162 44.2482 132.073 43.9396C130.62 43.5327 129.763 44.4626 127.405 45.2882C124.433 46.3297 121.793 46.2607 120.52 46.2252C117.343 46.1416 115.023 45.2626 114.876 45.6593C114.704 46.1376 118.026 47.4251 117.798 48.4372C117.713 48.811 117.193 48.9277 116.368 49.271C116.368 49.271 114.77 49.9476 113.075 51.2012C110.29 53.2691 110.869 58.6322 110.917 59.0258C111.115 60.684 111.706 62.2618 112.312 63.8733C112.833 65.26 113.159 65.8333 113.532 67.1665C114.039 68.9744 114.113 70.3305 114.175 71.0082C114.566 75.1779 117.014 79.8486 119.979 83.0151C121.601 84.7485 123.113 85.754 123.418 85.9498C128.753 89.4377 134.702 89.0207 137.362 88.6505C137.338 89.4792 137.31 90.303 137.287 91.1317C135.89 90.7848 133.89 90.4322 131.472 90.4966C130.565 90.5179 127.835 90.6087 125.347 91.554C122.214 92.7452 120.566 94.8749 117.827 98.3058C111.901 105.717 108.941 109.423 107.134 111.443C102.972 116.098 100.225 118.452 99.8565 121.118C99.7787 121.692 99.5782 123.941 98.1202 125.13C97.8921 125.316 97.5148 125.569 96.916 126.102C96.0176 126.903 95.519 127.342 95.3009 127.812C94.598 129.311 96.5062 131.591 97.0279 132.212C98.8896 134.433 101.302 135.385 102.845 135.813C101.927 137.285 101.331 138.602 100.948 139.574C99.9093 142.212 99.8145 143.884 99.7968 144.402C99.7466 145.804 99.7096 146.919 100.491 147.598C101.438 148.415 102.931 148.023 103.249 147.936C103.105 148.231 102.291 150.014 103.117 151.837C103.647 153.002 104.568 153.567 105.09 153.891C105.488 154.136 107.545 155.407 109 154.612C109.606 154.284 109.504 153.924 110.625 152.017C111.568 150.411 111.603 150.725 112.706 148.924C113.66 147.361 113.808 146.839 114.358 146.743C115.191 146.6 116.022 147.594 116.391 148.031C117.277 149.094 117.237 149.833 117.717 150.743C118.492 152.22 119.93 152.816 122.046 153.693C122.504 153.882 124.776 154.794 127.939 154.807C128.881 154.812 129.865 154.152 131.08 154.521C131.361 154.608 131.679 154.745 131.924 154.588C132.353 154.316 132.162 153.386 132.086 152.527C132.066 152.312 132.085 152.429 132.385 148.977C132.711 145.249 132.872 143.383 132.954 141.993C133.128 139.083 133.215 137.628 133.218 137.118C133.222 136.543 133.229 135.04 133.668 133.186C133.919 132.12 134.154 131.605 134.579 131.166C135.332 130.381 136.335 130.191 136.754 130.112C137.484 129.975 138.008 130.049 138.748 130.13C139.985 130.27 141.234 130.317 142.477 130.443C145.234 130.73 144.959 130.514 146.838 130.745C149.435 131.066 149.675 131.433 152.501 131.786C152.836 131.826 153.855 131.911 155.875 132.071C159.337 132.349 159.582 132.359 160.426 132.43C162.956 132.648 163.029 132.779 168.572 133.509C171.502 133.893 172.967 134.087 174.226 134.191C175.784 134.323 177.332 134.575 178.894 134.601C179.64 134.614 181.014 134.606 182.636 135.212C183.052 135.361 183.673 135.595 183.661 135.687Z" fill="#F4B5C2" stroke="#0A2A2B" stroke-width="1.85026" stroke-miterlimit="10" stroke-linecap="round" stroke-linejoin="round"/>
<path d="M128.341 139.893C123.344 138.654 118.347 137.42 113.35 136.182C111.404 137.142 110.252 138.276 109.564 139.122C107.683 141.433 107.535 143.718 104.828 146.567C104.439 146.977 104.103 147.289 103.888 147.481C103.776 147.736 103.663 147.987 103.55 148.243" stroke="#0A2A2B" stroke-width="1.85026" stroke-miterlimit="10" stroke-linecap="round" stroke-linejoin="round"/>
<path d="M132.654 133.798C128.08 133.316 124.385 132.686 121.844 132.193C115.734 131.011 113.472 130.099 110.259 130.885C106.772 131.737 104.339 134.056 102.858 135.827" stroke="#0A2A2B" stroke-width="1.85026" stroke-miterlimit="10" stroke-linecap="round" stroke-linejoin="round"/>
<path d="M111.566 130.556C109.932 129.221 108.436 128.421 107.352 127.932C105.868 127.267 105.845 127.497 101.82 126.233C101.354 126.085 100.299 125.751 98.8523 125.563C98.5079 125.517 98.222 125.495 98.0283 125.479" stroke="#0A2A2B" stroke-width="1.85026" stroke-miterlimit="10" stroke-linecap="round" stroke-linejoin="round"/>
<path d="M140.107 159.423C140.916 149.933 141.721 140.438 142.53 130.948" stroke="#0A2A2B" stroke-width="1.85026" stroke-miterlimit="10" stroke-linecap="round" stroke-linejoin="round"/>
<path d="M160.643 92.3291C160.673 93.3058 160.61 95.6951 159.022 97.8898C158.839 98.1399 158.051 99.196 156.552 100.145C152.391 102.772 147.43 101.606 145.107 101.056C142.743 100.499 140.954 100.051 139.627 98.4107C138.19 96.6315 137.997 94.3103 137.984 94.1747C137.889 92.8494 138.241 92.506 138.112 90.5517C138.005 88.9191 137.718 88.5486 137.997 88.0137C138.659 86.7389 141.257 86.9856 142.581 86.9555C145.082 86.8976 148.566 85.734 152.855 80.8941" stroke="#0A2A2B" stroke-width="1.85026" stroke-miterlimit="10" stroke-linecap="round" stroke-linejoin="round"/>
<path d="M137.872 74.6593C136.517 78.6588 133.598 81.3611 130.629 81.3543C128.398 81.3499 126.695 79.8189 125.69 78.9091C122.831 76.3357 122.064 73.055 121.834 71.733" stroke="#0A2A2B" stroke-width="1.85026" stroke-miterlimit="10" stroke-linecap="round" stroke-linejoin="round"/>
<path d="M157.329 100.281C157.342 101.878 157.2 104.201 156.416 106.844C154.822 112.235 151.247 116.668 150.229 116.23C149.21 115.792 151.235 110.709 149.705 109.869C148.86 109.408 147.632 110.615 144.508 112.698C140.017 115.689 137.769 117.182 136.059 116.69C134.026 116.107 134.494 113.764 131.365 109.132C128.407 104.76 125.801 103.612 126.317 102.02C127.009 99.8888 132.373 99.834 132.315 99.0963C132.27 98.5498 129.357 98.8258 128.941 97.8047C128.588 96.9323 130.066 95.1326 135.435 91.6028" stroke="#0A2A2B" stroke-width="1.85026" stroke-miterlimit="10" stroke-linecap="round" stroke-linejoin="round"/>
<path d="M140.448 100.058C139.218 105.306 137.987 110.554 136.757 115.798" stroke="#0A2A2B" stroke-width="1.85026" stroke-miterlimit="10" stroke-linecap="round" stroke-linejoin="round"/>
<path d="M117.437 49.3737C118.302 49.1217 119.637 48.8373 121.265 48.9054C121.774 48.927 123.885 49.0425 126.314 50.2503C127.707 50.9448 128.805 51.4908 129.675 52.7055C130.736 54.1905 130.794 55.7495 130.871 57.8343C130.946 59.8261 130.993 61.1105 130.264 62.5239C129.371 64.263 127.88 65.0967 126.444 65.8928C124.357 67.0552 122.446 67.401 121.518 67.518C118.125 67.9509 115.403 66.9799 114.085 66.398" stroke="#0A2A2B" stroke-width="1.85026" stroke-miterlimit="10" stroke-linecap="round" stroke-linejoin="round"/>
<path d="M151.081 59.1365C150.881 57.9699 150.652 56.6387 149.847 55.2482C148.663 53.2014 146.931 52.2202 145.98 51.6859C144.967 51.1141 142.88 49.9333 140.23 50.2254C139.126 50.347 138.32 50.6779 137.505 51.0172C136.421 51.4653 134.905 52.0882 133.574 53.5515C132.202 55.058 131.76 56.6611 131.469 57.7099C131.203 58.6726 130.835 60.0449 131.084 61.8277C131.332 63.6152 132.075 64.8431 132.507 65.5546C133.054 66.4422 133.916 67.8094 135.627 68.8214C137.014 69.6408 138.277 69.8146 139.209 69.9345C140.174 70.0571 144.345 70.5857 147.543 67.9286C148.785 66.8944 149.511 65.6896 149.97 64.9231C150.52 64.0106 151.019 63.1637 151.213 61.9401C151.377 60.9091 151.249 60.1287 151.081 59.1365Z" stroke="#0A2A2B" stroke-width="1.85026" stroke-miterlimit="10" stroke-linecap="round" stroke-linejoin="round"/>
<path d="M114.961 57.4701C113.835 58.6156 113.27 59.1927 112.986 59.9777C112.409 61.5794 113.034 63.0671 113.136 63.3071C113.65 64.4984 114.534 65.1157 115.15 65.5401C115.506 65.7863 118.95 68.0671 122.011 66.4387C123.038 65.8932 123.596 65.116 124.065 64.4662C124.523 63.8342 125.81 62.0472 125.506 59.7218C125.353 58.5497 124.85 57.6888 124.571 57.277C124.318 56.8998 123.718 56.0358 122.58 55.4635C121.291 54.8096 120.085 54.9186 119.477 54.982C117.965 55.1412 116.933 55.8115 116.483 56.11C115.934 56.4797 115.606 56.8157 114.961 57.4701Z" fill="#0A2A2B" stroke="#0A2A2B" stroke-width="1.3877" stroke-miterlimit="10" stroke-linecap="round" stroke-linejoin="round"/>
<path d="M136.067 57.2375C135.035 57.736 134.403 58.2709 134.259 58.3987C133.586 58.9813 132.601 59.8315 132.389 61.0955C132.302 61.6176 132.472 61.4593 132.628 63.3045C132.749 64.7153 132.667 64.9826 132.927 65.5181C133.198 66.0778 133.586 66.3914 134.236 66.9252C134.427 67.0842 135.082 67.6045 136.098 68.079C136.331 68.1902 137.258 68.6113 138.643 68.8737C140.207 69.1687 140.989 69.314 141.834 68.9491C142.809 68.5296 143.331 67.6798 143.698 67.0824C143.794 66.9276 143.917 66.7146 144.58 64.9016C145.07 63.5714 145.314 62.8992 145.361 62.5364C145.529 61.2319 145.17 60.1874 145.039 59.8477C144.49 58.3984 143.495 57.6053 143.219 57.3933C143.044 57.2635 142.215 56.6506 140.928 56.382C138.773 55.9336 136.984 56.7947 136.067 57.2375Z" fill="#0A2A2B" stroke="#0A2A2B" stroke-width="1.3877" stroke-miterlimit="10" stroke-linecap="round" stroke-linejoin="round"/>
<path d="M162.485 72.9679C161.842 73.1213 160.983 73.2484 159.98 73.2064C158.232 73.1288 156.889 72.5589 156.114 72.1498" fill="#0A2A2B"/>
<path d="M162.485 72.9679C161.842 73.1213 160.983 73.2484 159.98 73.2064C158.232 73.1288 156.889 72.5589 156.114 72.1498" stroke="#0A2A2B" stroke-width="1.3877" stroke-miterlimit="10" stroke-linecap="round" stroke-linejoin="round"/>
<path d="M157.016 63.2563C157.06 63.0464 157.263 62.2411 157.999 61.7934C158.968 61.2063 160.225 61.6349 160.882 62.2992C161.415 62.8377 161.512 63.4904 161.634 64.2934C161.85 65.7303 161.627 67.2068 161.483 67.2048C161.298 67.204 160.653 64.6754 161.716 62.7223C162.161 61.9083 162.948 61.1119 163.336 60.7157C163.896 60.152 164.407 59.7283 164.777 59.4466" fill="#0A2A2B"/>
<path d="M157.016 63.2563C157.06 63.0464 157.263 62.2411 157.999 61.7934C158.968 61.2063 160.225 61.6349 160.882 62.2992C161.415 62.8377 161.512 63.4904 161.634 64.2934C161.85 65.7303 161.627 67.2068 161.483 67.2048C161.298 67.204 160.653 64.6754 161.716 62.7223C162.161 61.9083 162.948 61.1119 163.336 60.7157C163.896 60.152 164.407 59.7283 164.777 59.4466" stroke="#0A2A2B" stroke-width="1.3877" stroke-miterlimit="10" stroke-linecap="round" stroke-linejoin="round"/>
<path d="M97.9381 152.385C96.5337 134.66 95.1244 116.94 93.72 99.2159C67.8462 96.8175 41.972 94.4237 16.0981 92.0253C18.6911 112.21 21.2838 132.399 23.8768 152.583C61.2917 155.377 98.7019 158.171 136.117 160.965C136.297 160.979 132.629 160.355 131.562 157.882C131.346 157.387 131.139 156.595 131.342 155.437C120.208 154.415 109.073 153.398 97.9381 152.385Z" fill="#0A2A2B" stroke="#0A2A2B" stroke-width="1.85026" stroke-miterlimit="10" stroke-linecap="round" stroke-linejoin="round"/>
<path d="M53.6611 136.925C61.6579 137.556 68.6091 132.13 69.1869 124.805C69.7647 117.481 63.7504 111.032 55.7535 110.401C47.7567 109.77 40.8055 115.196 40.2277 122.521C39.6499 129.845 45.6642 136.294 53.6611 136.925Z" fill="#F4B5C2" stroke="#0A2A2B" stroke-width="1.85026" stroke-miterlimit="10" stroke-linecap="round" stroke-linejoin="round"/>
<path d="M23.8151 171.217C23.7241 165.609 22.636 164.19 18.3463 157.718C26.2611 157.676 42.4088 157.616 43.681 157.717C44.9531 157.817 76.8819 161.669 92.6873 163.583L112.059 163.111L153.243 165.026L170.337 166.375L182.822 168.693L196.059 166.537L201.841 160.86C202.182 161.598 205.12 162.262 202.629 164.389C200.627 166.098 200.917 169.187 209.032 174.494C217.147 179.801 213.339 177.368 216.321 180.136C219.303 182.905 217.155 186.469 216.726 191.902C216.297 197.335 214.655 202.939 209.627 204.143C204.598 205.346 204.089 205.039 195.434 204.89C186.778 204.74 178.071 205.253 171.578 204.741C165.084 204.229 161.918 207.179 155.226 209.185C148.534 211.19 148.597 210.395 143.764 205.747C138.93 201.099 134 202.798 131.729 202.798C123.825 202.798 120.068 201.878 112.912 201.313C105.756 200.749 99.0919 199.023 88.0932 198.155C77.0944 197.288 74.4825 198.282 67.9893 197.769C61.4961 197.257 49.7963 195.134 48.2061 195.009C46.6159 194.883 30.7525 194.832 24.6184 193.148C22.3515 189.769 22.3097 190.299 22.7697 184.468C23.0857 180.462 23.9061 176.824 23.8151 171.217Z" fill="#F4B5C2"/>
<path d="M39.2154 185.603C42.6161 185.871 45.4759 185.162 47.6066 183.567C49.7374 181.971 51.1107 179.276 51.3885 175.755C51.6638 172.264 50.7313 169.372 48.8771 167.462C47.0229 165.552 44.2809 164.386 40.9102 164.12L30.4834 163.298C30.6175 164.273 30.6877 165.484 30.7079 166.948C30.7281 168.412 30.6793 169.795 30.5741 171.128L30.1049 177.076C29.9998 178.409 29.8311 179.783 29.5828 181.21C29.3345 182.638 29.0752 183.823 28.7886 184.78L39.2154 185.603ZM37.6088 170.809L40.665 171.05C41.6987 171.132 42.5554 171.546 43.2351 172.293C43.9136 173.055 44.1999 174.012 44.1077 175.181C44.0143 176.364 43.5815 177.265 42.8081 177.897C42.0196 178.528 41.1086 178.803 40.0599 178.72L37.0038 178.479L37.6088 170.809ZM62.2969 187.861C63.81 187.98 65.3487 187.966 66.8968 187.832C68.4462 187.683 69.6419 187.43 70.4989 187.076L70.7774 182.018C70.1584 182.602 69.2655 183.029 68.0986 183.299C66.9317 183.569 65.719 183.654 64.4756 183.556C62.8576 183.428 61.4778 182.958 60.3348 182.159C59.1769 181.359 58.5828 180.483 58.5374 179.53L58.7889 179.399C60.3237 180.771 62.3131 181.35 64.9497 181.558C68.9497 181.874 71.3529 180.646 71.5762 177.815C71.6672 176.661 71.3892 175.599 70.581 174.571C69.4313 173.093 67.0051 171.937 63.1112 171.615C59.8903 171.361 57.1666 172.065 55.4316 173.421C53.6805 174.79 52.6406 176.698 52.4645 178.93C52.2731 181.357 53.0621 183.394 54.8476 185.027C56.6332 186.661 59.1059 187.609 62.2969 187.861ZM62.4214 179.595C60.8184 179.469 59.6357 178.983 58.8582 178.138C59.0604 177.295 59.5007 176.681 60.1504 176.28C60.7989 175.894 61.5357 175.726 62.3447 175.79C64.1574 175.933 65.2345 176.802 65.1388 178.016C65.0974 178.54 64.8096 178.939 64.2743 179.229C63.7377 179.533 63.1255 179.651 62.4214 179.595ZM88.0087 189.452C88.078 188.764 88.2514 187.904 88.5577 186.888C88.849 185.871 89.1816 184.902 89.5557 183.982L91.4376 180C92.3513 177.781 93.3091 175.957 94.3124 174.513L86.3575 173.886C86.2097 175.186 85.9192 176.384 85.4549 177.493L83.4071 182.05C83.1741 182.709 82.8959 183.562 82.5596 184.575L82.2151 184.548C82.0467 183.435 81.8881 182.578 81.7418 181.948L80.4662 177.099C80.2134 176.1 80.0994 174.869 80.1104 173.393L72.1554 172.766C72.9602 174.412 73.634 176.379 74.1644 178.637L75.3986 182.865C75.9105 185.166 76.1235 187.052 76.0388 188.508L88.0087 189.452ZM103.704 191.128C105.218 191.247 106.756 191.233 108.304 191.099C109.854 190.949 111.049 190.697 111.906 190.343L112.185 185.284C111.566 185.869 110.673 186.296 109.506 186.566C108.339 186.835 107.127 186.92 105.883 186.822C104.265 186.695 102.885 186.224 101.742 185.425C100.584 184.626 99.9903 183.75 99.9449 182.796L100.196 182.666C101.731 184.038 103.721 184.617 106.357 184.825C110.357 185.14 112.76 183.913 112.984 181.081C113.075 179.928 112.797 178.866 111.989 177.837C110.839 176.36 108.413 175.204 104.519 174.881C101.298 174.627 98.5741 175.332 96.8392 176.688C95.0881 178.057 94.0482 179.965 93.8721 182.197C93.6806 184.624 94.4696 186.661 96.2552 188.294C98.0408 189.927 100.514 190.876 103.704 191.128ZM103.829 182.862C102.226 182.735 101.043 182.25 100.266 181.405C100.468 180.561 100.908 179.948 101.558 179.547C102.206 179.161 102.943 178.993 103.752 179.057C105.565 179.2 106.642 180.069 106.546 181.282C106.505 181.806 106.217 182.206 105.682 182.495C105.145 182.8 104.533 182.917 103.829 182.862ZM122.78 192.195C122.497 190.047 122.477 187.438 122.718 184.382L123.187 178.434C123.429 175.363 123.858 172.789 124.474 170.712L116.1 170.052C116.249 171.028 116.334 172.241 116.356 173.69C116.376 175.154 116.341 176.553 116.236 177.886L115.766 183.833C115.661 185.167 115.476 186.554 115.228 187.982C114.98 189.409 114.706 190.594 114.405 191.535L122.78 192.195ZM135.09 193.603C138.445 193.868 141.198 193.181 142.934 191.81C144.655 190.439 145.648 188.557 145.826 186.295C146.005 184.033 145.319 182.019 143.835 180.395C142.335 178.769 139.739 177.66 136.398 177.396C133.043 177.132 130.29 177.819 128.569 179.191C126.833 180.561 125.84 182.442 125.662 184.705C125.483 186.967 126.169 188.98 127.668 190.606C129.153 192.231 131.749 193.34 135.09 193.603ZM135.443 189.124C134.379 189.04 133.553 188.628 132.948 187.887C132.342 187.161 132.081 186.266 132.164 185.217C132.246 184.169 132.644 183.326 133.358 182.689C134.07 182.067 134.951 181.789 136.015 181.873C137.109 181.96 137.95 182.373 138.556 183.099C139.147 183.824 139.408 184.719 139.325 185.782C139.241 186.846 138.842 187.689 138.145 188.312C137.433 188.934 136.537 189.21 135.443 189.124ZM155.388 200.948C155.238 199.987 155.166 198.79 155.145 197.341C155.125 195.877 155.175 194.479 155.282 193.116L155.456 190.914L155.861 190.946C156.615 193.613 158.73 195.468 161.966 195.724C164.348 195.912 166.321 195.163 167.593 193.756C168.848 192.362 169.6 190.477 169.779 188.215C169.957 185.953 169.513 183.943 168.492 182.355C167.457 180.766 165.626 179.702 163.244 179.514C160.024 179.26 157.736 180.738 156.47 183.216L156.066 183.184L156.096 182.809C156.146 182.165 156.235 181.614 156.377 181.158C156.503 180.701 156.729 180.131 157.038 179.462L148.664 178.801C148.814 179.763 148.915 180.961 148.938 182.395C148.96 183.829 148.909 185.242 148.8 186.62L148.331 192.568C148.223 193.946 148.052 195.35 147.803 196.777C147.556 198.19 147.268 199.358 146.969 200.284L155.388 200.948ZM159.238 191.122C158.145 191.036 157.289 190.606 156.673 189.819C156.057 189.032 155.781 188.136 155.861 187.117C155.948 186.023 156.349 185.136 157.079 184.485C157.794 183.833 158.706 183.543 159.829 183.631C160.983 183.722 161.87 184.139 162.518 184.899C163.152 185.657 163.424 186.598 163.337 187.707C163.252 188.785 162.837 189.642 162.093 190.292C161.333 190.94 160.392 191.213 159.238 191.122ZM181.276 197.247C182.789 197.366 184.328 197.352 185.876 197.218C187.426 197.069 188.621 196.816 189.478 196.462L189.757 191.404C189.138 191.988 188.245 192.415 187.078 192.685C185.911 192.955 184.698 193.04 183.455 192.942C181.837 192.814 180.457 192.344 179.314 191.545C178.156 190.745 177.562 189.869 177.517 188.916L177.768 188.785C179.303 190.157 181.292 190.736 183.929 190.944C187.929 191.26 190.332 190.032 190.556 187.201C190.647 186.047 190.369 184.985 189.56 183.957C188.411 182.479 185.984 181.323 182.091 181.001C178.87 180.747 176.146 181.451 174.411 182.807C172.66 184.176 171.62 186.084 171.444 188.316C171.252 190.743 172.041 192.78 173.827 194.413C175.613 196.047 178.085 196.995 181.276 197.247ZM181.401 188.981C179.798 188.855 178.615 188.369 177.838 187.524C178.04 186.681 178.48 186.067 179.13 185.666C179.778 185.28 180.515 185.112 181.324 185.176C183.137 185.319 184.214 186.188 184.118 187.402C184.077 187.926 183.789 188.325 183.254 188.615C182.717 188.919 182.105 189.037 181.401 188.981ZM200.351 198.315C199.993 197.126 199.89 195.565 200.042 193.632L200.151 192.254C200.252 190.981 200.799 189.969 201.779 189.202C202.759 188.435 203.886 188.102 205.144 188.201C206.597 188.316 208.017 189.046 208.731 189.931L209.23 183.609C208.55 183.239 207.753 183.025 206.824 182.952C203.888 182.72 201.722 184.57 200.858 188.074L200.483 188.044L200.555 187.131C200.613 186.397 200.763 185.64 201.021 184.861C201.263 184.081 201.583 183.473 201.966 183.006L193.187 182.313C193.49 184.402 193.551 186.684 193.356 189.155L193.155 191.702C193.058 192.931 192.917 193.96 192.746 194.79C192.573 195.636 192.318 196.581 191.977 197.654L200.351 198.315Z" fill="black"/>
</svg>
