<svg width="165" height="172" viewBox="0 0 165 172" fill="none" xmlns="http://www.w3.org/2000/svg">
<rect x="7.68918" y="30.6546" width="68.04" height="68.04" rx="20.165" transform="rotate(-26.13 7.68918 30.6546)" fill="#00A762" stroke="black" stroke-width="1.03"/>
<rect x="23.6892" y="36.0892" width="44.05" height="44.05" rx="20.165" transform="rotate(-26.13 23.6892 36.0892)" stroke="black" stroke-width="1.03"/>
<path d="M44.6118 49.2543C45.7007 48.7201 46.6687 48.0463 47.5369 47.2329C48.405 46.4195 49.0381 45.5538 49.4528 44.6487L46.8315 39.3055L40.8468 42.2416L41.7358 44.2246C42.0784 43.9623 42.5304 43.6881 43.096 43.4107L44.5816 42.6819L45.3273 44.1592C44.9811 44.9051 44.2825 45.5305 43.2359 46.044C42.1132 46.5948 41.0818 46.7552 40.1206 46.5251C39.1594 46.2949 38.4574 45.7178 38.0018 44.7892C37.5132 43.7932 37.5249 42.7925 38.0287 41.7914C38.5324 40.7902 39.4469 39.9645 40.7806 39.3102C41.4475 38.9831 42.1431 38.7361 42.8887 38.5693C43.6342 38.4025 44.2652 38.3652 44.7859 38.4659L43.3002 35.3094C41.8408 35.3446 40.2523 35.7783 38.5387 36.619C37.2641 37.2443 36.2361 38.0733 35.4589 39.0934C34.6858 40.122 34.2314 41.2665 34.1083 42.5312C33.9853 43.796 34.228 45.0593 34.8367 46.3001C35.4455 47.541 36.2708 48.4975 37.3212 49.1656C38.3716 49.8337 39.5253 50.1788 40.7867 50.1884C42.0481 50.1979 43.3203 49.8879 44.6118 49.2543ZM60.6371 41.3925C61.726 40.8583 62.694 40.1844 63.5621 39.3711C64.4303 38.5577 65.0633 37.692 65.4781 36.7869L62.8567 31.4437L56.872 34.3797L57.7611 36.3628C58.1036 36.1004 58.5556 35.8263 59.1212 35.5489L60.6068 34.82L61.3525 36.2974C61.0063 37.0433 60.3078 37.6687 59.2611 38.1822C58.1384 38.733 57.107 38.8934 56.1458 38.6633C55.1846 38.4331 54.4826 37.856 54.0271 36.9274C53.5384 35.9314 53.5502 34.9307 54.0539 33.9295C54.5577 32.9284 55.4722 32.1027 56.8058 31.4484C57.4727 31.1213 58.1684 30.8742 58.9139 30.7075C59.6594 30.5407 60.2904 30.5034 60.8111 30.6041L59.3254 27.4476C57.866 27.4828 56.2775 27.9165 54.564 28.7572C53.2894 29.3825 52.2613 30.2115 51.4841 31.2316C50.711 32.2602 50.2567 33.4047 50.1336 34.6694C50.0105 35.9342 50.2532 37.1975 50.862 38.4383C51.4707 39.6791 52.2961 40.6357 53.3464 41.3038C54.3968 41.9719 55.5506 42.317 56.8119 42.3265C58.0733 42.3361 59.3456 42.0261 60.6371 41.3925Z" fill="black"/>
<path d="M53.3395 58.435C54.0093 57.8115 55.0185 57.1267 56.377 56.3833L57.3017 55.8773L57.3715 56.0048C56.872 56.4853 56.5978 57.0746 56.5425 57.7762C56.4872 58.4777 56.643 59.1715 57.0199 59.8602C57.512 60.7595 58.2026 61.3097 59.1051 61.5203C60.0013 61.7343 60.9961 61.538 62.093 60.9378C64.4208 59.6639 64.4881 57.0912 63.326 54.9674L60.5271 49.8526C59.7615 50.5285 58.714 51.2343 57.3811 51.9636L54.8492 53.3491C53.5227 54.0751 52.3635 54.5768 51.3816 54.8572L53.3395 58.435ZM58.1649 57.485C57.9451 57.0832 57.8865 56.6429 57.9862 56.174C58.0859 55.7051 58.3552 55.3339 58.7941 55.0606L59.5339 54.6558C59.807 55.0036 60.1007 55.4644 60.4148 56.0384C60.9173 56.9568 60.7171 57.7873 60.0028 58.1782C59.6648 58.3632 59.3272 58.3822 58.987 58.2452C58.6369 58.1052 58.3639 57.8486 58.1649 57.485Z" fill="black"/>
<path d="M54.6735 50.3599L54.4133 48.4847L54.4925 48.4458L55.8226 49.7962L57.7408 48.8551C57.5635 48.5258 57.4138 48.1005 57.2916 47.5792L57.1159 46.6287C56.9953 46.1027 56.9373 45.6323 56.9483 45.2224L55.2643 46.0486C55.37 46.2481 55.4736 46.5153 55.5767 46.8536L55.8004 47.9338C55.8154 48.0364 55.8336 48.1217 55.8536 48.1865L55.7682 48.2284L54.1817 46.5797L53.1308 47.0952L53.4653 49.37L53.3956 49.4042L53.2206 49.1994L52.4968 48.3645C52.2986 48.0966 52.1506 47.851 52.0482 47.6263L50.3674 48.4509C50.67 48.6756 51.0097 49.0077 51.377 49.4441L52.0148 50.1679C52.1664 50.3489 52.3132 50.5439 52.4519 50.7547C52.5907 50.9654 52.6918 51.1475 52.7553 51.301L54.6735 50.3599Z" fill="black"/>
<path d="M25.7131 54.8216L28.2145 57.8121L30.9122 56.4887L29.7604 59.6604L32.2618 62.6509L29.0486 61.6206L27.8968 64.7923L27.0627 60.9839L23.8495 59.9535L26.5472 58.6301L25.7131 54.8216Z" fill="black"/>
<path d="M76.7131 29.8216L79.2145 32.8121L81.9122 31.4887L80.7604 34.6604L83.2618 37.6509L80.0486 36.6206L78.8968 39.7923L78.0627 35.9839L74.8495 34.9535L77.5472 33.6301L76.7131 29.8216Z" fill="black"/>
<path d="M26.273 42.6474C25.7641 42.6558 25.2941 42.6162 24.8623 42.5323L24.4663 42.4552L23.1616 41.2238C22.8736 40.9716 22.5834 40.6929 22.2831 40.3901C21.9857 40.0916 21.7448 39.8262 21.5554 39.6005L21.1417 41.7272C21.5809 42.0014 21.9465 42.254 22.2386 42.4849L22.7038 42.9493L22.6885 43.0278L22.091 43.2819C21.7493 43.3821 21.3128 43.475 20.7837 43.5683L20.3687 45.7021C20.9103 45.4112 21.6095 45.1102 22.4676 44.792L24.1309 44.1416L24.5198 44.2172C25.0015 44.3109 25.4585 44.4553 25.8837 44.6491L26.273 42.6474Z" fill="black"/>
<path d="M27.7916 38.3604C28.0919 37.6036 28.1292 36.9184 27.9361 36.4194C27.7417 35.9238 27.3776 35.5603 26.8674 35.3578C26.3572 35.1554 25.8429 35.1703 25.3615 35.3978C24.8789 35.6286 24.4375 36.1495 24.1385 36.903C23.8382 37.6598 23.8009 38.3451 23.9953 38.8407C24.1884 39.3396 24.5526 39.7031 25.0628 39.9056C25.5729 40.108 26.0873 40.0931 26.5699 39.8623C27.0513 39.6349 27.4926 39.1139 27.7916 38.3604ZM26.7814 37.9596C26.6862 38.1994 26.5321 38.3612 26.3176 38.4482C26.1066 38.5365 25.8811 38.5331 25.6446 38.4392C25.4081 38.3454 25.2417 38.1933 25.1452 37.9829C25.0522 37.774 25.0509 37.5505 25.1461 37.3106C25.244 37.064 25.3994 36.8989 25.6105 36.8105C25.8202 36.7256 26.0456 36.729 26.2855 36.8242C26.5254 36.9194 26.6919 37.0715 26.7863 37.2771C26.8793 37.4861 26.8792 37.7129 26.7814 37.9596Z" fill="black"/>
<path d="M30.0298 33.9261C30.4335 33.2911 30.4112 32.6825 29.9629 32.1003L30.0155 32.0175L30.0922 32.0663C30.353 32.232 30.5521 32.4405 30.6916 32.6885L31.8032 30.94C31.3278 30.7799 30.8334 30.5345 30.318 30.2069L29.8027 29.8793C29.5481 29.7174 29.3381 29.5667 29.1788 29.431C29.0176 29.2983 28.8466 29.1337 28.662 28.943L27.568 30.664C27.7249 30.6948 27.9447 30.7828 28.2302 30.9299C28.5169 31.082 28.7609 31.2199 28.9664 31.3506L29.267 31.5417C29.4695 31.6704 29.6003 31.844 29.6545 32.0637C29.7118 32.2853 29.6731 32.5019 29.5385 32.7136C29.4079 32.9191 29.2409 33.0327 29.0338 33.0604C28.8297 33.09 28.6178 33.0371 28.4031 32.9006L28.1086 32.7134C27.6362 32.4131 27.2268 32.0882 26.8834 31.7407L25.7933 33.4555C26.274 33.6276 26.793 33.8886 27.3482 34.2415L27.6826 34.4541C28.1274 34.7369 28.5551 34.8365 28.9677 34.7499C29.3802 34.6633 29.7353 34.3893 30.0298 33.9261Z" fill="black"/>
<path d="M35.2809 27.5178C35.866 26.9998 35.9984 26.3486 35.7687 25.7218L35.8477 25.6519L35.9079 25.72C36.0115 25.837 36.0925 25.9449 36.1509 26.0438C36.2065 26.145 36.2678 26.2801 36.3269 26.451L37.8484 25.1042C37.4339 24.806 36.9736 24.3737 36.4724 23.8075L35.5159 22.727C35.0123 22.1581 34.639 21.6487 34.3933 21.2011L32.8718 22.548C33.2863 22.8462 33.7467 23.2785 34.2502 23.8474L34.6044 24.2475L34.5309 24.3125C33.9399 23.9959 33.2618 24.0524 32.6739 24.5728C32.2411 24.9559 32.0373 25.4276 32.0714 25.8829C32.1055 26.3382 32.3098 26.7884 32.6736 27.1994C33.3868 28.0051 34.3936 28.3033 35.2809 27.5178ZM35.1377 26.2319C34.9281 26.4174 34.7039 26.5042 34.4655 26.4871C34.2271 26.47 34.0199 26.3621 33.844 26.1634C33.6681 25.9647 33.5862 25.746 33.5981 25.5072C33.6101 25.2685 33.7234 25.0565 33.933 24.871C34.1371 24.6903 34.3555 24.6134 34.5913 24.6329C34.827 24.6524 35.0314 24.7627 35.2049 24.9587C35.3711 25.1465 35.4507 25.3625 35.4463 25.6043C35.4419 25.8461 35.3364 26.056 35.1377 26.2319Z" fill="black"/>
<path d="M37.6309 20.4122C37.6863 20.198 37.6498 19.996 37.5245 19.8043C37.3972 19.6096 37.2249 19.4921 37.0064 19.4568C36.788 19.4215 36.5656 19.48 36.3344 19.6312C36.1031 19.7823 35.9604 19.9625 35.908 20.1747C35.8526 20.389 35.8911 20.594 36.0184 20.7887C36.1437 20.9804 36.314 21.0949 36.5325 21.1302C36.7479 21.1674 36.9702 21.1089 37.2015 20.9578C37.4327 20.8066 37.5755 20.6265 37.6309 20.4122ZM40.1984 23.6759C39.8316 23.3207 39.4389 22.8262 39.0252 22.1933L38.4624 21.3322C38.2754 21.0462 38.1435 20.8111 38.0615 20.6258C37.9696 20.8639 37.7679 21.0869 37.4485 21.2958C37.129 21.5046 36.8347 21.6058 36.5614 21.6063C36.6763 21.7223 36.8387 21.9375 37.0475 22.257L37.6103 23.1181C38.024 23.7509 38.3194 24.3092 38.4975 24.7877L40.1984 23.6759Z" fill="black"/>
<path d="M42.5446 22.535C43.2539 22.2069 43.5677 21.6212 43.5278 20.9548L43.6235 20.9105L43.6616 20.993C43.7273 21.1349 43.7738 21.2615 43.8013 21.3729C43.8256 21.4859 43.8455 21.6329 43.853 21.8136L45.6972 20.9606C45.3859 20.5559 45.0691 20.0096 44.7517 19.3233L44.1459 18.0136C43.8269 17.324 43.6157 16.7289 43.5089 16.2296L41.6647 17.0826C41.976 17.4873 42.2928 18.0336 42.6117 18.7232L42.8361 19.2081L42.747 19.2493C42.2718 18.7763 41.606 18.6357 40.8934 18.9653C40.3689 19.2079 40.0381 19.6012 39.94 20.0471C39.8419 20.493 39.9083 20.9829 40.1387 21.4811C40.5904 22.4576 41.4691 23.0325 42.5446 22.535ZM42.7768 21.2621C42.5228 21.3796 42.2832 21.3983 42.0597 21.3135C41.8362 21.2286 41.6687 21.0657 41.5573 20.8249C41.4459 20.5841 41.4303 20.351 41.5103 20.1258C41.5903 19.9005 41.7598 19.73 42.0138 19.6125C42.2613 19.498 42.4925 19.4872 42.7127 19.5736C42.9329 19.66 43.0971 19.8244 43.2069 20.0619C43.3122 20.2895 43.3264 20.5193 43.2527 20.7496C43.179 20.9799 43.0177 21.1507 42.7768 21.2621Z" fill="black"/>
<path d="M51.3871 21.3956C52.8335 21.1637 54.0362 20.3302 53.8439 19.1314C53.8129 18.9376 53.7321 18.7554 53.6058 18.5879L53.4291 17.4861C53.3094 16.7395 53.2672 16.1094 53.2996 15.5998L51.2933 15.9216C51.3885 16.0794 51.4535 16.2088 51.4959 16.3125C51.5353 16.4203 51.5679 16.555 51.5938 16.7165L51.607 16.799L51.5101 16.8146C51.1635 16.2369 50.566 15.9315 49.8051 16.0535C49.2344 16.1451 48.8137 16.4371 48.5985 16.8398C48.3797 17.243 48.3115 17.7362 48.3984 18.2782C48.4853 18.8201 48.7032 19.2601 49.0365 19.5711C49.3669 19.8863 49.8572 20.0285 50.4279 19.937C51.2067 19.8121 51.6729 19.3213 51.8072 18.6666L51.8897 18.6533C52.0658 18.7871 52.1688 18.9473 52.1993 19.1375C52.2517 19.4641 52.1592 19.7366 51.9259 19.9581C51.6921 20.176 51.3512 20.3227 50.9097 20.3935C50.5221 20.4557 50.1181 20.4616 49.6971 20.4076C49.2761 20.3536 48.9427 20.2488 48.6969 20.0931L48.928 21.4881C49.2259 21.5324 49.6035 21.5455 50.0608 21.5274C50.5181 21.5092 50.96 21.4641 51.3871 21.3956ZM50.989 18.7757C50.7126 18.82 50.4804 18.7726 50.2919 18.6298C50.0997 18.4876 49.9832 18.2891 49.9418 18.0306C49.8992 17.765 49.9466 17.5329 50.0846 17.3377C50.2191 17.1431 50.4248 17.0254 50.7012 16.9811C50.9703 16.938 51.1959 16.9901 51.3845 17.1329C51.573 17.2757 51.6871 17.482 51.7291 17.744C51.7689 17.9916 51.7203 18.2166 51.5828 18.4154C51.4453 18.6141 51.2474 18.7342 50.989 18.7757Z" fill="black"/>
<path d="M56.6597 19.3497C56.5541 19.0685 56.5042 18.6935 56.51 18.2246L56.5142 17.8902C56.518 17.5812 56.6338 17.3282 56.858 17.1274C57.0823 16.9266 57.3489 16.8281 57.6542 16.8319C58.0068 16.8362 58.3611 16.9897 58.5477 17.1919L58.5666 15.658C58.3967 15.5796 58.2009 15.5408 57.9755 15.538C57.2631 15.5292 56.7701 16.0103 56.6177 16.87L56.5268 16.8688L56.5295 16.6471C56.5317 16.469 56.5558 16.2839 56.6055 16.0919C56.6515 15.8998 56.7188 15.7479 56.8039 15.629L54.6739 15.6027C54.7804 16.102 54.8318 16.6516 54.8244 17.2513L54.8168 17.8692C54.8131 18.1673 54.7954 18.4179 54.7675 18.6211C54.7395 18.828 54.693 19.0601 54.6279 19.3246L56.6597 19.3497Z" fill="black"/>
<path d="M61.6171 19.9882C61.9788 20.0511 62.3497 20.0825 62.7255 20.0852C63.102 20.0843 63.3957 20.0505 63.6101 19.9845L63.7915 18.7727C63.6293 18.8994 63.4046 18.9821 63.1174 19.0206C62.8303 19.0592 62.5363 19.0523 62.2391 19.0006C61.8523 18.9333 61.5306 18.7888 61.2734 18.5706C61.0127 18.3518 60.8894 18.1274 60.9 17.8968L60.9635 17.8709C61.3021 18.2361 61.7681 18.4205 62.3984 18.5302C63.3546 18.6966 63.9611 18.4554 64.0789 17.7785C64.1269 17.5028 64.084 17.2407 63.9126 16.9748C63.6691 16.5929 63.1109 16.2596 62.1804 16.094C61.4105 15.96 60.7386 16.0681 60.2901 16.3554C59.8374 16.6456 59.5439 17.0815 59.451 17.6151C59.3501 18.1952 59.494 18.7036 59.8871 19.1373C60.2802 19.571 60.8543 19.8554 61.6171 19.9882ZM61.8339 18.0003C61.4507 17.9336 61.1769 17.79 61.0087 17.5689C61.0765 17.3704 61.1964 17.2326 61.3619 17.1507C61.5268 17.0724 61.7081 17.0486 61.9014 17.0823C62.3348 17.1577 62.5745 17.3913 62.524 17.6813C62.5022 17.8067 62.4239 17.8964 62.2884 17.9539C62.1523 18.0151 62.0022 18.0296 61.8339 18.0003Z" fill="black"/>
<path d="M65.4871 20.9973C66.175 21.2435 66.7279 21.1441 67.0666 20.802L67.1453 20.8302L67.1233 20.8918C67.0424 21.1177 66.9435 21.2753 66.8266 21.3647L68.6131 22.0041C68.6105 21.8063 68.6442 21.5828 68.7072 21.3313C68.7702 21.0797 68.8802 20.7291 69.0395 20.2842L69.2526 19.6887C69.5747 18.7886 68.9959 18.0757 67.514 17.5454C67.2334 17.4449 66.91 17.3562 66.5459 17.2838C66.1785 17.2102 65.9056 17.1743 65.7239 17.1749L65.365 18.1777C65.5321 18.1101 65.75 18.0838 66.0187 18.0989C66.284 18.1128 66.5576 18.1682 66.8348 18.2674C67.1462 18.3789 67.3818 18.5404 67.5404 18.7555C67.6955 18.9693 67.7259 19.208 67.6291 19.4783L67.5189 19.7864L67.4265 19.7533C67.3803 19.2889 67.0219 18.8556 66.3477 18.6143C65.8925 18.4514 65.4962 18.437 65.1608 18.5756C64.8255 18.7143 64.5972 18.953 64.476 19.2919C64.3976 19.5109 64.3813 19.729 64.4249 19.9415C64.5097 20.3734 64.8813 20.7805 65.4871 20.9973ZM66.491 20.4686C66.0803 20.3216 65.8897 20.0449 65.9792 19.7951C66.0723 19.535 66.388 19.4511 66.8021 19.5993C67.004 19.6716 67.1536 19.7714 67.2462 19.9011C67.3388 20.0307 67.3636 20.1555 67.3207 20.2753C67.2264 20.5388 66.9051 20.6168 66.491 20.4686Z" fill="black"/>
<path d="M71.2654 23.613C71.406 23.6894 71.5633 23.7501 71.7357 23.7983C71.9049 23.8448 72.0587 23.8663 72.1872 23.8658L72.8122 22.7161C72.6692 22.7584 72.4298 22.7193 72.2478 22.6203C72.0721 22.5248 71.9498 22.3921 71.8858 22.2208C71.82 22.0526 71.8391 21.8727 71.9416 21.6843L72.5683 20.5314L73.635 21.1113L73.8728 20.6737L72.8062 20.0939L73.518 18.7845L71.9422 18.3954L71.4265 19.3439L70.8453 19.0279L70.6075 19.4654L71.1887 19.7814L70.2737 21.4644C69.8241 22.2916 70.1541 23.0088 71.2654 23.613Z" fill="black"/>
<path d="M37.7142 74.7447C37.8409 74.2517 38.0036 73.809 38.199 73.4149L38.3782 73.0534L39.9112 72.1216C40.2307 71.9108 40.5763 71.7048 40.9478 71.4954C41.3145 71.2877 41.6342 71.1257 41.902 71.0028L39.961 70.0406C39.5801 70.3914 39.2397 70.6771 38.9398 70.8975L38.3686 71.223L38.297 71.1875L38.2103 70.544C38.2042 70.188 38.2303 69.7425 38.2805 69.2075L36.3329 68.2421C36.4699 68.8414 36.5749 69.5954 36.6544 70.5071L36.8409 72.2833L36.665 72.6383C36.447 73.0779 36.1867 73.4804 35.8871 73.839L37.7142 74.7447Z" fill="black"/>
<path d="M42.5409 76.5663C43.3244 76.788 44.0098 76.7554 44.4866 76.5125C44.9598 76.2687 45.2844 75.8695 45.4339 75.3413C45.5834 74.8132 45.5162 74.3031 45.2409 73.8474C44.9622 73.3907 44.399 73.0046 43.619 72.7839C42.8356 72.5621 42.1501 72.5948 41.6769 72.8386C41.2001 73.0814 40.8756 73.4807 40.7261 74.0088C40.5766 74.537 40.6438 75.0471 40.9225 75.5038C41.1978 75.9595 41.7609 76.3455 42.5409 76.5663ZM42.8369 75.5205C42.5886 75.4502 42.412 75.3134 42.3036 75.1089C42.1943 74.908 42.1748 74.6833 42.244 74.4385C42.3133 74.1936 42.4477 74.0126 42.6471 73.8952C42.8456 73.7814 43.0677 73.7574 43.316 73.8277C43.5714 73.8999 43.7515 74.0378 43.8608 74.2387C43.9667 74.4387 43.9862 74.6633 43.9159 74.9117C43.8456 75.16 43.7113 75.3411 43.5163 75.4559C43.3179 75.5698 43.0922 75.5928 42.8369 75.5205Z" fill="black"/>
<path d="M48.0523 77.6097C48.8018 77.6763 49.332 77.3767 49.643 76.711L49.7407 76.7196L49.7327 76.8102C49.7054 77.1179 49.6118 77.3906 49.4556 77.6286L51.5195 77.8119C51.4431 77.3161 51.4337 76.7642 51.4877 76.1559L51.5418 75.5476C51.5685 75.2471 51.6058 74.9913 51.6531 74.7875C51.6968 74.5834 51.7644 74.3558 51.8488 74.1042L49.8176 73.9238C49.8623 74.0774 49.8852 74.313 49.8858 74.6342C49.8826 74.9587 49.8723 75.2388 49.8507 75.4813L49.8192 75.8362C49.798 76.0752 49.7039 76.2712 49.5338 76.4203C49.3633 76.573 49.1531 76.6383 48.9033 76.6161C48.6607 76.5945 48.4831 76.4985 48.3633 76.3273C48.2432 76.1597 48.1927 75.9472 48.2152 75.6937L48.2461 75.3461C48.2956 74.7885 48.3959 74.2756 48.5467 73.8109L46.5227 73.6311C46.5909 74.1371 46.5976 74.718 46.5394 75.3733L46.5044 75.768C46.4578 76.293 46.5659 76.7186 46.8325 77.0452C47.0991 77.3718 47.5056 77.5612 48.0523 77.6097Z" fill="black"/>
<path d="M57.2902 77.3138C58.0577 77.1666 58.5037 76.674 58.6258 76.0177L58.7293 75.9978L58.7465 76.0871C58.7759 76.2406 58.7905 76.3747 58.7903 76.4895C58.7865 76.605 58.7704 76.7524 58.734 76.9296L60.7297 76.547C60.5252 76.0792 60.3497 75.4725 60.2073 74.73L59.9356 73.3127C59.7925 72.5665 59.7313 71.938 59.7482 71.4277L57.7525 71.8103C57.957 72.2782 58.1325 72.8848 58.2756 73.6309L58.3762 74.1557L58.2798 74.1742C57.9329 73.6004 57.3207 73.3032 56.5496 73.4511C55.982 73.5599 55.5661 73.8617 55.3632 74.2707C55.1603 74.6797 55.1065 75.1712 55.2099 75.7103C55.4125 76.767 56.1264 77.5369 57.2902 77.3138ZM57.8229 76.1346C57.548 76.1873 57.3109 76.1476 57.1145 76.0113C56.9181 75.875 56.7949 75.6766 56.745 75.416C56.695 75.1554 56.736 74.9254 56.8681 74.7261C57.0001 74.5269 57.2057 74.4023 57.4806 74.3496C57.7484 74.2983 57.9754 74.3436 58.1683 74.4806C58.3611 74.6176 58.4807 74.8167 58.53 75.0737C58.5772 75.3201 58.5355 75.5464 58.4084 75.7522C58.2812 75.9579 58.0835 76.0847 57.8229 76.1346Z" fill="black"/>
<path d="M62.0641 71.6498C62.1698 71.4554 62.1834 71.2506 62.1083 71.0343C62.032 70.8145 61.8933 70.6587 61.6898 70.5716C61.4864 70.4844 61.2566 70.4872 60.9956 70.5778C60.7346 70.6684 60.5524 70.8086 60.4502 71.0019C60.3445 71.1963 60.3321 71.4045 60.4084 71.6243C60.4835 71.8406 60.6211 71.993 60.8245 72.0801C61.0244 72.1685 61.2543 72.1656 61.5153 72.0751C61.7763 71.9845 61.9585 71.8443 62.0641 71.6498ZM63.764 75.4385C63.4943 75.005 63.2331 74.43 62.9852 73.7157L62.6478 72.7439C62.5358 72.4211 62.4648 72.161 62.4301 71.9614C62.2832 72.1702 62.0336 72.3377 61.673 72.4628C61.3124 72.588 61.0024 72.6148 60.7371 72.5491C60.8205 72.6895 60.9259 72.9376 61.051 73.2982L61.3884 74.27C61.6363 74.9843 61.7876 75.5975 61.8444 76.1049L63.764 75.4385Z" fill="black"/>
<path d="M66.6177 74.2909C67.3113 73.9309 67.5982 73.3315 67.528 72.6676L67.6215 72.619L67.6634 72.6997C67.7354 72.8384 67.7877 72.9628 67.8202 73.0729C67.8496 73.1846 67.8762 73.3305 67.8919 73.5108L69.6954 72.5746C69.3659 72.1845 69.0246 71.6532 68.6763 70.9821L68.0114 69.7013C67.6614 69.027 67.4233 68.4421 67.2939 67.9481L65.4904 68.8843C65.8199 69.2744 66.1612 69.8057 66.5112 70.48L66.7574 70.9543L66.6703 70.9995C66.1741 70.5485 65.5026 70.4384 64.8057 70.8001C64.2927 71.0664 63.9802 71.4743 63.9025 71.9242C63.8248 72.3741 63.9134 72.8605 64.1663 73.3477C64.662 74.3026 65.5659 74.8369 66.6177 74.2909ZM66.7917 73.0088C66.5433 73.1377 66.3048 73.1673 66.0777 73.0927C65.8505 73.0181 65.6759 72.8631 65.5536 72.6276C65.4314 72.3921 65.4051 72.16 65.4748 71.9313C65.5445 71.7026 65.706 71.5246 65.9544 71.3956C66.1964 71.27 66.4269 71.2487 66.6508 71.3249C66.8747 71.4012 67.0462 71.5579 67.1667 71.7902C67.2823 72.0129 67.3069 72.2417 67.2438 72.4752C67.1806 72.7086 67.0273 72.8865 66.7917 73.0088Z" fill="black"/>
<path d="M75.8792 69.7926C76.95 68.7928 77.4828 67.43 76.6542 66.5426C76.5202 66.3991 76.3516 66.293 76.1533 66.2245L75.3917 65.4088C74.8757 64.8562 74.489 64.3569 74.2315 63.916L72.7463 65.3027C72.9134 65.3805 73.0396 65.4517 73.1326 65.514C73.2254 65.5815 73.3277 65.675 73.4393 65.7946L73.4964 65.8557L73.4246 65.9226C72.8146 65.6368 72.1483 65.7169 71.5851 66.2428C71.1626 66.6372 70.9765 67.1143 71.0227 67.5686C71.0662 68.0253 71.2849 68.4726 71.6595 68.8738C72.0341 69.275 72.4603 69.5185 72.9105 69.5905C73.3605 69.6676 73.8468 69.512 74.2692 69.1175C74.8458 68.5792 74.9587 67.9118 74.7047 67.2936L74.7658 67.2365C74.9866 67.2493 75.1614 67.3247 75.2929 67.4655C75.5187 67.7073 75.594 67.9851 75.5241 68.299C75.4517 68.6103 75.2507 68.9223 74.9239 69.2274C74.6369 69.4954 74.305 69.7257 73.9255 69.9159C73.5461 70.1061 73.2109 70.2052 72.92 70.2132L73.8904 71.2418C74.1623 71.1122 74.4829 70.9123 74.8522 70.6421C75.2215 70.3718 75.5631 70.0878 75.8792 69.7926ZM74.0867 67.8408C73.8821 68.0318 73.663 68.122 73.4268 68.1088C73.188 68.098 72.9805 67.9983 72.8019 67.807C72.6184 67.6104 72.5281 67.3913 72.5338 67.1523C72.5367 66.9158 72.6417 66.7034 72.8463 66.5123C73.0456 66.3263 73.2619 66.2437 73.498 66.2569C73.7342 66.2702 73.944 66.3777 74.1251 66.5716C74.2962 66.7549 74.3815 66.9688 74.3784 67.2104C74.3752 67.4521 74.278 67.6622 74.0867 67.8408Z" fill="black"/>
<path d="M78.7926 63.9961C78.5038 63.9136 78.1726 63.7306 77.7992 63.4471L77.5328 63.2448C77.2867 63.058 77.1522 62.8143 77.1242 62.5146C77.0962 62.2149 77.1756 61.9421 77.3603 61.6989C77.5735 61.4181 77.9076 61.2245 78.1812 61.1949L76.9595 60.2672C76.7954 60.3571 76.6477 60.4914 76.5114 60.6709C76.0806 61.2383 76.1739 61.9208 76.7743 62.5547L76.7193 62.6271L76.5427 62.493C76.4009 62.3853 76.2664 62.2558 76.1416 62.1017C76.0145 61.9504 75.9325 61.806 75.8875 61.6669L74.5993 63.3633C75.0641 63.5747 75.5364 63.8603 76.0141 64.2231L76.5062 64.5968C76.7436 64.777 76.9346 64.9403 77.0813 65.0837C77.2309 65.2292 77.3898 65.4047 77.5638 65.6143L78.7926 63.9961Z" fill="black"/>
<path d="M81.8035 59.3639C81.9765 59.0401 82.1223 58.6976 82.2425 58.3415C82.3595 57.9836 82.4193 57.6941 82.4237 57.4698L81.3295 56.9183C81.3991 57.1121 81.4073 57.3514 81.3541 57.6361C81.3009 57.9209 81.2023 58.198 81.0602 58.4641C80.8752 58.8104 80.6373 59.0706 80.3496 59.2467C80.0602 59.4259 79.8085 59.4728 79.5928 59.3905L79.5881 59.3221C80.0409 59.1147 80.3619 58.7299 80.6633 58.1655C81.1206 57.3095 81.0812 56.6579 80.4752 56.3342C80.2283 56.2024 79.966 56.1611 79.6598 56.2407C79.2209 56.3525 78.7297 56.7783 78.2812 57.6102C77.913 58.2996 77.8055 58.9716 77.9379 59.4874C78.0719 60.0081 78.3941 60.4234 78.8718 60.6786C79.3912 60.956 79.9191 60.9784 80.454 60.7407C80.989 60.5031 81.4387 60.0468 81.8035 59.3639ZM79.9833 58.5359C79.8001 58.879 79.578 59.0941 79.3153 59.1846C79.148 59.0582 79.0547 58.9012 79.0287 58.7183C79.0059 58.5372 79.04 58.3576 79.1325 58.1845C79.3398 57.7965 79.6366 57.6419 79.8963 57.7806C80.0086 57.8405 80.0692 57.943 80.0815 58.0897C80.0971 58.2381 80.0638 58.3852 79.9833 58.5359Z" fill="black"/>
<path d="M83.6264 55.1568C83.8565 54.4634 83.7442 53.9129 83.3943 53.5824L83.4206 53.503L83.4827 53.5236C83.7104 53.5992 83.8703 53.6944 83.9625 53.8092L84.56 52.0083C84.3623 52.0154 84.1381 51.987 83.8852 51.9299C83.6322 51.8727 83.2792 51.7709 82.8307 51.6221L82.2304 51.4229C81.323 51.1218 80.6238 51.7171 80.1281 53.211C80.0342 53.4939 79.953 53.8193 79.8892 54.1849C79.8242 54.554 79.7946 54.8276 79.7995 55.0092L80.8104 55.3446C80.7389 55.1792 80.7075 54.962 80.7164 54.693C80.724 54.4274 80.7731 54.1527 80.8658 53.8732C80.97 53.5592 81.126 53.3199 81.3373 53.1564C81.5474 52.9964 81.7853 52.9604 82.0579 53.0508L82.3684 53.1539L82.3375 53.247C81.8743 53.304 81.4495 53.6724 81.224 54.352C81.0717 54.8109 81.0665 55.2075 81.2129 55.5395C81.3594 55.8715 81.6034 56.0942 81.9449 56.2075C82.1657 56.2808 82.3842 56.2919 82.5956 56.2434C83.0254 56.1485 83.4237 55.7675 83.6264 55.1568ZM83.0744 54.1656C82.937 54.5796 82.6649 54.7765 82.413 54.693C82.1508 54.606 82.0596 54.2923 82.1981 53.8748C82.2656 53.6713 82.362 53.5194 82.4894 53.4238C82.6169 53.3282 82.741 53.3005 82.8618 53.3405C83.1274 53.4287 83.2129 53.7481 83.0744 54.1656Z" fill="black"/>
<path d="M85.2634 48.4757C85.2901 48.318 85.2964 48.1495 85.286 47.9708C85.275 47.7956 85.2454 47.6432 85.2032 47.5218L83.9129 47.304C83.9993 47.4255 84.04 47.6646 84.0056 47.8689C83.9723 48.0661 83.8865 48.2249 83.7452 48.3411C83.6076 48.458 83.4312 48.4982 83.2197 48.4625L81.9258 48.2442L82.1278 47.047L81.6368 46.9641L81.4347 48.1613L79.9651 47.9133L80.1089 49.5301L81.1734 49.7097L81.0633 50.3621L81.5544 50.4449L81.6644 49.7926L83.5534 50.1114C84.4817 50.2681 85.0529 49.723 85.2634 48.4757Z" fill="black"/>
<g clip-path="url(#clip0_2660_4433)">
<path d="M100.024 75.6924C100.022 75.5562 99.1042 75.6909 98.2839 75.1578C97.3728 74.5662 97.097 73.4828 96.9453 72.8858C96.8487 72.5104 96.5763 71.3738 97.0142 70.0897C97.4425 68.833 98.3031 68.1791 99.6306 67.1711C100.652 66.3945 101.722 65.5795 103.33 65.3014C104.115 65.1662 104.726 65.2091 105.773 65.2861C106.772 65.3605 107.713 65.4277 108.871 65.8567C109.437 66.0648 110.416 66.437 111.386 67.3236C112.035 67.918 112.236 68.4736 112.353 68.4215C112.547 68.3314 112.131 66.7884 111.463 65.398C111.15 64.7465 110.821 64.2068 110.209 63.2059C109.505 62.0546 109.339 61.892 109.123 61.3029C108.928 60.7733 108.662 60.0263 108.814 59.0868C108.945 58.2713 109.326 57.717 109.495 57.4751C109.693 57.1926 110.402 56.1819 111.715 55.8614C112.578 55.6505 113.289 55.8414 113.811 55.9904C114.205 56.1017 115.141 56.4118 116.28 57.4201C118.312 59.2202 119.872 62.2432 119.83 64.7675C119.829 64.8496 119.814 65.6002 119.916 65.6127C120.069 65.6313 119.981 63.888 121.001 62.6781C121.825 61.7004 123.231 61.2457 124.495 61.3809C124.782 61.4127 125.824 61.5555 126.744 62.3538C128.16 63.5792 128.276 65.4809 128.337 66.7688C128.479 69.7834 127.435 72.1729 125.921 75.542C125.213 77.122 124.548 78.372 124.107 79.1687C123.981 81.0061 123.878 82.4417 123.814 83.3318C123.662 85.4885 123.629 85.8607 123.408 86.4313C122.693 88.2791 121.114 89.2723 120.076 89.9267C119.193 90.483 117.823 91.1412 115.441 91.5401C109.185 92.5923 104.089 90.4345 102.634 89.764C99.7543 88.436 98.4262 87.0631 97.9415 86.5266C97.3286 85.848 96.2505 84.629 95.7167 82.7049C95.479 81.8538 95.0555 80.3225 95.7 78.64C95.8715 78.193 96.279 77.1329 97.3116 76.4684C98.5502 75.6708 100.025 75.8633 100.024 75.6924Z" fill="#8972ED" stroke="white" stroke-width="1.1998" stroke-miterlimit="10" stroke-linecap="round" stroke-linejoin="round"/>
<path d="M112.027 67.661C112.204 68.2833 112.387 69.2003 112.337 70.3103C112.299 71.1404 112.141 71.8388 111.979 72.366" stroke="white" stroke-width="1.1998" stroke-miterlimit="10" stroke-linecap="round" stroke-linejoin="round"/>
<path d="M120.021 64.3294C119.946 66.4734 119.687 68.266 119.431 69.6133C118.851 72.6601 118.146 74.0854 117.814 74.7027C117.561 75.1745 117.322 75.5532 117.155 75.8048" stroke="white" stroke-width="1.1998" stroke-miterlimit="10" stroke-linecap="round" stroke-linejoin="round"/>
<path d="M118.902 77.3648C118.706 77.0501 118.233 76.3949 117.368 75.9416C116.643 75.5592 115.972 75.4932 115.609 75.4838" stroke="white" stroke-width="1.1998" stroke-miterlimit="10" stroke-linecap="round" stroke-linejoin="round"/>
<path d="M100.075 75.7971C100.167 75.4573 101.067 75.6776 102.015 75.3948C103.433 74.9701 103.374 73.8974 104.932 73.3348C105.243 73.221 105.959 72.9731 106.833 73.1429C108.544 73.4748 109.306 75.1137 109.335 75.1837C109.672 75.9425 109.614 76.5741 109.521 77.622C109.416 78.7948 109.302 80.093 108.323 81.0961C108.066 81.3619 107.413 82.0316 106.427 82.0758C105.518 82.1168 104.841 81.6011 104.592 81.4095C104.225 81.1277 103.923 80.6766 103.336 79.7831C102.84 79.0302 102.838 78.9414 102.336 78.2068C101.513 76.9998 101.269 76.869 101.135 76.8083C100.925 76.7132 100.622 76.632 100.346 76.3295C100.235 76.2022 100.028 75.9778 100.075 75.7971Z" fill="black" stroke="white" stroke-width="1.1998" stroke-miterlimit="10"/>
</g>
<rect x="86.7148" y="101.309" width="31.2458" height="14.7158" transform="rotate(-9.53873 86.7148 101.309)" fill="#F77655"/>
<rect x="117.529" y="96.1306" width="45.1552" height="14.7158" transform="rotate(-9.53873 117.529 96.1306)" fill="#F77655"/>
<rect x="89.1845" y="102.018" width="12.6999" height="12.6999" transform="rotate(-9.53873 89.1845 102.018)" stroke="black" stroke-width="0.201586"/>
<rect x="119.999" y="96.8399" width="12.6999" height="12.6999" transform="rotate(-9.53873 119.999 96.8399)" stroke="black" stroke-width="0.201586"/>
<rect x="102.901" y="99.7129" width="12.6999" height="12.6999" transform="rotate(-9.53873 102.901 99.7129)" stroke="black" stroke-width="0.201586"/>
<rect x="133.716" y="94.5349" width="12.6999" height="12.6999" transform="rotate(-9.53873 133.716 94.5349)" stroke="black" stroke-width="0.201586"/>
<rect x="147.433" y="92.2299" width="12.6999" height="12.6999" transform="rotate(-9.53873 147.433 92.2299)" stroke="black" stroke-width="0.201586"/>
<path d="M97.4338 112.252C98.7431 112.032 99.8336 111.417 100.551 110.509C101.269 109.601 101.585 108.31 101.341 106.858C101.099 105.419 100.377 104.296 99.4022 103.672C98.4284 103.055 97.1957 102.824 95.8864 103.044C94.5832 103.263 93.4937 103.884 92.7814 104.785C92.0639 105.693 91.7486 106.991 91.9904 108.43C92.4813 111.389 94.847 112.694 97.4338 112.252ZM97.1255 110.418C96.4647 110.529 95.8786 110.367 95.3684 109.939C94.8582 109.51 94.5289 108.873 94.3867 108.027C94.2445 107.181 94.3476 106.471 94.6897 105.899C95.0318 105.328 95.5337 104.989 96.1946 104.878C96.8616 104.766 97.4528 104.921 97.9692 105.348C98.4794 105.777 98.8087 106.414 98.9509 107.26C99.0931 108.106 98.99 108.816 98.6479 109.388C98.2997 109.96 97.7925 110.306 97.1255 110.418Z" fill="black"/>
<path d="M109.416 110.055C109.157 109.419 108.934 108.548 108.748 107.437L108.571 106.387L112.197 105.777L112.373 106.827C112.561 107.945 112.629 108.842 112.578 109.524L115.364 109.055C115.084 108.372 114.854 107.496 114.677 106.44L114.081 102.895C113.904 101.839 113.834 100.936 113.876 100.199L111.09 100.667C111.361 101.295 111.589 102.164 111.777 103.282L111.957 104.351L108.331 104.96L108.152 103.891C107.965 102.78 107.891 101.884 107.928 101.198L105.149 101.665C105.419 102.293 105.648 103.163 105.836 104.281L106.432 107.826C106.619 108.944 106.688 109.84 106.637 110.522L109.416 110.055Z" fill="black"/>
<path d="M129.447 106.689C129.175 106.017 128.986 105.344 128.872 104.664L128.679 103.516L130.147 100.195C130.626 99.0035 131.1 98.0093 131.566 97.2262L128.577 97.7285C128.39 98.5472 128.208 99.2002 128.022 99.6823L127.191 101.461L127.061 101.482L125.708 100.084C125.347 99.6365 124.961 99.079 124.544 98.4062L121.56 98.9074C122.202 99.4348 122.968 100.214 123.866 101.251L126.351 103.907L126.542 105.043C126.657 105.729 126.699 106.433 126.662 107.157L129.447 106.689Z" fill="black"/>
<path d="M145.586 103.977L145.494 101.274C145.335 101.422 145.096 101.551 144.767 101.669C144.438 101.795 143.906 101.916 143.165 102.04L140.219 102.535L139.981 101.121L142.569 100.686C143.242 100.573 143.721 100.512 144.012 100.507L143.76 99.0063C143.391 99.1128 142.912 99.2123 142.338 99.3088L139.75 99.7436L139.497 98.2367L142.616 97.7126C143.165 97.6202 143.582 97.5692 143.868 97.5657C144.153 97.5623 144.382 97.6062 144.542 97.6873L143.74 95.1803L136.557 96.3873C136.827 97.015 137.056 97.8847 137.244 99.0026L137.84 102.548C138.028 103.666 138.096 104.562 138.045 105.244L145.586 103.977Z" fill="black"/>
<path d="M155.586 102.481C156.395 102.345 157.095 102.126 157.685 101.817C158.269 101.516 158.706 101.131 159.001 100.656C159.297 100.187 159.394 99.669 159.297 99.0946C159.05 97.6247 157.82 97.2917 156.493 97.2224C154.843 97.1505 153.052 97.4896 152.91 96.6053C152.821 96.0804 153.482 95.7027 154.612 95.5127C155.23 95.409 155.85 95.3937 156.477 95.4598C157.104 95.5259 157.615 95.656 158.021 95.8418L157.593 93.2972C157.163 93.1979 156.633 93.141 156.008 93.1253C155.377 93.1107 154.761 93.1507 154.156 93.2524C151.83 93.6179 150.222 95.012 150.528 96.6816C151.096 100.06 156.635 97.7257 156.877 99.1648C156.96 99.735 156.2 100.123 155.142 100.288C154.431 100.408 153.697 100.423 152.927 100.337C152.157 100.25 151.487 100.045 150.913 99.7287L151.255 102.402C151.847 102.525 152.563 102.595 153.411 102.611C154.258 102.628 154.981 102.582 155.586 102.481Z" fill="black"/>
<g clip-path="url(#clip1_2660_4433)">
<path d="M117.993 50.0704C123.928 46.7105 125.215 42.0631 121.855 36.1284M121.855 36.1284C125.215 42.0631 129.862 43.3505 135.797 39.9906M131.935 53.9325C128.575 47.9978 123.928 46.7105 117.993 50.0704M135.797 39.9905C129.862 43.3505 128.575 47.9978 131.935 53.9325" stroke="#FFD746" stroke-width="1.40881"/>
</g>
<g clip-path="url(#clip2_2660_4433)">
<path d="M119.62 31.8892C124.229 29.2803 125.228 25.6718 122.619 21.0636M122.619 21.0636C125.228 25.6718 128.837 26.6714 133.445 24.0625M130.446 34.888C127.837 30.2799 124.229 29.2803 119.62 31.8892M133.445 24.0625C128.837 26.6714 127.837 30.2799 130.446 34.888" stroke="#FFD746" stroke-width="1.40881"/>
</g>
<g clip-path="url(#clip3_2660_4433)">
<path d="M108.247 30.8047C111.807 28.7888 112.58 26.0004 110.564 22.4395M110.564 22.4395C112.58 26.0004 115.368 26.7728 118.929 24.7568M116.612 33.122C114.596 29.5612 111.807 28.7888 108.247 30.8047M118.929 24.7568C115.368 26.7728 114.596 29.5612 116.612 33.122" stroke="#FFD746" stroke-width="1.40881"/>
</g>
<path d="M23.2731 102.628L41.1651 94.1083L60.6479 97.7323L74.2796 112.116L76.8535 131.765L67.3864 149.174L49.4944 157.694L30.0116 154.07L16.3798 139.687L13.806 120.037L23.2731 102.628Z" fill="#FFD746"/>
<path d="M15.9861 120.443L24.7983 104.238L41.4523 96.308L59.5871 99.6813L72.2757 113.07L74.6715 131.359L65.8594 147.564L49.2053 155.494L31.0706 152.121L18.382 138.733L15.9861 120.443Z" stroke="black" stroke-width="0.358263"/>
<circle cx="45.4146" cy="125.903" r="14.8679" transform="rotate(-43.4629 45.4146 125.903)" stroke="black" stroke-width="0.358263"/>
<path d="M31.2346 143.005C31.2135 142.973 31.203 142.935 31.2046 142.897C31.2061 142.859 31.2197 142.822 31.2434 142.792C31.267 142.762 31.2995 142.741 31.3363 142.73C31.373 142.72 31.4121 142.722 31.448 142.735L32.6713 143.193C32.7061 143.206 32.7439 143.208 32.7797 143.199C32.8156 143.189 32.8476 143.169 32.8717 143.141L33.6816 142.123C33.7053 142.092 33.738 142.07 33.7751 142.06C33.8121 142.05 33.8515 142.051 33.8877 142.065C33.9238 142.078 33.9547 142.103 33.976 142.135C33.9974 142.167 34.0079 142.205 34.0062 142.244L33.9536 143.548C33.9522 143.586 33.9629 143.623 33.984 143.655C34.0051 143.687 34.0356 143.711 34.0712 143.725L35.2944 144.185C35.3299 144.199 35.3603 144.223 35.3812 144.255C35.4022 144.287 35.4126 144.325 35.4111 144.363C35.4096 144.401 35.3962 144.437 35.3728 144.467C35.3495 144.497 35.3173 144.519 35.2808 144.529L34.0249 144.877C33.9881 144.887 33.9555 144.908 33.9317 144.938C33.9079 144.968 33.8941 145.004 33.8923 145.043L33.8397 146.346C33.8381 146.385 33.8244 146.421 33.8006 146.451C33.7768 146.481 33.7442 146.503 33.7073 146.513C33.6704 146.523 33.6312 146.522 33.5953 146.508C33.5594 146.495 33.5285 146.47 33.5073 146.438L32.7839 145.348C32.762 145.319 32.7319 145.297 32.6973 145.285C32.6628 145.273 32.6255 145.272 32.5903 145.281L31.3331 145.627C31.2963 145.637 31.2572 145.635 31.2215 145.622C31.1857 145.608 31.1551 145.584 31.134 145.552C31.1128 145.52 31.1023 145.482 31.1038 145.444C31.1053 145.406 31.1188 145.369 31.1424 145.339L31.9524 144.321C31.976 144.291 31.9894 144.254 31.9908 144.216C31.9922 144.177 31.9815 144.14 31.9602 144.108L31.2346 143.005Z" fill="#F05127"/>
<path d="M63.2424 112.011C63.2213 111.979 63.2109 111.942 63.2125 111.903C63.2142 111.865 63.2279 111.828 63.2517 111.798C63.2754 111.768 63.3081 111.747 63.3449 111.736C63.3818 111.726 63.421 111.727 63.4569 111.74L64.682 112.197C64.7169 112.21 64.7548 112.211 64.7907 112.202C64.8266 112.193 64.8588 112.173 64.883 112.144L65.6971 111.122C65.7209 111.092 65.7537 111.07 65.7909 111.059C65.828 111.049 65.8675 111.05 65.9037 111.064C65.9399 111.077 65.9709 111.102 65.9922 111.134C66.0135 111.166 66.024 111.204 66.0222 111.243L65.9665 112.549C65.9651 112.587 65.9757 112.625 65.9968 112.657C66.0179 112.689 66.0484 112.713 66.0841 112.726L67.3104 113.184C67.3464 113.198 67.3772 113.222 67.3984 113.254C67.4195 113.286 67.43 113.324 67.4283 113.363C67.4265 113.401 67.4126 113.438 67.3886 113.468C67.3646 113.498 67.3317 113.52 67.2947 113.53L66.0351 113.881C65.9982 113.891 65.9655 113.913 65.9416 113.943C65.9176 113.973 65.9037 114.009 65.9018 114.048L65.8462 115.354C65.8445 115.393 65.8307 115.429 65.8068 115.459C65.7829 115.489 65.7501 115.511 65.7131 115.522C65.6761 115.532 65.6369 115.53 65.6009 115.517C65.5649 115.503 65.5341 115.479 65.5128 115.447L64.7901 114.356C64.7683 114.327 64.7381 114.305 64.7035 114.293C64.6689 114.281 64.6316 114.28 64.5962 114.289L63.3354 114.639C63.2984 114.649 63.2593 114.647 63.2235 114.634C63.1877 114.62 63.157 114.596 63.1359 114.564C63.1148 114.532 63.1043 114.494 63.1059 114.456C63.1075 114.418 63.1211 114.381 63.1448 114.351L63.959 113.329C63.9827 113.298 63.9962 113.261 63.9977 113.223C63.9992 113.185 63.9886 113.147 63.9673 113.115L63.2424 112.011Z" fill="#F05127"/>
<path d="M28.7765 134.249C28.3809 134.587 27.7481 134.965 26.8738 135.384L23.9638 136.78L23.4688 135.749C23.2557 135.305 23.1547 134.881 23.159 134.474L21.3188 135.716L23.9914 141.286L26.1136 140.632C25.7896 140.372 25.5198 140.023 25.309 139.584L24.7962 138.515L27.7062 137.119C28.5389 136.719 29.2271 136.457 29.7754 136.331L28.7765 134.249Z" fill="black"/>
<path d="M27.4211 128.622C27.2432 128.697 26.9724 128.755 26.6037 128.794C26.2402 128.832 25.8968 128.855 25.5787 128.862L24.7992 128.89C24.4144 128.898 24.0728 128.767 23.7794 128.497C23.4861 128.231 23.3347 127.885 23.3255 127.47C23.3078 126.664 23.8205 126.176 24.667 126.157L25.4929 126.139C26.1496 126.124 26.7769 126.177 27.3698 126.298L27.3193 124.01C26.7731 124.145 26.0922 124.221 25.2662 124.24L24.2966 124.261C23.5527 124.278 22.9776 124.496 22.566 124.915C22.1544 125.335 21.9569 125.924 21.9736 126.679C21.997 127.74 22.5053 128.443 23.4933 128.79L23.4959 128.908L22.2749 128.935C21.3464 128.956 20.6113 128.905 20.0646 128.784L20.1153 131.082C20.6306 130.943 21.3629 130.865 22.3171 130.844L25.2618 130.779C26.216 130.758 26.9509 130.803 27.4719 130.92L27.4211 128.622Z" fill="black"/>
<path d="M29.106 119.427C29.2919 118.976 29.437 118.503 29.5386 118.001C29.6402 117.499 29.6758 117.103 29.638 116.804L28.3075 116.289C28.4249 116.543 28.4652 116.876 28.4284 117.288C28.3963 117.702 28.2948 118.11 28.1305 118.508C27.6995 119.607 26.6656 120.324 25.8873 120.031L25.8787 119.944C26.4477 119.574 26.9097 118.965 27.2599 118.116C27.8252 116.745 27.6898 115.862 26.7553 115.477C26.2951 115.287 25.7963 115.325 25.2968 115.608C24.7954 115.895 24.2902 116.541 23.9067 117.471C23.5154 118.42 23.4714 119.334 23.727 120.034C23.9825 120.733 24.5028 121.275 25.2191 121.57C25.9829 121.885 26.7189 121.85 27.4339 121.462C28.1489 121.075 28.705 120.399 29.106 119.427ZM26.3704 118.509C26.1259 119.102 25.8041 119.519 25.406 119.771C25.1211 119.587 24.9418 119.336 24.8699 119.012C24.8028 118.69 24.8368 118.365 24.9718 118.038C25.1185 117.682 25.3023 117.425 25.5271 117.257C25.7566 117.091 25.9771 117.054 26.1906 117.142C26.6222 117.32 26.5954 117.964 26.3704 118.509Z" fill="black"/>
<path d="M35.8066 111.072L34.5516 106.36L34.645 106.306L38.0839 109.762L40.3344 108.467C40.0159 107.934 39.7057 107.231 39.411 106.358L38.6769 103.477C38.3749 102.52 38.1888 101.775 38.1236 101.25L36.1176 102.404C36.2577 102.637 36.4538 103.081 36.6995 103.745L37.3171 106.166C37.4699 106.617 37.6033 106.972 37.7129 107.234L37.6107 107.293L33.9338 103.66L32.6306 104.41L33.9057 109.425L33.8123 109.479C33.6481 109.265 33.4054 108.967 33.0822 108.591L31.3045 106.849C30.9149 106.398 30.6254 106.008 30.4335 105.674L28.432 106.826C28.9149 107.182 29.4632 107.713 30.0795 108.424L32.2019 110.518C32.8194 111.21 33.2738 111.825 33.5605 112.365L35.8066 111.072Z" fill="black"/>
<path d="M44.9825 108.021C46.0237 107.993 46.7101 107.563 46.9598 106.935L47.0726 106.932L47.0751 107.024C47.0846 107.368 47.0456 107.631 46.9532 107.818L49.1024 107.759C49.0145 107.546 48.9509 107.286 48.9169 106.984C48.8778 106.682 48.8503 106.242 48.8347 105.672L48.7993 104.385C48.7823 103.764 48.5174 103.279 48.1297 102.991C47.9358 102.848 47.7018 102.736 47.4272 102.646C46.8784 102.477 46.3279 102.43 45.6662 102.448C45.2764 102.459 44.8415 102.512 44.3666 102.602C43.8866 102.697 43.5298 102.789 43.2963 102.883L43.3301 104.114C43.4955 103.971 43.764 103.84 44.1305 103.727C44.497 103.615 44.8855 103.553 45.2907 103.542C45.8036 103.528 46.2169 103.624 46.5306 103.831C46.8393 104.043 47.0021 104.362 47.014 104.798L47.0305 105.398L46.8971 105.402C46.7556 105.108 46.5129 104.868 46.164 104.688C45.8151 104.508 45.3918 104.422 44.884 104.436C44.2018 104.454 43.673 104.638 43.2974 104.982C42.9219 105.326 42.7439 105.762 42.7582 106.28C42.7724 106.799 42.974 107.224 43.368 107.552C43.7621 107.885 44.3002 108.04 44.9825 108.021ZM45.78 106.968C45.026 106.988 44.5656 106.672 44.5526 106.2C44.5398 105.734 44.9825 105.403 45.7365 105.383C46.1109 105.372 46.4208 105.441 46.6611 105.593C46.9014 105.746 47.0245 105.927 47.0301 106.132C47.0436 106.625 46.5648 106.946 45.78 106.968Z" fill="black"/>
<path d="M53.1863 102.91C53.4977 102.996 53.7633 102.98 53.9944 102.857C54.224 102.74 54.3721 102.552 54.445 102.29C54.5178 102.028 54.4893 101.786 54.3545 101.562C54.2197 101.338 54.0008 101.187 53.6893 101.1C53.3877 101.016 53.1221 101.033 52.8911 101.155C52.6601 101.277 52.5057 101.469 52.4328 101.731C52.3613 101.988 52.3962 102.227 52.531 102.45C52.6658 102.674 52.8847 102.826 53.1863 102.91ZM52.7485 108.833C52.7574 108.303 52.8897 107.578 53.1467 106.653L53.6759 104.75C53.7955 104.32 53.915 103.986 54.0324 103.736C53.7722 103.829 53.4303 103.814 53.0001 103.694C52.57 103.574 52.2545 103.407 52.0499 103.185C52.0366 103.405 51.9651 103.758 51.8318 104.237L51.3027 106.141C51.0456 107.065 50.7848 107.754 50.5188 108.213L52.7485 108.833Z" fill="black"/>
<path d="M56.9025 111.015C57.2902 111.236 57.7836 111.376 58.119 111.378L58.8565 110.086C58.6407 110.122 58.3046 110.048 58.0149 109.883C57.4311 109.55 57.257 109.037 57.6155 108.409L58.5946 106.693L60.208 107.613L60.6098 106.909L58.9964 105.989L60.039 104.161L58.2559 103.693L57.4498 105.106L56.5317 104.582L56.1299 105.286L57.048 105.81L55.7409 108.101C55.006 109.389 55.7214 110.341 56.9025 111.015Z" fill="black"/>
<path d="M42.2907 145.3C42.6122 145.267 42.8534 145.154 43.0238 144.956C43.1948 144.763 43.264 144.534 43.2361 144.263C43.2082 143.993 43.0932 143.778 42.8859 143.618C42.6786 143.459 42.4196 143.398 42.098 143.432C41.7866 143.464 41.5455 143.576 41.3751 143.774C41.2046 143.972 41.1308 144.207 41.1587 144.478C41.1861 144.743 41.3057 144.952 41.513 145.112C41.7203 145.271 41.9793 145.332 42.2907 145.3ZM44.0468 150.974C43.8615 150.477 43.7198 149.754 43.6214 148.799L43.4187 146.834C43.3729 146.39 43.3621 146.035 43.3802 145.76C43.1719 145.941 42.848 146.052 42.4039 146.098C41.9599 146.144 41.6049 146.103 41.3334 145.971C41.4014 146.181 41.4638 146.535 41.5148 147.03L41.7175 148.996C41.8159 149.95 41.8249 150.687 41.7448 151.211L44.0468 150.974Z" fill="black"/>
<path d="M48.4069 150.221C49.2455 149.981 49.8593 149.645 50.2432 149.215C50.6271 148.785 50.7495 148.318 50.6041 147.81C50.0604 145.91 46.6513 147.762 46.4197 146.953C46.3406 146.676 46.6893 146.384 47.3405 146.198C47.7352 146.085 48.144 146.021 48.5633 146.013C48.9827 146.005 49.326 146.03 49.603 146.084L49.2034 144.688C48.4047 144.602 47.6139 144.673 46.8296 144.898C46.0254 145.128 45.4462 145.454 45.082 145.878C44.7178 146.303 44.6018 146.736 44.7303 147.185C45.0071 148.152 45.991 148.159 46.9418 148.031C47.8877 147.904 48.7954 147.644 48.9211 148.083C49.0114 148.399 48.6669 148.668 47.8924 148.89C47.5224 148.996 47.0763 149.06 46.5476 149.078C46.0141 149.097 45.5524 149.069 45.1576 148.995L45.594 150.52C45.945 150.552 46.4053 150.538 46.9762 150.481C47.5457 150.42 48.0221 150.331 48.4069 150.221Z" fill="black"/>
<path d="M61.6405 145.541C62.4622 144.828 62.9623 143.932 63.0763 142.991C63.1904 142.049 62.8603 141.011 62.0701 140.1C61.2866 139.197 60.3019 138.72 59.3539 138.7C58.4093 138.684 57.4486 139.048 56.6269 139.761C55.809 140.471 55.3123 141.37 55.1988 142.305C55.0847 143.246 55.4182 144.288 56.2017 145.191C57.8085 147.051 60.0198 146.953 61.6405 145.541ZM60.6418 144.389C60.2271 144.749 59.7481 144.886 59.2083 144.804C58.6685 144.722 58.1663 144.417 57.7056 143.886C57.2449 143.355 57.0141 142.815 57.0092 142.269C57.0042 141.723 57.2108 141.272 57.6256 140.913C58.0442 140.549 58.5236 140.405 59.0673 140.484C59.6072 140.566 60.1093 140.87 60.57 141.401C61.0307 141.932 61.2616 142.473 61.2665 143.019C61.2675 143.568 61.0604 144.026 60.6418 144.389Z" fill="black"/>
<path d="M67.9758 136.793C67.6488 136.562 67.2678 136.171 66.8259 135.623L65.6426 133.856C65.1979 133.257 64.8726 132.737 64.6597 132.298L63.4392 134.124C63.7932 134.416 64.0647 134.703 64.2564 134.979L65.4938 136.738C65.6686 136.966 65.8519 137.181 66.0395 137.381L65.974 137.479C65.8217 137.42 65.5529 137.333 65.1716 137.22L63.0673 136.758C62.6732 136.655 62.3076 136.509 61.9734 136.317L60.7586 138.134C61.2154 138.162 61.8187 138.275 62.5599 138.468L64.6501 138.878C65.3031 139.055 65.8066 139.262 66.165 139.501L67.9758 136.793Z" fill="black"/>
<path d="M70.4234 130.524C70.5894 130.066 70.7137 129.587 70.7932 129.081C70.8728 128.575 70.8911 128.178 70.8403 127.881L69.4885 127.424C69.6168 127.673 69.6717 128.003 69.6529 128.417C69.639 128.832 69.5554 129.244 69.4086 129.649C69.0261 130.766 68.0245 131.527 67.2341 131.268L67.2217 131.182C67.774 130.787 68.209 130.159 68.5217 129.295C69.0266 127.901 68.8527 127.025 67.9022 126.681C67.4342 126.511 66.9376 126.571 66.451 126.875C65.9625 127.184 65.486 127.852 65.1436 128.798C64.7942 129.763 64.7901 130.678 65.076 131.366C65.3619 132.053 65.9053 132.572 66.6339 132.836C67.4106 133.117 68.1444 133.05 68.8418 132.631C69.5392 132.212 70.0652 131.513 70.4234 130.524ZM67.6503 129.727C67.4319 130.33 67.1287 130.761 66.7419 131.03C66.4493 130.859 66.2591 130.615 66.1732 130.295C66.0921 129.976 66.1118 129.651 66.2324 129.318C66.3634 128.956 66.5358 128.691 66.753 128.513C66.975 128.337 67.1937 128.29 67.4109 128.369C67.8499 128.528 67.8512 129.173 67.6503 129.727Z" fill="black"/>
<path d="M71.6255 123.459C71.2781 123.551 70.8065 123.56 70.2157 123.487L69.3805 123.383C68.912 123.325 68.5356 123.108 68.2557 122.738C67.9758 122.367 67.8613 121.955 67.9167 121.506C67.9438 121.287 68.0116 121.074 68.1138 120.874C68.216 120.675 68.3329 120.524 68.4544 120.42L66.7331 120.207C66.6036 120.46 66.5193 120.724 66.4853 120.999C66.3662 121.961 66.9484 122.731 68.0811 123.104L68.0667 123.221L67.6796 123.173C67.4555 123.145 67.2244 123.091 66.9818 123.004C66.7443 122.918 66.5596 122.823 66.4226 122.718L66.1298 125.086C66.679 125.035 67.3333 125.054 68.0921 125.147L69.6148 125.336C70.2565 125.415 70.8346 125.549 71.3446 125.731L71.6255 123.459Z" fill="black"/>
<path d="M48.4301 120.046L47.2747 118.827L40.6541 121.271L37.7952 127.811L41.0023 131.195L47.6462 128.649L50.4819 122.211L53.1114 124.985L50.2757 131.423L43.6318 133.969L44.333 132.267" stroke="black" stroke-width="0.488896"/>
<path d="M50.2713 131.352L43.1797 123.869" stroke="black" stroke-width="0.488896"/>
<path d="M40.3457 126.63L45.9578 121.311" stroke="black" stroke-width="0.488896"/>
<circle r="0.295032" transform="matrix(-0.72582 0.687884 0.687884 0.72582 49.022 120.661)" fill="black"/>
<defs>
<clipPath id="clip0_2660_4433">
<rect width="32.2133" height="36.9806" fill="white" transform="matrix(-0.992652 -0.121002 -0.121002 0.992652 130.113 57.4116)"/>
</clipPath>
<clipPath id="clip1_2660_4433">
<rect width="21.8234" height="21.8234" fill="white" transform="translate(122.775 59.9019) rotate(-119.517)"/>
</clipPath>
<clipPath id="clip2_2660_4433">
<rect width="16.9453" height="16.9453" fill="white" transform="translate(123.334 39.5231) rotate(-119.517)"/>
</clipPath>
<clipPath id="clip3_2660_4433">
<rect width="13.0941" height="13.0941" fill="white" transform="translate(111.115 36.7036) rotate(-119.517)"/>
</clipPath>
</defs>
</svg>
