<svg width="258" height="315" viewBox="0 0 258 315" fill="none" xmlns="http://www.w3.org/2000/svg">
<g filter="url(#filter0_d_939:3506)">
<g filter="url(#filter1_d_939:3506)">
<path d="M235 288H23C24.0316 281.49 27.1265 222.899 31.253 216.89C36.4112 209.378 48.7908 201.366 60.6545 197.86C70.1455 195.056 80.7713 196.692 84.8978 197.86V143.776H58.0754C51.0603 143.776 50.6821 135.763 51.3698 131.757V84.1829V32.1017C53.777 31.434 59.5197 30.0986 63.2336 30.0986C67.8759 30.0986 76.6448 30.0986 76.129 28.0955C75.6131 26.0923 86.9611 16.577 96.7616 19.5817C106.562 22.5863 101.92 25.5908 107.078 31.6002C112.236 37.6095 112.689 28.6685 115.331 25.5908C120.489 19.5817 127.71 19.5822 134.416 21.0846C141.122 22.5869 141.637 28.0955 143.185 30.0986C144.732 32.1017 150.922 29.0971 150.922 26.0924C150.922 23.0877 165.881 22.0861 168.976 24.0893C172.071 26.0924 176.197 30.5994 185.482 30.0986C192.909 29.698 202.332 31.9348 206.114 33.1033C205.942 62.6494 205.702 122.342 206.114 124.746C206.63 127.751 201.988 138.768 195.282 140.271C188.577 141.773 172.071 137.767 170.007 142.274C168.357 145.879 169.32 180.834 170.007 197.86L177.745 192.853C187.029 188.346 209.725 195.857 217.462 203.87C223.177 209.788 233.624 275.814 235 288Z" fill="#FFF5F1"/>
<path d="M168 197.86H170.007M170.007 197.86L177.745 192.853C187.029 188.346 209.725 195.857 217.462 203.87C223.177 209.788 233.624 275.814 235 288C152.209 288 105.791 288 23 288C24.0316 281.49 27.1265 222.899 31.253 216.89C36.4112 209.378 48.7908 201.366 60.6545 197.86C70.1455 195.056 80.7713 196.692 84.8978 197.86V143.776C78.88 143.776 65.0905 143.776 58.0754 143.776C51.0603 143.776 50.6821 135.763 51.3698 131.757C51.3698 119.071 51.3698 91.7948 51.3698 84.1829C51.3698 76.571 51.3698 46.2905 51.3698 32.1017C53.777 31.434 59.5197 30.0986 63.2336 30.0986C67.8759 30.0986 76.6448 30.0986 76.129 28.0955C75.6131 26.0923 86.9611 16.577 96.7616 19.5817C106.562 22.5863 101.92 25.5908 107.078 31.6002C112.236 37.6095 112.689 28.6685 115.331 25.5908C120.489 19.5817 127.71 19.5822 134.416 21.0846C141.122 22.5869 141.637 28.0955 143.185 30.0986C144.732 32.1017 150.922 29.0971 150.922 26.0924C150.922 23.0877 165.881 22.0861 168.976 24.0893C172.071 26.0924 176.197 30.5994 185.482 30.0986C192.909 29.698 202.332 31.9348 206.114 33.1033C205.942 62.6494 205.702 122.342 206.114 124.746C206.63 127.751 201.988 138.768 195.282 140.271C188.577 141.773 172.071 137.767 170.007 142.274C168.357 145.879 169.32 180.834 170.007 197.86Z" stroke="#C33D59" stroke-width="5"/>
<path d="M168 197.86H170.007M170.007 197.86L177.745 192.853C187.029 188.346 209.725 195.857 217.462 203.87C223.177 209.788 233.624 275.814 235 288C152.209 288 105.791 288 23 288C24.0316 281.49 27.1265 222.899 31.253 216.89C36.4112 209.378 48.7908 201.366 60.6545 197.86C70.1455 195.056 80.7713 196.692 84.8978 197.86V143.776C78.88 143.776 65.0905 143.776 58.0754 143.776C51.0603 143.776 50.6821 135.763 51.3698 131.757C51.3698 119.071 51.3698 91.7948 51.3698 84.1829C51.3698 76.571 51.3698 46.2905 51.3698 32.1017C53.777 31.434 59.5197 30.0986 63.2336 30.0986C67.8759 30.0986 76.6448 30.0986 76.129 28.0955C75.6131 26.0923 86.9611 16.577 96.7616 19.5817C106.562 22.5863 101.92 25.5908 107.078 31.6002C112.236 37.6095 112.689 28.6685 115.331 25.5908C120.489 19.5817 127.71 19.5822 134.416 21.0846C141.122 22.5869 141.637 28.0955 143.185 30.0986C144.732 32.1017 150.922 29.0971 150.922 26.0924C150.922 23.0877 165.881 22.0861 168.976 24.0893C172.071 26.0924 176.197 30.5994 185.482 30.0986C192.909 29.698 202.332 31.9348 206.114 33.1033C205.942 62.6494 205.702 122.342 206.114 124.746C206.63 127.751 201.988 138.768 195.282 140.271C188.577 141.773 172.071 137.767 170.007 142.274C168.357 145.879 169.32 180.834 170.007 197.86Z" stroke="black" stroke-opacity="0.2" stroke-width="5"/>
</g>
<g filter="url(#filter2_d_939:3506)">
<path d="M158.829 133.032C157.418 183.807 158.932 203.438 161.335 209.078C161.635 209.783 162.994 212.729 161.48 215.077C159.299 218.449 151.745 219.724 148.024 217.295C144.278 214.852 145.203 209.172 145.647 204.148C147.352 185.028 145.084 177.741 142.996 170.929C142.035 167.795 141.172 167.31 140.774 164.939C140.216 161.598 140.676 158.289 140.676 158.289C140.779 157.544 140.893 157.05 140.981 155.995C141.115 154.432 141.074 153.202 140.981 151.715C140.8 148.729 140.63 147.993 140.495 145.986C140.464 145.519 140.444 145.128 140.433 144.755C140.366 142.672 140.407 141.051 140.418 140.669C140.459 139.327 140.449 136.983 140.232 132.569C140.593 132.412 140.898 132.358 141.11 132.34C141.27 132.327 141.317 132.336 141.968 132.34C142.293 132.34 142.231 132.34 142.604 132.34C143.317 132.345 143.399 132.353 143.658 132.34C143.932 132.327 144.154 132.3 144.288 132.282C144.355 132.273 144.402 132.264 144.407 132.264C144.526 132.246 156.457 132.722 157.842 132.34C157.904 132.322 158.147 132.25 158.369 132.34C158.664 132.461 158.777 132.776 158.829 133.032Z" fill="#FFF5F1" stroke="black" stroke-width="3" stroke-miterlimit="10"/>
<path d="M187.725 132.344H65.775C63.491 132.344 61.6411 130.736 61.6411 128.752V43.3026C61.6411 41.318 63.491 39.7104 65.775 39.7104H187.725C190.009 39.7104 191.859 41.318 191.859 43.3026V128.752C191.859 130.736 190.009 132.344 187.725 132.344Z" fill="#FFF5F1" stroke="black" stroke-width="3" stroke-miterlimit="10"/>
<path d="M94.8857 50.6043C92.4105 50.6043 90.4004 48.8576 90.4004 46.7068V34.8975C90.4004 32.7467 92.4105 31 94.8857 31C97.3608 31 99.3709 32.7467 99.3709 34.8975V46.7068C99.3709 48.8576 97.3608 50.6043 94.8857 50.6043Z" fill="#FFF5F1" stroke="black" stroke-width="3" stroke-miterlimit="10"/>
<path d="M126.24 50.6043C123.764 50.6043 121.754 48.8576 121.754 46.7068V34.8975C121.754 32.7467 123.764 31 126.24 31C128.715 31 130.725 32.7467 130.725 34.8975V46.7068C130.725 48.8576 128.72 50.6043 126.24 50.6043Z" fill="#FFF5F1" stroke="black" stroke-width="3" stroke-miterlimit="10"/>
<path d="M158.521 51.6727C156.046 51.6727 154.036 49.926 154.036 47.7752V35.9659C154.036 33.8151 156.046 32.0684 158.521 32.0684C160.996 32.0684 163.006 33.8151 163.006 35.9659V47.7752C163.006 49.9305 160.996 51.6727 158.521 51.6727Z" fill="#FFF5F1" stroke="black" stroke-width="3" stroke-miterlimit="10"/>
<path d="M65.775 132.803H82.4449V57.2544H61.6411V129.215C61.6411 131.195 63.491 132.803 65.775 132.803Z" stroke="black" stroke-width="3" stroke-miterlimit="10"/>
<path d="M105.281 57.2544H82.4365V132.807H105.281V57.2544Z" stroke="black" stroke-width="3" stroke-miterlimit="10"/>
<path d="M128.133 57.2544H105.288V132.807H128.133V57.2544Z" stroke="black" stroke-width="3" stroke-miterlimit="10"/>
<path d="M146.999 57.2544H128.133V132.807H146.999V57.2544Z" stroke="black" stroke-width="3" stroke-miterlimit="10"/>
<path d="M170.397 57.2544H146.999V132.807H170.397V57.2544Z" stroke="black" stroke-width="3" stroke-miterlimit="10"/>
<path d="M61.6411 64.0191V80.853H191.859V64.0191H61.6411Z" stroke="black" stroke-width="3" stroke-miterlimit="10"/>
<path d="M61.6411 80.8531V97.687H191.859V80.8531H61.6411Z" stroke="black" stroke-width="3" stroke-miterlimit="10"/>
<path d="M61.6411 97.6815V113.887H191.859V97.6815H61.6411Z" stroke="black" stroke-width="3" stroke-miterlimit="10"/>
<path d="M191.859 130.548V115.686C191.859 114.693 190.934 113.89 189.792 113.89H61.6411V130.553C61.6411 131.545 62.5661 132.349 63.7081 132.349H189.792C190.934 132.344 191.859 131.541 191.859 130.548Z" stroke="black" stroke-width="3" stroke-miterlimit="10"/>
<path d="M187.723 132.803H170.397V57.2544H191.857V129.215C191.857 131.195 190.007 132.803 187.723 132.803Z" stroke="black" stroke-width="3" stroke-miterlimit="10"/>
<path d="M93.9029 133.206C93.1898 158.522 92.4819 183.843 91.7688 209.158C95.51 214.3 100.755 220.505 104.227 219.589C107.405 218.754 110.294 212.625 110.914 199.563C111.875 179.177 112.356 156.726 112.035 142.375C111.901 136.278 111.901 138.285 112.144 135.918C111.922 134.005 112.19 133.642 111.596 132.995C110.774 132.106 109.421 132.609 104.801 132.613C101.075 132.618 100.15 132.29 97.2152 132.631C95.8148 132.793 94.6729 133.027 93.9029 133.206Z" fill="#FFF5F1" stroke="black" stroke-width="3" stroke-miterlimit="10"/>
<path d="M99.3312 213.362C98.1272 212.468 96.3031 211.256 93.8796 210.151C92.1796 209.379 88.242 207.767 79.8089 207.093C73.7786 206.613 69.1848 206.245 63.2733 207.399C59.6149 208.113 52.0292 209.684 45.5079 215.347C37.5037 222.288 36.2635 230.896 36 233.689C65.9655 233.487 95.9259 233.281 125.891 233.078C126.15 231.718 127.318 224.78 122.021 218.557C118.45 214.363 113.795 212.666 111.821 212.06C111.929 185.689 112.033 159.317 112.141 132.946" fill="#FFF5F1"/>
<path d="M99.3312 213.362C98.1272 212.468 96.3031 211.256 93.8796 210.151C92.1796 209.379 88.242 207.767 79.8089 207.093C73.7786 206.613 69.1848 206.245 63.2733 207.399C59.6149 208.113 52.0292 209.684 45.5079 215.347C37.5037 222.288 36.2635 230.896 36 233.689C65.9655 233.487 95.9259 233.281 125.891 233.078C126.15 231.718 127.318 224.78 122.021 218.557C118.45 214.363 113.795 212.666 111.821 212.06C111.929 185.689 112.033 159.317 112.141 132.946" stroke="black" stroke-width="3" stroke-miterlimit="10"/>
<path d="M140.312 133.184C140.694 159.501 141.076 185.818 141.454 212.135C139.289 212.849 134.442 214.753 130.835 219.185C130.091 220.101 128.153 222.651 127.207 226.41C126.463 229.355 126.629 231.861 126.877 233.459C156.584 233.459 186.291 233.459 215.998 233.459C215.43 230.855 212.086 216.873 198.321 210.416C191.112 207.034 183.635 206.931 178.793 206.864C174.907 206.81 168.174 206.778 160.588 209.729C157.56 210.905 155.22 212.239 153.597 213.28" fill="#FFF5F1"/>
<path d="M140.312 133.184C140.694 159.501 141.076 185.818 141.454 212.135C139.289 212.849 134.442 214.753 130.835 219.185C130.091 220.101 128.153 222.651 127.207 226.41C126.463 229.355 126.629 231.861 126.877 233.459C156.584 233.459 186.291 233.459 215.998 233.459C215.43 230.855 212.086 216.873 198.321 210.416C191.112 207.034 183.635 206.931 178.793 206.864C174.907 206.81 168.174 206.778 160.588 209.729C157.56 210.905 155.22 212.239 153.597 213.28" stroke="black" stroke-width="3" stroke-miterlimit="10"/>
<path d="M87.7307 109.961C91.1153 107.011 94.5051 104.057 97.8898 101.106" stroke="black" stroke-width="3" stroke-miterlimit="10"/>
<path d="M97.8196 109.961C94.5331 107.011 91.2467 104.057 87.9551 101.106" stroke="black" stroke-width="3" stroke-miterlimit="10"/>
</g>
</g>
<path d="M42.0922 277C42.0922 275.749 42.3741 273.952 42.9556 271.591L43.2199 270.798H50.321L50.6029 271.555C51.1667 274.005 51.4663 275.819 51.4839 277H61.369C60.1532 274.375 59.0607 271.326 58.1092 267.873L55.6247 260.877C55.2195 259.432 54.9023 257.847 54.638 256.137C54.3737 254.428 54.1975 252.966 54.1446 251.732H39.4315C39.3962 252.913 39.2377 254.34 38.9734 256.049C38.709 257.758 38.3566 259.38 37.9514 260.877L35.4493 267.873C34.392 271.626 33.2995 274.656 32.1718 277H42.0922ZM45.5987 263.256C45.8982 262.322 46.1978 260.877 46.5325 258.886H47.0083C47.3078 260.736 47.625 262.199 47.9774 263.256L49.4928 267.185H44.0833L45.5987 263.256ZM72.2232 284.224C71.9589 283.114 71.7651 281.722 71.6065 280.031C71.4479 278.322 71.3775 276.683 71.3775 275.079V272.489H71.8532C72.9809 275.538 75.624 277.511 79.43 277.511C82.2317 277.511 84.4695 276.454 85.8263 274.692C87.1654 272.947 87.8703 270.674 87.8703 268.014C87.8703 265.353 87.1654 263.045 85.8263 261.283C84.4695 259.52 82.2317 258.446 79.43 258.446C75.6416 258.446 73.1043 260.384 71.8532 263.397H71.3775V262.956C71.3775 262.199 71.4303 261.547 71.5537 261.001C71.6594 260.454 71.8708 259.767 72.1704 258.957H62.3205C62.5848 260.067 62.8139 261.459 62.9725 263.133C63.1311 264.807 63.2015 266.463 63.2015 268.084V275.079C63.2015 276.7 63.1311 278.357 62.9725 280.048C62.8139 281.722 62.5848 283.114 62.3205 284.224H72.2232ZM75.8178 272.383C74.5315 272.383 73.4919 271.961 72.699 271.097C71.9061 270.234 71.5008 269.212 71.5008 268.014C71.5008 266.727 71.8885 265.652 72.6814 264.824C73.4567 263.996 74.4963 263.573 75.8178 263.573C77.1746 263.573 78.2495 263.978 79.0776 264.807C79.8882 265.635 80.2934 266.71 80.2934 268.014C80.2934 269.282 79.8882 270.322 79.0776 271.15C78.2495 271.978 77.1746 272.383 75.8178 272.383ZM100.998 277.511C101.773 277.511 102.583 277.405 103.429 277.211C104.257 277.018 104.962 276.753 105.508 276.454V270.11C104.997 270.621 103.887 271.009 102.883 271.009C101.914 271.009 101.086 270.727 100.416 270.146C99.7465 269.582 99.4117 268.771 99.4117 267.732V261.371H105.297V258.957H99.4117V251.732L91.7996 253.723V258.957H88.5927V261.371H91.7996V270.657C91.7996 275.22 94.8656 277.511 100.998 277.511ZM115.728 256.948C116.521 256.225 116.909 255.309 116.909 254.199C116.909 253.071 116.521 252.137 115.728 251.415C114.935 250.693 113.878 250.34 112.539 250.34C111.2 250.34 110.143 250.693 109.367 251.415C108.574 252.137 108.187 253.071 108.187 254.199C108.187 255.309 108.574 256.225 109.367 256.948C110.143 257.67 111.2 258.023 112.539 258.023C113.878 258.023 114.935 257.67 115.728 256.948ZM117.49 277C116.944 274.586 116.662 271.538 116.662 267.873V262.886C116.662 261.23 116.75 259.926 116.909 258.957C115.904 259.679 114.495 260.049 112.645 260.049C110.795 260.049 109.332 259.679 108.222 258.957C108.381 259.732 108.469 261.036 108.469 262.886V267.873C108.469 271.538 108.187 274.586 107.64 277H117.49ZM131.763 277.511C132.538 277.511 133.349 277.405 134.195 277.211C135.023 277.018 135.728 276.753 136.274 276.454V270.11C135.763 270.621 134.653 271.009 133.648 271.009C132.679 271.009 131.851 270.727 131.181 270.146C130.512 269.582 130.177 268.771 130.177 267.732V261.371H136.062V258.957H130.177V251.732L122.565 253.723V258.957H119.358V261.371H122.565V270.657C122.565 275.22 125.631 277.511 131.763 277.511ZM147.815 277.511C151.463 277.511 153.894 275.837 155.11 272.489H155.586V272.93C155.586 274.427 155.251 275.784 154.599 277H164.643C164.061 274.639 163.779 271.978 163.779 269.018V266.058C163.779 264.595 163.85 263.344 163.991 262.34C164.114 261.335 164.343 260.208 164.643 258.957H154.758C155.04 259.679 155.251 260.807 155.392 262.357C155.515 263.926 155.586 265.282 155.586 266.463V268.19C155.586 269.353 155.216 270.339 154.458 271.132C153.7 271.943 152.714 272.348 151.498 272.348C150.317 272.348 149.419 271.961 148.767 271.185C148.115 270.428 147.78 269.423 147.78 268.19V266.498C147.78 263.785 148.044 261.265 148.573 258.957H138.723C139.269 261.371 139.551 264.172 139.551 267.362V269.282C139.551 271.837 140.256 273.846 141.683 275.308C143.111 276.771 145.155 277.511 147.815 277.511ZM175.515 277.511C179.303 277.511 181.876 275.573 183.056 272.56H183.567V273C183.567 273.758 183.514 274.41 183.409 274.956C183.285 275.502 183.074 276.189 182.739 277H192.589C192.043 274.586 191.761 271.538 191.761 267.873V260.877C191.761 257.195 192.043 254.146 192.589 251.732H182.739C183.285 254.146 183.567 257.195 183.567 260.877V263.467H183.091C181.964 260.419 179.321 258.446 175.515 258.446C172.713 258.446 170.458 259.503 169.118 261.265C167.779 263.027 167.074 265.318 167.074 267.978C167.074 273.194 169.77 277.511 175.515 277.511ZM179.127 272.383C177.77 272.383 176.678 271.978 175.867 271.15C175.057 270.322 174.651 269.265 174.651 267.978C174.651 266.692 175.057 265.635 175.867 264.807C176.678 263.978 177.77 263.573 179.127 263.573C180.448 263.573 181.488 263.996 182.281 264.824C183.074 265.652 183.461 266.71 183.461 267.978C183.461 269.194 183.056 270.234 182.263 271.097C181.47 271.961 180.413 272.383 179.127 272.383ZM207.584 277.511C209.364 277.511 211.161 277.352 212.958 277.053C214.755 276.736 216.13 276.33 217.099 275.837L216.958 269.899C216.288 270.639 215.284 271.22 213.945 271.643C212.606 272.066 211.196 272.278 209.734 272.278C207.831 272.278 206.174 271.855 204.765 271.027C203.337 270.198 202.562 269.229 202.421 268.119L202.703 267.943C204.624 269.406 207.002 269.899 210.104 269.899C214.808 269.899 217.504 268.243 217.504 264.912C217.504 263.556 217.081 262.34 216.042 261.212C214.562 259.591 211.619 258.463 207.038 258.446C203.249 258.446 200.13 259.52 198.227 261.265C196.307 263.027 195.267 265.353 195.267 267.978C195.267 270.833 196.377 273.141 198.615 274.886C200.853 276.63 203.831 277.511 207.584 277.511ZM206.967 267.837C205.082 267.837 203.655 267.379 202.668 266.463C202.826 265.459 203.285 264.701 204.007 264.172C204.729 263.661 205.575 263.397 206.527 263.397C208.659 263.397 209.998 264.313 209.998 265.741C209.998 266.357 209.698 266.851 209.099 267.238C208.5 267.644 207.795 267.837 206.967 267.837Z" fill="black"/>
<defs>
<filter id="filter0_d_939:3506" x="0.0727539" y="0.498535" width="257.725" height="314.001" filterUnits="userSpaceOnUse" color-interpolation-filters="sRGB">
<feFlood flood-opacity="0" result="BackgroundImageFix"/>
<feColorMatrix in="SourceAlpha" type="matrix" values="0 0 0 0 0 0 0 0 0 0 0 0 0 0 0 0 0 0 127 0" result="hardAlpha"/>
<feOffset dy="4"/>
<feGaussianBlur stdDeviation="10"/>
<feComposite in2="hardAlpha" operator="out"/>
<feColorMatrix type="matrix" values="0 0 0 0 0 0 0 0 0 0 0 0 0 0 0 0 0 0 0.25 0"/>
<feBlend mode="normal" in2="BackgroundImageFix" result="effect1_dropShadow_939:3506"/>
<feBlend mode="normal" in="SourceGraphic" in2="effect1_dropShadow_939:3506" result="shape"/>
</filter>
<filter id="filter1_d_939:3506" x="16.0728" y="16.4985" width="225.725" height="282.001" filterUnits="userSpaceOnUse" color-interpolation-filters="sRGB">
<feFlood flood-opacity="0" result="BackgroundImageFix"/>
<feColorMatrix in="SourceAlpha" type="matrix" values="0 0 0 0 0 0 0 0 0 0 0 0 0 0 0 0 0 0 127 0" result="hardAlpha"/>
<feOffset dy="4"/>
<feGaussianBlur stdDeviation="2"/>
<feComposite in2="hardAlpha" operator="out"/>
<feColorMatrix type="matrix" values="0 0 0 0 0 0 0 0 0 0 0 0 0 0 0 0 0 0 0.25 0"/>
<feBlend mode="normal" in2="BackgroundImageFix" result="effect1_dropShadow_939:3506"/>
<feBlend mode="normal" in="SourceGraphic" in2="effect1_dropShadow_939:3506" result="shape"/>
</filter>
<filter id="filter2_d_939:3506" x="30.3508" y="29.5" width="191.51" height="213.7" filterUnits="userSpaceOnUse" color-interpolation-filters="sRGB">
<feFlood flood-opacity="0" result="BackgroundImageFix"/>
<feColorMatrix in="SourceAlpha" type="matrix" values="0 0 0 0 0 0 0 0 0 0 0 0 0 0 0 0 0 0 127 0" result="hardAlpha"/>
<feOffset dy="4"/>
<feGaussianBlur stdDeviation="2"/>
<feComposite in2="hardAlpha" operator="out"/>
<feColorMatrix type="matrix" values="0 0 0 0 0 0 0 0 0 0 0 0 0 0 0 0 0 0 0.25 0"/>
<feBlend mode="normal" in2="BackgroundImageFix" result="effect1_dropShadow_939:3506"/>
<feBlend mode="normal" in="SourceGraphic" in2="effect1_dropShadow_939:3506" result="shape"/>
</filter>
</defs>
</svg>
