<svg width="169" height="48" viewBox="0 0 169 48" fill="none" xmlns="http://www.w3.org/2000/svg">
<rect x="1.5" y="1.5" width="166" height="45" fill="#F05127" stroke="black" stroke-width="3"/>
<path d="M63.3922 29.2643C65.3519 29.2643 67.0564 28.6719 68.3416 27.569C69.6177 26.466 70.3925 24.6613 70.3925 22.4646C70.3925 20.7054 69.8912 19.1832 69.0435 18.1168C67.7492 16.5034 65.7256 15.674 63.3922 15.674C61.4234 15.674 59.7007 16.2756 58.4246 17.3693C57.1394 18.4723 56.3555 20.277 56.3555 22.4646C56.3555 24.6613 57.1394 26.466 58.4246 27.569C59.7007 28.6719 61.4234 29.2643 63.3922 29.2643ZM63.3922 25.9374C62.6357 25.9374 62.0159 25.6275 61.5328 25.0168C61.0406 24.4061 60.7945 23.5493 60.7945 22.4646C60.7945 21.3799 61.0406 20.5322 61.5237 19.9215C62.0067 19.3108 62.6357 19.01 63.3922 19.01C64.1396 19.01 64.7595 19.3108 65.2425 19.9215C65.7256 20.5322 65.9717 21.3799 65.9717 22.4646C65.9717 23.5493 65.7256 24.4061 65.2425 25.0168C64.7595 25.6275 64.1396 25.9374 63.3922 25.9374ZM82.488 29.2826C82.962 29.2826 83.4177 29.1823 83.8461 28.9818C84.2745 28.7904 84.5753 28.5443 84.7485 28.2526L84.712 24.1873C84.393 25.0168 83.6091 25.6184 82.4151 25.6184C81.8408 25.6184 81.3122 25.3814 81.0205 25.1535C80.7197 24.9256 80.2913 24.6704 79.8902 24.6339V24.4061H79.9905C81.3122 24.4061 82.3604 24.1873 83.1352 23.7498C83.9008 23.3214 84.2836 22.7016 84.2836 21.8904C84.2836 20.2314 83.1534 19.402 80.8838 19.402C79.7718 19.402 78.8238 19.7028 78.0399 20.3135C77.2469 20.9242 76.7456 21.7172 76.5177 22.6925H76.3628V20.6598C76.3628 18.7001 76.4995 17.1232 76.7729 15.9292H71.6777C71.9603 17.1779 72.1061 18.7548 72.1061 20.6598V24.2785C72.1061 26.1744 71.9603 27.7513 71.6777 29H76.7729C76.5086 27.9336 76.381 26.776 76.381 25.5272V25.0077C76.6089 24.9439 76.8185 24.9074 77.0008 24.9074C78.1858 24.9074 78.7053 25.7186 79.1702 26.6301C79.4801 27.2499 79.8264 27.8971 80.2731 28.4075C80.7197 28.9271 81.4945 29.2826 82.488 29.2826ZM76.3992 23.9594C76.4539 23.5128 76.7091 23.1026 77.174 22.7472C77.6389 22.3917 78.1402 22.2094 78.678 22.2094C79.4527 22.2094 79.954 22.5284 79.954 23.0844C79.954 23.6678 79.5256 23.9594 78.678 23.9594H76.3992ZM89.3698 29.2643C91.2019 29.2643 92.4233 28.5625 92.9337 27.4687H93.1434V27.6328C93.1434 28.2343 93.0431 28.6901 92.8426 29H97.6006C97.4274 28.5351 97.318 27.9791 97.2542 27.332C97.1904 26.6848 97.1539 25.7642 97.1539 24.5793V22.9933C97.1539 20.596 95.1851 19.402 91.2383 19.402C90.4909 19.402 89.6523 19.4658 88.7317 19.6025C87.802 19.7392 87.1275 19.8851 86.6991 20.04V22.7107C87.0364 22.4099 87.5286 22.1638 88.1757 21.9724C88.8138 21.781 89.5065 21.6807 90.2448 21.6807C91.0743 21.6807 91.767 21.863 92.323 22.2367C92.8699 22.6104 93.1434 23.1482 93.1434 23.8683V24.6886H92.8973C92.3959 23.6313 91.1836 22.9112 89.388 22.9112C88.1757 22.9112 87.2278 23.212 86.5533 23.8227C85.8788 24.4334 85.5415 25.19 85.5415 26.0923C85.5415 26.6757 85.6873 27.2044 85.9699 27.6692C86.535 28.6172 87.7564 29.2643 89.3698 29.2643ZM91.293 27.1679C90.1992 27.1679 89.5156 26.6757 89.5156 26.0103C89.5156 25.3176 90.1901 24.8527 91.293 24.8527C91.8308 24.8527 92.2683 24.9621 92.5965 25.19C92.9246 25.4178 93.0887 25.6913 93.0887 26.0103C93.0887 26.7122 92.3959 27.1679 91.293 27.1679ZM105.631 33.2567C109.304 33.2567 112.613 31.6707 112.613 28.6263C112.613 28.0703 112.449 27.5052 112.112 26.9309V23.3396C112.112 22.5649 112.148 21.9268 112.212 21.4073C112.276 20.8877 112.385 20.3135 112.54 19.6663H107.426C107.581 20.0309 107.7 20.6051 107.764 21.3981C107.828 22.1911 107.855 22.9112 107.855 23.5493L107.873 24.4425C107.873 25.0441 107.673 25.5546 107.281 25.9647C106.88 26.384 106.369 26.5937 105.74 26.5937C105.129 26.5937 104.665 26.3931 104.327 25.9921C103.99 25.6001 103.817 25.0806 103.817 24.4425V23.5675C103.817 22.2732 103.954 20.9697 104.227 19.6663H99.1319C99.4327 21.0153 99.5876 22.4646 99.5876 24.0141V25.0077C99.5876 26.3293 99.9522 27.3684 100.681 28.125C101.411 28.8815 102.459 29.2643 103.835 29.2643C105.795 29.2643 107.071 28.2799 107.7 26.6301H107.91C108.338 27.0038 108.548 27.4596 108.548 28.0065C108.548 28.8268 108.21 29.4649 107.545 29.9115C106.88 30.3581 105.977 30.586 104.847 30.586C103.863 30.586 102.86 30.4402 101.839 30.1394C100.818 29.8386 100.034 29.4466 99.4874 28.9635L99.5056 32.5092C100.226 32.7371 101.165 32.9194 102.304 33.0561C103.443 33.1929 104.546 33.2567 105.631 33.2567Z" fill="#FBFFFE"/>
</svg>
