<svg width="56" height="39" viewBox="0 0 56 39" fill="none" xmlns="http://www.w3.org/2000/svg">
<g clip-path="url(#clip0_706:4395)">
<path d="M15.4907 0.968261C15.4907 10.6499 20.3315 15.4908 30.0132 15.4908M30.0132 15.4908C20.3315 15.4907 15.4907 20.3316 15.4907 30.0132M0.968205 15.4908C10.6499 15.4908 15.4907 10.6499 15.4907 0.968262M15.4907 30.0132C15.4907 20.3316 10.6499 15.4907 0.968205 15.4908" stroke="#006C00" stroke-width="0.484083"/>
</g>
<g clip-path="url(#clip1_706:4395)">
<path d="M36.8131 15.6956C36.8131 23.2131 40.5718 26.9718 48.0894 26.9718M48.0894 26.9718C40.5718 26.9718 36.8131 30.7306 36.8131 38.2481M25.5368 26.9718C33.0543 26.9718 36.8131 23.2131 36.8131 15.6956M36.8131 38.2481C36.8131 30.7306 33.0543 26.9718 25.5368 26.9718" stroke="#006C00" stroke-width="0.375876"/>
</g>
<path d="M46.1073 2.40332C46.1073 8.21232 49.0118 11.1168 54.8208 11.1168M54.8208 11.1168C49.0118 11.1168 46.1073 14.0213 46.1073 19.8303M37.3938 11.1168C43.2028 11.1168 46.1073 8.21232 46.1073 2.40332M46.1073 19.8303C46.1073 14.0213 43.2028 11.1168 37.3938 11.1168" stroke="#006C00" stroke-width="0.29045"/>
<defs>
<clipPath id="clip0_706:4395">
<rect width="30.9813" height="30.9813" fill="white"/>
</clipPath>
<clipPath id="clip1_706:4395">
<rect width="24.0561" height="24.0561" fill="white" transform="translate(24.7852 14.9438)"/>
</clipPath>
</defs>
</svg>
