<svg width="120" height="154" viewBox="0 0 120 154" fill="none" xmlns="http://www.w3.org/2000/svg">
<mask id="path-1-inside-1_2294_4182" fill="white">
<path fill-rule="evenodd" clip-rule="evenodd" d="M41.4766 90.1855L80.7406 82.3915L91.9987 139.106L52.7354 146.9L53.024 148.354L53.0233 148.355L41.4766 90.1855ZM69.7686 129.915L91.8873 139.128L52.846 146.878L69.7686 129.915Z"/>
</mask>
<path fill-rule="evenodd" clip-rule="evenodd" d="M41.4766 90.1855L80.7406 82.3915L91.9987 139.106L52.7354 146.9L53.024 148.354L53.0233 148.355L41.4766 90.1855ZM69.7686 129.915L91.8873 139.128L52.846 146.878L69.7686 129.915Z" fill="#E63D25"/>
<path d="M80.7406 82.3915L82.1949 82.1028L81.9062 80.6486L80.452 80.9373L80.7406 82.3915ZM41.4766 90.1855L41.1879 88.7313L39.7337 89.02L40.0223 90.4742L41.4766 90.1855ZM91.9987 139.106L92.2874 140.561L93.7416 140.272L93.4529 138.818L91.9987 139.106ZM52.7354 146.9L52.4467 145.446L50.9925 145.735L51.2811 147.189L52.7354 146.9ZM53.024 148.354L53.3127 149.809L54.7669 149.52L54.4782 148.066L53.024 148.354ZM53.0233 148.355L51.5691 148.643L51.8577 150.097L53.312 149.809L53.0233 148.355ZM91.8873 139.128L92.176 140.583L96.9563 139.634L92.4574 137.76L91.8873 139.128ZM69.7686 129.915L70.3387 128.547L69.4211 128.164L68.719 128.868L69.7686 129.915ZM52.846 146.878L51.7964 145.831L48.3544 149.281L53.1347 148.332L52.846 146.878ZM80.452 80.9373L41.1879 88.7313L41.7652 91.6398L81.0293 83.8457L80.452 80.9373ZM93.4529 138.818L82.1949 82.1028L79.2864 82.6802L90.5445 139.395L93.4529 138.818ZM53.024 148.354L92.2874 140.561L91.71 137.652L52.4467 145.446L53.024 148.354ZM54.4782 148.066L54.1896 146.612L51.2811 147.189L51.5698 148.643L54.4782 148.066ZM53.312 149.809L53.3127 149.809L52.7353 146.9L52.7346 146.9L53.312 149.809ZM40.0223 90.4742L51.5691 148.643L54.4775 148.066L42.9308 89.8969L40.0223 90.4742ZM92.4574 137.76L70.3387 128.547L69.1986 131.284L91.3172 140.497L92.4574 137.76ZM53.1347 148.332L92.176 140.583L91.5986 137.674L52.5574 145.424L53.1347 148.332ZM68.719 128.868L51.7964 145.831L53.8956 147.925L70.8182 130.962L68.719 128.868Z" fill="black" mask="url(#path-1-inside-1_2294_4182)"/>
<mask id="path-3-inside-2_2294_4182" fill="white">
<path d="M41.5563 13.3775C42.8628 8.69288 48.9425 7.48604 51.9394 11.3164L56.2518 16.8284C58.2794 19.42 62.0293 19.8653 64.6075 17.8207L70.0909 13.4721C73.9015 10.4501 79.5295 13.0473 79.7025 17.9077L79.9515 24.9017C80.0686 28.1901 82.8406 30.7545 86.1281 30.6158L93.1204 30.3208C97.9795 30.1158 101.006 35.525 98.2892 39.5588L94.3796 45.3635C92.5414 48.0927 93.2767 51.7967 96.0179 53.6168L101.848 57.4881C105.9 60.1784 105.169 66.3335 100.6 68L94.025 70.398C90.9337 71.5256 89.3514 74.9543 90.4993 78.0381L92.9406 84.597C94.6371 89.1549 90.4279 93.7048 85.7519 92.3675L79.0233 90.443C75.8596 89.5382 72.5641 91.382 71.6801 94.5516L69.8 101.293C68.4934 105.977 62.4137 107.184 59.4169 103.354L55.1044 97.8419C53.0768 95.2503 49.3269 94.805 46.7487 96.8496L41.2653 101.198C37.4547 104.22 31.8267 101.623 31.6537 96.7626L31.4047 89.7686C31.2876 86.4802 28.5157 83.9158 25.2281 84.0545L18.2358 84.3495C13.3767 84.5545 10.3502 79.1453 13.0671 75.1115L16.9766 69.3068C18.8148 66.5776 18.0795 62.8736 15.3383 61.0535L9.50803 57.1822C5.45642 54.4919 6.18738 48.3369 10.7564 46.6704L17.3312 44.2723C20.4225 43.1447 22.0048 39.716 20.8569 36.6322L18.4156 30.0733C16.7191 25.5154 20.9283 20.9655 25.6043 22.3028L32.333 24.2273C35.4966 25.1321 38.7921 23.2883 39.6761 20.1187L41.5563 13.3775Z"/>
</mask>
<path d="M41.5563 13.3775C42.8628 8.69288 48.9425 7.48604 51.9394 11.3164L56.2518 16.8284C58.2794 19.42 62.0293 19.8653 64.6075 17.8207L70.0909 13.4721C73.9015 10.4501 79.5295 13.0473 79.7025 17.9077L79.9515 24.9017C80.0686 28.1901 82.8406 30.7545 86.1281 30.6158L93.1204 30.3208C97.9795 30.1158 101.006 35.525 98.2892 39.5588L94.3796 45.3635C92.5414 48.0927 93.2767 51.7967 96.0179 53.6168L101.848 57.4881C105.9 60.1784 105.169 66.3335 100.6 68L94.025 70.398C90.9337 71.5256 89.3514 74.9543 90.4993 78.0381L92.9406 84.597C94.6371 89.1549 90.4279 93.7048 85.7519 92.3675L79.0233 90.443C75.8596 89.5382 72.5641 91.382 71.6801 94.5516L69.8 101.293C68.4934 105.977 62.4137 107.184 59.4169 103.354L55.1044 97.8419C53.0768 95.2503 49.3269 94.805 46.7487 96.8496L41.2653 101.198C37.4547 104.22 31.8267 101.623 31.6537 96.7626L31.4047 89.7686C31.2876 86.4802 28.5157 83.9158 25.2281 84.0545L18.2358 84.3495C13.3767 84.5545 10.3502 79.1453 13.0671 75.1115L16.9766 69.3068C18.8148 66.5776 18.0795 62.8736 15.3383 61.0535L9.50803 57.1822C5.45642 54.4919 6.18738 48.3369 10.7564 46.6704L17.3312 44.2723C20.4225 43.1447 22.0048 39.716 20.8569 36.6322L18.4156 30.0733C16.7191 25.5154 20.9283 20.9655 25.6043 22.3028L32.333 24.2273C35.4966 25.1321 38.7921 23.2883 39.6761 20.1187L41.5563 13.3775Z" fill="#F77655"/>
<path d="M32.333 24.2273L31.9253 25.6527L32.333 24.2273ZM39.6761 20.1187L38.248 19.7204L39.6761 20.1187ZM18.4156 30.0733L19.8051 29.5561L18.4156 30.0733ZM25.6043 22.3028L26.012 20.8774L25.6043 22.3028ZM17.3312 44.2723L16.8231 42.8794L17.3312 44.2723ZM20.8569 36.6322L19.4675 37.1494L20.8569 36.6322ZM9.50803 57.1822L8.68792 58.4173L9.50803 57.1822ZM10.7564 46.6704L11.2644 48.0632L10.7564 46.6704ZM16.9766 69.3068L15.7469 68.4786L16.9766 69.3068ZM15.3383 61.0535L16.1584 59.8183L15.3383 61.0535ZM18.2358 84.3495L18.2983 85.8308L18.2358 84.3495ZM13.0671 75.1115L14.2968 75.9397L13.0671 75.1115ZM31.4047 89.7686L32.8864 89.7158L31.4047 89.7686ZM25.2281 84.0545L25.1656 82.5732L25.2281 84.0545ZM41.2653 101.198L40.344 100.037L41.2653 101.198ZM31.6537 96.7626L30.172 96.8154L31.6537 96.7626ZM55.1044 97.8419L56.2721 96.9283L55.1044 97.8419ZM46.7487 96.8496L47.67 98.0113L46.7487 96.8496ZM69.8 101.293L68.3719 100.894L69.8 101.293ZM59.4169 103.354L58.2492 104.267L59.4169 103.354ZM79.0233 90.443L78.6156 91.8685L79.0233 90.443ZM71.6801 94.5516L73.1082 94.9499L71.6801 94.5516ZM92.9406 84.597L91.5511 85.1142L92.9406 84.597ZM85.7519 92.3675L86.1596 90.942L85.7519 92.3675ZM94.025 70.398L93.517 69.0052L94.025 70.398ZM90.4993 78.0381L91.8887 77.5209L90.4993 78.0381ZM101.848 57.4881L102.668 56.253L101.848 57.4881ZM100.6 68L101.108 69.3928L100.6 68ZM94.3796 45.3635L93.1499 44.5353L94.3796 45.3635ZM96.0179 53.6168L95.1978 54.852L96.0179 53.6168ZM93.1204 30.3208L93.1829 31.8021L93.1204 30.3208ZM98.2892 39.5588L99.5188 40.3871L98.2892 39.5588ZM79.9515 24.9017L78.4699 24.9545L79.9515 24.9017ZM86.1281 30.6158L86.0656 29.1345L86.1281 30.6158ZM70.0909 13.4721L71.0122 14.6337L70.0909 13.4721ZM79.7025 17.9077L81.1842 17.8549L79.7025 17.9077ZM56.2518 16.8284L57.4195 15.9148L56.2518 16.8284ZM64.6075 17.8207L63.6862 16.659L64.6075 17.8207ZM51.9394 11.3164L50.7717 12.23L51.9394 11.3164ZM41.5563 13.3775L42.9843 13.7758L41.5563 13.3775ZM50.7717 12.23L55.0841 17.742L57.4195 15.9148L53.107 10.4029L50.7717 12.23ZM65.5287 18.9823L71.0122 14.6337L69.1697 12.3104L63.6862 16.659L65.5287 18.9823ZM78.2209 17.9604L78.4699 24.9545L81.4332 24.849L81.1842 17.8549L78.2209 17.9604ZM86.1906 32.0971L93.1829 31.8021L93.0579 28.8395L86.0656 29.1345L86.1906 32.0971ZM97.0595 38.7306L93.1499 44.5353L95.6093 46.1917L99.5188 40.3871L97.0595 38.7306ZM95.1978 54.852L101.028 58.7232L102.668 56.253L96.838 52.3817L95.1978 54.852ZM100.092 66.6071L93.517 69.0052L94.5331 71.7909L101.108 69.3928L100.092 66.6071ZM89.1098 78.5553L91.5511 85.1142L94.33 84.0798L91.8887 77.5209L89.1098 78.5553ZM86.1596 90.942L79.4309 89.0176L78.6156 91.8685L85.3442 93.7929L86.1596 90.942ZM70.252 94.1533L68.3719 100.894L71.2281 101.691L73.1082 94.9499L70.252 94.1533ZM60.5845 102.44L56.2721 96.9283L53.9367 98.7555L58.2492 104.267L60.5845 102.44ZM45.8275 95.688L40.344 100.037L42.1865 102.36L47.67 98.0113L45.8275 95.688ZM33.1354 96.7099L32.8864 89.7158L29.923 89.8213L30.172 96.8154L33.1354 96.7099ZM25.1656 82.5732L18.1733 82.8682L18.2983 85.8308L25.2906 85.5358L25.1656 82.5732ZM14.2968 75.9397L18.2063 70.135L15.7469 68.4786L11.8374 74.2832L14.2968 75.9397ZM16.1584 59.8183L10.3281 55.9471L8.68792 58.4173L14.5182 62.2886L16.1584 59.8183ZM11.2644 48.0632L17.8392 45.6651L16.8231 42.8794L10.2484 45.2775L11.2644 48.0632ZM22.2464 36.115L19.8051 29.5561L17.0262 30.5905L19.4675 37.1494L22.2464 36.115ZM25.1966 23.7283L31.9253 25.6527L32.7406 22.8018L26.012 20.8774L25.1966 23.7283ZM41.1042 20.517L42.9843 13.7758L40.1282 12.9792L38.248 19.7204L41.1042 20.517ZM31.9253 25.6527C35.8798 26.7838 39.9992 24.479 41.1042 20.517L38.248 19.7204C37.585 22.0976 35.1134 23.4805 32.7406 22.8018L31.9253 25.6527ZM19.8051 29.5561C18.5327 26.1377 21.6896 22.7252 25.1966 23.7283L26.012 20.8774C20.167 19.2057 14.9055 24.8931 17.0262 30.5905L19.8051 29.5561ZM17.8392 45.6651C21.7033 44.2557 23.6812 39.9698 22.2464 36.115L19.4675 37.1494C20.3283 39.4622 19.1416 42.0338 16.8231 42.8794L17.8392 45.6651ZM10.3281 55.9471C7.28944 53.9294 7.83765 49.3131 11.2644 48.0632L10.2484 45.2775C4.5371 47.3606 3.6234 55.0545 8.68792 58.4173L10.3281 55.9471ZM18.2063 70.135C20.504 66.7235 19.585 62.0936 16.1584 59.8183L14.5182 62.2886C16.5741 63.6537 17.1255 66.4317 15.7469 68.4786L18.2063 70.135ZM18.1733 82.8682C14.529 83.022 12.2591 78.9651 14.2968 75.9397L11.8374 74.2832C8.44129 79.3255 12.2244 86.087 18.2983 85.8308L18.1733 82.8682ZM32.8864 89.7158C32.74 85.6053 29.2751 82.3998 25.1656 82.5732L25.2906 85.5358C27.7563 85.4317 29.8352 87.355 29.923 89.8213L32.8864 89.7158ZM40.344 100.037C37.4861 102.303 33.2651 100.355 33.1354 96.7099L30.172 96.8154C30.3883 102.891 37.4233 106.137 42.1865 102.36L40.344 100.037ZM56.2721 96.9283C53.7376 93.6889 49.0502 93.1322 45.8275 95.688L47.67 98.0113C49.6036 96.4778 52.416 96.8118 53.9367 98.7555L56.2721 96.9283ZM68.3719 100.894C67.3919 104.408 62.8322 105.313 60.5845 102.44L58.2492 104.267C61.9952 109.055 69.5948 107.547 71.2281 101.691L68.3719 100.894ZM79.4309 89.0176C75.4764 87.8865 71.357 90.1913 70.252 94.1533L73.1082 94.9499C73.7712 92.5727 76.2428 91.1898 78.6156 91.8685L79.4309 89.0176ZM91.5511 85.1142C92.8235 88.5326 89.6666 91.9451 86.1596 90.942L85.3442 93.7929C91.1892 95.4646 96.4507 89.7773 94.33 84.0798L91.5511 85.1142ZM93.517 69.0052C89.6529 70.4146 87.675 74.7005 89.1098 78.5553L91.8887 77.5209C91.0279 75.2081 92.2146 72.6365 94.5331 71.7909L93.517 69.0052ZM101.028 58.7232C104.067 60.7409 103.519 65.3572 100.092 66.6071L101.108 69.3928C106.819 67.3097 107.733 59.6158 102.668 56.253L101.028 58.7232ZM93.1499 44.5353C90.8522 47.9468 91.7713 52.5767 95.1978 54.852L96.838 52.3817C94.7821 51.0166 94.2307 48.2386 95.6093 46.1917L93.1499 44.5353ZM93.1829 31.8021C96.8272 31.6483 99.0971 35.7052 97.0595 38.7306L99.5188 40.3871C102.915 35.3448 99.1318 28.5833 93.0579 28.8395L93.1829 31.8021ZM78.4699 24.9545C78.6162 29.065 82.0812 32.2705 86.1906 32.0971L86.0656 29.1345C83.6 29.2386 81.521 27.3153 81.4332 24.849L78.4699 24.9545ZM71.0122 14.6337C73.8701 12.3672 78.0911 14.3151 78.2209 17.9604L81.1842 17.8549C80.9679 11.7795 73.933 8.53296 69.1697 12.3104L71.0122 14.6337ZM55.0841 17.742C57.6186 20.9814 62.306 21.5381 65.5287 18.9823L63.6862 16.659C61.7526 18.1925 58.9402 17.8585 57.4195 15.9148L55.0841 17.742ZM53.107 10.4029C49.361 5.61487 41.7614 7.12341 40.1282 12.9792L42.9843 13.7758C43.9643 10.2623 48.524 9.35722 50.7717 12.23L53.107 10.4029Z" fill="black" mask="url(#path-3-inside-2_2294_4182)"/>
<circle cx="55.0956" cy="58.2065" r="23.7216" transform="rotate(-11.2275 55.0956 58.2065)" fill="#FFD746" stroke="black" stroke-width="1.4826"/>
<path d="M50.1447 66.035L49.2313 61.4337L53.2986 60.6263L52.8836 58.5359L48.8163 59.3433L47.9278 54.867L45.6215 55.3248L46.51 59.8011L42.4314 60.6107L42.8463 62.7011L46.925 61.8915L47.8383 66.4928L50.1447 66.035ZM68.8827 64.5945L67.8769 59.5274L63.8323 60.3303L62.1544 51.8776C61.8996 50.5938 61.7715 49.6509 61.7632 49.0739L58.6162 49.6986C58.1266 50.5043 57.4305 51.2211 56.5414 51.8582C55.6523 52.4952 54.6816 53.0185 53.6247 53.4055L54.5561 58.0976C56.0991 57.7205 57.5743 57.0616 58.984 56.1322L59.9695 61.0971L54.9593 62.0916L55.9651 67.1587L68.8827 64.5945Z" fill="black"/>
</svg>
