<svg width="287" height="79" viewBox="0 0 287 79" fill="none" xmlns="http://www.w3.org/2000/svg">
<rect x="9.5" y="6.5" width="276" height="71" stroke="#0F0F0F" stroke-width="3"/>
<rect x="1.5" y="1.5" width="275" height="66" fill="#F05127" stroke="#0F0F0F" stroke-width="3"/>
<path d="M78.5312 48.5752C79.4775 48.5752 80.4053 48.3154 81.3145 47.8145C82.2051 47.3135 82.8359 46.7012 83.207 45.9775L83.0957 34.585C82.0752 37.1641 80.3682 38.4629 77.9746 38.4629C76.9541 38.4629 76.0264 37.9805 75.2842 37.3682C74.208 36.4961 73.0391 35.3828 71.1279 35.3828H71.0537V35.1602H71.3877C73.3359 35.1602 75.0615 34.9004 76.5645 34.3994C78.0674 33.8984 79.2734 33.1191 80.1826 32.043C81.0918 30.9854 81.5371 29.7051 81.5371 28.2021C81.5371 26.7363 81.0732 25.4932 80.1455 24.4355C78.2715 22.3574 75.1172 21.3926 71.165 21.3926H55.0225C55.5977 23.9346 55.8945 27.1445 55.8945 31.0225V38.3887C55.8945 42.248 55.5977 45.458 55.0225 48H65.4316C64.8564 45.458 64.5596 42.248 64.5596 38.3887V36.8301C64.8936 36.7002 65.4316 36.6445 66.1924 36.6445C69.1982 36.6445 70.1816 39.001 71.165 41.6172C72.3525 44.8828 73.5029 48.5938 78.5312 48.5752ZM64.5596 29.6123H69.6436C71.4434 29.6123 72.7236 30.4658 72.7236 31.7832C72.7236 33.1934 71.4619 33.9727 69.458 33.9727H64.5596V29.6123ZM97.2715 48.5381C99.1455 48.5381 101.038 48.3711 102.931 48.0557C104.823 47.7217 106.271 47.2949 107.291 46.7754L107.143 40.5225C106.438 41.3018 105.38 41.9141 103.97 42.3594C102.56 42.8047 101.075 43.0273 99.5352 43.0273C97.5312 43.0273 95.7871 42.582 94.3027 41.71C92.7998 40.8379 91.9834 39.8174 91.835 38.6484L92.1318 38.4629C94.1543 40.0029 96.6592 40.5225 99.9248 40.5225C104.879 40.5225 107.718 38.7783 107.718 35.2715C107.718 33.8428 107.272 32.5625 106.178 31.375C104.619 29.668 101.521 28.4805 96.6963 28.4619C92.707 28.4619 89.4229 29.5938 87.4189 31.4307C85.3965 33.2861 84.3018 35.7354 84.3018 38.5C84.3018 41.5059 85.4707 43.9365 87.8271 45.7734C90.1836 47.6104 93.3193 48.5381 97.2715 48.5381ZM96.6221 38.3516C94.6367 38.3516 93.1338 37.8691 92.0947 36.9043C92.2617 35.8467 92.7441 35.0488 93.5049 34.4922C94.2656 33.9541 95.1562 33.6758 96.1582 33.6758C98.4033 33.6758 99.8135 34.6406 99.8135 36.1436C99.8135 36.793 99.498 37.3125 98.8672 37.7207C98.2363 38.1475 97.4941 38.3516 96.6221 38.3516ZM121.894 56.665C129.371 56.665 136.106 53.4365 136.106 47.2393C136.106 46.2373 135.847 45.2539 135.346 44.3076V38.6113C135.346 34.752 135.643 31.542 136.218 29H125.846C126.198 29.8721 126.421 30.5771 126.551 31.1338C126.662 31.709 126.718 32.4141 126.718 33.249V33.6758H126.217C124.937 30.4844 122.172 28.4619 118.238 28.4619C115.288 28.4619 112.932 29.5938 111.521 31.4492C110.093 33.3047 109.351 35.7354 109.351 38.5371C109.351 41.3389 110.093 43.7324 111.521 45.5693C112.932 47.4248 115.288 48.5381 118.238 48.5381C122.265 48.5381 125.011 46.4414 126.217 43.25H126.644C127.423 44.0664 127.812 44.957 127.812 45.9404C127.812 47.6289 127.126 48.9277 125.771 49.8555C124.417 50.7646 122.58 51.2285 120.298 51.2285C118.294 51.2285 116.253 50.9316 114.175 50.3193C112.097 49.707 110.501 48.9092 109.388 47.9258L109.425 55.1436C110.891 55.6074 112.783 55.9785 115.103 56.2568C117.422 56.5352 119.686 56.665 121.894 56.665ZM122.005 43.1387C120.576 43.1387 119.444 42.7119 118.609 41.8398C117.756 40.9678 117.329 39.873 117.329 38.5371C117.329 37.1641 117.756 36.0322 118.609 35.1602C119.444 34.2881 120.576 33.8613 122.005 33.8613C123.396 33.8613 124.491 34.3066 125.326 35.1787C126.161 36.0508 126.569 37.1826 126.569 38.5371C126.569 39.8174 126.143 40.9121 125.289 41.8027C124.436 42.6934 123.341 43.1387 122.005 43.1387ZM148.13 26.8848C148.965 26.124 149.373 25.1592 149.373 23.9902C149.373 22.8027 148.965 21.8193 148.13 21.0586C147.295 20.2979 146.182 19.9268 144.771 19.9268C143.361 19.9268 142.248 20.2979 141.432 21.0586C140.597 21.8193 140.188 22.8027 140.188 23.9902C140.188 25.1592 140.597 26.124 141.432 26.8848C142.248 27.6455 143.361 28.0166 144.771 28.0166C146.182 28.0166 147.295 27.6455 148.13 26.8848ZM149.985 48C149.41 45.458 149.113 42.248 149.113 38.3887V33.1377C149.113 31.3936 149.206 30.0205 149.373 29C148.315 29.7607 146.831 30.1504 144.883 30.1504C142.935 30.1504 141.395 29.7607 140.226 29C140.393 29.8164 140.485 31.1895 140.485 33.1377V38.3887C140.485 42.248 140.188 45.458 139.613 48H149.985ZM163.011 48.5381C166.573 48.5381 169.319 48 171.268 46.9053C173.216 45.8105 174.181 44.2891 174.181 42.3037C174.199 39.4092 171.546 38.166 168.596 37.665C164.606 36.9229 159.968 37.2754 159.968 35.958C159.968 35.1973 161.322 34.6592 163.567 34.6592C165.145 34.6592 166.722 34.8633 168.28 35.29C169.839 35.7168 171.119 36.1807 172.121 36.6816L172.158 30.1689C169.264 29.0371 166.184 28.4619 162.918 28.4619C159.522 28.4619 156.925 29 155.125 30.0762C153.307 31.1709 152.397 32.5811 152.397 34.3252C152.397 41.4873 166.573 38.2773 166.573 40.8936C166.573 41.7285 165.089 42.1924 162.473 42.1924C161.081 42.1924 159.393 41.9512 157.426 41.4873C155.44 41.0234 153.733 40.4482 152.286 39.7988V46.9424C153.529 47.3506 155.255 47.7217 157.481 48.0557C159.689 48.3711 161.545 48.5381 163.011 48.5381ZM188.319 48.5381C189.136 48.5381 189.989 48.4268 190.88 48.2227C191.752 48.0186 192.494 47.7402 193.069 47.4248V40.7451C192.531 41.2832 191.362 41.6914 190.305 41.6914C189.284 41.6914 188.412 41.3945 187.707 40.7822C187.002 40.1885 186.649 39.335 186.649 38.2402V31.542H192.847V29H186.649V21.3926L178.634 23.4893V29H175.257V31.542H178.634V41.3203C178.634 46.126 181.862 48.5381 188.319 48.5381ZM207.672 48.5381C209.546 48.5381 211.438 48.3711 213.331 48.0557C215.224 47.7217 216.671 47.2949 217.691 46.7754L217.543 40.5225C216.838 41.3018 215.78 41.9141 214.37 42.3594C212.96 42.8047 211.476 43.0273 209.936 43.0273C207.932 43.0273 206.188 42.582 204.703 41.71C203.2 40.8379 202.384 39.8174 202.235 38.6484L202.532 38.4629C204.555 40.0029 207.06 40.5225 210.325 40.5225C215.279 40.5225 218.118 38.7783 218.118 35.2715C218.118 33.8428 217.673 32.5625 216.578 31.375C215.02 29.668 211.921 28.4805 207.097 28.4619C203.107 28.4619 199.823 29.5938 197.819 31.4307C195.797 33.2861 194.702 35.7354 194.702 38.5C194.702 41.5059 195.871 43.9365 198.228 45.7734C200.584 47.6104 203.72 48.5381 207.672 48.5381ZM207.022 38.3516C205.037 38.3516 203.534 37.8691 202.495 36.9043C202.662 35.8467 203.145 35.0488 203.905 34.4922C204.666 33.9541 205.557 33.6758 206.559 33.6758C208.804 33.6758 210.214 34.6406 210.214 36.1436C210.214 36.793 209.898 37.3125 209.268 37.7207C208.637 38.1475 207.895 38.3516 207.022 38.3516ZM231.255 48C230.698 46.5713 230.42 44.6602 230.42 42.2666V40.5596C230.42 38.9824 230.995 37.6836 232.127 36.6445C233.259 35.6055 234.613 35.0859 236.172 35.0859C237.972 35.0859 239.79 35.8467 240.755 36.8672V29.0371C239.883 28.6475 238.881 28.4619 237.73 28.4619C234.094 28.4619 231.607 30.9482 230.884 35.3457H230.42V34.2139C230.42 33.3047 230.531 32.3584 230.772 31.375C230.995 30.3916 231.329 29.6123 231.756 29H220.883C221.458 31.542 221.755 34.3438 221.755 37.4053V40.5596C221.755 42.0811 221.681 43.3613 221.551 44.4004C221.421 45.458 221.198 46.6455 220.883 48H231.255Z" fill="white"/>
</svg>
