<svg width="289" height="327" viewBox="0 0 289 327" fill="none" xmlns="http://www.w3.org/2000/svg">
<g filter="url(#filter0_i_939:3574)">
<path d="M211.569 75.0139C212.318 77.4492 212.99 80.128 213.236 81.1306L211.569 75.0139ZM213.236 81.1306L213.235 81.128L209.999 81.9272L213.237 81.1333L213.236 81.1306ZM213.236 81.1306C215 88.2744 216.152 95.5555 216.679 102.895C217.145 109.389 218.002 115.655 218.876 122.039C219.468 126.37 220.068 130.757 220.559 135.307L213.236 81.1306Z" fill="#FFF5F1"/>
<path d="M211.569 75.0139C209.757 69.1292 206.038 59.9124 197.714 48.9862C197.119 47.3967 195.245 43.485 190.708 41.9985C187.62 40.9867 184.933 41.6627 183.693 42.0884L155.94 45.177C155.423 44.5214 154.818 43.9347 154.138 43.4351L154.131 43.4298L154.124 43.4245C152.788 42.4526 151.405 41.9924 150.207 41.7931C149.424 38.7992 147.95 34.9837 145.078 31.2965C137.543 21.621 124.833 18.4487 114.687 20.1869L114.686 20.1872C101.769 22.4078 91.3109 32.7253 87.768 46.1413C87.3053 46.2555 86.804 46.4027 86.2818 46.5924C84.2854 47.318 81.7519 48.7563 80.0657 51.58L80.0574 51.5939L78.7765 54.7641L46.256 58.5512C45.4425 58.4674 43.8479 58.3825 41.9447 58.6988C39.481 59.1083 36.2974 60.2293 33.7376 63.0973C30.4399 66.7921 30.2381 71.0819 30.2178 72.2979L30.207 72.947L30.4404 73.5527C34.248 83.4369 37.3088 93.5927 39.5971 103.935C42.7908 118.367 43.5581 130.761 44.9782 155.56C46.3472 179.489 46.993 191.584 45.8487 208.112V208.113C45.1101 218.825 45.5 230.5 42.5 240.222L39.5 248M211.569 75.0139C212.318 77.4492 212.99 80.128 213.236 81.1306M211.569 75.0139L213.236 81.1306M213.236 81.1306L213.235 81.128L209.999 81.9272L213.237 81.1333L213.236 81.1306ZM213.236 81.1306C215 88.2744 216.152 95.5555 216.679 102.895C217.145 109.389 218.002 115.655 218.876 122.039C219.468 126.37 220.068 130.757 220.559 135.307M213.236 81.1306L220.559 135.307M220.559 135.307C221.623 145.145 223.23 159.325 225.498 176.921L225.5 176.937L225.501 176.952" stroke="#C33D59" stroke-width="6.67183"/>
<path d="M43 239C42.2459 243.015 39.4853 248.682 37.8107 250.615C37.7155 250.725 37.3907 250.997 36.2886 251.114C35.1998 251.23 33.9476 251.143 32.4249 251.038L32.3209 251.031C31.5963 250.98 30.7847 250.927 30.0215 250.927C29.2847 250.927 28.3625 250.974 27.4665 251.23C26.5445 251.492 25.3252 252.074 24.5299 253.375C23.7431 254.661 23.7412 256.048 23.941 257.132C24.1042 258.017 24.3869 259.768 24.7614 262.086C24.8908 262.887 25.031 263.756 25.1811 264.68C25.7594 268.241 26.4715 272.551 27.2285 276.742C27.9829 280.919 28.7926 285.039 29.5688 288.198C29.9537 289.765 30.3527 291.189 30.7593 292.295C30.9591 292.838 31.2003 293.414 31.4947 293.926C31.6426 294.182 31.8477 294.5 32.1225 294.81C32.3772 295.097 32.8476 295.556 33.5653 295.853C36.1724 296.931 47.1237 300.328 57.9055 298.34C60.8284 297.801 64.1685 297.105 67.7146 296.366C76.6155 294.51 86.8143 292.384 94.971 291.799L129.908 289.291C135.133 288.916 138.257 289.521 141.147 290.08C141.97 290.239 142.775 290.395 143.603 290.523C145.534 290.822 147.567 290.946 149.942 290.4C152.266 289.866 154.691 288.742 157.546 286.893C162.375 283.768 169.261 281.533 176.966 279.591C180.299 278.752 183.702 277.986 187.088 277.223C187.58 277.113 188.071 277.002 188.562 276.891C192.406 276.024 196.213 275.148 199.714 274.182C206.358 272.351 213.086 271.183 219.34 270.178C220.199 270.04 221.054 269.905 221.9 269.77C227.112 268.943 232.017 268.165 235.958 267.129C238.99 266.333 242.136 265.6 245.211 264.883C246.526 264.577 247.828 264.274 249.103 263.97C253.237 262.984 257.193 261.966 259.916 260.836C262.184 259.895 263.551 258.072 264.33 256.145C265.084 254.277 265.372 252.131 265.449 250.034C265.604 245.85 264.938 240.855 264.353 236.512C263.685 231.561 262.145 228.236 259.445 225.638C257.455 223.722 254.848 222.279 252.214 220.821C251.652 220.51 251.087 220.197 250.528 219.88C246.758 217.739 243.069 217.755 240.586 217.766C240.168 217.768 239.783 217.77 239.439 217.761C238.143 217.728 237.361 217.594 236.734 217.295C236.174 217.028 235.439 216.485 234.596 215.064C233.372 213 232 210 232 209L228.5 198.5C226.5 193.5 226.5 194.8 226.5 190C226.5 185.2 225.333 177.5 225 174.5" stroke="#C33D59" stroke-width="6.67183"/>
<path d="M148.615 57.9854L186.763 54.88C190.937 62.8295 195.113 70.7785 199.289 78.727C204.547 105.87 207.883 128.443 210.053 145.349C212.732 166.216 214.61 186.097 215.45 195.003C216.344 204.475 217.007 212.302 217.439 217.595C176.442 224.893 148.761 228.703 130.71 230.846C124.869 231.539 108.846 233.387 87.0047 236.549C73.3349 238.528 62.164 240.33 54.8577 241.545C60.3927 208.332 60.9788 180.688 60.3146 160.865C59.3895 133.471 55.8745 115.355 54.8522 110.298C52.1861 97.1117 48.5591 84.1383 44.0002 71.4814L91.9682 66.4197L91.6435 58.5613L101.133 57.9711L147.74 54.3867C148.033 55.5846 148.324 56.7841 148.615 57.9854Z" stroke="black" stroke-width="2.74502" stroke-miterlimit="10"/>
<path d="M92.053 66.7503L93.0234 83.6048L150.537 79.5965L148.89 58.3286" stroke="black" stroke-width="2.74502" stroke-miterlimit="10"/>
<path d="M186.648 55.8359C184.506 62.183 182.518 69.0551 180.826 76.4169C180.246 78.9426 179.722 81.4244 179.254 83.8623C182.99 82.577 186.774 81.2361 190.604 79.8397C193.073 78.9373 195.513 78.0291 197.924 77.115" stroke="black" stroke-width="2.74502" stroke-miterlimit="10"/>
<path d="M101.257 164.342C109.639 166.552 116.32 168.357 120.694 169.546C129.291 171.886 130.912 172.376 134.112 172.616C138.07 172.913 145.53 173.472 152.973 169.796C159.111 166.765 159.707 163.582 166.322 161.689C170.845 160.393 174.524 160.75 175.427 160.852C183.63 161.774 188.739 167.007 189.888 168.246C194.125 172.814 195.236 177.733 196.186 181.913C197.123 186.05 198.512 192.185 196.114 198.783C193.809 205.118 189.254 208.461 183.196 212.907C180.834 214.64 173.63 219.667 162.644 222.814C154.32 225.2 147.831 225.356 139.927 225.544C134.661 225.671 127.116 225.81 117.457 224.046C108.912 222.481 102.457 221.293 95.2967 216.655C91.6723 214.304 85.4993 210.186 81.9788 202.213C80.3587 198.507 79.5095 194.509 79.483 190.464C79.4623 187.491 79.4075 180.059 84.675 173.411C90.6417 165.884 99.2524 164.588 101.257 164.342Z" stroke="black" stroke-width="2.74502" stroke-miterlimit="10"/>
<path d="M109.071 167.587C109.283 180.547 109.399 193.506 109.418 206.463C109.425 211.474 109.417 216.485 109.396 221.496" stroke="black" stroke-width="2.74502" stroke-miterlimit="10"/>
<path d="M139.214 173.896C140.585 190.783 141.961 207.671 143.339 224.557" stroke="black" stroke-width="2.74502" stroke-miterlimit="10"/>
<path d="M169.648 162.058C170.728 171.393 171.846 180.723 173.001 190.046C174.085 198.81 175.203 207.569 176.354 216.322" stroke="black" stroke-width="2.74502" stroke-miterlimit="10"/>
<path d="M98.9095 157.817C116.61 156.546 129.929 141.167 128.659 123.467C127.388 105.766 112.009 92.4467 94.3089 93.7171C76.6083 94.9875 63.289 110.367 64.5594 128.067C65.8299 145.768 81.2089 159.087 98.9095 157.817Z" stroke="black" stroke-width="2.74502" stroke-miterlimit="10"/>
<path d="M163.011 153.216C180.711 151.946 194.031 136.567 192.76 118.866C191.49 101.166 176.111 87.8461 158.41 89.1165C140.71 90.3869 127.39 105.766 128.661 123.467C129.931 141.167 145.31 154.487 163.011 153.216Z" stroke="black" stroke-width="2.74502" stroke-miterlimit="10"/>
<path d="M90.6555 94.9562C93.5723 95.9003 99.3324 98.2175 104.18 103.761C109.342 109.671 110.597 115.929 111.407 120.107C112.254 124.502 114.043 133.499 109.526 143.277C105.735 151.479 99.4812 155.974 96.3552 157.899C91.9133 157.859 87.5272 156.905 83.4704 155.095C73.2458 150.509 68.7775 141.986 67.8021 140.015C65.6627 135.688 64.5254 130.935 64.4745 126.108C64.4235 121.282 65.4602 116.506 67.5077 112.135C69.5553 107.764 72.5611 103.91 76.3019 100.86C80.0427 97.8095 84.4224 95.641 89.1161 94.5151L90.6555 94.9562Z" fill="black" stroke="black" stroke-width="2.74502" stroke-miterlimit="10"/>
<path d="M154.755 90.3552C157.672 91.2993 163.432 93.6165 168.279 99.1604C173.445 105.069 174.697 111.328 175.502 115.506C176.348 119.902 178.138 128.898 173.62 138.676C169.828 146.878 163.576 151.374 160.449 153.298C156.007 153.259 151.621 152.304 147.564 150.495C137.341 145.909 132.869 137.386 131.898 135.414C129.758 131.087 128.62 126.334 128.569 121.507C128.518 116.68 129.556 111.904 131.603 107.532C133.651 103.161 136.658 99.3073 140.399 96.2572C144.141 93.2072 148.521 91.0391 153.216 89.9141L154.755 90.3552Z" fill="black" stroke="black" stroke-width="2.74502" stroke-miterlimit="10"/>
<path d="M60.4633 166.486C60.8815 166.445 59.4373 181.783 67.8618 199.548C71.1785 206.548 77.9118 220.756 93.7417 228.118C104.613 233.174 114.893 232.732 120.191 232.103L76.2211 238.145C74.6688 234.956 72.6897 230.621 70.6934 225.379C58.6964 193.917 59.9036 166.54 60.4633 166.486Z" fill="black"/>
<path d="M109.05 67.2713C108.098 70.9904 107.184 74.7378 106.215 78.8422C105.916 80.1044 105.381 82.4845 105.951 85.368C106.237 86.8192 106.542 88.2618 107.78 89.1782C109.411 90.3845 111.898 90.1102 113.45 89.0416C115.388 87.7059 115.758 85.2229 115.936 84.0973C116.69 79.3263 118.083 72.9576 120.123 64.5502C117.995 62.4333 115.998 60.1891 114.142 57.83C110.72 53.4928 110.468 52.178 110.388 51.5004C109.992 48.1486 112.021 43.9897 115.869 42.3088C120.248 40.3959 124.26 42.8816 124.538 43.0614C124.888 43.2864 128.094 45.4195 128.644 49.1827C129.064 52.0565 127.722 54.4323 125.866 57.7221C125.203 58.8968 124.457 60.0224 123.633 61.0903C125.396 65.3078 127.404 69.4183 129.649 73.4006C131.725 77.0848 134 80.6539 136.462 84.0922C137.365 84.3553 139.171 84.7354 141.23 84.1174C141.997 83.8864 142.97 83.594 143.698 82.7437C145.362 80.8114 144.241 77.7378 144.146 77.4874L134.918 62.5741C136.496 60.6979 137.682 58.5248 138.408 56.1829C139.276 53.2887 139.433 50.2277 138.867 47.2596C137.526 40.2447 132.567 36.3373 131.81 35.7598C125.827 31.1972 119.264 31.9076 117.977 32.0789C111.66 32.8913 107.722 36.6822 106.235 38.3289C102.777 42.1571 101.863 46.2672 101.516 47.9241C101.082 49.9978 100.09 54.7272 102.465 59.8623C104.392 64.046 107.554 66.3317 109.05 67.2713Z" fill="#FFF5F1" stroke="black" stroke-width="2.74502" stroke-miterlimit="10"/>
<path d="M49.1854 281.827C48.522 280.231 47.9635 278.05 47.5185 275.258L46.8214 270.882L47.053 270.846L53.5863 281.126L55.3235 280.849L58.3383 269.047L58.6472 268.998L59.3443 273.373C59.7708 276.05 59.9196 278.309 59.8016 280.135L67.0206 278.985C66.3408 277.286 65.7802 275.092 65.3537 272.416L64.5397 267.307C64.1111 264.618 63.9623 262.359 64.0803 260.532L55.9605 261.826L54.1486 269.583C54.0004 270.227 53.89 270.693 53.8389 270.952C53.7258 271.484 53.5863 272.43 53.5336 273.508L53.2376 273.555C52.7551 272.431 52.1444 271.248 51.3819 270.024L47.2746 263.21L39.0261 264.524C39.6808 266.149 40.2285 268.344 40.6694 271.111L41.4834 276.219C41.9222 278.973 42.0839 281.23 41.9665 282.977L49.1854 281.827ZM74.505 278.175C77.0914 277.763 78.6579 276.497 79.1324 274.838L79.4284 274.791L79.4653 275.023C79.6006 275.872 79.5616 276.538 79.3482 277.021L86.0654 275.95C85.7163 275.333 85.4368 274.573 85.2012 273.673C84.9655 272.774 84.7069 271.483 84.4404 269.81L84.0836 267.571C83.5443 264.187 80.4962 262.944 74.9244 263.832C73.8692 264 72.6997 264.278 71.4307 264.678C70.149 265.081 69.2295 265.438 68.6596 265.753L69.2604 269.524C69.6688 269.023 70.3083 268.565 71.1789 268.149C72.0366 267.736 72.992 267.438 74.0343 267.272C75.2053 267.085 76.2243 267.187 77.0933 267.59C77.9495 267.994 78.4565 268.692 78.6185 269.708L78.803 270.866L78.4556 270.922C77.51 269.542 75.6366 268.798 73.1015 269.202C71.3901 269.475 70.1195 270.113 69.3046 271.126C68.4898 272.14 68.1838 273.284 68.3868 274.558C68.518 275.382 68.8429 276.095 69.3463 276.688C70.3574 277.899 72.2273 278.538 74.505 278.175ZM76.7485 274.783C75.2044 275.029 74.1285 274.488 73.9788 273.548C73.823 272.57 74.6707 271.762 76.2277 271.514C76.9869 271.393 77.6292 271.449 78.1437 271.697C78.6582 271.945 78.9514 272.294 79.0231 272.745C79.181 273.735 78.3056 274.535 76.7485 274.783ZM95.4591 274.454C95.1732 273.985 94.8855 273.173 94.6001 272.044C94.3147 270.915 94.1053 269.932 93.972 269.096L93.7453 267.839C93.608 266.977 93.7762 266.211 94.2373 265.544C94.6984 264.877 95.3847 264.464 96.2726 264.322C97.984 264.05 99.1825 265.112 99.4716 266.927L99.6644 268.136C99.9678 270.041 100.055 271.914 99.9372 273.74L107.156 272.59C106.457 270.933 105.925 268.92 105.548 266.552L105.324 265.15C105.027 263.284 104.278 261.899 103.066 260.997C101.853 260.095 100.274 259.792 98.3314 260.102C95.7192 260.518 94.1402 262.036 93.5925 264.644L93.2708 264.695L93.2154 264.348C93.0329 263.202 93.1195 262.173 93.4624 261.26L86.1276 262.429C86.791 264.025 87.3065 265.936 87.6612 268.162L88.0057 270.324C88.18 271.418 88.2741 272.339 88.3009 273.087C88.3297 273.848 88.3045 274.683 88.2272 275.606L95.4591 274.454ZM114.499 271.802C117.085 271.39 118.652 270.125 119.126 268.466L119.422 268.419L119.459 268.65C119.595 269.499 119.556 270.165 119.342 270.648L126.059 269.578C125.71 268.96 125.431 268.2 125.195 267.301C124.96 266.401 124.701 265.11 124.434 263.437L124.078 261.198C123.538 257.814 120.49 256.571 114.918 257.459C113.863 257.627 112.694 257.906 111.425 258.306C110.143 258.708 109.224 259.066 108.654 259.381L109.254 263.151C109.663 262.651 110.302 262.192 111.173 261.777C112.031 261.363 112.986 261.065 114.028 260.899C115.199 260.713 116.218 260.814 117.087 261.217C117.943 261.621 118.451 262.319 118.612 263.336L118.797 264.494L118.45 264.549C117.504 263.169 115.631 262.425 113.096 262.829C111.384 263.102 110.113 263.74 109.299 264.754C108.484 265.768 108.178 266.912 108.381 268.186C108.512 269.009 108.837 269.723 109.34 270.315C110.351 271.526 112.221 272.165 114.499 271.802ZM116.743 268.41C115.198 268.656 114.123 268.115 113.973 267.176C113.817 266.198 114.665 265.39 116.222 265.142C116.981 265.021 117.623 265.077 118.138 265.325C118.652 265.572 118.945 265.922 119.017 266.372C119.175 267.363 118.3 268.162 116.743 268.41ZM137.093 273.982C142.278 273.155 146.593 270.172 145.908 265.874C145.797 265.179 145.508 264.526 145.056 263.925L144.427 259.974C144 257.298 143.852 255.039 143.97 253.212L136.776 254.359C137.117 254.924 137.35 255.389 137.501 255.76C137.642 256.147 137.758 256.63 137.851 257.209L137.898 257.505L137.55 257.56C136.31 255.488 134.169 254.391 131.441 254.826C129.395 255.152 127.886 256.197 127.113 257.64C126.327 259.085 126.081 260.853 126.391 262.796C126.7 264.739 127.479 266.317 128.673 267.433C129.856 268.564 131.614 269.075 133.66 268.749C136.452 268.304 138.125 266.547 138.608 264.2L138.904 264.153C139.535 264.633 139.904 265.208 140.012 265.89C140.199 267.061 139.866 268.037 139.03 268.831C138.191 269.611 136.968 270.135 135.385 270.388C133.995 270.609 132.547 270.629 131.038 270.434C129.529 270.239 128.335 269.862 127.454 269.303L128.277 274.304C129.345 274.464 130.699 274.512 132.338 274.449C133.977 274.386 135.561 274.226 137.093 273.982ZM135.675 264.588C134.684 264.746 133.852 264.575 133.177 264.063C132.488 263.552 132.071 262.84 131.924 261.914C131.772 260.962 131.943 260.13 132.439 259.43C132.921 258.733 133.659 258.312 134.65 258.154C135.615 258.001 136.423 258.189 137.099 258.701C137.774 259.214 138.182 259.953 138.332 260.893C138.474 261.781 138.299 262.587 137.805 263.299C137.312 264.011 136.602 264.441 135.675 264.588ZM157.054 265.022C158.353 264.815 159.647 264.49 160.925 264.062C162.201 263.621 163.157 263.165 163.808 262.692L163.014 258.372C162.611 258.99 161.945 259.532 161.016 259.996C160.088 260.461 159.083 260.78 158.015 260.95C156.625 261.171 155.366 261.055 154.24 260.614C153.102 260.176 152.423 259.558 152.19 258.764L152.376 258.602C153.949 259.447 155.743 259.53 158.008 259.169C161.444 258.622 163.22 257.099 162.832 254.667C162.675 253.676 162.224 252.837 161.334 252.134C160.064 251.123 157.784 250.642 154.436 251.162C151.67 251.603 149.517 252.751 148.33 254.246C147.133 255.756 146.644 257.576 146.95 259.493C147.282 261.578 148.361 263.134 150.198 264.148C152.036 265.162 154.313 265.458 157.054 265.022ZM155.478 258.029C154.101 258.248 153.005 258.08 152.178 257.525C152.177 256.774 152.423 256.167 152.889 255.697C153.357 255.24 153.944 254.948 154.639 254.837C156.196 254.589 157.281 255.103 157.447 256.145C157.519 256.595 157.357 256.99 156.965 257.343C156.575 257.709 156.082 257.932 155.478 258.029ZM173.388 262.036C173.087 261.556 172.8 260.745 172.512 259.603C172.214 258.476 172.005 257.493 171.875 256.683L171.674 255.422C171.533 254.534 171.663 253.774 172.047 253.119C172.432 252.477 173.069 252.085 173.931 251.948C175.63 251.677 176.58 252.753 176.873 254.593L177.066 255.803C177.279 257.141 177.424 258.213 177.51 259.004C177.586 259.81 177.593 260.601 177.545 261.374L184.532 260.261C183.852 258.561 183.341 256.677 183.013 254.618L182.84 253.537C182.728 252.75 182.888 252.012 183.297 251.353C183.707 250.694 184.303 250.295 185.114 250.166C186.774 249.902 187.724 250.977 188.017 252.818L188.21 254.027C188.532 256.047 188.617 257.908 188.482 259.631L195.701 258.481C195.038 256.884 194.506 254.871 194.119 252.439L193.895 251.036C193.323 247.446 191.329 245.283 187.379 245.913C184.56 246.362 182.787 248.069 182.331 250.504L182.009 250.555C180.945 248.35 179.226 247.251 176.235 247.689C173.635 248.103 172.069 249.619 171.522 252.226L171.2 252.278L171.145 251.93C170.962 250.785 171.049 249.755 171.392 248.843L164.057 250.012C164.72 251.608 165.236 253.518 165.59 255.745L165.935 257.906C166.109 259 166.203 259.922 166.23 260.67C166.259 261.431 166.234 262.266 166.156 263.189L173.388 262.036ZM206.57 257.132C207.87 256.925 209.164 256.6 210.442 256.172C211.717 255.731 212.674 255.275 213.324 254.802L212.53 250.482C212.127 251.1 211.461 251.642 210.533 252.106C209.604 252.571 208.599 252.889 207.531 253.06C206.141 253.281 204.882 253.165 203.757 252.724C202.618 252.286 201.939 251.668 201.707 250.874L201.892 250.712C203.465 251.557 205.26 251.64 207.524 251.279C210.96 250.732 212.736 249.209 212.349 246.777C212.191 245.786 211.741 244.947 210.85 244.244C209.581 243.233 207.3 242.752 203.953 243.272C201.186 243.713 199.033 244.861 197.847 246.356C196.649 247.866 196.161 249.686 196.466 251.603C196.798 253.688 197.877 255.244 199.715 256.258C201.552 257.271 203.829 257.568 206.57 257.132ZM204.994 250.139C203.617 250.358 202.522 250.19 201.694 249.635C201.693 248.883 201.94 248.277 202.406 247.807C202.874 247.349 203.461 247.058 204.156 246.947C205.713 246.699 206.797 247.213 206.963 248.255C207.035 248.705 206.874 249.1 206.481 249.453C206.091 249.819 205.599 250.042 204.994 250.139ZM222.905 254.146C222.619 253.677 222.331 252.865 222.046 251.737C221.76 250.608 221.551 249.625 221.418 248.789L221.191 247.532C221.053 246.669 221.222 245.904 221.683 245.236C222.144 244.569 222.83 244.156 223.718 244.015C225.43 243.742 226.628 244.805 226.917 246.619L227.11 247.829C227.413 249.733 227.501 251.606 227.383 253.433L234.602 252.282C233.902 250.626 233.37 248.613 232.993 246.245L232.77 244.842C232.472 242.976 231.724 241.591 230.511 240.689C229.299 239.787 227.72 239.485 225.777 239.794C223.165 240.211 221.586 241.729 221.038 244.336L220.716 244.388L220.661 244.04C220.478 242.895 220.565 241.865 220.908 240.953L213.573 242.122C214.236 243.718 214.752 245.628 215.107 247.855L215.451 250.016C215.625 251.11 215.72 252.032 215.746 252.78C215.775 253.541 215.75 254.376 215.673 255.299L222.905 254.146ZM244.286 251.122C244.853 251.032 245.432 250.86 246.027 250.62C246.61 250.382 247.094 250.107 247.458 249.825L246.719 245.192C246.406 245.625 245.64 246.037 244.907 246.154C244.199 246.267 243.561 246.157 243.005 245.811C242.45 245.477 242.111 244.924 241.99 244.165L241.25 239.519L245.548 238.834L245.267 237.071L240.969 237.756L240.129 232.48L234.801 234.82L235.41 238.642L233.068 239.015L233.349 240.778L235.691 240.405L236.772 247.186C237.303 250.519 239.808 251.835 244.286 251.122Z" fill="black"/>
</g>
<defs>
<filter id="filter0_i_939:3574" x="20.4949" y="16.3999" width="248.312" height="289.888" filterUnits="userSpaceOnUse" color-interpolation-filters="sRGB">
<feFlood flood-opacity="0" result="BackgroundImageFix"/>
<feBlend mode="normal" in="SourceGraphic" in2="BackgroundImageFix" result="shape"/>
<feColorMatrix in="SourceAlpha" type="matrix" values="0 0 0 0 0 0 0 0 0 0 0 0 0 0 0 0 0 0 127 0" result="hardAlpha"/>
<feOffset dy="4"/>
<feGaussianBlur stdDeviation="10"/>
<feComposite in2="hardAlpha" operator="arithmetic" k2="-1" k3="1"/>
<feColorMatrix type="matrix" values="0 0 0 0 0 0 0 0 0 0 0 0 0 0 0 0 0 0 0.25 0"/>
<feBlend mode="normal" in2="shape" result="effect1_innerShadow_939:3574"/>
</filter>
</defs>
</svg>
