<svg width="164" height="164" viewBox="0 0 164 164" fill="none" xmlns="http://www.w3.org/2000/svg">
<path d="M51.0846 45.2708L52.0673 45.4293C56.5542 46.1529 60.8858 43.4508 62.2089 39.1029L62.4987 38.1506C63.9272 33.4562 69.6593 31.7085 73.464 34.8073L74.2358 35.4359C77.7597 38.306 82.862 38.1317 86.1819 35.0278L86.909 34.348C90.4933 30.9968 96.3313 32.3493 98.0769 36.9353L98.431 37.8655C100.048 42.1131 104.554 44.5133 108.981 43.4852L109.95 43.26C114.73 42.15 119.11 46.2402 118.328 51.0846L118.17 52.0673C117.446 56.5541 120.148 60.8857 124.496 62.2088L125.449 62.4986C130.143 63.9272 131.891 69.6593 128.792 73.4639L128.163 74.2357C125.293 77.7596 125.467 82.862 128.571 86.1818L129.251 86.9089C132.602 90.4932 131.25 96.3312 126.664 98.0768L125.734 98.4309C121.486 100.048 119.086 104.554 120.114 108.981L120.339 109.95C121.449 114.73 117.359 119.109 112.515 118.328L111.532 118.17C107.045 117.446 102.713 120.148 101.39 124.496L101.1 125.448C99.6719 130.143 93.9398 131.89 90.1352 128.792L89.3634 128.163C85.8394 125.293 80.7371 125.467 77.4173 128.571L76.6902 129.251C73.1058 132.602 67.2678 131.25 65.5223 126.664L65.1682 125.733C63.5514 121.486 59.0456 119.086 54.6186 120.114L53.649 120.339C48.8692 121.449 44.4896 117.359 45.2709 112.514L45.4294 111.532C46.153 107.045 43.4509 102.713 39.103 101.39L38.1507 101.1C33.4563 99.6718 31.7086 93.9397 34.8074 90.1351L35.436 89.3633C38.3061 85.8394 38.1318 80.737 35.0279 77.4172L34.3481 76.6901C30.9969 73.1058 32.3494 67.2678 36.9353 65.5222L37.8656 65.1681C42.1132 63.5514 44.5134 59.0455 43.4853 54.6185L43.2601 53.6489C42.15 48.8692 46.2403 44.4896 51.0846 45.2708Z" fill="#48AABF" stroke="#165F96" stroke-width="2.18395"/>
<path d="M55.5366 83.0311L53.383 75.1009L55.1797 74.6129L56.0593 77.8516L59.2424 76.9871L58.3629 73.7485L60.1597 73.2605L62.3133 81.1907L60.5165 81.6787L59.628 78.4068L56.4448 79.2712L57.3334 82.5431L55.5366 83.0311ZM65.0361 78.7721C65.3719 79.0143 65.7653 79.0742 66.2163 78.9518C66.6673 78.8293 66.9727 78.5796 67.1324 78.2028C67.2994 77.824 67.3076 77.3573 67.157 76.8027L67.136 76.7251C66.9854 76.1705 66.7422 75.7721 66.4065 75.5298C66.0761 75.2781 65.6854 75.2135 65.2344 75.336C64.7907 75.4565 64.4854 75.7062 64.3183 76.085C64.1492 76.4564 64.14 76.9194 64.2906 77.474L64.3147 77.5627C64.4653 78.1173 64.7058 78.5204 65.0361 78.7721ZM66.5365 80.1748C65.6566 80.4137 64.855 80.3417 64.1317 79.9585C63.4064 79.568 62.9232 78.9291 62.6822 78.0418L62.6582 77.953C62.4152 77.0584 62.5068 76.2554 62.9329 75.5442C63.359 74.833 64.0158 74.357 64.903 74.116C65.7903 73.875 66.593 73.9508 67.3109 74.3434C68.0342 74.7265 68.5174 75.3654 68.7603 76.2601L68.7844 76.3489C69.0294 77.2509 68.9378 78.0539 68.5097 78.7577C68.0815 79.4615 67.4238 79.9338 66.5365 80.1748ZM71.1789 80.9029L69.0674 73.128L70.6757 72.6912L70.9226 73.6007C71.0124 73.2588 71.1928 72.9438 71.4639 72.6558C71.7425 72.3658 72.0851 72.1656 72.4917 72.0551C73.2311 71.8543 73.9087 71.9522 74.5245 72.3486C75.1403 72.7451 75.5747 73.4092 75.8277 74.3408L75.8518 74.4296C76.1048 75.3612 76.067 76.1575 75.7384 76.8184C75.4097 77.4793 74.8757 77.9101 74.1363 78.1109C73.7074 78.2274 73.3052 78.2374 72.9297 78.1409C72.5522 78.037 72.2456 77.8582 72.01 77.6046L72.7871 80.4661L71.1789 80.9029ZM73.319 76.9871C73.7627 76.8666 74.0626 76.6264 74.2189 76.2664C74.3752 75.9064 74.3771 75.4454 74.2244 74.8834L74.2004 74.7947C74.0457 74.2253 73.8026 73.8269 73.4708 73.5994C73.1371 73.3645 72.7595 73.3043 72.3381 73.4188C71.9018 73.5373 71.5954 73.7832 71.419 74.1567C71.2479 74.5207 71.2397 74.9874 71.3943 75.5567L71.4184 75.6455C71.573 76.2148 71.8162 76.6132 72.1479 76.8407C72.4776 77.0608 72.868 77.1096 73.319 76.9871ZM80.4108 76.4069C79.5161 76.6499 78.7165 76.5852 78.012 76.2128C77.3054 75.8331 76.8287 75.1885 76.5817 74.279L76.5576 74.1903C76.3126 73.2882 76.3958 72.4835 76.8071 71.7764C77.2259 71.0672 77.8641 70.5962 78.7218 70.3632C79.5352 70.1423 80.2753 70.2073 80.9422 70.5581C81.6165 70.907 82.0862 71.5694 82.3513 72.5454L82.4718 72.989L78.2904 74.1246C78.4431 74.5992 78.6813 74.9354 79.005 75.1333C79.3287 75.3313 79.7086 75.371 80.1449 75.2525C80.8399 75.0637 81.1696 74.6844 81.134 74.1145L82.6534 73.7019C82.728 74.3565 82.5712 74.9191 82.1829 75.3898C81.7927 75.853 81.2019 76.1921 80.4108 76.4069ZM78.0445 73.1314L80.6398 72.4266C80.3531 71.5756 79.8142 71.2575 79.023 71.4723C78.6607 71.5707 78.3924 71.7667 78.218 72.0601C78.0491 72.3442 77.9912 72.7013 78.0445 73.1314ZM87.9411 76.3507L88.2657 73.5116L84.5431 68.9253L86.2733 68.4554L88.6276 71.5555L88.9795 67.7204L90.5212 67.3018L89.4938 75.9291L87.9411 76.3507ZM93.9121 70.9302C94.2478 71.1724 94.6412 71.2323 95.0923 71.1099C95.5433 70.9874 95.8487 70.7377 96.0083 70.3609C96.1754 69.9821 96.1836 69.5154 96.033 68.9608L96.0119 68.8832C95.8613 68.3286 95.6182 67.9302 95.2824 67.6879C94.9521 67.4362 94.5614 67.3716 94.1103 67.4941C93.6667 67.6146 93.3613 67.8643 93.1943 68.2431C93.0252 68.6145 93.016 69.0775 93.1666 69.6321L93.1907 69.7208C93.3413 70.2754 93.5818 70.6785 93.9121 70.9302ZM95.4125 72.3329C94.5326 72.5718 93.731 72.4998 93.0077 72.1166C92.2823 71.7261 91.7992 71.0872 91.5582 70.1999L91.5341 70.1111C91.2912 69.2165 91.3827 68.4135 91.8089 67.7023C92.235 66.9911 92.8917 66.5151 93.779 66.2741C94.6663 66.0331 95.4689 66.1089 96.1869 66.5015C96.9102 66.8846 97.3933 67.5235 97.6363 68.4182L97.6604 68.507C97.9054 69.409 97.8138 70.212 97.3857 70.9158C96.9575 71.6196 96.2998 72.0919 95.4125 72.3329ZM101.482 70.6847C100.883 70.8473 100.353 70.7967 99.8923 70.5328C99.439 70.2668 99.1129 69.7679 98.9141 69.0359L97.899 65.2981L99.4962 64.8644L100.451 68.3803C100.662 69.1567 101.104 69.4535 101.777 69.2708C102.131 69.1744 102.391 68.9889 102.554 68.7142C102.723 68.4301 102.752 68.081 102.639 67.667L101.714 64.262L103.312 63.8283L104.887 69.6289L103.29 70.0627L103.043 69.1532C102.882 69.9352 102.362 70.4457 101.482 70.6847ZM65.663 99.9692L63.3738 91.5399L64.982 91.1032L65.9459 94.6524C66.0168 94.2996 66.1851 93.984 66.4509 93.7054C66.722 93.4174 67.0868 93.2111 67.5452 93.0866C68.1441 92.924 68.6686 92.984 69.1185 93.2668C69.5738 93.5401 69.9029 94.0501 70.1057 94.7969L71.1087 98.4903L69.5005 98.927L68.5607 95.4666C68.4523 95.0673 68.2916 94.7973 68.0788 94.6567C67.8639 94.5086 67.579 94.4828 67.2241 94.5791C66.8618 94.6775 66.5998 94.8678 66.4382 95.1498C66.2747 95.4245 66.2491 95.7689 66.3615 96.1829L67.2712 99.5325L65.663 99.9692ZM74.0836 97.8134C73.5142 97.968 73.0093 97.9503 72.5686 97.7604C72.128 97.5704 71.8294 97.187 71.6728 96.6103C71.3354 95.3681 72.1723 94.4739 74.1835 93.9277L74.8379 93.75L74.7747 93.5171C74.6763 93.1548 74.5337 92.9076 74.3471 92.7757C74.1584 92.6364 73.8903 92.614 73.5428 92.7083C72.9586 92.867 72.7039 93.2299 72.7785 93.7972L71.259 94.2098C71.1247 93.5397 71.249 92.974 71.6318 92.5128C72.0147 92.0515 72.5795 91.7195 73.3263 91.5167C74.9456 91.0769 75.9501 91.5743 76.3396 93.0087L77.3667 96.7908L75.8029 97.2155L75.6131 96.5167C75.3698 97.1703 74.86 97.6026 74.0836 97.8134ZM74.2563 96.5637C74.6186 96.4653 74.893 96.2915 75.0794 96.0424C75.2658 95.7933 75.3158 95.5098 75.2295 95.1918L75.0969 94.7038L74.4758 94.8725C73.9878 95.005 73.6352 95.1683 73.4179 95.3623C73.2081 95.5542 73.1433 95.7981 73.2236 96.0938C73.3501 96.5597 73.6943 96.7163 74.2563 96.5637ZM80.954 95.9476C80.222 96.1464 79.5501 96.0549 78.9384 95.6733C78.3246 95.2842 77.8912 94.6238 77.6382 93.6922L77.6141 93.6034C77.3611 92.6718 77.3979 91.8718 77.7245 91.2035C78.0565 90.5258 78.5959 90.0856 79.3427 89.8828C80.2005 89.6498 80.9008 89.8169 81.4439 90.384L80.4951 86.8903L82.0922 86.4565L84.3813 94.8858L82.7842 95.3196L82.5222 94.3546C82.4512 94.7073 82.2738 95.0334 81.9899 95.3328C81.706 95.6322 81.3607 95.8371 80.954 95.9476ZM81.0906 94.5648C81.5269 94.4463 81.8342 94.204 82.0127 93.838C82.1912 93.4719 82.2031 93.0042 82.0485 92.4349L82.0244 92.3462C81.8698 91.7768 81.6303 91.3774 81.306 91.1479C80.989 90.9164 80.6087 90.8609 80.1651 90.9814C79.714 91.1039 79.4077 91.3498 79.246 91.7192C79.0897 92.0793 79.0899 92.5476 79.2465 93.1244L79.2706 93.2131C79.4232 93.7751 79.6617 94.1708 79.986 94.4003C80.3083 94.6224 80.6765 94.6772 81.0906 94.5648ZM88.5339 93.7581L87.2688 89.0998L86.5035 89.3077L86.1933 88.1653L86.9586 87.9574L86.7778 87.292C86.5971 86.6265 86.6417 86.0745 86.9117 85.636C87.1796 85.1901 87.6426 84.8778 88.3007 84.699C88.6112 84.6147 88.8985 84.5764 89.1626 84.584L89.4909 85.793C89.288 85.7766 89.083 85.7966 88.876 85.8528C88.3954 85.9833 88.2244 86.3037 88.3629 86.8139L88.5557 87.5237L89.8201 87.1803L90.1303 88.3227L88.8659 88.6661L90.131 93.3244L88.5339 93.7581ZM94.3465 92.3106C93.7476 92.4732 93.2178 92.4226 92.7571 92.1587C92.3038 91.8927 91.9777 91.3938 91.7789 90.6617L90.7639 86.924L92.361 86.4903L93.3158 90.0062C93.5266 90.7826 93.9685 91.0794 94.6414 90.8967C94.9963 90.8003 95.2555 90.6147 95.4191 90.3401C95.5881 90.056 95.6164 89.7069 95.5039 89.2929L94.5792 85.8879L96.1763 85.4542L97.7516 91.2548L96.1545 91.6886L95.9075 90.7791C95.7468 91.5611 95.2264 92.0716 94.3465 92.3106ZM99.1747 90.8684L97.5994 85.0677L99.2076 84.6309L99.4576 85.5515C99.5285 85.1988 99.6969 84.8831 99.9626 84.6045C100.234 84.3165 100.599 84.1103 101.057 83.9858C101.656 83.8232 102.18 83.8832 102.63 84.1659C103.086 84.4392 103.415 84.9493 103.617 85.6961L104.62 89.3895L103.012 89.8262L102.072 86.3658C101.964 85.9665 101.803 85.6965 101.591 85.5558C101.376 85.4078 101.091 85.3819 100.736 85.4783C100.374 85.5767 100.112 85.7669 99.95 86.049C99.7864 86.3237 99.7608 86.668 99.8733 87.0821L100.783 90.4316L99.1747 90.8684Z" fill="#FFFDFA"/>
</svg>
