<svg width="460" height="266" viewBox="0 0 460 266" fill="none" xmlns="http://www.w3.org/2000/svg">
<path fill-rule="evenodd" clip-rule="evenodd" d="M16.8249 107.577C17.3039 104.439 20.2359 102.283 23.3739 102.762L148.373 121.842C151.511 122.321 153.572 125.297 154.05 128.435C155.267 136.42 161.537 143.038 169.942 144.321C178.348 145.604 186.307 141.158 189.85 133.9C191.243 131.048 194.098 128.821 197.236 129.3L321.667 148.294C324.805 148.772 326.96 151.705 326.481 154.843L310.524 259.387C310.045 262.525 307.112 264.681 303.975 264.202L179.543 245.208C176.405 244.729 174.344 241.753 173.866 238.615C172.649 230.63 166.379 224.013 157.973 222.729C149.567 221.446 141.609 225.892 138.065 233.15C136.672 236.003 133.818 238.229 130.68 237.75L5.6817 218.67C2.54375 218.191 0.388221 215.259 0.867198 212.121L16.8249 107.577Z" fill="#F14453"/>
<mask id="path-2-inside-1_698:8100" fill="white">
<path fill-rule="evenodd" clip-rule="evenodd" d="M188.459 140.752C187.227 148.823 178.357 154.164 168.648 152.682C158.939 151.2 152.067 143.456 153.299 135.385C153.299 135.385 153.298 135.385 153.298 135.385L30.4266 116.63C27.6744 116.21 25.1028 118.1 24.6827 120.852L12.4145 201.226C11.9944 203.978 13.8849 206.55 16.6371 206.97L139.509 225.725C139.509 225.725 139.51 225.725 139.51 225.725C140.742 217.654 149.611 212.312 159.32 213.794C169.03 215.276 175.902 223.021 174.67 231.092C174.67 231.092 174.67 231.092 174.67 231.092L297.009 249.766C299.761 250.186 302.333 248.295 302.753 245.543L315.021 165.17C315.441 162.417 313.551 159.846 310.798 159.426L188.459 140.752C188.459 140.752 188.459 140.752 188.459 140.752Z"/>
</mask>
<path d="M168.495 153.687C178.577 155.226 188.121 149.697 189.463 140.905L187.454 140.599C186.332 147.949 178.138 153.103 168.801 151.678L168.495 153.687ZM152.294 135.232C150.952 144.023 158.412 152.148 168.495 153.687L168.801 151.678C159.465 150.253 153.181 142.889 154.303 135.538L152.294 135.232ZM30.2733 117.634L153.145 136.389L153.452 134.38L30.58 115.625L30.2733 117.634ZM13.419 201.379L25.6872 121.006L23.6782 120.699L11.41 201.072L13.419 201.379ZM139.663 224.72L16.7905 205.965L16.4838 207.974L139.356 226.729L139.663 224.72ZM140.514 225.878C141.636 218.528 149.831 213.374 159.167 214.799L159.474 212.79C149.391 211.251 139.847 216.78 138.505 225.571L140.514 225.878ZM159.167 214.799C168.503 216.224 174.787 223.588 173.665 230.938L175.674 231.245C177.016 222.453 169.556 214.329 159.474 212.79L159.167 214.799ZM297.162 248.761L174.823 230.087L174.517 232.096L296.856 250.77L297.162 248.761ZM314.017 165.016L301.748 245.39L303.757 245.696L316.026 165.323L314.017 165.016ZM188.306 141.756L310.645 160.43L310.952 158.421L188.612 139.747L188.306 141.756ZM188.612 139.747C188.058 139.663 187.539 140.044 187.454 140.599L189.463 140.905C189.379 141.46 188.86 141.841 188.306 141.756L188.612 139.747ZM316.026 165.323C316.53 162.016 314.259 158.926 310.952 158.421L310.645 160.43C312.843 160.765 314.352 162.819 314.017 165.016L316.026 165.323ZM296.856 250.77C300.163 251.275 303.253 249.003 303.757 245.696L301.748 245.39C301.413 247.587 299.36 249.097 297.162 248.761L296.856 250.77ZM139.356 226.729C139.911 226.814 140.429 226.433 140.514 225.878L138.505 225.571C138.59 225.017 139.108 224.636 139.663 224.72L139.356 226.729ZM173.665 230.938C173.579 231.501 173.97 232.013 174.517 232.096L174.823 230.087C175.37 230.171 175.76 230.682 175.674 231.245L173.665 230.938ZM11.41 201.072C10.9052 204.379 13.1768 207.469 16.4838 207.974L16.7905 205.965C14.593 205.63 13.0836 203.577 13.419 201.379L11.41 201.072ZM30.58 115.625C27.273 115.12 24.183 117.392 23.6782 120.699L25.6872 121.006C26.0226 118.808 28.0759 117.299 30.2733 117.634L30.58 115.625ZM154.303 135.538C154.392 134.955 153.977 134.46 153.452 134.38L153.145 136.389C152.62 136.309 152.205 135.815 152.294 135.232L154.303 135.538Z" fill="black" mask="url(#path-2-inside-1_698:8100)"/>
<path d="M49.5341 158.486C49.4211 157.15 49.5235 155.408 49.8543 153.241L50.0068 152.242L54.4612 152.922L54.3088 153.921C53.9825 156.058 53.569 157.763 53.0696 159.026L58.6726 159.881C58.5597 158.545 58.6621 156.803 58.9929 154.636L59.5981 150.671C59.9289 148.503 60.3525 146.8 60.8587 145.559L55.2557 144.704C55.3557 146.058 55.2417 147.808 54.914 149.956L54.7737 150.875L50.3193 150.195L50.4596 149.276C50.7904 147.108 51.2139 145.405 51.7202 144.164L46.1172 143.309C46.218 144.724 46.114 146.476 45.7954 148.564L45.1902 152.529C44.8731 154.606 44.4495 156.31 43.9311 157.631L49.5341 158.486ZM67.1677 161.474C68.1764 161.628 69.2089 161.693 70.2535 161.679C71.2997 161.655 72.1138 161.544 72.7058 161.348L73.1396 157.97C72.6961 158.332 72.0765 158.575 71.2808 158.698C70.4852 158.822 69.6679 158.82 68.8389 158.694C67.7603 158.529 66.8581 158.146 66.1307 157.555C65.3934 156.962 65.0378 156.345 65.0539 155.704L65.229 155.628C66.1911 156.624 67.4967 157.109 69.2545 157.377C71.9211 157.784 73.5925 157.079 73.8807 155.191C73.998 154.422 73.8635 153.696 73.3718 152.967C72.6731 151.92 71.1028 151.027 68.5076 150.62C66.3603 150.292 64.4995 150.632 63.2699 151.456C62.0288 152.289 61.2383 153.517 61.0112 155.005C60.7642 156.623 61.1937 158.027 62.3112 159.21C63.4287 160.392 65.0404 161.149 67.1677 161.474ZM67.6551 155.937C66.5864 155.774 65.8171 155.391 65.337 154.786C65.5138 154.231 65.8391 153.841 66.2943 153.604C66.748 153.377 67.2502 153.3 67.7896 153.382C68.998 153.567 69.6778 154.202 69.5543 155.011C69.501 155.361 69.2885 155.614 68.9154 155.782C68.5408 155.96 68.1245 156.009 67.6551 155.937ZM79.906 163.122C79.7238 162.307 79.731 161.256 79.9276 159.967L80.0679 159.048C80.1975 158.199 80.6138 157.548 81.3084 157.081C82.003 156.615 82.7748 156.447 83.6137 156.575C84.5825 156.722 85.4988 157.281 85.9343 157.91L86.5776 153.695C86.1402 153.414 85.6161 153.232 84.9969 153.137C83.0394 152.838 81.4968 153.972 80.7459 156.28L80.4963 156.242L80.5892 155.633C80.6639 155.143 80.8016 154.643 81.0123 154.133C81.2129 153.622 81.4567 153.23 81.7367 152.936L75.8841 152.043C75.9848 153.458 75.9144 154.991 75.6629 156.639L75.4037 158.336C75.2787 159.155 75.1336 159.838 74.9783 160.387C74.8215 160.946 74.6041 161.567 74.323 162.27L79.906 163.122ZM92.8355 165.392C93.8443 165.546 94.8767 165.611 95.9213 165.597C96.9675 165.573 97.7816 165.462 98.3736 165.266L98.8074 161.888C98.3639 162.25 97.7443 162.493 96.9487 162.616C96.153 162.74 95.3357 162.738 94.5068 162.612C93.4281 162.447 92.5259 162.064 91.7985 161.473C91.0612 160.88 90.7056 160.263 90.7217 159.622L90.8968 159.546C91.8589 160.541 93.1645 161.027 94.9223 161.295C97.589 161.702 99.2604 160.997 99.5485 159.109C99.6659 158.34 99.5314 157.614 99.0397 156.885C98.341 155.838 96.7706 154.944 94.1754 154.538C92.0281 154.21 90.1673 154.55 88.9377 155.374C87.6967 156.206 86.9062 157.435 86.679 158.923C86.4321 160.541 86.8616 161.945 87.979 163.128C89.0965 164.31 90.7082 165.067 92.8355 165.392ZM93.3229 159.855C92.2542 159.692 91.4849 159.309 91.0049 158.704C91.1817 158.149 91.5069 157.759 91.9621 157.522C92.4158 157.295 92.9181 157.218 93.4574 157.3C94.6659 157.485 95.3456 158.12 95.2222 158.929C95.1688 159.279 94.9563 159.532 94.5832 159.7C94.2086 159.878 93.7923 159.927 93.3229 159.855ZM102.402 158.962C103.997 158.153 105.089 156.827 105.334 155.219C105.444 154.5 105.331 153.9 104.995 153.42C104.649 152.948 104.191 152.664 103.622 152.577C103.122 152.5 102.666 152.615 102.251 152.919C101.825 153.233 101.58 153.635 101.504 154.134C101.429 154.623 101.518 155.046 101.77 155.401C102.023 155.756 102.369 155.963 102.809 156.03C103.018 156.062 103.181 156.066 103.287 156.041C103.122 156.384 102.836 156.719 102.429 157.045C102.021 157.371 101.639 157.599 101.274 157.717L102.402 158.962ZM109.804 167.982C111.722 168.275 113.244 168.211 114.383 167.781C115.521 167.352 116.166 166.613 116.329 165.544C116.577 163.987 115.251 163.1 113.704 162.588C111.618 161.861 109.092 161.67 109.2 160.96C109.262 160.551 110.036 160.373 111.244 160.557C112.093 160.687 112.925 160.926 113.729 161.284C114.533 161.642 115.184 161.996 115.682 162.348L116.237 158.846C114.772 157.999 113.162 157.436 111.404 157.168C109.576 156.889 108.134 156.965 107.076 157.397C106.008 157.836 105.402 158.521 105.259 159.46C104.671 163.315 112.565 162.752 112.35 164.16C112.281 164.609 111.444 164.737 110.036 164.522C109.287 164.408 108.398 164.139 107.377 163.728C106.347 163.315 105.475 162.865 104.75 162.397L104.163 166.242C104.798 166.564 105.697 166.905 106.868 167.268C108.03 167.619 109.015 167.862 109.804 167.982ZM128.832 175.363C132.857 175.977 136.748 174.793 137.257 171.457C137.35 170.848 137.264 170.201 136.991 169.515L137.592 165.58C137.721 164.731 137.868 164.038 138.025 163.48C138.181 162.921 138.397 162.31 138.675 161.627L133.072 160.772C133.181 161.197 133.215 161.846 133.152 162.726C133.09 163.605 132.999 164.399 132.892 165.098L132.763 166.08C132.662 166.739 132.357 167.265 131.859 167.649C131.35 168.041 130.755 168.185 130.066 168.08C129.397 167.978 128.921 167.681 128.619 167.185C128.315 166.699 128.212 166.101 128.319 165.401L128.465 164.443C128.681 163.024 129.049 161.619 129.567 160.237L123.984 159.384C124.088 160.913 124.015 162.527 123.756 164.225L123.59 165.313C123.369 166.762 123.594 167.961 124.267 168.912C124.939 169.863 126.024 170.458 127.532 170.688C129.679 171.016 131.242 170.15 132.207 168.448L132.437 168.483C132.844 168.964 132.997 169.499 132.906 170.098C132.769 170.997 132.292 171.639 131.489 172.018C130.685 172.396 129.658 172.494 128.42 172.305C127.341 172.141 126.267 171.813 125.198 171.313C124.13 170.813 123.337 170.252 122.818 169.631L122.245 173.519C122.996 173.889 123.994 174.246 125.22 174.587C126.446 174.927 127.643 175.181 128.832 175.363ZM145.28 173.397C147.517 173.738 149.396 173.412 150.627 172.578C151.848 171.742 152.606 170.529 152.836 169.021C153.066 167.513 152.705 166.129 151.789 164.967C150.863 163.804 149.176 162.933 146.949 162.594C144.712 162.252 142.833 162.578 141.612 163.414C140.381 164.248 139.623 165.461 139.393 166.969C139.163 168.477 139.524 169.861 140.45 171.025C141.366 172.186 143.053 173.057 145.28 173.397ZM145.736 170.411C145.026 170.302 144.492 169.986 144.123 169.459C143.752 168.943 143.621 168.33 143.728 167.631C143.834 166.932 144.142 166.386 144.652 165.994C145.16 165.611 145.764 165.469 146.473 165.577C147.203 165.688 147.747 166.006 148.118 166.523C148.478 167.038 148.61 167.65 148.502 168.36C148.393 169.069 148.085 169.614 147.587 169.998C147.079 170.381 146.465 170.522 145.736 170.411ZM158.653 175.438C160.72 175.754 162.244 175.015 163.222 173.223L163.492 173.264L163.454 173.514C163.324 174.363 163.017 175.103 162.542 175.736L168.235 176.604C168.11 175.216 168.18 173.683 168.436 172.005L168.693 170.328C168.819 169.499 168.967 168.796 169.134 168.238C169.291 167.68 169.518 167.06 169.796 166.377L164.193 165.522C164.291 165.956 164.313 166.613 164.259 167.505C164.193 168.404 164.116 169.179 164.013 169.848L163.864 170.827C163.763 171.486 163.468 172.014 162.97 172.397C162.471 172.791 161.876 172.936 161.187 172.831C160.518 172.728 160.042 172.431 159.74 171.935C159.436 171.449 159.333 170.851 159.44 170.152L159.586 169.193C159.821 167.655 160.188 166.25 160.688 164.987L155.105 164.135C155.206 165.55 155.123 167.163 154.847 168.97L154.681 170.059C154.46 171.507 154.685 172.707 155.368 173.659C156.05 174.612 157.145 175.208 158.653 175.438ZM175.826 177.763C175.644 176.948 175.651 175.897 175.847 174.608L175.988 173.69C176.117 172.841 176.534 172.189 177.228 171.722C177.923 171.256 178.695 171.088 179.533 171.216C180.502 171.364 181.419 171.923 181.854 172.551L182.497 168.336C182.06 168.055 181.536 167.873 180.917 167.778C178.959 167.48 177.417 168.614 176.666 170.921L176.416 170.883L176.509 170.274C176.584 169.784 176.721 169.284 176.932 168.775C177.133 168.264 177.376 167.872 177.657 167.577L171.804 166.684C171.905 168.099 171.834 169.632 171.583 171.28L171.323 172.978C171.198 173.797 171.053 174.48 170.898 175.028C170.741 175.587 170.524 176.208 170.243 176.911L175.826 177.763ZM193.799 180.803C194.238 180.87 194.707 180.88 195.203 180.844C195.689 180.805 196.112 180.716 196.447 180.594L196.996 176.998C196.662 177.244 195.999 177.368 195.43 177.281C194.881 177.197 194.436 176.965 194.107 176.578C193.776 176.2 193.656 175.712 193.746 175.123L194.297 171.517L197.632 172.026L197.841 170.658L194.505 170.149L195.13 166.054L190.644 166.524L190.191 169.49L188.373 169.213L188.164 170.581L189.982 170.859L189.179 176.122C188.784 178.709 190.323 180.272 193.799 180.803ZM203.928 170.422C204.44 170.081 204.739 169.595 204.835 168.966C204.932 168.327 204.793 167.764 204.406 167.286C204.019 166.808 203.451 166.517 202.692 166.401C201.933 166.285 201.303 166.393 200.801 166.736C200.289 167.076 199.988 167.572 199.891 168.211C199.795 168.841 199.935 169.394 200.322 169.872C200.699 170.348 201.268 170.639 202.027 170.755C202.786 170.871 203.416 170.763 203.928 170.422ZM203.191 181.94C203.091 180.525 203.195 178.772 203.512 176.695L203.943 173.869C204.086 172.93 204.249 172.198 204.423 171.663C203.791 171.985 202.96 172.073 201.911 171.913C200.863 171.753 200.066 171.417 199.499 170.911C199.522 171.364 199.459 172.111 199.299 173.16L198.868 175.986C198.55 178.064 198.127 179.767 197.608 181.088L203.191 181.94ZM211.647 183.527C212.396 183.642 213.254 183.711 214.219 183.746C215.186 183.771 215.917 183.74 216.402 183.64L216.939 180.124C216.425 180.342 215.799 180.492 215.073 180.565C214.346 180.638 213.673 180.627 213.064 180.534C210.667 180.169 209.427 179.121 209.645 177.693C209.864 176.254 211.299 175.625 213.457 175.954C214.086 176.05 214.711 176.238 215.332 176.527C215.952 176.816 216.418 177.112 216.729 177.415L217.447 174.049C217.037 173.792 216.382 173.529 215.493 173.26C214.594 172.99 213.865 172.808 213.296 172.721C210.779 172.337 208.76 172.642 207.499 173.471C206.227 174.309 205.502 175.507 205.27 177.025C205.039 178.543 205.373 179.902 206.339 181.072C207.294 182.25 209.13 183.143 211.647 183.527ZM229.641 186.294C230.16 186.374 230.676 186.34 231.179 186.192C231.681 186.054 232.052 185.834 232.29 185.544L232.93 181.083C232.442 181.939 231.482 182.467 230.174 182.267C229.545 182.171 229.005 181.823 228.724 181.525C228.432 181.225 228.005 180.873 227.572 180.766L227.61 180.516L227.72 180.533C229.168 180.754 230.353 180.69 231.275 180.34C232.186 179.999 232.709 179.384 232.845 178.495C233.122 176.677 232.023 175.579 229.536 175.2C228.317 175.014 227.228 175.185 226.267 175.723C225.296 176.259 224.614 177.044 224.201 178.075L224.032 178.049L224.372 175.822C224.699 173.674 225.113 171.969 225.612 170.707L220.029 169.855C220.13 171.27 220.026 173.022 219.707 175.11L219.102 179.075C218.785 181.152 218.362 182.856 217.843 184.177L223.426 185.029C223.315 183.816 223.369 182.526 223.577 181.158L223.664 180.589C223.925 180.557 224.161 180.552 224.36 180.583C225.659 180.781 226.092 181.757 226.449 182.833C226.685 183.564 226.956 184.331 227.36 184.965C227.763 185.609 228.552 186.128 229.641 186.294ZM223.86 179.443C223.994 178.963 224.343 178.556 224.911 178.244C225.48 177.933 226.06 177.817 226.649 177.907C227.498 178.036 227.994 178.47 227.901 179.079C227.804 179.718 227.285 179.966 226.357 179.824L223.86 179.443ZM239.971 187.851C240.98 188.005 242.012 188.07 243.057 188.056C244.103 188.032 244.917 187.921 245.509 187.725L245.943 184.347C245.499 184.709 244.88 184.951 244.084 185.075C243.289 185.199 242.471 185.197 241.642 185.07C240.564 184.906 239.661 184.523 238.934 183.931C238.197 183.338 237.841 182.722 237.857 182.081L238.032 182.005C238.994 183 240.3 183.486 242.058 183.754C244.725 184.161 246.396 183.455 246.684 181.568C246.801 180.799 246.667 180.073 246.175 179.344C245.477 178.297 243.906 177.403 241.311 176.997C239.164 176.669 237.303 177.009 236.073 177.833C234.832 178.665 234.042 179.894 233.815 181.382C233.568 183 233.997 184.404 235.115 185.587C236.232 186.769 237.844 187.526 239.971 187.851ZM240.458 182.314C239.39 182.151 238.62 181.768 238.14 181.163C238.317 180.608 238.642 180.218 239.098 179.981C239.551 179.753 240.054 179.677 240.593 179.759C241.801 179.944 242.481 180.579 242.358 181.388C242.304 181.737 242.092 181.991 241.719 182.159C241.344 182.337 240.928 182.386 240.458 182.314ZM253.364 189.895C253.804 189.962 254.272 189.972 254.769 189.936C255.255 189.897 255.677 189.809 256.013 189.686L256.561 186.09C256.228 186.336 255.565 186.46 254.996 186.373C254.446 186.289 254.001 186.057 253.672 185.67C253.341 185.292 253.222 184.804 253.312 184.215L253.862 180.609L257.198 181.118L257.407 179.75L254.071 179.241L254.696 175.146L250.209 175.616L249.756 178.582L247.938 178.305L247.73 179.673L249.547 179.951L248.744 185.214C248.349 187.801 249.889 189.364 253.364 189.895ZM268.825 192.255C269.264 192.322 269.733 192.332 270.229 192.295C270.715 192.257 271.138 192.168 271.473 192.046L272.022 188.45C271.688 188.696 271.025 188.82 270.456 188.733C269.907 188.649 269.462 188.417 269.133 188.03C268.802 187.652 268.682 187.164 268.772 186.575L269.322 182.969L272.658 183.478L272.867 182.11L269.531 181.601L270.156 177.506L265.67 177.976L265.217 180.942L263.399 180.665L263.19 182.033L265.008 182.311L264.204 187.574C263.81 190.161 265.349 191.724 268.825 192.255ZM278.972 193.804C281.209 194.145 283.089 193.819 284.32 192.985C285.541 192.149 286.298 190.936 286.529 189.428C286.759 187.92 286.398 186.536 285.481 185.374C284.555 184.211 282.869 183.34 280.642 183C278.404 182.659 276.525 182.985 275.304 183.821C274.073 184.655 273.316 185.868 273.085 187.376C272.855 188.884 273.216 190.268 274.142 191.431C275.059 192.593 276.745 193.464 278.972 193.804ZM279.428 190.817C278.719 190.709 278.185 190.393 277.815 189.866C277.445 189.35 277.313 188.737 277.42 188.038C277.527 187.339 277.835 186.793 278.344 186.4C278.852 186.018 279.457 185.875 280.166 185.984C280.895 186.095 281.439 186.413 281.81 186.929C282.171 187.444 282.302 188.057 282.194 188.766C282.086 189.476 281.778 190.021 281.28 190.405C280.771 190.787 280.157 190.929 279.428 190.817ZM145.268 202.731C147.376 203.053 149.154 202.987 150.586 202.511C152.008 202.033 152.939 201.02 153.165 199.542C153.354 198.303 152.906 197.285 152.102 196.661C151.297 196.047 150.171 195.518 149.021 195.22C146.723 194.542 144.373 194.204 144.545 193.075C144.595 192.745 144.882 192.544 145.397 192.449C145.912 192.354 146.554 192.37 147.333 192.489C148.361 192.646 149.367 192.953 150.342 193.398C151.316 193.843 152.069 194.336 152.601 194.867L153.391 189.693C152.71 189.334 151.864 188.98 150.845 188.63C149.825 188.28 148.81 188.033 147.821 187.882C146.443 187.672 145.2 187.646 144.101 187.815C142.992 187.983 142.067 188.353 141.332 188.946C140.598 189.539 140.153 190.31 140.007 191.268C139.835 192.397 140.156 193.376 140.795 194.005C141.434 194.644 142.333 195.18 143.344 195.518C145.825 196.408 148.729 196.667 148.573 197.686C148.476 198.325 147.528 198.508 145.74 198.235C144.512 198.047 143.311 197.68 142.147 197.134C140.974 196.587 140.036 195.902 139.313 195.077L138.312 200.433C139.23 200.91 140.366 201.37 141.718 201.821C143.07 202.273 144.25 202.576 145.268 202.731ZM162.831 205.115C162.73 203.7 162.834 201.948 163.151 199.87L163.829 195.426L165.607 195.697C166.666 195.859 167.55 196.229 168.27 196.799L168.313 191.296L155.998 189.417L154.397 194.681C155.235 194.349 156.189 194.26 157.258 194.423L159.165 194.714L158.487 199.158C158.17 201.236 157.746 202.939 157.228 204.26L162.831 205.115ZM175.98 207.419C177.188 207.603 178.269 207.687 179.231 207.68C180.184 207.662 181.158 207.576 182.153 207.421L182.971 202.058C182.304 202.477 181.503 202.774 180.567 202.948C179.63 203.122 178.657 203.136 177.658 202.984C175.222 202.612 173.161 201.449 173.466 199.452C173.604 198.543 174.142 197.899 175.07 197.51C175.997 197.13 177.135 197.038 178.474 197.242C179.263 197.363 180.033 197.603 180.776 197.961C181.507 198.328 182.08 198.723 182.495 199.154L183.292 194.196C182.743 193.847 182.016 193.521 181.123 193.211C180.228 192.911 179.282 192.685 178.273 192.531C176.585 192.273 174.904 192.374 173.324 192.95C172.534 193.239 171.82 193.631 171.193 194.117C169.929 195.1 168.971 196.691 168.668 198.679C168.363 200.676 168.791 202.489 169.705 203.804C171.077 205.792 173.469 207.066 175.98 207.419Z" fill="#E0E0E0"/>
<mask id="path-5-inside-2_698:8100" fill="white">
<path fill-rule="evenodd" clip-rule="evenodd" d="M305.621 120.791L359.895 24.1989L348.296 16.1861L295.314 110.479L305.621 120.791ZM288.119 123.283L288.029 123.444L288.417 123.662L288.119 123.283Z"/>
</mask>
<path d="M305.621 120.791L304.645 121.768L305.933 123.056L306.825 121.468L305.621 120.791ZM359.895 24.1989L361.099 24.8753L361.715 23.7782L360.68 23.0629L359.895 24.1989ZM348.296 16.1861L349.08 15.0501L347.834 14.1891L347.092 15.5097L348.296 16.1861ZM295.314 110.479L294.11 109.803L293.597 110.715L294.337 111.455L295.314 110.479ZM288.029 123.444L286.825 122.768L286.149 123.971L287.353 124.648L288.029 123.444ZM288.119 123.283L289.205 122.43L287.928 120.805L286.916 122.607L288.119 123.283ZM288.417 123.662L287.741 124.866L289.503 122.809L288.417 123.662ZM306.825 121.468L361.099 24.8753L358.691 23.5226L304.418 120.115L306.825 121.468ZM360.68 23.0629L349.08 15.0501L347.511 17.3221L359.11 25.335L360.68 23.0629ZM347.092 15.5097L294.11 109.803L296.517 111.156L349.499 16.8625L347.092 15.5097ZM294.337 111.455L304.645 121.768L306.598 119.815L296.29 109.503L294.337 111.455ZM289.233 124.12L289.323 123.959L286.916 122.607L286.825 122.768L289.233 124.12ZM289.093 122.458L288.705 122.24L287.353 124.648L287.741 124.866L289.093 122.458ZM287.034 124.136L287.331 124.515L289.503 122.809L289.205 122.43L287.034 124.136Z" fill="#8972ED" mask="url(#path-5-inside-2_698:8100)"/>
<mask id="path-7-inside-3_698:8100" fill="white">
<path fill-rule="evenodd" clip-rule="evenodd" d="M344.091 186.166L407.794 178.436L406.853 164.409L344.666 171.955L344.091 186.166ZM336.222 172.98L336.116 172.993L336.17 173.435L336.222 172.98Z"/>
</mask>
<path d="M344.091 186.166L342.712 186.11L342.646 187.732L344.258 187.536L344.091 186.166ZM407.794 178.436L407.961 179.806L409.26 179.649L409.172 178.343L407.794 178.436ZM406.853 164.409L408.23 164.317L408.133 162.863L406.687 163.039L406.853 164.409ZM344.666 171.955L344.5 170.585L343.334 170.726L343.287 171.899L344.666 171.955ZM336.116 172.993L335.95 171.622L334.579 171.788L334.745 173.159L336.116 172.993ZM336.222 172.98L337.594 173.138L337.795 171.398L336.056 171.609L336.222 172.98ZM336.17 173.435L334.799 173.601L337.541 173.593L336.17 173.435ZM344.258 187.536L407.961 179.806L407.628 177.065L343.925 184.795L344.258 187.536ZM409.172 178.343L408.23 164.317L405.475 164.502L406.417 178.528L409.172 178.343ZM406.687 163.039L344.5 170.585L344.832 173.326L407.019 165.78L406.687 163.039ZM343.287 171.899L342.712 186.11L345.471 186.221L346.046 172.011L343.287 171.899ZM336.282 174.363L336.388 174.351L336.056 171.609L335.95 171.622L336.282 174.363ZM337.54 173.269L337.487 172.826L334.745 173.159L334.799 173.601L337.54 173.269ZM334.851 172.822L334.798 173.277L337.541 173.593L337.594 173.138L334.851 172.822Z" fill="#F2994A" mask="url(#path-7-inside-3_698:8100)"/>
<path fill-rule="evenodd" clip-rule="evenodd" d="M398.431 47.9039L317.876 134.232L332.113 139.555L407.807 58.436L398.431 47.9039ZM314.479 137.872L314.606 137.736L314.807 138.177L314.479 137.872Z" fill="#B6E8F3"/>
<rect x="336.203" y="152.751" width="119.946" height="13.4842" transform="rotate(-31.6432 336.203 152.751)" fill="#58DF3A"/>
<path d="M357.9 152.308C358.133 152.164 358.322 151.959 358.47 151.698C358.613 151.44 358.676 151.193 358.657 150.959L356.902 148.172C357.042 148.961 356.819 149.54 356.23 149.903C355.978 150.058 355.677 150.08 355.401 150.042C355.004 149.99 354.547 149.893 354.077 150.183L354.059 150.195L354.025 150.14L354.107 150.089C354.587 149.794 354.972 149.468 355.266 149.117C355.56 148.765 355.739 148.391 355.799 147.988C355.863 147.589 355.778 147.207 355.55 146.837C355.328 146.476 355.025 146.24 354.636 146.121C353.86 145.893 352.937 146.134 351.964 146.734L347.99 149.183C348.517 149.721 349.077 150.466 349.666 151.421L350.783 153.234C351.369 154.184 351.782 155.019 352.026 155.732L354.589 154.153C354.062 153.615 353.502 152.87 352.916 151.92L352.68 151.536C352.742 151.453 352.866 151.358 353.053 151.243C353.793 150.787 354.393 151.218 355.032 151.712C355.819 152.336 356.666 153.075 357.9 152.308ZM351.585 149.759L352.836 148.988C353.279 148.715 353.724 148.731 353.924 149.055C354.138 149.402 353.945 149.786 353.452 150.09L352.246 150.833L351.585 149.759ZM363.256 148.995C363.718 148.71 364.158 148.382 364.576 148.017C364.991 147.648 365.283 147.324 365.455 147.041L364.47 145.524C364.415 145.823 364.247 146.134 363.968 146.458C363.688 146.781 363.357 147.061 362.977 147.295C362.484 147.599 361.987 147.754 361.49 147.764C360.987 147.778 360.632 147.65 360.418 147.385L360.463 147.294C361.194 147.367 361.89 147.114 362.693 146.619C363.913 145.868 364.347 145.008 363.815 144.144C363.598 143.793 363.295 143.545 362.845 143.419C362.202 143.235 361.26 143.413 360.069 144.14C359.087 144.745 358.451 145.522 358.236 146.278C358.02 147.042 358.122 147.811 358.541 148.491C358.997 149.231 359.653 149.652 360.512 149.747C361.371 149.841 362.283 149.594 363.256 148.995ZM361.551 146.586C361.062 146.887 360.619 146.996 360.217 146.916C360.098 146.631 360.096 146.361 360.198 146.109C360.304 145.861 360.481 145.657 360.728 145.505C361.28 145.165 361.774 145.188 362.002 145.558C362.1 145.718 362.101 145.894 362.008 146.09C361.918 146.291 361.766 146.453 361.551 146.586ZM371.298 146.799C373.139 145.665 374.307 143.848 373.367 142.323C373.215 142.076 373.002 141.874 372.735 141.717L371.871 140.314C371.285 139.364 370.872 138.529 370.628 137.816L368.074 139.39C368.294 139.551 368.455 139.691 368.572 139.808C368.686 139.933 368.807 140.098 368.934 140.303L368.998 140.408L368.875 140.484C368.076 139.893 367.089 139.814 366.12 140.411C365.394 140.859 364.986 141.495 364.92 142.165C364.85 142.839 365.036 143.55 365.461 144.239C365.886 144.929 366.432 145.406 367.062 145.641C367.69 145.884 368.439 145.801 369.166 145.353C370.157 144.742 370.515 143.81 370.327 142.841L370.432 142.776C370.748 142.859 370.979 143.019 371.128 143.261C371.384 143.677 371.413 144.101 371.22 144.535C371.024 144.964 370.643 145.357 370.081 145.703C369.587 146.007 369.04 146.243 368.436 146.408C367.831 146.572 367.317 146.618 366.894 146.545L367.998 148.316C368.429 148.208 368.951 148.012 369.565 147.729C370.178 147.445 370.755 147.134 371.298 146.799ZM369.274 143.453C368.922 143.669 368.579 143.736 368.241 143.648C367.899 143.563 367.627 143.358 367.425 143.029C367.216 142.691 367.15 142.348 367.228 142.004C367.301 141.662 367.515 141.386 367.866 141.169C368.209 140.958 368.546 140.901 368.884 140.989C369.222 141.077 369.494 141.294 369.699 141.627C369.894 141.943 369.955 142.277 369.88 142.626C369.805 142.974 369.603 143.25 369.274 143.453ZM373.987 135.027C374.077 134.714 374.032 134.414 373.854 134.126C373.674 133.834 373.424 133.654 373.104 133.593C372.783 133.533 372.452 133.61 372.105 133.824C371.758 134.038 371.54 134.298 371.455 134.609C371.365 134.923 371.413 135.227 371.593 135.52C371.771 135.807 372.018 135.983 372.339 136.044C372.655 136.107 372.985 136.029 373.332 135.816C373.679 135.602 373.897 135.341 373.987 135.027ZM377.647 139.944C377.12 139.405 376.56 138.66 375.974 137.71L375.178 136.417C374.913 135.988 374.728 135.636 374.614 135.36C374.469 135.707 374.163 136.028 373.683 136.324C373.204 136.619 372.766 136.757 372.362 136.747C372.527 136.923 372.759 137.247 373.054 137.726L373.851 139.019C374.436 139.969 374.85 140.804 375.094 141.517L377.647 139.944ZM381.683 137.639C382.56 137.099 383.155 136.55 383.468 135.985C383.782 135.42 383.788 134.899 383.487 134.41C383.053 133.695 382.211 133.791 381.409 134.115C380.314 134.538 379.226 135.328 379.026 135.004C378.911 134.817 379.162 134.479 379.715 134.138C380.103 133.899 380.522 133.71 380.971 133.579C381.419 133.447 381.805 133.367 382.127 133.339L381.149 131.73C380.264 131.89 379.419 132.216 378.615 132.711C377.779 133.226 377.221 133.753 376.942 134.291C376.66 134.836 376.65 135.321 376.915 135.75C378.001 137.513 381.004 134.573 381.401 135.217C381.527 135.422 381.232 135.762 380.588 136.159C380.246 136.37 379.793 136.567 379.239 136.751C378.68 136.938 378.172 137.055 377.718 137.115L378.801 138.873C379.169 138.785 379.65 138.615 380.249 138.359C380.84 138.102 381.322 137.861 381.683 137.639ZM388.661 133.339C388.862 133.215 389.056 133.058 389.244 132.873C389.428 132.69 389.568 132.509 389.662 132.344L388.649 130.7C388.598 130.914 388.372 131.192 388.112 131.352C387.86 131.507 387.601 131.566 387.334 131.523C387.071 131.483 386.854 131.327 386.688 131.057L385.672 129.408L387.198 128.468L386.812 127.843L385.287 128.783L384.133 126.91L382.478 128.642L383.314 129.999L382.482 130.511L382.868 131.137L383.699 130.624L385.182 133.031C385.911 134.214 387.072 134.318 388.661 133.339ZM394.174 129.942C394.635 129.658 395.075 129.33 395.493 128.965C395.909 128.596 396.2 128.271 396.373 127.988L395.387 126.472C395.332 126.77 395.165 127.082 394.885 127.405C394.606 127.729 394.274 128.009 393.895 128.242C393.402 128.546 392.905 128.701 392.407 128.712C391.905 128.725 391.549 128.598 391.335 128.332L391.38 128.242C392.112 128.314 392.807 128.062 393.611 127.566C394.83 126.815 395.264 125.955 394.733 125.092C394.516 124.74 394.212 124.493 393.762 124.366C393.12 124.182 392.177 124.36 390.987 125.087C390.005 125.693 389.368 126.469 389.153 127.226C388.937 127.989 389.039 128.758 389.458 129.439C389.914 130.178 390.571 130.599 391.429 130.694C392.288 130.789 393.201 130.542 394.174 129.942ZM392.468 127.533C391.98 127.834 391.537 127.943 391.135 127.864C391.015 127.578 391.013 127.308 391.116 127.056C391.221 126.808 391.398 126.604 391.645 126.452C392.198 126.112 392.691 126.136 392.919 126.505C393.018 126.665 393.019 126.841 392.925 127.037C392.835 127.238 392.683 127.401 392.468 127.533ZM400.645 125.771C400.292 125.504 399.933 125.076 399.57 124.486L399.311 124.066C399.072 123.678 399.016 123.271 399.137 122.844C399.258 122.416 399.513 122.083 399.897 121.846C400.34 121.573 400.903 121.485 401.295 121.59L400.107 119.662C399.834 119.699 399.559 119.805 399.276 119.979C398.38 120.531 398.146 121.52 398.634 122.712L398.52 122.783L398.349 122.504C398.211 122.28 398.095 122.031 398.005 121.752C397.91 121.476 397.874 121.234 397.887 121.018L395.21 122.667C395.737 123.206 396.235 123.851 396.7 124.604L397.178 125.381C397.409 125.755 397.585 126.082 397.711 126.357C397.839 126.637 397.964 126.963 398.092 127.344L400.645 125.771ZM410.112 119.937C409.903 119.732 409.625 119.393 409.272 118.911C408.918 118.43 408.608 117.978 408.347 117.553L407.679 116.471L407.816 116.386L412.441 118.502L414.451 117.263L411.876 113.084C411.265 112.093 410.851 111.258 410.63 110.582L408.067 112.161C408.266 112.36 408.53 112.676 408.861 113.121C409.192 113.566 409.475 113.984 409.714 114.372L410.401 115.487L410.268 115.568L405.84 113.558L403.514 114.967C404.041 115.505 404.601 116.25 405.189 117.205L406.306 119.018C406.892 119.968 407.306 120.803 407.55 121.516L410.112 119.937ZM419.698 114.213C420.68 113.608 421.351 112.785 421.654 111.835C421.953 110.888 421.784 109.745 421.106 108.644C420.562 107.763 419.841 107.155 419.087 106.882C417.94 106.473 416.67 106.683 415.501 107.403C414.514 108.011 413.837 108.844 413.535 109.787C413.232 110.736 413.396 111.883 414.072 112.979C414.75 114.079 415.7 114.742 416.685 114.897C417.665 115.056 418.711 114.821 419.698 114.213ZM418.67 112.546C418.291 112.78 417.885 112.816 417.454 112.659C417.019 112.505 416.631 112.151 416.296 111.608C415.961 111.064 415.823 110.564 415.876 110.109C415.93 109.653 416.152 109.308 416.531 109.075C416.906 108.844 417.309 108.803 417.74 108.96C418.17 109.117 418.556 109.466 418.89 110.009C419.225 110.553 419.367 111.058 419.313 111.513C419.26 111.968 419.045 112.315 418.67 112.546ZM427.964 108.936L426.595 104.72L426.704 104.652L429.855 107.771L432.737 105.995C432.535 105.697 432.322 105.311 432.088 104.838C431.853 104.365 431.658 103.906 431.495 103.458L430.842 101.396C430.429 100.327 430.157 99.4048 430.035 98.6232L427.472 100.202C427.637 100.46 427.893 100.977 428.237 101.76L428.747 103.355C428.787 103.45 428.842 103.58 428.912 103.745C429.043 104.08 429.134 104.289 429.257 104.541L429.152 104.605L425.677 101.308L424.061 102.305L425.448 106.888L425.348 106.95C425.295 106.875 425.015 106.544 424.512 105.952L423.327 104.786C422.8 104.166 422.453 103.705 422.284 103.4L419.708 104.987C420.344 105.446 421.054 106.098 421.836 106.947L423.384 108.457C423.706 108.806 424.027 109.194 424.346 109.609C424.663 110.031 424.912 110.395 425.091 110.706L427.964 108.936Z" fill="#0A2A2B"/>
</svg>
