<svg width="149" height="64" viewBox="0 0 149 64" fill="none" xmlns="http://www.w3.org/2000/svg">
<g filter="url(#filter0_d_698:8910)">
<rect x="10.9531" y="7" width="129.327" height="29.5758" transform="rotate(7.67886 10.9531 7)" fill="#F4B5C2"/>
<path d="M13.3107 26.2708L14.1449 24.5378L15.1101 24.668L14.2652 26.3995L15.4502 26.5592L16.2898 24.827L17.3837 24.9745L17.8428 23.9991L16.7757 23.8552L17.5522 22.2673L18.6139 22.4105L19.0501 21.4429L18.0259 21.3048L18.8884 19.5647L17.7033 19.405L16.8516 21.1464L15.8971 21.0178L16.7435 19.2755L15.5477 19.1143L14.7013 20.8565L13.6556 20.7155L13.2033 21.681L14.2222 21.8184L13.4511 23.4069L12.4269 23.2688L11.9624 24.2436L12.9705 24.3795L12.1095 26.1088L13.3107 26.2708ZM15.4073 21.9781L16.3617 22.1068L15.5907 23.6954L14.6362 23.5667L15.4073 21.9781ZM22.5236 27.6713C23.655 27.8238 24.6066 27.772 25.3689 27.5035C26.1259 27.2343 26.6152 26.6833 26.7222 25.8897C26.8118 25.2247 26.5627 24.6834 26.1262 24.357C25.689 24.036 25.0816 23.763 24.4629 23.6141C23.2259 23.2726 21.9643 23.1134 22.046 22.5074C22.0698 22.3305 22.2212 22.2199 22.4963 22.1641C22.7713 22.1084 23.1149 22.111 23.5332 22.1674C24.0855 22.2419 24.627 22.3968 25.153 22.6261C25.679 22.8553 26.0866 23.1123 26.3765 23.3916L26.751 20.6139C26.383 20.4278 25.927 20.2462 25.3777 20.0684C24.8284 19.8906 24.2826 19.7679 23.7517 19.6963C23.0117 19.5965 22.346 19.5941 21.7591 19.6952C21.1668 19.7955 20.6748 20.0022 20.2871 20.3266C19.8994 20.6511 19.6685 21.0676 19.5991 21.5824C19.5174 22.1884 19.6983 22.7096 20.0468 23.0405C20.3946 23.3767 20.8812 23.6553 21.4258 23.827C22.7624 24.2802 24.3198 24.3919 24.246 24.9388C24.1998 25.282 23.694 25.3886 22.7342 25.2591C22.0746 25.1702 21.428 24.9848 20.7999 24.7035C20.1663 24.4215 19.6577 24.0636 19.2632 23.6282L18.777 26.5055C19.2733 26.7526 19.8858 26.988 20.6138 27.2172C21.3418 27.4464 21.9766 27.5975 22.5236 27.6713ZM30.2019 28.5482C30.1443 28.3275 30.1263 27.9757 30.1523 27.4987C30.1777 27.0271 30.2127 26.606 30.2618 26.2413L30.3219 25.7144C30.365 25.3544 30.5181 25.0693 30.7866 24.8598C31.0497 24.6496 31.3666 24.5667 31.7366 24.6166C32.4498 24.7128 32.7994 25.2786 32.6975 26.0347L32.6295 26.5387C32.516 27.3806 32.3275 28.1305 32.068 28.7998L35.0763 29.2054C35.0033 28.4913 35.0325 27.6271 35.1691 26.6136L35.2479 26.0291C35.3528 25.2516 35.2207 24.6114 34.8463 24.1077C34.472 23.6041 33.8803 23.295 33.0599 23.1844C31.9714 23.0376 31.162 23.4526 30.6324 24.4241L30.5091 24.4074L30.6168 23.6084C30.7701 22.4716 30.9756 21.5548 31.2387 20.8587L28.2358 20.4538C28.2707 20.8025 28.2726 21.234 28.2514 21.7553C28.2296 22.282 28.1838 22.7836 28.118 23.2715L27.8309 25.4004C27.7652 25.8883 27.6765 26.3841 27.5595 26.887C27.4419 27.3953 27.325 27.8164 27.199 28.1433L30.2019 28.5482ZM39.431 29.9509C40.6321 30.1128 41.6353 29.9205 42.2868 29.4624C42.9328 29.0035 43.3271 28.3469 43.4363 27.5372C43.5455 26.7275 43.3392 25.9899 42.8377 25.3763C42.3309 24.762 41.4198 24.3115 40.224 24.1503C39.0228 23.9884 38.0196 24.1807 37.3735 24.6396C36.7221 25.0977 36.3278 25.7543 36.2186 26.564C36.1094 27.3737 36.3157 28.1113 36.8226 28.7256C37.324 29.3392 38.2352 29.7897 39.431 29.9509ZM39.6471 28.3476C39.2664 28.2962 38.9774 28.1317 38.7747 27.8532C38.5713 27.5801 38.4953 27.2532 38.5459 26.8778C38.5965 26.5024 38.7564 26.2073 39.0256 25.9925C39.2941 25.783 39.6163 25.7009 39.9971 25.7522C40.3885 25.805 40.6829 25.9702 40.8863 26.2434C41.0843 26.5158 41.1604 26.8427 41.109 27.2234C41.0577 27.6041 40.8978 27.8992 40.6347 28.1094C40.3662 28.3189 40.0386 28.4003 39.6471 28.3476ZM47.7849 30.9189L49.0545 28.3056L49.1886 28.3237L49.7315 31.1814L52.981 31.6195C53.0362 31.0482 53.2085 30.378 53.4978 29.609L54.0855 28.2469C54.3809 27.4732 54.7086 26.824 55.0727 26.3107L52.2199 25.9261C52.1844 26.2707 52.0883 26.7 51.9309 27.2193L51.2936 28.7877C51.2251 28.9313 51.1755 29.0557 51.1457 29.1554L51.0009 29.1359L50.386 25.6788L48.6057 25.4388L47.0896 28.6249L46.9717 28.609L46.9233 28.1984L46.7134 26.5158C46.6895 26.0048 46.7105 25.5654 46.7718 25.1915L43.9244 24.8076C44.1185 25.3524 44.268 26.066 44.3636 26.9361L44.5588 28.4038C44.5976 28.7639 44.6182 29.1379 44.6151 29.5252C44.612 29.9124 44.5855 30.2309 44.5354 30.4808L47.7849 30.9189ZM59.0029 32.4314L60.6291 28.2665L60.7578 28.2838L61.2229 32.7308L64.6065 33.187C64.6389 32.8255 64.7196 32.3887 64.8387 31.8697C64.9578 31.3507 65.0994 30.8675 65.2588 30.414L66.067 28.3882C66.428 27.2903 66.8051 26.3966 67.2091 25.7085L64.2008 25.3029C64.165 25.6093 64.034 26.1758 63.8018 27.0072L63.1805 28.5777C63.1507 28.6774 63.1105 28.814 63.0598 28.9873C62.9477 29.3326 62.8852 29.5534 62.8208 29.8287L62.6975 29.812L62.0934 25.0188L60.1952 24.7629L58.3486 29.2257L58.2307 29.2098C58.2376 29.1179 58.2311 28.6802 58.2165 27.8975L58.0373 26.23C58.0224 25.409 58.0462 24.828 58.1092 24.4816L55.0849 24.0738C55.2876 24.8382 55.4253 25.8013 55.4926 26.9624L55.7354 29.1299C55.7636 29.6088 55.7661 30.1169 55.7496 30.6442C55.727 31.1762 55.6892 31.6188 55.63 31.9767L59.0029 32.4314ZM69.5827 33.8579C69.5251 33.6372 69.507 33.2853 69.5331 32.8084C69.5585 32.3368 69.5934 31.9157 69.6426 31.551L69.7027 31.0241C69.7458 30.6641 69.8989 30.379 70.1674 30.1695C70.4305 29.9593 70.7474 29.8764 71.1174 29.9263C71.8306 30.0225 72.1802 30.5883 72.0782 31.3444L72.0103 31.8484C71.8968 32.6903 71.7083 33.4402 71.4488 34.1095L74.4571 34.5151C74.3841 33.801 74.4133 32.9368 74.5499 31.9233L74.6287 31.3388C74.7335 30.5613 74.6015 29.9211 74.2271 29.4174C73.8528 28.9138 73.2611 28.6047 72.4407 28.4941C71.3522 28.3473 70.5427 28.7623 70.0132 29.7338L69.8899 29.7171L69.9976 28.9181C70.1509 27.7813 70.3564 26.8645 70.6195 26.1684L67.6166 25.7635C67.6515 26.1122 67.6534 26.5437 67.6322 27.065C67.6103 27.5917 67.5646 28.0933 67.4988 28.5812L67.2117 30.7101C67.1459 31.198 67.0573 31.6938 66.9403 32.1967C66.8226 32.705 66.7058 33.126 66.5798 33.453L69.5827 33.8579ZM77.4604 35.0784C78.5383 35.2237 79.3125 34.9077 79.6995 34.3047L79.8229 34.3213L79.8098 34.4179C79.7621 34.7718 79.667 35.0319 79.5244 35.1983L82.3236 35.5758C82.2586 35.2885 82.2383 34.9528 82.2521 34.567C82.2659 34.1812 82.3175 33.6367 82.4115 32.9396L82.5373 32.0066C82.7274 30.5963 81.6639 29.7376 79.342 29.4246C78.9023 29.3653 78.4039 29.3363 77.8515 29.3437C77.2937 29.3504 76.8853 29.3827 76.621 29.4399L76.4091 31.0111C76.6314 30.8608 76.9405 30.7551 77.3364 30.6938C77.7269 30.6318 78.1424 30.6278 78.5768 30.6864C79.0647 30.7522 79.4578 30.9143 79.7553 31.1783C80.0474 31.4415 80.1656 31.7796 80.1084 32.2032L80.0434 32.6858L79.8986 32.6663C79.6875 32.0045 79.0315 31.4847 77.9751 31.3423C77.2619 31.2461 76.6804 31.3479 76.2351 31.6537C75.7899 31.9595 75.5314 32.3778 75.4599 32.9086C75.4136 33.2518 75.4575 33.5744 75.5868 33.8703C75.8441 34.4728 76.5113 34.9504 77.4604 35.0784ZM78.7582 33.9976C78.1147 33.9109 77.7516 33.5671 77.8043 33.1756C77.8593 32.7681 78.293 32.5481 78.9418 32.6356C79.2582 32.6782 79.5069 32.7773 79.6819 32.9374C79.8568 33.0975 79.9317 33.2713 79.9064 33.459C79.8507 33.8719 79.407 34.0851 78.7582 33.9976ZM86.1581 36.2511C86.394 36.2829 86.645 36.284 86.9104 36.2597C87.1704 36.2347 87.3957 36.1832 87.5742 36.1144L87.8345 34.184C87.658 34.3186 87.3043 34.391 86.9987 34.3498C86.7037 34.31 86.4633 34.1902 86.2834 33.9858C86.1027 33.7867 86.0341 33.5263 86.0768 33.2099L86.3378 31.2741L88.1288 31.5156L88.2278 30.781L86.4368 30.5395L86.7332 28.341L84.335 28.6346L84.1203 30.2272L83.1444 30.0956L83.0453 30.8302L84.0212 30.9618L83.6402 33.7878C83.453 35.1766 84.292 35.9995 86.1581 36.2511ZM93.2305 37.0463C93.1741 36.2907 93.1922 35.5889 93.2797 34.94L93.36 34.3448L95.0771 32.2996C95.4271 31.8499 95.8161 31.3946 96.2401 30.9222C96.6581 30.4544 97.0316 30.0735 97.3506 29.7725L94.1547 29.3416C93.785 30.0179 93.4413 30.5831 93.1235 31.0371L92.4734 31.7684L92.3555 31.7525L91.9262 30.8865C91.7478 30.3875 91.5722 29.7468 91.3877 28.9685L88.1811 28.5362C88.6601 29.316 89.1678 30.329 89.7148 31.5766L90.8251 33.9921L90.7462 34.5766C90.6486 35.3005 90.4735 35.9921 90.2223 36.6407L93.2305 37.0463ZM98.6201 37.9313C99.8213 38.0933 100.824 37.901 101.476 37.4428C102.122 36.984 102.516 36.3273 102.625 35.5176C102.735 34.7079 102.528 33.9703 102.027 33.3567C101.52 32.7424 100.609 32.292 99.4131 32.1308C98.212 31.9688 97.2087 32.1611 96.5627 32.62C95.9112 33.0782 95.5169 33.7348 95.4078 34.5445C95.2986 35.3542 95.5049 36.0918 96.0117 36.7061C96.5132 37.3197 97.4243 37.7701 98.6201 37.9313ZM98.8363 36.328C98.4556 36.2767 98.1665 36.1121 97.9639 35.8337C97.7604 35.5605 97.6844 35.2336 97.735 34.8583C97.7856 34.4829 97.9455 34.1878 98.2147 33.9729C98.4832 33.7634 98.8055 33.6813 99.1862 33.7327C99.5777 33.7854 99.872 33.9507 100.075 34.2238C100.273 34.4962 100.35 34.8231 100.298 35.2039C100.247 35.5846 100.087 35.8797 99.8238 36.0899C99.5554 36.2994 99.2277 36.3808 98.8363 36.328ZM105.8 38.8994C106.91 39.0491 107.719 38.6394 108.226 37.6705L108.371 37.69L108.353 37.8241C108.292 38.2799 108.134 38.679 107.886 39.0223L110.942 39.4344C110.862 38.692 110.886 37.8707 111.007 36.9698L111.128 36.069C111.188 35.6239 111.261 35.2461 111.345 34.9462C111.424 34.6456 111.54 34.3118 111.683 33.9434L108.674 33.5378C108.73 33.7692 108.749 34.1211 108.728 34.5987C108.701 35.081 108.667 35.4968 108.618 35.8561L108.547 36.3816C108.5 36.7355 108.347 37.0206 108.084 37.2308C107.82 37.4464 107.503 37.5293 107.133 37.4794C106.774 37.4309 106.516 37.2761 106.349 37.0134C106.182 36.7561 106.121 36.4367 106.172 36.0613L106.241 35.5465C106.353 34.7208 106.537 33.9648 106.792 33.284L103.795 32.8799C103.862 33.6369 103.833 34.5011 103.702 35.4717L103.623 36.0562C103.518 36.8337 103.65 37.4739 104.025 37.9775C104.399 38.4812 104.991 38.7903 105.8 38.8994ZM115.956 40.2688C116.713 40.3707 117.45 40.3665 118.169 40.256C118.888 40.1508 119.501 39.9332 120.005 39.6025L120.444 36.3422L116.444 35.8029L116.28 36.8564C116.583 36.8372 116.888 36.8455 117.182 36.8852L117.821 36.9713L117.727 37.663C117.414 37.8392 116.981 37.89 116.418 37.8141C115.834 37.7353 115.391 37.5391 115.078 37.224C114.766 36.9089 114.638 36.5257 114.699 36.0699C114.767 35.5659 115.046 35.1994 115.53 34.9699C116.014 34.7403 116.65 34.6787 117.433 34.7842C117.846 34.8399 118.252 34.9438 118.653 35.0907C119.053 35.2429 119.35 35.4249 119.55 35.643L119.906 33.1631C119.184 32.7326 118.262 32.4392 117.131 32.2866C115.908 32.1218 114.75 32.3696 113.87 32.9444C112.989 33.5245 112.372 34.5004 112.21 35.7016C112.047 36.9081 112.369 38.0052 113.038 38.7889C113.708 39.5725 114.734 40.1039 115.956 40.2688ZM124.08 41.3641C125.282 41.5261 126.285 41.3338 126.936 40.8756C127.582 40.4167 127.977 39.7601 128.086 38.9504C128.195 38.1407 127.989 37.4031 127.487 36.7895C126.98 36.1752 126.069 35.7248 124.873 35.5636C123.672 35.4016 122.669 35.5939 122.023 36.0528C121.371 36.511 120.977 37.1676 120.868 37.9773C120.759 38.787 120.965 39.5246 121.472 40.1389C121.973 40.7525 122.885 41.2029 124.08 41.3641ZM124.297 39.7608C123.916 39.7095 123.627 39.5449 123.424 39.2664C123.221 38.9933 123.145 38.6664 123.195 38.2911C123.246 37.9157 123.406 37.6206 123.675 37.4057C123.943 37.1962 124.266 37.1141 124.646 37.1654C125.038 37.2182 125.332 37.3835 125.536 37.6566C125.734 37.929 125.81 38.2559 125.758 38.6366C125.707 39.0174 125.547 39.3125 125.284 39.5227C125.016 39.7322 124.688 39.8136 124.297 39.7608ZM131.759 42.3995C131.995 42.4313 132.246 42.4324 132.511 42.4081C132.771 42.3831 132.997 42.3316 133.175 42.2628L133.436 40.3324C133.259 40.4669 132.905 40.5393 132.6 40.4981C132.305 40.4584 132.064 40.3386 131.884 40.1342C131.704 39.9351 131.635 39.6747 131.678 39.3583L131.939 37.4225L133.73 37.664L133.829 36.9294L132.038 36.6879L132.334 34.4893L129.936 34.7829L129.721 36.3756L128.745 36.244L128.646 36.9786L129.622 37.1102L129.241 39.9361C129.054 41.325 129.893 42.1479 131.759 42.3995Z" fill="#C02B4A"/>
</g>
<defs>
<filter id="filter0_d_698:8910" x="0.0751156" y="0.074139" width="148.742" height="63.2134" filterUnits="userSpaceOnUse" color-interpolation-filters="sRGB">
<feFlood flood-opacity="0" result="BackgroundImageFix"/>
<feColorMatrix in="SourceAlpha" type="matrix" values="0 0 0 0 0 0 0 0 0 0 0 0 0 0 0 0 0 0 127 0" result="hardAlpha"/>
<feOffset dx="1.38517" dy="1.38517"/>
<feGaussianBlur stdDeviation="4.15552"/>
<feComposite in2="hardAlpha" operator="out"/>
<feColorMatrix type="matrix" values="0 0 0 0 0 0 0 0 0 0 0 0 0 0 0 0 0 0 0.15 0"/>
<feBlend mode="normal" in2="BackgroundImageFix" result="effect1_dropShadow_698:8910"/>
<feBlend mode="normal" in="SourceGraphic" in2="effect1_dropShadow_698:8910" result="shape"/>
</filter>
</defs>
</svg>
