<svg width="295" height="295" viewBox="0 0 295 295" fill="none" xmlns="http://www.w3.org/2000/svg">
<circle cx="147.5" cy="147.5" r="145.444" transform="rotate(180 147.5 147.5)" fill="#F4B5C2" stroke="#E63D25" stroke-width="4.1115"/>
<mask id="path-2-inside-1_238:2545" fill="white">
<path d="M40.4103 216.614C26.9417 195.745 19.8642 171.396 20.0476 146.559C20.231 121.722 27.6674 97.4794 41.4426 76.8116L44.0459 78.5466C30.6087 98.7072 23.3549 122.354 23.176 146.582C22.9971 170.809 29.9009 194.561 43.0388 214.918L40.4103 216.614Z"/>
</mask>
<path d="M40.4103 216.614C26.9417 195.745 19.8642 171.396 20.0476 146.559C20.231 121.722 27.6674 97.4794 41.4426 76.8116L44.0459 78.5466C30.6087 98.7072 23.3549 122.354 23.176 146.582C22.9971 170.809 29.9009 194.561 43.0388 214.918L40.4103 216.614Z" fill="#F4B5C2" stroke="#E63D25" stroke-width="4.1115" mask="url(#path-2-inside-1_238:2545)"/>
<mask id="path-3-inside-2_238:2545" fill="white">
<path d="M254.591 216.614C268.059 195.745 275.137 171.396 274.953 146.559C274.77 121.722 267.334 97.4794 253.558 76.8116L250.955 78.5466C264.392 98.7072 271.646 122.354 271.825 146.582C272.004 170.809 265.1 194.561 251.962 214.918L254.591 216.614Z"/>
</mask>
<path d="M254.591 216.614C268.059 195.745 275.137 171.396 274.953 146.559C274.77 121.722 267.334 97.4794 253.558 76.8116L250.955 78.5466C264.392 98.7072 271.646 122.354 271.825 146.582C272.004 170.809 265.1 194.561 251.962 214.918L254.591 216.614Z" fill="#F4B5C2" stroke="#E63D25" stroke-width="4.1115" mask="url(#path-3-inside-2_238:2545)"/>
<path d="M232.455 223.744C233.556 225.018 234.771 226.912 236.099 229.425L237.27 231.64L232.175 235.836C230.972 236.826 229.975 237.566 229.201 238.02L231.093 241.598C231.586 241.049 232.518 240.221 233.894 239.087L238.989 234.891L240.896 238.498L234.449 243.807C233.37 244.695 232.517 245.336 231.907 245.696C231.296 246.057 230.777 246.219 230.34 246.233L234.231 251.507L248.798 239.51C247.68 238.27 246.446 236.373 245.087 233.803L240.778 225.653C239.42 223.083 238.508 220.92 238.034 219.149L232.455 223.744Z" fill="#E63D25"/>
<path d="M204.209 244.261C202.211 246.366 201.292 248.675 201.2 251.092C201.166 252.285 201.347 253.469 201.746 254.606C202.145 255.742 202.72 256.71 203.447 257.487C204.928 259.025 206.902 259.769 209.517 259.368C210.821 259.16 212.192 258.663 213.629 257.877C215.066 257.09 216.287 256.169 217.294 255.112C219.301 252.984 220.2 250.667 220.283 248.274C220.332 247.073 220.151 245.889 219.752 244.753C219.353 243.616 218.783 242.663 218.042 241.894C216.575 240.348 214.595 239.589 211.986 240.005C210.677 240.198 209.306 240.695 207.869 241.481C206.432 242.268 205.21 243.189 204.209 244.261ZM212.604 244.87C213.671 245.28 214.424 246.132 214.877 247.42C215.329 248.708 215.327 249.992 214.845 251.25C214.363 252.507 213.52 253.456 212.309 254.119C211.097 254.782 209.967 254.912 208.899 254.503C207.846 254.086 207.087 253.218 206.635 251.93C206.182 250.642 206.19 249.373 206.658 248.124C207.14 246.866 207.977 245.902 209.189 245.239C210.401 244.576 211.536 244.461 212.604 244.87Z" fill="#E63D25"/>
<path d="M185.453 252.497C186.263 254.154 186.983 256.336 187.605 259.011L189.692 267.99C190.313 270.665 190.64 272.989 190.666 274.93L197.401 272.492C196.627 270.924 195.923 268.737 195.279 265.968L193.193 256.988C192.549 254.219 192.207 251.901 192.188 250.059L185.453 252.497Z" fill="#E63D25"/>
<path d="M171.537 256.565C172.225 258.293 172.781 260.53 173.2 263.244L174.607 272.355C175.027 275.069 175.177 277.403 175.053 279.326L182.017 277.65C181.359 276.014 180.819 273.774 180.385 270.964L178.977 261.854C178.544 259.044 178.378 256.714 178.501 254.89L171.537 256.565Z" fill="#E63D25"/>
<path d="M150.556 259.659C147.988 260.752 146.415 262.479 145.619 264.647C145.236 265.722 145.066 266.878 145.124 268.081C145.181 269.284 145.46 270.406 145.942 271.417C146.938 273.436 148.649 274.935 151.32 275.654C152.654 276.005 154.139 276.12 155.772 275.999C157.406 275.877 158.869 275.543 160.161 274.996C162.744 273.886 164.3 272.145 165.081 269.994C165.48 268.918 165.65 267.762 165.592 266.559C165.535 265.356 165.257 264.249 164.759 263.24C163.778 261.22 162.067 259.705 159.397 259.002C158.062 258.634 156.577 258.519 154.944 258.641C153.31 258.762 151.847 259.097 150.556 259.659ZM158.577 263.7C159.5 264.516 159.986 265.607 160.051 266.971C160.116 268.334 159.738 269.506 158.899 270.453C158.06 271.401 156.96 271.918 155.582 272.02C154.205 272.123 153.063 271.773 152.14 270.956C151.233 270.138 150.746 269.031 150.681 267.668C150.616 266.304 150.995 265.149 151.818 264.202C152.656 263.254 153.756 262.722 155.134 262.619C156.511 262.517 157.654 262.883 158.577 263.7Z" fill="#E63D25"/>
<path d="M127.926 258.161L123.63 267.211L123.266 267.148L121.089 256.978L113.382 255.645C113.297 256.996 112.863 258.727 112.078 260.853L109.711 266.333C109.02 268.198 108.21 269.831 107.294 271.251L114.036 272.417C114.137 271.507 114.412 270.335 114.846 268.897L117.225 263.305C117.479 262.617 117.677 262.147 117.803 261.876L118.136 261.933L120.54 273.542L124.829 274.284L129.676 263.897L129.993 263.952C130.161 264.908 130.264 265.431 130.285 265.532L131.273 271.739C131.43 273.084 131.455 274.308 131.333 275.41L138.138 276.587C137.648 275.331 137.24 273.487 136.884 271.034L135.744 264.882C135.604 263.963 135.533 263.007 135.515 262.011C135.496 261.016 135.541 260.178 135.649 259.497L127.926 258.161Z" fill="#E63D25"/>
<path d="M83.0729 241.314C80.0633 239.621 77.417 239.114 75.1536 239.786C72.9042 240.465 71.2352 242.289 70.1606 245.265L67.8915 251.549C66.9042 254.283 65.9422 256.341 65 257.737L71.3132 261.288C71.5578 259.445 72.1753 257.175 73.1408 254.501L74.8754 249.698C75.4481 248.111 76.2788 247.07 77.3534 246.566C78.4421 246.07 79.6556 246.207 80.9994 246.963C82.3292 247.711 83.1875 248.739 83.5966 250.078C84.0058 251.416 83.931 252.883 83.3583 254.469L81.6237 259.273C80.6091 262.082 79.6751 264.156 78.8023 265.5L85.1015 269.043C85.2721 267.358 85.8701 265.096 86.901 262.241L89.1702 255.957C90.2993 252.83 90.1696 249.831 89.0019 247.375C87.8395 244.904 85.8166 242.857 83.0729 241.314Z" fill="#E63D25"/>
<path d="M60.6707 224.688C58.5853 222.926 56.724 221.971 55.0991 221.833C53.4742 221.695 52.265 222.341 51.4762 223.795C48.5278 229.23 58.8371 234.565 57.5812 236.88C57.1523 237.671 55.8829 237.34 54.2636 235.971C53.2822 235.142 52.3774 234.172 51.5691 233.056C50.7608 231.941 50.1641 230.963 49.7545 230.102L47.5872 234.097C48.9141 236.433 50.5567 238.418 52.5072 240.067C54.5068 241.756 56.2822 242.639 57.8581 242.735C59.4339 242.831 60.5603 242.239 61.2572 240.954C62.7582 238.187 60.9146 235.518 58.8518 233.219C56.8014 230.93 54.5442 229.023 55.2258 227.767C55.7159 226.863 56.9301 227.23 58.8561 228.858C59.7761 229.635 60.7515 230.706 61.7868 232.096C62.8344 233.496 63.6473 234.8 64.238 236.02L66.6044 231.658C66.0108 230.642 65.112 229.429 63.9157 228.007C62.7118 226.598 61.6276 225.497 60.6707 224.688Z" fill="#E63D25"/>
<path d="M58.4343 71.2564C57.3336 69.9822 56.1189 68.0885 54.7903 65.5753L53.6194 63.3604L58.7148 59.1642C59.9174 58.1738 60.9144 57.4342 61.6886 56.9801L59.7971 53.402C59.3041 53.9507 58.372 54.7794 56.9959 55.9127L51.9005 60.1089L49.9939 56.5025L56.4406 51.1934C57.5192 50.3052 58.3724 49.6637 58.9828 49.3036C59.5933 48.9436 60.1124 48.781 60.5499 48.7672L56.6587 43.4936L42.0915 55.4901C43.2095 56.7297 44.444 58.6273 45.8027 61.1973L50.1112 69.3472C51.4698 71.9172 52.3821 74.0803 52.8554 75.8508L58.4343 71.2564Z" fill="#E63D25"/>
<path d="M86.6804 50.739C88.6788 48.6338 89.5976 46.3244 89.6893 43.9077C89.7237 42.7146 89.543 41.5308 89.1437 40.3944C88.7445 39.2579 88.1693 38.29 87.4429 37.5133C85.9619 35.9751 83.9872 35.2311 81.3731 35.6318C80.0688 35.8397 78.698 36.3369 77.261 37.1232C75.8239 37.9096 74.6022 38.831 73.596 39.8875C71.5888 42.0156 70.6893 44.3324 70.6064 46.7263C70.558 47.9271 70.7387 49.1109 71.1379 50.2473C71.5371 51.3838 72.107 52.3365 72.8475 53.1056C74.3144 54.6514 76.2945 55.4106 78.9032 54.9948C80.2129 54.802 81.5836 54.3048 83.0207 53.5185C84.4578 52.7321 85.6794 51.8106 86.6804 50.739ZM78.2859 50.1297C77.2182 49.7203 76.4652 48.8678 76.0127 47.5798C75.5603 46.2918 75.5627 45.0078 76.0448 43.7504C76.527 42.4929 77.3695 41.5441 78.5811 40.8811C79.7928 40.2181 80.9227 40.0875 81.9904 40.4969C83.044 40.914 83.8024 41.7816 84.2548 43.0696C84.7073 44.3576 84.6995 45.6265 84.2315 46.8762C83.7494 48.1336 82.9122 49.0976 81.7005 49.7606C80.4889 50.4236 79.3536 50.539 78.2859 50.1297Z" fill="#E63D25"/>
<path d="M105.437 42.5027C104.626 40.8458 103.906 38.6642 103.285 35.9891L101.198 27.0096C100.577 24.3345 100.249 22.0108 100.224 20.0696L93.4886 22.5075C94.2624 24.076 94.9671 26.2631 95.6105 29.0321L97.6971 38.0116C98.3405 40.7805 98.6828 43.0988 98.7015 44.9406L105.437 42.5027Z" fill="#E63D25"/>
<path d="M119.352 38.4347C118.665 36.7071 118.108 34.4703 117.689 31.7562L116.282 22.6455C115.863 19.9313 115.713 17.5969 115.837 15.6739L108.872 17.3495C109.53 18.9857 110.07 21.2262 110.504 24.0356L111.912 33.1463C112.346 35.9557 112.511 38.2864 112.388 40.1104L119.352 38.4347Z" fill="#E63D25"/>
<path d="M140.333 35.3404C142.901 34.2479 144.474 32.521 145.271 30.3527C145.653 29.2778 145.823 28.1222 145.766 26.919C145.708 25.7158 145.43 24.5935 144.947 23.5829C143.951 21.5641 142.24 20.0653 139.569 19.3463C138.235 18.9947 136.75 18.8797 135.117 19.0012C133.483 19.1227 132.02 19.4569 130.728 20.0037C128.145 21.1135 126.589 22.8552 125.808 25.0062C125.409 26.0823 125.239 27.238 125.297 28.4412C125.354 29.6444 125.632 30.7506 126.13 31.76C127.111 33.78 128.823 35.2948 131.492 35.9979C132.828 36.3654 134.312 36.4804 135.946 36.359C137.579 36.2375 139.042 35.9033 140.333 35.3404ZM132.313 31.3003C131.39 30.4835 130.903 29.3927 130.838 28.0291C130.773 26.6655 131.151 25.4943 131.99 24.5465C132.829 23.5986 133.929 23.0821 135.307 22.9797C136.684 22.8773 137.826 23.227 138.749 24.0438C139.656 24.8619 140.143 25.9687 140.208 27.3323C140.273 28.6959 139.894 29.851 139.071 30.7976C138.233 31.7455 137.133 32.278 135.756 32.3805C134.378 32.4829 133.236 32.1171 132.313 31.3003Z" fill="#E63D25"/>
<path d="M162.963 36.8394L167.259 27.7886L167.623 27.8515L169.8 38.0221L177.507 39.3554C177.592 38.0036 178.027 36.2729 178.811 34.1472L181.178 28.6672C181.869 26.8019 182.679 25.1688 183.595 23.7491L176.853 22.5828C176.752 23.4927 176.477 24.6652 176.043 26.1032L173.664 31.6949C173.41 32.3831 173.213 32.8533 173.086 33.1242L172.753 33.0667L170.349 21.4576L166.06 20.7157L161.213 31.1028L160.897 31.048C160.729 30.0916 160.625 29.5694 160.604 29.4682L159.616 23.2614C159.459 21.9164 159.434 20.6919 159.556 19.5905L152.751 18.4132C153.241 19.6693 153.649 21.5132 154.005 23.9665L155.145 30.1181C155.285 31.0371 155.356 31.993 155.374 32.9886C155.393 33.9842 155.348 34.8225 155.24 35.5034L162.963 36.8394Z" fill="#E63D25"/>
<path d="M207.817 53.6859C210.826 55.3787 213.473 55.8857 215.736 55.2142C217.985 54.5348 219.654 52.7111 220.729 49.7352L222.998 43.4512C223.985 40.717 224.947 38.6592 225.89 37.2627L219.576 33.7118C219.332 35.5552 218.714 37.8249 217.749 40.4987L216.014 45.3023C215.442 46.8884 214.611 47.9296 213.536 48.4338C212.448 48.9301 211.234 48.7928 209.89 48.0369C208.56 47.289 207.702 46.261 207.293 44.9223C206.884 43.5835 206.959 42.1172 207.531 40.531L209.266 35.7274C210.281 32.9177 211.215 30.8441 212.087 29.4995L205.788 25.9565C205.618 27.6416 205.02 29.9041 203.989 32.7591L201.719 39.0431C200.59 42.17 200.72 45.169 201.888 47.625C203.05 50.0962 205.073 52.1427 207.817 53.6859Z" fill="#E63D25"/>
<path d="M230.219 70.3119C232.304 72.0741 234.166 73.0293 235.791 73.167C237.415 73.3047 238.625 72.6588 239.413 71.2047C242.362 65.7696 232.053 60.4348 233.308 58.1196C233.737 57.3291 235.007 57.6605 236.626 59.0288C237.607 59.8581 238.512 60.8285 239.321 61.9439C240.129 63.0592 240.726 64.037 241.135 64.8978L243.302 60.9027C241.976 58.5667 240.333 56.5817 238.382 54.9336C236.383 53.2439 234.607 52.3613 233.032 52.2651C231.456 52.1688 230.329 52.7611 229.632 54.0458C228.131 56.8127 229.975 59.4824 232.038 61.7812C234.088 64.0697 236.345 65.977 235.664 67.2334C235.174 68.1369 233.96 67.7698 232.034 66.1423C231.113 65.3649 230.138 64.2937 229.103 62.9041C228.055 61.5043 227.242 60.1996 226.652 58.9799L224.285 63.3421C224.879 64.3585 225.778 65.5709 226.974 66.9935C228.178 68.4019 229.262 69.5034 230.219 70.3119Z" fill="#E63D25"/>
<path d="M147.616 131.127C138.537 131.127 131.128 138.536 131.128 147.615C131.128 156.694 138.537 164.103 147.616 164.103C156.695 164.103 164.104 156.694 164.104 147.615C164.104 138.536 156.695 131.127 147.616 131.127ZM197.067 147.615C197.067 140.787 197.129 134.022 196.746 127.206C196.362 119.29 194.556 112.264 188.768 106.476C182.967 100.675 175.953 98.8812 168.037 98.4978C161.209 98.1143 154.444 98.1762 147.628 98.1762C140.801 98.1762 134.035 98.1143 127.219 98.4978C119.303 98.8812 112.278 100.687 106.489 106.476C100.688 112.277 98.8943 119.29 98.5108 127.206C98.1274 134.034 98.1892 140.8 98.1892 147.615C98.1892 154.431 98.1274 161.209 98.5108 168.024C98.8943 175.94 100.7 182.966 106.489 188.755C112.29 194.556 119.303 196.349 127.219 196.733C134.047 197.116 140.813 197.054 147.628 197.054C154.456 197.054 161.222 197.116 168.037 196.733C175.953 196.349 182.979 194.543 188.768 188.755C194.569 182.953 196.362 175.94 196.746 168.024C197.141 161.209 197.067 154.443 197.067 147.615ZM147.616 172.984C133.577 172.984 122.247 161.654 122.247 147.615C122.247 133.576 133.577 122.246 147.616 122.246C161.655 122.246 172.985 133.576 172.985 147.615C172.985 161.654 161.655 172.984 147.616 172.984ZM174.024 127.132C170.746 127.132 168.099 124.485 168.099 121.207C168.099 117.93 170.746 115.283 174.024 115.283C177.302 115.283 179.949 117.93 179.949 121.207C179.949 121.986 179.797 122.756 179.5 123.476C179.202 124.195 178.766 124.849 178.215 125.399C177.665 125.949 177.011 126.386 176.292 126.683C175.573 126.98 174.802 127.133 174.024 127.132Z" fill="#E63D25"/>
</svg>
