<svg width="384" height="50" viewBox="0 0 384 50" fill="none" xmlns="http://www.w3.org/2000/svg">
<path d="M0 4C0 1.79086 1.79086 0 4 0H380C382.209 0 384 1.79086 384 4V46C384 48.2091 382.209 50 380 50H4.00001C1.79087 50 0 48.2091 0 46V4Z" fill="#C33D59"/>
<path d="M152.438 31.2266C154.086 31.2266 155.438 30.9688 156.477 30.4375C157.508 29.9062 158.102 29.0234 158.102 27.8672C158.102 26.8984 157.641 26.1719 156.953 25.7891C156.266 25.4141 155.344 25.1406 154.43 25.0469C152.594 24.7969 150.758 24.8125 150.758 23.9297C150.758 23.6719 150.953 23.4844 151.336 23.3516C151.719 23.2188 152.211 23.1562 152.82 23.1562C153.625 23.1562 154.43 23.2734 155.227 23.5C156.023 23.7266 156.656 24.0156 157.125 24.3594V20.3125C156.562 20.1172 155.875 19.9453 155.055 19.7969C154.234 19.6484 153.43 19.5781 152.656 19.5781C151.578 19.5781 150.625 19.7031 149.805 19.9609C148.977 20.2188 148.312 20.6094 147.82 21.1484C147.328 21.6875 147.078 22.3281 147.078 23.0781C147.078 23.9609 147.438 24.6719 148 25.0781C148.562 25.4922 149.312 25.7969 150.125 25.9375C152.125 26.3281 154.375 26.1875 154.375 26.9844C154.375 27.4844 153.672 27.7344 152.273 27.7344C151.312 27.7344 150.352 27.5938 149.398 27.3125C148.438 27.0312 147.641 26.6172 146.992 26.0703L146.852 30.2812C147.609 30.5391 148.531 30.7578 149.617 30.9453C150.703 31.1328 151.641 31.2266 152.438 31.2266ZM163.914 31.2266C164.258 31.2266 164.617 31.1797 164.992 31.0938C165.359 31.0078 165.672 30.8906 165.914 30.7578V27.9453C165.688 28.1719 165.195 28.3438 164.75 28.3438C164.32 28.3438 163.953 28.2188 163.656 27.9609C163.359 27.7109 163.211 27.3516 163.211 26.8906V24.0703H165.82V23H163.211V19.7969L159.836 20.6797V23H158.414V24.0703H159.836V28.1875C159.836 30.2109 161.195 31.2266 163.914 31.2266ZM169.883 31.2266C171.453 31.2266 172.5 30.625 172.938 29.6875H173.117V29.8281C173.117 30.3438 173.031 30.7344 172.859 31H176.938C176.789 30.6016 176.695 30.125 176.641 29.5703C176.586 29.0156 176.555 28.2266 176.555 27.2109V25.8516C176.555 23.7969 174.867 22.7734 171.484 22.7734C170.844 22.7734 170.125 22.8281 169.336 22.9453C168.539 23.0625 167.961 23.1875 167.594 23.3203V25.6094C167.883 25.3516 168.305 25.1406 168.859 24.9766C169.406 24.8125 170 24.7266 170.633 24.7266C171.344 24.7266 171.938 24.8828 172.414 25.2031C172.883 25.5234 173.117 25.9844 173.117 26.6016V27.3047H172.906C172.477 26.3984 171.438 25.7812 169.898 25.7812C168.859 25.7812 168.047 26.0391 167.469 26.5625C166.891 27.0859 166.602 27.7344 166.602 28.5078C166.602 29.0078 166.727 29.4609 166.969 29.8594C167.453 30.6719 168.5 31.2266 169.883 31.2266ZM171.531 29.4297C170.594 29.4297 170.008 29.0078 170.008 28.4375C170.008 27.8438 170.586 27.4453 171.531 27.4453C171.992 27.4453 172.367 27.5391 172.648 27.7344C172.93 27.9297 173.07 28.1641 173.07 28.4375C173.07 29.0391 172.477 29.4297 171.531 29.4297ZM182.617 31C182.383 30.3984 182.266 29.5938 182.266 28.5859V27.8672C182.266 27.2031 182.508 26.6562 182.984 26.2188C183.461 25.7812 184.031 25.5625 184.688 25.5625C185.445 25.5625 186.211 25.8828 186.617 26.3125V23.0156C186.25 22.8516 185.828 22.7734 185.344 22.7734C183.812 22.7734 182.766 23.8203 182.461 25.6719H182.266V25.1953C182.266 24.8125 182.312 24.4141 182.414 24C182.508 23.5859 182.648 23.2578 182.828 23H178.25C178.492 24.0703 178.617 25.25 178.617 26.5391V27.8672C178.617 28.5078 178.586 29.0469 178.531 29.4844C178.477 29.9297 178.383 30.4297 178.25 31H182.617ZM192.617 31.2266C192.961 31.2266 193.32 31.1797 193.695 31.0938C194.062 31.0078 194.375 30.8906 194.617 30.7578V27.9453C194.391 28.1719 193.898 28.3438 193.453 28.3438C193.023 28.3438 192.656 28.2188 192.359 27.9609C192.062 27.7109 191.914 27.3516 191.914 26.8906V24.0703H194.523V23H191.914V19.7969L188.539 20.6797V23H187.117V24.0703H188.539V28.1875C188.539 30.2109 189.898 31.2266 192.617 31.2266ZM207 31C206.758 29.9297 206.633 28.5781 206.633 26.9531V23.4766H208.023C208.852 23.4766 209.57 23.6562 210.188 24.0078L209.578 19.7969H199.945L199.336 24.0078C199.938 23.6562 200.656 23.4766 201.492 23.4766H202.984V26.9531C202.984 28.5781 202.859 29.9297 202.617 31H207ZM214.906 31.2266C215.695 31.2266 216.492 31.1562 217.289 31.0234C218.086 30.8828 218.695 30.7031 219.125 30.4844L219.062 27.8516C218.766 28.1797 218.32 28.4375 217.727 28.625C217.133 28.8125 216.508 28.9062 215.859 28.9062C215.016 28.9062 214.281 28.7188 213.656 28.3516C213.023 27.9844 212.68 27.5547 212.617 27.0625L212.742 26.9844C213.594 27.6328 214.648 27.8516 216.023 27.8516C218.109 27.8516 219.305 27.1172 219.305 25.6406C219.305 25.0391 219.117 24.5 218.656 24C218 23.2812 216.695 22.7812 214.664 22.7734C212.984 22.7734 211.602 23.25 210.758 24.0234C209.906 24.8047 209.445 25.8359 209.445 27C209.445 28.2656 209.938 29.2891 210.93 30.0625C211.922 30.8359 213.242 31.2266 214.906 31.2266ZM214.633 26.9375C213.797 26.9375 213.164 26.7344 212.727 26.3281C212.797 25.8828 213 25.5469 213.32 25.3125C213.641 25.0859 214.016 24.9688 214.438 24.9688C215.383 24.9688 215.977 25.375 215.977 26.0078C215.977 26.2812 215.844 26.5 215.578 26.6719C215.312 26.8516 215 26.9375 214.633 26.9375ZM224.539 31.2266C226.039 31.2266 227.195 31 228.016 30.5391C228.836 30.0781 229.242 29.4375 229.242 28.6016C229.25 27.3828 228.133 26.8594 226.891 26.6484C225.211 26.3359 223.258 26.4844 223.258 25.9297C223.258 25.6094 223.828 25.3828 224.773 25.3828C225.438 25.3828 226.102 25.4688 226.758 25.6484C227.414 25.8281 227.953 26.0234 228.375 26.2344L228.391 23.4922C227.172 23.0156 225.875 22.7734 224.5 22.7734C223.07 22.7734 221.977 23 221.219 23.4531C220.453 23.9141 220.07 24.5078 220.07 25.2422C220.07 28.2578 226.039 26.9062 226.039 28.0078C226.039 28.3594 225.414 28.5547 224.312 28.5547C223.727 28.5547 223.016 28.4531 222.188 28.2578C221.352 28.0625 220.633 27.8203 220.023 27.5469V30.5547C220.547 30.7266 221.273 30.8828 222.211 31.0234C223.141 31.1562 223.922 31.2266 224.539 31.2266ZM235.195 31.2266C235.539 31.2266 235.898 31.1797 236.273 31.0938C236.641 31.0078 236.953 30.8906 237.195 30.7578V27.9453C236.969 28.1719 236.477 28.3438 236.031 28.3438C235.602 28.3438 235.234 28.2188 234.938 27.9609C234.641 27.7109 234.492 27.3516 234.492 26.8906V24.0703H237.102V23H234.492V19.7969L231.117 20.6797V23H229.695V24.0703H231.117V28.1875C231.117 30.2109 232.477 31.2266 235.195 31.2266Z" fill="#FCFAF7"/>
<path d="M4 1H380V-1H4V1ZM383 4V46H385V4H383ZM380 49H4.00001V51H380V49ZM1 46V4H-1V46H1ZM4.00001 49C2.34315 49 1 47.6569 1 46H-1C-1 48.7614 1.23859 51 4.00001 51V49ZM383 46C383 47.6569 381.657 49 380 49V51C382.761 51 385 48.7614 385 46H383ZM380 1C381.657 1 383 2.34315 383 4H385C385 1.23857 382.761 -1 380 -1V1ZM4 -1C1.23858 -1 -1 1.23858 -1 4H1C1 2.34315 2.34315 1 4 1V-1Z" fill="#F9F8F5"/>
</svg>
