<svg width="175" height="175" viewBox="0 0 175 175" fill="none" xmlns="http://www.w3.org/2000/svg">
<path d="M44.7266 42.3889L79.1118 26.0154L116.554 32.9801L142.752 60.6226L147.698 98.3846L129.504 131.842L95.1192 148.216L57.6768 141.251L31.4791 113.608L26.5325 75.8465L44.7266 42.3889Z" fill="#FFD746"/>
<path d="M30.7241 76.6262L47.6594 45.4835L79.6655 30.2428L114.517 36.7256L138.902 62.4556L143.507 97.6049L126.571 128.748L94.5653 143.988L59.7136 137.505L35.3284 111.775L30.7241 76.6262Z" stroke="black" stroke-width="0.688515"/>
<circle cx="87.2775" cy="87.1197" r="28.5734" transform="rotate(-43.4629 87.2775 87.1197)" stroke="black" stroke-width="0.688515"/>
<path d="M60.0253 119.986C59.9848 119.924 59.9646 119.852 59.9676 119.778C59.9707 119.705 59.9968 119.635 60.0422 119.577C60.0877 119.52 60.1501 119.478 60.2208 119.458C60.2914 119.438 60.3666 119.441 60.4356 119.467L62.7864 120.347C62.8533 120.372 62.926 120.376 62.9949 120.358C63.0637 120.34 63.1253 120.301 63.1715 120.247L64.7281 118.29C64.7737 118.232 64.8365 118.19 64.9077 118.17C64.9789 118.15 65.0546 118.153 65.1241 118.179C65.1935 118.205 65.253 118.252 65.2939 118.314C65.3349 118.376 65.3552 118.449 65.3519 118.523L65.2507 121.029C65.2482 121.102 65.2687 121.174 65.3092 121.235C65.3498 121.296 65.4085 121.343 65.4769 121.369L67.8276 122.254C67.8958 122.281 67.9542 122.328 67.9944 122.389C68.0346 122.45 68.0547 122.522 68.0518 122.595C68.049 122.668 68.0232 122.738 67.9783 122.796C67.9334 122.853 67.8715 122.895 67.8014 122.915L65.3878 123.583C65.3171 123.603 65.2545 123.644 65.2087 123.701C65.163 123.758 65.1365 123.829 65.1331 123.902L65.0318 126.408C65.0287 126.481 65.0025 126.552 64.9568 126.609C64.9111 126.667 64.8483 126.708 64.7775 126.728C64.7066 126.747 64.6312 126.744 64.5622 126.718C64.4931 126.692 64.4339 126.645 64.393 126.584L63.0028 124.489C62.9608 124.433 62.9029 124.39 62.8365 124.367C62.7701 124.344 62.6984 124.342 62.6308 124.36L60.2147 125.026C60.1439 125.045 60.0688 125.041 60.0001 125.015C59.9314 124.989 59.8726 124.942 59.832 124.88C59.7914 124.819 59.7711 124.747 59.774 124.673C59.7769 124.6 59.8029 124.529 59.8482 124.472L61.4048 122.515C61.4501 122.457 61.476 122.386 61.4787 122.313C61.4814 122.239 61.4608 122.166 61.4198 122.105L60.0253 119.986Z" fill="#F05127"/>
<path d="M121.539 60.422C121.498 60.3605 121.478 60.2879 121.481 60.2143C121.484 60.1408 121.511 60.0702 121.556 60.0124C121.602 59.9547 121.665 59.9129 121.736 59.8929C121.806 59.8729 121.882 59.8758 121.951 59.9011L124.305 60.7783C124.372 60.8029 124.445 60.8064 124.514 60.7883C124.583 60.7703 124.645 60.7315 124.691 60.6773L126.256 58.7126C126.302 58.6542 126.365 58.6119 126.436 58.5917C126.508 58.5716 126.584 58.5746 126.653 58.6005C126.723 58.6263 126.782 58.6735 126.823 58.7354C126.864 58.7973 126.884 58.8705 126.881 58.9446L126.774 61.4557C126.771 61.5289 126.791 61.6011 126.832 61.6622C126.873 61.7232 126.931 61.7699 127 61.7958L129.356 62.6756C129.426 62.7016 129.485 62.7488 129.526 62.8105C129.566 62.8722 129.586 62.9452 129.583 63.019C129.58 63.0928 129.553 63.1637 129.507 63.2214C129.461 63.2792 129.398 63.3208 129.326 63.3404L126.906 64.0153C126.835 64.0349 126.772 64.0764 126.726 64.1338C126.68 64.1912 126.653 64.2616 126.65 64.335L126.543 66.8461C126.539 66.9199 126.513 66.9907 126.467 67.0484C126.421 67.1061 126.358 67.1479 126.287 67.1677C126.216 67.1875 126.14 67.1842 126.071 67.1585C126.002 67.1328 125.943 67.0859 125.902 67.0244L124.513 64.9285C124.471 64.872 124.413 64.8296 124.347 64.8066C124.28 64.7836 124.208 64.7812 124.14 64.7997L121.717 65.4721C121.646 65.4913 121.571 65.4876 121.502 65.4617C121.433 65.4357 121.374 65.3886 121.334 65.3273C121.293 65.2659 121.273 65.1933 121.276 65.1198C121.279 65.0463 121.306 64.9756 121.351 64.9179L122.916 62.9531C122.961 62.8951 122.987 62.8242 122.99 62.7505C122.993 62.6769 122.973 62.6041 122.932 62.5428L121.539 60.422Z" fill="#F05127"/>
<path d="M56.0786 102.787C55.3182 103.436 54.1022 104.162 52.4218 104.968L46.8293 107.651L45.878 105.669C45.4684 104.815 45.2744 104 45.2827 103.22L41.7461 105.606L46.8824 116.31L50.9608 115.054C50.3382 114.554 49.8198 113.884 49.4145 113.039L48.4291 110.985L54.0216 108.302C55.6219 107.534 56.9446 107.031 57.9983 106.788L56.0786 102.787Z" fill="black"/>
<path d="M53.5583 92.3246C53.2162 92.4702 52.6959 92.5804 51.9873 92.6552C51.2886 92.7298 50.6287 92.774 50.0175 92.7875L48.5193 92.8403C47.7799 92.8566 47.1233 92.6048 46.5594 92.0846C45.9958 91.5742 45.7049 90.9099 45.6873 90.1113C45.6531 88.5634 46.6385 87.6243 48.2652 87.5884L49.8526 87.5533C51.1145 87.5255 52.3202 87.6271 53.4596 87.8584L53.3625 83.4612C52.3128 83.7211 51.0042 83.8684 49.4169 83.9034L47.5535 83.9446C46.1239 83.9761 45.0185 84.3951 44.2275 85.2017C43.4365 86.0083 43.0571 87.1411 43.0891 88.5904C43.1341 90.6313 44.1109 91.9808 46.0096 92.6491L46.0146 92.8758L43.6682 92.9277C41.8837 92.9671 40.471 92.87 39.4203 92.6368L39.5178 97.0537C40.5081 96.7852 41.9154 96.6358 43.7492 96.5953L49.4083 96.4703C51.2421 96.4298 52.6546 96.517 53.6558 96.7415L53.5583 92.3246Z" fill="black"/>
<path d="M56.7341 75.0006C57.0913 74.1345 57.3702 73.2255 57.5654 72.2606C57.7606 71.2957 57.8292 70.5346 57.7565 69.9606L55.1995 68.9701C55.4251 69.4579 55.5025 70.0978 55.4318 70.89C55.3703 71.686 55.1751 72.4696 54.8593 73.2354C54.031 75.3473 52.044 76.7253 50.5483 76.1618L50.5318 75.995C51.6253 75.2832 52.5132 74.1133 53.1861 72.4814C54.2727 69.8467 54.0124 68.1499 52.2164 67.4092C51.3321 67.0445 50.3735 67.1186 49.4136 67.6614C48.4499 68.2134 47.4789 69.4557 46.742 71.2426C45.9901 73.0659 45.9054 74.8231 46.3966 76.1671C46.8877 77.511 47.8876 78.5527 49.2642 79.1204C50.732 79.7257 52.1465 79.6584 53.5206 78.913C54.8947 78.1676 55.9634 76.8695 56.7341 75.0006ZM51.4768 73.2379C51.0068 74.3774 50.3885 75.1785 49.6233 75.663C49.0758 75.3092 48.7312 74.8257 48.5931 74.2034C48.4642 73.5849 48.5294 72.9611 48.7888 72.332C49.0708 71.6483 49.424 71.1539 49.856 70.8307C50.2971 70.5112 50.7209 70.4407 51.1311 70.6099C51.9608 70.952 51.9091 72.1894 51.4768 73.2379Z" fill="black"/>
<path d="M69.2456 59.3626L66.8336 50.306L67.0131 50.2027L73.622 56.8446L77.9472 54.356C77.335 53.3316 76.739 51.9793 76.1726 50.3028L74.7617 44.7659C74.1814 42.9268 73.8236 41.4943 73.6983 40.4855L69.8433 42.7036C70.1125 43.1517 70.4893 44.0043 70.9616 45.2799L72.1484 49.9331C72.4421 50.7994 72.6985 51.4824 72.9092 51.987L72.7126 52.1001L65.6464 45.1183L63.1419 46.5593L65.5924 56.1968L65.4129 56.3001C65.0973 55.89 64.6308 55.3165 64.0097 54.593L60.5933 51.2455C59.8445 50.3793 59.2882 49.6299 58.9194 48.9888L55.0729 51.2019C56.0009 51.8854 57.0546 52.9061 58.239 54.2725L62.318 58.2969C63.5048 59.6279 64.378 60.8094 64.929 61.8462L69.2456 59.3626Z" fill="black"/>
<path d="M86.4716 53.6131C88.4727 53.5582 89.7917 52.7328 90.2716 51.5259L90.4885 51.52L90.4933 51.6974C90.5115 52.3579 90.4365 52.8631 90.259 53.2231L94.3894 53.1097C94.2203 52.7 94.0981 52.2002 94.0328 51.62C93.9577 51.04 93.9049 50.193 93.8748 49.0988L93.8069 46.6245C93.7742 45.4317 93.2652 44.4986 92.52 43.9469C92.1474 43.671 91.6976 43.4564 91.17 43.2835C90.1153 42.9573 89.0572 42.8679 87.7856 42.9029C87.0364 42.9234 86.2006 43.0253 85.2879 43.1983C84.3656 43.3815 83.6799 43.5582 83.231 43.7382L83.296 46.1041C83.614 45.829 84.13 45.578 84.8343 45.3614C85.5387 45.1448 86.2851 45.0256 87.0639 45.0042C88.0497 44.9772 88.844 45.1625 89.4468 45.5603C90.0401 45.9683 90.3529 46.5812 90.3759 47.4191L90.4075 48.5725L90.1512 48.5795C89.8792 48.0148 89.4128 47.5541 88.7423 47.2074C88.0718 46.8608 87.2583 46.6957 86.2824 46.7225C84.9713 46.7585 83.955 47.112 83.2333 47.773C82.5115 48.4341 82.1695 49.2721 82.1969 50.2678C82.2242 51.2634 82.6117 52.0815 83.3689 52.7118C84.1263 53.352 85.1605 53.6491 86.4716 53.6131ZM88.0043 51.5882C86.5552 51.6279 85.6704 51.0208 85.6455 50.1139C85.6209 49.2169 86.4716 48.5819 87.9207 48.5421C88.6403 48.5223 89.2358 48.654 89.6977 48.9471C90.1595 49.2402 90.396 49.5889 90.4068 49.9832C90.4328 50.9296 89.5125 51.5467 88.0043 51.5882Z" fill="black"/>
<path d="M101.986 43.7585C102.584 43.9249 103.095 43.8928 103.539 43.658C103.98 43.4327 104.265 43.0717 104.405 42.5682C104.545 42.0646 104.49 41.599 104.231 41.1687C103.972 40.7384 103.551 40.4475 102.953 40.2811C102.373 40.12 101.863 40.1521 101.419 40.3869C100.975 40.6217 100.678 40.9895 100.538 41.4931C100.401 41.9872 100.467 42.4459 100.727 42.8762C100.986 43.3065 101.406 43.5974 101.986 43.7585ZM101.145 55.142C101.162 54.1232 101.416 52.7302 101.91 50.9535L102.927 47.2955C103.157 46.4689 103.386 45.8265 103.612 45.3467C103.112 45.525 102.455 45.4959 101.628 45.2661C100.802 45.0363 100.195 44.7141 99.8019 44.2875C99.7765 44.7103 99.6391 45.3886 99.3829 46.3102L98.3659 49.9682C97.872 51.7449 97.3708 53.0693 96.8596 53.9507L101.145 55.142Z" fill="black"/>
<path d="M108.933 59.2536C109.678 59.6788 110.626 59.9473 111.271 59.9517L112.688 57.4678C112.273 57.5377 111.627 57.3963 111.071 57.0786C109.949 56.4384 109.614 55.4527 110.303 54.245L112.185 50.9473L115.285 52.7165L116.058 51.3631L112.957 49.594L114.961 46.0822L111.534 45.1829L109.985 47.8982L108.22 46.8914L107.448 48.2448L109.213 49.2515L106.701 53.6541C105.288 56.1295 106.663 57.9585 108.933 59.2536Z" fill="black"/>
<path d="M81.3612 125.251C81.9792 125.188 82.4427 124.971 82.7703 124.591C83.0988 124.22 83.2319 123.78 83.1783 123.26C83.1247 122.74 82.9036 122.326 82.5052 122.02C82.1068 121.715 81.609 121.597 80.991 121.661C80.3926 121.723 79.9291 121.939 79.6016 122.32C79.274 122.701 79.1322 123.151 79.1858 123.671C79.2384 124.181 79.4683 124.584 79.8666 124.89C80.265 125.196 80.7629 125.313 81.3612 125.251ZM84.7362 136.156C84.38 135.201 84.1078 133.811 83.9187 131.977L83.5292 128.2C83.4412 127.347 83.4204 126.665 83.4551 126.136C83.0548 126.484 82.4324 126.697 81.5789 126.785C80.7255 126.873 80.0433 126.795 79.5214 126.542C79.6522 126.944 79.7721 127.626 79.8702 128.578L80.2597 132.354C80.4489 134.189 80.466 135.605 80.3121 136.612L84.7362 136.156Z" fill="black"/>
<path d="M93.2643 134.681C94.876 134.22 96.0556 133.574 96.7934 132.748C97.5312 131.921 97.7665 131.023 97.4869 130.046C96.442 126.396 89.8903 129.954 89.4452 128.399C89.2933 127.868 89.9635 127.307 91.215 126.949C91.9734 126.732 92.759 126.609 93.565 126.594C94.371 126.579 95.0307 126.626 95.5631 126.73L94.795 124.047C93.2602 123.881 91.7404 124.019 90.233 124.45C88.6876 124.893 87.5744 125.519 86.8745 126.335C86.1746 127.151 85.9515 127.984 86.1985 128.847C86.7305 130.705 88.6215 130.717 90.4487 130.471C92.2664 130.228 94.0109 129.728 94.2524 130.572C94.4261 131.179 93.764 131.697 92.2755 132.123C91.5645 132.326 90.7071 132.449 89.6911 132.483C88.6657 132.52 87.7785 132.467 87.0198 132.325L87.8584 135.254C88.5331 135.318 89.4176 135.29 90.5148 135.181C91.6092 135.063 92.5248 134.893 93.2643 134.681Z" fill="black"/>
<path d="M119.023 125.508C120.602 124.138 121.563 122.417 121.783 120.608C122.002 118.799 121.367 116.803 119.849 115.053C118.343 113.317 116.451 112.4 114.629 112.362C112.813 112.331 110.967 113.032 109.388 114.402C107.816 115.765 106.862 117.494 106.643 119.289C106.424 121.098 107.065 123.101 108.571 124.837C111.659 128.411 115.909 128.223 119.023 125.508ZM117.104 123.296C116.307 123.987 115.386 124.251 114.349 124.093C113.312 123.936 112.346 123.35 111.461 122.329C110.576 121.309 110.132 120.271 110.123 119.222C110.113 118.172 110.51 117.306 111.307 116.614C112.112 115.916 113.033 115.639 114.078 115.79C115.116 115.948 116.081 116.533 116.966 117.554C117.851 118.574 118.295 119.612 118.304 120.662C118.306 121.717 117.908 122.598 117.104 123.296Z" fill="black"/>
<path d="M131.349 108.525C130.72 108.081 129.988 107.33 129.139 106.276L126.865 102.882C126.01 101.729 125.385 100.73 124.976 99.8874L122.63 103.396C123.31 103.958 123.832 104.508 124.201 105.039L126.579 108.42C126.915 108.858 127.267 109.272 127.627 109.655L127.501 109.844C127.209 109.731 126.692 109.564 125.959 109.347L121.915 108.458C121.158 108.26 120.455 107.98 119.813 107.61L117.478 111.103C118.356 111.156 119.516 111.374 120.94 111.745L124.957 112.532C126.212 112.872 127.18 113.27 127.869 113.731L131.349 108.525Z" fill="black"/>
<path d="M136.148 96.2929C136.467 95.412 136.706 94.4916 136.859 93.5192C137.012 92.5467 137.047 91.7833 136.95 91.213L134.352 90.3352C134.598 90.8126 134.704 91.4486 134.668 92.2431C134.641 93.041 134.48 93.8324 134.198 94.6113C133.463 96.7573 131.538 98.2209 130.019 97.7233L129.995 97.5573C131.057 96.7985 131.893 95.5908 132.494 93.9311C133.464 91.2514 133.13 89.5676 131.303 88.9062C130.404 88.5805 129.449 88.6963 128.514 89.2806C127.575 89.8742 126.66 91.1577 126.002 92.9751C125.33 94.8296 125.322 96.5888 125.872 97.91C126.421 99.2312 127.465 100.228 128.866 100.735C130.358 101.276 131.769 101.147 133.109 100.342C134.449 99.5372 135.46 98.1937 136.148 96.2929ZM130.819 94.7616C130.399 95.9206 129.817 96.7479 129.073 97.2654C128.511 96.9358 128.145 96.4679 127.98 95.8522C127.824 95.2399 127.862 94.6139 128.094 93.9741C128.346 93.2786 128.677 92.7693 129.095 92.4275C129.521 92.0891 129.942 92.0001 130.359 92.1512C131.203 92.4567 131.205 93.6952 130.819 94.7616Z" fill="black"/>
<path d="M138.5 82.5281C137.833 82.7039 136.926 82.721 135.791 82.5807L134.186 82.3822C133.286 82.2709 132.562 81.8535 132.024 81.1411C131.486 80.4287 131.266 79.6364 131.373 78.7751C131.425 78.3543 131.555 77.9431 131.752 77.56C131.948 77.1769 132.173 76.8867 132.406 76.687L129.098 76.278C128.849 76.7639 128.687 77.2705 128.622 77.799C128.393 79.6487 129.512 81.1285 131.689 81.8449L131.661 82.07L130.917 81.978C130.487 81.9247 130.042 81.8201 129.576 81.6532C129.12 81.4874 128.765 81.3044 128.501 81.103L127.939 85.6539C128.994 85.5559 130.252 85.5921 131.71 85.7725L134.636 86.1343C135.869 86.2868 136.98 86.5434 137.961 86.8931L138.5 82.5281Z" fill="black"/>
<path d="M93.0726 75.8626L90.8522 73.5197L78.1286 78.2172L72.6342 90.7854L78.7978 97.289L91.566 92.3958L97.0158 80.0232L102.069 85.3553L96.6194 97.7278L83.8512 102.621L85.1987 99.3504" stroke="black" stroke-width="0.939569"/>
<path d="M96.6113 97.5901L82.9824 83.2096" stroke="black" stroke-width="0.939569"/>
<path d="M77.5371 88.5159L88.3225 78.2943" stroke="black" stroke-width="0.939569"/>
<circle r="0.566997" transform="matrix(-0.72582 0.687884 0.687884 0.72582 94.2109 77.0439)" fill="black"/>
</svg>
