<svg width="179" height="191" viewBox="0 0 179 191" fill="none" xmlns="http://www.w3.org/2000/svg">
<path d="M100.998 44.4348C101.826 43.923 103.106 43.1117 104.651 42.0881C109.609 38.776 111.246 37.1797 115.767 34.1007C120.378 30.9607 122.716 29.3979 124.312 29.636C127.349 30.0881 128.96 33.1228 132.307 32.5999C133.578 32.4017 133.64 31.9155 134.8 31.8423C136.002 31.7606 137.559 32.1731 141.403 36.0175C143.043 37.6594 146.164 40.9955 148.846 46.0154C150.109 48.3813 150.33 49.3586 150.182 50.3681C149.881 52.3711 148.291 53.1857 148.532 55.0515C148.674 56.1869 149.323 56.3821 149.75 57.5105C150.607 59.7616 149.261 62.2594 148.526 63.5972C146.649 66.9854 144.348 68.2162 138.15 72.8944C133.124 76.6904 130.381 79.0909 129.616 79.7668C126.117 82.8534 124.282 84.4994 122.333 87.2669C121.494 88.4571 120.396 90.5451 118.192 94.7243C117.8 95.4685 116.698 97.5677 114.438 102.059C110.408 110.074 110.933 109.312 110.25 110.442C106.977 115.861 104.174 117.895 104.992 119.67C105.525 120.829 107.223 121.057 108.045 121.213C116.551 122.765 127.344 133.285 126.407 140.633C125.927 144.374 122.521 146.757 121.835 147.242C118.845 149.351 115.662 149.331 111.394 149.251C109.8 149.217 105.853 149.059 98.7138 147.204C96.6558 146.67 91.2199 145.188 84.1312 142.192C81.9556 141.274 78.4775 139.583 71.5134 136.204C66.6338 133.837 65.2418 133.105 62.1313 131.716C55.9495 128.956 54.9129 128.922 52.6269 127.795C43.7148 123.409 39.5652 114.179 37.9715 110.626C36.2578 106.807 33.9894 100.179 34.4597 91.9098C34.5716 89.9994 35.0535 83.9937 38.209 77.141C39.1774 75.0325 40.1707 73.3413 40.948 72.1256C40.0477 71.1567 38.8613 69.6561 37.9582 67.5961C36.0089 63.1545 36.6838 59.0996 37.3034 55.3699C37.9582 51.4118 38.5778 47.6821 41.5641 44.502C43.1809 42.7792 44.8358 41.919 47.0802 40.744C50.8117 38.7972 54.2028 37.8983 56.5454 37.4401C56.684 36.4993 57.1421 34.3706 58.8449 32.4075C60.7212 30.2468 62.9996 29.5782 64.1064 29.2666C64.1064 29.2666 66.9586 28.4803 70.4298 29.2493C78.5359 31.0376 84.6912 42.408 85.0225 43.0371C86.615 42.6305 88.6578 42.2783 91.036 42.2747C95.4294 42.2883 98.9025 43.498 100.998 44.4348Z" fill="#B6E8F3"/>
<path d="M102.02 50.6146C104.978 49.0449 108.148 47.1878 111.434 44.9983C114.124 43.2059 116.576 41.4008 118.783 39.6461C121.744 37.2762 123.144 35.8711 125.297 35.9056C127.155 35.9369 128.641 37.0294 129.561 37.888C134.279 44.1945 138.998 50.501 143.719 56.8018C143.86 57.4312 143.979 58.4322 143.687 59.5855C143.005 62.3046 140.601 63.5647 140.17 63.781C134.248 68.4746 128.329 73.1626 122.407 77.8563C121.573 78.8121 120.414 80.1724 119.085 81.8499C117.813 83.4524 116.031 85.7043 114.575 88.0387C113.046 90.4872 112.497 92.0401 110.923 95.8091C107.873 103.106 106.341 106.755 104.246 110.099C102.887 112.263 101.035 115.208 97.7215 118.194C92.2924 123.078 86.7112 125.467 83.2798 126.448C79.6857 127.473 75.1561 128.043 69.6056 127.158C66.8467 126.716 64.7331 125.903 61.3815 124.605C57.6797 123.17 55.3473 122.267 52.7305 120.255C49.8655 118.048 48.256 115.743 46.9398 113.841C45.7123 112.074 43.5395 108.604 42.0593 103.725C40.2347 97.7118 40.4714 94.2064 40.5114 92.5816C40.6171 88.3312 41.4886 85.0731 41.9608 83.5149C43.5255 78.3696 46.0451 74.5702 47.9919 72.1431C46.9592 71.2246 45.4556 69.6653 44.2654 67.3622C41.7436 62.494 42.4497 57.8545 42.6949 56.544C43.0538 54.6239 44.0409 51.1969 46.9482 48.1287C47.6255 47.4101 50.1267 44.8966 54.3377 43.6335C58.2152 42.4625 61.4987 42.9703 63.0224 43.3034C63.0016 42.8287 62.9562 42.1271 62.8537 41.2773C62.5934 39.1871 62.0699 38.61 62.4392 37.8103C63.0935 36.3995 64.4543 35.5361 64.9199 35.3146C65.125 35.2154 66.8194 34.4503 68.7684 35.0575C69.9266 35.4171 70.5765 36.0858 71.3488 36.7918C75.4336 40.5452 77.0046 40.1429 78.554 42.8963C79.0594 43.7877 79.7093 44.9815 79.4343 46.4438C79.1138 48.1434 77.7464 49.1025 77.3967 49.3456C75.2286 50.8607 72.6901 50.1548 72.3036 50.0413C73.0099 51.2256 73.4608 52.2652 73.7719 52.991C74.9532 55.8092 75.3573 56.6916 75.8574 57.6595C76.0163 57.9746 75.4675 59.639 75.2226 60.9168C75.1401 61.3555 76.0009 61.5925 76.2481 61.248C76.8261 60.4359 77.1519 60.4259 77.6523 60.1202C80.8123 58.174 85.8386 60.0114 86.4827 57.6705C86.6644 57.0233 86.1288 56.2048 85.6704 55.438C85.0782 54.4386 84.7296 54.472 84.4425 53.8152C83.7055 52.1323 85.1539 50.038 85.3119 49.8143C85.3119 49.8143 86.1314 47.3029 87.9421 47.7676C91.2838 48.6276 97.1023 50.1681 102.02 50.6146Z" fill="#B6E8F3" stroke="#0A2A2B" stroke-width="1.82081" stroke-miterlimit="10"/>
<path d="M80.096 88.7304C79.9388 90.2413 79.5345 92.5103 78.3961 95.0149C76.0605 100.151 70.7846 105.873 63.7405 106.571C60.4006 106.9 57.712 106.001 56.7499 105.643C55.4017 105.14 52.5059 104.01 50.3815 101.171C48.5104 98.6721 48.2131 96.1464 47.7212 91.9121C47.4084 89.2487 47.1784 87.276 47.6611 84.7373C48.4053 80.8489 50.3858 77.9105 52.1223 75.9613C52.4543 76.6366 52.9703 77.598 53.7536 78.6434C54.9835 80.2933 56.7545 82.0482 62.0306 84.8553C67.086 87.5451 69.6165 88.8911 72.9546 89.2507C75.9549 89.5693 78.4708 89.1366 80.096 88.7304Z" stroke="#0A2A2B" stroke-width="1.82081" stroke-miterlimit="10"/>
<path d="M72.7647 89.5992C70.5046 94.8384 68.2468 100.072 65.9867 105.311" stroke="#0A2A2B" stroke-width="1.82081" stroke-miterlimit="10"/>
<path d="M63.3734 86.184C60.5093 92.1392 57.642 98.0865 54.7779 104.042" stroke="#0A2A2B" stroke-width="1.82081" stroke-miterlimit="10"/>
<path d="M56.5545 81.6109C53.9594 86.2458 51.3587 90.8783 48.7636 95.5132" stroke="#0A2A2B" stroke-width="1.82081" stroke-miterlimit="10"/>
<path d="M102.153 50.8335C102.496 51.2903 103.253 52.4166 103.328 54.0168C103.352 54.5322 103.388 55.5582 102.819 56.571C101.903 58.2022 100.074 58.6559 99.3691 58.8376C98.1904 59.1326 97.1733 59.0675 94.2125 58.4303C90.2924 57.5877 88.8226 57.1717 88.284 56.9495C87.2259 56.5063 86.3923 56.0442 85.8257 55.6989" stroke="#0A2A2B" stroke-width="1.82081" stroke-miterlimit="10"/>
<path d="M72.8681 50.169C69.3471 47.9613 65.9446 45.3232 62.7779 42.1454C62.6163 41.9803 62.4546 41.8151 62.293 41.6499" stroke="#0A2A2B" stroke-width="1.82081" stroke-miterlimit="10"/>
<path d="M75.4797 61.7909C74.4536 64.2302 73.2746 66.7377 71.9137 69.2883C71.3845 70.2846 71.283 70.4988 71.1158 70.745C68.6072 74.4701 63.8504 75.2257 62.8038 75.3914C59.7633 75.8703 57.4492 75.2569 53.6639 74.2467C50.9834 73.5348 48.8253 72.6706 47.3313 71.9951" stroke="#0A2A2B" stroke-width="1.82081" stroke-miterlimit="10"/>
<path d="M72.029 69.9465C71.9637 70.7731 71.9163 71.9223 71.9907 73.2858C72.0767 74.9233 72.1875 76.9781 73.1065 79.4451C74.1471 82.2381 75.6496 84.007 75.967 84.3677C76.7151 85.2279 77.4175 85.8329 78.3522 86.6387C79.7538 87.8407 80.4763 88.4605 81.5343 89.0152C83.1349 89.8463 84.5319 90.009 86.0775 90.1937C88.814 90.5151 90.9043 90.1432 91.3233 90.0666C93.8237 89.6078 95.5638 88.6843 96.6249 88.1175C98.1157 87.321 99.5612 86.5386 100.949 84.9576C102.208 83.5138 102.765 82.1481 103.478 80.3873C104.038 78.9969 104.619 77.5424 104.827 75.4944C105.053 73.2764 104.721 71.5506 104.572 70.8919C104.114 68.8187 103.31 67.4101 102.554 66.0934C102.283 65.6204 101.316 63.9678 99.6459 62.0968C98.4343 60.7368 97.2584 59.7198 96.3184 58.9905" stroke="#0A2A2B" stroke-width="1.82081" stroke-miterlimit="10"/>
<path d="M117.993 41.1649C122.952 47.3015 127.904 53.4415 132.853 59.587C134.07 61.0936 136.146 63.6836 137.358 65.1878" stroke="#0A2A2B" stroke-width="1.82081" stroke-miterlimit="10"/>
<path d="M130.62 70.6808C127.261 66.5699 123.873 62.3033 120.475 57.8877C117.303 53.7688 114.251 49.6929 111.32 45.6735" stroke="#0A2A2B" stroke-width="1.82081" stroke-miterlimit="10"/>
<path d="M64.6152 60.4338C60.5743 58.261 56.531 56.0939 52.4957 53.9234C53.042 53.013 54.5552 50.7616 57.4622 49.6038C60.1099 48.5493 62.4351 48.9768 63.9244 49.2498C65.083 49.4652 67.3359 49.9088 69.4732 51.6508C70.7693 52.7107 71.4944 53.8175 72.2097 54.9005C73.1001 56.2593 73.7788 57.2878 74.0495 58.8439C74.2678 60.1289 74.1513 61.4137 74.0825 62.1534C74.0366 62.6466 73.9847 63.1702 73.8344 63.8369C73.4936 65.3312 72.8997 66.373 72.1232 67.7138C71.3951 68.9694 71.0299 69.6001 70.6417 69.952C70.4141 70.1536 69.7806 70.6866 66.9006 71.4288C65.2335 71.8571 64.2637 72.107 62.8368 72.2077C61.5588 72.2976 60.265 72.3941 58.6744 72.0004C56.1496 71.3724 54.4792 69.915 53.7432 69.1846C51.8185 67.2613 51.1762 65.1579 50.9371 64.337C50.6905 63.4867 50.5824 62.7462 50.5273 62.2113C55.2202 61.6263 59.9177 61.0301 64.6152 60.4338Z" fill="#0A2A2B"/>
<path d="M82.4934 68.1514C82.9623 67.5241 83.752 66.6287 84.9459 65.8673C86.5633 64.8275 88.0662 64.5744 89.1264 64.4077C89.963 64.2736 92.0972 64.0182 94.7047 64.7001C95.9973 65.0364 98.3193 65.6465 100.388 67.7145C100.388 67.7145 103.237 70.5642 103.553 74.667C103.629 75.6439 103.531 76.6144 103.531 76.6144C103.392 77.9688 103.039 78.9524 102.78 79.6597C102.643 80.0234 102.186 81.2267 101.259 82.6628C100.631 83.6445 100.156 84.381 99.2833 85.1437C97.9451 86.3184 96.5787 86.7657 95.9669 86.9597C94.682 87.3685 93.6797 87.3949 91.9706 87.4317C90.6448 87.4625 89.9796 87.4835 89.1101 87.3151C87.3217 86.9712 86.0658 86.1642 85.1884 85.5855C84.6713 85.2474 83.8101 84.6295 82.8983 83.6886C82.0188 82.7808 80.8047 81.538 80.2376 79.5707C80.0051 78.7657 79.9462 78.0651 79.9343 77.6006C84.5114 76.8825 89.0941 76.1666 93.6712 75.4485C89.9487 73.0131 86.2239 70.5834 82.4934 68.1514Z" fill="#0A2A2B"/>
<path d="M131.242 39.2384C131.326 38.8459 132.05 38.554 133.498 37.9891C134.483 37.6075 134.983 37.4134 135.363 37.4784C136.502 37.6789 137.118 39.1936 137.352 39.7237C139.552 44.7349 144.476 45.2299 144.715 49.36C144.838 51.5446 143.611 53.9467 142.464 54.0054C142.049 54.0246 141.741 53.7203 140.589 52.2471C138.783 49.926 137.876 48.7643 136.654 46.8091C135.691 45.276 135.474 44.7856 134.596 43.5701C133.849 42.5329 133.471 42.016 132.99 41.4631C131.759 40.0555 131.135 39.7388 131.242 39.2384Z" fill="#0A2A2B"/>
<path d="M95.0957 120.899C96.7027 121.444 98.8816 122.258 101.372 123.43C107.515 126.332 111.522 129.528 112.947 130.72C116.92 134.027 121.928 138.201 120.912 140.933C120.202 142.846 116.851 143.249 114.593 143.519C109.909 144.082 106.425 143.091 100.724 141.376C86.2406 137.015 90.799 138.029 83.4386 135.866C83.4386 135.866 75.4939 133.527 70.406 129.261C70.0206 128.938 68.9226 128.018 69.109 127.662C69.2885 127.322 70.582 127.672 71.2527 127.877C76.1455 127.571 79.5052 127.066 81.4532 126.721C82.3454 126.564 83.1711 126.393 84.1627 126.106C85.3996 125.749 86.7225 125.264 89.7789 123.728C91.227 123.019 93.0338 122.077 95.0957 120.899Z" fill="#0A2A2B"/>
<path d="M33.6107 112.805C35.529 110.658 35.2393 101.398 34.8546 97.0367L35.6128 97.846C36.1238 99.9762 37.1319 104.271 37.0759 104.406C37.0199 104.542 42.4315 112.44 45.1444 116.372C47.8082 119.06 53.5389 124.661 55.1516 125.564C56.7644 126.468 63.828 129.64 67.1582 131.114C71.8161 132.738 81.1829 136.006 81.3865 136.09C81.641 136.195 94.0664 142.414 94.5405 142.709C95.0145 143.004 104.717 145.716 105.226 145.926C105.633 146.094 112.969 146.407 116.587 146.543L120.796 145.003C121.029 145 121.547 145.83 121.757 149.172C121.803 149.913 121.511 151.415 121.687 153.611C121.841 155.533 121.582 156.642 121.177 157.243C121.605 157.376 122.111 157.559 122.705 157.804L126.438 159.344C129.831 160.744 130.565 165.222 128.257 170.816C125.982 176.331 126.396 175.807 123.776 181.675C121.157 187.544 123.046 184.65 119.795 185.791C116.545 186.932 110.108 183.283 103.999 180.763L114.229 184.984C109.987 183.234 109.579 181.576 108.561 181.156C107.543 180.736 92.3207 176.243 90.8785 175.648C89.4362 175.053 83.4858 175.278 79.2439 173.528C75.0021 171.778 73.2205 171.043 72.0446 167.877C71.1039 165.345 47.2884 158.259 45.0504 158.229L29.101 151.649L22.9405 149.107C17.2316 146.421 16.3849 145.251 12.3331 142.944C7.26837 140.06 9.46493 137.789 8.07488 133.939C6.68483 130.09 13.3774 117.959 16.3354 113.918C19.2934 109.876 20.1413 111.517 26.0099 114.137C31.8785 116.757 31.2127 115.489 33.6107 112.805Z" fill="#B6E8F3"/>
<path d="M18.6456 137.102C18.8587 135.742 19.3859 134.029 20.2446 131.948L21.59 128.687L21.7626 128.758L21.9257 138.455L23.2205 138.989L30.1739 132.228L30.4041 132.323L29.0587 135.584C28.2356 137.579 27.3976 139.175 26.5582 140.366L31.9387 142.586C32.1835 141.149 32.7146 139.427 33.5377 137.432L35.1086 133.624C35.9356 131.62 36.7737 130.024 37.6131 128.833L31.5612 126.336L27.106 130.85C26.7378 131.226 26.469 131.496 26.3266 131.651C26.0285 131.966 25.5405 132.55 25.0569 133.26L24.8363 133.169C24.9758 132.205 25.0527 131.148 25.0439 129.999L25.0873 123.665L18.9395 121.128C18.7088 122.503 18.1681 124.222 17.3174 126.284L15.7464 130.092C14.8996 132.144 14.0712 133.744 13.2651 134.882L18.6456 137.102ZM37.3579 145.147C39.2857 145.943 40.8756 145.735 41.8875 144.805L42.1081 144.896L42.0369 145.069C41.7758 145.702 41.4724 146.138 41.1269 146.377L46.1333 148.443C46.1529 147.878 46.2792 147.246 46.493 146.537C46.7068 145.828 47.0681 144.844 47.5825 143.597L48.2711 141.928C49.3118 139.406 47.7585 137.295 43.6056 135.581C42.8191 135.257 41.9091 134.96 40.881 134.704C39.8434 134.444 39.0703 134.305 38.5523 134.282L37.3929 137.092C37.8783 136.922 38.5031 136.877 39.2671 136.956C40.0216 137.032 40.7941 137.227 41.5709 137.548C42.4437 137.908 43.0935 138.4 43.5163 139.035C43.9295 139.666 43.9838 140.35 43.6712 141.108L43.315 141.971L43.0561 141.864C42.9876 140.534 42.0246 139.25 40.1352 138.47C38.8596 137.944 37.7315 137.849 36.7567 138.199C35.7818 138.549 35.0985 139.198 34.7068 140.148C34.4535 140.762 34.3775 141.381 34.473 141.993C34.6561 143.236 35.6603 144.447 37.3579 145.147ZM40.2918 143.776C39.1408 143.302 38.6352 142.487 38.9241 141.787C39.2248 141.058 40.1363 140.862 41.2968 141.34C41.8627 141.574 42.2756 141.879 42.5219 142.261C42.7683 142.643 42.8222 143.002 42.6837 143.338C42.379 144.076 41.4523 144.255 40.2918 143.776ZM53.1348 151.331C53.1356 150.894 53.2777 150.223 53.5532 149.338C53.8286 148.452 54.095 147.698 54.3522 147.075L54.7208 146.127C54.9859 145.484 55.4185 145.034 56.009 144.773C56.5995 144.511 57.2371 144.516 57.8989 144.789C59.1745 145.316 59.5467 146.535 58.9888 147.888L58.6168 148.789C58.0312 150.209 57.3119 151.517 56.4724 152.708L61.853 154.928C62.0667 153.512 62.5424 151.924 63.2705 150.159L63.7018 149.114C64.2756 147.723 64.343 146.472 63.8946 145.355C63.4462 144.238 62.4998 143.377 61.0516 142.779C59.1046 141.976 57.4012 142.35 55.9453 143.893L55.7055 143.795L55.8123 143.536C56.1645 142.682 56.6514 142.019 57.2635 141.542L51.7966 139.286C51.5835 140.646 51.1394 142.158 50.4549 143.817L49.7901 145.428C49.4537 146.243 49.1344 146.908 48.8417 147.427C48.5451 147.956 48.1807 148.513 47.7446 149.107L53.1348 151.331ZM67.1667 157.446C69.0945 158.241 70.6844 158.033 71.6963 157.104L71.9169 157.195L71.8457 157.367C71.5845 158 71.2811 158.436 70.9356 158.675L75.9421 160.741C75.9617 160.177 76.088 159.544 76.3018 158.835C76.5156 158.127 76.8769 157.142 77.3913 155.895L78.0798 154.227C79.1205 151.704 77.5672 149.593 73.4143 147.88C72.6279 147.555 71.7178 147.258 70.6898 147.002C69.6521 146.743 68.8791 146.603 68.361 146.58L67.2016 149.391C67.6871 149.221 68.3118 149.175 69.0759 149.255C69.8304 149.33 70.6028 149.526 71.3797 149.846C72.2525 150.206 72.9022 150.699 73.325 151.333C73.7383 151.964 73.7925 152.649 73.4799 153.406L73.1238 154.269L72.8648 154.163C72.7963 152.832 71.8333 151.548 69.9439 150.769C68.6683 150.243 67.5403 150.148 66.5654 150.497C65.5906 150.847 64.9073 151.497 64.5155 152.446C64.2623 153.06 64.1862 153.68 64.2817 154.292C64.4648 155.534 65.4691 156.746 67.1667 157.446ZM70.1005 156.075C68.9496 155.6 68.4439 154.785 68.7328 154.085C69.0335 153.356 69.9451 153.16 71.1056 153.639C71.6715 153.872 72.0843 154.177 72.3307 154.56C72.577 154.942 72.631 155.301 72.4925 155.636C72.1878 156.375 71.261 156.554 70.1005 156.075ZM81.6039 168.318C85.4691 169.913 89.6391 169.681 90.9608 166.477C91.1744 165.959 91.2499 165.396 91.1927 164.8L92.4075 161.855C93.2306 159.86 94.0686 158.264 94.9081 157.073L89.5467 154.861C89.543 155.387 89.5077 155.799 89.4561 156.114C89.391 156.435 89.2694 156.812 89.0913 157.243L89.0003 157.464L88.7414 157.357C88.7602 155.434 87.7624 153.799 85.7292 152.961C84.2042 152.331 82.7448 152.414 81.6201 153.072C80.4859 153.727 79.5839 154.825 78.9864 156.273C78.3889 157.721 78.2621 159.117 78.6088 160.371C78.9421 161.631 79.9227 162.709 81.4477 163.338C83.5289 164.197 85.3955 163.698 86.6995 162.306L86.9201 162.397C87.1488 162.985 87.1603 163.529 86.9506 164.037C86.5905 164.91 85.9586 165.435 85.0606 165.625C84.1666 165.807 83.1182 165.655 81.9385 165.168C80.9027 164.741 79.911 164.152 78.9674 163.392C78.0237 162.632 77.3691 161.88 77.0033 161.134L75.4832 164.873C76.142 165.425 77.0411 166.021 78.1807 166.659C79.3202 167.298 80.4626 167.847 81.6039 168.318ZM84.5461 161.35C83.8076 161.046 83.3136 160.584 83.068 159.955C82.8128 159.322 82.8256 158.665 83.1105 157.975C83.4034 157.265 83.8653 156.771 84.4925 156.502C85.1101 156.229 85.7861 156.25 86.5246 156.555C87.244 156.852 87.7149 157.315 87.9605 157.944C88.2061 158.573 88.1757 159.245 87.8868 159.945C87.6138 160.607 87.1597 161.082 86.5286 161.36C85.8975 161.638 85.2367 161.635 84.5461 161.35ZM98.884 170.532C99.8527 170.931 100.867 171.249 101.912 171.489C102.962 171.72 103.801 171.808 104.439 171.757L105.696 168.494C105.165 168.746 104.488 168.837 103.664 168.767C102.84 168.696 102.025 168.494 101.229 168.166C100.194 167.739 99.387 167.137 98.8057 166.369C98.2148 165.598 98.0104 164.896 98.183 164.26L98.376 164.228C99.093 165.455 100.277 166.258 101.965 166.954C104.526 168.011 106.365 167.715 107.113 165.902C107.418 165.164 107.461 164.407 107.148 163.56C106.706 162.345 105.358 161.07 102.868 160.032C100.806 159.181 98.8672 159.066 97.4396 159.588C95.9985 160.116 94.9103 161.148 94.3207 162.577C93.6797 164.131 93.7655 165.637 94.5918 167.089C95.4181 168.541 96.8412 169.689 98.884 170.532ZM100.721 165.128C99.6945 164.704 99.0206 164.135 98.6892 163.414C99.0011 162.903 99.4206 162.594 99.9326 162.468C100.441 162.352 100.96 162.398 101.478 162.612C102.639 163.091 103.162 163.89 102.841 164.667C102.703 165.003 102.429 165.204 102.016 165.281C101.599 165.367 101.172 165.314 100.721 165.128ZM111.189 175.283C111.206 174.426 111.47 173.379 111.98 172.141L112.344 171.259C112.68 170.444 113.255 169.895 114.061 169.599C114.868 169.304 115.679 169.324 116.485 169.656C117.415 170.04 118.193 170.821 118.474 171.554L120.144 167.507C119.776 167.12 119.298 166.81 118.703 166.565C116.823 165.789 115.008 166.544 113.696 168.663L113.456 168.564L113.697 167.979C113.891 167.509 114.151 167.044 114.485 166.587C114.81 166.126 115.149 165.794 115.5 165.569L109.88 163.25C109.635 164.687 109.191 166.198 108.538 167.781L107.865 169.411C107.541 170.198 107.229 170.844 106.941 171.353C106.648 171.872 106.279 172.438 105.828 173.071L111.189 175.283Z" fill="black"/>
</svg>
