<svg width="226" height="169" viewBox="0 0 226 169" fill="none" xmlns="http://www.w3.org/2000/svg">
<g filter="url(#filter0_d_706:4439)">
<path fill-rule="evenodd" clip-rule="evenodd" d="M176.787 26.8975C175.872 20.2244 179.595 14.1936 185.126 13.4101C190.675 12.624 195.944 17.4179 196.893 24.1176L196.893 24.1176L209.61 113.887L209.61 113.887C210.559 120.586 206.829 126.655 201.28 127.441C195.73 128.227 190.462 123.433 189.513 116.733L189.513 116.733C190.462 123.433 186.733 129.502 181.183 130.288C175.634 131.074 170.366 126.28 169.417 119.58L169.417 119.58C170.366 126.28 166.636 132.349 161.087 133.135C155.556 133.918 150.305 129.159 149.33 122.494C150.245 129.167 146.522 135.198 140.991 135.981C135.459 136.765 130.207 132.004 129.234 125.337C130.15 132.012 126.427 138.045 120.895 138.828C115.346 139.614 110.078 134.821 109.128 128.121L109.128 128.121L109.128 128.121C110.077 134.82 106.348 140.889 100.799 141.675C95.2492 142.461 89.9811 137.667 89.032 130.967L89.0318 130.968C89.9809 137.667 86.2516 143.736 80.7022 144.522C75.1711 145.305 69.9195 140.546 68.9451 133.881C69.8602 140.554 66.1372 146.585 60.6062 147.369C55.0568 148.155 49.7888 143.361 48.8396 136.661L48.8394 136.661L48.8394 136.661C49.7885 143.361 46.0592 149.43 40.5097 150.216C34.9603 151.002 29.6922 146.208 28.7431 139.508L28.7311 139.421L16.0458 49.8736C16.039 49.829 16.0325 49.7843 16.0262 49.7396C15.0771 43.0398 18.8064 36.9713 24.3558 36.1852C29.9052 35.3991 35.1732 40.1928 36.1224 46.8924L36.1231 46.8923C35.1741 40.1926 38.9034 34.1242 44.4528 33.338C49.9736 32.556 55.216 37.2966 56.2044 43.9421C55.308 37.2834 59.0274 31.2732 64.5483 30.4911C70.0977 29.705 75.3658 34.4989 76.3149 41.1987L76.3149 41.1987L76.3151 41.1987L76.3151 41.1986C75.366 34.4988 79.0953 28.4304 84.6448 27.6442C90.1942 26.8581 95.4623 31.652 96.4114 38.3517L96.4114 38.3519L96.4115 38.3518C95.4625 31.6521 99.1918 25.5837 104.741 24.7975C110.273 24.0139 115.526 28.7754 116.499 35.4424C115.582 28.7675 119.305 22.7343 124.837 21.9506C130.387 21.1645 135.655 25.9584 136.604 32.6581L136.604 32.6581C135.655 25.9583 139.384 19.8899 144.934 19.1037C150.483 18.3176 155.751 23.1115 156.7 29.8112L156.7 29.8112C155.751 23.1114 159.481 17.0429 165.03 16.2568C170.561 15.4733 175.813 20.2328 176.787 26.8975Z" fill="#EECC50"/>
<path d="M176.787 26.8975L174.812 27.1863L178.765 26.6264L176.787 26.8975ZM196.893 24.1176L194.916 24.3976L195.178 26.2456L197.039 26.1085L196.893 24.1176ZM196.893 24.1176L198.87 23.8376L198.608 21.9897L196.746 22.1268L196.893 24.1176ZM209.61 113.887L209.692 115.881L211.896 115.791L211.586 113.607L209.61 113.887ZM209.61 113.887L209.528 111.892L207.324 111.983L207.633 114.167L209.61 113.887ZM189.513 116.733L191.49 116.453L191.131 113.922L188.762 114.884L189.513 116.733ZM189.513 116.733L188.762 114.884L187.318 115.47L187.537 117.013L189.513 116.733ZM169.417 119.58L171.393 119.3L171.041 116.816L168.7 117.717L169.417 119.58ZM169.417 119.58L168.699 117.717L167.217 118.288L167.44 119.86L169.417 119.58ZM149.33 122.494L151.305 122.205L147.352 122.765L149.33 122.494ZM129.234 125.337L131.209 125.049L127.256 125.609L129.234 125.337ZM109.128 128.121L111.105 127.841L110.825 125.864L108.848 126.144L109.128 128.121ZM109.128 128.121L108.848 126.144L106.872 126.424L107.152 128.401L109.128 128.121ZM89.032 130.967L91.0085 130.687L90.6373 128.067L88.2198 129.144L89.032 130.967ZM89.0318 130.968L88.2196 129.144L86.8441 129.757L87.0553 131.248L89.0318 130.968ZM68.9451 133.881L70.9204 133.592L66.9674 134.152L68.9451 133.881ZM48.8396 136.661L50.8161 136.381L50.5361 134.405L48.5596 134.685L48.8396 136.661ZM48.8394 136.661L48.5594 134.685L46.5829 134.965L46.8629 136.941L48.8394 136.661ZM48.8394 136.661L46.8629 136.941L48.8394 136.661ZM28.7431 139.508L26.7658 139.782L26.7666 139.788L28.7431 139.508ZM28.7311 139.421L30.7084 139.147L30.7076 139.141L28.7311 139.421ZM16.0458 49.8736L18.0223 49.5936L18.021 49.5847L18.0197 49.5759L16.0458 49.8736ZM36.1224 46.8924L34.1459 47.1724L34.4259 49.1489L36.4024 48.8689L36.1224 46.8924ZM36.1231 46.8923L36.4031 48.8688L38.3796 48.5888L38.0996 46.6123L36.1231 46.8923ZM56.2044 43.9421L54.2298 44.2358L58.1828 43.6758L56.2044 43.9421ZM76.3149 41.1987L74.3384 41.4786L76.3149 41.1987ZM76.3149 41.1987L74.3384 41.4787L74.6184 43.4552L76.5949 43.1752L76.3149 41.1987ZM76.3151 41.1987L76.5951 43.1752L78.5716 42.8952L78.2916 40.9187L76.3151 41.1987ZM76.3151 41.1986L74.3386 41.4786L76.3151 41.1986ZM96.4114 38.3517L94.4348 38.6317L96.4114 38.3517ZM96.4114 38.3519L94.4349 38.6318L94.7148 40.6084L96.6914 40.3284L96.4114 38.3519ZM96.4115 38.3518L96.6915 40.3284L98.668 40.0484L98.388 38.0718L96.4115 38.3518ZM116.499 35.4424L114.523 35.7306L118.476 35.1706L116.499 35.4424ZM136.604 32.6581L134.627 32.9381L134.991 35.5082L137.382 34.4965L136.604 32.6581ZM136.604 32.6581L137.382 34.4965L138.796 33.8981L138.58 32.3781L136.604 32.6581ZM156.7 29.8112L154.724 30.0912L155.079 32.5992L157.434 31.6676L156.7 29.8112ZM156.7 29.8112L157.435 31.6675L158.898 31.0889L158.677 29.5312L156.7 29.8112ZM178.765 26.6264C177.949 20.6788 181.294 15.9692 185.406 15.3867L184.846 11.4336C177.897 12.4181 173.795 19.7699 174.809 27.1687L178.765 26.6264ZM185.406 15.3867C189.532 14.8022 194.07 18.4247 194.916 24.3976L198.869 23.8377C197.817 16.4111 191.819 10.4458 184.846 11.4336L185.406 15.3867ZM197.039 26.1085L197.04 26.1085L196.746 22.1268L196.746 22.1268L197.039 26.1085ZM194.917 24.3976L207.633 114.167L211.586 113.607L198.87 23.8376L194.917 24.3976ZM209.528 111.892L209.528 111.892L209.691 115.881L209.692 115.881L209.528 111.892ZM207.633 114.167C208.479 120.139 205.126 124.88 201 125.464L201.56 129.417C208.533 128.43 212.638 121.033 211.586 113.607L207.633 114.167ZM201 125.464C196.874 126.049 192.336 122.426 191.49 116.453L187.537 117.013C188.589 124.44 194.587 130.405 201.56 129.417L201 125.464ZM188.762 114.884L188.762 114.884L190.264 118.583L190.264 118.583L188.762 114.884ZM187.537 117.013C188.383 122.986 185.029 127.727 180.903 128.311L181.463 132.264C188.437 131.277 192.542 123.88 191.49 116.453L187.537 117.013ZM180.903 128.311C176.778 128.896 172.239 125.273 171.393 119.3L167.44 119.86C168.492 127.287 174.49 133.252 181.463 132.264L180.903 128.311ZM168.7 117.717L168.699 117.717L170.134 121.443L170.134 121.443L168.7 117.717ZM167.44 119.86C168.286 125.833 164.933 130.574 160.807 131.158L161.367 135.111C168.34 134.123 172.445 126.727 171.393 119.3L167.44 119.86ZM160.807 131.158C156.695 131.741 152.174 128.145 151.305 122.205L147.355 122.783C148.435 130.172 154.417 136.096 161.367 135.111L160.807 131.158ZM147.352 122.765C148.168 128.713 144.823 133.422 140.711 134.005L141.271 137.958C148.221 136.973 152.322 129.622 151.308 122.223L147.352 122.765ZM140.711 134.005C136.598 134.588 132.076 130.991 131.209 125.049L127.258 125.626C128.337 133.017 134.32 138.943 141.271 137.958L140.711 134.005ZM127.256 125.609C128.073 131.558 124.728 136.269 120.615 136.852L121.175 140.805C128.126 139.82 132.228 132.466 131.211 125.066L127.256 125.609ZM120.615 136.852C116.489 137.436 111.951 133.814 111.105 127.841L107.152 128.401C108.204 135.827 114.202 141.793 121.175 140.805L120.615 136.852ZM111.105 127.841L111.105 127.841L107.152 128.401L107.152 128.401L111.105 127.841ZM108.848 126.144L108.848 126.144L109.408 130.097L109.408 130.097L108.848 126.144ZM107.152 128.401C107.998 134.374 104.644 139.114 100.519 139.698L101.079 143.652C108.052 142.664 112.157 135.267 111.105 127.841L107.152 128.401ZM100.519 139.698C96.3929 140.283 91.8547 136.66 91.0085 130.687L87.0555 131.247C88.1075 138.674 94.1054 144.639 101.079 143.652L100.519 139.698ZM88.2198 129.144L88.2196 129.144L89.844 132.791L89.8442 132.791L88.2198 129.144ZM87.0553 131.248C87.9014 137.22 84.5479 141.961 80.4222 142.545L80.9822 146.498C87.9553 145.511 92.0604 138.114 91.0084 130.688L87.0553 131.248ZM80.4222 142.545C76.3097 143.128 71.7888 139.532 70.9204 133.592L66.9699 134.17C68.0502 141.559 74.0324 147.483 80.9822 146.498L80.4222 142.545ZM66.9674 134.152C67.783 140.1 64.4386 144.809 60.3262 145.392L60.8862 149.345C67.8359 148.361 71.9375 141.009 70.9229 133.61L66.9674 134.152ZM60.3262 145.392C56.2005 145.977 51.6623 142.354 50.8161 136.381L46.8631 136.941C47.9152 144.368 53.9131 150.333 60.8862 149.345L60.3262 145.392ZM48.5596 134.685L48.5594 134.685L49.1194 138.638L49.1196 138.638L48.5596 134.685ZM46.8629 136.941L46.8629 136.941L50.8159 136.381L50.8159 136.381L46.8629 136.941ZM46.8629 136.941C47.709 142.914 44.3554 147.655 40.2297 148.239L40.7897 152.192C47.7629 151.204 51.868 143.808 50.8159 136.381L46.8629 136.941ZM40.2297 148.239C36.1041 148.824 31.5658 145.201 30.7197 139.228L26.7666 139.788C27.8187 147.215 33.8166 153.18 40.7897 152.192L40.2297 148.239ZM30.7205 139.234L30.7084 139.147L26.7537 139.695L26.7658 139.782L30.7205 139.234ZM30.7076 139.141L18.0223 49.5936L14.0692 50.1536L26.7545 139.701L30.7076 139.141ZM18.0197 49.5759C18.0139 49.5372 18.0082 49.4984 18.0027 49.4596L14.0496 50.0196C14.0568 50.0702 14.0642 50.1208 14.0718 50.1713L18.0197 49.5759ZM18.0027 49.4596C17.1566 43.4867 20.5101 38.7462 24.6358 38.1617L24.0758 34.2087C17.1027 35.1965 12.9976 42.593 14.0496 50.0196L18.0027 49.4596ZM24.6358 38.1617C28.7614 37.5773 33.2996 41.1997 34.1459 47.1724L38.0989 46.6124C37.0467 39.186 31.0489 33.2209 24.0758 34.2087L24.6358 38.1617ZM36.4024 48.8689L36.4031 48.8688L35.8431 44.9158L35.8424 44.9159L36.4024 48.8689ZM38.0996 46.6123C37.2536 40.6394 40.6071 35.899 44.7328 35.3146L44.1728 31.3615C37.1997 32.3493 33.0946 39.7458 34.1466 47.1723L38.0996 46.6123ZM44.7328 35.3146C48.8378 34.733 53.3491 38.3138 54.2298 44.2358L58.1789 43.6484C57.0829 36.2794 51.1094 30.3789 44.1728 31.3615L44.7328 35.3146ZM58.1828 43.6758C57.384 37.7421 60.7232 33.0492 64.8283 32.4677L64.2683 28.5146C57.3316 29.4973 53.232 36.8248 54.226 44.2084L58.1828 43.6758ZM64.8283 32.4677C68.954 31.8832 73.4923 35.5057 74.3384 41.4786L78.2914 40.9187C77.2394 33.4921 71.2415 27.5268 64.2683 28.5146L64.8283 32.4677ZM74.3384 41.4786L74.3384 41.4787L78.2914 40.9187L78.2914 40.9187L74.3384 41.4786ZM76.5949 43.1752L76.5951 43.1752L76.0351 39.2222L76.0349 39.2222L76.5949 43.1752ZM78.2916 40.9187L78.2916 40.9186L74.3386 41.4786L74.3386 41.4787L78.2916 40.9187ZM78.2916 40.9186C77.4455 34.9457 80.7991 30.2052 84.9247 29.6207L84.3648 25.6677C77.3916 26.6555 73.2865 34.052 74.3386 41.4786L78.2916 40.9186ZM84.9247 29.6207C89.0504 29.0363 93.5887 32.6588 94.4348 38.6317L98.3879 38.0717C97.3358 30.6452 91.3379 24.6799 84.3648 25.6677L84.9247 29.6207ZM94.4348 38.6317L94.4349 38.6318L98.3879 38.0719L98.3879 38.0717L94.4348 38.6317ZM96.6914 40.3284L96.6915 40.3284L96.1315 36.3753L96.1314 36.3753L96.6914 40.3284ZM98.388 38.0718C97.542 32.099 100.896 27.3585 105.021 26.7741L104.461 22.821C97.4881 23.8088 93.383 31.2053 94.435 38.6318L98.388 38.0718ZM105.021 26.7741C109.134 26.1914 113.656 29.7886 114.523 35.7306L118.474 35.1541C117.395 27.7623 111.412 21.8363 104.461 22.821L105.021 26.7741ZM118.476 35.1706C117.659 29.2215 121.004 24.5098 125.117 23.9272L124.557 19.9741C117.606 20.9588 113.504 28.3135 114.521 35.7141L118.476 35.1706ZM125.117 23.9272C129.243 23.3427 133.781 26.9652 134.627 32.9381L138.58 32.3782C137.528 24.9516 131.53 18.9863 124.557 19.9741L125.117 23.9272ZM137.382 34.4965L137.382 34.4965L135.826 30.8197L135.826 30.8197L137.382 34.4965ZM138.58 32.3781C137.734 26.4052 141.088 21.6647 145.214 21.0802L144.654 17.1272C137.68 18.115 133.575 25.5115 134.627 32.9381L138.58 32.3781ZM145.214 21.0802C149.339 20.4958 153.878 24.1183 154.724 30.0912L158.677 29.5312C157.625 22.1047 151.627 16.1394 144.654 17.1272L145.214 21.0802ZM157.434 31.6676L157.435 31.6675L155.966 27.9548L155.966 27.9549L157.434 31.6676ZM158.677 29.5312C157.831 23.5583 161.184 18.8178 165.31 18.2333L164.75 14.2803C157.777 15.2681 153.672 22.6646 154.724 30.0912L158.677 29.5312ZM165.31 18.2333C169.422 17.6508 173.943 21.2463 174.812 27.1863L178.762 26.6087C177.682 19.2192 171.7 13.2958 164.75 14.2803L165.31 18.2333Z" fill="#F05127"/>
<path d="M123.752 81.2495C126.258 80.8946 128.256 80.2117 129.721 79.1806C131.174 78.1511 131.887 76.6815 131.638 74.9241C131.429 73.4517 130.572 72.4467 129.445 72.0129C128.319 71.5909 126.859 71.3738 125.45 71.4282C122.605 71.4435 119.818 71.8625 119.628 70.5207C119.573 70.1289 119.829 69.8019 120.382 69.5176C120.936 69.2333 121.67 69.0323 122.596 68.9011C123.819 68.7279 125.068 68.7327 126.328 68.9055C127.588 69.0783 128.612 69.3814 129.398 69.8029L128.527 63.6521C127.63 63.4764 126.548 63.3632 125.269 63.3142C123.99 63.2652 122.752 63.3316 121.577 63.4981C119.938 63.7302 118.516 64.1254 117.325 64.6939C116.122 65.2641 115.197 66.0007 114.565 66.926C113.933 67.8513 113.691 68.8788 113.852 70.0187C114.042 71.3605 114.742 72.3637 115.684 72.86C116.628 73.3682 117.834 73.6698 119.099 73.7086C122.223 73.8717 125.612 73.1735 125.784 74.3847C125.891 75.1446 124.876 75.676 122.751 75.9771C121.29 76.184 119.8 76.1772 118.29 75.9549C116.769 75.7343 115.469 75.2766 114.366 74.585L115.059 81.0154C116.266 81.2441 117.714 81.3781 119.405 81.4293C121.096 81.4804 122.541 81.4211 123.752 81.2495ZM144.531 77.9548C143.932 76.3802 143.451 74.3529 143.101 71.883L142.353 66.5991L144.466 66.2997C145.725 66.1214 146.856 66.2397 147.87 66.6412L146.037 60.3722L131.396 62.4462L131.377 68.9776C132.215 68.3137 133.269 67.8859 134.54 67.7059L136.807 67.3846L137.556 72.6686C137.906 75.1384 138.007 77.2195 137.869 78.8984L144.531 77.9548ZM160.265 76.0771C161.702 75.8736 162.959 75.5986 164.05 75.2624C165.127 74.9159 166.205 74.4847 167.282 73.9687L166.379 67.5923C165.764 68.2971 164.954 68.9084 163.95 69.4262C162.945 69.944 161.844 70.2938 160.657 70.462C157.759 70.8725 155.019 70.2553 154.683 67.8805C154.53 66.7999 154.921 65.8845 155.843 65.1241C156.766 64.3755 158.029 63.8818 159.62 63.6564C160.558 63.5235 161.516 63.5331 162.483 63.6869C163.439 63.8542 164.226 64.1061 164.844 64.4546L164.056 58.5464C163.312 58.3369 162.374 58.2154 161.253 58.1683C160.133 58.1331 158.98 58.1995 157.781 58.3694C155.774 58.6537 153.897 59.3435 152.298 60.539C151.499 61.1368 150.821 61.8262 150.276 62.5939C149.175 64.1428 148.63 66.2791 148.965 68.6421C149.301 71.0169 150.408 72.9313 151.896 74.1135C154.136 75.9037 157.29 76.5349 160.265 76.0771Z" fill="#F05127"/>
<path d="M110.219 102.619L110.943 95.2217L111.157 95.1915L113.906 102.097L119.526 101.301C119.414 100.708 119.347 99.9724 119.303 99.0883C119.26 98.2042 119.268 97.3672 119.319 96.5697L119.698 92.964C119.781 91.0446 119.981 89.4447 120.317 88.1616L115.321 88.8693C115.402 89.3757 115.448 90.3412 115.451 91.776L115.165 94.5691C115.163 94.742 115.16 94.9786 115.157 95.2788C115.133 95.8817 115.133 96.2633 115.154 96.7327L114.949 96.7618L111.821 89.3651L108.668 89.8117L107.727 97.7849L107.531 97.8126C107.5 97.6625 107.293 96.9652 106.916 95.7195L105.878 93.1322C105.484 91.8254 105.259 90.8851 105.204 90.3025L100.181 91.014C100.85 92.1456 101.505 93.6245 102.136 95.4518L103.502 98.8103C103.764 99.5636 103.997 100.375 104.208 101.227C104.412 102.088 104.551 102.813 104.618 103.412L110.219 102.619ZM127.862 100.383C128.762 100.256 129.659 100.047 130.546 99.7667C131.431 99.4778 132.097 99.1745 132.551 98.8558L132.055 95.8647C131.77 96.2867 131.304 96.6525 130.657 96.9621C130.01 97.2717 129.313 97.4795 128.574 97.5842C127.612 97.7204 126.745 97.6253 125.973 97.3077C125.192 96.9913 124.731 96.557 124.58 96.006L124.71 95.8968C125.786 96.4984 127.023 96.5775 128.591 96.3555C130.968 96.0186 132.212 94.9885 131.974 93.3053C131.877 92.6196 131.576 92.0354 130.97 91.5399C130.106 90.8265 128.538 90.4672 126.221 90.7863C124.306 91.0576 122.807 91.8241 121.97 92.842C121.126 93.8701 120.767 95.12 120.955 96.447C121.159 97.8897 121.885 98.9768 123.141 99.6983C124.397 100.42 125.965 100.652 127.862 100.383ZM126.858 95.5381C125.905 95.673 125.151 95.5437 124.587 95.1512C124.595 94.6323 124.772 94.2165 125.099 93.8976C125.428 93.5877 125.836 93.3935 126.317 93.3254C127.395 93.1727 128.137 93.54 128.24 94.2613C128.284 94.573 128.168 94.8438 127.893 95.0826C127.619 95.3303 127.276 95.4788 126.858 95.5381ZM142.85 98.2599C145.753 97.8486 146.807 95.4737 146.434 92.8376C146.06 90.2016 144.388 88.2127 141.485 88.624C139.562 88.8965 138.373 90.0641 137.998 91.7071L137.775 91.7386L137.59 90.4295C137.318 88.5148 137.243 86.954 137.362 85.747L132.357 86.456C132.796 87.5657 133.157 89.0862 133.431 91.0187L133.931 94.5542C134.205 96.4867 134.28 98.0386 134.166 99.2266L139.145 98.5214C138.928 98.1433 138.773 97.82 138.68 97.5515C138.588 97.283 138.513 96.9484 138.457 96.5566L138.426 96.3339L138.666 96.2999C139.514 97.7331 140.936 98.5311 142.85 98.2599ZM140.658 95.9269C139.999 96.0203 139.433 95.8734 138.97 95.4938C138.499 95.1154 138.221 94.6279 138.134 94.0134C138.043 93.3722 138.172 92.8089 138.513 92.3335C138.855 91.8582 139.359 91.5688 140.027 91.4742C140.712 91.377 141.285 91.5049 141.763 91.8642C142.232 92.2247 142.512 92.73 142.604 93.3801C142.696 94.0302 142.566 94.5847 142.215 95.0613C141.856 95.5391 141.343 95.8298 140.658 95.9269ZM152.985 96.8242C154.695 96.582 155.976 96.137 156.837 95.4791C157.697 94.8212 158.057 94.0254 157.922 93.0725C157.734 91.6819 156.376 91.2657 154.926 91.2258C152.961 91.1408 150.759 91.6254 150.669 90.9931C150.617 90.628 151.231 90.2776 152.308 90.125C153.065 90.0177 153.836 90.0085 154.613 90.1073C155.39 90.2062 156.036 90.3418 156.551 90.5141L156.126 87.3857C154.66 87.0393 153.143 86.9726 151.575 87.1947C149.946 87.4255 148.735 87.8604 147.945 88.4993C147.146 89.1484 146.806 89.887 146.924 90.7241C147.411 94.1617 153.997 91.6572 154.175 92.9129C154.232 93.3136 153.551 93.6372 152.295 93.8151C151.627 93.9097 150.8 93.9087 149.825 93.8198C148.84 93.7322 147.982 93.5721 147.243 93.3588L147.729 96.7875C148.353 96.8989 149.207 96.9597 150.298 96.9686C151.379 96.9699 152.281 96.9239 152.985 96.8242ZM161.986 84.9478C162.335 84.5259 162.465 84.035 162.385 83.474C162.305 82.904 162.042 82.4598 161.589 82.1514C161.137 81.8431 160.577 81.7407 159.901 81.8365C159.224 81.9324 158.715 82.1862 158.374 82.6069C158.025 83.0288 157.896 83.5285 157.977 84.0985C158.057 84.6595 158.318 85.0949 158.771 85.4032C159.214 85.7128 159.774 85.8152 160.451 85.7194C161.127 85.6235 161.637 85.3697 161.986 84.9478ZM164.312 94.9562C163.863 93.7752 163.502 92.2547 163.24 90.4024L162.883 87.8821C162.764 87.045 162.715 86.3797 162.726 85.8785C162.27 86.3155 161.584 86.6035 160.649 86.7359C159.714 86.8684 158.948 86.7861 158.336 86.5004C158.471 86.8809 158.609 87.5336 158.742 88.4687L159.099 90.989C159.361 92.8414 159.437 94.4022 159.334 95.6614L164.312 94.9562ZM171.562 94.1926C171.954 94.1371 172.356 94.0256 172.769 93.8671C173.174 93.7098 173.511 93.5258 173.766 93.3353L173.312 90.1293C173.09 90.4241 172.557 90.6995 172.049 90.7714C171.559 90.8408 171.121 90.7576 170.741 90.5117C170.362 90.2746 170.135 89.8889 170.06 89.3635L169.605 86.1486L172.579 85.7272L172.406 84.5072L169.432 84.9285L168.915 81.2773L165.21 82.8286L165.585 85.4735L163.964 85.7031L164.137 86.9232L165.758 86.6936L166.422 91.3868C166.749 93.6934 168.463 94.6316 171.562 94.1926ZM180.85 92.8768C181.75 92.7493 182.647 92.5405 183.534 92.2604C184.419 91.9715 185.085 91.6682 185.54 91.3495L185.043 88.3584C184.758 88.7804 184.292 89.1462 183.645 89.4558C182.999 89.7654 182.301 89.9732 181.562 90.0779C180.6 90.2141 179.733 90.119 178.961 89.8014C178.181 89.485 177.719 89.0507 177.569 88.4997L177.698 88.3905C178.774 88.9921 180.011 89.0712 181.579 88.8491C183.957 88.5123 185.201 87.4822 184.962 85.799C184.865 85.1133 184.564 84.5291 183.958 84.0335C183.094 83.3202 181.526 82.9609 179.209 83.28C177.295 83.5513 175.795 84.3178 174.958 85.3357C174.114 86.3638 173.755 87.6137 173.943 88.9407C174.147 90.3834 174.874 91.4705 176.129 92.192C177.385 92.9134 178.953 93.1455 180.85 92.8768ZM179.846 88.0317C178.893 88.1667 178.139 88.0374 177.575 87.6449C177.583 87.126 177.76 86.7102 178.088 86.3913C178.416 86.0813 178.825 85.8872 179.306 85.8191C180.383 85.6664 181.126 86.0336 181.228 86.755C181.272 87.0667 181.156 87.3375 180.881 87.5763C180.607 87.824 180.265 87.9725 179.846 88.0317Z" fill="#F05127"/>
<path d="M80.2549 78.2598L79.3023 73.4032L58.9691 69.0437L41.5381 80.8105L44.1824 94.2917L64.734 98.4345L81.9466 86.8844L84.1146 97.9374L66.902 109.487L46.3504 105.345L50.78 102.215" stroke="#F05127" stroke-width="1.53506"/>
<path d="M67.0042 109.302L61.1572 79.4924" stroke="#F05127" stroke-width="1.53506"/>
<path d="M49.7505 81.8953L72.1076 77.51" stroke="#F05127" stroke-width="1.53506"/>
<circle r="0.869336" transform="matrix(-0.981301 0.192478 0.192478 0.981301 80.7625 80.7248)" fill="#F05127"/>
</g>
<defs>
<filter id="filter0_d_706:4439" x="0.577848" y="0.67971" width="224.626" height="167.59" filterUnits="userSpaceOnUse" color-interpolation-filters="sRGB">
<feFlood flood-opacity="0" result="BackgroundImageFix"/>
<feColorMatrix in="SourceAlpha" type="matrix" values="0 0 0 0 0 0 0 0 0 0 0 0 0 0 0 0 0 0 127 0" result="hardAlpha"/>
<feOffset dy="2.66168"/>
<feGaussianBlur stdDeviation="6.65419"/>
<feComposite in2="hardAlpha" operator="out"/>
<feColorMatrix type="matrix" values="0 0 0 0 0 0 0 0 0 0 0 0 0 0 0 0 0 0 0.25 0"/>
<feBlend mode="normal" in2="BackgroundImageFix" result="effect1_dropShadow_706:4439"/>
<feBlend mode="normal" in="SourceGraphic" in2="effect1_dropShadow_706:4439" result="shape"/>
</filter>
</defs>
</svg>
