<svg width="51" height="62" viewBox="0 0 51 62" fill="none" xmlns="http://www.w3.org/2000/svg">
<path d="M17.1438 5.55807C15.8907 9.60403 15.6339 15.8203 15.6621 18.4226L14.4597 23.6231C10.3384 26.6265 3.20895 35.2555 7.66083 45.7446C15.2085 62.3662 28.1313 55.6767 30.9524 53.8435C33.7736 52.0103 36.7311 42.8769 36.978 41.7133C37.1756 40.7825 38.1177 40.06 38.5641 39.8151C38.8891 39.5226 39.8915 38.3616 41.3007 36.0578C42.2237 32.6385 41.5281 31.7349 38.0698 30.3764C38.6481 24.0904 32.8042 24.5261 32.4011 23.9476C32.0787 23.4847 36.4095 16.4177 38.6153 12.942C39.5166 11.8954 40.8084 9.39133 38.7646 7.74809C36.2098 5.69403 31.8091 10.4785 29.1831 14.4894C27.0822 17.6982 24.7542 20.5936 23.8529 21.6402L23.4888 21.4971C23.4367 18.9554 23.3325 12.6955 23.3324 7.98907C24.0603 3.56869 22.2791 2.11263 21.2975 1.93715C20.485 1.68799 18.5166 2.06335 17.1438 5.55807Z" fill="#F5B840"/>
<path d="M15.3247 23.0242C16.7375 22.4586 20.0987 22.2102 22.2414 25.7412C25.2525 28.7729 27.7389 31.8927 28.6056 33.0736C28.9025 34.1006 28.7409 36.1522 25.7195 36.1419C22.7813 35.4919 19.9795 33.8171 18.9459 33.0609C18.8722 32.8918 18.7404 32.728 18.8029 33.4249C18.8809 34.296 27.7219 42.8114 21.8003 54.142" stroke="#DF4732" stroke-width="2.13902" stroke-linecap="round"/>
<path d="M32.2245 24.3961L28.279 32.3008C28.5477 32.6865 29.0708 33.4943 29.0136 33.6399C28.9421 33.8219 28.7341 35.4211 27.863 35.4991C27.0518 35.8528 26.6323 36.1362 26.524 36.2337C26.2618 36.9011 26.0365 38.4374 27.2326 39.2434C28.4287 40.0494 29.9108 39.7352 30.5024 39.4773L32.6345 37.7936C33.8717 36.2486 36.7843 32.3643 37.9647 30.6429C37.3818 31.4644 32.238 38.2682 31.952 38.9962C31.666 39.7243 30.9444 40.4914 31.5295 41.1414C32.1146 41.7915 32.5176 42.37 34.6238 42.3569C35.4301 42.3519 35.7874 42.6039 38.316 40.4457" stroke="#DF4732" stroke-width="2.13902" stroke-linecap="round"/>
<path d="M37.8939 30.8249L31.7707 38.9247" stroke="#DF4732" stroke-width="2.13902" stroke-linecap="round"/>
</svg>
