<svg width="208" height="58" viewBox="0 0 208 58" fill="none" xmlns="http://www.w3.org/2000/svg">
<rect x="6.99065" y="4.81658" width="199.817" height="51.2451" stroke="#FBFFFE" stroke-width="2.3856"/>
<rect x="1.1928" y="1.1928" width="199.092" height="47.6214" fill="#F05127" stroke="#FBFFFE" stroke-width="2.3856"/>
<path d="M60.286 33.0841C60.8405 33.0841 61.3841 32.9319 61.9168 32.6384C62.4387 32.3448 62.8083 31.986 63.0257 31.562L62.9605 24.8867C62.3626 26.3979 61.3623 27.1589 59.9599 27.1589C59.3619 27.1589 58.8183 26.8762 58.3834 26.5175C57.7529 26.0065 57.0679 25.3542 55.9481 25.3542H55.9046V25.2237H56.1003C57.2419 25.2237 58.253 25.0715 59.1336 24.778C60.0142 24.4844 60.7209 24.0278 61.2536 23.3972C61.7863 22.7775 62.0473 22.0274 62.0473 21.1468C62.0473 20.2879 61.7755 19.5595 61.2319 18.9398C60.1338 17.7221 58.2856 17.1568 55.9699 17.1568H46.5113C46.8484 18.6462 47.0223 20.5271 47.0223 22.7993V27.1154C47.0223 29.3768 46.8484 31.2576 46.5113 32.7471H52.6105C52.2734 31.2576 52.0995 29.3768 52.0995 27.1154V26.2022C52.2952 26.1261 52.6105 26.0935 53.0562 26.0935C54.8175 26.0935 55.3937 27.4742 55.9699 29.0071C56.6657 30.9206 57.3397 33.095 60.286 33.0841ZM52.0995 21.973H55.0784C56.133 21.973 56.8831 22.4731 56.8831 23.245C56.8831 24.0713 56.1438 24.5279 54.9697 24.5279H52.0995V21.973ZM71.2666 33.0624C72.3647 33.0624 73.4736 32.9645 74.5826 32.7797C75.6915 32.584 76.5395 32.3339 77.1375 32.0295L77.0505 28.3657C76.6373 28.8223 76.0177 29.1811 75.1914 29.442C74.3651 29.7029 73.4954 29.8334 72.593 29.8334C71.4188 29.8334 70.3969 29.5725 69.5271 29.0615C68.6465 28.5505 68.1681 27.9526 68.0812 27.2676L68.2551 27.1589C69.4402 28.0613 70.9079 28.3657 72.8213 28.3657C75.7241 28.3657 77.3875 27.3437 77.3875 25.289C77.3875 24.4518 77.1266 23.7017 76.4851 23.0059C75.5719 22.0056 73.7563 21.3098 70.9296 21.299C68.5921 21.299 66.6678 21.9622 65.4937 23.0385C64.3086 24.1257 63.6672 25.5607 63.6672 27.1807C63.6672 28.9419 64.3521 30.3661 65.7328 31.4424C67.1136 32.5188 68.9509 33.0624 71.2666 33.0624ZM70.8861 27.0937C69.7228 27.0937 68.8422 26.811 68.2334 26.2457C68.3312 25.626 68.6139 25.1585 69.0596 24.8323C69.5054 24.517 70.0272 24.354 70.6143 24.354C71.9298 24.354 72.7561 24.9193 72.7561 25.7999C72.7561 26.1804 72.5713 26.4849 72.2016 26.724C71.832 26.9741 71.3971 27.0937 70.8861 27.0937ZM85.6936 37.8242C90.075 37.8242 94.0215 35.9325 94.0215 32.3013C94.0215 31.7142 93.8693 31.138 93.5758 30.5836V27.2459C93.5758 24.9845 93.7497 23.1037 94.0867 21.6143H88.0093C88.2159 22.1252 88.3464 22.5384 88.4225 22.8645C88.4877 23.2015 88.5203 23.6147 88.5203 24.1039V24.354H88.2268C87.4766 22.484 85.8567 21.299 83.5519 21.299C81.8232 21.299 80.4425 21.9622 79.6162 23.0493C78.7791 24.1365 78.3442 25.5607 78.3442 27.2024C78.3442 28.8441 78.7791 30.2465 79.6162 31.3229C80.4425 32.41 81.8232 33.0624 83.5519 33.0624C85.9111 33.0624 87.5201 31.8338 88.2268 29.9639H88.4768C88.9335 30.4422 89.1618 30.9641 89.1618 31.5403C89.1618 32.5296 88.7595 33.2907 87.9659 33.8343C87.1722 34.367 86.0959 34.6388 84.7587 34.6388C83.5845 34.6388 82.3886 34.4648 81.1709 34.1061C79.9533 33.7473 79.0183 33.2798 78.366 32.7036L78.3877 36.9327C79.2466 37.2045 80.3555 37.422 81.7145 37.5851C83.0735 37.7481 84.3999 37.8242 85.6936 37.8242ZM85.7589 29.8986C84.9217 29.8986 84.2585 29.6486 83.7693 29.1376C83.2692 28.6266 83.0191 27.9852 83.0191 27.2024C83.0191 26.3979 83.2692 25.7347 83.7693 25.2237C84.2585 24.7127 84.9217 24.4627 85.7589 24.4627C86.5743 24.4627 87.2157 24.7236 87.7049 25.2346C88.1942 25.7456 88.4334 26.4088 88.4334 27.2024C88.4334 27.9526 88.1833 28.594 87.6832 29.1159C87.1831 29.6377 86.5416 29.8986 85.7589 29.8986ZM101.066 20.3749C101.556 19.9291 101.795 19.3638 101.795 18.6788C101.795 17.983 101.556 17.4068 101.066 16.9611C100.577 16.5153 99.9249 16.2979 99.0987 16.2979C98.2724 16.2979 97.6201 16.5153 97.1417 16.9611C96.6525 17.4068 96.4133 17.983 96.4133 18.6788C96.4133 19.3638 96.6525 19.9291 97.1417 20.3749C97.6201 20.8206 98.2724 21.038 99.0987 21.038C99.9249 21.038 100.577 20.8206 101.066 20.3749ZM102.154 32.7471C101.817 31.2576 101.643 29.3768 101.643 27.1154V24.0387C101.643 23.0167 101.697 22.2122 101.795 21.6143C101.175 22.06 100.305 22.2883 99.1639 22.2883C98.0224 22.2883 97.12 22.06 96.4351 21.6143C96.5329 22.0926 96.5873 22.8971 96.5873 24.0387V27.1154C96.5873 29.3768 96.4133 31.2576 96.0763 32.7471H102.154ZM109.786 33.0624C111.873 33.0624 113.482 32.7471 114.624 32.1056C115.765 31.4642 116.331 30.5727 116.331 29.4094C116.342 27.7134 114.787 26.985 113.058 26.6914C110.721 26.2565 108.003 26.4631 108.003 25.6912C108.003 25.2455 108.796 24.9302 110.112 24.9302C111.036 24.9302 111.96 25.0498 112.873 25.2998C113.787 25.5499 114.537 25.8217 115.124 26.1152L115.146 22.2992C113.45 21.636 111.645 21.299 109.731 21.299C107.742 21.299 106.22 21.6143 105.165 22.2448C104.1 22.8863 103.567 23.7125 103.567 24.7345C103.567 28.931 111.873 27.0502 111.873 28.5831C111.873 29.0724 111.003 29.3442 109.47 29.3442C108.655 29.3442 107.666 29.2028 106.513 28.931C105.35 28.6592 104.35 28.3222 103.502 27.9417V32.1274C104.23 32.3666 105.241 32.584 106.546 32.7797C107.84 32.9645 108.927 33.0624 109.786 33.0624ZM124.615 33.0624C125.093 33.0624 125.593 32.9971 126.115 32.8775C126.626 32.7579 127.061 32.5949 127.398 32.41V28.4962C127.083 28.8114 126.398 29.0506 125.778 29.0506C125.18 29.0506 124.669 28.8767 124.256 28.5179C123.843 28.17 123.637 27.6699 123.637 27.0285V23.1037H127.268V21.6143H123.637V17.1568L118.94 18.3853V21.6143H116.961V23.1037H118.94V28.8332C118.94 31.649 120.832 33.0624 124.615 33.0624ZM135.954 33.0624C137.052 33.0624 138.161 32.9645 139.27 32.7797C140.379 32.584 141.227 32.3339 141.825 32.0295L141.738 28.3657C141.325 28.8223 140.705 29.1811 139.879 29.442C139.053 29.7029 138.183 29.8334 137.281 29.8334C136.107 29.8334 135.085 29.5725 134.215 29.0615C133.334 28.5505 132.856 27.9526 132.769 27.2676L132.943 27.1589C134.128 28.0613 135.596 28.3657 137.509 28.3657C140.412 28.3657 142.075 27.3437 142.075 25.289C142.075 24.4518 141.814 23.7017 141.173 23.0059C140.26 22.0056 138.444 21.3098 135.617 21.299C133.28 21.299 131.356 21.9622 130.181 23.0385C128.996 24.1257 128.355 25.5607 128.355 27.1807C128.355 28.9419 129.04 30.3661 130.421 31.4424C131.801 32.5188 133.639 33.0624 135.954 33.0624ZM135.574 27.0937C134.411 27.0937 133.53 26.811 132.921 26.2457C133.019 25.626 133.302 25.1585 133.747 24.8323C134.193 24.517 134.715 24.354 135.302 24.354C136.618 24.354 137.444 24.9193 137.444 25.7999C137.444 26.1804 137.259 26.4849 136.889 26.724C136.52 26.9741 136.085 27.0937 135.574 27.0937ZM149.773 32.7471C149.446 31.9099 149.283 30.7901 149.283 29.3877V28.3874C149.283 27.4633 149.62 26.7023 150.284 26.0935C150.947 25.4846 151.74 25.1802 152.654 25.1802C153.708 25.1802 154.774 25.626 155.339 26.2239V21.636C154.828 21.4077 154.241 21.299 153.567 21.299C151.436 21.299 149.979 22.7558 149.555 25.3324H149.283V24.6693C149.283 24.1365 149.349 23.5821 149.49 23.0059C149.62 22.4296 149.816 21.973 150.066 21.6143H143.695C144.032 23.1037 144.206 24.7454 144.206 26.5392V28.3874C144.206 29.2789 144.163 30.0291 144.087 30.6379C144.01 31.2576 143.88 31.9534 143.695 32.7471H149.773Z" fill="white"/>
</svg>
