<svg width="151" height="60" viewBox="0 0 151 60" fill="none" xmlns="http://www.w3.org/2000/svg">
<rect x="0.650391" y="27.8531" width="60.0487" height="28.281" transform="rotate(-9.53873 0.650391 27.8531)" fill="#F77655"/>
<rect x="59.8691" y="17.9019" width="86.7801" height="28.281" transform="rotate(-9.53873 59.8691 17.9019)" fill="#F77655"/>
<rect x="5.39696" y="29.2159" width="24.4069" height="24.4069" transform="rotate(-9.53873 5.39696 29.2159)" stroke="black" stroke-width="0.387411"/>
<rect x="64.6157" y="19.2651" width="24.4069" height="24.4069" transform="rotate(-9.53873 64.6157 19.2651)" stroke="black" stroke-width="0.387411"/>
<rect x="31.7583" y="24.7863" width="24.4069" height="24.4069" transform="rotate(-9.53873 31.7583 24.7863)" stroke="black" stroke-width="0.387411"/>
<rect x="90.977" y="14.8351" width="24.4069" height="24.4069" transform="rotate(-9.53873 90.977 14.8351)" stroke="black" stroke-width="0.387411"/>
<rect x="117.338" y="10.4055" width="24.4069" height="24.4069" transform="rotate(-9.53873 117.338 10.4055)" stroke="black" stroke-width="0.387411"/>
<path d="M21.2669 48.9784C23.7832 48.5556 25.879 47.3735 27.2578 45.6284C28.6366 43.8834 29.2447 41.4013 28.776 38.612C28.3113 35.8464 26.9233 33.6876 25.0499 32.489C23.1784 31.3023 20.8094 30.8583 18.293 31.2811C15.7886 31.702 13.6948 32.8959 12.3258 34.6271C10.9471 36.3722 10.3409 38.8661 10.8057 41.6317C11.7492 47.3191 16.2956 49.826 21.2669 48.9784ZM20.6745 45.4532C19.4045 45.6666 18.2782 45.3555 17.2976 44.5317C16.3171 43.7079 15.6843 42.4839 15.411 40.8578C15.1378 39.2317 15.3358 37.8681 15.9932 36.7691C16.6507 35.67 17.6154 35.0197 18.8854 34.8063C20.1673 34.5909 21.3035 34.8882 22.2959 35.71C23.2764 36.5338 23.9093 37.7578 24.1825 39.3839C24.4558 41.01 24.2577 42.3736 23.6003 43.4726C22.931 44.5736 21.9564 45.2378 20.6745 45.4532Z" fill="black"/>
<path d="M44.2933 44.7551C43.7951 43.5329 43.3674 41.8596 43.0084 39.7231L42.6693 37.7053L49.6367 36.5345L49.9758 38.5523C50.3368 40.7006 50.4677 42.4239 50.3705 43.7339L55.7236 42.8344C55.1856 41.5213 54.7441 39.838 54.4031 37.8083L53.2582 30.9953C52.9171 28.9656 52.7842 27.2305 52.8635 25.8136L47.5104 26.7132C48.0304 27.9195 48.4699 29.5909 48.8309 31.7392L49.176 33.7926L42.2086 34.9634L41.8636 32.91C41.5045 30.7735 41.3618 29.0522 41.4332 27.7343L36.092 28.6319C36.612 29.8382 37.0515 31.5096 37.4125 33.6579L38.5574 40.471C38.9184 42.6194 39.0493 44.3426 38.9521 45.6526L44.2933 44.7551Z" fill="black"/>
<path d="M82.7898 38.2861C82.2677 36.9948 81.9038 35.7012 81.6844 34.3955L81.3135 32.1878L84.1345 25.8068C85.0555 23.5162 85.9671 21.6056 86.8614 20.1006L81.1166 21.0659C80.7586 22.6395 80.408 23.8944 80.0511 24.8209L78.453 28.2382L78.2037 28.2801L75.6041 25.5926C74.9104 24.7328 74.169 23.6613 73.3659 22.3683L67.6329 23.3317C68.865 24.3451 70.3372 25.843 72.0633 27.8352L76.8387 32.9398L77.2057 35.1237C77.4271 36.4412 77.508 37.7945 77.4367 39.1857L82.7898 38.2861Z" fill="black"/>
<path d="M113.808 33.0739L113.631 27.8801C113.325 28.1635 112.866 28.4115 112.233 28.6398C111.602 28.8801 110.579 29.113 109.155 29.3523L103.493 30.3037L103.037 27.5856L108.01 26.7499C109.304 26.5325 110.224 26.4145 110.784 26.4059L110.299 23.5216C109.589 23.7263 108.669 23.9175 107.565 24.103L102.592 24.9387L102.105 22.0426L108.099 21.0354C109.156 20.8578 109.957 20.7598 110.505 20.7531C111.053 20.7465 111.494 20.831 111.801 20.9869L110.259 16.1689L96.4553 18.4885C96.9753 19.6948 97.4148 21.3662 97.7758 23.5146L98.9207 30.3276C99.2817 32.476 99.4126 34.1992 99.3154 35.5092L113.808 33.0739Z" fill="black"/>
<path d="M133.024 30.1989C134.579 29.9376 135.924 29.5163 137.057 28.9232C138.18 28.3439 139.02 27.6048 139.587 26.6918C140.156 25.7908 140.342 24.7952 140.157 23.6914C139.682 20.8665 137.317 20.2265 134.768 20.0934C131.596 19.9552 128.154 20.6068 127.881 18.9075C127.711 17.8986 128.98 17.1727 131.152 16.8077C132.339 16.6082 133.531 16.579 134.736 16.706C135.941 16.833 136.923 17.083 137.703 17.4401L136.881 12.5498C136.056 12.359 135.036 12.2496 133.835 12.2195C132.622 12.1915 131.439 12.2682 130.276 12.4637C125.805 13.1661 122.716 15.8454 123.304 19.0541C124.395 25.5466 135.04 21.0606 135.505 23.8262C135.665 24.9222 134.204 25.6681 132.17 25.9854C130.805 26.2148 129.394 26.2444 127.914 26.0782C126.434 25.912 125.147 25.5179 124.044 24.91L124.7 30.0477C125.838 30.2837 127.215 30.4184 128.844 30.4498C130.472 30.4813 131.861 30.3943 133.024 30.1989Z" fill="black"/>
</svg>
