<svg width="204" height="204" viewBox="0 0 204 204" fill="none" xmlns="http://www.w3.org/2000/svg">
<g filter="url(#filter0_d_706:4405)">
<circle cx="101.94" cy="99.4701" r="87.9394" transform="rotate(180 101.94 99.4701)" fill="#F4B5C2" stroke="#E63D25" stroke-width="3.57719"/>
<mask id="path-2-inside-1_706:4405" fill="white">
<path d="M38.0921 140.677C30.0622 128.234 25.8426 113.717 25.9519 98.9094C26.0613 84.1016 30.4948 69.6483 38.7076 57.3262L40.2597 58.3606C32.2485 70.3803 27.9238 84.4788 27.8171 98.9232C27.7104 113.368 31.8265 127.528 39.6593 139.665L38.0921 140.677Z"/>
</mask>
<path d="M38.0921 140.677C30.0622 128.234 25.8426 113.717 25.9519 98.9094C26.0613 84.1016 30.4948 69.6483 38.7076 57.3262L40.2597 58.3606C32.2485 70.3803 27.9238 84.4788 27.8171 98.9232C27.7104 113.368 31.8265 127.528 39.6593 139.665L38.0921 140.677Z" fill="#F4B5C2" stroke="#E63D25" stroke-width="2.45127" mask="url(#path-2-inside-1_706:4405)"/>
<mask id="path-3-inside-2_706:4405" fill="white">
<path d="M165.787 140.677C173.816 128.234 178.036 113.717 177.927 98.9094C177.817 84.1016 173.384 69.6483 165.171 57.3262L163.619 58.3606C171.63 70.3803 175.955 84.4788 176.062 98.9232C176.168 113.368 172.052 127.528 164.219 139.665L165.787 140.677Z"/>
</mask>
<path d="M165.787 140.677C173.816 128.234 178.036 113.717 177.927 98.9094C177.817 84.1016 173.384 69.6483 165.171 57.3262L163.619 58.3606C171.63 70.3803 175.955 84.4788 176.062 98.9232C176.168 113.368 172.052 127.528 164.219 139.665L165.787 140.677Z" fill="#F4B5C2" stroke="#E63D25" stroke-width="2.45127" mask="url(#path-3-inside-2_706:4405)"/>
<path d="M152.527 144.809C153.183 145.569 153.907 146.698 154.699 148.196L155.398 149.517L152.36 152.019C151.643 152.609 151.048 153.05 150.587 153.321L151.714 155.454C152.008 155.127 152.564 154.633 153.385 153.957L156.422 151.455L157.559 153.606L153.716 156.771C153.073 157.3 152.564 157.683 152.2 157.897C151.836 158.112 151.526 158.209 151.266 158.217L153.586 161.361L162.271 154.209C161.604 153.47 160.868 152.339 160.058 150.806L157.489 145.947C156.679 144.415 156.135 143.126 155.853 142.07L152.527 144.809Z" fill="#E63D25"/>
<path d="M135.705 157.034C134.513 158.289 133.966 159.666 133.911 161.106C133.89 161.818 133.998 162.523 134.236 163.201C134.474 163.879 134.817 164.456 135.25 164.919C136.133 165.836 137.311 166.279 138.869 166.04C139.647 165.917 140.464 165.62 141.321 165.151C142.178 164.682 142.906 164.133 143.506 163.503C144.702 162.234 145.239 160.853 145.288 159.426C145.317 158.71 145.209 158.004 144.971 157.327C144.733 156.649 144.393 156.081 143.952 155.623C143.077 154.701 141.897 154.248 140.342 154.496C139.561 154.611 138.744 154.908 137.887 155.376C137.03 155.845 136.302 156.395 135.705 157.034ZM140.71 157.397C141.346 157.641 141.795 158.149 142.065 158.917C142.335 159.685 142.333 160.45 142.046 161.2C141.758 161.95 141.256 162.516 140.534 162.911C139.811 163.306 139.138 163.384 138.501 163.14C137.873 162.891 137.421 162.374 137.151 161.606C136.881 160.838 136.886 160.082 137.165 159.337C137.452 158.587 137.951 158.012 138.674 157.617C139.396 157.222 140.073 157.153 140.71 157.397Z" fill="#E63D25"/>
<path d="M124.536 161.94C125.02 162.928 125.449 164.228 125.819 165.823L127.063 171.177C127.434 172.772 127.629 174.157 127.644 175.315L131.66 173.861C131.198 172.926 130.778 171.622 130.395 169.971L129.151 164.618C128.767 162.967 128.563 161.585 128.552 160.486L124.536 161.94Z" fill="#E63D25"/>
<path d="M116.25 164.364C116.66 165.394 116.991 166.727 117.241 168.345L118.08 173.777C118.33 175.395 118.42 176.787 118.346 177.934L122.498 176.935C122.106 175.959 121.783 174.623 121.525 172.948L120.686 167.517C120.427 165.842 120.328 164.452 120.402 163.365L116.25 164.364Z" fill="#E63D25"/>
<path d="M103.755 166.207C102.224 166.858 101.286 167.888 100.811 169.181C100.583 169.821 100.482 170.51 100.516 171.228C100.55 171.945 100.716 172.614 101.004 173.217C101.598 174.42 102.618 175.314 104.21 175.743C105.006 175.952 105.891 176.021 106.865 175.948C107.839 175.876 108.711 175.677 109.481 175.351C111.021 174.689 111.949 173.651 112.415 172.368C112.652 171.727 112.754 171.038 112.719 170.32C112.685 169.603 112.52 168.943 112.223 168.342C111.638 167.137 110.617 166.234 109.026 165.815C108.23 165.596 107.345 165.527 106.371 165.6C105.397 165.672 104.525 165.871 103.755 166.207ZM108.537 168.616C109.087 169.103 109.377 169.753 109.416 170.566C109.454 171.379 109.229 172.077 108.729 172.642C108.229 173.207 107.573 173.515 106.752 173.576C105.93 173.637 105.25 173.429 104.699 172.942C104.159 172.454 103.868 171.794 103.829 170.981C103.791 170.168 104.016 169.48 104.507 168.915C105.007 168.35 105.663 168.033 106.484 167.972C107.305 167.911 107.986 168.129 108.537 168.616Z" fill="#E63D25"/>
<path d="M90.2835 165.314L87.7224 170.71L87.5054 170.672L86.2075 164.609L81.6126 163.814C81.5615 164.62 81.3027 165.652 80.835 166.919L79.4239 170.186C79.0119 171.298 78.5287 172.272 77.9828 173.118L82.0021 173.814C82.0624 173.271 82.2266 172.572 82.4853 171.715L83.9037 168.381C84.0551 167.971 84.1727 167.69 84.2484 167.529L84.4465 167.563L85.88 174.484L88.4369 174.927L91.3268 168.734L91.5155 168.767C91.6157 169.337 91.6773 169.648 91.6898 169.709L92.2789 173.409C92.3726 174.211 92.3877 174.941 92.3147 175.598L96.3718 176.299C96.08 175.551 95.8366 174.451 95.6241 172.989L94.9447 169.321C94.8613 168.773 94.8189 168.203 94.8078 167.61C94.7968 167.016 94.8235 166.516 94.8878 166.11L90.2835 165.314Z" fill="#E63D25"/>
<path d="M63.5726 155.277C61.7783 154.268 60.2006 153.966 58.8511 154.366C57.51 154.771 56.515 155.858 55.8743 157.633L54.5214 161.379C53.9328 163.009 53.3593 164.236 52.7976 165.069L56.5615 167.186C56.7073 166.087 57.0755 164.733 57.6511 163.139L58.6852 160.275C59.0267 159.33 59.522 158.709 60.1627 158.408C60.8117 158.113 61.5352 158.194 62.3364 158.645C63.1292 159.091 63.6409 159.704 63.8849 160.502C64.1288 161.3 64.0842 162.174 63.7428 163.12L62.7086 165.984C62.1037 167.659 61.5469 168.895 61.0265 169.697L64.782 171.809C64.8837 170.805 65.2403 169.456 65.8549 167.754L67.2078 164.007C67.881 162.143 67.8037 160.355 67.1074 158.891C66.4145 157.417 65.2084 156.197 63.5726 155.277Z" fill="#E63D25"/>
<path d="M50.2347 145.373C48.9913 144.322 47.8816 143.753 46.9128 143.671C45.9441 143.588 45.2232 143.974 44.7529 144.84C42.995 148.081 49.1414 151.261 48.3927 152.642C48.137 153.113 47.3802 152.916 46.4148 152.1C45.8296 151.605 45.2902 151.027 44.8083 150.362C44.3264 149.697 43.9706 149.114 43.7264 148.601L42.4343 150.983C43.2254 152.375 44.2047 153.559 45.3676 154.541C46.5597 155.549 47.6182 156.075 48.5578 156.132C49.4973 156.19 50.1688 155.837 50.5843 155.071C51.4792 153.421 50.38 151.829 49.1502 150.459C47.9278 149.094 46.582 147.957 46.9884 147.208C47.2806 146.669 48.0045 146.888 49.1528 147.859C49.7013 148.322 50.2828 148.961 50.9001 149.789C51.5246 150.624 52.0093 151.402 52.3615 152.129L53.7723 149.528C53.4184 148.922 52.8825 148.199 52.1693 147.351C51.4515 146.511 50.8051 145.855 50.2347 145.373Z" fill="#E63D25"/>
<path d="M48.9003 54.1314C48.244 53.3717 47.5199 52.2427 46.7278 50.7444L46.0296 49.4238L49.0675 46.922C49.7845 46.3316 50.3789 45.8907 50.8405 45.6199L49.7128 43.4867C49.4189 43.8138 48.8631 44.3079 48.0427 44.9835L45.0048 47.4853L43.8681 45.3352L47.7117 42.1699C48.3547 41.6403 48.8634 41.2579 49.2273 41.0432C49.5913 40.8285 49.9007 40.7316 50.1616 40.7234L47.8417 37.5793L39.1567 44.7316C39.8233 45.4706 40.5593 46.602 41.3693 48.1342L43.9381 52.9932C44.7481 54.5254 45.2919 55.815 45.5741 56.8706L48.9003 54.1314Z" fill="#E63D25"/>
<path d="M65.7224 41.9069C66.9138 40.6518 67.4616 39.2749 67.5163 37.8341C67.5368 37.1227 67.4291 36.417 67.191 35.7394C66.953 35.0619 66.6101 34.4848 66.177 34.0217C65.294 33.1047 64.1167 32.6611 62.5582 32.9C61.7805 33.0239 60.9633 33.3203 60.1065 33.7892C59.2497 34.258 58.5214 34.8074 57.9215 35.4372C56.7248 36.706 56.1885 38.0873 56.1391 39.5145C56.1102 40.2304 56.2179 40.9362 56.456 41.6137C56.694 42.2913 57.0337 42.8593 57.4752 43.3178C58.3498 44.2394 59.5303 44.6921 61.0856 44.4442C61.8665 44.3292 62.6837 44.0328 63.5405 43.564C64.3973 43.0951 65.1256 42.5458 65.7224 41.9069ZM60.7176 41.5436C60.081 41.2995 59.6321 40.7912 59.3623 40.0233C59.0926 39.2555 59.094 38.4899 59.3815 37.7403C59.6689 36.9906 60.1712 36.4249 60.8936 36.0296C61.616 35.6343 62.2897 35.5565 62.9262 35.8005C63.5544 36.0492 64.0065 36.5665 64.2763 37.3344C64.546 38.1023 64.5414 38.8588 64.2624 39.6039C63.9749 40.3535 63.4758 40.9282 62.7534 41.3235C62.031 41.7188 61.3541 41.7876 60.7176 41.5436Z" fill="#E63D25"/>
<path d="M76.8912 37.0005C76.4079 36.0127 75.9788 34.712 75.6082 33.1171L74.3641 27.7635C73.9935 26.1686 73.7985 24.7832 73.7833 23.6259L69.7677 25.0794C70.229 26.0145 70.6492 27.3185 71.0328 28.9693L72.2768 34.3229C72.6604 35.9737 72.8645 37.3559 72.8756 38.454L76.8912 37.0005Z" fill="#E63D25"/>
<path d="M85.1777 34.5768C84.7676 33.5468 84.4361 32.2133 84.1861 30.5951L83.3471 25.1633C83.0971 23.5451 83.0076 22.1533 83.0816 21.0068L78.9295 22.0058C79.3216 22.9813 79.6438 24.3171 79.9025 25.9921L80.7415 31.4239C81.0003 33.0988 81.099 34.4884 81.0256 35.5758L85.1777 34.5768Z" fill="#E63D25"/>
<path d="M97.6724 32.7338C99.2033 32.0824 100.141 31.0528 100.616 29.7601C100.844 29.1193 100.946 28.4303 100.911 27.7129C100.877 26.9956 100.711 26.3265 100.423 25.724C99.8293 24.5204 98.8092 23.6268 97.2172 23.1981C96.4214 22.9885 95.5365 22.9199 94.5625 22.9924C93.5885 23.0648 92.7164 23.264 91.9462 23.5901C90.4062 24.2517 89.4783 25.2901 89.0125 26.5725C88.7748 27.2141 88.6735 27.9031 88.7078 28.6205C88.742 29.3378 88.9077 29.9973 89.2047 30.5991C89.7893 31.8035 90.8098 32.7066 92.4014 33.1257C93.1977 33.3449 94.0826 33.4135 95.0566 33.341C96.0305 33.2686 96.9026 33.0694 97.6724 32.7338ZM92.8906 30.325C92.3403 29.8381 92.0505 29.1877 92.0117 28.3748C91.9729 27.5618 92.1983 26.8635 92.6983 26.2984C93.1984 25.7333 93.8545 25.4254 94.6757 25.3643C95.4969 25.3033 96.1777 25.5118 96.728 25.9988C97.2687 26.4865 97.559 27.1464 97.5978 27.9593C97.6366 28.7723 97.4108 29.461 96.9202 30.0254C96.4202 30.5905 95.7645 30.908 94.9433 30.9691C94.1221 31.0301 93.4409 30.812 92.8906 30.325Z" fill="#E63D25"/>
<path d="M111.144 33.6266L113.705 28.2305L113.922 28.268L115.22 34.3317L119.814 35.1267C119.865 34.3207 120.124 33.2888 120.592 32.0215L122.003 28.7544C122.415 27.6423 122.898 26.6686 123.444 25.8222L119.425 25.1269C119.365 25.6693 119.2 26.3684 118.942 27.2257L117.523 30.5595C117.372 30.9698 117.254 31.2501 117.179 31.4116L116.98 31.3773L115.547 24.456L112.99 24.0137L110.1 30.2064L109.911 30.1738C109.811 29.6036 109.75 29.2923 109.737 29.2319L109.148 25.5314C109.054 24.7295 109.039 23.9995 109.112 23.3428L105.055 22.6409C105.347 23.3898 105.59 24.4892 105.803 25.9518L106.482 29.6194C106.566 30.1673 106.608 30.7372 106.619 31.3308C106.63 31.9244 106.604 32.4241 106.539 32.8301L111.144 33.6266Z" fill="#E63D25"/>
<path d="M137.854 43.6635C139.649 44.6727 141.226 44.975 142.576 44.5747C143.917 44.1696 144.912 43.0823 145.553 41.3081L146.906 37.5616C147.494 35.9315 148.068 34.7046 148.629 33.872L144.866 31.755C144.72 32.854 144.352 34.2072 143.776 35.8013L142.742 38.6652C142.4 39.6109 141.905 40.2316 141.264 40.5322C140.615 40.8281 139.892 40.7462 139.091 40.2956C138.298 39.8496 137.786 39.2368 137.542 38.4386C137.298 37.6405 137.343 36.7662 137.684 35.8206L138.718 32.9566C139.323 31.2815 139.88 30.0453 140.401 29.2436L136.645 27.1313C136.543 28.1359 136.187 29.4848 135.572 31.187L134.219 34.9335C133.546 36.7978 133.623 38.5857 134.32 40.05C135.013 41.5233 136.219 42.7434 137.854 43.6635Z" fill="#E63D25"/>
<path d="M151.193 53.5677C152.436 54.6183 153.546 55.1878 154.514 55.2699C155.483 55.352 156.204 54.9669 156.674 54.1C158.432 50.8596 152.286 47.679 153.035 46.2987C153.29 45.8273 154.047 46.0249 155.012 46.8407C155.598 47.3351 156.137 47.9137 156.619 48.5787C157.101 49.2436 157.457 49.8266 157.701 50.3398L158.993 47.9579C158.202 46.5652 157.223 45.3817 156.06 44.3991C154.868 43.3918 153.809 42.8656 152.869 42.8082C151.93 42.7508 151.258 43.1039 150.843 43.8698C149.948 45.5195 151.047 47.1111 152.277 48.4817C153.499 49.8461 154.845 50.9832 154.439 51.7323C154.147 52.2709 153.423 52.0521 152.274 51.0818C151.726 50.6183 151.144 49.9796 150.527 49.1512C149.903 48.3166 149.418 47.5388 149.066 46.8116L147.655 49.4123C148.009 50.0182 148.545 50.7411 149.258 51.5892C149.976 52.4289 150.622 53.0856 151.193 53.5677Z" fill="#E63D25"/>
<path d="M102.008 89.7089C96.5953 89.7089 92.1781 94.1262 92.1781 99.539C92.1781 104.952 96.5953 109.369 102.008 109.369C107.421 109.369 111.838 104.952 111.838 99.539C111.838 94.1262 107.421 89.7089 102.008 89.7089ZM131.491 99.539C131.491 95.4683 131.528 91.4345 131.299 87.3712C131.071 82.6516 129.994 78.4629 126.543 75.0117C123.084 71.5531 118.903 70.4838 114.183 70.2552C110.113 70.0266 106.079 70.0635 102.016 70.0635C97.9449 70.0635 93.9111 70.0266 89.8478 70.2552C85.1281 70.4838 80.9395 71.5605 77.4883 75.0117C74.0297 78.4703 72.9604 82.6516 72.7318 87.3712C72.5032 91.4419 72.54 95.4757 72.54 99.539C72.54 103.602 72.5032 107.643 72.7318 111.707C72.9604 116.426 74.037 120.615 77.4883 124.066C80.9469 127.525 85.1281 128.594 89.8478 128.823C93.9184 129.051 97.9522 129.014 102.016 129.014C106.086 129.014 110.12 129.051 114.183 128.823C118.903 128.594 123.092 127.517 126.543 124.066C130.001 120.608 131.071 116.426 131.299 111.707C131.535 107.643 131.491 103.61 131.491 99.539ZM102.008 114.664C93.6382 114.664 86.8833 107.909 86.8833 99.539C86.8833 91.169 93.6382 84.4141 102.008 84.4141C110.378 84.4141 117.133 91.169 117.133 99.539C117.133 107.909 110.378 114.664 102.008 114.664ZM117.753 87.327C115.798 87.327 114.22 85.7488 114.22 83.7946C114.22 81.8404 115.798 80.2623 117.753 80.2623C119.707 80.2623 121.285 81.8404 121.285 83.7946C121.285 84.2586 121.194 84.7182 121.017 85.1471C120.84 85.5759 120.58 85.9655 120.252 86.2937C119.923 86.6218 119.534 86.8819 119.105 87.0593C118.676 87.2366 118.217 87.3275 117.753 87.327Z" fill="#E63D25"/>
</g>
<defs>
<filter id="filter0_d_706:4405" x="0.287688" y="0.203002" width="203.304" height="203.304" filterUnits="userSpaceOnUse" color-interpolation-filters="sRGB">
<feFlood flood-opacity="0" result="BackgroundImageFix"/>
<feColorMatrix in="SourceAlpha" type="matrix" values="0 0 0 0 0 0 0 0 0 0 0 0 0 0 0 0 0 0 127 0" result="hardAlpha"/>
<feOffset dy="2.3848"/>
<feGaussianBlur stdDeviation="5.96199"/>
<feComposite in2="hardAlpha" operator="out"/>
<feColorMatrix type="matrix" values="0 0 0 0 0 0 0 0 0 0 0 0 0 0 0 0 0 0 0.25 0"/>
<feBlend mode="normal" in2="BackgroundImageFix" result="effect1_dropShadow_706:4405"/>
<feBlend mode="normal" in="SourceGraphic" in2="effect1_dropShadow_706:4405" result="shape"/>
</filter>
</defs>
</svg>
