<svg width="711" height="80" viewBox="0 0 711 80" fill="none" xmlns="http://www.w3.org/2000/svg">
<path d="M68.2246 68.5098C71.248 68.5098 73.375 68.1934 75.3438 67.209C78.2266 65.7852 79.668 62.9023 79.7383 57.5586V51.916C79.7383 48.1016 80.0195 45.0605 80.5645 42.793H70.668C71.2129 45.0605 71.4941 48.1016 71.4941 51.916V55.9062C71.4941 57.6992 71.0547 59.1582 70.1934 60.3008C69.332 61.4434 68.084 62.0234 66.4844 62.0234C64.2168 62.0234 62.5645 61.1797 61.5273 59.5098L60.4375 66.9277C61.2812 67.3848 62.3887 67.7539 63.7773 68.0703C65.1484 68.3691 66.625 68.5098 68.2246 68.5098ZM96.7012 68.5098C100.48 68.5098 103.768 67.3672 106.246 65.2402C108.707 63.1133 110.201 59.6328 110.201 55.3965C110.201 52.0039 109.234 49.0684 107.6 47.0117C105.104 43.9004 101.201 42.3008 96.7012 42.3008C92.9043 42.3008 89.582 43.4609 87.1211 45.5703C84.6426 47.6973 83.1309 51.1777 83.1309 55.3965C83.1309 59.6328 84.6426 63.1133 87.1211 65.2402C89.582 67.3672 92.9043 68.5098 96.7012 68.5098ZM96.7012 62.0938C95.2422 62.0938 94.0469 61.4961 93.1152 60.3184C92.166 59.1406 91.6914 57.4883 91.6914 55.3965C91.6914 53.3047 92.166 51.6699 93.0977 50.4922C94.0293 49.3145 95.2422 48.7344 96.7012 48.7344C98.1426 48.7344 99.3379 49.3145 100.27 50.4922C101.201 51.6699 101.676 53.3047 101.676 55.3965C101.676 57.4883 101.201 59.1406 100.27 60.3184C99.3379 61.4961 98.1426 62.0938 96.7012 62.0938ZM122.523 68C121.979 65.7324 121.697 62.709 121.697 58.8945V51.916C121.697 48.1016 121.979 45.0605 122.523 42.793H112.662C113.189 45.0957 113.453 48.1367 113.453 51.916V58.8945C113.453 62.6562 113.189 65.6973 112.662 68H122.523ZM136.199 68C135.971 67.0684 135.777 65.6445 135.619 63.6934C135.461 61.7422 135.373 59.9492 135.373 58.3145V54.1484H135.9L145.164 68H152.898V51.916C152.898 48.1016 153.18 45.0605 153.725 42.793H143.863C144.074 43.6895 144.268 45.0254 144.426 46.8359C144.584 48.6465 144.654 50.2988 144.654 51.793V56.082H144.145L135.25 42.8633L126.338 42.793C126.883 45.2012 127.164 48.2422 127.164 51.916V58.8945C127.164 62.5508 126.883 65.5918 126.338 68H136.199ZM182.816 68C182.271 65.5918 181.99 62.5508 181.99 58.8945V51.0723H185.119C186.982 51.0723 188.6 51.4766 189.988 52.2676L188.617 42.793H166.943L165.572 52.2676C166.926 51.4766 168.543 51.0723 170.424 51.0723H173.781V58.8945C173.781 62.5508 173.5 65.5918 172.955 68H182.816ZM202.469 68C201.924 65.7324 201.643 62.709 201.643 58.8945V57.1367H209.482V58.8945C209.482 62.6562 209.219 65.6973 208.691 68H218.553C218.008 65.7324 217.727 62.709 217.727 58.8945V51.916C217.727 48.1016 218.008 45.0605 218.553 42.793H208.691C209.219 45.0957 209.482 48.1367 209.482 51.916V53.5332H201.643V51.916C201.643 48.1016 201.924 45.0605 202.469 42.793H192.607C193.152 45.2012 193.434 48.2422 193.434 51.916V58.8945C193.434 62.5508 193.152 65.5918 192.607 68H202.469ZM244.516 68L245.816 58.5957C245.236 59 244.357 59.3164 243.215 59.5625C242.072 59.8086 240.227 59.9316 237.678 59.9316H231.35V57.207H237.133C238.979 57.207 240.455 57.2773 241.562 57.418V53.709C240.578 53.7969 239.102 53.8496 237.133 53.8496H231.35V50.8965H238.68C240.438 50.8965 241.773 50.9844 242.688 51.1426C243.602 51.3008 244.287 51.582 244.727 51.9863L243.514 42.793H222.35C222.596 43.918 222.789 45.3242 222.947 47.0293C223.105 48.7344 223.176 50.3516 223.176 51.916V58.8945C223.176 60.459 223.105 62.0762 222.947 63.7637C222.789 65.4512 222.596 66.8574 222.35 68H244.516ZM271.779 68.5098C273.906 68.5098 275.787 68.3691 277.439 68.1055C279.074 67.8242 280.727 67.4199 282.396 66.8926V57.4531C281.359 58.3496 280.059 59.0703 278.494 59.6152C276.93 60.1602 275.26 60.4414 273.502 60.4414C269.213 60.4414 265.363 58.9824 265.363 55.4668C265.363 53.8672 266.119 52.6191 267.613 51.7051C269.107 50.8086 271.041 50.3516 273.396 50.3516C274.785 50.3516 276.174 50.5625 277.545 50.9844C278.898 51.4238 279.988 51.9512 280.814 52.584L280.885 43.8477C279.848 43.3906 278.512 43.0215 276.895 42.7227C275.277 42.4414 273.59 42.3008 271.814 42.3008C268.844 42.3008 265.979 42.916 263.412 44.3223C262.129 45.0254 261.004 45.8867 260.055 46.8887C258.139 48.9102 256.908 51.8984 256.908 55.3965C256.908 58.9121 258.121 61.918 260.037 63.9395C262.92 66.998 267.367 68.5625 271.779 68.5098ZM297.619 68.5098C301.398 68.5098 304.686 67.3672 307.164 65.2402C309.625 63.1133 311.119 59.6328 311.119 55.3965C311.119 52.0039 310.152 49.0684 308.518 47.0117C306.021 43.9004 302.119 42.3008 297.619 42.3008C293.822 42.3008 290.5 43.4609 288.039 45.5703C285.561 47.6973 284.049 51.1777 284.049 55.3965C284.049 59.6328 285.561 63.1133 288.039 65.2402C290.5 67.3672 293.822 68.5098 297.619 68.5098ZM297.619 62.0938C296.16 62.0938 294.965 61.4961 294.033 60.3184C293.084 59.1406 292.609 57.4883 292.609 55.3965C292.609 53.3047 293.084 51.6699 294.016 50.4922C294.947 49.3145 296.16 48.7344 297.619 48.7344C299.061 48.7344 300.256 49.3145 301.188 50.4922C302.119 51.6699 302.594 53.3047 302.594 55.3965C302.594 57.4883 302.119 59.1406 301.188 60.3184C300.256 61.4961 299.061 62.0938 297.619 62.0938ZM335.852 68.5449C336.748 68.5449 337.627 68.2988 338.488 67.8242C339.332 67.3496 339.93 66.7695 340.281 66.084L340.176 55.291C339.209 57.7344 337.592 58.9648 335.324 58.9648C334.357 58.9648 333.479 58.5078 332.775 57.9277C331.756 57.1016 330.648 56.0469 328.838 56.0469H328.768V55.8359H329.084C330.93 55.8359 332.564 55.5898 333.988 55.1152C335.412 54.6406 336.555 53.9023 337.416 52.8828C338.277 51.8809 338.699 50.668 338.699 49.2441C338.699 47.8555 338.26 46.6777 337.381 45.6758C335.605 43.707 332.617 42.793 328.873 42.793H313.58C314.125 45.2012 314.406 48.2422 314.406 51.916V58.8945C314.406 62.5508 314.125 65.5918 313.58 68H323.441C322.896 65.5918 322.615 62.5508 322.615 58.8945V57.418C322.932 57.2949 323.441 57.2422 324.162 57.2422C327.01 57.2422 327.941 59.4746 328.873 61.9531C329.998 65.0469 331.088 68.5625 335.852 68.5449ZM322.615 50.5801H327.432C329.137 50.5801 330.35 51.3887 330.35 52.6367C330.35 53.9727 329.154 54.7109 327.256 54.7109H322.615V50.5801ZM364.75 68L366.051 58.5957C365.471 59 364.592 59.3164 363.449 59.5625C362.307 59.8086 360.461 59.9316 357.912 59.9316H351.584V57.207H357.367C359.213 57.207 360.689 57.2773 361.797 57.418V53.709C360.812 53.7969 359.336 53.8496 357.367 53.8496H351.584V50.8965H358.914C360.672 50.8965 362.008 50.9844 362.922 51.1426C363.836 51.3008 364.521 51.582 364.961 51.9863L363.748 42.793H342.584C342.83 43.918 343.023 45.3242 343.182 47.0293C343.34 48.7344 343.41 50.3516 343.41 51.916V58.8945C343.41 60.459 343.34 62.0762 343.182 63.7637C343.023 65.4512 342.83 66.8574 342.584 68H364.75ZM390.713 68.5098C394.492 68.5098 397.779 67.3672 400.258 65.2402C402.719 63.1133 404.213 59.6328 404.213 55.3965C404.213 52.0039 403.246 49.0684 401.611 47.0117C399.115 43.9004 395.213 42.3008 390.713 42.3008C386.916 42.3008 383.594 43.4609 381.133 45.5703C378.654 47.6973 377.143 51.1777 377.143 55.3965C377.143 59.6328 378.654 63.1133 381.133 65.2402C383.594 67.3672 386.916 68.5098 390.713 68.5098ZM390.713 62.0938C389.254 62.0938 388.059 61.4961 387.127 60.3184C386.178 59.1406 385.703 57.4883 385.703 55.3965C385.703 53.3047 386.178 51.6699 387.109 50.4922C388.041 49.3145 389.254 48.7344 390.713 48.7344C392.154 48.7344 393.35 49.3145 394.281 50.4922C395.213 51.6699 395.688 53.3047 395.688 55.3965C395.688 57.4883 395.213 59.1406 394.281 60.3184C393.35 61.4961 392.154 62.0938 390.713 62.0938ZM416.535 68C415.955 65.6445 415.674 62.6562 415.674 59.0352V57.5586H421.387C423.408 57.5586 424.885 57.6113 425.816 57.7344V53.8496C424.832 53.9375 423.355 53.9902 421.387 53.9902H415.674V50.8965H423.338C425.078 50.8965 426.414 50.9844 427.346 51.1426C428.26 51.3008 428.945 51.582 429.385 51.9863L428.119 42.793H406.674C406.92 43.918 407.113 45.3242 407.271 47.0293C407.43 48.7344 407.5 50.3516 407.5 51.916V58.8945C407.5 60.459 407.43 62.0762 407.271 63.7637C407.113 65.4512 406.92 66.8574 406.674 68H416.535ZM455.049 68.5098C457.176 68.5098 459.057 68.3691 460.709 68.1055C462.344 67.8242 463.996 67.4199 465.666 66.8926V57.4531C464.629 58.3496 463.328 59.0703 461.764 59.6152C460.199 60.1602 458.529 60.4414 456.771 60.4414C452.482 60.4414 448.633 58.9824 448.633 55.4668C448.633 53.8672 449.389 52.6191 450.883 51.7051C452.377 50.8086 454.311 50.3516 456.666 50.3516C458.055 50.3516 459.443 50.5625 460.814 50.9844C462.168 51.4238 463.258 51.9512 464.084 52.584L464.154 43.8477C463.117 43.3906 461.781 43.0215 460.164 42.7227C458.547 42.4414 456.859 42.3008 455.084 42.3008C452.113 42.3008 449.248 42.916 446.682 44.3223C445.398 45.0254 444.273 45.8867 443.324 46.8887C441.408 48.9102 440.178 51.8984 440.178 55.3965C440.178 58.9121 441.391 61.918 443.307 63.9395C446.189 66.998 450.637 68.5625 455.049 68.5098ZM490.82 68.5449C491.717 68.5449 492.596 68.2988 493.457 67.8242C494.301 67.3496 494.898 66.7695 495.25 66.084L495.145 55.291C494.178 57.7344 492.561 58.9648 490.293 58.9648C489.326 58.9648 488.447 58.5078 487.744 57.9277C486.725 57.1016 485.617 56.0469 483.807 56.0469H483.736V55.8359H484.053C485.898 55.8359 487.533 55.5898 488.957 55.1152C490.381 54.6406 491.523 53.9023 492.385 52.8828C493.246 51.8809 493.668 50.668 493.668 49.2441C493.668 47.8555 493.229 46.6777 492.35 45.6758C490.574 43.707 487.586 42.793 483.842 42.793H468.549C469.094 45.2012 469.375 48.2422 469.375 51.916V58.8945C469.375 62.5508 469.094 65.5918 468.549 68H478.41C477.865 65.5918 477.584 62.5508 477.584 58.8945V57.418C477.9 57.2949 478.41 57.2422 479.131 57.2422C481.979 57.2422 482.91 59.4746 483.842 61.9531C484.967 65.0469 486.057 68.5625 490.82 68.5449ZM477.584 50.5801H482.4C484.105 50.5801 485.318 51.3887 485.318 52.6367C485.318 53.9727 484.123 54.7109 482.225 54.7109H477.584V50.5801ZM519.719 68L521.02 58.5957C520.439 59 519.561 59.3164 518.418 59.5625C517.275 59.8086 515.43 59.9316 512.881 59.9316H506.553V57.207H512.336C514.182 57.207 515.658 57.2773 516.766 57.418V53.709C515.781 53.7969 514.305 53.8496 512.336 53.8496H506.553V50.8965H513.883C515.641 50.8965 516.977 50.9844 517.891 51.1426C518.805 51.3008 519.49 51.582 519.93 51.9863L518.717 42.793H497.553C497.799 43.918 497.992 45.3242 498.15 47.0293C498.309 48.7344 498.379 50.3516 498.379 51.916V58.8945C498.379 60.459 498.309 62.0762 498.15 63.7637C497.992 65.4512 497.799 66.8574 497.553 68H519.719ZM531.285 68C531.285 66.752 531.566 64.959 532.146 62.6035L532.41 61.8125H539.494L539.775 62.5684C540.338 65.0117 540.637 66.8223 540.654 68H550.516C549.303 65.3809 548.213 62.3398 547.264 58.8945L544.785 51.916C544.381 50.4746 544.064 48.8926 543.801 47.1875C543.537 45.4824 543.361 44.0234 543.309 42.793H528.631C528.596 43.9707 528.438 45.3945 528.174 47.0996C527.91 48.8047 527.559 50.4219 527.154 51.916L524.658 58.8945C523.604 62.6387 522.514 65.6621 521.389 68H531.285ZM534.783 54.2891C535.082 53.3574 535.381 51.916 535.715 49.9297H536.189C536.488 51.7754 536.805 53.2344 537.156 54.2891L538.668 58.209H533.271L534.783 54.2891ZM565.422 68C564.877 65.5918 564.596 62.5508 564.596 58.8945V51.0723H567.725C569.588 51.0723 571.205 51.4766 572.594 52.2676L571.223 42.793H549.549L548.178 52.2676C549.531 51.4766 551.148 51.0723 553.029 51.0723H556.387V58.8945C556.387 62.5508 556.105 65.5918 555.561 68H565.422ZM585.074 68C584.529 65.7324 584.248 62.709 584.248 58.8945V51.916C584.248 48.1016 584.529 45.0605 585.074 42.793H575.213C575.74 45.0957 576.004 48.1367 576.004 51.916V58.8945C576.004 62.6562 575.74 65.6973 575.213 68H585.074ZM608.066 68C608.102 66.8574 608.26 65.4336 608.523 63.7285C608.787 62.041 609.139 60.4238 609.543 58.8945L612.021 51.916C612.426 50.2988 612.9 48.6465 613.48 46.959C614.061 45.2891 614.605 43.9004 615.133 42.793H605.254C605.219 44.2695 604.955 46.1855 604.463 48.5234L601.914 56.4863C601.562 57.8047 601.246 59.2637 600.947 60.8633H600.508C600.314 59.7207 599.98 58.2617 599.506 56.4863L596.975 48.5234C596.5 46.8008 596.236 44.8848 596.184 42.793H586.322C587.395 45.1309 588.432 48.1719 589.416 51.916L591.912 58.9297C592.281 60.459 592.615 62.0762 592.879 63.7461C593.143 65.4336 593.301 66.8574 593.336 68H608.066ZM626.242 68C625.697 65.7324 625.416 62.709 625.416 58.8945V51.916C625.416 48.1016 625.697 45.0605 626.242 42.793H616.381C616.908 45.0957 617.172 48.1367 617.172 51.916V58.8945C617.172 62.6562 616.908 65.6973 616.381 68H626.242ZM646.105 68C645.561 65.5918 645.279 62.5508 645.279 58.8945V51.0723H648.408C650.271 51.0723 651.889 51.4766 653.277 52.2676L651.906 42.793H630.232L628.861 52.2676C630.215 51.4766 631.832 51.0723 633.713 51.0723H637.07V58.8945C637.07 62.5508 636.789 65.5918 636.244 68H646.105ZM673.281 68C672.771 65.5918 672.525 63.3242 672.525 61.1973V59.2461L677.166 51.916C678.098 50.3164 679.152 48.6816 680.312 46.9766C681.455 45.2891 682.492 43.9004 683.389 42.793H672.912C672.016 45.1309 671.154 47.0996 670.328 48.6992L668.553 51.3359H668.166L666.408 48.7344C665.617 47.2051 664.773 45.2188 663.842 42.793H653.33C655.211 45.0957 657.285 48.1367 659.588 51.916L664.211 59.2109V61.127C664.211 63.5 663.947 65.8027 663.42 68H673.281Z" fill="#FBFFFE"/>
<g clip-path="url(#clip0_841:3651)">
<path d="M670.491 0.968139C670.491 10.6498 675.332 15.4906 685.013 15.4906M685.013 15.4906C675.332 15.4906 670.491 20.3315 670.491 30.0131M655.968 15.4906C665.65 15.4906 670.491 10.6498 670.491 0.96814M670.491 30.0131C670.491 20.3315 665.65 15.4906 655.968 15.4906" stroke="#009800" stroke-width="2"/>
</g>
<g clip-path="url(#clip1_841:3651)">
<path d="M691.813 15.6957C691.813 23.2132 695.572 26.972 703.089 26.972M703.089 26.972C695.572 26.972 691.813 30.7307 691.813 38.2483M680.537 26.972C688.054 26.972 691.813 23.2132 691.813 15.6957M691.813 38.2483C691.813 30.7307 688.054 26.972 680.537 26.972" stroke="#009800" stroke-width="2"/>
</g>
<path d="M701.108 2.40332C701.108 8.21232 704.012 11.1168 709.821 11.1168M709.821 11.1168C704.012 11.1168 701.108 14.0213 701.108 19.8303M692.394 11.1168C698.203 11.1168 701.108 8.21232 701.108 2.40332M701.108 19.8303C701.108 14.0213 698.203 11.1168 692.394 11.1168" stroke="#009800" stroke-width="2"/>
<path d="M15.4907 1.96814C15.4907 11.6498 20.3315 16.4906 30.0132 16.4906M30.0132 16.4906C20.3315 16.4906 15.4907 21.3315 15.4907 31.0131M0.968205 16.4906C10.6499 16.4906 15.4907 11.6498 15.4907 1.96814M15.4907 31.0131C15.4907 21.3315 10.6499 16.4906 0.968205 16.4906" stroke="#C04397" stroke-width="2"/>
<path d="M46.9226 22.0602C46.9226 29.5777 50.6813 33.3365 58.1989 33.3365M58.1989 33.3365C50.6813 33.3365 46.9226 37.0952 46.9226 44.6128M35.6463 33.3365C43.1638 33.3365 46.9226 29.5777 46.9226 22.0602M46.9226 44.6128C46.9226 37.0952 43.1638 33.3365 35.6463 33.3365" stroke="#C04397" stroke-width="2"/>
<path d="M61.1235 4.05743C61.1235 9.86643 64.028 12.7709 69.837 12.7709M69.837 12.7709C64.028 12.7709 61.1235 15.6754 61.1235 21.4844M52.41 12.7709C58.219 12.7709 61.1235 9.86643 61.1235 4.05743M61.1235 21.4844C61.1235 15.6754 58.219 12.7709 52.41 12.7709" stroke="#C04397" stroke-width="2"/>
<defs>
<clipPath id="clip0_841:3651">
<rect width="30.9813" height="30.9813" fill="white" transform="translate(655)"/>
</clipPath>
<clipPath id="clip1_841:3651">
<rect width="24.0561" height="24.0561" fill="white" transform="translate(679.785 14.9439)"/>
</clipPath>
</defs>
</svg>
