<svg width="408" height="310" viewBox="0 0 408 310" fill="none" xmlns="http://www.w3.org/2000/svg">
<path d="M63.4467 154.871V169.895H59.7142V154.871H53.9115V151.985H69.2494V154.871H63.4467ZM83.8904 169.895L82.3221 165.316H75.4843L73.8847 169.895H70.1522L76.6762 151.985H81.0988L87.6229 169.895H83.8904ZM78.8718 154.746L78.8091 155.028C78.7255 155.342 78.6209 155.697 78.4955 156.094C78.3909 156.471 77.6695 158.604 76.3312 162.493H81.4752L79.6874 157.349L79.1541 155.624L78.8718 154.746ZM90.0379 169.895V151.985H93.7704V167.01H103.368V169.895H90.0379ZM105.902 169.895V151.985H119.985V154.871H109.635V159.388H119.201V162.273H109.635V167.01H120.487V169.895H105.902ZM134.125 169.895L126.315 156.094C126.461 157.433 126.545 158.509 126.566 159.325V169.895H123.241V151.985H127.507L135.442 165.88C135.296 164.605 135.212 163.444 135.191 162.399V151.985H138.516V169.895H134.125ZM150.09 154.871V169.895H146.357V154.871H140.555V151.985H155.892V154.871H150.09ZM157.893 169.895V151.985H171.976V154.871H161.626V159.388H171.192V162.273H161.626V167.01H172.478V169.895H157.893ZM191.197 160.799C191.197 162.639 190.831 164.249 190.099 165.63C189.367 167.01 188.332 168.066 186.994 168.797C185.677 169.529 184.171 169.895 182.477 169.895H175.232V151.985H181.693C184.704 151.985 187.036 152.749 188.688 154.275C190.361 155.781 191.197 157.955 191.197 160.799ZM187.402 160.799C187.402 158.875 186.9 157.412 185.896 156.408C184.913 155.383 183.491 154.871 181.63 154.871H178.964V167.01H182.132C183.742 167.01 185.018 166.455 185.959 165.347C186.921 164.218 187.402 162.702 187.402 160.799Z" fill="#FBFFFE"/>
<path d="M230.16 151.312C231.791 151.312 233.214 151.59 234.429 152.146C235.644 152.701 236.573 153.456 237.215 154.41C237.857 155.365 238.178 156.432 238.178 157.613C238.178 159.556 237.571 161.084 236.356 162.195C235.141 163.288 233.075 163.835 230.16 163.835H226.723V168.833C226.723 169.024 226.654 169.189 226.515 169.328C226.376 169.467 226.211 169.536 226.02 169.536H220.423C220.232 169.536 220.067 169.467 219.928 169.328C219.79 169.189 219.72 169.024 219.72 168.833V152.015C219.72 151.824 219.79 151.66 219.928 151.521C220.067 151.382 220.232 151.312 220.423 151.312H230.16ZM230.056 159.018C230.472 159.018 230.802 158.897 231.045 158.654C231.288 158.394 231.409 158.055 231.409 157.639C231.409 157.205 231.288 156.849 231.045 156.571C230.802 156.294 230.472 156.155 230.056 156.155H226.749V159.018H230.056ZM258.058 164.459C258.248 164.459 258.413 164.529 258.552 164.668C258.691 164.807 258.76 164.971 258.76 165.162V168.833C258.76 169.024 258.691 169.189 258.552 169.328C258.413 169.467 258.248 169.536 258.058 169.536H241.604C241.413 169.536 241.249 169.467 241.11 169.328C240.971 169.189 240.901 169.024 240.901 168.833V152.015C240.901 151.824 240.971 151.66 241.11 151.521C241.249 151.382 241.413 151.312 241.604 151.312H257.797C257.988 151.312 258.153 151.382 258.292 151.521C258.431 151.66 258.5 151.824 258.5 152.015V155.686C258.5 155.877 258.431 156.042 258.292 156.181C258.153 156.32 257.988 156.389 257.797 156.389H247.67V158.029H256.365C256.556 158.029 256.721 158.099 256.86 158.237C256.999 158.376 257.068 158.541 257.068 158.732V162.116C257.068 162.307 256.999 162.472 256.86 162.611C256.721 162.75 256.556 162.819 256.365 162.819H247.67V164.459H258.058ZM281.426 162.012C281.426 164.668 280.54 166.629 278.77 167.896C277.017 169.163 274.674 169.796 271.741 169.796C268.808 169.796 266.456 169.163 264.686 167.896C262.933 166.629 262.057 164.65 262.057 161.96V158.888C262.057 157.118 262.473 155.651 263.306 154.489C264.157 153.308 265.311 152.441 266.769 151.885C268.227 151.33 269.884 151.052 271.741 151.052C273.598 151.052 275.247 151.33 276.687 151.885C278.145 152.441 279.299 153.3 280.15 154.463C281 155.625 281.426 157.083 281.426 158.836V162.012ZM269.086 162.507C269.086 163.219 269.32 163.765 269.789 164.147C270.274 164.529 270.925 164.72 271.741 164.72C272.557 164.72 273.199 164.529 273.668 164.147C274.153 163.748 274.396 163.192 274.396 162.481V158.368C274.396 157.656 274.153 157.109 273.668 156.727C273.199 156.328 272.557 156.129 271.741 156.129C270.925 156.129 270.274 156.32 269.789 156.701C269.32 157.083 269.086 157.63 269.086 158.342V162.507ZM296.515 151.312C298.146 151.312 299.569 151.59 300.784 152.146C301.999 152.701 302.928 153.456 303.57 154.41C304.212 155.365 304.533 156.432 304.533 157.613C304.533 159.556 303.926 161.084 302.711 162.195C301.496 163.288 299.431 163.835 296.515 163.835H293.078V168.833C293.078 169.024 293.009 169.189 292.87 169.328C292.731 169.467 292.566 169.536 292.376 169.536H286.778C286.587 169.536 286.422 169.467 286.284 169.328C286.145 169.189 286.075 169.024 286.075 168.833V152.015C286.075 151.824 286.145 151.66 286.284 151.521C286.422 151.382 286.587 151.312 286.778 151.312H296.515ZM296.411 159.018C296.827 159.018 297.157 158.897 297.4 158.654C297.643 158.394 297.764 158.055 297.764 157.639C297.764 157.205 297.643 156.849 297.4 156.571C297.157 156.294 296.827 156.155 296.411 156.155H293.104V159.018H296.411ZM324.465 164.199C324.656 164.199 324.821 164.269 324.959 164.407C325.098 164.546 325.168 164.711 325.168 164.902V168.833C325.168 169.024 325.098 169.189 324.959 169.328C324.821 169.467 324.656 169.536 324.465 169.536H309.261C309.07 169.536 308.905 169.467 308.767 169.328C308.628 169.189 308.558 169.024 308.558 168.833V152.015C308.558 151.824 308.628 151.66 308.767 151.521C308.905 151.382 309.07 151.312 309.261 151.312H314.884C315.075 151.312 315.24 151.382 315.379 151.521C315.518 151.66 315.587 151.824 315.587 152.015V164.199H324.465ZM346.531 164.459C346.722 164.459 346.887 164.529 347.026 164.668C347.165 164.807 347.234 164.971 347.234 165.162V168.833C347.234 169.024 347.165 169.189 347.026 169.328C346.887 169.467 346.722 169.536 346.531 169.536H330.078C329.887 169.536 329.722 169.467 329.583 169.328C329.444 169.189 329.375 169.024 329.375 168.833V152.015C329.375 151.824 329.444 151.66 329.583 151.521C329.722 151.382 329.887 151.312 330.078 151.312H346.271C346.462 151.312 346.627 151.382 346.765 151.521C346.904 151.66 346.974 151.824 346.974 152.015V155.686C346.974 155.877 346.904 156.042 346.765 156.181C346.627 156.32 346.462 156.389 346.271 156.389H336.144V158.029H344.839C345.03 158.029 345.195 158.099 345.334 158.237C345.472 158.376 345.542 158.541 345.542 158.732V162.116C345.542 162.307 345.472 162.472 345.334 162.611C345.195 162.75 345.03 162.819 344.839 162.819H336.144V164.459H346.531Z" fill="#FBFFFE"/>
<path d="M24.476 72.9019H26.8427L31.0214 57.8142H31.1693L35.348 72.9019H37.7147L42.8918 53.9683H40.5621L36.6053 69.3888H36.4204L32.3896 53.9683H29.8011L25.7703 69.3888H25.5854L21.6286 53.9683H19.2989L24.476 72.9019ZM45.7485 72.9019H57.3231V70.868H48.0412V64.4335H56.5835V62.3997H48.0412V56.0022H57.1752V53.9683H45.7485V72.9019ZM81.5724 59.8851H83.9391C83.2365 56.2241 80.1672 53.7095 76.1734 53.7095C71.3198 53.7095 67.89 57.4444 67.89 63.4351C67.89 69.4258 71.2921 73.1607 76.3213 73.1607C80.8328 73.1607 84.05 70.1561 84.05 65.469V63.4351H76.839V65.469H81.8313C81.7666 68.8711 79.5293 71.0159 76.3213 71.0159C72.8083 71.0159 70.1088 68.3534 70.1088 63.4351C70.1088 58.5168 72.8083 55.8543 76.1734 55.8543C78.9099 55.8543 80.7681 57.3982 81.5724 59.8851ZM90.2695 53.9683H87.9768V72.9019H90.2695V53.9683ZM95.6431 53.9683H93.2394L100.192 72.9019H102.558L109.51 53.9683H107.107L101.486 69.9065H101.264L95.6431 53.9683ZM112.46 72.9019H124.034V70.868H114.752V64.4335H123.295V62.3997H114.752V56.0022H123.886V53.9683H112.46V72.9019ZM151.316 63.4351C151.316 57.4444 147.803 53.7095 142.958 53.7095C138.114 53.7095 134.601 57.4444 134.601 63.4351C134.601 69.4258 138.114 73.1607 142.958 73.1607C147.803 73.1607 151.316 69.4258 151.316 63.4351ZM149.097 63.4351C149.097 68.3534 146.398 71.0159 142.958 71.0159C139.519 71.0159 136.82 68.3534 136.82 63.4351C136.82 58.5168 139.519 55.8543 142.958 55.8543C146.398 55.8543 149.097 58.5168 149.097 63.4351ZM167.596 53.9683V66.3195C167.596 69.093 165.692 71.0899 162.53 71.0899C159.368 71.0899 157.464 69.093 157.464 66.3195V53.9683H155.171V66.5044C155.171 70.3872 158.074 73.2347 162.53 73.2347C166.986 73.2347 169.889 70.3872 169.889 66.5044V53.9683H167.596ZM173.432 56.0022H179.386V72.9019H181.678V56.0022H187.632V53.9683H173.432V56.0022Z" fill="#FBFFFE"/>
<path d="M222.639 69.683C222.483 71.5574 222.223 71.8959 221.884 71.8959C221.364 71.8959 221.286 71.2971 221.025 68.0689C220.713 64.5544 218.995 63.3829 216.001 62.9663C218.89 62.4717 220.687 61.0919 220.687 58.6187C220.687 55.6509 218.135 54.5054 213.97 54.5054C212.304 54.5054 210.377 54.8178 206.186 54.8439H204.754V55.2864C205.535 55.4947 205.822 55.9893 205.822 57.239V70.6723C205.822 71.9219 205.535 72.4165 204.754 72.5988V73.0674H213.085V72.5988C212.33 72.4165 212.018 71.9219 212.018 70.6723V63.0444C212.538 63.1486 212.799 63.1746 213.319 63.1746C214.517 63.1746 214.621 64.3201 214.907 67.9127C215.194 71.8438 216.495 73.4058 219.463 73.4058C222.405 73.4058 222.978 72.3905 223.16 69.7351L222.639 69.683ZM213.085 62.6539C212.694 62.6539 212.434 62.6279 212.018 62.5238V55.1823C212.434 55.0782 212.694 55.0261 213.059 55.0261C214.204 55.0261 214.907 56.1195 214.907 58.6968C214.907 60.9357 214.335 62.6539 213.085 62.6539ZM237.052 66.0643C236.245 72 235.438 72.5467 233.876 72.5467H230.882V63.6172H232.834C234.266 63.6172 234.396 63.8775 234.735 66.8974H235.281L234.735 60.1027H234.214C234.37 62.8362 234.162 63.0965 232.912 63.0965H230.882V55.3645H233.537C235.281 55.3645 235.906 55.9112 236.713 61.5605H237.234L236.557 54.8439H223.618V55.2864C224.399 55.4947 224.686 55.9893 224.686 57.239V70.6723C224.686 71.9219 224.399 72.4165 223.618 72.5988V73.0674H236.922L237.572 66.0643H237.052ZM248.958 54.5054H248.697C247.526 55.4426 245.808 55.5468 242.658 55.5468V55.8071L242.866 56.7443L239.664 70.7244C239.377 71.9479 238.831 72.4165 238.05 72.5988V73.0674H241.226V72.5988C240.106 72.4165 239.924 71.9479 240.211 70.7504L240.809 68.147H245.339L245.886 70.7244C246.146 71.9479 245.938 72.4165 244.818 72.5988V73.0674H254.034V72.5988C253.253 72.4165 252.733 71.9479 252.446 70.7244L248.958 54.5054ZM243.126 58.02L245.209 67.6264H240.939L243.126 58.02ZM267.964 66.0643C267.026 72 266.323 72.5467 264.371 72.5467H261.924V57.239C261.924 55.9893 262.236 55.4947 262.991 55.2864V54.8439H254.66V55.2864C255.441 55.4947 255.728 55.9893 255.728 57.239V70.6723C255.728 71.9219 255.441 72.4165 254.66 72.5988V73.0674H267.833L268.484 66.0643H267.964ZM282.455 66.0643C281.518 72 280.815 72.5467 278.862 72.5467H276.415V57.239C276.415 55.9893 276.728 55.4947 277.482 55.2864V54.8439H269.152V55.2864C269.933 55.4947 270.219 55.9893 270.219 57.239V70.6723C270.219 71.9219 269.933 72.4165 269.152 72.5988V73.0674H282.325L282.976 66.0643H282.455ZM296.787 54.8439H293.585V55.2864C294.704 55.4947 294.73 55.9112 294.288 57.0828L291.763 63.6693L289.185 57.0828C288.743 55.9112 288.743 55.4947 289.888 55.2864V54.8439H280.126V55.2864C280.907 55.4947 281.635 55.9112 282.13 57.0567L285.775 65.7519V70.6723C285.775 71.9219 285.488 72.4165 284.707 72.5988V73.0674H293.038V72.5988C292.283 72.4165 291.971 71.9219 291.971 70.6723V64.6325L294.861 57.0828C295.303 55.9112 296.006 55.4947 296.787 55.2864V54.8439Z" fill="#FBFFFE"/>
<path d="M311.674 64.5619C311.674 62.7569 312.047 61.1515 312.794 59.7457C313.557 58.3226 314.633 57.2205 316.022 56.4395C317.41 55.6411 319.007 55.2419 320.812 55.2419C323.103 55.2419 325.029 55.858 326.591 57.0903C328.153 58.3052 329.16 59.9627 329.611 62.0627H324.118C323.788 61.3685 323.329 60.8391 322.738 60.4747C322.166 60.1102 321.498 59.928 320.734 59.928C319.554 59.928 318.608 60.3532 317.896 61.2036C317.202 62.0367 316.855 63.1561 316.855 64.5619C316.855 65.9851 317.202 67.1219 317.896 67.9723C318.608 68.8054 319.554 69.222 320.734 69.222C321.498 69.222 322.166 69.0397 322.738 68.6752C323.329 68.3108 323.788 67.7814 324.118 67.0872H329.611C329.16 69.1872 328.153 70.8534 326.591 72.0856C325.029 73.3005 323.103 73.908 320.812 73.908C319.007 73.908 317.41 73.5175 316.022 72.7365C314.633 71.9381 313.557 70.836 312.794 69.4302C312.047 68.0071 311.674 66.3843 311.674 64.5619ZM340.827 73.9601C339.109 73.9601 337.529 73.5609 336.089 72.7625C334.648 71.9468 333.503 70.8274 332.652 69.4042C331.819 67.9637 331.403 66.3409 331.403 64.5359C331.403 62.7309 331.819 61.1168 332.652 59.6937C333.503 58.2531 334.648 57.1337 336.089 56.3353C337.529 55.537 339.109 55.1378 340.827 55.1378C342.563 55.1378 344.142 55.537 345.565 56.3353C347.006 57.1337 348.142 58.2531 348.975 59.6937C349.809 61.1168 350.225 62.7309 350.225 64.5359C350.225 66.3409 349.809 67.9637 348.975 69.4042C348.142 70.8274 347.006 71.9468 345.565 72.7625C344.125 73.5609 342.545 73.9601 340.827 73.9601ZM340.827 69.222C342.129 69.222 343.153 68.7967 343.899 67.9463C344.663 67.0959 345.044 65.9591 345.044 64.5359C345.044 63.078 344.663 61.9325 343.899 61.0995C343.153 60.249 342.129 59.8238 340.827 59.8238C339.508 59.8238 338.475 60.249 337.729 61.0995C336.983 61.9325 336.609 63.078 336.609 64.5359C336.609 65.9764 336.983 67.1219 337.729 67.9723C338.475 68.8054 339.508 69.222 340.827 69.222ZM361.318 73.9601C359.6 73.9601 358.021 73.5609 356.58 72.7625C355.14 71.9468 353.994 70.8274 353.144 69.4042C352.311 67.9637 351.894 66.3409 351.894 64.5359C351.894 62.7309 352.311 61.1168 353.144 59.6937C353.994 58.2531 355.14 57.1337 356.58 56.3353C358.021 55.537 359.6 55.1378 361.318 55.1378C363.054 55.1378 364.633 55.537 366.056 56.3353C367.497 57.1337 368.634 58.2531 369.467 59.6937C370.3 61.1168 370.716 62.7309 370.716 64.5359C370.716 66.3409 370.3 67.9637 369.467 69.4042C368.634 70.8274 367.497 71.9468 366.056 72.7625C364.616 73.5609 363.036 73.9601 361.318 73.9601ZM361.318 69.222C362.62 69.222 363.644 68.7967 364.39 67.9463C365.154 67.0959 365.536 65.9591 365.536 64.5359C365.536 63.078 365.154 61.9325 364.39 61.0995C363.644 60.249 362.62 59.8238 361.318 59.8238C359.999 59.8238 358.967 60.249 358.22 61.0995C357.474 61.9325 357.101 63.078 357.101 64.5359C357.101 65.9764 357.474 67.1219 358.22 67.9723C358.967 68.8054 359.999 69.222 361.318 69.222ZM378.113 69.8728H383.814V73.7778H373.01V55.4241H378.113V69.8728Z" fill="#FBFFFE"/>
<path d="M28.683 10.7973H31.6799L36.6128 24.7475L39.9545 16.075L37.9124 10.7973H40.4584L45.7892 24.4557L50.51 10.7973H53.2682L45.7096 30.7413L41.2275 19.3106L36.3211 30.7678L28.683 10.7973ZM57.0823 10.7177H69.5472V13.1842H59.6548V19.0189H68.4864V21.4854H59.6548V27.3996H69.9185V29.8926H57.0823V10.7177ZM80.891 29.8926L89.2718 9.9221H89.4309L97.8116 29.8926H94.8412L92.8521 24.8535H85.4792L83.4371 29.8926H80.891ZM86.3809 22.6258H91.9769L89.2452 15.6507L86.3809 22.6258ZM106.515 10.7177C107.788 10.7177 108.937 10.9476 109.963 11.4073C110.988 11.8493 111.802 12.5212 112.403 13.4229C113.004 14.3069 113.305 15.3855 113.305 16.6585C113.305 17.7547 113.057 18.8156 112.562 19.841C112.085 20.8665 111.271 21.6445 110.122 22.1749L114.949 29.8926H111.952L107.417 22.8114C107.222 22.8291 107.019 22.8379 106.807 22.8379H103.969V29.8926H101.397V10.7177H106.515ZM106.754 20.3449C107.779 20.3449 108.566 20.1593 109.114 19.788C109.68 19.399 110.078 18.9305 110.308 18.3824C110.537 17.8166 110.652 17.2773 110.652 16.7646C110.652 16.2518 110.529 15.7214 110.281 15.1733C110.034 14.6252 109.636 14.1567 109.088 13.7677C108.557 13.3787 107.841 13.1842 106.939 13.1842H103.969V20.3449H106.754ZM118.905 10.7177H131.37V13.1842H121.477V19.0189H130.309V21.4854H121.477V27.3996H131.741V29.8926H118.905V10.7177Z" fill="#FBFFFE"/>
<path d="M209.538 20.2733L191.88 2.61548M209.538 20.2733L191.88 37.931M209.538 20.2733H174.072" stroke="#FBFFFE" stroke-width="0.598569"/>
<path d="M254.921 15.046H251.198V11.0889H264.71V15.046H260.987V29H254.921V15.046ZM272.013 29.2083C270.572 29.2083 269.288 28.9219 268.16 28.3492C267.049 27.7591 266.181 26.9607 265.557 25.9541C264.932 24.9301 264.619 23.7759 264.619 22.4916C264.619 21.1726 264.94 20.0011 265.583 18.9771C266.225 17.9531 267.092 17.1634 268.186 16.608C269.279 16.0526 270.494 15.7749 271.831 15.7749C273.115 15.7749 274.208 16.0613 275.111 16.634C276.031 17.1894 276.716 17.9531 277.167 18.925C277.619 19.8796 277.844 20.9556 277.844 22.1532C277.844 22.4656 277.827 22.6912 277.792 22.83L269.982 23.8453C270.19 24.4528 270.529 24.8954 270.998 25.1731C271.466 25.4334 272.082 25.5636 272.846 25.5636C274.026 25.5636 275.302 25.2598 276.673 24.6524L277.324 28.1409C275.71 28.8525 273.939 29.2083 272.013 29.2083ZM273.809 20.5651C273.531 19.4717 272.872 18.925 271.831 18.925C271.206 18.925 270.711 19.1593 270.347 19.6279C269.982 20.0965 269.791 20.704 269.774 21.4503L273.809 20.5651ZM285.489 29.2083C284.361 29.2083 283.303 28.9132 282.313 28.3231C281.341 27.7157 280.56 26.9 279.97 25.876C279.38 24.8346 279.085 23.6805 279.085 22.4135C279.085 21.1639 279.38 20.0358 279.97 19.0291C280.56 18.0051 281.35 17.2068 282.339 16.634C283.329 16.0613 284.379 15.7749 285.489 15.7749C286.392 15.7749 287.225 16.0266 287.989 16.5299C288.77 17.0332 289.36 17.7882 289.759 18.7948V15.7749H295.226V29H289.759V26.5789C288.891 28.3318 287.468 29.2083 285.489 29.2083ZM287.182 25.095C287.876 25.095 288.466 24.852 288.952 24.366C289.455 23.8627 289.724 23.2726 289.759 22.5957V22.3875C289.724 21.6932 289.447 21.1031 288.926 20.6172C288.423 20.1312 287.841 19.8882 287.182 19.8882C286.453 19.8882 285.828 20.1486 285.307 20.6692C284.804 21.1726 284.552 21.78 284.552 22.4916C284.552 23.2205 284.813 23.8367 285.333 24.34C285.854 24.8433 286.47 25.095 287.182 25.095ZM297.863 16.1394H303.096V18.7948C303.686 17.7708 304.354 17.0159 305.1 16.5299C305.864 16.0266 306.766 15.7749 307.808 15.7749C308.832 15.7749 309.717 16.0353 310.463 16.5559C311.227 17.0593 311.8 17.7448 312.181 18.6126C313.292 16.7208 314.906 15.7749 317.024 15.7749C318.03 15.7749 318.907 16.0439 319.653 16.582C320.417 17.12 321.007 17.901 321.423 18.925C321.84 19.9316 322.048 21.1205 322.048 22.4916V29H316.555V22.4916C316.555 21.6065 316.399 20.9383 316.086 20.487C315.791 20.0358 315.375 19.8101 314.837 19.8101C314.247 19.8101 313.735 20.0618 313.301 20.5651C312.884 21.0684 312.676 21.6759 312.676 22.3875V29H307.235V22.4916C307.235 21.6065 307.079 20.9383 306.766 20.487C306.471 20.0358 306.046 19.8101 305.491 19.8101C304.901 19.8101 304.397 20.0618 303.981 20.5651C303.564 21.0684 303.356 21.6759 303.356 22.3875V29H297.863V16.1394Z" fill="#FBFFFE"/>
<path d="M336.804 29.4165C334.357 29.4165 332.292 28.9653 330.608 28.0628L331.91 24.0276C333.698 24.6697 335.294 24.9908 336.7 24.9908C337.464 24.9908 338.019 24.904 338.366 24.7305C338.731 24.5396 338.913 24.2619 338.913 23.8974C338.913 23.6544 338.818 23.4462 338.627 23.2726C338.436 23.0817 338.054 22.8734 337.481 22.6478C336.908 22.4222 336.049 22.1445 334.904 21.8147C333.498 21.3982 332.405 20.7213 331.624 19.7841C330.843 18.8295 330.452 17.7361 330.452 16.5039C330.452 14.5947 331.077 13.1542 332.326 12.1823C333.593 11.193 335.294 10.6984 337.429 10.6984C338.54 10.6984 339.633 10.8199 340.709 11.0629C341.785 11.2885 342.74 11.6269 343.573 12.0782L342.167 16.0092C341.195 15.6795 340.345 15.4452 339.616 15.3063C338.904 15.1501 338.21 15.072 337.533 15.072C336.388 15.072 335.815 15.3844 335.815 16.0092C335.815 16.3216 335.997 16.5907 336.362 16.8163C336.744 17.0245 337.516 17.2936 338.679 17.6233C340.501 18.1093 341.881 18.8556 342.818 19.8622C343.755 20.8515 344.224 22.0404 344.224 23.4288C344.224 25.3553 343.599 26.8392 342.349 27.8806C341.1 28.9045 339.251 29.4165 336.804 29.4165ZM349.451 15.046H345.728V11.0889H359.24V15.046H355.517V29H349.451V15.046ZM369.617 29.4165C367.882 29.4165 366.302 29.0087 364.879 28.193C363.473 27.3599 362.354 26.2318 361.521 24.8086C360.705 23.3681 360.297 21.78 360.297 20.0444C360.297 18.2742 360.697 16.6774 361.495 15.2543C362.293 13.8311 363.387 12.7203 364.775 11.922C366.164 11.1062 367.726 10.6984 369.461 10.6984C370.398 10.6984 371.318 10.8112 372.221 11.0368C373.123 11.2624 373.896 11.5835 374.538 12.0001L373.835 16.0353C372.585 15.5667 371.457 15.3324 370.45 15.3324C369.062 15.3324 367.995 15.7402 367.248 16.5559C366.502 17.3543 366.129 18.5085 366.129 20.0184C366.129 21.4936 366.519 22.6478 367.3 23.4809C368.099 24.2966 369.201 24.7045 370.607 24.7045C371.145 24.7045 371.648 24.6524 372.117 24.5483C372.585 24.4441 373.158 24.2532 373.835 23.9755L374.564 28.0888C373.054 28.974 371.405 29.4165 369.617 29.4165Z" fill="#FBFFFE"/>
<g clip-path="url(#clip0_1577:4048)">
<circle cx="201.392" cy="149.675" r="12.9923" transform="rotate(8.19939 201.392 149.675)" fill="#FEB913"/>
<path d="M200.572 140.521L199.944 144.88M204.931 141.149L204.303 145.509M212.361 151.342C211.494 157.36 205.912 161.536 199.893 160.669C193.875 159.802 189.699 154.22 190.566 148.201M214.323 151.624C213.3 158.726 206.713 163.654 199.611 162.631C192.509 161.607 187.581 155.021 188.604 147.919C189.628 140.817 196.215 135.889 203.317 136.912C210.419 137.936 215.346 144.522 214.323 151.624Z" stroke="#343434" stroke-width="0.440409"/>
</g>
<path d="M307.455 120.713V120.4L309.408 119.567V102.047L307.455 101.24V100.927H315.5C316.611 100.927 317.661 101.109 318.65 101.474C319.639 101.838 320.438 102.402 321.045 103.166C321.67 103.912 321.982 104.823 321.982 105.9C321.982 107.357 321.436 108.564 320.342 109.518C319.266 110.473 317.817 111.028 315.995 111.184L321.253 119.567L323.7 120.4V120.713H316.958V120.4L318.832 119.697L313.625 111.341H311.621V119.567L313.573 120.4V120.713H307.455ZM314.849 110.351C316.359 110.351 317.548 109.969 318.416 109.206C319.301 108.425 319.743 107.331 319.743 105.926C319.743 104.52 319.301 103.504 318.416 102.88C317.548 102.237 316.359 101.916 314.849 101.916H311.621V110.351H314.849ZM336.776 120.713H324.515V120.4L326.467 119.567V102.047L324.515 101.24V100.927H336.516L337.427 104.962H337.063L335.162 101.89H328.68V109.674H333.08L333.835 107.462H334.303V112.877H333.835L333.08 110.664H328.68V119.671H335.423L337.323 116.677H337.688L336.776 120.713ZM343.424 120.713H337.827V120.4L339.883 119.775L347.173 102.151L346.548 100.719H348.683L356.961 119.775L358.94 120.4V120.713H352.301V120.4L354.436 119.775L351.416 112.694H343.788L340.898 119.775L343.424 120.4V120.713ZM347.511 103.53L344.179 111.705H351L347.511 103.53ZM371.297 120.713H359.243V120.4L361.196 119.567V102.047L359.243 101.24V100.927H365.361V101.24L363.408 102.047V119.671H369.943L371.843 116.677H372.208L371.297 120.713ZM385.381 120.713H373.328V120.4L375.28 119.567V102.047L373.328 101.24V100.927H379.445V101.24L377.493 102.047V119.671H384.027L385.928 116.677H386.292L385.381 120.713ZM395.871 120.713H389.753V120.4L391.706 119.567V113.397L385.718 101.942L383.844 101.24V100.927H390.066V101.24L388.191 101.864L393.58 112.304L398.683 101.916L396.288 101.24V100.927H401.468V101.24L399.542 101.968L393.919 113.241V119.567L395.871 120.4V120.713Z" fill="#FBFFFE"/>
<path d="M250.846 120.713H244.468V120.4L246.42 119.567V102.047L244.468 101.24V100.927H256.469L257.38 104.962H257.016L255.115 101.89H248.633V109.674H253.033L253.788 107.462H254.256V112.877H253.788L253.033 110.664H248.633V119.515L250.846 120.4V120.713ZM267.41 120.999C265.796 120.999 264.294 120.565 262.906 119.697C261.517 118.83 260.415 117.632 259.6 116.105C258.784 114.56 258.376 112.833 258.376 110.924C258.376 108.945 258.819 107.184 259.704 105.639C260.589 104.077 261.76 102.871 263.218 102.021C264.676 101.153 266.229 100.719 267.878 100.719C269.527 100.719 271.063 101.153 272.486 102.021C273.909 102.871 275.038 104.051 275.871 105.561C276.721 107.071 277.146 108.755 277.146 110.612C277.146 112.555 276.686 114.326 275.766 115.922C274.864 117.502 273.658 118.743 272.148 119.645C270.655 120.548 269.076 120.999 267.41 120.999ZM268.191 120.036C269.284 120.036 270.308 119.741 271.263 119.151C272.235 118.561 273.024 117.632 273.632 116.365C274.239 115.081 274.543 113.475 274.543 111.549C274.543 109.449 274.213 107.652 273.554 106.16C272.911 104.667 272.044 103.548 270.95 102.802C269.874 102.055 268.677 101.682 267.358 101.682C266.316 101.682 265.292 101.951 264.286 102.489C263.296 103.027 262.463 103.921 261.786 105.171C261.127 106.42 260.797 108.034 260.797 110.013C260.797 112.096 261.162 113.901 261.891 115.428C262.619 116.938 263.548 118.083 264.676 118.864C265.822 119.645 266.993 120.036 268.191 120.036ZM278.815 120.713V120.4L280.767 119.567V102.047L278.815 101.24V100.927H286.859C287.97 100.927 289.02 101.109 290.009 101.474C290.998 101.838 291.797 102.402 292.404 103.166C293.029 103.912 293.341 104.823 293.341 105.9C293.341 107.357 292.795 108.564 291.701 109.518C290.625 110.473 289.176 111.028 287.354 111.184L292.612 119.567L295.06 120.4V120.713H288.317V120.4L290.191 119.697L284.985 111.341H282.98V119.567L284.933 120.4V120.713H278.815ZM286.208 110.351C287.718 110.351 288.907 109.969 289.775 109.206C290.66 108.425 291.102 107.331 291.102 105.926C291.102 104.52 290.66 103.504 289.775 102.88C288.907 102.237 287.718 101.916 286.208 101.916H282.98V110.351H286.208Z" fill="#FBFFFE"/>
<path d="M6.69063 110.577L5.49309 117.346H7.54974C8.22662 117.346 8.72993 117.268 9.05969 117.111C9.38945 116.938 9.6064 116.556 9.71053 115.966L10.9081 109.197H8.82539C8.16587 109.197 7.67123 109.284 7.34147 109.458C7.01171 109.614 6.79477 109.987 6.69063 110.577ZM9.6845 104.745C11.8887 104.745 13.4594 105.179 14.3966 106.047C15.3338 106.898 15.8024 108.217 15.8024 110.004C15.8024 111.792 15.516 113.666 14.9433 115.628C14.3879 117.571 13.4941 119.09 12.2618 120.183C11.0469 121.259 9.25928 121.797 6.8989 121.797C4.55588 121.797 2.91576 121.372 1.97855 120.522C1.04134 119.654 0.572739 118.326 0.572739 116.539C0.572739 115.688 0.694229 114.569 0.937209 113.18C1.18019 111.775 1.50127 110.568 1.90045 109.562C2.29963 108.538 2.83766 107.653 3.51454 106.906C4.81622 105.466 6.87287 104.745 9.6845 104.745ZM25.4578 117.476H22.2296L21.5528 121.407H16.6064L19.4701 105.136H27.2802C30.2306 105.136 31.7059 106.507 31.7059 109.249C31.7059 110.551 31.5236 111.731 31.1592 112.79C30.7947 113.831 30.3868 114.664 29.9356 115.289C29.5017 115.897 28.8942 116.417 28.1132 116.851C27.3496 117.268 26.4644 117.476 25.4578 117.476ZM23.6615 109.301L22.9586 113.311H24.1041C24.6942 113.311 25.1367 113.25 25.4318 113.128C25.7442 112.989 25.9438 112.686 26.0305 112.217C26.2562 110.933 26.369 110.23 26.369 110.108C26.369 109.779 26.2388 109.562 25.9785 109.458C25.7181 109.353 25.3276 109.301 24.807 109.301H23.6615ZM40.3814 117.476H37.1532L36.4763 121.407H31.5299L34.3936 105.136H42.2037C45.1542 105.136 46.6294 106.507 46.6294 109.249C46.6294 110.551 46.4472 111.731 46.0827 112.79C45.7182 113.831 45.3104 114.664 44.8591 115.289C44.4252 115.897 43.8178 116.417 43.0368 116.851C42.2731 117.268 41.388 117.476 40.3814 117.476ZM38.585 109.301L37.8821 113.311H39.0276C39.6177 113.311 40.0603 113.25 40.3553 113.128C40.6677 112.989 40.8673 112.686 40.9541 112.217C41.1797 110.933 41.2925 110.23 41.2925 110.108C41.2925 109.779 41.1624 109.562 40.902 109.458C40.6417 109.353 40.2512 109.301 39.7305 109.301H38.585ZM52.9359 110.577L51.7383 117.346H53.795C54.4718 117.346 54.9752 117.268 55.3049 117.111C55.6347 116.938 55.8516 116.556 55.9558 115.966L57.1533 109.197H55.0706C54.4111 109.197 53.9165 109.284 53.5867 109.458C53.2569 109.614 53.04 109.987 52.9359 110.577ZM55.9297 104.745C58.1339 104.745 59.7046 105.179 60.6418 106.047C61.579 106.898 62.0476 108.217 62.0476 110.004C62.0476 111.792 61.7612 113.666 61.1885 115.628C60.6331 117.571 59.7393 119.09 58.507 120.183C57.2921 121.259 55.5045 121.797 53.1441 121.797C50.8011 121.797 49.161 121.372 48.2238 120.522C47.2866 119.654 46.818 118.326 46.818 116.539C46.818 115.688 46.9395 114.569 47.1824 113.18C47.4254 111.775 47.7465 110.568 48.1457 109.562C48.5449 108.538 49.0829 107.653 49.7598 106.906C51.0614 105.466 53.1181 104.745 55.9297 104.745ZM76.337 121.407H70.896L69.6984 116.565H68.6311L67.798 121.407H62.8516L65.7153 105.136H73.5254C76.4932 105.136 77.9771 106.464 77.9771 109.119C77.9771 110.213 77.8122 111.254 77.4825 112.243C76.875 114.118 75.9205 115.367 74.6188 115.992L76.337 121.407ZM69.9067 109.301L69.334 112.556H70.4794C71.0695 112.556 71.5121 112.495 71.8072 112.373C72.1196 112.234 72.3278 111.861 72.432 111.254C72.5535 110.629 72.6142 110.247 72.6142 110.108C72.6142 109.761 72.4754 109.544 72.1977 109.458C71.9373 109.353 71.5034 109.301 70.896 109.301H69.9067ZM91.479 109.301H87.8864L85.7776 121.407H80.8313L82.94 109.301H79.3734L80.1284 105.136H92.234L91.479 109.301ZM98.8986 105.136L96.7378 117.346H98.5081C99.1155 117.346 99.5494 117.268 99.8098 117.111C100.07 116.938 100.252 116.556 100.356 115.966L102.283 105.136H107.229L105.615 114.274C105.355 115.749 105.051 116.938 104.704 117.84C104.374 118.743 103.906 119.507 103.298 120.131C102.691 120.756 101.936 121.19 101.033 121.433C100.148 121.676 99.0201 121.797 97.649 121.797C95.5489 121.797 94.0737 121.485 93.2233 120.86C92.3902 120.218 91.9736 119.125 91.9736 117.58C91.9736 116.73 92.0951 115.628 92.3381 114.274L93.9522 105.136H98.8986ZM116.352 121.407L113.697 115.628C113.627 115.506 113.592 115.341 113.592 115.133C113.592 114.907 113.61 114.656 113.645 114.378H113.436L112.213 121.407H107.266L110.13 105.136H114.79L117.445 110.915C117.498 111.037 117.524 111.21 117.524 111.436C117.524 111.644 117.506 111.887 117.472 112.165H117.68L118.929 105.136H123.876L121.012 121.407H116.352ZM124.117 121.407L126.981 105.136H131.927L129.064 121.407H124.117ZM145.173 109.301H141.581L139.472 121.407H134.526L136.634 109.301H133.068L133.823 105.136H145.928L145.173 109.301ZM144.939 121.407L147.803 105.136H152.749L149.885 121.407H144.939ZM163.912 115.263H158.966L158.628 117.242H164.693L163.964 121.407H152.952L155.816 105.136H166.698L165.344 109.301H160.007L159.643 111.488H164.589L163.912 115.263ZM166.289 121.121L167.746 116.825C169.204 117.224 170.541 117.424 171.756 117.424C172.971 117.424 173.951 117.372 174.697 117.268L174.906 115.966L172.745 115.758C171.096 115.601 169.925 115.228 169.23 114.638C168.553 114.048 168.215 113.215 168.215 112.139C168.215 111.67 168.267 111.15 168.371 110.577C168.77 108.355 169.491 106.828 170.532 105.995C171.591 105.162 173.222 104.745 175.426 104.745C177.631 104.745 179.574 104.962 181.258 105.396L179.904 109.562C178.394 109.301 177.179 109.171 176.259 109.171C175.34 109.171 174.559 109.215 173.916 109.301L173.708 110.577L175.452 110.759C177.223 110.95 178.481 111.375 179.227 112.035C179.974 112.677 180.347 113.545 180.347 114.638C180.347 115.749 180.104 116.894 179.618 118.075C179.375 118.682 179.106 119.194 178.811 119.611C178.533 120.01 178.169 120.357 177.717 120.652C177.283 120.93 176.884 121.147 176.52 121.303C176.155 121.442 175.695 121.546 175.14 121.615C174.324 121.737 173.326 121.797 172.146 121.797C169.994 121.797 168.041 121.572 166.289 121.121Z" fill="#FBFFFE"/>
<path d="M213.244 91.3308C213.244 108.269 211.362 110.151 194.424 110.151C211.362 110.151 213.244 112.033 213.244 128.972C213.244 112.033 215.126 110.151 232.065 110.151C215.126 110.151 213.244 108.269 213.244 91.3308Z" stroke="#EC4939" stroke-width="0.627346"/>
<path d="M363.319 226.323C363.793 226.031 364.525 225.567 365.409 224.981C368.244 223.087 369.18 222.175 371.765 220.414C374.402 218.618 375.739 217.724 376.652 217.861C378.388 218.119 379.309 219.855 381.224 219.556C381.95 219.442 381.986 219.164 382.649 219.122C383.337 219.076 384.227 219.311 386.425 221.51C387.363 222.449 389.148 224.357 390.682 227.227C391.404 228.58 391.53 229.139 391.446 229.716C391.273 230.862 390.364 231.328 390.502 232.395C390.583 233.044 390.954 233.156 391.198 233.801C391.689 235.088 390.919 236.516 390.498 237.282C389.425 239.219 388.109 239.923 384.565 242.598C381.691 244.769 380.122 246.142 379.685 246.528C377.684 248.293 376.634 249.235 375.52 250.817C375.04 251.498 374.412 252.692 373.152 255.082C372.928 255.507 372.297 256.708 371.005 259.276C368.701 263.859 369.001 263.424 368.61 264.07C366.738 267.169 365.136 268.332 365.603 269.347C365.908 270.01 366.879 270.14 367.349 270.229C372.213 271.117 378.386 277.133 377.85 281.335C377.575 283.474 375.627 284.837 375.235 285.114C373.525 286.32 371.705 286.309 369.265 286.263C368.353 286.243 366.096 286.153 362.013 285.092C360.836 284.787 357.728 283.94 353.674 282.226C352.43 281.701 350.441 280.734 346.458 278.802C343.668 277.448 342.872 277.03 341.093 276.236C337.558 274.657 336.965 274.638 335.658 273.993C330.562 271.485 328.189 266.207 327.277 264.175C326.297 261.991 325 258.201 325.269 253.472C325.333 252.38 325.609 248.945 327.413 245.027C327.967 243.821 328.535 242.854 328.979 242.158C328.465 241.604 327.786 240.746 327.27 239.568C326.155 237.028 326.541 234.71 326.895 232.577C327.27 230.313 327.624 228.18 329.332 226.362C330.256 225.377 331.203 224.885 332.486 224.213C334.62 223.099 336.559 222.585 337.899 222.323C337.978 221.785 338.24 220.568 339.214 219.446C340.287 218.21 341.59 217.828 342.223 217.649C342.223 217.649 343.854 217.2 345.839 217.639C350.474 218.662 353.994 225.164 354.184 225.524C355.094 225.292 356.263 225.09 357.623 225.088C360.135 225.096 362.121 225.788 363.319 226.323Z" fill="#B6E8F3"/>
<path d="M363.904 229.857C365.596 228.959 367.408 227.897 369.288 226.645C370.826 225.62 372.228 224.588 373.491 223.585C375.184 222.229 375.984 221.426 377.215 221.446C378.278 221.464 379.128 222.088 379.654 222.579C382.352 226.186 385.051 229.792 387.75 233.395C387.831 233.755 387.899 234.328 387.732 234.987C387.342 236.542 385.967 237.263 385.721 237.386C382.334 240.07 378.949 242.751 375.563 245.435C375.086 245.982 374.423 246.76 373.663 247.719C372.936 248.636 371.916 249.923 371.084 251.258C370.21 252.658 369.896 253.546 368.995 255.702C367.251 259.874 366.375 261.961 365.177 263.873C364.4 265.111 363.341 266.795 361.446 268.503C358.342 271.296 355.15 272.662 353.188 273.222C351.132 273.809 348.542 274.135 345.368 273.629C343.79 273.376 342.582 272.911 340.665 272.169C338.548 271.348 337.214 270.832 335.718 269.681C334.08 268.419 333.159 267.101 332.407 266.013C331.705 265.003 330.462 263.018 329.616 260.229C328.572 256.79 328.708 254.785 328.73 253.856C328.791 251.425 329.289 249.562 329.559 248.671C330.454 245.729 331.895 243.556 333.008 242.168C332.418 241.643 331.558 240.751 330.877 239.434C329.435 236.65 329.839 233.997 329.979 233.248C330.184 232.15 330.749 230.19 332.411 228.435C332.799 228.025 334.229 226.587 336.637 225.865C338.854 225.195 340.732 225.486 341.603 225.676C341.592 225.405 341.566 225.003 341.507 224.517C341.358 223.322 341.059 222.992 341.27 222.535C341.644 221.728 342.422 221.234 342.689 221.108C342.806 221.051 343.775 220.613 344.889 220.961C345.552 221.166 345.923 221.549 346.365 221.952C348.701 224.099 349.599 223.869 350.485 225.443C350.774 225.953 351.146 226.636 350.989 227.472C350.805 228.444 350.023 228.992 349.823 229.131C348.584 229.998 347.132 229.594 346.911 229.529C347.315 230.206 347.573 230.801 347.751 231.216C348.426 232.828 348.657 233.332 348.943 233.886C349.034 234.066 348.72 235.018 348.58 235.748C348.533 235.999 349.025 236.135 349.167 235.938C349.497 235.473 349.683 235.468 349.97 235.293C351.777 234.18 354.651 235.231 355.019 233.892C355.123 233.522 354.817 233.054 354.555 232.615C354.216 232.044 354.017 232.063 353.853 231.687C353.431 230.725 354.259 229.527 354.35 229.399C354.35 229.399 354.818 227.963 355.854 228.229C357.765 228.721 361.092 229.602 363.904 229.857Z" fill="#B6E8F3" stroke="#0A2A2B" stroke-width="1.04124" stroke-miterlimit="10"/>
<path d="M351.367 251.653C351.277 252.517 351.046 253.814 350.395 255.246C349.059 258.183 346.042 261.455 342.014 261.855C340.104 262.043 338.566 261.529 338.016 261.324C337.245 261.036 335.589 260.391 334.374 258.767C333.304 257.338 333.134 255.894 332.853 253.472C332.674 251.949 332.543 250.821 332.819 249.369C333.244 247.146 334.377 245.465 335.37 244.351C335.56 244.737 335.855 245.287 336.303 245.884C337.006 246.828 338.019 247.831 341.036 249.437C343.927 250.975 345.374 251.745 347.283 251.95C348.999 252.132 350.437 251.885 351.367 251.653Z" stroke="#0A2A2B" stroke-width="1.04124" stroke-miterlimit="10"/>
<path d="M347.174 252.15C345.882 255.146 344.591 258.139 343.298 261.135" stroke="#0A2A2B" stroke-width="1.04124" stroke-miterlimit="10"/>
<path d="M341.804 250.196C340.167 253.602 338.527 257.003 336.889 260.408" stroke="#0A2A2B" stroke-width="1.04124" stroke-miterlimit="10"/>
<path d="M337.904 247.582C336.42 250.233 334.932 252.882 333.448 255.532" stroke="#0A2A2B" stroke-width="1.04124" stroke-miterlimit="10"/>
<path d="M363.98 229.983C364.177 230.245 364.609 230.889 364.652 231.804C364.666 232.098 364.687 232.685 364.361 233.264C363.837 234.197 362.792 234.457 362.388 234.561C361.714 234.729 361.133 234.692 359.44 234.328C357.198 233.846 356.357 233.608 356.049 233.481C355.444 233.227 354.968 232.963 354.644 232.766" stroke="#0A2A2B" stroke-width="1.04124" stroke-miterlimit="10"/>
<path d="M347.233 229.602C345.22 228.339 343.274 226.831 341.463 225.013C341.371 224.919 341.278 224.824 341.186 224.73" stroke="#0A2A2B" stroke-width="1.04124" stroke-miterlimit="10"/>
<path d="M348.727 236.248C348.141 237.643 347.466 239.077 346.688 240.535C346.385 241.105 346.327 241.228 346.232 241.368C344.797 243.499 342.077 243.931 341.479 244.025C339.74 244.299 338.416 243.949 336.252 243.371C334.719 242.964 333.485 242.47 332.631 242.083" stroke="#0A2A2B" stroke-width="1.04124" stroke-miterlimit="10"/>
<path d="M346.754 240.912C346.717 241.384 346.69 242.041 346.732 242.821C346.782 243.758 346.845 244.933 347.37 246.343C347.966 247.941 348.825 248.952 349.006 249.158C349.434 249.65 349.836 249.996 350.37 250.457C351.172 251.145 351.585 251.499 352.19 251.816C353.105 252.291 353.904 252.384 354.788 252.49C356.353 252.674 357.548 252.461 357.788 252.417C359.218 252.155 360.213 251.627 360.82 251.303C361.672 250.847 362.499 250.4 363.292 249.496C364.012 248.67 364.331 247.889 364.738 246.882C365.059 246.087 365.391 245.255 365.51 244.084C365.639 242.816 365.449 241.829 365.364 241.452C365.102 240.267 364.643 239.461 364.21 238.708C364.055 238.438 363.502 237.493 362.547 236.423C361.854 235.645 361.182 235.063 360.644 234.646" stroke="#0A2A2B" stroke-width="1.04124" stroke-miterlimit="10"/>
<path d="M373.039 224.453C375.875 227.962 378.706 231.474 381.537 234.988C382.233 235.849 383.42 237.33 384.113 238.191" stroke="#0A2A2B" stroke-width="1.04124" stroke-miterlimit="10"/>
<path d="M380.259 241.333C378.338 238.982 376.401 236.542 374.458 234.017C372.644 231.661 370.899 229.33 369.223 227.032" stroke="#0A2A2B" stroke-width="1.04124" stroke-miterlimit="10"/>
<path d="M342.514 235.472C340.203 234.229 337.891 232.99 335.584 231.749C335.896 231.228 336.762 229.941 338.424 229.279C339.938 228.676 341.268 228.92 342.119 229.076C342.782 229.199 344.07 229.453 345.292 230.449C346.034 231.055 346.448 231.688 346.857 232.308C347.366 233.085 347.755 233.673 347.909 234.563C348.034 235.297 347.968 236.032 347.928 236.455C347.902 236.737 347.872 237.037 347.786 237.418C347.591 238.272 347.252 238.868 346.808 239.635C346.391 240.353 346.183 240.714 345.961 240.915C345.83 241.03 345.468 241.335 343.821 241.759C342.868 242.004 342.313 242.147 341.497 242.205C340.767 242.256 340.027 242.311 339.117 242.086C337.673 241.727 336.718 240.894 336.297 240.476C335.197 239.376 334.829 238.173 334.692 237.704C334.551 237.218 334.49 236.794 334.458 236.488C337.142 236.154 339.828 235.813 342.514 235.472Z" fill="#0A2A2B"/>
<path d="M352.738 239.884C353.006 239.525 353.458 239.013 354.14 238.578C355.065 237.983 355.925 237.839 356.531 237.743C357.009 237.667 358.23 237.521 359.721 237.91C360.46 238.103 361.788 238.452 362.971 239.634C362.971 239.634 364.6 241.264 364.781 243.61C364.825 244.169 364.768 244.724 364.768 244.724C364.689 245.498 364.487 246.061 364.339 246.465C364.261 246.673 363.999 247.361 363.469 248.182C363.11 248.744 362.838 249.165 362.339 249.601C361.574 250.273 360.793 250.529 360.443 250.64C359.708 250.873 359.135 250.889 358.158 250.91C357.399 250.927 357.019 250.939 356.522 250.843C355.499 250.646 354.781 250.185 354.279 249.854C353.983 249.66 353.491 249.307 352.969 248.769C352.467 248.25 351.772 247.539 351.448 246.414C351.315 245.954 351.281 245.553 351.275 245.288C353.892 244.877 356.513 244.468 359.13 244.057C357.001 242.664 354.871 241.275 352.738 239.884Z" fill="#0A2A2B"/>
<path d="M380.615 223.351C380.663 223.127 381.077 222.96 381.905 222.637C382.468 222.419 382.754 222.308 382.971 222.345C383.622 222.46 383.975 223.326 384.109 223.629C385.367 226.495 388.182 226.778 388.319 229.139C388.39 230.389 387.688 231.762 387.032 231.796C386.795 231.807 386.619 231.633 385.96 230.79C384.927 229.463 384.409 228.799 383.71 227.681C383.159 226.804 383.035 226.524 382.533 225.828C382.106 225.235 381.89 224.94 381.615 224.624C380.91 223.819 380.553 223.637 380.615 223.351Z" fill="#0A2A2B"/>
<path d="M359.945 270.049C360.864 270.36 362.11 270.825 363.534 271.496C367.047 273.155 369.338 274.983 370.153 275.665C372.426 277.556 375.289 279.942 374.708 281.505C374.302 282.599 372.386 282.83 371.095 282.984C368.416 283.306 366.424 282.739 363.164 281.758C354.881 279.264 357.488 279.844 353.279 278.607C353.279 278.607 348.736 277.27 345.826 274.83C345.606 274.645 344.978 274.12 345.084 273.916C345.187 273.722 345.927 273.922 346.31 274.039C349.108 273.864 351.03 273.575 352.143 273.378C352.654 273.288 353.126 273.19 353.693 273.026C354.4 272.822 355.157 272.545 356.905 271.666C357.733 271.261 358.766 270.722 359.945 270.049Z" fill="#0A2A2B"/>
<path d="M324.784 265.42C325.881 264.193 325.715 258.897 325.495 256.403L325.929 256.866C326.221 258.084 326.797 260.54 326.765 260.618C326.733 260.695 329.828 265.212 331.379 267.46C332.903 268.997 336.18 272.2 337.102 272.717C338.024 273.234 342.064 275.048 343.968 275.89C346.632 276.819 351.988 278.688 352.105 278.736C352.25 278.796 359.356 282.352 359.627 282.521C359.898 282.69 365.446 284.241 365.737 284.361C365.97 284.457 370.165 284.636 372.234 284.714L374.641 283.833C374.774 283.831 375.071 284.306 375.19 286.217C375.217 286.641 375.05 287.5 375.15 288.755C375.238 289.854 375.091 290.489 374.859 290.832C375.104 290.908 375.393 291.013 375.733 291.153L377.867 292.034C379.808 292.834 380.227 295.395 378.907 298.594C377.606 301.748 377.844 301.448 376.345 304.804C374.847 308.16 375.927 306.505 374.069 307.158C372.21 307.81 368.529 305.724 365.036 304.283L370.886 306.696C368.46 305.695 368.226 304.747 367.644 304.507C367.062 304.267 358.357 301.697 357.533 301.357C356.708 301.017 353.305 301.146 350.879 300.145C348.454 299.144 347.435 298.724 346.762 296.914C346.224 295.465 332.605 291.413 331.326 291.396L322.205 287.633L318.682 286.18C315.417 284.644 314.933 283.975 312.616 282.655C309.72 281.006 310.976 279.708 310.181 277.506C309.386 275.305 313.213 268.368 314.905 266.057C316.596 263.746 317.081 264.684 320.437 266.182C323.793 267.68 323.412 266.955 324.784 265.42Z" fill="#B6E8F3"/>
<path d="M316.284 279.173C316.406 278.396 316.708 277.416 317.199 276.226L317.968 274.361L318.067 274.402L318.16 279.947L318.901 280.253L322.877 276.387L323.009 276.441L322.239 278.306C321.768 279.446 321.289 280.359 320.809 281.04L323.886 282.31C324.026 281.488 324.33 280.503 324.8 279.362L325.699 277.185C326.172 276.039 326.651 275.126 327.131 274.445L323.67 273.017L321.123 275.599C320.912 275.813 320.758 275.968 320.677 276.057C320.506 276.236 320.227 276.571 319.951 276.976L319.825 276.924C319.904 276.373 319.948 275.769 319.943 275.112L319.968 271.49L316.452 270.039C316.321 270.825 316.011 271.808 315.525 272.987L314.626 275.165C314.142 276.339 313.668 277.253 313.208 277.904L316.284 279.173ZM326.985 283.775C328.088 284.229 328.997 284.11 329.575 283.579L329.702 283.631L329.661 283.73C329.511 284.092 329.338 284.341 329.14 284.478L332.003 285.659C332.015 285.336 332.087 284.974 332.209 284.569C332.331 284.164 332.538 283.601 332.832 282.888L333.226 281.934C333.821 280.491 332.933 279.284 330.558 278.304C330.108 278.118 329.588 277.949 329 277.802C328.406 277.654 327.964 277.574 327.668 277.561L327.005 279.168C327.283 279.071 327.64 279.045 328.077 279.09C328.508 279.134 328.95 279.245 329.394 279.429C329.893 279.634 330.265 279.916 330.507 280.279C330.743 280.64 330.774 281.031 330.595 281.464L330.392 281.958L330.244 281.897C330.204 281.136 329.654 280.402 328.573 279.956C327.844 279.655 327.199 279.601 326.641 279.801C326.084 280.001 325.693 280.372 325.469 280.915C325.324 281.266 325.281 281.621 325.335 281.971C325.44 282.681 326.014 283.374 326.985 283.775ZM328.663 282.99C328.005 282.719 327.716 282.253 327.881 281.853C328.053 281.436 328.574 281.324 329.238 281.597C329.561 281.731 329.797 281.905 329.938 282.124C330.079 282.342 330.11 282.548 330.031 282.74C329.856 283.162 329.326 283.264 328.663 282.99ZM336.007 287.311C336.008 287.061 336.089 286.677 336.246 286.171C336.404 285.664 336.556 285.233 336.703 284.877L336.914 284.335C337.066 283.967 337.313 283.71 337.651 283.56C337.988 283.411 338.353 283.414 338.732 283.57C339.461 283.871 339.674 284.568 339.355 285.342L339.142 285.857C338.807 286.669 338.396 287.417 337.916 288.098L340.993 289.368C341.115 288.558 341.387 287.65 341.803 286.641L342.05 286.043C342.378 285.247 342.417 284.532 342.16 283.893C341.904 283.255 341.363 282.762 340.534 282.42C339.421 281.961 338.447 282.175 337.614 283.057L337.477 283.001L337.538 282.853C337.74 282.365 338.018 281.985 338.368 281.713L335.242 280.423C335.12 281.2 334.866 282.065 334.475 283.014L334.095 283.935C333.902 284.401 333.72 284.782 333.552 285.078C333.383 285.381 333.174 285.699 332.925 286.039L336.007 287.311ZM344.031 290.807C345.134 291.262 346.043 291.143 346.622 290.612L346.748 290.664L346.707 290.762C346.558 291.124 346.384 291.374 346.187 291.511L349.05 292.692C349.061 292.369 349.133 292.007 349.255 291.602C349.378 291.197 349.584 290.634 349.878 289.921L350.272 288.966C350.867 287.524 349.979 286.317 347.604 285.337C347.154 285.151 346.634 284.982 346.046 284.835C345.453 284.687 345.011 284.607 344.714 284.594L344.051 286.201C344.329 286.104 344.686 286.078 345.123 286.123C345.555 286.167 345.996 286.278 346.441 286.461C346.94 286.667 347.311 286.949 347.553 287.312C347.789 287.673 347.82 288.064 347.642 288.497L347.438 288.991L347.29 288.93C347.251 288.169 346.7 287.435 345.62 286.989C344.89 286.688 344.245 286.634 343.688 286.834C343.13 287.034 342.739 287.405 342.515 287.948C342.37 288.299 342.327 288.654 342.382 289.004C342.486 289.714 343.061 290.407 344.031 290.807ZM345.709 290.023C345.051 289.752 344.762 289.286 344.927 288.886C345.099 288.469 345.62 288.357 346.284 288.63C346.607 288.764 346.844 288.938 346.984 289.157C347.125 289.375 347.156 289.581 347.077 289.773C346.903 290.195 346.373 290.297 345.709 290.023ZM352.287 297.025C354.498 297.937 356.882 297.804 357.638 295.972C357.76 295.676 357.803 295.353 357.771 295.013L358.465 293.329C358.936 292.188 359.415 291.275 359.895 290.594L356.829 289.329C356.827 289.63 356.807 289.866 356.778 290.046C356.74 290.23 356.671 290.445 356.569 290.692L356.517 290.818L356.369 290.757C356.38 289.657 355.809 288.722 354.646 288.242C353.774 287.883 352.94 287.93 352.297 288.306C351.648 288.681 351.132 289.309 350.791 290.137C350.449 290.965 350.376 291.763 350.575 292.48C350.765 293.201 351.326 293.817 352.198 294.177C353.388 294.668 354.456 294.383 355.201 293.587L355.327 293.639C355.458 293.975 355.465 294.286 355.345 294.577C355.139 295.076 354.778 295.376 354.264 295.485C353.753 295.588 353.153 295.502 352.479 295.223C351.886 294.979 351.319 294.642 350.78 294.208C350.24 293.773 349.866 293.343 349.657 292.916L348.787 295.054C349.164 295.37 349.678 295.711 350.33 296.076C350.981 296.441 351.635 296.756 352.287 297.025ZM353.97 293.04C353.548 292.866 353.265 292.602 353.125 292.242C352.979 291.88 352.986 291.505 353.149 291.11C353.316 290.704 353.581 290.421 353.939 290.268C354.292 290.112 354.679 290.124 355.101 290.298C355.513 290.468 355.782 290.733 355.922 291.092C356.063 291.452 356.045 291.836 355.88 292.237C355.724 292.615 355.464 292.887 355.104 293.046C354.743 293.205 354.365 293.203 353.97 293.04ZM362.169 298.291C362.723 298.519 363.303 298.701 363.901 298.838C364.501 298.97 364.981 299.021 365.346 298.992L366.064 297.125C365.761 297.269 365.374 297.322 364.903 297.281C364.431 297.241 363.965 297.126 363.51 296.938C362.918 296.693 362.457 296.349 362.124 295.91C361.786 295.469 361.669 295.068 361.768 294.704L361.879 294.686C362.289 295.388 362.966 295.847 363.931 296.245C365.395 296.849 366.447 296.68 366.875 295.643C367.049 295.221 367.074 294.788 366.895 294.304C366.642 293.609 365.871 292.88 364.447 292.286C363.268 291.8 362.159 291.734 361.343 292.032C360.519 292.334 359.897 292.925 359.56 293.742C359.193 294.63 359.242 295.491 359.715 296.322C360.187 297.152 361.001 297.809 362.169 298.291ZM363.219 295.2C362.633 294.958 362.247 294.632 362.058 294.22C362.236 293.928 362.476 293.751 362.769 293.679C363.059 293.613 363.356 293.639 363.653 293.762C364.316 294.035 364.615 294.493 364.432 294.937C364.353 295.129 364.196 295.244 363.96 295.288C363.721 295.337 363.477 295.307 363.219 295.2ZM369.206 301.008C369.215 300.517 369.366 299.919 369.658 299.211L369.866 298.707C370.059 298.24 370.387 297.927 370.848 297.757C371.31 297.588 371.773 297.6 372.234 297.79C372.766 298.01 373.211 298.456 373.372 298.875L374.326 296.561C374.116 296.339 373.843 296.162 373.503 296.022C372.428 295.579 371.389 296.01 370.639 297.222L370.502 297.165L370.64 296.831C370.751 296.562 370.899 296.296 371.091 296.035C371.276 295.771 371.47 295.581 371.671 295.453L368.457 294.126C368.317 294.948 368.063 295.812 367.69 296.717L367.305 297.65C367.119 298.099 366.941 298.469 366.776 298.76C366.609 299.057 366.398 299.381 366.14 299.743L369.206 301.008Z" fill="black"/>
<g clip-path="url(#clip1_1577:4048)">
<path d="M24.922 231.047C24.3911 231.377 23.6662 231.869 22.8789 232.558C22.6534 232.754 21.7258 233.564 21.2257 234.239C19.6898 236.309 20.4717 239.414 20.5812 239.828C21.731 244.164 26.583 245.67 26.9331 245.772C26.9451 246.258 26.9679 246.936 27.0108 247.743C27.0446 248.367 27.17 250.629 27.4572 252.697C27.8592 255.595 28.0993 257.313 29.0618 259.353C29.7474 260.803 30.6138 262.638 32.6627 263.977C34.9085 265.445 37.2 265.419 37.9098 265.401C40.3994 265.339 42.1605 264.31 43.1345 263.722C48.474 260.508 49.9627 253.863 50.2557 252.424C51.0093 253.491 51.7715 254.562 52.5436 255.635C53.2613 256.633 53.9779 257.624 54.6945 258.603C54.1307 262.7 54.0079 265.063 54.1089 266.463C54.1291 266.753 54.2016 267.574 53.7413 267.909C53.215 268.292 52.5238 267.649 51.5421 267.791C50.6836 267.914 50.1475 268.557 49.3663 269.521C48.1217 271.058 47.5229 272.577 47.2564 273.355C46.5228 275.501 46.545 277.216 46.5732 278.486C46.6217 280.704 47.0692 281.204 47.2217 281.359C48.2369 282.385 50.0347 281.998 50.3517 281.927C64.5367 279.703 78.7198 277.48 92.9047 275.256C94.5434 274.66 95.1175 273.911 95.3155 273.292C95.6395 272.274 95.2465 270.646 95.2451 270.625C95.2451 270.625 94.585 268.334 94.2534 267.458C93.2944 264.932 91.2683 263.739 90.2899 263.048C89.1389 262.234 87.2169 260.912 84.4499 260.739C83.1183 260.657 82.0174 260.868 81.3017 261.06C81.3338 260.162 81.368 259.265 81.4 258.367C81.9552 258.786 82.833 259.344 84.0121 259.693C86.6776 260.481 88.9571 259.637 89.7097 259.346C92.0661 258.435 93.3663 256.831 95.0409 254.766C96.5333 252.926 97.4806 251.214 98.0466 250.056C98.3965 249.983 99.4674 249.716 100.342 248.729C101.2 247.761 101.345 246.694 101.38 246.335C101.97 246.021 103.227 245.247 104.144 243.721C105.136 242.064 105.146 240.49 105.14 239.797C105.135 238.994 105.086 236.821 103.461 234.928C102.28 233.554 100.85 233.007 100.151 232.794C99.9822 232.671 99.73 232.487 99.4231 232.263C97.972 231.207 97.2465 230.68 97.1599 230.635C96.0229 230.047 94.0909 229.85 92.8821 230.712C92.3127 231.118 91.9027 231.761 90.9831 231.877C90.6746 231.916 90.4244 231.882 90.2343 231.845C88.4038 231.503 86.8149 230.274 86.8149 230.274C85.8669 229.541 83.222 227.497 80.5559 227.189C79.749 227.096 78.5086 227.112 76.9055 227.786C76.5928 226.882 75.9597 225.42 74.6743 223.996C73.969 223.213 71.982 221.08 68.6675 220.625C68.1238 220.551 65.8891 220.293 63.3927 221.451C61.1425 222.495 59.9059 224.12 59.4146 224.852C58.8962 224.518 58.1293 224.073 57.1478 223.671C55.8364 223.135 54.3318 222.518 52.4092 222.703C50.5228 222.884 49.1894 223.744 48.4118 224.246C46.9445 225.193 46.106 226.249 45.9348 226.47C44.5621 228.231 44.1506 230.078 44.0094 231.11C43.6719 231.112 43.3328 231.117 42.9953 231.119C42.9625 230.86 42.9243 230.468 42.9175 229.992C42.8913 228.263 43.3083 227.417 43.431 226.466C43.7518 223.99 41.9512 221.882 41.8214 221.735C41.4882 221.356 40.1403 219.869 37.8752 219.653C36.1937 219.493 34.9146 220.117 34.4218 220.392C34.0708 219.925 33.4254 219.214 32.4125 218.798C30.2105 217.895 27.6863 218.962 26.2963 220.427C26.128 220.605 25.2346 221.57 24.8541 223.082C24.5796 224.168 24.7129 224.969 24.8182 226.012C24.9291 227.203 25.0288 228.904 24.922 231.047Z" fill="#F77655"/>
<path d="M40.082 234.555C39.3606 234.499 39.7396 232.68 40.0336 230.034C40.3494 227.192 40.6811 226.546 40.2891 225.333C40.165 224.951 39.5779 223.138 37.9108 222.599C36.532 222.153 34.8906 222.732 33.7412 224.047C33.6472 223.72 33.3508 222.857 32.5015 222.258C31.4793 221.535 30.0087 221.445 28.9168 222.16C28.0801 222.707 27.7643 223.529 27.6603 223.845C27.7346 225.719 27.7678 227.665 27.748 229.682C27.7379 230.868 27.7083 232.03 27.6668 233.165C27.0622 233.285 26.1296 233.542 25.144 234.155C24.4592 234.58 23.7852 235.001 23.3246 235.828C22.5972 237.135 22.9155 238.533 23.0689 239.041C23.5487 240.64 24.7939 241.461 25.4675 241.905C25.7492 242.092 26.7496 242.725 28.2121 242.962C28.8716 243.068 29.4362 243.065 29.8434 243.036C29.7735 244.263 29.7241 245.98 29.8317 248.029C30.0475 252.106 30.7345 254.68 30.9052 255.298C31.8279 258.645 32.8198 259.869 33.1339 260.237C33.7645 260.977 34.677 262.017 36.2167 262.399C37.9077 262.817 39.3322 262.192 39.9733 261.909C41.4957 261.239 42.3448 260.226 43.3777 258.961C44.1875 257.97 45.2812 256.412 46.3568 253.933C47.1059 252.207 48.0134 249.647 48.4751 246.361C49.0437 246.111 49.7516 245.907 50.1727 246.227C50.4924 246.47 50.4711 246.879 50.6278 247.445C50.8789 248.353 51.3572 248.828 51.8756 249.496C52.6849 250.546 54.6244 253.417 57.4608 257.711C57.4052 259.747 57.2937 261.885 57.1088 264.113C56.8886 266.759 56.5881 269.265 56.237 271.621C54.763 271.434 54.0492 270.907 53.6705 270.437C53.4726 270.19 53.4221 270.029 53.2353 269.977C52.4263 269.746 50.9957 272.042 50.3116 273.674C49.8535 274.765 49.2807 276.624 49.4584 279.195C63.8367 276.941 78.215 274.687 92.5914 272.433C92.5856 271.467 92.426 269.57 91.2112 267.692C89.4395 264.95 86.6476 264.149 85.7066 263.894C84.7698 263.641 83.2147 263.223 81.2864 263.694C79.0198 264.249 77.6424 265.683 77.1301 266.28C78.0868 263.661 78.8423 260.49 78.8806 256.882C78.887 256.353 78.8759 255.836 78.8533 255.333C75.0334 248.927 72.6958 245.337 71.7776 244.46C71.7022 244.388 71.4412 244.148 71.4933 243.91C71.6211 243.313 73.5995 243.211 75.6556 243.258C75.8666 244.332 76.2425 245.875 76.9385 247.651C77.8863 250.068 79.2614 253.575 82.6052 255.754C83.654 256.437 85.0513 257.348 86.8655 257.201C87.4198 257.157 88.8759 256.944 91.4825 254.396C92.8396 253.068 94.7569 250.867 96.3594 247.549C96.7535 247.437 97.5138 247.158 98.2053 246.465C99.1872 245.482 99.3808 244.314 99.4268 243.926C99.8413 243.857 100.704 243.648 101.353 242.931C102.253 241.934 102.158 240.599 102.088 239.61C102.008 238.488 101.985 237.526 101.241 236.734C100.395 235.834 99.2112 235.749 98.8404 235.738C98.3938 235.206 97.9607 234.821 97.6283 234.559C97.0961 234.137 96.5618 233.714 95.7411 233.483C95.4221 233.394 94.8666 233.244 94.1693 233.367C93.9124 233.413 92.8144 233.606 92.5114 234.386C92.456 234.528 92.4409 234.655 92.4356 234.745C92.7836 234.871 91.7408 234.487 91.3863 234.382C90.9501 234.25 90.2761 234.175 89.2774 234.481C88.6152 234.27 87.9368 234.031 87.2436 233.759C84.5061 232.685 82.2031 231.36 80.3157 230.048C78.3522 230.282 76.3884 230.514 74.4267 230.748C74.4034 230.128 74.3029 229.202 73.9317 228.148C73.6689 227.401 73.291 226.328 72.2749 225.333C71.9609 225.027 70.8235 223.978 69.0771 223.677C68.3126 223.545 67.7303 223.609 66.6056 223.731C65.5381 223.845 64.9824 223.905 64.3027 224.228C63.565 224.576 63.1305 225.025 62.379 225.793C61.6495 226.541 61.2847 226.914 61.0334 227.492C60.9805 227.613 60.3493 229.086 60.5881 229.867C60.604 229.918 60.6506 230.055 60.5864 230.178C60.47 230.402 60.0636 230.423 59.7543 230.407C59.731 230.073 59.6617 229.581 59.4509 229.029C58.6741 226.997 56.7273 226.161 56.2815 225.968C54.8988 225.373 53.6797 225.438 53.0971 225.475C52.3838 225.521 50.7244 225.651 49.2175 226.878C48.1531 227.744 47.6713 228.745 47.4397 229.238C46.6742 230.871 46.6876 232.492 46.7008 233.246C46.7032 233.422 46.8133 233.642 46.716 233.665C44.6146 234.159 42.1915 234.719 40.082 234.555Z" fill="#F77655" stroke="black" stroke-width="0.575555" stroke-miterlimit="10"/>
<path d="M50.5626 246.283C52.7669 245.937 54.9712 245.592 57.1755 245.246C59.4056 248.67 61.6378 252.095 63.8679 255.519C64.0514 255.686 64.4787 256.12 64.6677 256.831C64.8817 257.626 64.6676 258.279 64.5825 258.504C63.8569 261.842 63.133 265.177 62.4075 268.514C63.1338 267.771 64.2789 266.813 65.8955 266.15C67.0979 265.656 68.0994 265.517 68.4676 265.475C69.1007 265.401 70.4777 265.253 72.1398 265.759C73.8528 266.281 74.9286 267.21 75.5619 267.769C76.2875 268.409 77.0153 269.05 77.4879 270.145C77.628 270.469 77.7755 271.063 78.0642 272.235C78.0954 272.36 78.5679 274.285 78.6113 274.462" stroke="black" stroke-width="0.575555" stroke-miterlimit="10"/>
<path d="M58.1734 246.382C58.5241 246.686 59.0623 247.097 59.7922 247.455C60.4336 247.768 61.0774 248.084 61.936 248.086C62.9403 248.087 63.6771 247.659 64.0077 247.464C65.7125 246.447 66.1954 244.621 66.3084 244.19C66.4875 243.512 66.4952 242.978 66.5035 242.276C66.5208 241.011 66.3365 239.972 66.1677 239.266C65.9198 239.519 65.5395 239.868 65.0268 240.214C63.8238 241.026 62.6925 241.279 62.1138 241.403C61.133 241.613 60.378 241.603 59.7769 241.596C58.9304 241.585 58.2486 241.572 57.4303 241.257C56.8537 241.035 56.2932 240.643 56.2929 240.641C56.1105 240.518 55.963 240.407 55.8587 240.325C56.0791 241.321 56.4067 242.47 56.8979 243.708C57.3019 244.724 57.7446 245.616 58.1734 246.382Z" stroke="black" stroke-width="0.575555" stroke-miterlimit="10"/>
<path d="M86.581 233.712C86.7662 235.054 86.9516 236.397 87.1386 237.739C85.1158 239.28 83.0929 240.82 81.0698 242.359C81.1143 243.175 81.2578 244.351 81.7146 245.679C82.6249 248.327 84.8511 251.788 86.736 251.462C87.3486 251.356 87.7308 250.883 88.4417 250.004C89.5641 248.616 89.9946 247.188 90.1757 246.361C89.7421 246.221 89.0035 245.919 88.2935 245.268C87.9646 244.966 87.3926 244.426 87.0783 243.524C86.9298 243.097 86.5642 242.053 87.0894 241.068C87.4752 240.345 88.1371 240.033 88.4407 239.889C89.2271 239.517 89.9408 239.56 90.6016 239.6C90.9644 239.623 91.6453 239.668 92.4495 240.004C93.2037 240.319 93.9791 240.644 94.3129 241.448C94.5345 241.982 94.5691 242.748 94.1613 243.33C93.7903 243.862 93.2263 243.993 92.5068 244.16C92.0177 244.274 91.2571 244.452 90.4617 244.085C90.0934 243.915 89.8357 243.684 89.679 243.514" stroke="black" stroke-width="0.575555" stroke-miterlimit="10"/>
<path d="M89.1246 234.602C88.9044 234.796 88.6013 235.092 88.2983 235.5C88.0113 235.887 87.6492 236.377 87.4815 237.091C87.3463 237.665 87.3992 238.127 87.474 238.777C87.5342 239.31 87.6375 239.746 87.7244 240.053" stroke="black" stroke-width="0.575555" stroke-miterlimit="10"/>
<path d="M92.4358 234.744C92.7027 234.935 93.0741 235.247 93.4152 235.714C93.8701 236.336 94.0364 236.914 94.1224 237.215C94.2447 237.649 94.4002 238.207 94.2914 238.925C94.1883 239.605 93.8974 240.103 93.702 240.381" stroke="black" stroke-width="0.575555" stroke-miterlimit="10"/>
<path d="M98.7973 235.886C98.923 236.589 98.9731 237.181 98.9944 237.615C99.0403 238.551 99.0632 239.02 98.8675 239.493C98.6885 239.925 98.4145 240.246 97.9331 240.805C97.6738 241.108 97.4406 241.342 97.2735 241.502" stroke="black" stroke-width="0.575555" stroke-miterlimit="10"/>
<path d="M94.1724 239.595C94.4007 239.887 94.8177 240.342 95.4709 240.706C96.2559 241.142 96.9913 241.225 97.3803 241.242" stroke="black" stroke-width="0.575555" stroke-miterlimit="10"/>
<path d="M97.3382 241.347C97.3764 241.603 97.5197 242.344 98.1502 242.997C98.7736 243.641 99.4996 243.813 99.7556 243.86" stroke="black" stroke-width="0.575555" stroke-miterlimit="10"/>
<path d="M93.1438 246.8C93.5761 246.944 94.0697 247.082 94.6184 247.189C95.4335 247.346 96.168 247.398 96.7858 247.4" stroke="black" stroke-width="0.575555" stroke-miterlimit="10"/>
<path d="M90.2588 246.496C90.4624 246.544 90.7055 246.584 90.9811 246.595C91.4736 246.615 91.8888 246.538 92.1867 246.456" stroke="black" stroke-width="0.575555" stroke-miterlimit="10"/>
<path d="M81.0245 242.144C81.1063 241.91 81.2161 241.483 81.1134 240.976C80.8859 239.847 79.8116 239.349 79.6841 239.291C79.9162 238.975 80.4848 238.106 80.5065 236.869C80.5354 235.245 79.5971 234.165 79.3745 233.922C79.6072 233.511 79.9183 232.844 80.0473 231.97C80.1505 231.278 80.1066 230.688 80.0416 230.273" stroke="black" stroke-width="0.575555" stroke-miterlimit="10"/>
<path d="M79.52 239.2C75.2141 239.642 70.9084 240.085 66.6006 240.528" stroke="black" stroke-width="0.575555" stroke-miterlimit="10"/>
<path d="M81.0845 242.241C76.2193 242.944 71.3561 243.646 66.4906 244.347" stroke="black" stroke-width="0.575555" stroke-miterlimit="10"/>
<path d="M38.6766 239.501C38.1742 239.79 37.3357 240.164 36.2694 240.176C35.8275 240.181 35.2276 240.182 34.5656 239.849C34.2746 239.702 33.5619 239.33 33.1932 238.477C33.1016 238.264 32.7504 237.461 33.1255 236.571C33.4693 235.754 34.1888 235.426 34.356 235.353C35.3206 235.151 38.1561 234.608 40.0288 235.058C40.3315 235.131 40.5748 235.221 40.7983 235.333C42.1261 235.999 42.6285 237.346 42.7515 237.672C42.9018 238.074 43.3704 239.329 42.8351 240.733C42.3355 242.043 41.2748 242.659 40.7996 242.936C39.3865 243.757 37.9578 243.675 37.2072 243.631C36.5254 243.592 35.9658 243.466 35.5779 243.358C35.4271 244.081 35.2512 245.177 35.2458 246.517C35.2372 248.754 35.7153 248.694 36.0106 251.817C36.1503 253.291 36.1377 254.301 36.889 255.315C37.1011 255.602 37.5829 256.236 38.1856 256.203C38.5766 256.183 38.9284 255.887 39.4857 255.007C40.4505 253.481 40.8178 252.12 40.8178 252.12C41.1371 250.936 41.6718 249.293 42.6269 247.209C44.517 246.965 46.4071 246.721 48.2972 246.478" stroke="black" stroke-width="0.575555" stroke-miterlimit="10"/>
<path d="M50.3162 246.267C50.5451 246.278 50.7743 246.29 51.0032 246.301" stroke="black" stroke-width="0.575555" stroke-miterlimit="10"/>
<path d="M65.1543 246.688C69.3171 252.964 71.1135 255.567 71.5067 256.006C71.5419 256.045 71.6893 256.205 71.808 256.454C72.0943 257.054 71.9767 257.666 71.9339 257.889C71.6654 259.298 71.5273 260.733 71.2109 262.134C71.0448 262.871 70.833 263.936 70.6754 265.26" stroke="black" stroke-width="0.575555" stroke-miterlimit="10"/>
<path d="M79.2117 233.912C77.0453 234.252 73.8712 234.555 71.7048 234.895" stroke="black" stroke-width="0.575555" stroke-miterlimit="10"/>
<path d="M63.5054 235.445C62.1825 235.653 60.2473 235.956 58.9243 236.163" stroke="black" stroke-width="0.575555" stroke-miterlimit="10"/>
<path d="M43.2962 234.612C43.8718 238.631 44.4458 242.652 45.0214 246.671" stroke="black" stroke-width="0.575555" stroke-miterlimit="10"/>
<path d="M45.9544 234.064C46.4097 238.158 46.8629 242.25 47.3182 246.344" stroke="black" stroke-width="0.575555" stroke-miterlimit="10"/>
<path d="M48.178 236.234C48.4985 239.257 48.8972 242.791 49.2177 245.815" stroke="black" stroke-width="0.575555" stroke-miterlimit="10"/>
<path d="M55.9392 241.456C53.6591 241.814 51.3789 242.171 49.0969 242.529" stroke="black" stroke-width="0.575555" stroke-miterlimit="10"/>
<path d="M68.4488 236.703C64.8405 237.269 61.4569 234.802 60.8913 231.194C60.3257 227.586 62.7922 224.202 66.4005 223.636C70.0088 223.071 73.3924 225.537 73.958 229.146C74.5236 232.754 72.057 236.137 68.4488 236.703Z" fill="black" stroke="black" stroke-width="0.575555" stroke-miterlimit="10"/>
<path d="M54.6012 238.874C50.9929 239.439 47.6093 236.973 47.0437 233.364C46.4781 229.756 48.9446 226.373 52.5529 225.807C56.1612 225.241 59.5448 227.708 60.1104 231.316C60.676 234.924 58.2094 238.308 54.6012 238.874Z" fill="black" stroke="black" stroke-width="0.575555" stroke-miterlimit="10"/>
<path d="M89.7353 237.382C89.6755 237.596 89.6207 237.853 89.5951 238.148C89.5538 238.64 89.6078 239.059 89.6749 239.363" stroke="black" stroke-width="0.575555" stroke-miterlimit="10"/>
<path d="M33.7206 224.23C33.7108 224.688 33.6994 225.148 33.6877 225.606C33.6217 228.394 33.5444 231.171 33.4577 233.938" stroke="black" stroke-width="0.575555" stroke-miterlimit="10"/>
<path d="M34.2168 234.035C33.7424 234.131 33.2665 234.229 32.7921 234.324" stroke="black" stroke-width="0.575555" stroke-miterlimit="10"/>
<path d="M27.3119 233.531C28.1822 233.433 28.8612 233.541 29.2976 233.649C30.3099 233.9 31.0281 234.393 32.0163 235.073C32.5737 235.458 33.0132 235.808 33.311 236.061" stroke="black" stroke-width="0.575555" stroke-miterlimit="10"/>
<path d="M26.5922 238.537C26.8847 238.619 27.2909 238.732 27.7756 238.864C30.8005 239.678 31.4355 239.677 31.9828 239.403C32.251 239.268 32.6289 239.003 32.9613 238.422" stroke="black" stroke-width="0.575555" stroke-miterlimit="10"/>
<path d="M64.233 240.808C64.5292 242.698 64.8254 244.588 65.1217 246.478" stroke="black" stroke-width="0.575555" stroke-miterlimit="10"/>
<path d="M61.4916 241.668C61.8196 243.76 62.1473 245.851 62.4753 247.943" stroke="black" stroke-width="0.575555" stroke-miterlimit="10"/>
<path d="M58.2999 241.698C58.3575 243.342 58.4129 244.984 58.4705 246.627" stroke="black" stroke-width="0.575555" stroke-miterlimit="10"/>
<path d="M72.6532 233.238C71.9478 233.086 71.0004 232.877 69.995 231.914C69.7597 231.689 69.3557 231.292 69.0391 230.66C68.5514 229.692 68.6184 228.831 68.591 228.433C68.5276 227.484 67.7559 226.129 64.4467 224.455C64.165 224.392 64.026 224.447 63.9638 224.484C63.9318 224.503 63.8416 224.56 63.7715 224.607C63.7204 224.641 63.6854 224.666 63.6311 224.703C63.5314 224.773 63.4352 224.841 63.3138 224.934C63.3138 224.934 63.2372 224.99 63.1651 225.05C62.7302 225.398 62.2019 226.116 62.2019 226.116C61.6809 226.83 61.7812 226.789 61.4017 227.317C61.4017 227.317 61.2486 227.529 61.1487 227.883C61.1339 227.938 61.1123 228.023 61.1343 228.126C61.1521 228.214 61.1934 228.28 61.2227 228.318C61.6308 228.456 62.5045 228.814 63.2319 229.689C63.7298 230.288 63.9624 230.893 64.0748 231.275C64.2604 231.852 64.5353 232.516 64.9558 233.203C66.1491 235.154 67.5989 236.016 68.5352 236.489C69.0766 236.375 69.5065 236.218 69.8143 236.089C70.0221 236.002 70.266 235.897 70.5611 235.711C70.8404 235.536 70.9541 235.419 71.3237 235.101C72.2702 234.288 72.5492 234.172 72.6484 233.765C72.7022 233.55 72.6782 233.36 72.6532 233.238Z" fill="#F77655"/>
<path d="M58.7679 235.414C58.0625 235.262 57.1151 235.054 56.1097 234.091C55.8744 233.865 55.4704 233.468 55.1538 232.836C54.6661 231.868 54.7331 231.007 54.7057 230.609C54.6423 229.66 53.8707 228.305 50.5614 226.631C50.2797 226.569 50.1407 226.624 50.0785 226.66C50.0465 226.679 49.9563 226.736 49.8862 226.784C49.8351 226.817 49.8001 226.842 49.7458 226.88C49.6461 226.95 49.5499 227.017 49.4285 227.11C49.4285 227.11 49.3519 227.167 49.2798 227.226C48.8449 227.574 48.3166 228.292 48.3166 228.292C47.7956 229.007 47.8959 228.966 47.5164 229.493C47.5164 229.493 47.3633 229.706 47.2634 230.059C47.2487 230.114 47.227 230.199 47.249 230.302C47.2668 230.391 47.3081 230.456 47.3374 230.494C47.7455 230.632 48.6192 230.991 49.3466 231.865C49.8445 232.465 50.0772 233.069 50.1895 233.452C50.3751 234.028 50.65 234.692 51.0705 235.38C52.2638 237.331 53.7136 238.193 54.6499 238.666C55.1914 238.552 55.6212 238.395 55.929 238.265C56.1368 238.178 56.3807 238.074 56.6758 237.888C56.9551 237.712 57.0688 237.595 57.4384 237.277C58.3849 236.464 58.6639 236.349 58.7631 235.941C58.8169 235.727 58.7929 235.536 58.7679 235.414Z" fill="#F77655"/>
<path d="M47.9086 279.151C48.0508 279.115 48.2341 279.113 48.4018 279.189L50.1498 279.324C54.3208 278.923 62.6987 278.126 62.8423 278.15C62.9859 278.174 72.0174 276.343 76.5152 275.424L91.3542 273.448C92.4426 272.461 94.6601 270.972 94.8232 272.904C94.912 272.851 95.1218 272.95 95.2501 273.769C95.4106 274.793 108.919 275.122 110.1 276.336C111.28 277.549 112.514 282.075 112.737 283.497L113.468 288.16L98.3437 290.531L92.4863 291.449C92.1016 292.092 84.7167 292.172 84.4 292.828C84.004 293.647 81.5036 296.112 80.2525 296.308C79.0014 296.504 77.5876 296.92 74.5961 296.049C72.2028 295.352 71.3971 295.094 71.2934 295.052L64.659 296.801L56.7543 298.04C55.4784 298.202 52.5432 298.607 51.0107 298.941C49.095 299.358 39.3948 299.13 38.582 298.034C37.7693 296.938 37.2138 287.819 37.2375 285.368C37.2612 282.917 48.4612 282.677 48.8015 280.759C48.9796 279.755 48.7186 279.333 48.4018 279.189L47.9086 279.151Z" fill="#F77655"/>
<path d="M46.0815 295.45C47.5409 295.221 48.6742 294.635 49.4113 293.749C50.1485 292.863 50.4561 291.589 50.2192 290.078C49.9844 288.581 49.3009 287.456 48.328 286.838C47.355 286.22 46.0829 286.004 44.6364 286.231L40.1618 286.932C40.3163 287.33 40.4676 287.833 40.6232 288.447C40.7789 289.062 40.8973 289.649 40.987 290.221L41.3871 292.774C41.4768 293.346 41.5438 293.941 41.5826 294.568C41.6215 295.194 41.6314 295.719 41.6069 296.151L46.0815 295.45ZM43.918 289.38L45.2295 289.174C45.6731 289.105 46.0756 289.193 46.437 289.44C46.7994 289.692 47.0161 290.067 47.0948 290.568C47.1744 291.076 47.0826 291.499 46.8203 291.843C46.5517 292.188 46.1955 292.395 45.7455 292.466L44.434 292.672L43.918 289.38ZM56.0306 294.081C56.68 293.98 57.3266 293.819 57.9653 293.607C58.6029 293.388 59.0812 293.162 59.4065 292.926L59.0155 290.768C58.8135 291.076 58.4803 291.346 58.0159 291.577C57.5515 291.808 57.0493 291.965 56.5157 292.049C55.8213 292.158 55.1928 292.098 54.6311 291.877C54.063 291.656 53.7247 291.347 53.6098 290.95L53.7026 290.87C54.487 291.293 55.3831 291.337 56.5146 291.16C58.2312 290.891 59.1201 290.132 58.9296 288.917C58.852 288.422 58.6282 288.003 58.1844 287.651C57.5516 287.144 56.4135 286.901 54.7409 287.156C53.3587 287.373 52.2822 287.944 51.6877 288.689C51.0877 289.442 50.8414 290.35 50.9916 291.308C51.1548 292.349 51.6919 293.128 52.6081 293.636C53.5244 294.145 54.6613 294.296 56.0306 294.081ZM55.2524 290.587C54.5645 290.695 54.0175 290.609 53.6051 290.332C53.6055 289.956 53.7293 289.653 53.9627 289.419C54.197 289.191 54.4905 289.047 54.8377 288.992C55.6156 288.87 56.1566 289.128 56.2382 289.649C56.2735 289.874 56.1924 290.071 55.996 290.247C55.8006 290.429 55.5545 290.54 55.2524 290.587ZM63.9576 292.839C65.1919 292.645 66.1142 292.31 66.7298 291.825C67.3454 291.339 67.597 290.76 67.4892 290.072C67.3384 289.068 66.3515 288.781 65.3021 288.768C63.8796 288.728 62.2915 289.102 62.2199 288.645C62.1786 288.382 62.6187 288.122 63.3966 288C63.9431 287.914 64.5006 287.899 65.0638 287.962C65.6271 288.025 66.0959 288.117 66.4702 288.236L66.1294 285.977C65.065 285.742 63.9665 285.71 62.835 285.888C61.6585 286.072 60.7877 286.4 60.2225 286.87C59.6519 287.348 59.4135 287.886 59.5082 288.491C59.8972 290.972 64.6346 289.09 64.7767 289.997C64.8221 290.286 64.333 290.527 63.4265 290.669C62.9443 290.745 62.3462 290.753 61.6395 290.699C60.9264 290.646 60.3037 290.54 59.767 290.393L60.1549 292.868C60.6079 292.942 61.2259 292.977 62.0155 292.972C62.7977 292.961 63.4497 292.918 63.9576 292.839ZM70.342 284.151C70.59 283.842 70.679 283.486 70.6155 283.081C70.551 282.669 70.3562 282.351 70.0255 282.132C69.6949 281.914 69.289 281.846 68.8004 281.923C68.3118 281.999 67.9462 282.188 67.7047 282.496C67.4567 282.805 67.3687 283.168 67.4332 283.579C67.4966 283.984 67.6905 284.297 68.0211 284.515C68.3453 284.734 68.7512 284.802 69.2398 284.726C69.7284 284.649 70.094 284.46 70.342 284.151ZM72.1317 291.366C71.7943 290.517 71.5171 289.421 71.3075 288.084L71.0223 286.264C70.9276 285.66 70.8852 285.179 70.8876 284.816C70.5625 285.137 70.0693 285.353 69.3943 285.459C68.7192 285.565 68.1645 285.513 67.7181 285.313C67.8203 285.587 67.927 286.058 68.0329 286.733L68.3181 288.552C68.5277 289.889 68.5991 291.018 68.5379 291.93L72.1317 291.366ZM77.7198 293.567C80.3107 293.16 82.4691 291.676 82.1325 289.529C82.078 289.182 81.9346 288.855 81.7096 288.554L81.4003 286.581C81.1906 285.243 81.1192 284.115 81.1804 283.203L77.5866 283.766C77.7561 284.049 77.8716 284.282 77.9468 284.467C78.0166 284.661 78.0742 284.902 78.1195 285.191L78.1427 285.339L77.9691 285.366C77.3522 284.33 76.2844 283.779 74.9215 283.993C73.8993 284.153 73.1443 284.673 72.7565 285.393C72.3622 286.113 72.2371 286.996 72.3892 287.967C72.5414 288.937 72.9286 289.727 73.5234 290.285C74.1127 290.852 74.9897 291.109 76.0119 290.949C77.407 290.731 78.2446 289.855 78.4891 288.684L78.637 288.66C78.9514 288.901 79.1347 289.188 79.1882 289.529C79.2799 290.114 79.1125 290.602 78.6936 290.997C78.2737 291.385 77.6624 291.646 76.8716 291.77C76.1773 291.878 75.454 291.886 74.7007 291.787C73.9474 291.688 73.3512 291.498 72.912 291.218L73.3169 293.717C73.85 293.798 74.5259 293.824 75.3446 293.794C76.1634 293.764 76.9548 293.687 77.7198 293.567ZM77.0237 288.874C76.5287 288.951 76.1133 288.865 75.7767 288.608C75.4336 288.352 75.2262 287.996 75.1537 287.533C75.0791 287.058 75.1655 286.642 75.4139 286.294C75.6558 285.946 76.0248 285.737 76.5198 285.659C77.002 285.584 77.4055 285.679 77.7422 285.935C78.0788 286.192 78.2818 286.562 78.3553 287.032C78.4249 287.475 78.3364 287.878 78.0891 288.233C77.8417 288.587 77.4866 288.801 77.0237 288.874ZM87.1177 289.017C86.9755 288.783 86.8328 288.377 86.6917 287.813C86.5506 287.249 86.4473 286.758 86.3818 286.34L86.2702 285.712C86.2026 285.281 86.2876 284.899 86.5187 284.566C86.7498 284.234 87.0931 284.028 87.5367 283.959C88.3918 283.825 88.989 284.357 89.131 285.263L89.2258 285.868C89.3749 286.819 89.4162 287.755 89.3549 288.667L92.9616 288.101C92.6144 287.273 92.3513 286.267 92.1659 285.084L92.056 284.383C91.9099 283.451 91.5379 282.758 90.9335 282.306C90.3291 281.855 89.541 281.701 88.5702 281.854C87.2651 282.058 86.4747 282.814 86.1978 284.116L86.0371 284.141L86.0099 283.968C85.9202 283.395 85.9648 282.881 86.1371 282.426L82.4726 283C82.8019 283.799 83.057 284.753 83.2313 285.865L83.4006 286.945C83.4863 287.492 83.5321 287.952 83.5445 288.326C83.558 288.706 83.5443 289.123 83.5046 289.584L87.1177 289.017ZM98.4233 287.436C99.0726 287.334 99.7193 287.174 100.358 286.962C100.996 286.743 101.474 286.517 101.799 286.281L101.408 284.123C101.206 284.431 100.873 284.701 100.409 284.931C99.9442 285.162 99.4419 285.32 98.9083 285.404C98.214 285.513 97.5855 285.453 97.0238 285.232C96.4557 285.011 96.1174 284.702 96.0025 284.305L96.0953 284.224C96.8797 284.648 97.7758 284.692 98.9073 284.515C100.624 284.246 101.513 283.487 101.322 282.272C101.245 281.777 101.021 281.358 100.577 281.006C99.9443 280.499 98.8061 280.256 97.1336 280.511C95.7514 280.728 94.6749 281.298 94.0804 282.044C93.4804 282.796 93.2341 283.705 93.3843 284.662C93.5475 285.704 94.0846 286.483 95.0008 286.991C95.9171 287.5 97.0539 287.651 98.4233 287.436ZM97.645 283.942C96.9571 284.05 96.4102 283.964 95.9978 283.686C95.9982 283.311 96.122 283.008 96.3553 282.774C96.5897 282.546 96.8832 282.401 97.2303 282.347C98.0083 282.225 98.5493 282.483 98.6309 283.004C98.6662 283.229 98.5851 283.426 98.3887 283.601C98.1933 283.784 97.9472 283.895 97.645 283.942ZM106.565 285.969C106.295 285.504 106.095 284.857 105.965 284.028L105.872 283.436C105.786 282.89 105.915 282.408 106.251 281.987C106.586 281.565 107.028 281.312 107.568 281.227C108.191 281.129 108.863 281.294 109.252 281.595L108.827 278.882C108.504 278.795 108.146 278.785 107.748 278.847C106.488 279.045 105.761 280.041 105.749 281.604L105.589 281.63L105.527 281.237C105.478 280.922 105.465 280.589 105.495 280.235C105.519 279.882 105.592 279.594 105.707 279.358L101.94 279.949C102.277 280.798 102.532 281.753 102.698 282.814L102.87 283.907C102.952 284.434 102.996 284.882 103.007 285.249C103.02 285.622 103.007 286.046 102.972 286.532L106.565 285.969Z" fill="black"/>
</g>
<path d="M254.442 271.154C255.205 271.813 256.63 273.209 256.33 274.538C256.067 275.693 254.624 276.267 254.078 276.483C245.584 279.856 187.032 280.555 182.432 282.233C182.176 282.326 180.85 282.873 179.405 282.439C178.218 282.083 177.5 281.228 177.113 280.755C175.209 278.431 175.433 275.393 175.537 274.466C173.06 275.215 171.052 275.151 169.853 275.013C168.305 274.835 167.063 274.689 166.151 273.702C164.665 272.096 165.26 269.572 165.354 269.201C167.551 262.395 169.398 256.934 170.67 253.222C172.229 248.674 173.317 245.622 175.543 239.094C177.42 233.591 177.483 232.442 178.727 229.666C180.992 224.606 182.404 221.448 185.735 218.953C191.735 214.457 199.173 215.698 200.714 215.955C202.371 216.232 205.831 216.811 209.328 219.399C210.372 220.172 214.04 222.886 215.091 226.503C215.294 227.204 215.558 228.485 216.367 230.23C216.99 231.576 217.312 231.849 217.595 232.734C217.835 233.484 217.975 234.453 217.454 237.163C216.83 240.409 216.42 242.531 214.824 244.879C213.952 246.161 213.031 247.064 212.389 247.624C216.52 254.224 217.987 255.668 218.454 255.44C218.902 255.221 218.189 253.574 218.987 251.619C219.572 250.187 220.694 249.254 221.648 248.66C232.504 247.738 243.36 246.817 254.216 245.895C254.427 245.963 256.365 246.623 256.98 248.572C257.339 249.707 257.065 250.691 256.932 251.079C256.103 257.77 255.273 264.462 254.442 271.154Z" fill="#F4B5C2"/>
<path d="M177.947 271.037C175.128 271.259 172.308 271.482 169.488 271.704C169.385 271.689 168.919 271.607 168.601 271.186C168.255 270.727 168.378 270.108 168.416 269.891C168.909 267.248 178.739 239.282 179.87 235.677C180.522 233.596 181.39 231.584 182 229.488C182.228 228.701 182.507 227.687 183.2 226.449C183.949 225.107 184.775 224.237 185.397 223.592C186.873 222.057 188.272 221.168 189.279 220.536C190.574 219.725 191.408 219.204 192.672 218.764C195.159 217.9 197.311 218.054 198.646 218.162C199.222 218.208 200.662 218.356 202.434 218.91C203.295 219.179 204.51 219.566 205.889 220.404C207.636 221.466 208.672 222.657 209.693 223.834C211.205 225.573 212 227.047 212.201 227.431C212.626 228.235 212.923 228.95 213.125 229.494" fill="#0A2A2B"/>
<path d="M177.947 271.037C175.128 271.259 172.308 271.482 169.488 271.704C169.385 271.689 168.919 271.607 168.601 271.186C168.255 270.727 168.378 270.108 168.416 269.891C168.909 267.248 178.739 239.282 179.87 235.677C180.522 233.596 181.39 231.584 182 229.488C182.228 228.701 182.507 227.687 183.2 226.449C183.949 225.107 184.775 224.237 185.397 223.592C186.873 222.057 188.272 221.168 189.279 220.536C190.574 219.725 191.408 219.204 192.672 218.764C195.159 217.9 197.311 218.054 198.646 218.162C199.222 218.208 200.662 218.356 202.434 218.91C203.295 219.179 204.51 219.566 205.889 220.404C207.636 221.466 208.672 222.657 209.693 223.834C211.205 225.573 212 227.047 212.201 227.431C212.626 228.235 212.923 228.95 213.125 229.494" stroke="#0A2A2B" stroke-width="0.766562" stroke-miterlimit="10" stroke-linecap="round" stroke-linejoin="round"/>
<path d="M184.748 267.128C184.769 267.272 188.44 266.929 203.982 264.874C204.156 264.928 204.544 265.07 204.886 265.441C205.227 265.81 205.339 266.207 205.378 266.385C205.626 269.531 205.874 272.678 206.122 275.823C206.094 275.996 206.006 276.366 205.7 276.69C205.137 277.29 204.321 277.21 204.22 277.199C196.456 277.812 188.69 278.424 180.926 279.037C180.664 279.052 180.226 279.036 179.829 278.779C179.829 278.779 179.389 278.493 179.144 277.876C178.592 276.481 177.442 256.566 177.389 255.63C177.563 255.099 177.886 254.34 178.504 253.582C179.573 252.267 180.894 251.732 181.508 251.528C189.685 249.887 193.998 249.022 193.998 249.022C193.982 247.349 193.9 245.577 193.728 243.718C193.654 242.928 193.568 242.157 193.473 241.407C193.058 241.272 192.42 241.005 191.802 240.458C191.482 240.174 190.322 239.149 190.266 237.486C190.264 237.381 190.228 235.246 191.967 234.161C192.067 234.097 193.607 233.168 194.932 233.804C196.304 234.463 196.463 236.332 196.916 236.248C197.196 236.196 197.311 235.437 197.541 233.917C197.733 232.662 197.705 232.261 198.066 231.863C198.159 231.76 198.446 231.474 199.613 231.251C201.27 230.934 201.528 231.352 202.788 231.05C203.311 230.925 204.228 230.706 205.061 229.987C205.576 229.543 205.67 229.245 206.121 229.117C206.723 228.948 207.078 229.334 208.055 229.676C209.286 230.107 210.38 230.079 210.907 230.064C212.223 230.029 213.185 229.665 213.246 229.829C213.317 230.028 211.94 230.561 212.035 230.98C212.07 231.135 212.286 231.184 212.627 231.326C212.627 231.326 213.29 231.606 213.992 232.125C215.146 232.982 214.906 235.204 214.886 235.367C214.804 236.054 214.559 236.708 214.308 237.376C214.092 237.95 213.957 238.188 213.803 238.74C213.592 239.489 213.562 240.051 213.536 240.332C213.374 242.059 212.36 243.994 211.131 245.306C210.459 246.024 209.833 246.441 209.707 246.522C207.497 247.967 205.032 247.794 203.93 247.641C203.94 247.984 203.951 248.325 203.961 248.669C204.54 248.525 205.368 248.379 206.37 248.406C206.746 248.414 207.877 248.452 208.907 248.844C210.206 249.337 210.888 250.219 212.023 251.641C214.478 254.711 215.705 256.247 216.453 257.083C218.178 259.012 219.316 259.987 219.468 261.092C219.5 261.33 219.584 262.261 220.188 262.754C220.282 262.831 220.438 262.936 220.686 263.157C221.059 263.489 221.265 263.67 221.356 263.865C221.647 264.486 220.856 265.431 220.64 265.688C219.869 266.608 218.87 267.003 218.23 267.18C218.611 267.79 218.857 268.336 219.016 268.738C219.446 269.831 219.486 270.524 219.493 270.738C219.514 271.319 219.529 271.781 219.205 272.063C218.813 272.401 218.195 272.238 218.063 272.203C218.123 272.325 218.46 273.063 218.117 273.819C217.898 274.301 217.516 274.535 217.3 274.67C217.135 274.771 216.283 275.298 215.68 274.969C215.429 274.833 215.471 274.683 215.007 273.893C214.616 273.228 214.602 273.358 214.145 272.612C213.75 271.964 213.688 271.748 213.46 271.708C213.115 271.649 212.771 272.061 212.618 272.242C212.251 272.682 212.267 272.989 212.068 273.366C211.748 273.977 211.152 274.224 210.275 274.588C210.085 274.666 209.144 275.044 207.834 275.049C207.444 275.051 207.036 274.778 206.532 274.931C206.416 274.967 206.284 275.024 206.183 274.958C206.005 274.846 206.084 274.461 206.116 274.104C206.124 274.015 206.116 274.064 205.992 272.634C205.857 271.09 205.79 270.316 205.756 269.74C205.684 268.535 205.648 267.932 205.647 267.721C205.645 267.483 205.642 266.86 205.46 266.092C205.356 265.65 205.259 265.437 205.083 265.255C204.771 264.929 204.355 264.851 204.181 264.818C203.879 264.761 203.662 264.792 203.355 264.826C202.843 264.883 202.325 264.903 201.81 264.955C200.668 265.074 200.782 264.985 200.004 265.081C198.928 265.213 198.829 265.365 197.658 265.512C197.519 265.528 197.097 265.564 196.26 265.63C194.825 265.745 194.724 265.749 194.374 265.778C193.326 265.869 193.296 265.923 190.999 266.225C189.785 266.385 189.179 266.465 188.657 266.508C188.012 266.563 187.37 266.667 186.723 266.678C186.414 266.683 185.845 266.68 185.173 266.931C185.001 266.993 184.743 267.09 184.748 267.128Z" fill="#F4B5C2" stroke="#0A2A2B" stroke-width="0.766562" stroke-miterlimit="10" stroke-linecap="round" stroke-linejoin="round"/>
<path d="M207.668 268.872C209.738 268.359 211.808 267.847 213.879 267.334C214.685 267.732 215.162 268.202 215.447 268.552C216.226 269.509 216.288 270.456 217.409 271.637C217.571 271.806 217.71 271.936 217.799 272.015C217.845 272.121 217.892 272.225 217.939 272.331" stroke="#0A2A2B" stroke-width="0.766562" stroke-miterlimit="10" stroke-linecap="round" stroke-linejoin="round"/>
<path d="M205.881 266.345C207.776 266.145 209.307 265.884 210.359 265.68C212.891 265.19 213.828 264.812 215.159 265.138C216.604 265.491 217.612 266.452 218.225 267.186" stroke="#0A2A2B" stroke-width="0.766562" stroke-miterlimit="10" stroke-linecap="round" stroke-linejoin="round"/>
<path d="M214.617 265.003C215.294 264.45 215.914 264.118 216.363 263.916C216.978 263.64 216.987 263.736 218.655 263.212C218.848 263.151 219.285 263.012 219.885 262.934C220.027 262.915 220.146 262.906 220.226 262.9" stroke="#0A2A2B" stroke-width="0.766562" stroke-miterlimit="10" stroke-linecap="round" stroke-linejoin="round"/>
<path d="M202.793 276.962C202.458 273.031 202.124 269.097 201.789 265.165" stroke="#0A2A2B" stroke-width="0.766562" stroke-miterlimit="10" stroke-linecap="round" stroke-linejoin="round"/>
<path d="M194.284 249.165C194.272 249.57 194.298 250.56 194.956 251.469C195.032 251.573 195.358 252.01 195.98 252.403C197.703 253.492 199.759 253.009 200.721 252.781C201.701 252.55 202.441 252.365 202.991 251.685C203.587 250.948 203.667 249.986 203.672 249.93C203.711 249.381 203.565 249.239 203.619 248.429C203.664 247.753 203.782 247.599 203.667 247.378C203.392 246.849 202.316 246.952 201.767 246.939C200.731 246.915 199.288 246.433 197.511 244.428" stroke="#0A2A2B" stroke-width="0.766562" stroke-miterlimit="10" stroke-linecap="round" stroke-linejoin="round"/>
<path d="M203.719 241.844C204.28 243.501 205.489 244.621 206.719 244.618C207.644 244.616 208.349 243.982 208.766 243.605C209.95 242.539 210.268 241.18 210.363 240.632" stroke="#0A2A2B" stroke-width="0.766562" stroke-miterlimit="10" stroke-linecap="round" stroke-linejoin="round"/>
<path d="M195.658 252.46C195.653 253.122 195.711 254.084 196.036 255.179C196.697 257.413 198.178 259.249 198.6 259.068C199.022 258.886 198.183 256.78 198.817 256.432C199.167 256.241 199.675 256.741 200.97 257.604C202.83 258.843 203.762 259.462 204.47 259.258C205.312 259.017 205.119 258.046 206.415 256.127C207.641 254.315 208.72 253.84 208.506 253.18C208.22 252.297 205.997 252.275 206.021 251.969C206.04 251.743 207.247 251.857 207.419 251.434C207.565 251.073 206.953 250.327 204.729 248.865" stroke="#0A2A2B" stroke-width="0.766562" stroke-miterlimit="10" stroke-linecap="round" stroke-linejoin="round"/>
<path d="M202.652 252.367C203.161 254.541 203.671 256.716 204.181 258.888" stroke="#0A2A2B" stroke-width="0.766562" stroke-miterlimit="10" stroke-linecap="round" stroke-linejoin="round"/>
<path d="M212.185 231.369C211.827 231.265 211.274 231.147 210.599 231.175C210.388 231.184 209.514 231.232 208.507 231.732C207.93 232.02 207.475 232.246 207.115 232.749C206.675 233.365 206.651 234.011 206.619 234.874C206.588 235.7 206.569 236.232 206.871 236.817C207.241 237.538 207.858 237.883 208.453 238.213C209.318 238.695 210.11 238.838 210.494 238.886C211.9 239.066 213.028 238.663 213.574 238.422" stroke="#0A2A2B" stroke-width="0.766562" stroke-miterlimit="10" stroke-linecap="round" stroke-linejoin="round"/>
<path d="M198.246 235.414C198.329 234.931 198.424 234.379 198.757 233.803C199.248 232.955 199.966 232.549 200.36 232.327C200.779 232.09 201.644 231.601 202.742 231.722C203.199 231.773 203.533 231.91 203.871 232.05C204.32 232.236 204.948 232.494 205.499 233.1C206.068 233.724 206.251 234.388 206.372 234.823C206.482 235.222 206.634 235.79 206.531 236.529C206.428 237.27 206.12 237.778 205.942 238.073C205.715 238.441 205.358 239.007 204.649 239.426C204.074 239.766 203.551 239.838 203.165 239.888C202.765 239.938 201.037 240.157 199.712 239.057C199.198 238.628 198.897 238.129 198.706 237.811C198.479 237.433 198.272 237.082 198.192 236.576C198.123 236.148 198.177 235.825 198.246 235.414Z" stroke="#0A2A2B" stroke-width="0.766562" stroke-miterlimit="10" stroke-linecap="round" stroke-linejoin="round"/>
<path d="M213.211 234.724C213.677 235.198 213.912 235.437 214.029 235.762C214.268 236.426 214.009 237.042 213.967 237.142C213.754 237.635 213.388 237.891 213.133 238.067C212.985 238.169 211.558 239.114 210.29 238.439C209.865 238.213 209.634 237.891 209.439 237.622C209.25 237.36 208.716 236.62 208.842 235.656C208.906 235.171 209.114 234.814 209.229 234.644C209.334 234.487 209.583 234.129 210.054 233.892C210.589 233.621 211.088 233.667 211.34 233.693C211.966 233.759 212.394 234.036 212.58 234.16C212.808 234.313 212.944 234.452 213.211 234.724Z" fill="#0A2A2B" stroke="#0A2A2B" stroke-width="0.574921" stroke-miterlimit="10" stroke-linecap="round" stroke-linejoin="round"/>
<path d="M204.467 234.627C204.894 234.833 205.156 235.055 205.216 235.108C205.495 235.349 205.903 235.702 205.99 236.225C206.027 236.442 205.956 236.376 205.892 237.14C205.842 237.725 205.875 237.836 205.768 238.058C205.655 238.289 205.495 238.419 205.226 238.64C205.146 238.706 204.875 238.922 204.454 239.118C204.358 239.165 203.973 239.339 203.4 239.448C202.752 239.57 202.428 239.63 202.078 239.479C201.674 239.305 201.457 238.953 201.305 238.706C201.266 238.641 201.214 238.553 200.94 237.802C200.737 237.251 200.636 236.973 200.616 236.822C200.547 236.282 200.695 235.849 200.75 235.708C200.977 235.108 201.39 234.779 201.504 234.691C201.576 234.638 201.92 234.384 202.453 234.272C203.346 234.087 204.087 234.443 204.467 234.627Z" fill="#0A2A2B" stroke="#0A2A2B" stroke-width="0.574921" stroke-miterlimit="10" stroke-linecap="round" stroke-linejoin="round"/>
<path d="M193.522 241.144C193.788 241.208 194.144 241.26 194.56 241.243C195.284 241.211 195.84 240.975 196.161 240.805" fill="#0A2A2B"/>
<path d="M193.522 241.144C193.788 241.208 194.144 241.26 194.56 241.243C195.284 241.211 195.84 240.975 196.161 240.805" stroke="#0A2A2B" stroke-width="0.574921" stroke-miterlimit="10" stroke-linecap="round" stroke-linejoin="round"/>
<path d="M195.788 237.12C195.769 237.033 195.685 236.7 195.381 236.514C194.979 236.271 194.458 236.448 194.186 236.724C193.965 236.947 193.925 237.217 193.874 237.55C193.785 238.145 193.877 238.757 193.937 238.756C194.014 238.756 194.281 237.708 193.84 236.899C193.656 236.562 193.33 236.232 193.169 236.068C192.937 235.834 192.726 235.659 192.572 235.542" fill="#0A2A2B"/>
<path d="M195.788 237.12C195.769 237.033 195.685 236.7 195.381 236.514C194.979 236.271 194.458 236.448 194.186 236.724C193.965 236.947 193.925 237.217 193.874 237.55C193.785 238.145 193.877 238.757 193.937 238.756C194.014 238.756 194.281 237.708 193.84 236.899C193.656 236.562 193.33 236.232 193.169 236.068C192.937 235.834 192.726 235.659 192.572 235.542" stroke="#0A2A2B" stroke-width="0.574921" stroke-miterlimit="10" stroke-linecap="round" stroke-linejoin="round"/>
<path d="M220.264 274.047C220.846 266.704 221.43 259.362 222.011 252.019C232.731 251.025 243.451 250.034 254.17 249.04C253.096 257.402 252.022 265.767 250.947 274.129C235.446 275.287 219.947 276.444 204.446 277.601C204.372 277.607 205.891 277.349 206.333 276.324C206.423 276.119 206.509 275.791 206.425 275.311C211.038 274.888 215.651 274.466 220.264 274.047Z" fill="#0A2A2B" stroke="#0A2A2B" stroke-width="0.766562" stroke-miterlimit="10" stroke-linecap="round" stroke-linejoin="round"/>
<path d="M238.607 267.641C235.294 267.903 232.414 265.655 232.175 262.62C231.935 259.586 234.427 256.914 237.74 256.652C241.053 256.391 243.933 258.639 244.172 261.674C244.412 264.708 241.92 267.38 238.607 267.641Z" fill="#F4B5C2" stroke="#0A2A2B" stroke-width="0.766562" stroke-miterlimit="10" stroke-linecap="round" stroke-linejoin="round"/>
<path d="M182.94 286.819C182.607 284.519 182.085 283.993 179.982 281.559C183.232 281.125 189.865 280.251 190.393 280.225C190.921 280.2 204.245 280.103 210.841 280.058L218.776 278.844L235.802 277.465L242.897 277.119L248.15 277.415L253.476 275.833L255.553 273.196C255.733 273.481 256.975 273.599 256.063 274.604C255.33 275.412 255.612 276.666 259.226 278.42C262.84 280.174 261.147 279.374 262.518 280.355C263.889 281.336 263.194 282.914 263.304 285.169C263.413 287.424 263.033 289.814 261.03 290.573C259.027 291.332 258.802 291.233 255.237 291.627C251.672 292.021 248.121 292.69 245.426 292.821C242.73 292.952 241.584 294.331 238.94 295.507C236.296 296.683 236.28 296.353 234.049 294.698C231.818 293.042 229.881 293.999 228.948 294.119C225.7 294.535 224.107 294.354 221.137 294.499C218.167 294.643 215.337 294.285 210.772 294.507C206.206 294.729 205.185 295.275 202.49 295.406C199.795 295.537 194.875 295.28 194.215 295.312C193.555 295.344 187.033 296.158 184.424 295.789C183.314 294.519 183.325 294.739 183.207 292.319C183.126 290.656 183.272 289.118 182.94 286.819Z" fill="#F4B5C2"/>
<path d="M193.879 291.049C195.112 290.946 196.094 290.524 196.763 289.828C197.432 289.132 197.766 288.087 197.659 286.811C197.553 285.545 197.05 284.565 196.274 283.99C195.499 283.415 194.449 283.158 193.227 283.26L189.447 283.577C189.552 283.918 189.648 284.347 189.741 284.87C189.834 285.393 189.897 285.891 189.938 286.374L190.118 288.53C190.159 289.014 190.179 289.515 190.174 290.041C190.168 290.566 190.145 291.006 190.098 291.365L193.879 291.049ZM192.437 285.848L193.545 285.755C193.92 285.724 194.251 285.822 194.538 286.049C194.825 286.282 194.984 286.608 195.019 287.032C195.055 287.461 194.953 287.808 194.713 288.08C194.468 288.352 194.158 288.504 193.778 288.536L192.67 288.629L192.437 285.848ZM202.272 290.505C202.821 290.459 203.371 290.364 203.917 290.225C204.463 290.081 204.876 289.92 205.162 289.743L204.965 287.917C204.778 288.162 204.483 288.367 204.081 288.532C203.68 288.697 203.251 288.799 202.8 288.836C202.213 288.885 201.692 288.798 201.236 288.579C200.775 288.36 200.511 288.082 200.439 287.743L200.521 287.682C201.151 288.083 201.897 288.174 202.852 288.094C204.303 287.972 205.091 287.392 205.005 286.366C204.97 285.947 204.808 285.584 204.459 285.263C203.961 284.801 203.025 284.53 201.612 284.642C200.444 284.74 199.511 285.152 198.969 285.739C198.423 286.331 198.162 287.075 198.23 287.884C198.303 288.764 198.705 289.447 199.44 289.927C200.175 290.407 201.115 290.602 202.272 290.505ZM201.833 287.539C201.251 287.588 200.8 287.483 200.472 287.226C200.495 286.913 200.616 286.667 200.826 286.486C201.035 286.31 201.289 286.206 201.582 286.182C202.239 286.127 202.676 286.375 202.713 286.814C202.729 287.005 202.649 287.164 202.474 287.299C202.3 287.44 202.088 287.518 201.833 287.539ZM211.568 289.568C211.553 289.318 211.564 289 211.614 288.618C211.659 288.237 211.721 287.871 211.801 287.52L212.242 285.984C212.439 285.136 212.675 284.427 212.949 283.852L210.065 284.093C210.089 284.567 210.055 285.013 209.953 285.437L209.487 287.188C209.443 287.438 209.393 287.759 209.332 288.142L209.207 288.152C209.082 287.764 208.975 287.466 208.886 287.25L208.145 285.589C207.996 285.246 207.883 284.812 207.8 284.283L204.916 284.524C205.301 285.066 205.657 285.731 205.979 286.508L206.669 287.949C206.987 288.743 207.174 289.405 207.229 289.931L211.568 289.568ZM217.284 289.248C217.833 289.203 218.382 289.107 218.929 288.969C219.475 288.824 219.888 288.664 220.174 288.487L219.977 286.66C219.79 286.906 219.495 287.111 219.093 287.276C218.691 287.441 218.262 287.542 217.812 287.58C217.225 287.629 216.704 287.541 216.248 287.322C215.786 287.104 215.522 286.825 215.45 286.487L215.533 286.425C216.162 286.826 216.908 286.917 217.864 286.837C219.314 286.716 220.103 286.136 220.017 285.109C219.982 284.691 219.82 284.327 219.471 284.006C218.973 283.545 218.036 283.273 216.624 283.386C215.456 283.484 214.523 283.895 213.981 284.482C213.434 285.075 213.174 285.819 213.242 286.628C213.315 287.508 213.717 288.191 214.452 288.671C215.187 289.15 216.127 289.345 217.284 289.248ZM216.844 286.283C216.263 286.331 215.812 286.227 215.484 285.97C215.507 285.656 215.628 285.411 215.837 285.229C216.047 285.053 216.301 284.95 216.594 284.925C217.251 284.87 217.688 285.118 217.724 285.558C217.74 285.748 217.661 285.908 217.486 286.043C217.312 286.183 217.1 286.261 216.844 286.283ZM224.174 288.513C223.947 287.761 223.787 286.828 223.694 285.72L223.514 283.564C223.42 282.451 223.423 281.504 223.522 280.725L220.486 280.979C220.597 281.32 220.698 281.749 220.791 282.266C220.884 282.789 220.953 283.292 220.994 283.775L221.174 285.931C221.214 286.415 221.23 286.922 221.224 287.447C221.219 287.973 221.19 288.413 221.138 288.767L224.174 288.513ZM228.662 288.296C229.879 288.194 230.824 287.787 231.365 287.195C231.901 286.603 232.146 285.872 232.077 285.051C232.009 284.231 231.645 283.551 231.019 283.056C230.387 282.562 229.393 282.317 228.181 282.419C226.965 282.52 226.02 282.928 225.484 283.519C224.943 284.112 224.698 284.843 224.767 285.663C224.835 286.483 225.199 287.164 225.831 287.658C226.457 288.153 227.451 288.397 228.662 288.296ZM228.527 286.672C228.141 286.704 227.821 286.605 227.561 286.376C227.302 286.151 227.156 285.846 227.124 285.466C227.092 285.086 227.185 284.761 227.403 284.491C227.622 284.227 227.921 284.076 228.307 284.043C228.703 284.01 229.028 284.109 229.288 284.333C229.542 284.558 229.688 284.863 229.72 285.249C229.752 285.634 229.659 285.959 229.446 286.223C229.228 286.488 228.923 286.639 228.527 286.672ZM236.358 289.736C236.248 289.4 236.152 288.976 236.06 288.459C235.967 287.936 235.903 287.433 235.861 286.939L235.794 286.14L235.941 286.128C236.367 287.039 237.233 287.579 238.406 287.481C239.27 287.408 239.932 287.025 240.305 286.447C240.673 285.874 240.831 285.156 240.763 284.335C240.694 283.515 240.417 282.822 239.959 282.313C239.495 281.805 238.778 281.532 237.914 281.604C236.746 281.702 236.014 282.365 235.707 283.326L235.56 283.338L235.548 283.202C235.529 282.969 235.528 282.766 235.552 282.595C235.571 282.424 235.618 282.206 235.69 281.949L232.654 282.203C232.764 282.538 232.87 282.961 232.962 283.473C233.054 283.985 233.119 284.494 233.161 284.994L233.341 287.15C233.383 287.649 233.404 288.162 233.399 288.687C233.393 289.207 233.358 289.642 233.306 289.991L236.358 289.736ZM237.16 285.993C236.764 286.027 236.433 285.923 236.166 285.677C235.899 285.432 235.748 285.127 235.717 284.758C235.684 284.361 235.776 284.02 235.999 283.744C236.216 283.469 236.526 283.312 236.933 283.278C237.351 283.243 237.693 283.34 237.97 283.574C238.241 283.808 238.394 284.129 238.427 284.531C238.46 284.922 238.362 285.253 238.133 285.529C237.899 285.806 237.579 285.958 237.16 285.993ZM245.407 286.895C245.955 286.849 246.505 286.754 247.052 286.615C247.597 286.471 248.011 286.31 248.297 286.133L248.1 284.307C247.913 284.552 247.618 284.757 247.216 284.922C246.814 285.087 246.385 285.188 245.934 285.226C245.348 285.275 244.826 285.188 244.371 284.969C243.909 284.75 243.645 284.472 243.573 284.133L243.656 284.071C244.285 284.473 245.031 284.563 245.987 284.483C247.437 284.362 248.226 283.782 248.14 282.755C248.105 282.337 247.943 281.973 247.593 281.653C247.095 281.191 246.159 280.919 244.747 281.032C243.579 281.13 242.645 281.542 242.104 282.128C241.557 282.721 241.297 283.465 241.365 284.274C241.438 285.154 241.84 285.837 242.575 286.317C243.309 286.797 244.25 286.992 245.407 286.895ZM244.967 283.929C244.386 283.978 243.934 283.873 243.607 283.616C243.63 283.302 243.751 283.057 243.96 282.876C244.17 282.699 244.424 282.596 244.717 282.572C245.374 282.517 245.81 282.764 245.847 283.204C245.863 283.394 245.784 283.554 245.609 283.689C245.435 283.83 245.222 283.908 244.967 283.929ZM252.297 286.159C252.099 285.755 251.971 285.202 251.912 284.502L251.87 284.002C251.831 283.54 251.968 283.146 252.274 282.814C252.58 282.482 252.963 282.297 253.42 282.259C253.946 282.215 254.497 282.393 254.805 282.668L254.613 280.376C254.348 280.283 254.05 280.254 253.714 280.282C252.649 280.371 251.982 281.16 251.878 282.464L251.742 282.476L251.715 282.145C251.692 281.878 251.702 281.599 251.748 281.305C251.789 281.012 251.868 280.775 251.978 280.586L248.795 280.852C249.026 281.582 249.181 282.395 249.256 283.291L249.334 284.214C249.371 284.66 249.381 285.036 249.368 285.344C249.356 285.656 249.32 286.009 249.261 286.414L252.297 286.159Z" fill="black"/>
<defs>
<clipPath id="clip0_1577:4048">
<rect width="28.1862" height="28.1862" fill="white" transform="translate(189.525 133.812) rotate(8.19939)"/>
</clipPath>
<clipPath id="clip1_1577:4048">
<rect width="94.0904" height="92.7745" fill="white" transform="translate(11 217) rotate(-8.90884)"/>
</clipPath>
</defs>
</svg>
