<svg width="4320" height="204" viewBox="0 0 4320 204" fill="none" xmlns="http://www.w3.org/2000/svg">
<g clip-path="url(#clip0_316:317)">
<path d="M1485.43 51.9197L-7.62891 0.778488L-9.27207 48.7504L1483.78 99.8916L1485.43 51.9197Z" fill="#A9E9F5"/>
<path d="M1417.86 57.6101L1413.47 57.4596L1412.37 89.6061L1416.76 89.7566L1417.86 57.6101Z" fill="black"/>
<path d="M1421.63 57.7392L1419.74 57.6747L1418.64 89.8211L1420.53 89.8856L1421.63 57.7392Z" fill="black"/>
<path d="M1426.65 57.9112L1424.77 57.8466L1423.66 89.9931L1425.55 90.0576L1426.65 57.9112Z" fill="black"/>
<path d="M1436.07 58.2337L1433.55 58.1477L1432.45 90.2942L1434.96 90.3802L1436.07 58.2337Z" fill="black"/>
<path d="M1444.37 58.518L1438.19 58.3063L1437.09 90.4074L1443.27 90.6191L1444.37 58.518Z" fill="black"/>
<path d="M938.826 41.2019L934.432 41.0514L933.331 73.1978L937.725 73.3483L938.826 41.2019Z" fill="black"/>
<path d="M942.593 41.3309L940.71 41.2664L939.609 73.4129L941.492 73.4774L942.593 41.3309Z" fill="black"/>
<path d="M947.614 41.5029L945.731 41.4384L944.63 73.5849L946.513 73.6494L947.614 41.5029Z" fill="black"/>
<path d="M957.03 41.8254L954.519 41.7394L953.418 73.8859L955.929 73.9719L957.03 41.8254Z" fill="black"/>
<path d="M965.33 42.1097L959.151 41.898L958.051 73.9992L964.231 74.2108L965.33 42.1097Z" fill="black"/>
<path d="M971.509 42.3213L967.389 42.1802L966.29 74.2814L970.409 74.4225L971.509 42.3213Z" fill="black"/>
<path d="M978.719 42.5683L976.659 42.4978L975.56 74.5989L977.62 74.6694L978.719 42.5683Z" fill="black"/>
<path d="M982.839 42.7094L980.779 42.6389L979.679 74.74L981.739 74.8106L982.839 42.7094Z" fill="black"/>
<path d="M992.108 43.0269L989.018 42.9211L987.919 75.0222L991.009 75.1281L992.108 43.0269Z" fill="black"/>
<path d="M1000.2 43.304L998.263 43.2377L997.163 75.3389L999.098 75.4051L1000.2 43.304Z" fill="black"/>
<path d="M1006 43.5028L1002.13 43.3703L1001.03 75.4714L1004.9 75.6039L1006 43.5028Z" fill="black"/>
<path d="M1017.61 43.9003L1011.8 43.7015L1010.7 75.8027L1016.51 76.0014L1017.61 43.9003Z" fill="black"/>
<path d="M1021.47 44.0328L1019.54 43.9665L1018.44 76.0677L1020.37 76.1339L1021.47 44.0328Z" fill="black"/>
<path d="M1031.14 44.364L1027.28 44.2315L1026.18 76.3327L1030.05 76.4652L1031.14 44.364Z" fill="black"/>
<path d="M1035.01 44.4966L1033.08 44.4303L1031.98 76.5314L1033.91 76.5977L1035.01 44.4966Z" fill="black"/>
<path d="M1044.69 44.8279L1040.82 44.6953L1039.72 76.7965L1043.59 76.929L1044.69 44.8279Z" fill="black"/>
<path d="M1052.42 45.0929L1050.49 45.0266L1049.39 77.1277L1051.32 77.194L1052.42 45.0929Z" fill="black"/>
<path d="M1060.16 45.3579L1054.36 45.1591L1053.26 77.2603L1059.06 77.459L1060.16 45.3579Z" fill="black"/>
<path d="M1064.03 45.4904L1062.09 45.4241L1060.99 77.5253L1062.93 77.5915L1064.03 45.4904Z" fill="black"/>
<path d="M1073.7 45.8216L1069.83 45.6891L1068.73 77.7903L1072.6 77.9228L1073.7 45.8216Z" fill="black"/>
<path d="M1081.44 46.0867L1075.63 45.8879L1074.53 77.989L1080.34 78.1878L1081.44 46.0867Z" fill="black"/>
<path d="M1085.31 46.2192L1083.37 46.1529L1082.27 78.2541L1084.21 78.3203L1085.31 46.2192Z" fill="black"/>
<path d="M1089.17 46.3517L1087.24 46.2854L1086.14 78.3865L1088.07 78.4528L1089.17 46.3517Z" fill="black"/>
<path d="M1098.84 46.6829L1094.98 46.5504L1093.88 78.6516L1097.74 78.7841L1098.84 46.6829Z" fill="black"/>
<path d="M1106.58 46.948L1104.65 46.8817L1103.55 78.9829L1105.48 79.0491L1106.58 46.948Z" fill="black"/>
<path d="M1114.32 47.213L1112.38 47.1467L1111.29 79.2479L1113.22 79.3141L1114.32 47.213Z" fill="black"/>
<path d="M1120.12 47.4118L1116.25 47.2793L1115.15 79.3804L1119.02 79.5129L1120.12 47.4118Z" fill="black"/>
<path d="M1127.86 47.6768L1125.92 47.6105L1124.83 79.7117L1126.76 79.7779L1127.86 47.6768Z" fill="black"/>
<path d="M1137.53 48.008L1135.6 47.9418L1134.5 80.0429L1136.43 80.1092L1137.53 48.008Z" fill="black"/>
<path d="M1143.33 48.2068L1139.47 48.0743L1138.37 80.1755L1142.23 80.308L1143.33 48.2068Z" fill="black"/>
<path d="M1151.07 48.4718L1147.2 48.3393L1146.1 80.4405L1149.97 80.573L1151.07 48.4718Z" fill="black"/>
<path d="M1162.68 48.8694L1156.87 48.6706L1155.77 80.7717L1161.58 80.9705L1162.68 48.8694Z" fill="black"/>
<path d="M1166.55 49.0019L1164.61 48.9356L1163.51 81.0368L1165.45 81.103L1166.55 49.0019Z" fill="black"/>
<path d="M1172.35 49.2006L1168.48 49.0681L1167.38 81.1693L1171.25 81.3018L1172.35 49.2006Z" fill="black"/>
<path d="M456.295 24.6738L451.901 24.5233L450.8 56.6698L455.194 56.8203L456.295 24.6738Z" fill="black"/>
<path d="M460.062 24.8029L458.178 24.7384L457.077 56.8848L458.96 56.9493L460.062 24.8029Z" fill="black"/>
<path d="M465.083 24.9749L463.2 24.9104L462.098 57.0568L463.982 57.1213L465.083 24.9749Z" fill="black"/>
<path d="M474.499 25.2974L471.988 25.2114L470.887 57.3578L473.398 57.4439L474.499 25.2974Z" fill="black"/>
<path d="M482.799 25.5817L476.619 25.37L475.52 57.4711L481.699 57.6828L482.799 25.5817Z" fill="black"/>
<path d="M488.978 25.7933L484.858 25.6522L483.758 57.7533L487.878 57.8945L488.978 25.7933Z" fill="black"/>
<path d="M496.188 26.0403L494.128 25.9697L493.028 58.0709L495.088 58.1414L496.188 26.0403Z" fill="black"/>
<path d="M500.308 26.1814L498.248 26.1108L497.148 58.212L499.208 58.2825L500.308 26.1814Z" fill="black"/>
<path d="M509.577 26.4989L506.487 26.3931L505.388 58.4942L508.477 58.6L509.577 26.4989Z" fill="black"/>
<path d="M517.666 26.776L515.731 26.7097L514.632 58.8109L516.566 58.8771L517.666 26.776Z" fill="black"/>
<path d="M523.469 26.9747L519.6 26.8422L518.501 58.9434L522.369 59.0759L523.469 26.9747Z" fill="black"/>
<path d="M535.074 27.3723L529.271 27.1735L528.172 59.2746L533.975 59.4734L535.074 27.3723Z" fill="black"/>
<path d="M538.942 27.5047L537.008 27.4385L535.909 59.5396L537.843 59.6059L538.942 27.5047Z" fill="black"/>
<path d="M548.614 27.836L544.745 27.7035L543.645 59.8046L547.514 59.9372L548.614 27.836Z" fill="black"/>
<path d="M552.482 27.9685L550.548 27.9023L549.449 60.0034L551.383 60.0697L552.482 27.9685Z" fill="black"/>
<path d="M562.154 28.2998L558.286 28.1673L557.186 60.2684L561.055 60.401L562.154 28.2998Z" fill="black"/>
<path d="M569.891 28.5648L567.957 28.4986L566.857 60.5997L568.792 60.666L569.891 28.5648Z" fill="black"/>
<path d="M577.628 28.8299L571.826 28.6311L570.726 60.7322L576.529 60.931L577.628 28.8299Z" fill="black"/>
<path d="M581.497 28.9624L579.562 28.8961L578.463 60.9972L580.397 61.0635L581.497 28.9624Z" fill="black"/>
<path d="M591.168 29.2936L587.299 29.1611L586.2 61.2622L590.068 61.3947L591.168 29.2936Z" fill="black"/>
<path d="M598.905 29.5586L593.102 29.3599L592.003 61.461L597.806 61.6598L598.905 29.5586Z" fill="black"/>
<path d="M602.774 29.6912L600.84 29.6249L599.74 61.726L601.675 61.7923L602.774 29.6912Z" fill="black"/>
<path d="M606.641 29.8236L604.707 29.7574L603.608 61.8585L605.542 61.9248L606.641 29.8236Z" fill="black"/>
<path d="M616.313 30.1549L612.445 30.0224L611.345 62.1235L615.214 62.256L616.313 30.1549Z" fill="black"/>
<path d="M624.051 30.42L622.117 30.3537L621.017 62.4548L622.951 62.5211L624.051 30.42Z" fill="black"/>
<path d="M631.788 30.685L629.854 30.6187L628.754 62.7198L630.688 62.7861L631.788 30.685Z" fill="black"/>
<path d="M637.591 30.8837L633.722 30.7512L632.623 62.8524L636.491 62.9849L637.591 30.8837Z" fill="black"/>
<path d="M645.328 31.1487L643.393 31.0825L642.294 63.1836L644.228 63.2499L645.328 31.1487Z" fill="black"/>
<path d="M654.999 31.48L653.065 31.4137L651.965 63.5149L653.899 63.5811L654.999 31.48Z" fill="black"/>
<path d="M660.803 31.6788L656.934 31.5463L655.835 63.6474L659.703 63.7799L660.803 31.6788Z" fill="black"/>
<path d="M668.54 31.9438L664.671 31.8113L663.571 63.9124L667.44 64.0449L668.54 31.9438Z" fill="black"/>
<path d="M680.145 32.3413L674.342 32.1426L673.243 64.2437L679.045 64.4425L680.145 32.3413Z" fill="black"/>
<path d="M684.014 32.4738L682.08 32.4076L680.98 64.5087L682.914 64.575L684.014 32.4738Z" fill="black"/>
<path d="M689.816 32.6726L685.948 32.5401L684.848 64.6412L688.717 64.7737L689.816 32.6726Z" fill="black"/>
<path d="M0.26745 9.05366L-5.91217 8.842L-7.01172 40.9431L-0.832102 41.1548L0.26745 9.05366Z" fill="black"/>
<path d="M6.44611 9.2653L2.32637 9.12419L1.22681 41.2253L5.34656 41.3664L6.44611 9.2653Z" fill="black"/>
<path d="M13.6562 9.51227L11.5963 9.44171L10.4968 41.5428L12.5567 41.6134L13.6562 9.51227Z" fill="black"/>
<path d="M17.7761 9.65338L15.7162 9.58282L14.6167 41.684L16.6765 41.7545L17.7761 9.65338Z" fill="black"/>
<path d="M27.0455 9.97089L23.9557 9.86505L22.8562 41.9662L25.946 42.072L27.0455 9.97089Z" fill="black"/>
<path d="M35.1345 10.248L33.2002 10.1817L32.1006 42.2828L34.0349 42.3491L35.1345 10.248Z" fill="black"/>
<path d="M40.9373 10.4467L37.0687 10.3142L35.9692 42.4154L39.8377 42.5479L40.9373 10.4467Z" fill="black"/>
<path d="M52.5428 10.8442L46.74 10.6455L45.6404 42.7466L51.4433 42.9454L52.5428 10.8442Z" fill="black"/>
<path d="M56.411 10.9767L54.4767 10.9105L53.3772 43.0116L55.3114 43.0779L56.411 10.9767Z" fill="black"/>
<path d="M66.0821 11.308L62.2135 11.1755L61.114 43.2766L64.9825 43.4091L66.0821 11.308Z" fill="black"/>
<path d="M69.951 11.4405L68.0167 11.3743L66.9172 43.4754L68.8515 43.5417L69.951 11.4405Z" fill="black"/>
<path d="M79.6229 11.7718L75.7544 11.6393L74.6548 43.7404L78.5234 43.8729L79.6229 11.7718Z" fill="black"/>
<path d="M87.3597 12.0368L85.4254 11.9706L84.3259 44.0717L86.2602 44.138L87.3597 12.0368Z" fill="black"/>
<path d="M95.097 12.3019L89.2942 12.1031L88.1946 44.2042L93.9974 44.403L95.097 12.3019Z" fill="black"/>
<path d="M98.9652 12.4343L97.0309 12.3681L95.9314 44.4692L97.8656 44.5355L98.9652 12.4343Z" fill="black"/>
<path d="M108.636 12.7656L104.768 12.6331L103.668 44.7342L107.537 44.8667L108.636 12.7656Z" fill="black"/>
<path d="M116.374 13.0306L110.571 12.8319L109.471 44.933L115.274 45.1318L116.374 13.0306Z" fill="black"/>
<path d="M120.243 13.1632L118.309 13.0969L117.209 45.198L119.143 45.2643L120.243 13.1632Z" fill="black"/>
<path d="M124.11 13.2956L122.176 13.2294L121.076 45.3305L123.011 45.3967L124.11 13.2956Z" fill="black"/>
<path d="M133.782 13.6269L129.913 13.4944L128.814 45.5955L132.682 45.728L133.782 13.6269Z" fill="black"/>
<path d="M141.519 13.8919L139.585 13.8257L138.486 45.9268L140.42 45.9931L141.519 13.8919Z" fill="black"/>
<path d="M149.256 14.157L147.322 14.0907L146.222 46.1918L148.157 46.2581L149.256 14.157Z" fill="black"/>
<path d="M155.059 14.3557L151.191 14.2232L150.091 46.3243L153.96 46.4568L155.059 14.3557Z" fill="black"/>
<path d="M162.796 14.6207L160.862 14.5545L159.763 46.6556L161.697 46.7219L162.796 14.6207Z" fill="black"/>
<path d="M172.467 14.952L170.533 14.8857L169.434 46.9869L171.368 47.0531L172.467 14.952Z" fill="black"/>
<path d="M178.271 15.1508L174.403 15.0183L173.303 47.1194L177.172 47.2519L178.271 15.1508Z" fill="black"/>
<path d="M186.008 15.4158L182.14 15.2833L181.04 47.3844L184.909 47.5169L186.008 15.4158Z" fill="black"/>
<path d="M197.614 15.8133L191.811 15.6145L190.711 47.7157L196.514 47.9144L197.614 15.8133Z" fill="black"/>
<path d="M201.483 15.9458L199.548 15.8796L198.449 47.9807L200.383 48.047L201.483 15.9458Z" fill="black"/>
<path d="M207.285 16.1446L203.416 16.0121L202.317 48.1132L206.185 48.2457L207.285 16.1446Z" fill="black"/>
</g>
<g clip-path="url(#clip1_316:317)">
<path d="M2925.43 100.92L1432.37 49.7785L1430.73 97.7504L2923.78 148.892L2925.43 100.92Z" fill="#A9E9F5"/>
<path d="M2857.86 106.61L2853.47 106.46L2852.37 138.606L2856.76 138.757L2857.86 106.61Z" fill="black"/>
<path d="M2861.63 106.739L2859.74 106.675L2858.64 138.821L2860.53 138.886L2861.63 106.739Z" fill="black"/>
<path d="M2866.65 106.911L2864.77 106.847L2863.66 138.993L2865.55 139.058L2866.65 106.911Z" fill="black"/>
<path d="M2876.07 107.234L2873.55 107.148L2872.45 139.294L2874.96 139.38L2876.07 107.234Z" fill="black"/>
<path d="M2884.37 107.518L2878.19 107.306L2877.09 139.407L2883.27 139.619L2884.37 107.518Z" fill="black"/>
<path d="M2378.83 90.2019L2374.43 90.0514L2373.33 122.198L2377.72 122.348L2378.83 90.2019Z" fill="black"/>
<path d="M2382.59 90.3309L2380.71 90.2664L2379.61 122.413L2381.49 122.477L2382.59 90.3309Z" fill="black"/>
<path d="M2387.61 90.5029L2385.73 90.4384L2384.63 122.585L2386.51 122.649L2387.61 90.5029Z" fill="black"/>
<path d="M2397.03 90.8254L2394.52 90.7394L2393.42 122.886L2395.93 122.972L2397.03 90.8254Z" fill="black"/>
<path d="M2405.33 91.1097L2399.15 90.898L2398.05 122.999L2404.23 123.211L2405.33 91.1097Z" fill="black"/>
<path d="M2411.51 91.3213L2407.39 91.1802L2406.29 123.281L2410.41 123.423L2411.51 91.3213Z" fill="black"/>
<path d="M2418.72 91.5683L2416.66 91.4978L2415.56 123.599L2417.62 123.669L2418.72 91.5683Z" fill="black"/>
<path d="M2422.84 91.7094L2420.78 91.6389L2419.68 123.74L2421.74 123.811L2422.84 91.7094Z" fill="black"/>
<path d="M2432.11 92.0269L2429.02 91.9211L2427.92 124.022L2431.01 124.128L2432.11 92.0269Z" fill="black"/>
<path d="M2440.2 92.304L2438.26 92.2377L2437.16 124.339L2439.1 124.405L2440.2 92.304Z" fill="black"/>
<path d="M2446 92.5028L2442.13 92.3703L2441.03 124.471L2444.9 124.604L2446 92.5028Z" fill="black"/>
<path d="M2457.61 92.9003L2451.8 92.7015L2450.7 124.803L2456.51 125.001L2457.61 92.9003Z" fill="black"/>
<path d="M2461.47 93.0328L2459.54 92.9665L2458.44 125.068L2460.37 125.134L2461.47 93.0328Z" fill="black"/>
<path d="M2471.14 93.364L2467.28 93.2315L2466.18 125.333L2470.05 125.465L2471.14 93.364Z" fill="black"/>
<path d="M2475.01 93.4966L2473.08 93.4303L2471.98 125.531L2473.91 125.598L2475.01 93.4966Z" fill="black"/>
<path d="M2484.69 93.8279L2480.82 93.6953L2479.72 125.796L2483.59 125.929L2484.69 93.8279Z" fill="black"/>
<path d="M2492.42 94.0929L2490.49 94.0266L2489.39 126.128L2491.32 126.194L2492.42 94.0929Z" fill="black"/>
<path d="M2500.16 94.3579L2494.36 94.1591L2493.26 126.26L2499.06 126.459L2500.16 94.3579Z" fill="black"/>
<path d="M2504.03 94.4904L2502.09 94.4241L2500.99 126.525L2502.93 126.592L2504.03 94.4904Z" fill="black"/>
<path d="M2513.7 94.8216L2509.83 94.6891L2508.73 126.79L2512.6 126.923L2513.7 94.8216Z" fill="black"/>
<path d="M2521.44 95.0867L2515.63 94.8879L2514.53 126.989L2520.34 127.188L2521.44 95.0867Z" fill="black"/>
<path d="M2525.31 95.2192L2523.37 95.1529L2522.27 127.254L2524.21 127.32L2525.31 95.2192Z" fill="black"/>
<path d="M2529.17 95.3517L2527.24 95.2854L2526.14 127.386L2528.07 127.453L2529.17 95.3517Z" fill="black"/>
<path d="M2538.84 95.6829L2534.98 95.5504L2533.88 127.652L2537.74 127.784L2538.84 95.6829Z" fill="black"/>
<path d="M2546.58 95.948L2544.65 95.8817L2543.55 127.983L2545.48 128.049L2546.58 95.948Z" fill="black"/>
<path d="M2554.32 96.213L2552.38 96.1467L2551.29 128.248L2553.22 128.314L2554.32 96.213Z" fill="black"/>
<path d="M2560.12 96.4118L2556.25 96.2793L2555.15 128.38L2559.02 128.513L2560.12 96.4118Z" fill="black"/>
<path d="M2567.86 96.6768L2565.92 96.6105L2564.83 128.712L2566.76 128.778L2567.86 96.6768Z" fill="black"/>
<path d="M2577.53 97.008L2575.6 96.9418L2574.5 129.043L2576.43 129.109L2577.53 97.008Z" fill="black"/>
<path d="M2583.33 97.2068L2579.47 97.0743L2578.37 129.175L2582.23 129.308L2583.33 97.2068Z" fill="black"/>
<path d="M2591.07 97.4718L2587.2 97.3393L2586.1 129.44L2589.97 129.573L2591.07 97.4718Z" fill="black"/>
<path d="M2602.68 97.8694L2596.87 97.6706L2595.77 129.772L2601.58 129.97L2602.68 97.8694Z" fill="black"/>
<path d="M2606.55 98.0019L2604.61 97.9356L2603.51 130.037L2605.45 130.103L2606.55 98.0019Z" fill="black"/>
<path d="M2612.35 98.2006L2608.48 98.0681L2607.38 130.169L2611.25 130.302L2612.35 98.2006Z" fill="black"/>
<path d="M1896.3 73.6738L1891.9 73.5233L1890.8 105.67L1895.19 105.82L1896.3 73.6738Z" fill="black"/>
<path d="M1900.06 73.8029L1898.18 73.7384L1897.08 105.885L1898.96 105.949L1900.06 73.8029Z" fill="black"/>
<path d="M1905.08 73.9749L1903.2 73.9104L1902.1 106.057L1903.98 106.121L1905.08 73.9749Z" fill="black"/>
<path d="M1914.5 74.2974L1911.99 74.2114L1910.89 106.358L1913.4 106.444L1914.5 74.2974Z" fill="black"/>
<path d="M1922.8 74.5817L1916.62 74.37L1915.52 106.471L1921.7 106.683L1922.8 74.5817Z" fill="black"/>
<path d="M1928.98 74.7933L1924.86 74.6522L1923.76 106.753L1927.88 106.895L1928.98 74.7933Z" fill="black"/>
<path d="M1936.19 75.0403L1934.13 74.9697L1933.03 107.071L1935.09 107.141L1936.19 75.0403Z" fill="black"/>
<path d="M1940.31 75.1814L1938.25 75.1108L1937.15 107.212L1939.21 107.283L1940.31 75.1814Z" fill="black"/>
<path d="M1949.58 75.4989L1946.49 75.3931L1945.39 107.494L1948.48 107.6L1949.58 75.4989Z" fill="black"/>
<path d="M1957.67 75.776L1955.73 75.7097L1954.63 107.811L1956.57 107.877L1957.67 75.776Z" fill="black"/>
<path d="M1963.47 75.9747L1959.6 75.8422L1958.5 107.943L1962.37 108.076L1963.47 75.9747Z" fill="black"/>
<path d="M1975.07 76.3723L1969.27 76.1735L1968.17 108.275L1973.97 108.473L1975.07 76.3723Z" fill="black"/>
<path d="M1978.94 76.5047L1977.01 76.4385L1975.91 108.54L1977.84 108.606L1978.94 76.5047Z" fill="black"/>
<path d="M1988.61 76.836L1984.74 76.7035L1983.65 108.805L1987.51 108.937L1988.61 76.836Z" fill="black"/>
<path d="M1992.48 76.9685L1990.55 76.9023L1989.45 109.003L1991.38 109.07L1992.48 76.9685Z" fill="black"/>
<path d="M2002.15 77.2998L1998.29 77.1673L1997.19 109.268L2001.05 109.401L2002.15 77.2998Z" fill="black"/>
<path d="M2009.89 77.5648L2007.96 77.4986L2006.86 109.6L2008.79 109.666L2009.89 77.5648Z" fill="black"/>
<path d="M2017.63 77.8299L2011.83 77.6311L2010.73 109.732L2016.53 109.931L2017.63 77.8299Z" fill="black"/>
<path d="M2021.5 77.9624L2019.56 77.8961L2018.46 109.997L2020.4 110.063L2021.5 77.9624Z" fill="black"/>
<path d="M2031.17 78.2936L2027.3 78.1611L2026.2 110.262L2030.07 110.395L2031.17 78.2936Z" fill="black"/>
<path d="M2038.91 78.5586L2033.1 78.3599L2032 110.461L2037.81 110.66L2038.91 78.5586Z" fill="black"/>
<path d="M2042.77 78.6912L2040.84 78.6249L2039.74 110.726L2041.67 110.792L2042.77 78.6912Z" fill="black"/>
<path d="M2046.64 78.8236L2044.71 78.7574L2043.61 110.859L2045.54 110.925L2046.64 78.8236Z" fill="black"/>
<path d="M2056.31 79.1549L2052.45 79.0224L2051.34 111.124L2055.21 111.256L2056.31 79.1549Z" fill="black"/>
<path d="M2064.05 79.42L2062.12 79.3537L2061.02 111.455L2062.95 111.521L2064.05 79.42Z" fill="black"/>
<path d="M2071.79 79.685L2069.85 79.6187L2068.75 111.72L2070.69 111.786L2071.79 79.685Z" fill="black"/>
<path d="M2077.59 79.8837L2073.72 79.7512L2072.62 111.852L2076.49 111.985L2077.59 79.8837Z" fill="black"/>
<path d="M2085.33 80.1487L2083.39 80.0825L2082.29 112.184L2084.23 112.25L2085.33 80.1487Z" fill="black"/>
<path d="M2095 80.48L2093.07 80.4137L2091.97 112.515L2093.9 112.581L2095 80.48Z" fill="black"/>
<path d="M2100.8 80.6788L2096.93 80.5463L2095.84 112.647L2099.7 112.78L2100.8 80.6788Z" fill="black"/>
<path d="M2108.54 80.9438L2104.67 80.8113L2103.57 112.912L2107.44 113.045L2108.54 80.9438Z" fill="black"/>
<path d="M2120.15 81.3413L2114.34 81.1426L2113.24 113.244L2119.04 113.442L2120.15 81.3413Z" fill="black"/>
<path d="M2124.01 81.4738L2122.08 81.4076L2120.98 113.509L2122.91 113.575L2124.01 81.4738Z" fill="black"/>
<path d="M2129.82 81.6726L2125.95 81.5401L2124.85 113.641L2128.72 113.774L2129.82 81.6726Z" fill="black"/>
<path d="M1440.27 58.0537L1434.09 57.842L1432.99 89.9431L1439.17 90.1548L1440.27 58.0537Z" fill="black"/>
<path d="M1446.45 58.2653L1442.33 58.1242L1441.23 90.2253L1445.35 90.3664L1446.45 58.2653Z" fill="black"/>
<path d="M1453.66 58.5123L1451.6 58.4417L1450.5 90.5428L1452.56 90.6134L1453.66 58.5123Z" fill="black"/>
<path d="M1457.78 58.6534L1455.72 58.5828L1454.62 90.684L1456.68 90.7545L1457.78 58.6534Z" fill="black"/>
<path d="M1467.05 58.9709L1463.96 58.8651L1462.86 90.9662L1465.95 91.072L1467.05 58.9709Z" fill="black"/>
<path d="M1475.13 59.248L1473.2 59.1817L1472.1 91.2828L1474.03 91.3491L1475.13 59.248Z" fill="black"/>
<path d="M1480.94 59.4467L1477.07 59.3142L1475.97 91.4154L1479.84 91.5479L1480.94 59.4467Z" fill="black"/>
<path d="M1492.54 59.8442L1486.74 59.6455L1485.64 91.7466L1491.44 91.9454L1492.54 59.8442Z" fill="black"/>
<path d="M1496.41 59.9767L1494.48 59.9105L1493.38 92.0116L1495.31 92.0779L1496.41 59.9767Z" fill="black"/>
<path d="M1506.08 60.308L1502.21 60.1755L1501.11 92.2766L1504.98 92.4091L1506.08 60.308Z" fill="black"/>
<path d="M1509.95 60.4405L1508.02 60.3743L1506.92 92.4754L1508.85 92.5417L1509.95 60.4405Z" fill="black"/>
<path d="M1519.62 60.7718L1515.75 60.6393L1514.65 92.7404L1518.52 92.8729L1519.62 60.7718Z" fill="black"/>
<path d="M1527.36 61.0368L1525.43 60.9706L1524.33 93.0717L1526.26 93.138L1527.36 61.0368Z" fill="black"/>
<path d="M1535.1 61.3019L1529.29 61.1031L1528.19 93.2042L1534 93.403L1535.1 61.3019Z" fill="black"/>
<path d="M1538.97 61.4343L1537.03 61.3681L1535.93 93.4692L1537.87 93.5355L1538.97 61.4343Z" fill="black"/>
<path d="M1548.64 61.7656L1544.77 61.6331L1543.67 93.7342L1547.54 93.8667L1548.64 61.7656Z" fill="black"/>
<path d="M1556.37 62.0306L1550.57 61.8319L1549.47 93.933L1555.27 94.1318L1556.37 62.0306Z" fill="black"/>
<path d="M1560.24 62.1632L1558.31 62.0969L1557.21 94.198L1559.14 94.2643L1560.24 62.1632Z" fill="black"/>
<path d="M1564.11 62.2956L1562.18 62.2294L1561.08 94.3305L1563.01 94.3967L1564.11 62.2956Z" fill="black"/>
<path d="M1573.78 62.6269L1569.91 62.4944L1568.81 94.5955L1572.68 94.728L1573.78 62.6269Z" fill="black"/>
<path d="M1581.52 62.8919L1579.58 62.8257L1578.49 94.9268L1580.42 94.9931L1581.52 62.8919Z" fill="black"/>
<path d="M1589.26 63.157L1587.32 63.0907L1586.22 95.1918L1588.16 95.2581L1589.26 63.157Z" fill="black"/>
<path d="M1595.06 63.3557L1591.19 63.2232L1590.09 95.3243L1593.96 95.4568L1595.06 63.3557Z" fill="black"/>
<path d="M1602.8 63.6207L1600.86 63.5545L1599.76 95.6556L1601.7 95.7219L1602.8 63.6207Z" fill="black"/>
<path d="M1612.47 63.952L1610.53 63.8857L1609.43 95.9869L1611.37 96.0531L1612.47 63.952Z" fill="black"/>
<path d="M1618.27 64.1508L1614.4 64.0183L1613.3 96.1194L1617.17 96.2519L1618.27 64.1508Z" fill="black"/>
<path d="M1626.01 64.4158L1622.14 64.2833L1621.04 96.3844L1624.91 96.5169L1626.01 64.4158Z" fill="black"/>
<path d="M1637.61 64.8133L1631.81 64.6145L1630.71 96.7157L1636.51 96.9144L1637.61 64.8133Z" fill="black"/>
<path d="M1641.48 64.9458L1639.55 64.8796L1638.45 96.9807L1640.38 97.047L1641.48 64.9458Z" fill="black"/>
<path d="M1647.29 65.1446L1643.42 65.0121L1642.32 97.1132L1646.19 97.2457L1647.29 65.1446Z" fill="black"/>
</g>
<g clip-path="url(#clip2_316:317)">
<path d="M4365.43 149.92L2872.37 98.7785L2870.73 146.75L4363.78 197.892L4365.43 149.92Z" fill="#A9E9F5"/>
<path d="M4297.86 155.61L4293.47 155.46L4292.37 187.606L4296.76 187.757L4297.86 155.61Z" fill="black"/>
<path d="M4301.63 155.739L4299.74 155.675L4298.64 187.821L4300.53 187.886L4301.63 155.739Z" fill="black"/>
<path d="M4306.65 155.911L4304.77 155.847L4303.66 187.993L4305.55 188.058L4306.65 155.911Z" fill="black"/>
<path d="M4316.07 156.234L4313.55 156.148L4312.45 188.294L4314.96 188.38L4316.07 156.234Z" fill="black"/>
<path d="M4324.37 156.518L4318.19 156.306L4317.09 188.407L4323.27 188.619L4324.37 156.518Z" fill="black"/>
<path d="M3818.83 139.202L3814.43 139.051L3813.33 171.198L3817.73 171.348L3818.83 139.202Z" fill="black"/>
<path d="M3822.59 139.331L3820.71 139.266L3819.61 171.413L3821.49 171.477L3822.59 139.331Z" fill="black"/>
<path d="M3827.61 139.503L3825.73 139.438L3824.63 171.585L3826.51 171.649L3827.61 139.503Z" fill="black"/>
<path d="M3837.03 139.825L3834.52 139.739L3833.42 171.886L3835.93 171.972L3837.03 139.825Z" fill="black"/>
<path d="M3845.33 140.11L3839.15 139.898L3838.05 171.999L3844.23 172.211L3845.33 140.11Z" fill="black"/>
<path d="M3851.51 140.321L3847.39 140.18L3846.29 172.281L3850.41 172.423L3851.51 140.321Z" fill="black"/>
<path d="M3858.72 140.568L3856.66 140.498L3855.56 172.599L3857.62 172.669L3858.72 140.568Z" fill="black"/>
<path d="M3862.84 140.709L3860.78 140.639L3859.68 172.74L3861.74 172.811L3862.84 140.709Z" fill="black"/>
<path d="M3872.11 141.027L3869.02 140.921L3867.92 173.022L3871.01 173.128L3872.11 141.027Z" fill="black"/>
<path d="M3880.2 141.304L3878.26 141.238L3877.16 173.339L3879.1 173.405L3880.2 141.304Z" fill="black"/>
<path d="M3886 141.503L3882.13 141.37L3881.03 173.471L3884.9 173.604L3886 141.503Z" fill="black"/>
<path d="M3897.61 141.9L3891.8 141.701L3890.7 173.803L3896.51 174.001L3897.61 141.9Z" fill="black"/>
<path d="M3901.47 142.033L3899.54 141.966L3898.44 174.068L3900.37 174.134L3901.47 142.033Z" fill="black"/>
<path d="M3911.14 142.364L3907.28 142.232L3906.18 174.333L3910.05 174.465L3911.14 142.364Z" fill="black"/>
<path d="M3915.01 142.497L3913.08 142.43L3911.98 174.531L3913.91 174.598L3915.01 142.497Z" fill="black"/>
<path d="M3924.69 142.828L3920.82 142.695L3919.72 174.796L3923.59 174.929L3924.69 142.828Z" fill="black"/>
<path d="M3932.42 143.093L3930.49 143.027L3929.39 175.128L3931.32 175.194L3932.42 143.093Z" fill="black"/>
<path d="M3940.16 143.358L3934.36 143.159L3933.26 175.26L3939.06 175.459L3940.16 143.358Z" fill="black"/>
<path d="M3944.03 143.49L3942.09 143.424L3940.99 175.525L3942.93 175.592L3944.03 143.49Z" fill="black"/>
<path d="M3953.7 143.822L3949.83 143.689L3948.73 175.79L3952.6 175.923L3953.7 143.822Z" fill="black"/>
<path d="M3961.44 144.087L3955.63 143.888L3954.53 175.989L3960.34 176.188L3961.44 144.087Z" fill="black"/>
<path d="M3965.31 144.219L3963.37 144.153L3962.27 176.254L3964.21 176.32L3965.31 144.219Z" fill="black"/>
<path d="M3969.17 144.352L3967.24 144.285L3966.14 176.386L3968.07 176.453L3969.17 144.352Z" fill="black"/>
<path d="M3978.84 144.683L3974.98 144.55L3973.88 176.652L3977.74 176.784L3978.84 144.683Z" fill="black"/>
<path d="M3986.58 144.948L3984.65 144.882L3983.55 176.983L3985.48 177.049L3986.58 144.948Z" fill="black"/>
<path d="M3994.32 145.213L3992.38 145.147L3991.29 177.248L3993.22 177.314L3994.32 145.213Z" fill="black"/>
<path d="M4000.12 145.412L3996.25 145.279L3995.15 177.38L3999.02 177.513L4000.12 145.412Z" fill="black"/>
<path d="M4007.86 145.677L4005.92 145.611L4004.83 177.712L4006.76 177.778L4007.86 145.677Z" fill="black"/>
<path d="M4017.53 146.008L4015.6 145.942L4014.5 178.043L4016.43 178.109L4017.53 146.008Z" fill="black"/>
<path d="M4023.33 146.207L4019.47 146.074L4018.37 178.175L4022.23 178.308L4023.33 146.207Z" fill="black"/>
<path d="M4031.07 146.472L4027.2 146.339L4026.1 178.44L4029.97 178.573L4031.07 146.472Z" fill="black"/>
<path d="M4042.68 146.869L4036.87 146.671L4035.77 178.772L4041.58 178.97L4042.68 146.869Z" fill="black"/>
<path d="M4046.55 147.002L4044.61 146.936L4043.51 179.037L4045.45 179.103L4046.55 147.002Z" fill="black"/>
<path d="M4052.35 147.201L4048.48 147.068L4047.38 179.169L4051.25 179.302L4052.35 147.201Z" fill="black"/>
<path d="M3336.3 122.674L3331.9 122.523L3330.8 154.67L3335.19 154.82L3336.3 122.674Z" fill="black"/>
<path d="M3340.06 122.803L3338.18 122.738L3337.08 154.885L3338.96 154.949L3340.06 122.803Z" fill="black"/>
<path d="M3345.08 122.975L3343.2 122.91L3342.1 155.057L3343.98 155.121L3345.08 122.975Z" fill="black"/>
<path d="M3354.5 123.297L3351.99 123.211L3350.89 155.358L3353.4 155.444L3354.5 123.297Z" fill="black"/>
<path d="M3362.8 123.582L3356.62 123.37L3355.52 155.471L3361.7 155.683L3362.8 123.582Z" fill="black"/>
<path d="M3368.98 123.793L3364.86 123.652L3363.76 155.753L3367.88 155.895L3368.98 123.793Z" fill="black"/>
<path d="M3376.19 124.04L3374.13 123.97L3373.03 156.071L3375.09 156.141L3376.19 124.04Z" fill="black"/>
<path d="M3380.31 124.181L3378.25 124.111L3377.15 156.212L3379.21 156.283L3380.31 124.181Z" fill="black"/>
<path d="M3389.58 124.499L3386.49 124.393L3385.39 156.494L3388.48 156.6L3389.58 124.499Z" fill="black"/>
<path d="M3397.67 124.776L3395.73 124.71L3394.63 156.811L3396.57 156.877L3397.67 124.776Z" fill="black"/>
<path d="M3403.47 124.975L3399.6 124.842L3398.5 156.943L3402.37 157.076L3403.47 124.975Z" fill="black"/>
<path d="M3415.07 125.372L3409.27 125.174L3408.17 157.275L3413.97 157.473L3415.07 125.372Z" fill="black"/>
<path d="M3418.94 125.505L3417.01 125.438L3415.91 157.54L3417.84 157.606L3418.94 125.505Z" fill="black"/>
<path d="M3428.61 125.836L3424.74 125.703L3423.65 157.805L3427.51 157.937L3428.61 125.836Z" fill="black"/>
<path d="M3432.48 125.968L3430.55 125.902L3429.45 158.003L3431.38 158.07L3432.48 125.968Z" fill="black"/>
<path d="M3442.15 126.3L3438.29 126.167L3437.19 158.268L3441.05 158.401L3442.15 126.3Z" fill="black"/>
<path d="M3449.89 126.565L3447.96 126.499L3446.86 158.6L3448.79 158.666L3449.89 126.565Z" fill="black"/>
<path d="M3457.63 126.83L3451.83 126.631L3450.73 158.732L3456.53 158.931L3457.63 126.83Z" fill="black"/>
<path d="M3461.5 126.962L3459.56 126.896L3458.46 158.997L3460.4 159.064L3461.5 126.962Z" fill="black"/>
<path d="M3471.17 127.294L3467.3 127.161L3466.2 159.262L3470.07 159.395L3471.17 127.294Z" fill="black"/>
<path d="M3478.91 127.559L3473.1 127.36L3472 159.461L3477.81 159.66L3478.91 127.559Z" fill="black"/>
<path d="M3482.77 127.691L3480.84 127.625L3479.74 159.726L3481.67 159.792L3482.77 127.691Z" fill="black"/>
<path d="M3486.64 127.824L3484.71 127.757L3483.61 159.859L3485.54 159.925L3486.64 127.824Z" fill="black"/>
<path d="M3496.31 128.155L3492.45 128.022L3491.34 160.124L3495.21 160.256L3496.31 128.155Z" fill="black"/>
<path d="M3504.05 128.42L3502.12 128.354L3501.02 160.455L3502.95 160.521L3504.05 128.42Z" fill="black"/>
<path d="M3511.79 128.685L3509.85 128.619L3508.75 160.72L3510.69 160.786L3511.79 128.685Z" fill="black"/>
<path d="M3517.59 128.884L3513.72 128.751L3512.62 160.852L3516.49 160.985L3517.59 128.884Z" fill="black"/>
<path d="M3525.33 129.149L3523.39 129.083L3522.29 161.184L3524.23 161.25L3525.33 129.149Z" fill="black"/>
<path d="M3535 129.48L3533.07 129.414L3531.97 161.515L3533.9 161.581L3535 129.48Z" fill="black"/>
<path d="M3540.8 129.679L3536.93 129.546L3535.84 161.647L3539.7 161.78L3540.8 129.679Z" fill="black"/>
<path d="M3548.54 129.944L3544.67 129.811L3543.57 161.912L3547.44 162.045L3548.54 129.944Z" fill="black"/>
<path d="M3560.15 130.341L3554.34 130.143L3553.24 162.244L3559.04 162.442L3560.15 130.341Z" fill="black"/>
<path d="M3564.01 130.474L3562.08 130.408L3560.98 162.509L3562.91 162.575L3564.01 130.474Z" fill="black"/>
<path d="M3569.82 130.673L3565.95 130.54L3564.85 162.641L3568.72 162.774L3569.82 130.673Z" fill="black"/>
<path d="M2880.27 107.054L2874.09 106.842L2872.99 138.943L2879.17 139.155L2880.27 107.054Z" fill="black"/>
<path d="M2886.45 107.265L2882.33 107.124L2881.23 139.225L2885.35 139.366L2886.45 107.265Z" fill="black"/>
<path d="M2893.66 107.512L2891.6 107.442L2890.5 139.543L2892.56 139.613L2893.66 107.512Z" fill="black"/>
<path d="M2897.78 107.653L2895.72 107.583L2894.62 139.684L2896.68 139.754L2897.78 107.653Z" fill="black"/>
<path d="M2907.05 107.971L2903.96 107.865L2902.86 139.966L2905.95 140.072L2907.05 107.971Z" fill="black"/>
<path d="M2915.13 108.248L2913.2 108.182L2912.1 140.283L2914.03 140.349L2915.13 108.248Z" fill="black"/>
<path d="M2920.94 108.447L2917.07 108.314L2915.97 140.415L2919.84 140.548L2920.94 108.447Z" fill="black"/>
<path d="M2932.54 108.844L2926.74 108.646L2925.64 140.747L2931.44 140.945L2932.54 108.844Z" fill="black"/>
<path d="M2936.41 108.977L2934.48 108.91L2933.38 141.012L2935.31 141.078L2936.41 108.977Z" fill="black"/>
<path d="M2946.08 109.308L2942.21 109.175L2941.11 141.277L2944.98 141.409L2946.08 109.308Z" fill="black"/>
<path d="M2949.95 109.44L2948.02 109.374L2946.92 141.475L2948.85 141.542L2949.95 109.44Z" fill="black"/>
<path d="M2959.62 109.772L2955.75 109.639L2954.65 141.74L2958.52 141.873L2959.62 109.772Z" fill="black"/>
<path d="M2967.36 110.037L2965.43 109.971L2964.33 142.072L2966.26 142.138L2967.36 110.037Z" fill="black"/>
<path d="M2975.1 110.302L2969.29 110.103L2968.19 142.204L2974 142.403L2975.1 110.302Z" fill="black"/>
<path d="M2978.97 110.434L2977.03 110.368L2975.93 142.469L2977.87 142.536L2978.97 110.434Z" fill="black"/>
<path d="M2988.64 110.766L2984.77 110.633L2983.67 142.734L2987.54 142.867L2988.64 110.766Z" fill="black"/>
<path d="M2996.37 111.031L2990.57 110.832L2989.47 142.933L2995.27 143.132L2996.37 111.031Z" fill="black"/>
<path d="M3000.24 111.163L2998.31 111.097L2997.21 143.198L2999.14 143.264L3000.24 111.163Z" fill="black"/>
<path d="M3004.11 111.296L3002.18 111.229L3001.08 143.331L3003.01 143.397L3004.11 111.296Z" fill="black"/>
<path d="M3013.78 111.627L3009.91 111.494L3008.81 143.596L3012.68 143.728L3013.78 111.627Z" fill="black"/>
<path d="M3021.52 111.892L3019.59 111.826L3018.49 143.927L3020.42 143.993L3021.52 111.892Z" fill="black"/>
<path d="M3029.26 112.157L3027.32 112.091L3026.22 144.192L3028.16 144.258L3029.26 112.157Z" fill="black"/>
<path d="M3035.06 112.356L3031.19 112.223L3030.09 144.324L3033.96 144.457L3035.06 112.356Z" fill="black"/>
<path d="M3042.8 112.621L3040.86 112.554L3039.76 144.656L3041.7 144.722L3042.8 112.621Z" fill="black"/>
<path d="M3052.47 112.952L3050.53 112.886L3049.43 144.987L3051.37 145.053L3052.47 112.952Z" fill="black"/>
<path d="M3058.27 113.151L3054.4 113.018L3053.3 145.119L3057.17 145.252L3058.27 113.151Z" fill="black"/>
<path d="M3066.01 113.416L3062.14 113.283L3061.04 145.384L3064.91 145.517L3066.01 113.416Z" fill="black"/>
<path d="M3077.61 113.813L3071.81 113.615L3070.71 145.716L3076.51 145.914L3077.61 113.813Z" fill="black"/>
<path d="M3081.48 113.946L3079.55 113.88L3078.45 145.981L3080.38 146.047L3081.48 113.946Z" fill="black"/>
<path d="M3087.29 114.145L3083.42 114.012L3082.32 146.113L3086.19 146.246L3087.29 114.145Z" fill="black"/>
</g>
<defs>
<clipPath id="clip0_316:317">
<rect width="1440" height="106" fill="white"/>
</clipPath>
<clipPath id="clip1_316:317">
<rect width="1440" height="106" fill="white" transform="translate(1440 49)"/>
</clipPath>
<clipPath id="clip2_316:317">
<rect width="1440" height="106" fill="white" transform="translate(2880 98)"/>
</clipPath>
</defs>
</svg>
