<svg width="1440" height="106" viewBox="0 0 1440 106" fill="none" xmlns="http://www.w3.org/2000/svg">
<rect x="-7.62891" y="0.778488" width="1493.93" height="48" transform="rotate(1.96177 -7.62891 0.778488)" fill="#A9E9F5"/>
<path d="M1417.86 57.6101L1413.47 57.4596L1412.37 89.6061L1416.76 89.7566L1417.86 57.6101Z" fill="black"/>
<path d="M1421.63 57.7392L1419.74 57.6747L1418.64 89.8211L1420.53 89.8856L1421.63 57.7392Z" fill="black"/>
<path d="M1426.65 57.9112L1424.77 57.8466L1423.66 89.9931L1425.55 90.0576L1426.65 57.9112Z" fill="black"/>
<path d="M1436.07 58.2337L1433.55 58.1477L1432.45 90.2942L1434.96 90.3802L1436.07 58.2337Z" fill="black"/>
<path d="M1444.37 58.518L1438.19 58.3063L1437.09 90.4074L1443.27 90.6191L1444.37 58.518Z" fill="black"/>
<path d="M938.826 41.2019L934.432 41.0514L933.331 73.1978L937.725 73.3483L938.826 41.2019Z" fill="black"/>
<path d="M942.593 41.3309L940.71 41.2664L939.609 73.4129L941.492 73.4774L942.593 41.3309Z" fill="black"/>
<path d="M947.614 41.5029L945.731 41.4384L944.63 73.5849L946.513 73.6494L947.614 41.5029Z" fill="black"/>
<path d="M957.03 41.8254L954.519 41.7394L953.418 73.8859L955.929 73.9719L957.03 41.8254Z" fill="black"/>
<path d="M965.33 42.1097L959.151 41.898L958.051 73.9992L964.231 74.2108L965.33 42.1097Z" fill="black"/>
<path d="M971.509 42.3213L967.389 42.1802L966.29 74.2814L970.409 74.4225L971.509 42.3213Z" fill="black"/>
<path d="M978.719 42.5683L976.659 42.4978L975.56 74.5989L977.62 74.6694L978.719 42.5683Z" fill="black"/>
<path d="M982.839 42.7094L980.779 42.6389L979.679 74.74L981.739 74.8106L982.839 42.7094Z" fill="black"/>
<path d="M992.108 43.0269L989.018 42.9211L987.919 75.0222L991.009 75.1281L992.108 43.0269Z" fill="black"/>
<path d="M1000.2 43.304L998.263 43.2377L997.163 75.3389L999.098 75.4051L1000.2 43.304Z" fill="black"/>
<path d="M1006 43.5028L1002.13 43.3703L1001.03 75.4714L1004.9 75.6039L1006 43.5028Z" fill="black"/>
<path d="M1017.61 43.9003L1011.8 43.7015L1010.7 75.8027L1016.51 76.0014L1017.61 43.9003Z" fill="black"/>
<path d="M1021.47 44.0328L1019.54 43.9665L1018.44 76.0677L1020.37 76.1339L1021.47 44.0328Z" fill="black"/>
<path d="M1031.14 44.364L1027.28 44.2315L1026.18 76.3327L1030.05 76.4652L1031.14 44.364Z" fill="black"/>
<path d="M1035.01 44.4966L1033.08 44.4303L1031.98 76.5314L1033.91 76.5977L1035.01 44.4966Z" fill="black"/>
<path d="M1044.69 44.8279L1040.82 44.6953L1039.72 76.7965L1043.59 76.929L1044.69 44.8279Z" fill="black"/>
<path d="M1052.42 45.0929L1050.49 45.0266L1049.39 77.1277L1051.32 77.194L1052.42 45.0929Z" fill="black"/>
<path d="M1060.16 45.3579L1054.36 45.1591L1053.26 77.2603L1059.06 77.459L1060.16 45.3579Z" fill="black"/>
<path d="M1064.03 45.4904L1062.09 45.4241L1060.99 77.5253L1062.93 77.5915L1064.03 45.4904Z" fill="black"/>
<path d="M1073.7 45.8216L1069.83 45.6891L1068.73 77.7903L1072.6 77.9228L1073.7 45.8216Z" fill="black"/>
<path d="M1081.44 46.0867L1075.63 45.8879L1074.53 77.989L1080.34 78.1878L1081.44 46.0867Z" fill="black"/>
<path d="M1085.31 46.2192L1083.37 46.1529L1082.27 78.2541L1084.21 78.3203L1085.31 46.2192Z" fill="black"/>
<path d="M1089.17 46.3517L1087.24 46.2854L1086.14 78.3865L1088.07 78.4528L1089.17 46.3517Z" fill="black"/>
<path d="M1098.84 46.6829L1094.98 46.5504L1093.88 78.6516L1097.74 78.7841L1098.84 46.6829Z" fill="black"/>
<path d="M1106.58 46.948L1104.65 46.8817L1103.55 78.9829L1105.48 79.0491L1106.58 46.948Z" fill="black"/>
<path d="M1114.32 47.213L1112.38 47.1467L1111.29 79.2479L1113.22 79.3141L1114.32 47.213Z" fill="black"/>
<path d="M1120.12 47.4118L1116.25 47.2793L1115.15 79.3804L1119.02 79.5129L1120.12 47.4118Z" fill="black"/>
<path d="M1127.86 47.6768L1125.92 47.6105L1124.83 79.7117L1126.76 79.7779L1127.86 47.6768Z" fill="black"/>
<path d="M1137.53 48.008L1135.6 47.9418L1134.5 80.0429L1136.43 80.1092L1137.53 48.008Z" fill="black"/>
<path d="M1143.33 48.2068L1139.47 48.0743L1138.37 80.1755L1142.23 80.308L1143.33 48.2068Z" fill="black"/>
<path d="M1151.07 48.4718L1147.2 48.3393L1146.1 80.4405L1149.97 80.573L1151.07 48.4718Z" fill="black"/>
<path d="M1162.68 48.8694L1156.87 48.6706L1155.77 80.7717L1161.58 80.9705L1162.68 48.8694Z" fill="black"/>
<path d="M1166.55 49.0019L1164.61 48.9356L1163.51 81.0368L1165.45 81.103L1166.55 49.0019Z" fill="black"/>
<path d="M1172.35 49.2006L1168.48 49.0681L1167.38 81.1693L1171.25 81.3018L1172.35 49.2006Z" fill="black"/>
<path d="M456.295 24.6738L451.901 24.5233L450.8 56.6698L455.194 56.8203L456.295 24.6738Z" fill="black"/>
<path d="M460.062 24.8029L458.178 24.7384L457.077 56.8848L458.96 56.9493L460.062 24.8029Z" fill="black"/>
<path d="M465.083 24.9749L463.2 24.9104L462.098 57.0568L463.982 57.1213L465.083 24.9749Z" fill="black"/>
<path d="M474.499 25.2974L471.988 25.2114L470.887 57.3578L473.398 57.4439L474.499 25.2974Z" fill="black"/>
<path d="M482.799 25.5817L476.619 25.37L475.52 57.4711L481.699 57.6828L482.799 25.5817Z" fill="black"/>
<path d="M488.978 25.7933L484.858 25.6522L483.758 57.7533L487.878 57.8945L488.978 25.7933Z" fill="black"/>
<path d="M496.188 26.0403L494.128 25.9697L493.028 58.0709L495.088 58.1414L496.188 26.0403Z" fill="black"/>
<path d="M500.308 26.1814L498.248 26.1108L497.148 58.212L499.208 58.2825L500.308 26.1814Z" fill="black"/>
<path d="M509.577 26.4989L506.487 26.3931L505.388 58.4942L508.477 58.6L509.577 26.4989Z" fill="black"/>
<path d="M517.666 26.776L515.731 26.7097L514.632 58.8109L516.566 58.8771L517.666 26.776Z" fill="black"/>
<path d="M523.469 26.9747L519.6 26.8422L518.501 58.9434L522.369 59.0759L523.469 26.9747Z" fill="black"/>
<path d="M535.074 27.3723L529.271 27.1735L528.172 59.2746L533.975 59.4734L535.074 27.3723Z" fill="black"/>
<path d="M538.942 27.5047L537.008 27.4385L535.909 59.5396L537.843 59.6059L538.942 27.5047Z" fill="black"/>
<path d="M548.614 27.836L544.745 27.7035L543.645 59.8046L547.514 59.9372L548.614 27.836Z" fill="black"/>
<path d="M552.482 27.9685L550.548 27.9023L549.449 60.0034L551.383 60.0697L552.482 27.9685Z" fill="black"/>
<path d="M562.154 28.2998L558.286 28.1673L557.186 60.2684L561.055 60.401L562.154 28.2998Z" fill="black"/>
<path d="M569.891 28.5648L567.957 28.4986L566.857 60.5997L568.792 60.666L569.891 28.5648Z" fill="black"/>
<path d="M577.628 28.8299L571.826 28.6311L570.726 60.7322L576.529 60.931L577.628 28.8299Z" fill="black"/>
<path d="M581.497 28.9624L579.562 28.8961L578.463 60.9972L580.397 61.0635L581.497 28.9624Z" fill="black"/>
<path d="M591.168 29.2936L587.299 29.1611L586.2 61.2622L590.068 61.3947L591.168 29.2936Z" fill="black"/>
<path d="M598.905 29.5586L593.102 29.3599L592.003 61.461L597.806 61.6598L598.905 29.5586Z" fill="black"/>
<path d="M602.774 29.6912L600.84 29.6249L599.74 61.726L601.675 61.7923L602.774 29.6912Z" fill="black"/>
<path d="M606.641 29.8236L604.707 29.7574L603.608 61.8585L605.542 61.9248L606.641 29.8236Z" fill="black"/>
<path d="M616.313 30.1549L612.445 30.0224L611.345 62.1235L615.214 62.256L616.313 30.1549Z" fill="black"/>
<path d="M624.051 30.42L622.117 30.3537L621.017 62.4548L622.951 62.5211L624.051 30.42Z" fill="black"/>
<path d="M631.788 30.685L629.854 30.6187L628.754 62.7198L630.688 62.7861L631.788 30.685Z" fill="black"/>
<path d="M637.591 30.8837L633.722 30.7512L632.623 62.8524L636.491 62.9849L637.591 30.8837Z" fill="black"/>
<path d="M645.328 31.1487L643.393 31.0825L642.294 63.1836L644.228 63.2499L645.328 31.1487Z" fill="black"/>
<path d="M654.999 31.48L653.065 31.4137L651.965 63.5149L653.899 63.5811L654.999 31.48Z" fill="black"/>
<path d="M660.803 31.6788L656.934 31.5463L655.835 63.6474L659.703 63.7799L660.803 31.6788Z" fill="black"/>
<path d="M668.54 31.9438L664.671 31.8113L663.571 63.9124L667.44 64.0449L668.54 31.9438Z" fill="black"/>
<path d="M680.145 32.3413L674.342 32.1426L673.243 64.2437L679.045 64.4425L680.145 32.3413Z" fill="black"/>
<path d="M684.014 32.4738L682.08 32.4076L680.98 64.5087L682.914 64.575L684.014 32.4738Z" fill="black"/>
<path d="M689.816 32.6726L685.948 32.5401L684.848 64.6412L688.717 64.7737L689.816 32.6726Z" fill="black"/>
<path d="M0.267509 9.05366L-5.91211 8.842L-7.01166 40.9431L-0.832043 41.1548L0.267509 9.05366Z" fill="black"/>
<path d="M6.44616 9.2653L2.32642 9.12419L1.22686 41.2253L5.34661 41.3664L6.44616 9.2653Z" fill="black"/>
<path d="M13.6563 9.51227L11.5964 9.44171L10.4969 41.5428L12.5568 41.6134L13.6563 9.51227Z" fill="black"/>
<path d="M17.7762 9.65338L15.7163 9.58282L14.6168 41.684L16.6766 41.7545L17.7762 9.65338Z" fill="black"/>
<path d="M27.0456 9.97089L23.9558 9.86505L22.8563 41.9662L25.9461 42.072L27.0456 9.97089Z" fill="black"/>
<path d="M35.1345 10.248L33.2002 10.1817L32.1006 42.2828L34.0349 42.3491L35.1345 10.248Z" fill="black"/>
<path d="M40.9374 10.4467L37.0688 10.3142L35.9693 42.4154L39.8378 42.5479L40.9374 10.4467Z" fill="black"/>
<path d="M52.5428 10.8442L46.74 10.6455L45.6404 42.7466L51.4433 42.9454L52.5428 10.8442Z" fill="black"/>
<path d="M56.4111 10.9767L54.4768 10.9105L53.3773 43.0116L55.3115 43.0779L56.4111 10.9767Z" fill="black"/>
<path d="M66.0822 11.308L62.2136 11.1755L61.1141 43.2766L64.9826 43.4091L66.0822 11.308Z" fill="black"/>
<path d="M69.9511 11.4405L68.0168 11.3743L66.9173 43.4754L68.8516 43.5417L69.9511 11.4405Z" fill="black"/>
<path d="M79.6229 11.7718L75.7544 11.6393L74.6548 43.7404L78.5234 43.8729L79.6229 11.7718Z" fill="black"/>
<path d="M87.3598 12.0368L85.4255 11.9706L84.326 44.0717L86.2603 44.138L87.3598 12.0368Z" fill="black"/>
<path d="M95.097 12.3019L89.2942 12.1031L88.1946 44.2042L93.9974 44.403L95.097 12.3019Z" fill="black"/>
<path d="M98.9653 12.4343L97.031 12.3681L95.9315 44.4692L97.8657 44.5355L98.9653 12.4343Z" fill="black"/>
<path d="M108.636 12.7656L104.768 12.6331L103.668 44.7342L107.537 44.8667L108.636 12.7656Z" fill="black"/>
<path d="M116.374 13.0306L110.571 12.8319L109.471 44.933L115.274 45.1318L116.374 13.0306Z" fill="black"/>
<path d="M120.243 13.1632L118.309 13.0969L117.209 45.198L119.143 45.2643L120.243 13.1632Z" fill="black"/>
<path d="M124.11 13.2956L122.176 13.2294L121.076 45.3305L123.011 45.3967L124.11 13.2956Z" fill="black"/>
<path d="M133.782 13.6269L129.913 13.4944L128.814 45.5955L132.682 45.728L133.782 13.6269Z" fill="black"/>
<path d="M141.519 13.8919L139.585 13.8257L138.486 45.9268L140.42 45.9931L141.519 13.8919Z" fill="black"/>
<path d="M149.256 14.157L147.322 14.0907L146.222 46.1918L148.157 46.2581L149.256 14.157Z" fill="black"/>
<path d="M155.059 14.3557L151.191 14.2232L150.091 46.3243L153.96 46.4568L155.059 14.3557Z" fill="black"/>
<path d="M162.796 14.6207L160.862 14.5545L159.763 46.6556L161.697 46.7219L162.796 14.6207Z" fill="black"/>
<path d="M172.467 14.952L170.533 14.8857L169.434 46.9869L171.368 47.0531L172.467 14.952Z" fill="black"/>
<path d="M178.271 15.1508L174.403 15.0183L173.303 47.1194L177.172 47.2519L178.271 15.1508Z" fill="black"/>
<path d="M186.008 15.4158L182.14 15.2833L181.04 47.3844L184.909 47.5169L186.008 15.4158Z" fill="black"/>
<path d="M197.614 15.8133L191.811 15.6145L190.711 47.7157L196.514 47.9144L197.614 15.8133Z" fill="black"/>
<path d="M201.483 15.9458L199.548 15.8796L198.449 47.9807L200.383 48.047L201.483 15.9458Z" fill="black"/>
<path d="M207.285 16.1446L203.416 16.0121L202.317 48.1132L206.185 48.2457L207.285 16.1446Z" fill="black"/>
</svg>
