<svg width="1444" height="156" viewBox="0 0 1444 156" fill="none" xmlns="http://www.w3.org/2000/svg">
<g clip-path="url(#clip0_317:423)">
<path d="M1486.62 51.0863L-7.30884 50.4596L-7.32897 98.4596L1486.6 99.0863L1486.62 51.0863Z" fill="#A9E9F5"/>
<path d="M1419.29 59.0581L1414.89 59.0561L1414.88 91.2214L1419.27 91.2234L1419.29 59.0581Z" fill="black"/>
<path d="M1423.06 59.0596L1421.17 59.0591L1421.16 91.2243L1423.05 91.2248L1423.06 59.0596Z" fill="black"/>
<path d="M1428.08 59.0618L1426.2 59.0608L1426.18 91.2264L1428.07 91.227L1428.08 59.0618Z" fill="black"/>
<path d="M1437.51 59.0656L1434.99 59.0648L1434.97 91.2301L1437.48 91.2312L1437.51 59.0656Z" fill="black"/>
<path d="M1445.81 59.0691L1439.63 59.0664L1439.61 91.1864L1445.8 91.189L1445.81 59.0691Z" fill="black"/>
<path d="M939.972 58.857L935.575 58.8552L935.562 91.0204L939.958 91.0223L939.972 58.857Z" fill="black"/>
<path d="M943.741 58.8586L941.857 58.8578L941.844 91.0231L943.728 91.0239L943.741 58.8586Z" fill="black"/>
<path d="M948.765 58.8607L946.881 58.8599L946.867 91.0252L948.752 91.026L948.765 58.8607Z" fill="black"/>
<path d="M958.187 58.8646L955.674 58.8636L955.661 91.0289L958.173 91.03L958.187 58.8646Z" fill="black"/>
<path d="M966.491 58.8681L960.309 58.8655L960.295 90.9855L966.478 90.988L966.491 58.8681Z" fill="black"/>
<path d="M972.674 58.8706L968.551 58.8689L968.539 90.9889L972.66 90.9907L972.674 58.8706Z" fill="black"/>
<path d="M979.888 58.8737L977.827 58.8729L977.814 90.9928L979.875 90.9936L979.888 58.8737Z" fill="black"/>
<path d="M984.011 58.8754L981.949 58.8746L981.935 90.9946L983.997 90.9955L984.011 58.8754Z" fill="black"/>
<path d="M993.285 58.8793L990.193 58.8781L990.18 90.998L993.272 90.9993L993.285 58.8793Z" fill="black"/>
<path d="M1001.38 58.8827L999.444 58.8819L999.43 91.0019L1001.37 91.0027L1001.38 58.8827Z" fill="black"/>
<path d="M1007.19 58.8852L1003.31 58.8836L1003.3 91.0036L1007.17 91.0051L1007.19 58.8852Z" fill="black"/>
<path d="M1018.8 58.8899L1012.99 58.8877L1012.97 91.0077L1018.79 91.0099L1018.8 58.8899Z" fill="black"/>
<path d="M1022.66 58.8918L1020.73 58.8908L1020.72 91.0109L1022.65 91.0118L1022.66 58.8918Z" fill="black"/>
<path d="M1032.34 58.8958L1028.48 58.8939L1028.46 91.014L1032.34 91.0156L1032.34 58.8958Z" fill="black"/>
<path d="M1036.21 58.8975L1034.28 58.8965L1034.27 91.0165L1036.2 91.0175L1036.21 58.8975Z" fill="black"/>
<path d="M1045.9 58.9013L1042.03 58.8996L1042.01 91.0197L1045.88 91.0213L1045.9 58.9013Z" fill="black"/>
<path d="M1053.63 58.9048L1051.7 58.9038L1051.69 91.0237L1053.62 91.0247L1053.63 58.9048Z" fill="black"/>
<path d="M1061.38 58.9079L1055.57 58.9054L1055.56 91.0254L1061.36 91.0279L1061.38 58.9079Z" fill="black"/>
<path d="M1065.25 58.9095L1063.31 58.9088L1063.29 91.0289L1065.24 91.0294L1065.25 58.9095Z" fill="black"/>
<path d="M1074.92 58.9135L1071.05 58.912L1071.04 91.032L1074.91 91.0336L1074.92 58.9135Z" fill="black"/>
<path d="M1082.67 58.9168L1076.86 58.9145L1076.84 91.0345L1082.66 91.0367L1082.67 58.9168Z" fill="black"/>
<path d="M1086.54 58.9183L1084.6 58.9177L1084.59 91.0377L1086.53 91.0383L1086.54 58.9183Z" fill="black"/>
<path d="M1090.4 58.9202L1088.47 58.9192L1088.46 91.0392L1090.39 91.0402L1090.4 58.9202Z" fill="black"/>
<path d="M1100.08 58.9243L1096.22 58.9224L1096.2 91.0424L1100.07 91.0443L1100.08 58.9243Z" fill="black"/>
<path d="M1107.82 58.9275L1105.89 58.9265L1105.88 91.0465L1107.81 91.0474L1107.82 58.9275Z" fill="black"/>
<path d="M1115.57 58.9306L1113.63 58.93L1113.62 91.0497L1115.55 91.0506L1115.57 58.9306Z" fill="black"/>
<path d="M1121.37 58.9332L1117.5 58.9316L1117.49 91.0516L1121.36 91.0531L1121.37 58.9332Z" fill="black"/>
<path d="M1129.12 58.9363L1127.18 58.9357L1127.17 91.0554L1129.1 91.0563L1129.12 58.9363Z" fill="black"/>
<path d="M1138.79 58.9404L1136.86 58.9395L1136.85 91.0594L1138.78 91.0604L1138.79 58.9404Z" fill="black"/>
<path d="M1144.6 58.9429L1140.73 58.941L1140.72 91.0611L1144.58 91.063L1144.6 58.9429Z" fill="black"/>
<path d="M1152.34 58.9461L1148.47 58.9445L1148.45 91.0645L1152.33 91.0661L1152.34 58.9461Z" fill="black"/>
<path d="M1163.96 58.9509L1158.14 58.9486L1158.13 91.0686L1163.94 91.0708L1163.96 58.9509Z" fill="black"/>
<path d="M1167.83 58.9524L1165.89 58.9518L1165.87 91.0718L1167.82 91.0724L1167.83 58.9524Z" fill="black"/>
<path d="M1173.63 58.9549L1169.76 58.9533L1169.75 91.0734L1173.62 91.0749L1173.63 58.9549Z" fill="black"/>
<path d="M457.158 58.6544L452.761 58.6525L452.748 90.8179L457.144 90.8197L457.158 58.6544Z" fill="black"/>
<path d="M460.927 58.656L459.042 58.6553L459.029 90.8205L460.913 90.8213L460.927 58.656Z" fill="black"/>
<path d="M465.951 58.6582L464.067 58.6574L464.052 90.8226L465.938 90.8234L465.951 58.6582Z" fill="black"/>
<path d="M475.372 58.6621L472.86 58.661L472.847 90.8263L475.359 90.8274L475.372 58.6621Z" fill="black"/>
<path d="M483.677 58.6656L477.494 58.663L477.481 90.7829L483.663 90.7855L483.677 58.6656Z" fill="black"/>
<path d="M489.86 58.6681L485.738 58.6664L485.724 90.7863L489.846 90.7882L489.86 58.6681Z" fill="black"/>
<path d="M497.074 58.6712L495.013 58.6703L494.999 90.7903L497.06 90.7911L497.074 58.6712Z" fill="black"/>
<path d="M501.197 58.6729L499.135 58.672L499.121 90.792L501.183 90.7928L501.197 58.6729Z" fill="black"/>
<path d="M510.471 58.6768L507.379 58.6755L507.366 90.7954L510.457 90.7967L510.471 58.6768Z" fill="black"/>
<path d="M518.565 58.6802L516.629 58.6794L516.616 90.7994L518.551 90.8002L518.565 58.6802Z" fill="black"/>
<path d="M524.371 58.6826L520.5 58.681L520.487 90.801L524.357 90.8026L524.371 58.6826Z" fill="black"/>
<path d="M535.983 58.6876L530.177 58.6851L530.164 90.805L535.97 90.8075L535.983 58.6876Z" fill="black"/>
<path d="M539.853 58.6891L537.918 58.6883L537.905 90.8082L539.84 90.8091L539.853 58.6891Z" fill="black"/>
<path d="M549.531 58.6931L545.66 58.6916L545.646 90.8115L549.517 90.8132L549.531 58.6931Z" fill="black"/>
<path d="M553.401 58.6948L551.466 58.694L551.453 90.8139L553.388 90.8148L553.401 58.6948Z" fill="black"/>
<path d="M563.079 58.6988L559.209 58.6972L559.195 90.8171L563.066 90.8189L563.079 58.6988Z" fill="black"/>
<path d="M570.82 58.7021L568.885 58.7013L568.871 90.8213L570.807 90.8221L570.82 58.7021Z" fill="black"/>
<path d="M578.562 58.7054L572.757 58.7029L572.743 90.8229L578.549 90.8253L578.562 58.7054Z" fill="black"/>
<path d="M582.433 58.707L580.497 58.7062L580.484 90.8261L582.419 90.827L582.433 58.707Z" fill="black"/>
<path d="M592.11 58.711L588.239 58.7094L588.226 90.8293L592.096 90.831L592.11 58.711Z" fill="black"/>
<path d="M599.851 58.7143L594.045 58.7119L594.032 90.8318L599.839 90.8343L599.851 58.7143Z" fill="black"/>
<path d="M603.723 58.716L601.788 58.7151L601.774 90.835L603.71 90.8359L603.723 58.716Z" fill="black"/>
<path d="M607.592 58.7175L605.657 58.7168L605.644 90.8367L607.579 90.8375L607.592 58.7175Z" fill="black"/>
<path d="M617.27 58.7216L613.399 58.72L613.385 90.8399L617.257 90.8415L617.27 58.7216Z" fill="black"/>
<path d="M625.012 58.7249L623.077 58.724L623.063 90.844L624.998 90.8448L625.012 58.7249Z" fill="black"/>
<path d="M632.754 58.7281L630.819 58.7273L630.805 90.8472L632.74 90.8481L632.754 58.7281Z" fill="black"/>
<path d="M638.56 58.7305L634.689 58.7289L634.676 90.8489L638.546 90.8505L638.56 58.7305Z" fill="black"/>
<path d="M646.302 58.7337L644.366 58.733L644.353 90.8529L646.288 90.8538L646.302 58.7337Z" fill="black"/>
<path d="M655.978 58.7378L654.043 58.737L654.029 90.857L655.964 90.8578L655.978 58.7378Z" fill="black"/>
<path d="M661.786 58.7403L657.915 58.7387L657.902 90.8586L661.772 90.8602L661.786 58.7403Z" fill="black"/>
<path d="M669.527 58.7435L665.656 58.7419L665.642 90.8618L669.513 90.8634L669.527 58.7435Z" fill="black"/>
<path d="M681.139 58.7484L675.333 58.746L675.32 90.8659L681.125 90.8684L681.139 58.7484Z" fill="black"/>
<path d="M685.01 58.75L683.075 58.7492L683.061 90.8691L684.996 90.87L685.01 58.75Z" fill="black"/>
<path d="M690.816 58.7525L686.946 58.7508L686.932 90.8708L690.803 90.8724L690.816 58.7525Z" fill="black"/>
<path d="M0.862974 58.463L-5.32027 58.4604L-5.33374 90.5804L0.8495 90.583L0.862974 58.463Z" fill="black"/>
<path d="M7.04518 58.4656L2.92303 58.4639L2.90954 90.5838L7.03171 90.5855L7.04518 58.4656Z" fill="black"/>
<path d="M14.2596 58.4686L12.1985 58.4678L12.1851 90.5877L14.2462 90.5886L14.2596 58.4686Z" fill="black"/>
<path d="M18.3819 58.4704L16.3208 58.4695L16.3074 90.5895L18.3684 90.5903L18.3819 58.4704Z" fill="black"/>
<path d="M27.6567 58.4743L24.5651 58.473L24.5516 90.5929L27.6432 90.5942L27.6567 58.4743Z" fill="black"/>
<path d="M35.7503 58.4777L33.8149 58.4768L33.8014 90.5968L35.7368 90.5976L35.7503 58.4777Z" fill="black"/>
<path d="M41.5567 58.4801L37.6858 58.4784L37.6724 90.5985L41.5431 90.6001L41.5567 58.4801Z" fill="black"/>
<path d="M53.1688 58.4849L47.3626 58.4825L47.3491 90.6025L53.1554 90.6049L53.1688 58.4849Z" fill="black"/>
<path d="M57.0394 58.4865L55.104 58.4858L55.0906 90.6057L57.0259 90.6066L57.0394 58.4865Z" fill="black"/>
<path d="M66.7162 58.4906L62.8453 58.489L62.8319 90.6089L66.7027 90.6106L66.7162 58.4906Z" fill="black"/>
<path d="M70.5874 58.4923L68.652 58.4915L68.6385 90.6114L70.574 90.6123L70.5874 58.4923Z" fill="black"/>
<path d="M80.2649 58.4963L76.3941 58.4947L76.3806 90.6146L80.2515 90.6162L80.2649 58.4963Z" fill="black"/>
<path d="M88.0062 58.4996L86.0708 58.4988L86.0574 90.6187L87.9928 90.6196L88.0062 58.4996Z" fill="black"/>
<path d="M95.7481 58.5029L89.9419 58.5004L89.9283 90.6203L95.7345 90.6228L95.7481 58.5029Z" fill="black"/>
<path d="M99.6185 58.5044L97.6831 58.5037L97.6697 90.6236L99.605 90.6244L99.6185 58.5044Z" fill="black"/>
<path d="M109.295 58.5085L105.425 58.5069L105.411 90.6268L109.282 90.6284L109.295 58.5085Z" fill="black"/>
<path d="M117.037 58.5117L111.231 58.5093L111.217 90.6293L117.024 90.6318L117.037 58.5117Z" fill="black"/>
<path d="M120.909 58.5134L118.974 58.5125L118.96 90.6325L120.895 90.6334L120.909 58.5134Z" fill="black"/>
<path d="M124.778 58.515L122.843 58.5142L122.829 90.6342L124.765 90.6349L124.778 58.515Z" fill="black"/>
<path d="M134.456 58.5191L130.584 58.5175L130.572 90.6374L134.442 90.639L134.456 58.5191Z" fill="black"/>
<path d="M142.197 58.5223L140.262 58.5215L140.249 90.6414L142.184 90.6423L142.197 58.5223Z" fill="black"/>
<path d="M149.939 58.5256L148.004 58.5248L147.99 90.6447L149.926 90.6455L149.939 58.5256Z" fill="black"/>
<path d="M155.745 58.528L151.875 58.5264L151.861 90.6463L155.732 90.6479L155.745 58.528Z" fill="black"/>
<path d="M163.487 58.5312L161.552 58.5305L161.539 90.6504L163.474 90.6512L163.487 58.5312Z" fill="black"/>
<path d="M173.163 58.5353L171.228 58.5345L171.215 90.6545L173.15 90.6552L173.163 58.5353Z" fill="black"/>
<path d="M178.971 58.5378L175.1 58.5361L175.087 90.6561L178.958 90.6577L178.971 58.5378Z" fill="black"/>
<path d="M186.712 58.541L182.842 58.5394L182.828 90.6593L186.699 90.6609L186.712 58.541Z" fill="black"/>
<path d="M198.325 58.5458L192.519 58.5434L192.505 90.6634L198.311 90.6658L198.325 58.5458Z" fill="black"/>
<path d="M202.196 58.5474L200.26 58.5467L200.247 90.6666L202.182 90.6675L202.196 58.5474Z" fill="black"/>
<path d="M208.002 58.5499L204.131 58.5483L204.118 90.6682L207.988 90.6699L208.002 58.5499Z" fill="black"/>
</g>
<defs>
<clipPath id="clip0_317:423">
<rect width="1440" height="106" fill="white" transform="translate(0.289429 49.4236) rotate(-1.93773)"/>
</clipPath>
</defs>
</svg>
