<svg width="341" height="341" viewBox="0 0 341 341" fill="none" xmlns="http://www.w3.org/2000/svg">
<g filter="url(#filter0_d_698:8500)">
<circle cx="170.5" cy="166.5" r="147.5" transform="rotate(180 170.5 166.5)" fill="#F4B5C2" stroke="#E63D25" stroke-width="6"/>
<mask id="path-2-inside-1_698:8500" fill="white">
<path d="M63.4099 235.614C49.9414 214.745 42.8638 190.396 43.0473 165.559C43.2307 140.722 50.667 116.479 64.4422 95.8116L67.0455 97.5466C53.6084 117.707 46.3545 141.354 46.1756 165.582C45.9967 189.809 52.9005 213.561 66.0385 233.918L63.4099 235.614Z"/>
</mask>
<path d="M63.4099 235.614C49.9414 214.745 42.8638 190.396 43.0473 165.559C43.2307 140.722 50.667 116.479 64.4422 95.8116L67.0455 97.5466C53.6084 117.707 46.3545 141.354 46.1756 165.582C45.9967 189.809 52.9005 213.561 66.0385 233.918L63.4099 235.614Z" fill="#F4B5C2" stroke="#E63D25" stroke-width="4.1115" mask="url(#path-2-inside-1_698:8500)"/>
<mask id="path-3-inside-2_698:8500" fill="white">
<path d="M277.59 235.614C291.059 214.745 298.136 190.396 297.953 165.559C297.769 140.722 290.333 116.479 276.558 95.8116L273.955 97.5466C287.392 117.707 294.645 141.354 294.824 165.582C295.003 189.809 288.099 213.561 274.962 233.918L277.59 235.614Z"/>
</mask>
<path d="M277.59 235.614C291.059 214.745 298.136 190.396 297.953 165.559C297.769 140.722 290.333 116.479 276.558 95.8116L273.955 97.5466C287.392 117.707 294.645 141.354 294.824 165.582C295.003 189.809 288.099 213.561 274.962 233.918L277.59 235.614Z" fill="#F4B5C2" stroke="#E63D25" stroke-width="4.1115" mask="url(#path-3-inside-2_698:8500)"/>
<path d="M255.455 242.744C256.555 244.018 257.77 245.912 259.099 248.425L260.27 250.64L255.174 254.836C253.972 255.826 252.975 256.566 252.2 257.02L254.092 260.598C254.585 260.049 255.517 259.221 256.893 258.087L261.989 253.891L263.895 257.498L257.448 262.807C256.37 263.695 255.517 264.336 254.906 264.696C254.296 265.057 253.777 265.219 253.339 265.233L257.23 270.507L271.798 258.51C270.68 257.27 269.445 255.373 268.086 252.803L263.778 244.653C262.419 242.083 261.507 239.92 261.034 238.149L255.455 242.744Z" fill="#E63D25"/>
<path d="M227.209 263.261C225.21 265.366 224.291 267.675 224.2 270.092C224.165 271.285 224.346 272.469 224.745 273.606C225.144 274.742 225.72 275.71 226.446 276.487C227.927 278.025 229.902 278.769 232.516 278.368C233.82 278.16 235.191 277.663 236.628 276.877C238.065 276.09 239.287 275.169 240.293 274.112C242.3 271.984 243.2 269.667 243.282 267.274C243.331 266.073 243.15 264.889 242.751 263.753C242.352 262.616 241.782 261.663 241.041 260.894C239.574 259.348 237.594 258.589 234.986 259.005C233.676 259.198 232.305 259.695 230.868 260.481C229.431 261.268 228.209 262.189 227.209 263.261ZM235.603 263.87C236.671 264.28 237.424 265.132 237.876 266.42C238.329 267.708 238.326 268.992 237.844 270.25C237.362 271.507 236.519 272.456 235.308 273.119C234.096 273.782 232.966 273.912 231.898 273.503C230.845 273.086 230.087 272.218 229.634 270.93C229.182 269.642 229.189 268.373 229.657 267.124C230.14 265.866 230.977 264.902 232.188 264.239C233.4 263.576 234.535 263.461 235.603 263.87Z" fill="#E63D25"/>
<path d="M208.452 271.497C209.263 273.154 209.983 275.336 210.604 278.011L212.691 286.99C213.313 289.665 213.64 291.989 213.665 293.93L220.4 291.492C219.627 289.924 218.922 287.737 218.279 284.968L216.192 275.988C215.548 273.219 215.206 270.901 215.188 269.059L208.452 271.497Z" fill="#E63D25"/>
<path d="M194.536 275.565C195.224 277.293 195.78 279.53 196.2 282.244L197.607 291.355C198.026 294.069 198.176 296.403 198.052 298.326L205.016 296.65C204.359 295.014 203.818 292.774 203.384 289.964L201.977 280.854C201.543 278.044 201.377 275.714 201.501 273.89L194.536 275.565Z" fill="#E63D25"/>
<path d="M173.556 278.659C170.988 279.752 169.415 281.479 168.618 283.647C168.236 284.722 168.066 285.878 168.123 287.081C168.181 288.284 168.459 289.406 168.941 290.417C169.938 292.436 171.649 293.935 174.319 294.654C175.654 295.005 177.138 295.12 178.772 294.999C180.406 294.877 181.868 294.543 183.16 293.996C185.743 292.886 187.3 291.145 188.081 288.994C188.48 287.918 188.65 286.762 188.592 285.559C188.535 284.356 188.257 283.249 187.759 282.24C186.778 280.22 185.066 278.705 182.397 278.002C181.061 277.634 179.577 277.519 177.943 277.641C176.31 277.762 174.847 278.097 173.556 278.659ZM181.576 282.7C182.499 283.516 182.985 284.607 183.05 285.971C183.116 287.334 182.737 288.506 181.899 289.453C181.06 290.401 179.959 290.918 178.582 291.02C177.205 291.123 176.063 290.773 175.14 289.956C174.233 289.138 173.746 288.031 173.681 286.668C173.616 285.304 173.995 284.149 174.817 283.202C175.656 282.254 176.756 281.722 178.133 281.619C179.511 281.517 180.653 281.883 181.576 282.7Z" fill="#E63D25"/>
<path d="M150.926 277.161L146.63 286.211L146.266 286.148L144.089 275.978L136.382 274.645C136.296 275.996 135.862 277.727 135.078 279.853L132.711 285.333C132.02 287.198 131.21 288.831 130.294 290.251L137.035 291.417C137.136 290.507 137.412 289.335 137.846 287.897L140.225 282.305C140.479 281.617 140.676 281.147 140.803 280.876L141.135 280.933L143.54 292.542L147.828 293.284L152.676 282.897L152.992 282.952C153.16 283.908 153.263 284.431 153.284 284.532L154.273 290.739C154.43 292.084 154.455 293.308 154.333 294.41L161.138 295.587C160.648 294.331 160.24 292.487 159.883 290.034L158.744 283.882C158.604 282.963 158.533 282.007 158.514 281.011C158.496 280.016 158.541 279.178 158.648 278.497L150.926 277.161Z" fill="#E63D25"/>
<path d="M106.072 260.314C103.063 258.621 100.416 258.114 98.153 258.786C95.9036 259.465 94.2346 261.289 93.16 264.265L90.8908 270.549C89.9036 273.283 88.9416 275.341 87.9994 276.737L94.3126 280.288C94.5572 278.445 95.1747 276.175 96.1402 273.501L97.8748 268.698C98.4475 267.111 99.2782 266.07 100.353 265.566C101.441 265.07 102.655 265.207 103.999 265.963C105.329 266.711 106.187 267.739 106.596 269.078C107.005 270.416 106.93 271.883 106.358 273.469L104.623 278.273C103.609 281.082 102.675 283.156 101.802 284.5L108.101 288.043C108.271 286.358 108.87 284.096 109.9 281.241L112.17 274.957C113.299 271.83 113.169 268.831 112.001 266.375C110.839 263.904 108.816 261.857 106.072 260.314Z" fill="#E63D25"/>
<path d="M83.6701 243.688C81.5847 241.926 79.7233 240.971 78.0984 240.833C76.4735 240.695 75.2644 241.341 74.4756 242.795C71.5272 248.23 81.8365 253.565 80.5805 255.88C80.1517 256.671 78.8823 256.34 77.263 254.971C76.2816 254.142 75.3768 253.172 74.5685 252.056C73.7602 250.941 73.1635 249.963 72.7538 249.102L70.5866 253.097C71.9135 255.433 73.5561 257.418 75.5066 259.067C77.5062 260.756 79.2816 261.639 80.8575 261.735C82.4333 261.831 83.5597 261.239 84.2566 259.954C85.7576 257.187 83.9139 254.518 81.8512 252.219C79.8008 249.93 77.5436 248.023 78.2252 246.767C78.7153 245.863 79.9295 246.23 81.8555 247.858C82.7755 248.635 83.7509 249.706 84.7862 251.096C85.8337 252.496 86.6467 253.8 87.2374 255.02L89.6038 250.658C89.0102 249.642 88.1114 248.429 86.9151 247.007C85.7112 245.598 84.627 244.497 83.6701 243.688Z" fill="#E63D25"/>
<path d="M81.4336 90.2564C80.3329 88.9822 79.1182 87.0885 77.7896 84.5753L76.6186 82.3604L81.7141 78.1642C82.9166 77.1738 83.9137 76.4342 84.6879 75.9801L82.7963 72.402C82.3034 72.9507 81.3713 73.7794 79.9951 74.9127L74.8997 79.1089L72.9932 75.5025L79.4399 70.1934C80.5185 69.3052 81.3717 68.6637 81.9821 68.3036C82.5925 67.9436 83.1116 67.781 83.5492 67.7672L79.658 62.4936L65.0907 74.4901C66.2087 75.7297 67.4433 77.6273 68.8019 80.1973L73.1105 88.3472C74.4691 90.9172 75.3813 93.0803 75.8546 94.8508L81.4336 90.2564Z" fill="#E63D25"/>
<path d="M109.68 69.739C111.678 67.6338 112.597 65.3244 112.689 62.9077C112.723 61.7146 112.542 60.5308 112.143 59.3944C111.744 58.2579 111.169 57.29 110.442 56.5133C108.961 54.9751 106.987 54.2311 104.373 54.6318C103.068 54.8397 101.697 55.3369 100.26 56.1232C98.8233 56.9096 97.6016 57.831 96.5953 58.8875C94.5882 61.0156 93.6887 63.3324 93.6058 65.7263C93.5574 66.9271 93.7381 68.1109 94.1373 69.2473C94.5365 70.3838 95.1064 71.3365 95.8469 72.1056C97.3138 73.6514 99.2939 74.4106 101.903 73.9948C103.212 73.802 104.583 73.3048 106.02 72.5185C107.457 71.7321 108.679 70.8106 109.68 69.739ZM101.285 69.1297C100.218 68.7203 99.4646 67.8678 99.0121 66.5798C98.5596 65.2918 98.5621 64.0078 99.0442 62.7504C99.5263 61.4929 100.369 60.5441 101.581 59.8811C102.792 59.2181 103.922 59.0875 104.99 59.4969C106.043 59.914 106.802 60.7816 107.254 62.0696C107.707 63.3576 107.699 64.6265 107.231 65.8762C106.749 67.1336 105.912 68.0976 104.7 68.7606C103.488 69.4236 102.353 69.539 101.285 69.1297Z" fill="#E63D25"/>
<path d="M128.436 61.5027C127.625 59.8458 126.906 57.6642 126.284 54.9891L124.197 46.0096C123.576 43.3345 123.249 41.0108 123.223 39.0696L116.488 41.5075C117.262 43.076 117.966 45.2631 118.61 48.0321L120.696 57.0116C121.34 59.7805 121.682 62.0988 121.701 63.9406L128.436 61.5027Z" fill="#E63D25"/>
<path d="M142.352 57.4347C141.664 55.7071 141.108 53.4703 140.689 50.7562L139.281 41.6455C138.862 38.9313 138.712 36.5969 138.836 34.6739L131.872 36.3495C132.529 37.9857 133.07 40.2262 133.504 43.0356L134.911 52.1463C135.345 54.9557 135.511 57.2864 135.388 59.1104L142.352 57.4347Z" fill="#E63D25"/>
<path d="M163.333 54.3404C165.9 53.2479 167.473 51.521 168.27 49.3527C168.653 48.2778 168.823 47.1222 168.765 45.919C168.708 44.7158 168.429 43.5935 167.947 42.5829C166.95 40.5641 165.239 39.0653 162.569 38.3463C161.234 37.9947 159.75 37.8797 158.116 38.0012C156.483 38.1227 155.02 38.4569 153.728 39.0037C151.145 40.1135 149.589 41.8552 148.807 44.0062C148.409 45.0823 148.239 46.238 148.296 47.4412C148.354 48.6444 148.632 49.7506 149.13 50.76C150.11 52.78 151.822 54.2948 154.492 54.9979C155.827 55.3654 157.311 55.4804 158.945 55.359C160.579 55.2375 162.041 54.9033 163.333 54.3404ZM155.312 50.3003C154.389 49.4835 153.903 48.3927 153.838 47.0291C153.773 45.6655 154.151 44.4943 154.99 43.5465C155.828 42.5986 156.929 42.0821 158.306 41.9797C159.684 41.8773 160.825 42.227 161.749 43.0438C162.656 43.8619 163.142 44.9687 163.207 46.3323C163.273 47.6959 162.894 48.851 162.071 49.7976C161.232 50.7455 160.132 51.278 158.755 51.3805C157.378 51.4829 156.235 51.1171 155.312 50.3003Z" fill="#E63D25"/>
<path d="M185.963 55.8394L190.258 46.7886L190.622 46.8515L192.799 57.0221L200.506 58.3554C200.592 57.0036 201.026 55.2729 201.81 53.1472L204.177 47.6672C204.868 45.8019 205.679 44.1688 206.594 42.7491L199.853 41.5828C199.752 42.4927 199.476 43.6652 199.042 45.1032L196.663 50.6949C196.409 51.3831 196.212 51.8533 196.085 52.1242L195.753 52.0667L193.349 40.4576L189.06 39.7157L184.213 50.1028L183.896 50.048C183.728 49.0916 183.625 48.5694 183.604 48.4682L182.616 42.2614C182.459 40.9164 182.433 39.6919 182.556 38.5905L175.751 37.4132C176.24 38.6693 176.648 40.5132 177.005 42.9665L178.144 49.1181C178.284 50.0371 178.355 50.993 178.374 51.9886C178.392 52.9842 178.348 53.8225 178.24 54.5034L185.963 55.8394Z" fill="#E63D25"/>
<path d="M230.816 72.6859C233.826 74.3787 236.472 74.8857 238.735 74.2142C240.985 73.5348 242.654 71.7111 243.728 68.7352L245.997 62.4512C246.985 59.717 247.947 57.6592 248.889 56.2627L242.576 52.7118C242.331 54.5552 241.714 56.8249 240.748 59.4987L239.014 64.3023C238.441 65.8884 237.61 66.9296 236.535 67.4338C235.447 67.9301 234.233 67.7928 232.889 67.0369C231.56 66.289 230.701 65.261 230.292 63.9223C229.883 62.5835 229.958 61.1172 230.531 59.531L232.265 54.7274C233.28 51.9177 234.214 49.8441 235.087 48.4995L228.787 44.9565C228.617 46.6416 228.019 48.9041 226.988 51.7591L224.719 58.0431C223.59 61.17 223.719 64.169 224.887 66.625C226.049 69.0962 228.072 71.1427 230.816 72.6859Z" fill="#E63D25"/>
<path d="M253.218 89.3119C255.304 91.0741 257.165 92.0293 258.79 92.167C260.415 92.3047 261.624 91.6588 262.413 90.2047C265.361 84.7696 255.052 79.4348 256.308 77.1196C256.737 76.3291 258.006 76.6605 259.625 78.0288C260.607 78.8581 261.511 79.8285 262.32 80.9439C263.128 82.0592 263.725 83.037 264.134 83.8978L266.302 79.9027C264.975 77.5667 263.332 75.5817 261.382 73.9336C259.382 72.2439 257.607 71.3613 256.031 71.2651C254.455 71.1688 253.329 71.7611 252.632 73.0458C251.131 75.8127 252.974 78.4824 255.037 80.7812C257.088 83.0697 259.345 84.977 258.663 86.2334C258.173 87.1369 256.959 86.7698 255.033 85.1423C254.113 84.3649 253.137 83.2937 252.102 81.9041C251.055 80.5043 250.242 79.1996 249.651 77.9799L247.284 82.3421C247.878 83.3585 248.777 84.5709 249.973 85.9935C251.177 87.4019 252.261 88.5034 253.218 89.3119Z" fill="#E63D25"/>
<path d="M170.616 150.127C161.537 150.127 154.128 157.536 154.128 166.615C154.128 175.694 161.537 183.103 170.616 183.103C179.694 183.103 187.104 175.694 187.104 166.615C187.104 157.536 179.694 150.127 170.616 150.127ZM220.067 166.615C220.067 159.787 220.129 153.022 219.745 146.206C219.362 138.29 217.556 131.264 211.767 125.476C205.966 119.675 198.953 117.881 191.037 117.498C184.209 117.114 177.443 117.176 170.628 117.176C163.8 117.176 157.034 117.114 150.219 117.498C142.303 117.881 135.277 119.687 129.489 125.476C123.688 131.277 121.894 138.29 121.511 146.206C121.127 153.034 121.189 159.8 121.189 166.615C121.189 173.431 121.127 180.209 121.511 187.024C121.894 194.94 123.7 201.966 129.489 207.755C135.29 213.556 142.303 215.349 150.219 215.733C157.047 216.116 163.813 216.054 170.628 216.054C177.456 216.054 184.222 216.116 191.037 215.733C198.953 215.349 205.979 213.543 211.767 207.755C217.568 201.953 219.362 194.94 219.745 187.024C220.141 180.209 220.067 173.443 220.067 166.615ZM170.616 191.984C156.577 191.984 145.247 180.654 145.247 166.615C145.247 152.576 156.577 141.246 170.616 141.246C184.654 141.246 195.985 152.576 195.985 166.615C195.985 180.654 184.654 191.984 170.616 191.984ZM197.024 146.132C193.746 146.132 191.099 143.485 191.099 140.207C191.099 136.93 193.746 134.283 197.024 134.283C200.301 134.283 202.948 136.93 202.948 140.207C202.949 140.986 202.797 141.756 202.499 142.476C202.202 143.195 201.765 143.849 201.215 144.399C200.665 144.949 200.011 145.386 199.292 145.683C198.573 145.98 197.802 146.133 197.024 146.132Z" fill="#E63D25"/>
</g>
<defs>
<filter id="filter0_d_698:8500" x="0" y="0" width="341" height="341" filterUnits="userSpaceOnUse" color-interpolation-filters="sRGB">
<feFlood flood-opacity="0" result="BackgroundImageFix"/>
<feColorMatrix in="SourceAlpha" type="matrix" values="0 0 0 0 0 0 0 0 0 0 0 0 0 0 0 0 0 0 127 0" result="hardAlpha"/>
<feOffset dy="4"/>
<feGaussianBlur stdDeviation="10"/>
<feComposite in2="hardAlpha" operator="out"/>
<feColorMatrix type="matrix" values="0 0 0 0 0 0 0 0 0 0 0 0 0 0 0 0 0 0 0.25 0"/>
<feBlend mode="normal" in2="BackgroundImageFix" result="effect1_dropShadow_698:8500"/>
<feBlend mode="normal" in="SourceGraphic" in2="effect1_dropShadow_698:8500" result="shape"/>
</filter>
</defs>
</svg>
