<svg width="301" height="301" viewBox="0 0 301 301" fill="none" xmlns="http://www.w3.org/2000/svg">
<circle cx="150.5" cy="150.5" r="147.5" transform="rotate(180 150.5 150.5)" fill="#F4B5C2" stroke="#E63D25" stroke-width="6"/>
<mask id="path-2-inside-1_1353:3880" fill="white">
<path d="M43.4099 219.614C29.9414 198.745 22.8638 174.396 23.0473 149.559C23.2307 124.722 30.667 100.479 44.4422 79.8116L47.0455 81.5466C33.6084 101.707 26.3545 125.354 26.1756 149.582C25.9967 173.809 32.9005 197.561 46.0385 217.918L43.4099 219.614Z"/>
</mask>
<path d="M43.4099 219.614C29.9414 198.745 22.8638 174.396 23.0473 149.559C23.2307 124.722 30.667 100.479 44.4422 79.8116L47.0455 81.5466C33.6084 101.707 26.3545 125.354 26.1756 149.582C25.9967 173.809 32.9005 197.561 46.0385 217.918L43.4099 219.614Z" fill="#F4B5C2" stroke="#E63D25" stroke-width="4.1115" mask="url(#path-2-inside-1_1353:3880)"/>
<mask id="path-3-inside-2_1353:3880" fill="white">
<path d="M257.59 219.614C271.059 198.745 278.136 174.396 277.953 149.559C277.769 124.722 270.333 100.479 256.558 79.8116L253.955 81.5466C267.392 101.707 274.645 125.354 274.824 149.582C275.003 173.809 268.099 197.561 254.962 217.918L257.59 219.614Z"/>
</mask>
<path d="M257.59 219.614C271.059 198.745 278.136 174.396 277.953 149.559C277.769 124.722 270.333 100.479 256.558 79.8116L253.955 81.5466C267.392 101.707 274.645 125.354 274.824 149.582C275.003 173.809 268.099 197.561 254.962 217.918L257.59 219.614Z" fill="#F4B5C2" stroke="#E63D25" stroke-width="4.1115" mask="url(#path-3-inside-2_1353:3880)"/>
<path d="M235.455 226.744C236.555 228.018 237.77 229.912 239.099 232.425L240.27 234.64L235.174 238.836C233.972 239.826 232.975 240.566 232.2 241.02L234.092 244.598C234.585 244.049 235.517 243.221 236.893 242.087L241.989 237.891L243.895 241.498L237.448 246.807C236.37 247.695 235.517 248.336 234.906 248.696C234.296 249.057 233.777 249.219 233.339 249.233L237.23 254.507L251.798 242.51C250.68 241.27 249.445 239.373 248.086 236.803L243.778 228.653C242.419 226.083 241.507 223.92 241.034 222.149L235.455 226.744Z" fill="#E63D25"/>
<path d="M207.209 247.261C205.21 249.366 204.291 251.675 204.2 254.092C204.165 255.285 204.346 256.469 204.745 257.606C205.144 258.742 205.72 259.71 206.446 260.487C207.927 262.025 209.902 262.769 212.516 262.368C213.82 262.16 215.191 261.663 216.628 260.877C218.065 260.09 219.287 259.169 220.293 258.112C222.3 255.984 223.2 253.667 223.282 251.274C223.331 250.073 223.15 248.889 222.751 247.753C222.352 246.616 221.782 245.663 221.041 244.894C219.574 243.348 217.594 242.589 214.986 243.005C213.676 243.198 212.305 243.695 210.868 244.481C209.431 245.268 208.209 246.189 207.209 247.261ZM215.603 247.87C216.671 248.28 217.424 249.132 217.876 250.42C218.329 251.708 218.326 252.992 217.844 254.25C217.362 255.507 216.519 256.456 215.308 257.119C214.096 257.782 212.966 257.912 211.898 257.503C210.845 257.086 210.087 256.218 209.634 254.93C209.182 253.642 209.189 252.373 209.657 251.124C210.14 249.866 210.977 248.902 212.188 248.239C213.4 247.576 214.535 247.461 215.603 247.87Z" fill="#E63D25"/>
<path d="M188.452 255.497C189.263 257.154 189.983 259.336 190.604 262.011L192.691 270.99C193.313 273.665 193.64 275.989 193.665 277.93L200.4 275.492C199.627 273.924 198.922 271.737 198.279 268.968L196.192 259.988C195.548 257.219 195.206 254.901 195.188 253.059L188.452 255.497Z" fill="#E63D25"/>
<path d="M174.536 259.565C175.224 261.293 175.78 263.53 176.2 266.244L177.607 275.355C178.026 278.069 178.176 280.403 178.052 282.326L185.016 280.65C184.359 279.014 183.818 276.774 183.384 273.964L181.977 264.854C181.543 262.044 181.377 259.714 181.501 257.89L174.536 259.565Z" fill="#E63D25"/>
<path d="M153.556 262.659C150.988 263.752 149.415 265.479 148.618 267.647C148.236 268.722 148.066 269.878 148.123 271.081C148.181 272.284 148.459 273.406 148.941 274.417C149.938 276.436 151.649 277.935 154.319 278.654C155.654 279.005 157.138 279.12 158.772 278.999C160.406 278.877 161.868 278.543 163.16 277.996C165.743 276.886 167.3 275.145 168.081 272.994C168.48 271.918 168.649 270.762 168.592 269.559C168.535 268.356 168.257 267.249 167.758 266.24C166.778 264.22 165.066 262.705 162.397 262.002C161.061 261.634 159.577 261.519 157.943 261.641C156.31 261.762 154.847 262.097 153.556 262.659ZM161.576 266.7C162.499 267.516 162.985 268.607 163.05 269.971C163.115 271.334 162.737 272.506 161.899 273.453C161.06 274.401 159.959 274.918 158.582 275.02C157.205 275.123 156.063 274.773 155.14 273.956C154.233 273.138 153.746 272.031 153.681 270.668C153.616 269.304 153.995 268.149 154.817 267.202C155.656 266.254 156.756 265.722 158.133 265.619C159.511 265.517 160.653 265.883 161.576 266.7Z" fill="#E63D25"/>
<path d="M130.926 261.161L126.63 270.211L126.266 270.148L124.089 259.978L116.382 258.645C116.296 259.996 115.862 261.727 115.078 263.853L112.711 269.333C112.02 271.198 111.21 272.831 110.294 274.251L117.035 275.417C117.137 274.507 117.412 273.335 117.846 271.897L120.225 266.305C120.479 265.617 120.676 265.147 120.803 264.876L121.135 264.933L123.54 276.542L127.828 277.284L132.676 266.897L132.992 266.952C133.16 267.908 133.264 268.431 133.285 268.532L134.273 274.739C134.43 276.084 134.455 277.308 134.333 278.41L141.138 279.587C140.648 278.331 140.24 276.487 139.883 274.034L138.744 267.882C138.604 266.963 138.533 266.007 138.514 265.011C138.496 264.016 138.541 263.178 138.649 262.497L130.926 261.161Z" fill="#E63D25"/>
<path d="M86.0723 244.314C83.0627 242.621 80.4164 242.114 78.153 242.786C75.9036 243.465 74.2346 245.289 73.16 248.265L70.8908 254.549C69.9036 257.283 68.9416 259.341 67.9994 260.737L74.3126 264.288C74.5572 262.445 75.1747 260.175 76.1402 257.501L77.8748 252.698C78.4475 251.111 79.2782 250.07 80.3528 249.566C81.4415 249.07 82.655 249.207 83.9988 249.963C85.3286 250.711 86.1869 251.739 86.596 253.078C87.0052 254.416 86.9304 255.883 86.3577 257.469L84.6231 262.273C83.6085 265.082 82.6745 267.156 81.8017 268.5L88.1009 272.043C88.2715 270.358 88.8695 268.096 89.9004 265.241L92.1696 258.957C93.2987 255.83 93.169 252.831 92.0012 250.375C90.8389 247.904 88.816 245.857 86.0723 244.314Z" fill="#E63D25"/>
<path d="M63.6702 227.688C61.5847 225.926 59.7234 224.971 58.0985 224.833C56.4736 224.695 55.2645 225.341 54.4757 226.795C51.5272 232.23 61.8366 237.565 60.5806 239.88C60.1517 240.671 58.8824 240.34 57.2631 238.971C56.2817 238.142 55.3769 237.172 54.5686 236.056C53.7603 234.941 53.1636 233.963 52.7539 233.102L50.5866 237.097C51.9136 239.433 53.5561 241.418 55.5067 243.067C57.5062 244.756 59.2817 245.639 60.8575 245.735C62.4333 245.831 63.5598 245.239 64.2567 243.954C65.7577 241.187 63.914 238.518 61.8513 236.219C59.8009 233.93 57.5437 232.023 58.2252 230.767C58.7154 229.863 59.9296 230.23 61.8555 231.858C62.7756 232.635 63.751 233.706 64.7863 235.096C65.8338 236.496 66.6468 237.8 67.2375 239.02L69.6039 234.658C69.0102 233.642 68.1114 232.429 66.9152 231.007C65.7113 229.598 64.627 228.497 63.6702 227.688Z" fill="#E63D25"/>
<path d="M61.4336 74.2564C60.3329 72.9822 59.1183 71.0885 57.7897 68.5753L56.6187 66.3604L61.7141 62.1642C62.9167 61.1738 63.9137 60.4342 64.688 59.9801L62.7964 56.402C62.3034 56.9507 61.3713 57.7794 59.9952 58.9127L54.8998 63.1089L52.9932 59.5025L59.44 54.1934C60.5186 53.3052 61.3717 52.6637 61.9822 52.3036C62.5926 51.9436 63.1117 51.781 63.5492 51.7672L59.658 46.4936L45.0908 58.4901C46.2088 59.7297 47.4434 61.6273 48.802 64.1973L53.1105 72.3472C54.4692 74.9172 55.3814 77.0803 55.8547 78.8508L61.4336 74.2564Z" fill="#E63D25"/>
<path d="M89.6798 53.739C91.6782 51.6338 92.5971 49.3244 92.6887 46.9077C92.7231 45.7146 92.5424 44.5308 92.1432 43.3944C91.744 42.2579 91.1688 41.29 90.4423 40.5133C88.9613 38.9751 86.9866 38.2311 84.3726 38.6318C83.0682 38.8397 81.6975 39.3369 80.2604 40.1232C78.8233 40.9096 77.6017 41.831 76.5954 42.8875C74.5882 45.0156 73.6888 47.3324 73.6059 49.7263C73.5574 50.9271 73.7381 52.1109 74.1374 53.2473C74.5366 54.3838 75.1065 55.3365 75.847 56.1056C77.3139 57.6514 79.2939 58.4106 81.9027 57.9948C83.2123 57.802 84.5831 57.3048 86.0201 56.5185C87.4572 55.7321 88.6789 54.8106 89.6798 53.739ZM81.2854 53.1297C80.2177 52.7203 79.4647 51.8678 79.0122 50.5798C78.5597 49.2918 78.5622 48.0078 79.0443 46.7504C79.5264 45.4929 80.3689 44.5441 81.5806 43.8811C82.7922 43.2181 83.9222 43.0875 84.9899 43.4969C86.0435 43.914 86.8018 44.7816 87.2543 46.0696C87.7068 47.3576 87.699 48.6265 87.2309 49.8762C86.7488 51.1336 85.9116 52.0976 84.7 52.7606C83.4883 53.4236 82.353 53.539 81.2854 53.1297Z" fill="#E63D25"/>
<path d="M108.436 45.5027C107.625 43.8458 106.906 41.6642 106.284 38.9891L104.197 30.0096C103.576 27.3345 103.249 25.0108 103.223 23.0696L96.4879 25.5075C97.2617 27.076 97.9664 29.2631 98.6098 32.0321L100.696 41.0116C101.34 43.7805 101.682 46.0988 101.701 47.9406L108.436 45.5027Z" fill="#E63D25"/>
<path d="M122.352 41.4347C121.664 39.7071 121.108 37.4703 120.689 34.7562L119.281 25.6455C118.862 22.9313 118.712 20.5969 118.836 18.6739L111.872 20.3495C112.529 21.9857 113.07 24.2262 113.504 27.0356L114.911 36.1463C115.345 38.9557 115.511 41.2864 115.388 43.1104L122.352 41.4347Z" fill="#E63D25"/>
<path d="M143.333 38.3404C145.9 37.2479 147.473 35.521 148.27 33.3527C148.653 32.2778 148.823 31.1222 148.765 29.919C148.708 28.7158 148.429 27.5935 147.947 26.5829C146.95 24.5641 145.239 23.0653 142.569 22.3463C141.234 21.9947 139.75 21.8797 138.116 22.0012C136.483 22.1227 135.02 22.4569 133.728 23.0037C131.145 24.1135 129.589 25.8552 128.807 28.0062C128.409 29.0823 128.239 30.238 128.296 31.4412C128.354 32.6444 128.632 33.7506 129.13 34.76C130.11 36.78 131.822 38.2948 134.492 38.9979C135.827 39.3654 137.311 39.4804 138.945 39.359C140.579 39.2375 142.041 38.9033 143.333 38.3404ZM135.312 34.3003C134.389 33.4835 133.903 32.3927 133.838 31.0291C133.773 29.6655 134.151 28.4943 134.99 27.5465C135.828 26.5986 136.929 26.0821 138.306 25.9797C139.684 25.8773 140.825 26.227 141.749 27.0438C142.656 27.8619 143.142 28.9687 143.207 30.3323C143.273 31.6959 142.894 32.851 142.071 33.7976C141.232 34.7455 140.132 35.278 138.755 35.3805C137.378 35.4829 136.235 35.1171 135.312 34.3003Z" fill="#E63D25"/>
<path d="M165.963 39.8394L170.258 30.7886L170.622 30.8515L172.799 41.0221L180.506 42.3554C180.592 41.0036 181.026 39.2729 181.811 37.1472L184.177 31.6672C184.868 29.8019 185.679 28.1688 186.594 26.7491L179.853 25.5828C179.752 26.4927 179.476 27.6652 179.042 29.1032L176.663 34.6949C176.409 35.3831 176.212 35.8533 176.085 36.1242L175.753 36.0667L173.349 24.4576L169.06 23.7157L164.213 34.1028L163.896 34.048C163.728 33.0916 163.625 32.5694 163.604 32.4682L162.616 26.2614C162.459 24.9164 162.433 23.6919 162.556 22.5905L155.751 21.4132C156.24 22.6693 156.648 24.5132 157.005 26.9665L158.144 33.1181C158.284 34.0371 158.355 34.993 158.374 35.9886C158.392 36.9842 158.348 37.8225 158.24 38.5034L165.963 39.8394Z" fill="#E63D25"/>
<path d="M210.816 56.6859C213.826 58.3787 216.472 58.8857 218.735 58.2142C220.985 57.5348 222.654 55.7111 223.728 52.7352L225.998 46.4512C226.985 43.717 227.947 41.6592 228.889 40.2627L222.576 36.7118C222.331 38.5552 221.714 40.8249 220.748 43.4987L219.014 48.3023C218.441 49.8884 217.61 50.9296 216.536 51.4338C215.447 51.9301 214.233 51.7928 212.89 51.0369C211.56 50.289 210.702 49.261 210.292 47.9223C209.883 46.5835 209.958 45.1172 210.531 43.531L212.265 38.7274C213.28 35.9177 214.214 33.8441 215.087 32.4995L208.788 28.9565C208.617 30.6416 208.019 32.9041 206.988 35.7591L204.719 42.0431C203.59 45.17 203.719 48.169 204.887 50.625C206.049 53.0962 208.072 55.1427 210.816 56.6859Z" fill="#E63D25"/>
<path d="M233.218 73.3119C235.304 75.0741 237.165 76.0293 238.79 76.167C240.415 76.3047 241.624 75.6588 242.413 74.2047C245.361 68.7696 235.052 63.4348 236.308 61.1196C236.737 60.3291 238.006 60.6605 239.625 62.0288C240.607 62.8581 241.511 63.8285 242.32 64.9439C243.128 66.0592 243.725 67.037 244.134 67.8978L246.302 63.9027C244.975 61.5667 243.332 59.5817 241.382 57.9336C239.382 56.2439 237.607 55.3613 236.031 55.2651C234.455 55.1688 233.329 55.7611 232.632 57.0458C231.131 59.8127 232.974 62.4824 235.037 64.7812C237.088 67.0697 239.345 68.977 238.663 70.2334C238.173 71.1369 236.959 70.7698 235.033 69.1423C234.113 68.3649 233.137 67.2937 232.102 65.9041C231.055 64.5043 230.242 63.1996 229.651 61.9799L227.284 66.3421C227.878 67.3585 228.777 68.5709 229.973 69.9935C231.177 71.4019 232.261 72.5034 233.218 73.3119Z" fill="#E63D25"/>
<path d="M150.616 134.127C141.537 134.127 134.128 141.536 134.128 150.615C134.128 159.694 141.537 167.103 150.616 167.103C159.694 167.103 167.104 159.694 167.104 150.615C167.104 141.536 159.694 134.127 150.616 134.127ZM200.067 150.615C200.067 143.787 200.129 137.022 199.745 130.206C199.362 122.29 197.556 115.264 191.767 109.476C185.966 103.675 178.953 101.881 171.037 101.498C164.209 101.114 157.443 101.176 150.628 101.176C143.8 101.176 137.034 101.114 130.219 101.498C122.303 101.881 115.277 103.687 109.489 109.476C103.688 115.277 101.894 122.29 101.511 130.206C101.127 137.034 101.189 143.8 101.189 150.615C101.189 157.431 101.127 164.209 101.511 171.024C101.894 178.94 103.7 185.966 109.489 191.755C115.29 197.556 122.303 199.349 130.219 199.733C137.047 200.116 143.813 200.054 150.628 200.054C157.456 200.054 164.222 200.116 171.037 199.733C178.953 199.349 185.979 197.543 191.767 191.755C197.568 185.953 199.362 178.94 199.745 171.024C200.141 164.209 200.067 157.443 200.067 150.615V150.615ZM150.616 175.984C136.577 175.984 125.247 164.654 125.247 150.615C125.247 136.576 136.577 125.246 150.616 125.246C164.654 125.246 175.985 136.576 175.985 150.615C175.985 164.654 164.654 175.984 150.616 175.984ZM177.024 130.132C173.746 130.132 171.099 127.485 171.099 124.207C171.099 120.93 173.746 118.283 177.024 118.283C180.301 118.283 182.948 120.93 182.948 124.207C182.949 124.986 182.797 125.756 182.499 126.476C182.202 127.195 181.765 127.849 181.215 128.399C180.665 128.949 180.011 129.386 179.292 129.683C178.573 129.98 177.802 130.133 177.024 130.132V130.132Z" fill="#E63D25"/>
</svg>
