<svg width="167" height="167" viewBox="0 0 167 167" fill="none" xmlns="http://www.w3.org/2000/svg">
<path d="M87.022 16.802C88.5242 14.2678 92.3102 14.6759 93.2378 17.472L94.1249 17.1777L93.2379 17.472L94.5887 21.5437C95.7959 25.1828 100.346 26.3786 103.187 23.8032L106.365 20.9215C108.547 18.9427 112.045 20.4486 112.107 23.3939L112.198 27.6829C112.279 31.5162 116.274 34.0001 119.748 32.3763L123.634 30.5594C126.303 29.3118 129.201 31.7817 128.392 34.6145L127.214 38.7397C126.162 42.4265 129.248 45.9778 133.046 45.4499L137.295 44.8593C140.213 44.4537 142.254 47.6682 140.646 50.1367L138.305 53.7316C136.213 56.9443 138.115 61.2475 141.9 61.8625L146.134 62.5505C149.042 63.023 150.045 66.6964 147.781 68.5814L144.484 71.3264C141.538 73.7797 142.087 78.4524 145.522 80.1555L149.366 82.0611C152.005 83.3697 151.881 87.1757 149.162 88.3096L145.203 89.961C141.664 91.4368 140.812 96.0638 143.592 98.7037L146.703 101.658C148.84 103.686 147.599 107.286 144.667 107.568L140.397 107.979C136.58 108.347 134.402 112.517 136.281 115.859L138.383 119.599C139.826 122.167 137.58 125.241 134.695 124.647L130.493 123.781C126.738 123.007 123.427 126.349 124.237 130.097L125.144 134.29C125.766 137.169 122.713 139.445 120.132 138.027L116.372 135.961C113.012 134.114 108.863 136.333 108.532 140.153L108.163 144.427C107.909 147.362 104.321 148.637 102.272 146.52L99.288 143.437C96.6214 140.683 92.0028 141.58 90.5612 145.132L88.9481 149.107C87.8404 151.837 84.0359 151.998 82.7019 149.371L80.7593 145.546C79.0231 142.128 74.3454 141.624 71.9206 144.594L69.2075 147.917C67.3444 150.199 63.6615 149.231 63.161 146.328L62.4321 142.1C61.7807 138.322 57.4594 136.461 54.2669 138.585L50.6948 140.96C48.2419 142.592 45.0079 140.581 45.3853 137.66L45.9349 133.405C46.4262 129.603 42.8452 126.551 39.1688 127.639L35.0551 128.856C32.2303 129.692 29.7325 126.818 30.9543 124.137L32.7336 120.234C34.3238 116.745 31.8015 112.773 27.9677 112.729L23.6779 112.68C20.7322 112.646 19.1926 109.163 21.1503 106.962L24.0011 103.756C26.549 100.891 25.3094 96.3526 21.6589 95.1805L17.5743 93.869C14.7693 92.9684 14.3247 89.1865 16.8443 87.66L20.5134 85.437C23.7926 83.4502 23.9458 78.7478 20.803 76.5518L17.2864 74.0946C14.8716 72.4073 15.5614 68.6623 18.419 67.9463L22.5804 66.9035C26.2995 65.9716 27.8319 61.5233 25.476 58.4984L22.8399 55.1139C21.0297 52.7897 22.7928 49.4145 25.7345 49.5725L30.0183 49.8027C33.8469 50.0084 36.6224 46.2094 35.2627 42.6245L33.7414 38.6133C32.6967 35.8589 35.3763 33.1533 38.1407 34.1714L42.1664 35.654C45.7642 36.979 49.5362 34.1669 49.2936 30.3405L49.0222 26.0591C48.8357 23.1191 52.1938 21.3235 54.5353 23.1112L57.9451 25.7145C60.9926 28.0412 65.4259 26.4659 66.3219 22.738L67.3245 18.5668C68.0129 15.7024 71.751 14.9764 73.4616 17.3749L75.9526 20.8676C78.1788 23.9891 82.8795 23.7905 84.8345 20.4923L84.0305 20.0158L84.8345 20.4923L87.022 16.802Z" fill="#F05127" stroke="#BE310C" stroke-width="1.86927"/>
<path d="M70.9313 75.6829C71.2847 75.721 71.6354 75.6537 71.9966 75.4893C72.3577 75.325 72.6125 75.1071 72.7602 74.8427L73.1851 70.6409C72.7642 71.3595 72.2703 71.6497 71.3765 71.5534C70.8845 71.5004 70.4665 71.217 70.1445 70.8879C69.6904 70.4184 69.1112 69.8093 68.0643 69.7034L67.891 69.6847L67.9082 69.5254L68.7605 69.6173C69.9453 69.745 70.6941 69.7556 71.3824 69.6125C72.3945 69.3922 72.8242 68.7866 72.9871 67.5355C73.0625 66.8357 72.9904 66.2041 72.7792 65.6276L69.1347 65.2348C69.4221 65.8195 69.5311 66.434 69.4617 67.0784C69.3123 68.4641 68.5942 69.1437 67.4302 69.0183L66.6265 68.9316L66.6862 68.3773C66.8318 67.0262 67.0637 65.9157 67.3748 65.0451L63.4878 64.6261C63.6003 65.5985 63.5819 66.8091 63.4259 68.2572L63.1294 71.0079C62.974 72.4491 62.7339 73.6358 62.4168 74.5619L66.3038 74.9808C66.1854 74.0639 66.203 72.8602 66.3651 71.3567L66.501 70.0956C66.6824 70.0381 66.9225 70.0219 67.2204 70.054C68.3914 70.1803 68.5171 71.2242 68.5956 72.3821C68.6375 72.9684 68.6787 73.5616 68.8514 74.1059C69.0879 74.9024 69.6565 75.5455 70.9313 75.6829ZM82.323 76.7076L83.2353 73.056C82.9895 73.1907 82.6296 73.2781 82.1688 73.3265C81.7079 73.375 80.9752 73.3451 79.9705 73.2368L77.4762 72.9679L77.592 71.8939L79.8715 72.1397C80.599 72.2181 81.1781 72.3085 81.6086 72.411L81.7662 70.9491C81.3744 70.9419 80.7902 70.8999 80.0142 70.8163L77.7346 70.5706L77.8601 69.4065L80.7494 69.718C81.4422 69.7927 81.9651 69.8841 82.3186 69.9853C82.6722 70.0865 82.9305 70.2264 83.0865 70.4045L82.9991 66.7292L74.6569 65.83C74.7061 66.2839 74.7226 66.8464 74.7125 67.5252C74.7024 68.204 74.6614 68.8445 74.5949 69.4611L74.2984 72.2118C74.232 72.8285 74.1355 73.4629 74.0015 74.1214C73.8674 74.7798 73.7315 75.3259 73.5859 75.7658L82.323 76.7076ZM92.7992 77.8368L93.7115 74.1852C93.4657 74.3199 93.1058 74.4073 92.645 74.4558C92.1841 74.5042 91.4514 74.4743 90.4467 74.366L87.9524 74.0971L88.0682 73.0232L90.3477 73.2689C91.0752 73.3473 91.6542 73.4378 92.0848 73.5403L92.2424 72.0783C91.8506 72.0711 91.2664 72.0292 90.4904 71.9455L88.2108 71.6998L88.3363 70.5358L91.2256 70.8472C91.9184 70.9219 92.4413 71.0133 92.7948 71.1145C93.1484 71.2157 93.4067 71.3557 93.5627 71.5337L93.4752 67.8585L85.1331 66.9593C85.1823 67.4132 85.1988 67.9757 85.1887 68.6545C85.1786 69.3333 85.1376 69.9737 85.0711 70.5904L84.7746 73.3411C84.7082 73.9577 84.6117 74.5922 84.4777 75.2506C84.3436 75.909 84.2076 76.4551 84.0621 76.895L92.7992 77.8368ZM98.4253 78.4432C98.3016 77.5748 98.3155 76.4057 98.4746 74.9299L98.5829 73.9253L98.7214 73.9402C98.826 74.5963 99.1394 75.1348 99.661 75.5625C100.183 75.9902 100.814 76.2475 101.562 76.3281C102.539 76.4334 103.35 76.1914 104.01 75.5967C104.669 75.0089 105.06 74.1187 105.188 72.927C105.461 70.398 103.473 68.9362 101.166 68.6875L95.6093 68.0885C95.7218 69.0609 95.7034 70.2715 95.5473 71.7196L95.2508 74.4703C95.0955 75.9115 94.8554 77.0982 94.5383 78.0243L98.4253 78.4432ZM100.32 74.1266C99.884 74.0795 99.5055 73.8845 99.1911 73.5493C98.8768 73.214 98.7323 72.7989 98.7576 72.304L98.8443 71.5002C99.2675 71.4758 99.7908 71.4971 100.414 71.5643C101.412 71.6719 101.956 72.2842 101.872 73.0602C101.833 73.4275 101.663 73.7035 101.369 73.8961C101.067 74.0949 100.715 74.1692 100.32 74.1266ZM44.0533 92.6983C43.9349 91.7813 43.9525 90.5777 44.1146 89.0741L44.1892 88.3813L47.2794 88.7144L47.2048 89.4072C47.0449 90.89 46.8118 92.0774 46.5061 92.9627L50.3931 93.3817C50.2747 92.4647 50.2923 91.261 50.4543 89.7575L50.7508 87.0068C50.9129 85.5033 51.153 84.3166 51.4641 83.4459L47.5771 83.0269C47.6871 83.957 47.6618 85.1669 47.5013 86.6565L47.4325 87.294L44.3423 86.9609L44.4111 86.3234C44.5731 84.8199 44.8132 83.6332 45.1243 82.7625L41.2373 82.3436C41.3498 83.3159 41.3314 84.5266 41.1754 85.9747L40.8789 88.7253C40.7235 90.1665 40.4834 91.3532 40.1663 92.2793L44.0533 92.6983ZM57.0576 94.3033C58.6374 94.4736 59.8902 94.2301 60.8239 93.5668C61.7506 92.9027 62.2897 91.8673 62.4428 90.447L62.6751 88.2921C62.8357 86.8025 63.0688 85.615 63.3745 84.7297L59.4875 84.3108C59.606 85.2277 59.5876 86.4383 59.4256 87.9419L59.2911 89.189C59.1537 90.4639 58.5012 91.1856 57.4203 91.0691C56.3394 90.9526 55.8626 90.1091 56 88.8343L56.1344 87.5871C56.2905 86.139 56.5306 84.9523 56.8477 84.0262L52.9607 83.6072C53.0732 84.5796 53.0548 85.7902 52.8987 87.2383L52.6664 89.3931C52.5029 90.9105 52.877 92.1214 53.69 92.9029C54.4952 93.6907 55.6165 94.148 57.0576 94.3033ZM68.296 95.5147C69.758 95.6723 70.9813 95.5728 71.9536 95.201C72.9189 94.8285 73.5299 94.1023 73.6405 93.0768C73.7331 92.2177 73.3937 91.5292 72.8206 91.124C72.2467 90.7257 71.4553 90.3951 70.6536 90.2245C69.0492 89.8273 67.4195 89.6657 67.5039 88.8827C67.5285 88.6541 67.7197 88.5065 68.0719 88.4253C68.4241 88.3441 68.8666 88.3357 69.407 88.3939C70.1207 88.4709 70.8231 88.6517 71.5082 88.9288C72.1932 89.2059 72.7268 89.5228 73.1097 89.8725L73.4966 86.2834C73.0164 86.0564 72.4231 85.8383 71.7098 85.6282C70.9964 85.4181 70.2895 85.2789 69.6036 85.2049C68.6474 85.1018 67.7901 85.1216 67.038 85.2718C66.2789 85.4213 65.6526 85.7043 65.1646 86.1353C64.6765 86.5663 64.3936 87.1106 64.3219 87.7757C64.2375 88.5587 64.4882 89.2235 64.9483 89.6376C65.4075 90.0586 66.0436 90.4005 66.7507 90.6029C68.4871 91.1405 70.496 91.2309 70.4199 91.9376C70.3721 92.3811 69.7246 92.5356 68.4843 92.4019C67.6321 92.31 66.7933 92.0934 65.9749 91.7529C65.1496 91.4116 64.4824 90.9682 63.9596 90.4212L63.4323 94.1423C64.0798 94.4434 64.8765 94.7256 65.8216 94.9957C66.7668 95.2658 67.5893 95.4385 68.296 95.5147ZM80.4706 96.6237C80.3581 95.6514 80.3765 94.4407 80.5318 92.9996L80.8642 89.9163L82.0975 90.0492C82.8319 90.1284 83.4522 90.3565 83.9659 90.7273L83.8281 86.9344L75.285 86.0136L74.342 89.6899C74.9091 89.4356 75.5637 89.345 76.3051 89.4249L77.6285 89.5675L77.2961 92.6508C77.1408 94.092 76.9007 95.2787 76.5836 96.2048L80.4706 96.6237ZM91.6234 98.0432C92.0115 98.085 92.4723 98.0366 92.7322 97.9665C92.9928 97.8894 93.2611 97.8062 93.2896 97.8022L93.6997 94.2577C93.0419 94.5723 92.1557 94.6661 91.0402 94.5458L88.2202 94.2419L88.566 91.0339C88.7139 89.662 88.9524 88.4891 89.2879 87.523L85.4009 87.104C85.4501 87.5579 85.4665 88.1204 85.4565 88.7992C85.4464 89.478 85.4054 90.1184 85.3389 90.7351L85.0424 93.4858C84.9744 94.1163 84.8735 94.7923 84.732 95.52C84.5897 96.2547 84.4439 96.8277 84.3067 97.2545C84.608 97.1258 85.004 97.0283 85.4963 96.9482C85.9885 96.8681 86.5219 96.8625 87.0969 96.9245C88.7905 97.079 90.2001 97.9178 91.6234 98.0432ZM98.2497 98.5402C98.1312 97.6232 98.1488 96.4195 98.3109 94.916L98.6074 92.1653C98.7694 90.6618 99.0095 89.4751 99.3206 88.6044L95.4336 88.1854C95.5437 89.1155 95.5184 90.3254 95.3578 91.815L95.0613 94.5657C94.9015 96.0485 94.6684 97.2359 94.3627 98.1212L98.2497 98.5402ZM103.64 99.1212C103.59 98.7443 103.574 98.1748 103.595 97.399C103.615 96.6232 103.657 95.9128 103.726 95.2684L103.903 93.6263L104.111 93.6487L107.174 99.5021L110.222 99.8307L110.906 93.491C111.068 91.9874 111.308 90.8007 111.619 89.9301L107.732 89.5111C107.777 89.8734 107.797 90.4082 107.782 91.1286C107.767 91.849 107.725 92.5032 107.661 93.0922L107.479 94.7828L107.278 94.7611L104.334 89.1728L100.824 88.7665C100.937 89.7389 100.918 90.9495 100.762 92.3976L100.466 95.1483C100.31 96.5894 100.07 97.7762 99.7532 98.7022L103.64 99.1212ZM117.088 100.774C118.065 100.879 119.014 100.849 119.937 100.682C120.858 100.522 121.641 100.22 122.277 99.7773L122.731 95.5647L117.562 95.0075L117.387 96.3695C117.777 96.3343 118.169 96.3346 118.55 96.3757L119.375 96.4646L119.279 97.3584C118.881 97.5959 118.326 97.6762 117.599 97.5978C116.843 97.5164 116.266 97.279 115.853 96.884C115.44 96.489 115.261 96.0001 115.325 95.4112C115.395 94.7599 115.741 94.2785 116.357 93.9664C116.972 93.6542 117.789 93.553 118.801 93.6621C119.334 93.7196 119.861 93.8394 120.382 94.0147C120.902 94.197 121.291 94.4212 121.556 94.695L121.93 91.49C120.984 90.9606 119.788 90.6144 118.326 90.4568C116.746 90.2865 115.264 90.6454 114.151 91.4155C113.036 92.1926 112.275 93.4703 112.108 95.0223C111.94 96.5813 112.391 97.9828 113.28 98.9688C114.169 99.9548 115.508 100.604 117.088 100.774Z" fill="#F2F2F2"/>
<line x1="50.9752" y1="52.7308" x2="119.251" y2="60.0903" stroke="#F2994A" stroke-width="1.86927"/>
<line x1="45.4556" y1="103.938" x2="113.731" y2="111.298" stroke="#F2994A" stroke-width="1.86927"/>
</svg>
