<svg width="146" height="47" viewBox="0 0 146 47" fill="none" xmlns="http://www.w3.org/2000/svg">
<rect x="3.95215" width="129.327" height="29.5758" transform="rotate(7.67886 3.95215 0)" fill="#F4B5C2"/>
<path d="M6.30969 19.2708L7.14391 17.5378L8.10913 17.668L7.26418 19.3995L8.44925 19.5592L9.28884 17.827L10.3827 17.9745L10.8419 16.9991L9.77476 16.8552L10.5512 15.2673L11.6129 15.4105L12.0492 14.4429L11.025 14.3048L11.8874 12.5647L10.7024 12.405L9.85061 14.1464L8.89612 14.0178L9.74252 12.2755L8.54672 12.1143L7.70032 13.8565L6.65467 13.7155L6.20237 14.681L7.22121 14.8184L6.45013 16.4069L5.42593 16.2688L4.96146 17.2436L5.96957 17.3795L5.10853 19.1088L6.30969 19.2708ZM8.40628 14.9781L9.36077 15.1068L8.58969 16.6954L7.6352 16.5667L8.40628 14.9781ZM15.5226 20.6713C16.6541 20.8238 17.6056 20.772 18.368 20.5035C19.1249 20.2343 19.6142 19.6833 19.7212 18.8897C19.8108 18.2247 19.5617 17.6834 19.1252 17.357C18.6881 17.036 18.0806 16.763 17.4619 16.6141C16.2249 16.2726 14.9633 16.1134 15.045 15.5074C15.0689 15.3305 15.2203 15.2199 15.4953 15.1641C15.7704 15.1084 16.114 15.111 16.5322 15.1674C17.0845 15.2419 17.626 15.3968 18.152 15.6261C18.678 15.8553 19.0856 16.1123 19.3755 16.3916L19.75 13.6139C19.382 13.4278 18.926 13.2462 18.3767 13.0684C17.8274 12.8906 17.2816 12.7679 16.7507 12.6963C16.0108 12.5965 15.345 12.5941 14.7581 12.6952C14.1658 12.7955 13.6739 13.0022 13.2862 13.3266C12.8984 13.6511 12.6676 14.0676 12.5982 14.5824C12.5165 15.1884 12.6973 15.7096 13.0458 16.0405C13.3936 16.3767 13.8802 16.6553 14.4248 16.827C15.7614 17.2802 17.3188 17.3919 17.2451 17.9388C17.1988 18.282 16.693 18.3886 15.7332 18.2591C15.0736 18.1702 14.4271 17.9848 13.7989 17.7035C13.1654 17.4215 12.6567 17.0636 12.2623 16.6282L11.776 19.5055C12.2723 19.7526 12.8848 19.988 13.6128 20.2172C14.3409 20.4464 14.9757 20.5975 15.5226 20.6713ZM23.201 21.5482C23.1434 21.3275 23.1253 20.9757 23.1514 20.4987C23.1767 20.0271 23.2117 19.606 23.2608 19.2413L23.321 18.7144C23.3641 18.3544 23.5171 18.0693 23.7856 17.8598C24.0487 17.6496 24.3657 17.5667 24.7357 17.6166C25.4488 17.7128 25.7984 18.2786 25.6965 19.0347L25.6285 19.5387C25.515 20.3806 25.3265 21.1305 25.067 21.7998L28.0753 22.2054C28.0023 21.4913 28.0315 20.6271 28.1681 19.6136L28.2469 19.0291C28.3518 18.2516 28.2197 17.6114 27.8454 17.1077C27.471 16.6041 26.8794 16.295 26.0589 16.1844C24.9704 16.0376 24.161 16.4526 23.6314 17.4241L23.5081 17.4074L23.6158 16.6084C23.7691 15.4716 23.9746 14.5548 24.2377 13.8587L21.2348 13.4538C21.2697 13.8025 21.2716 14.234 21.2505 14.7553C21.2286 15.282 21.1828 15.7836 21.117 16.2715L20.83 18.4004C20.7642 18.8883 20.6755 19.3841 20.5585 19.887C20.4409 20.3953 20.324 20.8164 20.1981 21.1433L23.201 21.5482ZM32.43 22.9509C33.6311 23.1128 34.6344 22.9205 35.2858 22.4624C35.9319 22.0035 36.3261 21.3469 36.4353 20.5372C36.5445 19.7275 36.3382 18.9899 35.8367 18.3763C35.3299 17.762 34.4188 17.3115 33.223 17.1503C32.0218 16.9884 31.0186 17.1807 30.3725 17.6396C29.7211 18.0977 29.3268 18.7543 29.2176 19.564C29.1085 20.3737 29.3148 21.1113 29.8216 21.7256C30.3231 22.3392 31.2342 22.7897 32.43 22.9509ZM32.6461 21.3476C32.2654 21.2962 31.9764 21.1317 31.7737 20.8532C31.5703 20.5801 31.4943 20.2532 31.5449 19.8778C31.5955 19.5024 31.7554 19.2073 32.0246 18.9925C32.2931 18.783 32.6154 18.7009 32.9961 18.7522C33.3875 18.805 33.6819 18.9702 33.8853 19.2434C34.0834 19.5158 34.1594 19.8427 34.1081 20.2234C34.0567 20.6041 33.8968 20.8992 33.6337 21.1094C33.3652 21.3189 33.0376 21.4003 32.6461 21.3476ZM40.784 23.9189L42.0536 21.3056L42.1876 21.3237L42.7305 24.1814L45.98 24.6195C46.0352 24.0482 46.2075 23.378 46.4968 22.609L47.0845 21.2469C47.3799 20.4732 47.7077 19.824 48.0717 19.3107L45.2189 18.9261C45.1834 19.2707 45.0873 19.7 44.9299 20.2193L44.2926 21.7877C44.2241 21.9313 44.1746 22.0557 44.1447 22.1554L44 22.1359L43.385 18.6788L41.6048 18.4388L40.0887 21.6249L39.9707 21.609L39.9223 21.1984L39.7124 19.5158C39.6885 19.0048 39.7095 18.5654 39.7708 18.1915L36.9235 17.8076C37.1175 18.3524 37.267 19.066 37.3626 19.9361L37.5578 21.4038C37.5966 21.7639 37.6172 22.1379 37.6141 22.5252C37.611 22.9124 37.5845 23.2309 37.5344 23.4808L40.784 23.9189ZM52.0019 25.4314L53.6281 21.2665L53.7568 21.2838L54.2219 25.7308L57.6055 26.187C57.6379 25.8255 57.7186 25.3887 57.8377 24.8697C57.9568 24.3507 58.0984 23.8675 58.2579 23.414L59.0661 21.3882C59.427 20.2903 59.8041 19.3966 60.2081 18.7085L57.1998 18.3029C57.164 18.6093 57.033 19.1758 56.8008 20.0072L56.1796 21.5777C56.1497 21.6774 56.1095 21.814 56.0588 21.9873C55.9468 22.3326 55.8842 22.5534 55.8198 22.8287L55.6965 22.812L55.0925 18.0188L53.1942 17.7629L51.3476 22.2257L51.2297 22.2098C51.2366 22.1179 51.2301 21.6802 51.2155 20.8975L51.0363 19.23C51.0214 18.409 51.0452 17.828 51.1083 17.4816L48.0839 17.0738C48.2866 17.8382 48.4243 18.8013 48.4916 19.9624L48.7344 22.1299C48.7627 22.6088 48.7651 23.1169 48.7486 23.6442C48.726 24.1762 48.6882 24.6188 48.629 24.9767L52.0019 25.4314ZM62.5817 26.8579C62.5241 26.6372 62.5061 26.2853 62.5322 25.8084C62.5575 25.3368 62.5925 24.9157 62.6416 24.551L62.7018 24.0241C62.7448 23.6641 62.8979 23.379 63.1664 23.1695C63.4295 22.9593 63.7464 22.8764 64.1164 22.9263C64.8296 23.0225 65.1792 23.5883 65.0773 24.3444L65.0093 24.8484C64.8958 25.6903 64.7073 26.4402 64.4478 27.1095L67.4561 27.5151C67.3831 26.801 67.4123 25.9368 67.5489 24.9233L67.6277 24.3388C67.7326 23.5613 67.6005 22.9211 67.2262 22.4174C66.8518 21.9138 66.2602 21.6047 65.4397 21.4941C64.3512 21.3473 63.5418 21.7623 63.0122 22.7338L62.8889 22.7171L62.9966 21.9181C63.1499 20.7813 63.3554 19.8645 63.6185 19.1684L60.6156 18.7635C60.6505 19.1122 60.6524 19.5437 60.6312 20.065C60.6094 20.5917 60.5636 21.0933 60.4978 21.5812L60.2108 23.7101C60.145 24.198 60.0563 24.6938 59.9393 25.1967C59.8217 25.705 59.7048 26.126 59.5789 26.453L62.5817 26.8579ZM70.4595 28.0784C71.5373 28.2237 72.3115 27.9077 72.6986 27.3047L72.8219 27.3213L72.8089 27.4179C72.7612 27.7718 72.666 28.0319 72.5235 28.1983L75.3226 28.5758C75.2576 28.2885 75.2373 27.9528 75.2511 27.567C75.2649 27.1812 75.3165 26.6367 75.4105 25.9396L75.5363 25.0066C75.7264 23.5963 74.6629 22.7376 72.341 22.4246C71.9013 22.3653 71.4029 22.3363 70.8505 22.3437C70.2927 22.3504 69.8843 22.3827 69.62 22.4399L69.4081 24.0111C69.6304 23.8608 69.9395 23.7551 70.3354 23.6938C70.7259 23.6318 71.1414 23.6278 71.5758 23.6864C72.0637 23.7522 72.4568 23.9143 72.7543 24.1783C73.0464 24.4415 73.1646 24.7796 73.1075 25.2032L73.0424 25.6858L72.8976 25.6663C72.6866 25.0045 72.0305 24.4847 70.9741 24.3423C70.2609 24.2461 69.6794 24.3479 69.2341 24.6537C68.7889 24.9595 68.5305 25.3778 68.4589 25.9086C68.4126 26.2518 68.4565 26.5744 68.5858 26.8703C68.8431 27.4728 69.5103 27.9504 70.4595 28.0784ZM71.7572 26.9976C71.1137 26.9109 70.7506 26.5671 70.8034 26.1756C70.8583 25.7681 71.292 25.5481 71.9408 25.6356C72.2572 25.6782 72.5059 25.7773 72.6809 25.9374C72.8559 26.0975 72.9307 26.2713 72.9054 26.459C72.8497 26.8719 72.406 27.0851 71.7572 26.9976ZM79.1571 29.2511C79.3931 29.2829 79.6441 29.284 79.9094 29.2597C80.1694 29.2347 80.3947 29.1832 80.5733 29.1144L80.8335 27.184C80.6571 27.3186 80.3033 27.391 79.9977 27.3498C79.7028 27.31 79.4623 27.1902 79.2824 26.9858C79.1018 26.7867 79.0331 26.5263 79.0758 26.2099L79.3368 24.2741L81.1278 24.5156L81.2268 23.781L79.4358 23.5395L79.7323 21.341L77.334 21.6346L77.1193 23.2272L76.1434 23.0956L76.0443 23.8302L77.0203 23.9618L76.6392 26.7878C76.452 28.1766 77.291 28.9995 79.1571 29.2511ZM86.2295 30.0463C86.1731 29.2907 86.1913 28.5889 86.2788 27.94L86.359 27.3448L88.0761 25.2996C88.4261 24.8499 88.8151 24.3946 89.2392 23.9222C89.6571 23.4544 90.0306 23.0735 90.3496 22.7725L87.1537 22.3416C86.7841 23.0179 86.4403 23.5831 86.1225 24.0371L85.4725 24.7684L85.3545 24.7525L84.9253 23.8865C84.7469 23.3875 84.5712 22.7468 84.3867 21.9685L81.1801 21.5362C81.6591 22.316 82.1668 23.329 82.7138 24.5766L83.8241 26.9921L83.7453 27.5766C83.6477 28.3005 83.4725 28.9921 83.2213 29.6407L86.2295 30.0463ZM91.6191 30.9313C92.8203 31.0933 93.8235 30.901 94.4749 30.4428C95.121 29.984 95.5153 29.3273 95.6245 28.5176C95.7336 27.7079 95.5273 26.9703 95.0259 26.3567C94.519 25.7424 93.6079 25.292 92.4121 25.1308C91.211 24.9688 90.2077 25.1611 89.5617 25.62C88.9102 26.0782 88.516 26.7348 88.4068 27.5445C88.2976 28.3542 88.5039 29.0918 89.0108 29.7061C89.5122 30.3197 90.4233 30.7701 91.6191 30.9313ZM91.8353 29.328C91.4546 29.2767 91.1656 29.1121 90.9629 28.8337C90.7595 28.5605 90.6834 28.2336 90.734 27.8583C90.7846 27.4829 90.9446 27.1878 91.2138 26.9729C91.4822 26.7634 91.8045 26.6813 92.1852 26.7327C92.5767 26.7854 92.8711 26.9507 93.0745 27.2238C93.2725 27.4962 93.3486 27.8231 93.2972 28.2039C93.2459 28.5846 93.086 28.8797 92.8229 29.0899C92.5544 29.2994 92.2268 29.3808 91.8353 29.328ZM98.7993 31.8994C99.9093 32.0491 100.718 31.6394 101.225 30.6705L101.37 30.69L101.352 30.8241C101.291 31.2799 101.133 31.679 100.885 32.0223L103.941 32.4344C103.861 31.692 103.885 30.8707 104.006 29.9698L104.127 29.069C104.187 28.6239 104.26 28.2461 104.344 27.9462C104.423 27.6456 104.539 27.3118 104.682 26.9434L101.673 26.5378C101.729 26.7692 101.748 27.1211 101.727 27.5987C101.7 28.081 101.666 28.4968 101.617 28.8561L101.547 29.3816C101.499 29.7355 101.346 30.0206 101.083 30.2308C100.819 30.4464 100.502 30.5293 100.132 30.4794C99.7725 30.4309 99.515 30.2761 99.3484 30.0134C99.1811 29.7561 99.1204 29.4367 99.171 29.0613L99.2404 28.5465C99.3518 27.7208 99.5356 26.9648 99.7912 26.284L96.7936 25.8799C96.8608 26.6369 96.8316 27.5011 96.7008 28.4717L96.622 29.0562C96.5171 29.8337 96.6492 30.4739 97.0236 30.9775C97.3979 31.4812 97.9896 31.7903 98.7993 31.8994ZM108.955 33.2688C109.712 33.3707 110.449 33.3665 111.168 33.256C111.887 33.1508 112.5 32.9332 113.004 32.6025L113.443 29.3422L109.443 28.8029L109.279 29.8564C109.582 29.8372 109.887 29.8455 110.182 29.8852L110.82 29.9713L110.726 30.663C110.413 30.8392 109.981 30.89 109.417 30.8141C108.833 30.7353 108.39 30.5391 108.077 30.224C107.765 29.9089 107.637 29.5257 107.698 29.0699C107.766 28.5659 108.045 28.1994 108.529 27.9699C109.013 27.7403 109.649 27.6787 110.432 27.7842C110.845 27.8399 111.251 27.9438 111.652 28.0907C112.052 28.2429 112.349 28.4249 112.549 28.643L112.905 26.1631C112.183 25.7326 111.261 25.4392 110.13 25.2866C108.907 25.1218 107.749 25.3696 106.869 25.9444C105.988 26.5245 105.371 27.5004 105.209 28.7016C105.046 29.9081 105.368 31.0052 106.037 31.7889C106.707 32.5725 107.733 33.1039 108.955 33.2688ZM117.079 34.3641C118.281 34.5261 119.284 34.3338 119.935 33.8756C120.581 33.4167 120.976 32.7601 121.085 31.9504C121.194 31.1407 120.988 30.4031 120.486 29.7895C119.979 29.1752 119.068 28.7248 117.872 28.5636C116.671 28.4016 115.668 28.5939 115.022 29.0528C114.37 29.511 113.976 30.1676 113.867 30.9773C113.758 31.787 113.964 32.5246 114.471 33.1389C114.972 33.7525 115.884 34.2029 117.079 34.3641ZM117.296 32.7608C116.915 32.7095 116.626 32.5449 116.423 32.2664C116.22 31.9933 116.144 31.6664 116.194 31.2911C116.245 30.9157 116.405 30.6206 116.674 30.4057C116.942 30.1962 117.265 30.1141 117.645 30.1654C118.037 30.2182 118.331 30.3835 118.535 30.6566C118.733 30.929 118.809 31.2559 118.757 31.6366C118.706 32.0174 118.546 32.3125 118.283 32.5227C118.015 32.7322 117.687 32.8136 117.296 32.7608ZM124.758 35.3995C124.994 35.4313 125.245 35.4324 125.51 35.4081C125.77 35.3831 125.996 35.3316 126.174 35.2628L126.435 33.3324C126.258 33.4669 125.904 33.5393 125.599 33.4981C125.304 33.4584 125.063 33.3386 124.883 33.1342C124.703 32.9351 124.634 32.6747 124.677 32.3583L124.938 30.4225L126.729 30.664L126.828 29.9294L125.037 29.6879L125.333 27.4893L122.935 27.7829L122.72 29.3756L121.744 29.244L121.645 29.9786L122.621 30.1102L122.24 32.9361C122.053 34.325 122.892 35.1479 124.758 35.3995Z" fill="#C02B4A"/>
<path fill-rule="evenodd" clip-rule="evenodd" d="M139.361 21.6638C140.599 21.4695 141.873 21.4486 143.108 21.4374C143.374 21.4359 143.596 21.6465 143.584 21.9048C143.592 22.1656 143.376 22.3777 143.129 22.3815C141.932 22.3913 140.696 22.4071 139.516 22.5954C139.264 22.6368 139.019 22.4612 138.974 22.2037C138.929 21.9464 139.109 21.7053 139.361 21.6638Z" fill="black"/>
<path fill-rule="evenodd" clip-rule="evenodd" d="M136.296 16.4667C138.458 14.7275 140.833 13.2705 142.963 11.4741C143.154 11.3054 143.454 11.3308 143.621 11.5291C143.787 11.7277 143.77 12.0264 143.561 12.1929C141.43 13.9951 139.055 15.4577 136.893 17.2027C136.684 17.3647 136.384 17.3318 136.218 17.1284C136.071 16.9274 136.087 16.6287 136.296 16.4667Z" fill="black"/>
<path fill-rule="evenodd" clip-rule="evenodd" d="M133.58 8.47008C133.391 9.58963 133.201 10.7092 133.012 11.8289C132.981 12.0869 132.733 12.2594 132.472 12.2158C132.212 12.172 132.05 11.9303 132.081 11.6721C132.271 10.5507 132.461 9.42946 132.651 8.30823C132.7 8.05249 132.948 7.88124 133.208 7.92634C133.45 7.96923 133.63 8.21453 133.58 8.47008Z" fill="black"/>
</svg>
