<svg width="259" height="278" viewBox="0 0 259 278" fill="none" xmlns="http://www.w3.org/2000/svg">
<g filter="url(#filter0_d_698:8528)">
<rect x="70.4727" y="14" width="176.801" height="203.729" rx="26.1122" transform="rotate(14.9253 70.4727 14)" fill="#A9E9F5" stroke="#005C8F" stroke-width="6"/>
<g clip-path="url(#clip0_698:8528)">
<path fill-rule="evenodd" clip-rule="evenodd" d="M87.5476 50.1809C88.262 47.5011 90.0116 45.2148 92.4116 43.825C94.8116 42.4352 97.6654 42.0557 100.345 42.77L201.069 69.6182C202.398 69.97 203.644 70.5805 204.736 71.4145C205.829 72.2486 206.746 73.29 207.435 74.479C208.125 75.668 208.573 76.9813 208.754 78.3437C208.935 79.7061 208.846 81.0909 208.491 82.4187L181.643 183.143C181.29 184.471 180.679 185.717 179.844 186.81C179.01 187.902 177.968 188.819 176.778 189.508C175.589 190.197 174.275 190.645 172.913 190.826C171.55 191.007 170.165 190.918 168.837 190.563L68.1074 163.713C66.7801 163.36 65.5354 162.748 64.4446 161.913C63.3538 161.078 62.4381 160.036 61.7501 158.847C61.062 157.658 60.6149 156.345 60.4344 154.983C60.2538 153.621 60.3434 152.237 60.698 150.91L87.5476 50.1809ZM125.821 98.9494L142.198 103.315L140.006 111.539C143.63 107.441 150.811 104.798 159.898 107.22C177.32 111.864 178.938 122.382 174.333 139.66L165.801 171.666L148.171 166.967L155.653 138.897C158.276 129.056 157.392 122.874 151.389 121.274C143.061 119.054 138.001 124.117 135.494 133.523L128.012 161.593L110.376 156.892L125.821 98.9494ZM80.3412 148.08L97.977 152.78L113.423 94.8321L95.7875 90.1313L80.3427 148.074L80.3412 148.08ZM120.984 76.6046C120.615 78.1234 119.946 79.5533 119.017 80.8101C118.088 82.0669 116.917 83.1255 115.573 83.9237C114.229 84.7218 112.739 85.2435 111.191 85.458C109.642 85.6726 108.067 85.5758 106.556 85.1732C105.046 84.7706 103.631 84.0704 102.395 83.1136C101.159 82.1569 100.127 80.9628 99.3583 79.6016C98.5899 78.2404 98.1012 76.7395 97.9208 75.1868C97.7403 73.6342 97.8719 72.0611 98.3076 70.56C99.1629 67.6135 101.138 65.119 103.81 63.6108C106.482 62.1026 109.638 61.7006 112.603 62.4908C115.567 63.281 118.104 65.2007 119.671 67.8387C121.238 70.4767 121.709 73.6233 120.984 76.6046Z" fill="#005C8F"/>
</g>
<path d="M42.4562 190.98C42.5039 189.785 42.7763 188.255 43.2736 186.389L43.7118 184.745L48.0437 185.9C49.0661 186.172 49.8769 186.433 50.4524 186.688L51.1604 184.032C50.677 183.982 49.857 183.798 48.687 183.486L44.3552 182.331L45.0688 179.654L50.5495 181.115C51.4664 181.359 52.1642 181.579 52.6188 181.78C53.0734 181.98 53.3952 182.212 53.611 182.462L54.1262 177.903L41.742 174.602C41.7182 175.792 41.4535 177.336 40.945 179.244L39.3324 185.293C38.8239 187.201 38.2851 188.672 37.7133 189.716L42.4562 190.98ZM60.7763 196.191C63.0108 196.786 65.1833 196.598 66.9756 195.676C68.7679 194.754 70.2011 192.935 70.8613 190.458C71.5159 188.002 71.1812 185.7 70.0856 184.008C68.9872 182.327 67.1996 181.072 64.9652 180.476C62.7413 179.883 60.5659 180.082 58.787 180.997C56.9947 181.919 55.5587 183.748 54.9041 186.204C53.5478 191.25 56.3574 195.024 60.7763 196.191ZM61.6107 193.06C60.483 192.76 59.6707 192.081 59.171 191.033C58.6713 189.985 58.6086 188.738 58.9935 187.294C59.3784 185.85 60.0535 184.8 61.0083 184.14C61.9631 183.48 63.003 183.306 64.1308 183.606C65.2691 183.91 66.0947 184.581 66.605 185.632C67.1046 186.679 67.1673 187.926 66.7824 189.37C66.3975 190.814 65.7224 191.865 64.7676 192.525C63.8023 193.182 62.749 193.364 61.6107 193.06ZM81.9499 201.835C82.2977 201.927 82.6645 201.991 83.032 202.01C83.3995 202.029 83.7515 202.021 84.0747 201.995C84.3979 201.968 84.5806 201.96 84.6255 201.961L85.8589 197.673C84.8626 197.938 83.5438 197.846 81.9101 197.41L76.988 196.098L78.7973 189.311C79.3002 187.424 79.8256 185.961 80.3791 184.901L75.6362 183.636C75.6125 184.827 75.3477 186.37 74.8392 188.278L73.2266 194.328C72.6704 196.415 72.1035 197.991 71.5261 199.056C72.9152 198.885 74.3527 198.997 75.8283 199.39C76.7242 199.629 77.7866 200.048 78.9945 200.641C80.2024 201.233 81.191 201.632 81.9499 201.835ZM97.7798 206.054C98.1276 206.147 98.4944 206.211 98.8619 206.23C99.2294 206.249 99.5814 206.241 99.9046 206.214C100.228 206.187 100.41 206.18 100.455 206.18L101.689 201.892C100.693 202.157 99.3737 202.065 97.74 201.63L92.8179 200.318L94.6272 193.53C95.1301 191.643 95.6555 190.181 96.209 189.12L91.4661 187.856C91.4424 189.046 91.1776 190.59 90.6691 192.498L89.0565 198.547C88.5003 200.634 87.9334 202.21 87.356 203.276C88.745 203.104 90.1826 203.216 91.6582 203.61C92.5541 203.848 93.6165 204.267 94.8244 204.86C96.0323 205.453 97.0209 205.852 97.7798 206.054ZM109.889 209.282C112.124 209.878 114.296 209.689 116.088 208.767C117.881 207.845 119.314 206.026 119.974 203.549C120.629 201.093 120.294 198.791 119.198 197.099C118.1 195.418 116.312 194.163 114.078 193.567C111.854 192.974 109.679 193.173 107.9 194.088C106.107 195.01 104.672 196.84 104.017 199.295C102.661 204.341 105.47 208.115 109.889 209.282ZM110.724 206.152C109.596 205.851 108.783 205.172 108.284 204.124C107.784 203.077 107.721 201.829 108.106 200.385C108.491 198.941 109.166 197.891 110.121 197.231C111.076 196.571 112.116 196.397 113.244 196.697C114.382 197.001 115.208 197.673 115.718 198.723C116.217 199.77 116.28 201.018 115.895 202.462C115.51 203.906 114.835 204.956 113.88 205.616C112.915 206.273 111.862 206.455 110.724 206.152ZM127.74 213.713L132.912 204.728L133.133 204.787L133.136 215.151L138.469 216.573C138.788 215.292 139.375 213.766 140.239 212.01L143.451 206.567C144.43 204.672 145.267 203.269 145.955 202.38L141.202 201.113C141.063 201.675 140.694 202.637 140.069 204.006L137.371 208.581C136.926 209.49 136.594 210.225 136.366 210.785L136.123 210.721L136.027 199.734L132.938 198.911L127.344 208.381L127.122 208.322C127.195 207.754 127.276 206.94 127.353 205.888L127.285 200.598C127.373 199.335 127.521 198.313 127.732 197.523L122.989 196.258C123.184 197.518 123.214 199.141 123.077 201.136L123.138 207.474C123.03 209.443 122.794 211.051 122.417 212.294L127.74 213.713ZM157.916 222.084C160.182 222.688 162.105 222.591 163.67 221.8C165.225 221.007 166.284 219.573 166.838 217.497L168.007 213.112C168.515 211.204 169.054 209.734 169.626 208.69L164.872 207.423C164.83 208.642 164.551 210.193 164.054 212.059L163.161 215.41C162.866 216.517 162.348 217.316 161.618 217.81C160.878 218.301 160.003 218.407 158.991 218.137C157.99 217.87 157.305 217.349 156.917 216.557C156.53 215.765 156.479 214.814 156.774 213.708L157.667 210.356C158.19 208.396 158.707 206.919 159.234 205.92L154.491 204.655C154.489 205.761 154.225 207.305 153.694 209.297L152.525 213.682C151.943 215.863 152.25 217.762 153.258 219.149C154.263 220.545 155.851 221.533 157.916 222.084ZM175.506 226.772C176.887 227.14 178.155 227.298 179.312 227.234C180.456 227.177 181.426 226.883 182.236 226.342C183.043 225.813 183.571 225.061 183.832 224.081C184.501 221.573 182.79 220.157 180.737 219.091C178.173 217.786 175.089 217.032 175.501 215.528C175.74 214.632 177.059 214.509 178.988 215.023C180.042 215.304 181.036 215.727 181.982 216.284C182.929 216.841 183.645 217.416 184.154 218.003L185.312 213.661C184.702 213.194 183.903 212.721 182.923 212.245C181.933 211.767 180.928 211.386 179.896 211.111C175.944 210.013 172.39 211.063 171.671 213.931C170.134 219.696 180.599 219.991 179.945 222.447C179.665 223.411 178.18 223.478 176.383 222.976C175.171 222.653 173.996 222.148 172.837 221.455C171.679 220.763 170.765 219.955 170.083 219.039L168.696 223.523C169.546 224.145 170.632 224.773 171.964 225.41C173.295 226.048 174.474 226.497 175.506 226.772Z" fill="#005C8F"/>
</g>
<defs>
<filter id="filter0_d_698:8528" x="0.837402" y="0.83728" width="257.634" height="276.718" filterUnits="userSpaceOnUse" color-interpolation-filters="sRGB">
<feFlood flood-opacity="0" result="BackgroundImageFix"/>
<feColorMatrix in="SourceAlpha" type="matrix" values="0 0 0 0 0 0 0 0 0 0 0 0 0 0 0 0 0 0 127 0" result="hardAlpha"/>
<feOffset dy="4"/>
<feGaussianBlur stdDeviation="10"/>
<feComposite in2="hardAlpha" operator="out"/>
<feColorMatrix type="matrix" values="0 0 0 0 0 0 0 0 0 0 0 0 0 0 0 0 0 0 0.25 0"/>
<feBlend mode="normal" in2="BackgroundImageFix" result="effect1_dropShadow_698:8528"/>
<feBlend mode="normal" in="SourceGraphic" in2="effect1_dropShadow_698:8528" result="shape"/>
</filter>
<clipPath id="clip0_698:8528">
<rect width="136.545" height="136.545" fill="white" transform="translate(86.2086 33.1139) rotate(14.9253)"/>
</clipPath>
</defs>
</svg>
