<svg width="287" height="327" viewBox="0 0 287 327" fill="none" xmlns="http://www.w3.org/2000/svg">
<g filter="url(#filter0_d_1231:4299)">
<path d="M82.4624 57.8994C82.418 56.3308 82.814 54.7813 83.6054 53.4263C85.9337 49.5273 90.7092 49.2443 91.1699 49.2244C93.8338 35.9258 103.759 25.7507 115.862 23.6699C125.039 22.0977 136.387 25.0258 143.004 33.5216C146.382 37.8589 147.575 42.4258 148.052 45.2338C148.506 45.1558 150.714 44.8277 152.7 46.2723C153.601 46.9351 154.299 47.8362 154.716 48.8742L184.935 45.5111C185.604 45.2493 187.709 44.5262 190.134 45.3207C193.907 46.557 195.081 50.3585 195.187 50.7211C203.456 61.4605 207.076 70.4592 208.807 76.0861C209.527 78.4229 210.179 81.0224 210.421 82.007C212.136 88.9538 213.256 96.0342 213.769 103.171C214.549 114.043 216.484 124.801 217.652 135.638C218.716 145.474 220.322 159.649 222.589 177.238C224.014 189.169 225.439 201.101 226.864 213.032C228.499 216.528 228.024 220.582 225.655 223.363C222.823 226.687 218.634 226.614 218.081 226.589C209.844 227.845 197.356 229.749 182.132 232.096C144.454 237.897 134.392 239.53 116.752 242.155C103.236 244.167 83.7951 246.978 60.0039 250.131C59.7727 250.238 54.7804 252.493 50.1929 249.372C48.7521 248.389 47.5962 247.043 46.8415 245.47C46.0869 243.897 45.7602 242.153 45.8945 240.414C47.83 229.749 49.1735 218.985 49.9191 208.171C51.0777 191.436 50.4178 179.164 49.0528 155.303C47.6386 130.609 46.8648 117.963 43.6092 103.251C41.2895 92.767 38.1866 82.4717 34.3266 72.4518C34.3428 71.4797 34.5153 68.2084 36.9945 65.4307C40.7923 61.1755 46.5377 61.9598 46.9941 62.0297L82.4624 57.8994Z" fill="#FFF5F1"/>
<path d="M43.5504 229.842L43.5487 229.855L43.5472 229.868L43.5472 229.868L43.5471 229.869L43.5471 229.869L43.5463 229.875L43.5425 229.907C43.5389 229.936 43.5334 229.981 43.5258 230.041C43.5107 230.161 43.4875 230.341 43.4562 230.575C43.3935 231.042 43.2983 231.72 43.1698 232.553C42.9121 234.222 42.5232 236.494 41.9977 238.918C41.4699 241.353 40.8172 243.881 40.0431 246.082C39.241 248.363 38.4179 249.97 37.6878 250.82L40.2138 252.989L37.6878 250.82C37.5999 250.922 37.2914 251.189 36.2108 251.305C35.139 251.42 33.9047 251.333 32.395 251.226L32.2961 251.219C31.5795 251.168 30.7746 251.114 30.0174 251.114C29.2865 251.114 28.3679 251.16 27.4741 251.417C26.5513 251.681 25.3386 252.267 24.551 253.567C23.7752 254.848 23.775 256.226 23.9723 257.302C24.1343 258.186 24.4152 259.933 24.7871 262.247C24.9156 263.047 25.0549 263.914 25.2039 264.836C25.7781 268.389 26.4853 272.691 27.2367 276.874C27.9856 281.043 28.789 285.154 29.5586 288.307C29.9403 289.87 30.3357 291.291 30.7381 292.393C30.9358 292.934 31.1744 293.509 31.4654 294.018C31.6114 294.274 31.8143 294.591 32.0864 294.9C32.3379 295.186 32.8058 295.648 33.523 295.947C36.1058 297.026 46.9528 300.428 57.6331 298.448C60.527 297.912 63.8327 297.218 67.3414 296.483C76.1439 294.637 86.2244 292.522 94.2886 291.944L128.848 289.463C134.008 289.093 137.09 289.697 139.949 290.256C140.764 290.416 141.561 290.572 142.383 290.701C144.297 291.001 146.317 291.127 148.676 290.581C150.983 290.047 153.386 288.924 156.211 287.08C160.979 283.968 167.783 281.744 175.403 279.812C178.697 278.976 182.061 278.214 185.409 277.456C185.897 277.345 186.384 277.235 186.87 277.125C190.673 276.261 194.439 275.389 197.903 274.428C204.471 272.605 211.123 271.444 217.309 270.445C218.159 270.308 219.004 270.173 219.84 270.04C224.996 269.218 229.851 268.444 233.752 267.412C236.75 266.619 239.86 265.89 242.901 265.177C244.202 264.872 245.491 264.57 246.752 264.267C250.84 263.286 254.757 262.272 257.455 261.144C259.712 260.2 261.064 258.374 261.831 256.456C262.575 254.596 262.858 252.457 262.933 250.366C263.084 246.194 262.422 241.211 261.84 236.876C260.977 230.451 255.683 227.665 251.274 226.049C249.647 225.453 247.874 224.924 246.235 224.436C245.617 224.252 245.018 224.074 244.454 223.9C242.263 223.224 240.464 222.579 239.085 221.788C237.297 220.763 236.432 220.255 235.944 219.907C235.921 219.891 235.901 219.876 235.882 219.863C235.863 219.802 235.84 219.729 235.81 219.632L235.81 219.631C235.712 219.319 235.575 218.879 235.369 218.331C234.952 217.222 234.297 215.788 233.116 213.781C232.537 212.796 231.969 211.064 231.47 208.463C230.985 205.932 230.616 202.879 230.28 199.449C230.086 197.469 229.904 195.361 229.716 193.179C229.262 187.929 228.771 182.255 227.997 176.936C227.417 172.95 226.933 169.607 226.473 166.431C225.685 160.992 224.969 156.046 223.964 149.211C223.088 143.252 221.953 135.626 221.038 129.491C220.581 126.423 220.178 123.728 219.889 121.799L219.55 119.531L219.458 118.921L219.435 118.763L219.429 118.722L219.427 118.712L219.427 118.71L219.427 118.709L219.426 118.705L216.183 97.2526L216.183 97.2469C216.18 97.0951 216.176 96.8741 216.169 96.592C216.155 96.0279 216.132 95.2185 216.094 94.2281C216.018 92.2501 215.882 89.5375 215.641 86.6091C215.4 83.6889 215.051 80.5076 214.543 77.6058C214.048 74.7828 213.354 71.9252 212.308 69.8322C208.974 63.1643 206.15 58.2891 201.844 51.1968C201.518 50.6609 201.214 50.1502 200.93 49.6738C200.355 48.7099 199.864 47.8872 199.456 47.2833C198.798 46.3109 197.919 45.209 196.435 44.5908C195.232 44.0895 193.91 44.058 192.956 44.0353C192.918 44.0344 192.88 44.0335 192.843 44.0325C192.707 44.0292 192.567 44.026 192.423 44.0228C191.353 43.9987 190.031 43.9689 188.194 43.8114C179.53 43.0688 170.456 43.8247 163.621 44.7419C160.705 45.1333 158.171 45.5576 156.218 45.9169C156.088 44.5451 155.718 43.2466 154.958 42.1006C153.658 40.1418 151.645 39.244 149.649 38.7525C149.547 38.5674 149.435 38.3677 149.314 38.1553C148.613 36.9258 147.595 35.2473 146.326 33.4522C143.886 30.0023 140.136 25.566 135.547 23.533C127.515 19.9747 118.602 19.97 114.337 19.9678L114.211 19.9678L114.145 19.9677C109.186 19.9646 102.787 21.3548 97.3714 28.0485C93.8677 32.3791 91.3094 36.4456 89.6222 39.4384C88.8324 40.8393 88.2311 42.0094 87.8108 42.8669C84.6323 43.5865 82.7943 44.1565 81.6931 44.6183C81.0919 44.8704 80.4335 45.2005 79.8958 45.6985C79.6272 45.9471 79.2638 46.3516 79.0132 46.9377C79.0057 46.952 78.9979 46.9668 78.9899 46.9821C78.8959 47.1623 78.767 47.4154 78.6177 47.7258C78.3213 48.3418 77.9324 49.2072 77.5731 50.1917C77.2361 51.1149 76.8988 52.2137 76.7037 53.3541C76.0331 53.3723 75.2762 53.394 74.4486 53.4194C71.1105 53.522 66.6143 53.6852 61.9946 53.9279C57.3855 54.17 52.6073 54.4936 48.7217 54.9208C46.7843 55.1338 45.0101 55.3787 43.565 55.6646C42.8436 55.8073 42.1534 55.97 41.5406 56.1605C40.9809 56.3344 40.2586 56.5987 39.6208 57.0276C37.6443 58.3565 36.4487 59.3951 35.7332 60.2837C35.4287 60.6618 35.143 61.0958 34.9412 61.5913C34.93 61.6072 34.9186 61.6235 34.9071 61.64C34.6683 61.9822 34.3442 62.4636 33.9998 63.0255C33.3651 64.0609 32.4538 65.6978 32.0694 67.3297C31.4789 69.8362 32.0424 72.6713 32.5152 74.4678C32.7731 75.448 33.0564 76.3041 33.2749 76.9154C33.3848 77.2228 33.4799 77.4727 33.5495 77.6506C33.5588 77.6745 33.5677 77.6971 33.5761 77.7184L37.2779 91.8793L37.3273 92.0684L37.3985 92.2503L37.3985 92.2503L37.3986 92.2505L37.3986 92.2506L37.3995 92.2528L37.4036 92.2634L37.4212 92.3085C37.4369 92.349 37.4605 92.4099 37.4912 92.4895C37.5525 92.6486 37.6419 92.8819 37.7527 93.1746C37.9744 93.7605 38.2804 94.5812 38.6167 95.5179C39.2988 97.4174 40.0702 99.6971 40.5315 101.459C41.0565 103.463 41.5372 106.161 41.893 108.432C42.0684 109.552 42.2092 110.54 42.306 111.247C42.3543 111.601 42.3916 111.883 42.4166 112.076C42.4291 112.172 42.4386 112.246 42.4448 112.295L42.4517 112.35L42.4533 112.363L44.2028 127.66L46.0198 148.884L46.0278 161.594L46.0396 180.242L46.0584 210.037L43.5504 229.842Z" fill="#FFF5F1" stroke="#C33D59" stroke-width="6.65862"/>
<path d="M52.8339 231.998L52.8339 221.665L76.1063 213.31L216.484 192.665L221.93 197.221L223.19 208.309L219.419 218.045L117.346 229.821L52.8339 231.998Z" fill="#FFF5F1"/>
<path d="M149.16 58.1121L187.233 55.0129C191.399 62.9466 195.566 70.8798 199.734 78.8126C204.981 105.902 208.311 128.431 210.477 145.303C213.15 166.129 215.025 185.971 215.863 194.858C216.755 204.312 217.416 212.124 217.848 217.406C176.933 224.689 149.306 228.492 131.291 230.63C125.461 231.322 109.47 233.166 87.672 236.322C74.0293 238.298 62.8805 240.096 55.5886 241.309C61.1127 208.161 61.6976 180.572 61.0347 160.788C60.1115 133.449 56.6034 115.368 55.5831 110.321C52.9223 97.1609 49.3025 84.2132 44.7527 71.5814L92.6257 66.5297L92.3016 58.6868L101.772 58.0979L148.287 54.5205C148.579 55.716 148.87 56.9132 149.16 58.1121Z" stroke="black" stroke-width="2.73958" stroke-miterlimit="10"/>
<path d="M92.7104 66.8591L93.6788 83.6802L151.078 79.6799L149.435 58.4541" stroke="black" stroke-width="2.73958" stroke-miterlimit="10"/>
<path d="M187.118 55.9666C184.98 62.3012 182.996 69.1597 181.308 76.5069C180.729 79.0276 180.205 81.5045 179.738 83.9376C183.468 82.6548 187.243 81.3166 191.066 79.9229C193.531 79.0223 195.966 78.1159 198.371 77.2037" stroke="black" stroke-width="2.73958" stroke-miterlimit="10"/>
<path d="M101.896 164.258C110.262 166.464 116.929 168.265 121.294 169.451C129.875 171.786 131.492 172.276 134.686 172.516C138.636 172.811 146.081 173.37 153.51 169.701C159.635 166.676 160.23 163.499 166.832 161.61C171.346 160.317 175.018 160.673 175.919 160.774C184.106 161.695 189.205 166.918 190.352 168.154C194.58 172.713 195.689 177.622 196.636 181.794C197.572 185.922 198.958 192.046 196.565 198.63C194.265 204.953 189.719 208.289 183.672 212.726C181.315 214.456 174.126 219.473 163.161 222.614C154.854 224.995 148.378 225.151 140.489 225.339C135.233 225.465 127.703 225.604 118.064 223.843C109.535 222.282 103.094 221.096 95.9473 216.467C92.3301 214.121 86.1692 210.011 82.6557 202.054C81.0388 198.355 80.1913 194.365 80.1649 190.328C80.1442 187.361 80.0895 179.944 85.3466 173.309C91.3014 165.797 99.8951 164.503 101.896 164.258Z" stroke="black" stroke-width="2.73958" stroke-miterlimit="10"/>
<path d="M109.694 167.496C109.906 180.431 110.021 193.364 110.04 206.295C110.047 211.296 110.04 216.297 110.018 221.298" stroke="black" stroke-width="2.73958" stroke-miterlimit="10"/>
<path d="M139.778 173.792C141.147 190.647 142.519 207.501 143.895 224.354" stroke="black" stroke-width="2.73958" stroke-miterlimit="10"/>
<path d="M170.152 161.978C171.23 171.295 172.345 180.606 173.498 189.911C174.58 198.658 175.695 207.399 176.844 216.136" stroke="black" stroke-width="2.73958" stroke-miterlimit="10"/>
<path d="M99.5529 157.746C117.218 156.478 130.511 141.129 129.244 123.464C127.976 105.798 112.627 92.5052 94.9614 93.7731C77.2959 95.041 64.0029 110.39 65.2708 128.055C66.5388 145.721 81.8874 159.014 99.5529 157.746Z" stroke="black" stroke-width="2.73958" stroke-miterlimit="10"/>
<path d="M163.527 153.154C181.193 151.886 194.486 136.538 193.218 118.872C191.95 101.207 176.601 87.9136 158.936 89.1815C141.27 90.4495 127.977 105.798 129.245 123.464C130.513 141.129 145.862 154.422 163.527 153.154Z" stroke="black" stroke-width="2.73958" stroke-miterlimit="10"/>
<path d="M91.3153 95.0095C94.2263 95.9518 99.9751 98.2643 104.813 103.797C109.964 109.695 111.218 115.941 112.026 120.11C112.871 124.497 114.657 133.476 110.148 143.235C106.365 151.42 100.124 155.907 97.0038 157.827C92.5707 157.788 88.1933 156.835 84.1446 155.029C73.9401 150.452 69.4808 141.946 68.5072 139.979C66.3721 135.661 65.2369 130.917 65.1861 126.1C65.1352 121.283 66.17 116.516 68.2135 112.154C70.257 107.792 73.2568 103.946 76.9902 100.901C80.7236 97.8572 85.0947 95.6929 89.779 94.5693L91.3153 95.0095Z" fill="black" stroke="black" stroke-width="2.73958" stroke-miterlimit="10"/>
<path d="M155.288 90.4179C158.199 91.3602 163.948 93.6727 168.785 99.2057C173.941 105.103 175.19 111.349 175.994 115.519C176.839 119.906 178.625 128.884 174.116 138.643C170.332 146.829 164.092 151.315 160.971 153.236C156.538 153.197 152.16 152.244 148.111 150.438C137.908 145.861 133.445 137.355 132.476 135.387C130.341 131.069 129.205 126.325 129.155 121.508C129.104 116.69 130.139 111.923 132.183 107.561C134.226 103.198 137.227 99.3523 140.961 96.3082C144.695 93.2642 149.067 91.1005 153.752 89.9777L155.288 90.4179Z" fill="black" stroke="black" stroke-width="2.73958" stroke-miterlimit="10"/>
<path d="M61.1826 166.397C61.6001 166.356 60.1587 181.664 68.5665 199.394C71.8766 206.38 78.5966 220.56 94.3952 227.907C105.245 232.953 115.505 232.512 120.793 231.884L76.9093 237.914C75.3601 234.732 73.3848 230.405 71.3925 225.174C59.4193 193.774 60.6241 166.451 61.1826 166.397Z" fill="black"/>
<path d="M109.674 67.3792C108.723 71.0909 107.811 74.8309 106.844 78.9271C106.546 80.1868 106.012 82.5622 106.58 85.44C106.866 86.8884 107.171 88.3281 108.406 89.2426C110.034 90.4466 112.516 90.1729 114.065 89.1064C115.999 87.7733 116.368 85.2952 116.545 84.1719C117.299 79.4103 118.689 73.0542 120.724 64.6634C118.601 62.5507 116.608 60.3109 114.756 57.9565C111.34 53.6279 111.088 52.3157 111.009 51.6395C110.614 48.2943 112.638 44.1437 116.479 42.466C120.849 40.557 124.853 43.0377 125.131 43.2172C125.48 43.4417 128.68 45.5706 129.229 49.3263C129.648 52.1945 128.309 54.5656 126.456 57.8488C125.794 59.0212 125.05 60.1446 124.228 61.2104C125.987 65.4196 127.991 69.5219 130.231 73.4964C132.304 77.1732 134.574 80.7353 137.031 84.1668C137.933 84.4293 139.734 84.8087 141.79 84.1919C142.555 83.9614 143.527 83.6696 144.253 82.8209C145.914 80.8925 144.795 77.825 144.7 77.575L135.49 62.6913C137.065 60.8188 138.249 58.65 138.973 56.3127C139.84 53.4242 139.997 50.3693 139.431 47.407C138.093 40.406 133.144 36.5064 132.388 35.9301C126.418 31.3764 119.867 32.0854 118.582 32.2564C112.278 33.0672 108.348 36.8506 106.864 38.4941C103.413 42.3147 102.5 46.4166 102.155 48.0703C101.721 50.1398 100.731 54.8599 103.102 59.9848C105.024 64.1602 108.181 66.4414 109.674 67.3792Z" fill="#FFF5F1" stroke="black" stroke-width="2.73958" stroke-miterlimit="10"/>
<path d="M48.8654 284.459C48.2033 282.865 47.6458 280.689 47.2018 277.902L46.506 273.536L46.7372 273.499L53.2576 283.759L54.9913 283.482L58.0002 271.704L58.3084 271.655L59.0041 276.022C59.4298 278.693 59.5783 280.947 59.4606 282.77L66.6653 281.622C65.9868 279.926 65.4273 277.737 65.0016 275.066L64.1892 269.967C63.7615 267.283 63.613 265.029 63.7308 263.206L55.6271 264.497L53.8187 272.239C53.6709 272.881 53.5606 273.347 53.5096 273.605C53.3968 274.137 53.2575 275.081 53.2049 276.156L52.9095 276.203C52.4279 275.081 51.8185 273.901 51.0575 272.679L46.9583 265.879L38.7262 267.19C39.3796 268.811 39.9262 271.002 40.3662 273.764L41.1786 278.862C41.6165 281.61 41.7779 283.863 41.6607 285.607L48.8654 284.459ZM74.1348 280.814C76.7162 280.403 78.2795 279.14 78.7531 277.484L79.0485 277.437L79.0853 277.668C79.2204 278.516 79.1814 279.18 78.9685 279.662L85.6723 278.594C85.3239 277.978 85.045 277.219 84.8098 276.321C84.5746 275.424 84.3166 274.135 84.0505 272.465L83.6945 270.231C83.1563 266.853 80.1142 265.613 74.5534 266.499C73.5003 266.667 72.3331 266.945 71.0667 267.344C69.7874 267.745 68.8698 268.102 68.301 268.417L68.9006 272.18C69.3082 271.68 69.9465 271.223 70.8153 270.808C71.6713 270.395 72.6249 270.098 73.6651 269.932C74.8338 269.746 75.8507 269.848 76.718 270.249C77.5725 270.653 78.0785 271.349 78.2402 272.364L78.4244 273.52L78.0776 273.575C77.1339 272.198 75.2642 271.455 72.7342 271.859C71.0261 272.131 69.758 272.767 68.9447 273.779C68.1315 274.791 67.8262 275.933 68.0288 277.204C68.1597 278.026 68.4839 278.738 68.9864 279.33C69.9954 280.539 71.8616 281.176 74.1348 280.814ZM76.3739 277.428C74.8328 277.674 73.7591 277.134 73.6097 276.196C73.4542 275.22 74.3002 274.414 75.8541 274.166C76.6119 274.046 77.2529 274.102 77.7663 274.349C78.2798 274.596 78.5724 274.945 78.644 275.394C78.8016 276.383 77.9279 277.181 76.3739 277.428ZM95.0474 277.1C94.7621 276.632 94.475 275.822 94.1901 274.695C93.9053 273.568 93.6963 272.588 93.5633 271.753L93.3371 270.498C93.2 269.638 93.3679 268.874 93.8281 268.208C94.2882 267.542 94.9732 267.13 95.8593 266.989C97.5674 266.716 98.7635 267.777 99.0521 269.588L99.2444 270.795C99.5473 272.696 99.6344 274.565 99.5167 276.388L106.721 275.24C106.023 273.586 105.492 271.577 105.116 269.214L104.893 267.814C104.596 265.952 103.849 264.57 102.639 263.67C101.429 262.769 99.8533 262.467 97.9141 262.776C95.307 263.192 93.7312 264.707 93.1845 267.309L92.8635 267.361L92.8082 267.014C92.6261 265.871 92.7125 264.843 93.0547 263.933L85.7344 265.099C86.3965 266.692 86.911 268.599 87.265 270.821L87.6088 272.978C87.7827 274.07 87.8767 274.99 87.9034 275.736C87.9322 276.495 87.907 277.329 87.8299 278.25L95.0474 277.1ZM114.05 274.454C116.631 274.043 118.194 272.779 118.668 271.124L118.963 271.077L119 271.308C119.135 272.155 119.096 272.82 118.883 273.302L125.587 272.234C125.239 271.617 124.96 270.859 124.725 269.961C124.489 269.064 124.231 267.775 123.965 266.105L123.609 263.871C123.071 260.493 120.029 259.253 114.468 260.139C113.415 260.306 112.248 260.585 110.981 260.984C109.702 261.385 108.785 261.742 108.216 262.057L108.815 265.82C109.223 265.32 109.861 264.863 110.73 264.448C111.586 264.035 112.54 263.738 113.58 263.572C114.749 263.386 115.766 263.487 116.633 263.889C117.487 264.293 117.993 264.989 118.155 266.004L118.339 267.16L117.992 267.215C117.049 265.838 115.179 265.095 112.649 265.498C110.941 265.771 109.673 266.407 108.86 267.419C108.046 268.431 107.741 269.573 107.944 270.844C108.075 271.666 108.399 272.378 108.901 272.97C109.91 274.178 111.776 274.816 114.05 274.454ZM116.289 271.068C114.748 271.314 113.674 270.774 113.525 269.836C113.369 268.86 114.215 268.054 115.769 267.806C116.527 267.686 117.168 267.741 117.681 267.989C118.195 268.236 118.487 268.585 118.559 269.034C118.716 270.023 117.843 270.821 116.289 271.068ZM136.599 276.629C141.774 275.804 146.08 272.827 145.396 268.537C145.286 267.844 144.998 267.192 144.547 266.592L143.918 262.649C143.493 259.978 143.344 257.724 143.462 255.901L136.283 257.045C136.623 257.609 136.855 258.073 137.006 258.444C137.147 258.83 137.263 259.311 137.355 259.889L137.402 260.185L137.055 260.24C135.817 258.172 133.681 257.077 130.958 257.511C128.916 257.837 127.41 258.88 126.639 260.32C125.854 261.761 125.609 263.526 125.918 265.465C126.227 267.404 127.004 268.979 128.196 270.093C129.377 271.222 131.13 271.732 133.172 271.407C135.959 270.963 137.629 269.209 138.111 266.867L138.407 266.82C139.036 267.299 139.404 267.872 139.513 268.553C139.699 269.722 139.367 270.696 138.532 271.488C137.694 272.267 136.474 272.79 134.895 273.042C133.508 273.263 132.062 273.283 130.556 273.088C129.05 272.893 127.858 272.517 126.979 271.959L127.801 276.951C128.866 277.11 130.217 277.158 131.853 277.095C133.489 277.032 135.07 276.872 136.599 276.629ZM135.184 267.254C134.195 267.412 133.364 267.241 132.69 266.73C132.003 266.22 131.587 265.51 131.44 264.585C131.289 263.635 131.459 262.804 131.954 262.106C132.435 261.411 133.172 260.991 134.161 260.833C135.124 260.679 135.931 260.867 136.605 261.378C137.279 261.89 137.686 262.628 137.836 263.566C137.977 264.452 137.802 265.257 137.31 265.967C136.817 266.678 136.108 267.107 135.184 267.254ZM156.52 267.687C157.817 267.48 159.109 267.156 160.384 266.729C161.657 266.289 162.612 265.834 163.261 265.361L162.468 261.05C162.066 261.667 161.402 262.207 160.475 262.671C159.548 263.135 158.545 263.453 157.479 263.623C156.092 263.844 154.836 263.728 153.712 263.288C152.576 262.85 151.898 262.234 151.667 261.441L151.852 261.28C153.421 262.123 155.212 262.206 157.473 261.846C160.902 261.3 162.674 259.779 162.287 257.352C162.13 256.363 161.68 255.526 160.792 254.825C159.525 253.815 157.249 253.335 153.908 253.854C151.147 254.294 148.998 255.44 147.814 256.932C146.619 258.44 146.131 260.256 146.436 262.169C146.768 264.25 147.845 265.803 149.678 266.815C151.512 267.826 153.785 268.122 156.52 267.687ZM154.947 260.708C153.573 260.927 152.48 260.758 151.654 260.205C151.653 259.455 151.899 258.849 152.364 258.38C152.831 257.924 153.417 257.633 154.11 257.522C155.664 257.275 156.747 257.787 156.913 258.827C156.984 259.277 156.823 259.671 156.432 260.023C156.042 260.388 155.551 260.611 154.947 260.708ZM172.822 264.707C172.522 264.228 172.235 263.418 171.948 262.278C171.65 261.154 171.441 260.173 171.312 259.364L171.112 258.106C170.971 257.219 171.1 256.461 171.483 255.808C171.868 255.167 172.504 254.776 173.364 254.639C175.06 254.369 176.008 255.442 176.3 257.279L176.493 258.486C176.706 259.822 176.85 260.892 176.936 261.681C177.012 262.486 177.019 263.275 176.97 264.046L183.944 262.935C183.266 261.239 182.755 259.358 182.428 257.303L182.256 256.225C182.144 255.439 182.303 254.703 182.712 254.045C183.121 253.387 183.716 252.989 184.525 252.861C186.181 252.597 187.129 253.67 187.422 255.507L187.614 256.714C187.936 258.73 188.021 260.587 187.887 262.307L195.091 261.159C194.429 259.565 193.898 257.556 193.512 255.129L193.289 253.729C192.718 250.146 190.728 247.987 186.785 248.616C183.972 249.064 182.203 250.768 181.747 253.198L181.426 253.249C180.364 251.048 178.649 249.952 175.663 250.388C173.069 250.801 171.506 252.314 170.959 254.917L170.638 254.968L170.583 254.621C170.401 253.478 170.487 252.45 170.83 251.54L163.509 252.706C164.171 254.3 164.686 256.206 165.04 258.428L165.384 260.585C165.558 261.677 165.652 262.597 165.678 263.343C165.707 264.103 165.682 264.936 165.605 265.857L172.822 264.707ZM205.938 259.812C207.236 259.605 208.527 259.281 209.802 258.854C211.075 258.414 212.03 257.959 212.679 257.487L211.887 253.175C211.485 253.793 210.82 254.333 209.893 254.797C208.966 255.261 207.963 255.578 206.898 255.748C205.511 255.969 204.254 255.853 203.131 255.413C201.994 254.976 201.317 254.359 201.085 253.567L201.27 253.405C202.84 254.248 204.631 254.332 206.891 253.972C210.32 253.425 212.092 251.905 211.706 249.478C211.548 248.489 211.099 247.652 210.21 246.95C208.943 245.941 206.667 245.461 203.326 245.98C200.565 246.42 198.417 247.565 197.232 249.058C196.037 250.565 195.55 252.381 195.854 254.295C196.186 256.375 197.263 257.929 199.097 258.94C200.93 259.952 203.203 260.248 205.938 259.812ZM204.366 252.833C202.991 253.052 201.898 252.884 201.072 252.331C201.071 251.58 201.317 250.975 201.782 250.506C202.25 250.049 202.835 249.759 203.529 249.648C205.083 249.4 206.165 249.913 206.331 250.953C206.403 251.402 206.242 251.797 205.85 252.149C205.46 252.514 204.969 252.737 204.366 252.833ZM222.241 256.833C221.955 256.365 221.668 255.554 221.383 254.428C221.098 253.301 220.89 252.32 220.757 251.486L220.53 250.231C220.393 249.371 220.561 248.606 221.021 247.941C221.481 247.275 222.166 246.863 223.053 246.721C224.761 246.449 225.957 247.51 226.245 249.32L226.438 250.528C226.74 252.428 226.828 254.298 226.71 256.121L233.915 254.973C233.217 253.319 232.686 251.31 232.309 248.947L232.086 247.547C231.789 245.685 231.042 244.303 229.832 243.402C228.622 242.502 227.046 242.2 225.107 242.509C222.5 242.925 220.924 244.44 220.378 247.042L220.057 247.093L220.001 246.747C219.819 245.604 219.906 244.576 220.248 243.665L212.928 244.832C213.59 246.425 214.104 248.332 214.458 250.553L214.802 252.711C214.976 253.803 215.07 254.723 215.097 255.469C215.125 256.228 215.1 257.062 215.023 257.983L222.241 256.833ZM243.58 253.814C244.145 253.724 244.724 253.553 245.318 253.314C245.899 253.076 246.382 252.802 246.745 252.52L246.008 247.896C245.695 248.328 244.931 248.74 244.199 248.856C243.493 248.969 242.857 248.86 242.301 248.514C241.747 248.18 241.409 247.628 241.289 246.871L240.55 242.235L244.839 241.551L244.559 239.792L240.27 240.475L239.431 235.21L234.114 237.545L234.722 241.359L232.384 241.732L232.665 243.491L235.002 243.119L236.08 249.887C236.61 253.213 239.111 254.526 243.58 253.814Z" fill="black"/>
</g>
<defs>
<filter id="filter0_d_1231:4299" x="0.573038" y="0.6701" width="285.672" height="325.667" filterUnits="userSpaceOnUse" color-interpolation-filters="sRGB">
<feFlood flood-opacity="0" result="BackgroundImageFix"/>
<feColorMatrix in="SourceAlpha" type="matrix" values="0 0 0 0 0 0 0 0 0 0 0 0 0 0 0 0 0 0 127 0" result="hardAlpha"/>
<feOffset dy="3.99208"/>
<feGaussianBlur stdDeviation="9.9802"/>
<feComposite in2="hardAlpha" operator="out"/>
<feColorMatrix type="matrix" values="0 0 0 0 0 0 0 0 0 0 0 0 0 0 0 0 0 0 0.25 0"/>
<feBlend mode="normal" in2="BackgroundImageFix" result="effect1_dropShadow_1231:4299"/>
<feBlend mode="normal" in="SourceGraphic" in2="effect1_dropShadow_1231:4299" result="shape"/>
</filter>
</defs>
</svg>
