<svg width="375" height="45" viewBox="0 0 375 45" fill="none" xmlns="http://www.w3.org/2000/svg">
<path d="M13.7031 34C12.9766 30.9766 12.6016 26.9453 12.6016 21.8594V13.8906H13.0234L21.7188 34H24.8828L33.5781 13.8906H34.1406V21.8594C34.1406 26.7344 33.7656 30.7891 33.0391 34H46.1875C45.4609 30.7891 45.0859 26.7344 45.0859 21.8594V12.5547C45.0859 7.65625 45.4609 3.60156 46.1875 0.390625H31.3984L25.9844 13.6562C25.5391 14.7578 25.2109 15.5547 25.0469 16C24.6953 16.9141 24.1797 18.5547 23.7812 20.4531H23.2422C22.7031 18.3203 21.9531 16.0469 20.9453 13.6562L15.5781 0.390625H0.554688C1.25781 3.46094 1.60938 7.51562 1.60938 12.5547V21.8594C1.60938 26.875 1.25781 30.9297 0.554688 34H13.7031ZM59.7109 34.6797C64.4219 34.6797 67.5625 32.875 68.875 30.0625H69.4141V30.4844C69.4141 32.0312 69.1562 33.2031 68.6406 34H80.875C80.4297 32.8047 80.1484 31.375 79.9844 29.7109C79.8203 28.0469 79.7266 25.6797 79.7266 22.6328V18.5547C79.7266 12.3906 74.6641 9.32031 64.5156 9.32031C62.5938 9.32031 60.4375 9.48438 58.0703 9.83594C55.6797 10.1875 53.9453 10.5625 52.8438 10.9609V17.8281C53.7109 17.0547 54.9766 16.4219 56.6406 15.9297C58.2812 15.4375 60.0625 15.1797 61.9609 15.1797C64.0938 15.1797 65.875 15.6484 67.3047 16.6094C68.7109 17.5703 69.4141 18.9531 69.4141 20.8047V22.9141H68.7812C67.4922 20.1953 64.375 18.3438 59.7578 18.3438C56.6406 18.3438 54.2031 19.1172 52.4688 20.6875C50.7344 22.2578 49.8672 24.2031 49.8672 26.5234C49.8672 28.0234 50.2422 29.3828 50.9688 30.5781C52.4219 33.0156 55.5625 34.6797 59.7109 34.6797ZM64.6562 29.2891C61.8438 29.2891 60.0859 28.0234 60.0859 26.3125C60.0859 24.5312 61.8203 23.3359 64.6562 23.3359C66.0391 23.3359 67.1641 23.6172 68.0078 24.2031C68.8516 24.7891 69.2734 25.4922 69.2734 26.3125C69.2734 28.1172 67.4922 29.2891 64.6562 29.2891ZM97.9844 34C97.6094 33.0859 97.3281 31.5625 97.1406 29.4766C96.9531 27.3906 96.8594 25.5859 96.8594 24.0625L96.8125 21.7656C96.8125 20.1953 97.3281 18.8828 98.3359 17.8281C99.3438 16.7734 100.68 16.2344 102.297 16.2344C105.414 16.2344 107.242 18.4609 107.242 21.7656V23.9688C107.242 27.4375 106.867 30.7891 106.141 34H119.289C118.516 30.8594 118.141 27.1328 118.141 22.8203V20.2656C118.141 16.8672 117.203 14.1953 115.305 12.25C113.406 10.3047 110.688 9.32031 107.148 9.32031C102.391 9.32031 99.1562 11.5703 97.4453 16.0469H96.8594V15.4141C96.8594 13.3281 97.3047 11.5234 98.1719 10H84.8125C85.5391 13.0234 85.9141 16.5625 85.9141 20.6172V24.5547C85.9141 26.5469 85.8203 28.2109 85.6562 29.5469C85.4922 30.9062 85.2109 32.3828 84.8125 34H97.9844ZM132.555 34.6797C137.266 34.6797 140.406 32.875 141.719 30.0625H142.258V30.4844C142.258 32.0312 142 33.2031 141.484 34H153.719C153.273 32.8047 152.992 31.375 152.828 29.7109C152.664 28.0469 152.57 25.6797 152.57 22.6328V18.5547C152.57 12.3906 147.508 9.32031 137.359 9.32031C135.438 9.32031 133.281 9.48438 130.914 9.83594C128.523 10.1875 126.789 10.5625 125.688 10.9609V17.8281C126.555 17.0547 127.82 16.4219 129.484 15.9297C131.125 15.4375 132.906 15.1797 134.805 15.1797C136.938 15.1797 138.719 15.6484 140.148 16.6094C141.555 17.5703 142.258 18.9531 142.258 20.8047V22.9141H141.625C140.336 20.1953 137.219 18.3438 132.602 18.3438C129.484 18.3438 127.047 19.1172 125.312 20.6875C123.578 22.2578 122.711 24.2031 122.711 26.5234C122.711 28.0234 123.086 29.3828 123.812 30.5781C125.266 33.0156 128.406 34.6797 132.555 34.6797ZM137.5 29.2891C134.688 29.2891 132.93 28.0234 132.93 26.3125C132.93 24.5312 134.664 23.3359 137.5 23.3359C138.883 23.3359 140.008 23.6172 140.852 24.2031C141.695 24.7891 142.117 25.4922 142.117 26.3125C142.117 28.1172 140.336 29.2891 137.5 29.2891ZM172.07 44.9453C181.516 44.9453 190.023 40.8672 190.023 33.0391C190.023 31.7734 189.695 30.5312 189.062 29.3359V22.1406C189.062 17.2656 189.438 13.2109 190.164 10H177.062C177.508 11.1016 177.789 11.9922 177.953 12.6953C178.094 13.4219 178.164 14.3125 178.164 15.3672V15.9062H177.531C175.914 11.875 172.422 9.32031 167.453 9.32031C163.727 9.32031 160.75 10.75 158.969 13.0938C157.164 15.4375 156.227 18.5078 156.227 22.0469C156.227 25.5859 157.164 28.6094 158.969 30.9297C160.75 33.2734 163.727 34.6797 167.453 34.6797C172.539 34.6797 176.008 32.0312 177.531 28H178.07C179.055 29.0312 179.547 30.1562 179.547 31.3984C179.547 33.5312 178.68 35.1719 176.969 36.3438C175.258 37.4922 172.938 38.0781 170.055 38.0781C167.523 38.0781 164.945 37.7031 162.32 36.9297C159.695 36.1562 157.68 35.1484 156.273 33.9062L156.32 43.0234C158.172 43.6094 160.562 44.0781 163.492 44.4297C166.422 44.7812 169.281 44.9453 172.07 44.9453ZM172.211 27.8594C170.406 27.8594 168.977 27.3203 167.922 26.2188C166.844 25.1172 166.305 23.7344 166.305 22.0469C166.305 20.3125 166.844 18.8828 167.922 17.7812C168.977 16.6797 170.406 16.1406 172.211 16.1406C173.969 16.1406 175.352 16.7031 176.406 17.8047C177.461 18.9062 177.977 20.3359 177.977 22.0469C177.977 23.6641 177.438 25.0469 176.359 26.1719C175.281 27.2969 173.898 27.8594 172.211 27.8594ZM210.062 34.6797C212.43 34.6797 214.82 34.4688 217.211 34.0703C219.602 33.6484 221.43 33.1094 222.719 32.4531L222.531 24.5547C221.641 25.5391 220.305 26.3125 218.523 26.875C216.742 27.4375 214.867 27.7188 212.922 27.7188C210.391 27.7188 208.188 27.1562 206.312 26.0547C204.414 24.9531 203.383 23.6641 203.195 22.1875L203.57 21.9531C206.125 23.8984 209.289 24.5547 213.414 24.5547C219.672 24.5547 223.258 22.3516 223.258 17.9219C223.258 16.1172 222.695 14.5 221.312 13C219.344 10.8438 215.43 9.34375 209.336 9.32031C204.297 9.32031 200.148 10.75 197.617 13.0703C195.062 15.4141 193.68 18.5078 193.68 22C193.68 25.7969 195.156 28.8672 198.133 31.1875C201.109 33.5078 205.07 34.6797 210.062 34.6797ZM209.242 21.8125C206.734 21.8125 204.836 21.2031 203.523 19.9844C203.734 18.6484 204.344 17.6406 205.305 16.9375C206.266 16.2578 207.391 15.9062 208.656 15.9062C211.492 15.9062 213.273 17.125 213.273 19.0234C213.273 19.8438 212.875 20.5 212.078 21.0156C211.281 21.5547 210.344 21.8125 209.242 21.8125ZM239.922 34C239.523 33.0625 239.242 31.5391 239.055 29.4297C238.844 27.3438 238.75 25.5391 238.75 24.0625V21.7656C238.75 20.1484 239.195 18.8359 240.062 17.7812C240.93 16.75 242.172 16.2344 243.742 16.2344C246.836 16.2344 248.219 18.4141 248.219 21.7656V23.9688C248.219 26.4062 248.172 28.3516 248.102 29.7812C248.008 31.2344 247.797 32.6406 247.492 34H260.219C259.492 30.7891 259.117 27.2969 259.117 23.5469V21.5781C259.141 20.1484 259.633 18.8828 260.547 17.8281C261.461 16.7734 262.633 16.2344 264.109 16.2344C267.133 16.2344 268.516 18.4141 268.516 21.7656V23.9688C268.516 27.6484 268.141 30.9766 267.414 34H280.562C279.836 30.9766 279.461 27.25 279.461 22.8203V20.2656C279.461 13.7266 276.531 9.32031 269.336 9.32031C264.203 9.32031 260.57 11.8516 259.07 16.0469H258.484C257.219 11.8281 254.477 9.39062 249.039 9.32031C244.305 9.32031 241.094 11.5703 239.383 16.0469H238.797V15.4141C238.797 13.3281 239.242 11.5234 240.109 10H226.75C227.477 13.0234 227.852 16.5625 227.852 20.6172V24.5547C227.852 26.5469 227.758 28.2109 227.594 29.5469C227.43 30.9062 227.148 32.3828 226.75 34H239.922ZM300.25 34.6797C302.617 34.6797 305.008 34.4688 307.398 34.0703C309.789 33.6484 311.617 33.1094 312.906 32.4531L312.719 24.5547C311.828 25.5391 310.492 26.3125 308.711 26.875C306.93 27.4375 305.055 27.7188 303.109 27.7188C300.578 27.7188 298.375 27.1562 296.5 26.0547C294.602 24.9531 293.57 23.6641 293.383 22.1875L293.758 21.9531C296.312 23.8984 299.477 24.5547 303.602 24.5547C309.859 24.5547 313.445 22.3516 313.445 17.9219C313.445 16.1172 312.883 14.5 311.5 13C309.531 10.8438 305.617 9.34375 299.523 9.32031C294.484 9.32031 290.336 10.75 287.805 13.0703C285.25 15.4141 283.867 18.5078 283.867 22C283.867 25.7969 285.344 28.8672 288.32 31.1875C291.297 33.5078 295.258 34.6797 300.25 34.6797ZM299.43 21.8125C296.922 21.8125 295.023 21.2031 293.711 19.9844C293.922 18.6484 294.531 17.6406 295.492 16.9375C296.453 16.2578 297.578 15.9062 298.844 15.9062C301.68 15.9062 303.461 17.125 303.461 19.0234C303.461 19.8438 303.062 20.5 302.266 21.0156C301.469 21.5547 300.531 21.8125 299.43 21.8125ZM330.109 34C329.734 33.0859 329.453 31.5625 329.266 29.4766C329.078 27.3906 328.984 25.5859 328.984 24.0625L328.938 21.7656C328.938 20.1953 329.453 18.8828 330.461 17.8281C331.469 16.7734 332.805 16.2344 334.422 16.2344C337.539 16.2344 339.367 18.4609 339.367 21.7656V23.9688C339.367 27.4375 338.992 30.7891 338.266 34H351.414C350.641 30.8594 350.266 27.1328 350.266 22.8203V20.2656C350.266 16.8672 349.328 14.1953 347.43 12.25C345.531 10.3047 342.812 9.32031 339.273 9.32031C334.516 9.32031 331.281 11.5703 329.57 16.0469H328.984V15.4141C328.984 13.3281 329.43 11.5234 330.297 10H316.938C317.664 13.0234 318.039 16.5625 318.039 20.6172V24.5547C318.039 26.5469 317.945 28.2109 317.781 29.5469C317.617 30.9062 317.336 32.3828 316.938 34H330.109ZM368.945 34.6797C369.977 34.6797 371.055 34.5391 372.18 34.2812C373.281 34.0234 374.219 33.6719 374.945 33.2734V24.8359C374.266 25.5156 372.789 26.0312 371.453 26.0312C370.164 26.0312 369.062 25.6562 368.172 24.8828C367.281 24.1328 366.836 23.0547 366.836 21.6719V13.2109H374.664V10H366.836V0.390625L356.711 3.03906V10H352.445V13.2109H356.711V25.5625C356.711 31.6328 360.789 34.6797 368.945 34.6797Z" fill="#B6E8F3"/>
</svg>
