<svg width="345" height="60" viewBox="0 0 345 60" fill="none" xmlns="http://www.w3.org/2000/svg">
<path d="M41.1094 12.1824C40.9609 11.5339 40.8906 10.6433 40.8906 9.49487V7.61987H46.5703V9.49487C46.5703 10.6121 46.4922 11.5105 46.3438 12.1824H49C48.8359 11.4636 48.7578 10.5652 48.7578 9.49487V3.66675C48.7578 2.59644 48.8359 1.698 49 0.979248H46.3438C46.4922 1.65112 46.5703 2.54956 46.5703 3.66675V5.6355H40.8906V3.66675C40.8906 2.51831 40.9609 1.62769 41.1094 0.979248H38.4531C38.6172 1.698 38.6953 2.59644 38.6953 3.66675V9.49487C38.6953 10.5652 38.6172 11.4636 38.4531 12.1824H41.1094ZM55.875 12.3933C56.5859 12.3933 57.3047 12.323 58.0312 12.1746C58.7578 12.0261 59.3047 11.8464 59.6875 11.6199L59.6562 9.90894C59.3516 10.2136 58.8984 10.448 58.2891 10.6277C57.6797 10.8074 57.0391 10.9011 56.3594 10.9011C55.375 10.9011 54.5312 10.6511 53.8281 10.1433C53.125 9.6355 52.7578 9.00269 52.7266 8.22925L52.8203 8.16675C53.7656 8.77612 54.9297 9.08081 56.3125 9.08081C58.7188 9.08081 59.8906 8.37769 59.8906 6.80737C59.8906 6.03394 59.5234 5.34644 58.8281 4.81519C58.1328 4.29175 56.9844 3.97144 55.5703 3.97144C54.625 3.97144 53.7812 4.15894 53.0547 4.52612C51.5859 5.26831 50.7891 6.59644 50.7891 8.18237C50.7891 9.43237 51.2578 10.448 52.1953 11.2214C53.125 12.0027 54.3516 12.3933 55.875 12.3933ZM55.5703 7.94019C54.4609 7.94019 53.5312 7.72144 52.7891 7.28394C52.8906 6.698 53.1953 6.23706 53.7109 5.90112C54.2188 5.56519 54.8047 5.40112 55.4609 5.40112C56.1562 5.40112 56.7344 5.53394 57.1953 5.79956C57.6484 6.06519 57.875 6.39331 57.875 6.77612C57.875 7.20581 57.5859 7.53394 57.125 7.698C56.6641 7.86206 56.1562 7.94019 55.5703 7.94019ZM64.2656 12.1824C64.1172 11.4246 64.0391 10.5339 64.0391 9.49487V3.66675C64.0391 2.62769 64.1172 1.73706 64.2656 0.979248H61.6562C61.8047 1.73706 61.8828 2.62769 61.8828 3.66675V9.49487C61.8828 10.5339 61.8047 11.4246 61.6562 12.1824H64.2656ZM69.0625 15.3855C68.8984 14.5808 68.8203 13.6824 68.8203 12.698V10.1667H69C69.2422 10.8386 69.6641 11.3777 70.25 11.7839C70.8359 12.1902 71.5391 12.3933 72.3594 12.3933C74.7344 12.4167 76.2422 10.5574 76.2031 8.18237C76.2031 6.95581 75.8594 5.948 75.1641 5.15894C74.4688 4.36987 73.5391 3.97144 72.3594 3.97144C71.5391 3.97144 70.8438 4.18237 70.2578 4.60425C69.6719 5.02612 69.2578 5.55737 69 6.198H68.8203V5.72144C68.8203 5.24487 68.8984 4.73706 69.0469 4.18237H66.4375C66.5859 4.85425 66.6641 5.75269 66.6641 6.86987V12.698C66.6641 13.8152 66.5859 14.7136 66.4375 15.3855H69.0625ZM71.4609 10.7292C70.7266 10.7292 70.1094 10.4636 69.6094 9.94019C69.1094 9.41675 68.8594 8.83081 68.8594 8.18237C68.8594 7.45581 69.1016 6.85425 69.5938 6.36206C70.0859 5.87769 70.7031 5.6355 71.4609 5.6355C72.25 5.6355 72.8906 5.86987 73.3984 6.34644C73.8984 6.823 74.1484 7.44019 74.1484 8.18237C74.1484 8.92456 73.8984 9.53394 73.3984 10.0105C72.8906 10.4871 72.25 10.7292 71.4609 10.7292ZM85.7109 12.3933C87.3359 12.3933 88.4688 11.5964 89.0078 10.1667H89.1719V10.6121C89.1719 11.2605 89.0859 11.7839 88.9141 12.1824H91.5703C91.4062 11.4636 91.3281 10.6511 91.3281 9.75269V6.42456C91.3281 5.65112 91.4062 4.90112 91.5703 4.18237H88.9453C89.0938 4.65894 89.1719 5.43237 89.1719 6.50269V8.10425C89.1719 8.7605 88.9219 9.34644 88.4297 9.86206C87.9375 10.3855 87.3281 10.6433 86.6094 10.6433C85.1797 10.6433 84.3516 9.81519 84.3516 8.33862V6.51831C84.3516 5.6355 84.4297 4.85425 84.5781 4.18237H81.9688C82.1094 4.8855 82.1797 5.72925 82.1797 6.71362V8.83862C82.1797 9.97925 82.4922 10.8542 83.1094 11.4714C83.7266 12.0886 84.5938 12.3933 85.7109 12.3933ZM97.0938 12.3933C98.2578 12.3933 99.1797 12.1511 99.8594 11.6746C100.539 11.198 100.875 10.5808 100.875 9.83081C100.875 8.50269 99.8438 7.948 98.6875 7.68237C97.1172 7.30737 95.3047 7.37769 95.3047 6.48706C95.3047 5.91675 95.9922 5.573 97.125 5.573C97.7031 5.573 98.2812 5.65112 98.8516 5.79956C99.4219 5.948 99.8828 6.11987 100.234 6.30737V4.61206C99.7891 4.42456 99.2734 4.26831 98.6875 4.15112C98.1016 4.03394 97.5391 3.97144 97 3.97144C95.875 3.97144 94.9922 4.20581 94.3438 4.68237C93.6953 5.15894 93.3672 5.74487 93.3672 6.42456C93.3594 7.73706 94.3906 8.27612 95.5547 8.52612C97.1094 8.89331 98.9219 8.83862 98.9219 9.81519C98.9219 10.448 98.2734 10.7605 96.9688 10.7605C96.3828 10.7605 95.7266 10.6667 95 10.4714C94.2734 10.2761 93.6562 10.0417 93.1641 9.76831V11.6199C93.6328 11.8308 94.2578 12.0183 95.0312 12.1667C95.8047 12.3152 96.4922 12.3933 97.0938 12.3933ZM112.977 12.0652C114.734 11.4324 115.727 9.97144 115.727 8.18237C115.727 6.99487 115.281 5.94019 114.484 5.18237C113.688 4.43237 112.453 3.97144 111.008 3.97144C109.547 3.97144 108.32 4.43237 107.523 5.18237C106.727 5.94019 106.273 6.99487 106.273 8.18237C106.273 9.36987 106.727 10.4246 107.523 11.1746C107.922 11.5574 108.414 11.8542 109.016 12.0652C109.609 12.2839 110.266 12.3933 110.992 12.3933C111.719 12.3933 112.375 12.2839 112.977 12.0652ZM110.992 10.8855C110.219 10.8855 109.578 10.6277 109.07 10.1199C108.562 9.61206 108.305 8.97144 108.305 8.18237C108.305 7.39331 108.562 6.74487 109.07 6.23706C109.578 5.72925 110.219 5.47925 110.992 5.47925C111.773 5.47925 112.422 5.72925 112.93 6.23706C113.438 6.74487 113.695 7.39331 113.695 8.18237C113.695 8.97144 113.438 9.61987 112.93 10.1277C112.422 10.6355 111.773 10.8855 110.992 10.8855ZM120.109 12.1824C119.945 11.7371 119.867 10.9636 119.867 9.86206V8.2605C119.867 7.60425 120.117 7.01831 120.609 6.49487C121.102 5.97925 121.719 5.72144 122.445 5.72144C123.859 5.72144 124.703 6.54956 124.703 8.04175V9.84644C124.703 10.6824 124.625 11.4636 124.461 12.1824H127.086C126.938 11.5105 126.859 10.6667 126.859 9.65112V7.52612C126.859 6.39331 126.555 5.5105 125.938 4.89331C125.32 4.27612 124.445 3.97144 123.328 3.97144C121.703 3.97144 120.57 4.77612 120.031 6.21362H119.867V5.75269C119.867 5.08862 119.961 4.56519 120.141 4.18237H117.484C117.633 4.85425 117.711 5.66675 117.711 6.61206V9.94019C117.711 10.7605 117.633 11.5105 117.484 12.1824H120.109ZM139.664 12.0652C141.422 11.4324 142.414 9.97144 142.414 8.18237C142.414 6.99487 141.969 5.94019 141.172 5.18237C140.375 4.43237 139.141 3.97144 137.695 3.97144C136.234 3.97144 135.008 4.43237 134.211 5.18237C133.414 5.94019 132.961 6.99487 132.961 8.18237C132.961 9.36987 133.414 10.4246 134.211 11.1746C134.609 11.5574 135.102 11.8542 135.703 12.0652C136.297 12.2839 136.953 12.3933 137.68 12.3933C138.406 12.3933 139.062 12.2839 139.664 12.0652ZM137.68 10.8855C136.906 10.8855 136.266 10.6277 135.758 10.1199C135.25 9.61206 134.992 8.97144 134.992 8.18237C134.992 7.39331 135.25 6.74487 135.758 6.23706C136.266 5.72925 136.906 5.47925 137.68 5.47925C138.461 5.47925 139.109 5.72925 139.617 6.23706C140.125 6.74487 140.383 7.39331 140.383 8.18237C140.383 8.97144 140.125 9.61987 139.617 10.1277C139.109 10.6355 138.461 10.8855 137.68 10.8855ZM147.914 12.3933C149.539 12.3933 150.672 11.5964 151.211 10.1667H151.375V10.6121C151.375 11.2605 151.289 11.7839 151.117 12.1824H153.773C153.609 11.4636 153.531 10.6511 153.531 9.75269V6.42456C153.531 5.65112 153.609 4.90112 153.773 4.18237H151.148C151.297 4.65894 151.375 5.43237 151.375 6.50269V8.10425C151.375 8.7605 151.125 9.34644 150.633 9.86206C150.141 10.3855 149.531 10.6433 148.812 10.6433C147.383 10.6433 146.555 9.81519 146.555 8.33862V6.51831C146.555 5.6355 146.633 4.85425 146.781 4.18237H144.172C144.312 4.8855 144.383 5.72925 144.383 6.71362V8.83862C144.383 9.97925 144.695 10.8542 145.312 11.4714C145.93 12.0886 146.797 12.3933 147.914 12.3933ZM158.547 12.1824C158.398 11.7683 158.32 11.1511 158.32 10.323V8.50269C158.32 7.72925 158.594 7.073 159.141 6.51831C159.688 5.96362 160.32 5.69019 161.031 5.69019C161.625 5.69019 162.25 5.89331 162.562 6.16675V4.18237C162.219 4.04175 161.82 3.97144 161.367 3.97144C159.922 3.97144 158.867 4.948 158.469 6.64331H158.32V5.94019C158.32 5.62769 158.352 5.30737 158.414 4.97144C158.477 4.6355 158.555 4.37769 158.656 4.18237H155.938C156.078 4.90112 156.148 5.71362 156.148 6.61206V9.95581C156.148 10.7371 156.078 11.4792 155.938 12.1824H158.547ZM177.297 15.3855C177.148 14.7136 177.07 13.8152 177.07 12.698V6.86987C177.07 5.75269 177.148 4.85425 177.297 4.18237H175.055C174.961 4.53394 174.914 5.04956 174.914 5.72144V6.198H174.734C174.477 5.55737 174.055 5.02612 173.469 4.60425C172.883 4.18237 172.18 3.97144 171.359 3.97144C169 3.948 167.5 5.823 167.539 8.18237C167.539 9.40894 167.883 10.4167 168.57 11.2058C169.258 11.9949 170.188 12.3933 171.359 12.3933C172.18 12.3933 172.891 12.1902 173.484 11.7839C174.07 11.3777 174.492 10.8386 174.734 10.1667H174.914V12.698C174.914 13.6824 174.836 14.5808 174.672 15.3855H177.297ZM172.32 10.7292C171.531 10.7292 170.883 10.4871 170.375 10.0105C169.867 9.53394 169.617 8.92456 169.617 8.18237C169.617 7.44019 169.867 6.823 170.375 6.34644C170.883 5.86987 171.531 5.6355 172.32 5.6355C173.07 5.6355 173.688 5.87769 174.18 6.36206C174.672 6.85425 174.914 7.45581 174.914 8.18237C174.914 8.83081 174.664 9.41675 174.164 9.94019C173.664 10.4636 173.047 10.7292 172.32 10.7292ZM183.195 12.3933C184.82 12.3933 185.953 11.5964 186.492 10.1667H186.656V10.6121C186.656 11.2605 186.57 11.7839 186.398 12.1824H189.055C188.891 11.4636 188.812 10.6511 188.812 9.75269V6.42456C188.812 5.65112 188.891 4.90112 189.055 4.18237H186.43C186.578 4.65894 186.656 5.43237 186.656 6.50269V8.10425C186.656 8.7605 186.406 9.34644 185.914 9.86206C185.422 10.3855 184.812 10.6433 184.094 10.6433C182.664 10.6433 181.836 9.81519 181.836 8.33862V6.51831C181.836 5.6355 181.914 4.85425 182.062 4.18237H179.453C179.594 4.8855 179.664 5.72925 179.664 6.71362V8.83862C179.664 9.97925 179.977 10.8542 180.594 11.4714C181.211 12.0886 182.078 12.3933 183.195 12.3933ZM195.891 12.3933C196.602 12.3933 197.32 12.323 198.047 12.1746C198.773 12.0261 199.32 11.8464 199.703 11.6199L199.672 9.90894C199.367 10.2136 198.914 10.448 198.305 10.6277C197.695 10.8074 197.055 10.9011 196.375 10.9011C195.391 10.9011 194.547 10.6511 193.844 10.1433C193.141 9.6355 192.773 9.00269 192.742 8.22925L192.836 8.16675C193.781 8.77612 194.945 9.08081 196.328 9.08081C198.734 9.08081 199.906 8.37769 199.906 6.80737C199.906 6.03394 199.539 5.34644 198.844 4.81519C198.148 4.29175 197 3.97144 195.586 3.97144C194.641 3.97144 193.797 4.15894 193.07 4.52612C191.602 5.26831 190.805 6.59644 190.805 8.18237C190.805 9.43237 191.273 10.448 192.211 11.2214C193.141 12.0027 194.367 12.3933 195.891 12.3933ZM195.586 7.94019C194.477 7.94019 193.547 7.72144 192.805 7.28394C192.906 6.698 193.211 6.23706 193.727 5.90112C194.234 5.56519 194.82 5.40112 195.477 5.40112C196.172 5.40112 196.75 5.53394 197.211 5.79956C197.664 6.06519 197.891 6.39331 197.891 6.77612C197.891 7.20581 197.602 7.53394 197.141 7.698C196.68 7.86206 196.172 7.94019 195.586 7.94019ZM205.031 12.3933C206.195 12.3933 207.117 12.1511 207.797 11.6746C208.477 11.198 208.812 10.5808 208.812 9.83081C208.812 8.50269 207.781 7.948 206.625 7.68237C205.055 7.30737 203.242 7.37769 203.242 6.48706C203.242 5.91675 203.93 5.573 205.062 5.573C205.641 5.573 206.219 5.65112 206.789 5.79956C207.359 5.948 207.82 6.11987 208.172 6.30737V4.61206C207.727 4.42456 207.211 4.26831 206.625 4.15112C206.039 4.03394 205.477 3.97144 204.938 3.97144C203.812 3.97144 202.93 4.20581 202.281 4.68237C201.633 5.15894 201.305 5.74487 201.305 6.42456C201.297 7.73706 202.328 8.27612 203.492 8.52612C205.047 8.89331 206.859 8.83862 206.859 9.81519C206.859 10.448 206.211 10.7605 204.906 10.7605C204.32 10.7605 203.664 10.6667 202.938 10.4714C202.211 10.2761 201.594 10.0417 201.102 9.76831V11.6199C201.57 11.8308 202.195 12.0183 202.969 12.1667C203.742 12.3152 204.43 12.3933 205.031 12.3933ZM214.773 12.3933C215.477 12.3933 216.07 12.2683 216.547 12.0261V10.2917C216.195 10.5183 215.75 10.6277 215.203 10.6277C214.023 10.6277 213.43 10.0183 213.43 8.79175V5.58862H216.5V4.18237H213.43V0.979248L211.398 1.52612V4.18237H209.609V5.58862H211.398V9.47925C211.398 11.4246 212.523 12.3933 214.773 12.3933ZM226.305 12.3933C227.008 12.3933 227.602 12.2683 228.078 12.0261V10.2917C227.727 10.5183 227.281 10.6277 226.734 10.6277C225.555 10.6277 224.961 10.0183 224.961 8.79175V5.58862H228.031V4.18237H224.961V0.979248L222.93 1.52612V4.18237H221.141V5.58862H222.93V9.47925C222.93 11.4246 224.055 12.3933 226.305 12.3933ZM235.727 12.0652C237.484 11.4324 238.477 9.97144 238.477 8.18237C238.477 6.99487 238.031 5.94019 237.234 5.18237C236.438 4.43237 235.203 3.97144 233.758 3.97144C232.297 3.97144 231.07 4.43237 230.273 5.18237C229.477 5.94019 229.023 6.99487 229.023 8.18237C229.023 9.36987 229.477 10.4246 230.273 11.1746C230.672 11.5574 231.164 11.8542 231.766 12.0652C232.359 12.2839 233.016 12.3933 233.742 12.3933C234.469 12.3933 235.125 12.2839 235.727 12.0652ZM233.742 10.8855C232.969 10.8855 232.328 10.6277 231.82 10.1199C231.312 9.61206 231.055 8.97144 231.055 8.18237C231.055 7.39331 231.312 6.74487 231.82 6.23706C232.328 5.72925 232.969 5.47925 233.742 5.47925C234.523 5.47925 235.172 5.72925 235.68 6.23706C236.188 6.74487 236.445 7.39331 236.445 8.18237C236.445 8.97144 236.188 9.61987 235.68 10.1277C235.172 10.6355 234.523 10.8855 233.742 10.8855ZM246.984 12.1824C246.82 11.7371 246.742 10.9636 246.742 9.86206V8.2605C246.703 7.01831 247.727 5.70581 249.195 5.72144C250.562 5.72144 251.242 6.58081 251.242 8.04175V9.84644C251.242 10.8542 251.188 11.6355 251.078 12.1824H253.625C253.477 11.4246 253.398 10.6199 253.398 9.76831V8.18237C253.414 7.54956 253.656 6.97925 254.125 6.47144C254.586 5.97144 255.164 5.72144 255.852 5.72144C257.219 5.72144 257.898 6.58081 257.898 8.04175V9.84644C257.898 10.6824 257.82 11.4636 257.656 12.1824H260.281C260.133 11.5105 260.055 10.6667 260.055 9.65112V7.52612C260.055 5.27612 258.945 3.97144 256.758 3.97144C255.109 3.97144 253.898 4.78394 253.367 6.21362H253.227C252.82 4.72144 251.789 3.97144 250.125 3.97144C248.539 3.97144 247.461 4.72144 246.906 6.21362H246.742V5.75269C246.742 5.08862 246.836 4.56519 247.016 4.18237H244.359C244.508 4.85425 244.586 5.66675 244.586 6.61206V9.94019C244.586 10.7605 244.508 11.5105 244.359 12.1824H246.984ZM265.32 12.3933C266.906 12.3933 268 11.7527 268.406 10.823H268.555V10.9636C268.555 11.5027 268.492 11.9089 268.359 12.1824H270.859C270.766 11.9167 270.703 11.5964 270.672 11.2292C270.633 10.8621 270.617 10.323 270.617 9.61987V7.0105C270.617 5.8855 270.148 5.05737 269.336 4.61206C268.516 4.16675 267.539 3.97144 266.312 3.97144C265.742 3.97144 265.117 4.02612 264.445 4.14331C263.773 4.2605 263.273 4.3855 262.938 4.51831V6.00269C263.164 5.83081 263.562 5.66675 264.133 5.5105C264.703 5.36206 265.289 5.28394 265.883 5.28394C267.578 5.28394 268.555 5.98706 268.555 7.3855V8.50269H268.375C268.18 8.05737 267.812 7.68237 267.281 7.37769C266.742 7.073 266.094 6.91675 265.336 6.91675C264.289 6.91675 263.469 7.17456 262.875 7.68237C262.273 8.19019 261.977 8.84644 261.977 9.65112C261.977 10.4558 262.273 11.1121 262.867 11.6199C263.461 12.1355 264.281 12.3933 265.32 12.3933ZM266.234 11.0496C265.555 11.0496 265.016 10.9167 264.625 10.6511C264.234 10.3933 264.039 10.0496 264.039 9.6355C264.039 8.79956 264.867 8.22925 266.234 8.22925C266.906 8.22925 267.461 8.36987 267.891 8.65894C268.32 8.948 268.539 9.27612 268.539 9.6355C268.539 10.5183 267.648 11.0496 266.234 11.0496ZM280.797 12.4246C281.43 12.4246 282.023 12.1433 282.297 11.7058L282.219 9.54175C282.008 10.1355 281.734 10.4558 281.164 10.4558C280.016 10.4558 279.828 8.323 278.234 8.323V8.18237H278.312C279.281 8.18237 280.047 7.99487 280.602 7.62769C281.156 7.2605 281.438 6.74487 281.438 6.073C281.438 4.75269 280.539 3.97144 278.812 3.97144C277.102 3.97144 275.961 4.80737 275.406 6.18237H275.289V3.66675C275.289 2.62769 275.367 1.73706 275.516 0.979248H272.906C273.055 1.73706 273.133 2.62769 273.133 3.66675V9.49487C273.133 10.5339 273.055 11.4246 272.906 12.1824H275.516C275.375 11.5496 275.305 10.8308 275.305 10.0261V8.96362C275.391 8.93237 275.555 8.90112 275.781 8.87769C276.008 8.85425 276.195 8.83862 276.352 8.83862C277.523 8.83862 278.062 9.50269 278.422 10.2527C278.68 10.7605 278.914 11.2839 279.227 11.7058C279.539 12.1277 280.078 12.4246 280.797 12.4246ZM275.328 7.573C275.344 6.61206 276.672 5.6355 277.867 5.66675C278.688 5.66675 279.195 5.99487 279.195 6.54956C279.195 7.21362 278.555 7.573 277.5 7.573H275.328ZM288.312 12.3933C289.023 12.3933 289.742 12.323 290.469 12.1746C291.195 12.0261 291.742 11.8464 292.125 11.6199L292.094 9.90894C291.789 10.2136 291.336 10.448 290.727 10.6277C290.117 10.8074 289.477 10.9011 288.797 10.9011C287.812 10.9011 286.969 10.6511 286.266 10.1433C285.562 9.6355 285.195 9.00269 285.164 8.22925L285.258 8.16675C286.203 8.77612 287.367 9.08081 288.75 9.08081C291.156 9.08081 292.328 8.37769 292.328 6.80737C292.328 6.03394 291.961 5.34644 291.266 4.81519C290.57 4.29175 289.422 3.97144 288.008 3.97144C287.062 3.97144 286.219 4.15894 285.492 4.52612C284.023 5.26831 283.227 6.59644 283.227 8.18237C283.227 9.43237 283.695 10.448 284.633 11.2214C285.562 12.0027 286.789 12.3933 288.312 12.3933ZM288.008 7.94019C286.898 7.94019 285.969 7.72144 285.227 7.28394C285.328 6.698 285.633 6.23706 286.148 5.90112C286.656 5.56519 287.242 5.40112 287.898 5.40112C288.594 5.40112 289.172 5.53394 289.633 5.79956C290.086 6.06519 290.312 6.39331 290.312 6.77612C290.312 7.20581 290.023 7.53394 289.562 7.698C289.102 7.86206 288.594 7.94019 288.008 7.94019ZM301.164 12.3933C302.75 12.3933 303.844 11.7527 304.25 10.823H304.398V10.9636C304.398 11.5027 304.336 11.9089 304.203 12.1824H306.703C306.609 11.9167 306.547 11.5964 306.516 11.2292C306.477 10.8621 306.461 10.323 306.461 9.61987V7.0105C306.461 5.8855 305.992 5.05737 305.18 4.61206C304.359 4.16675 303.383 3.97144 302.156 3.97144C301.586 3.97144 300.961 4.02612 300.289 4.14331C299.617 4.2605 299.117 4.3855 298.781 4.51831V6.00269C299.008 5.83081 299.406 5.66675 299.977 5.5105C300.547 5.36206 301.133 5.28394 301.727 5.28394C303.422 5.28394 304.398 5.98706 304.398 7.3855V8.50269H304.219C304.023 8.05737 303.656 7.68237 303.125 7.37769C302.586 7.073 301.938 6.91675 301.18 6.91675C300.133 6.91675 299.312 7.17456 298.719 7.68237C298.117 8.19019 297.82 8.84644 297.82 9.65112C297.82 10.4558 298.117 11.1121 298.711 11.6199C299.305 12.1355 300.125 12.3933 301.164 12.3933ZM302.078 11.0496C301.398 11.0496 300.859 10.9167 300.469 10.6511C300.078 10.3933 299.883 10.0496 299.883 9.6355C299.883 8.79956 300.711 8.22925 302.078 8.22925C302.75 8.22925 303.305 8.36987 303.734 8.65894C304.164 8.948 304.383 9.27612 304.383 9.6355C304.383 10.5183 303.492 11.0496 302.078 11.0496ZM5.20312 34.3933C5.71875 34.3933 6.27344 34.3386 6.86719 34.2371C7.45312 34.1355 7.92188 33.9949 8.27344 33.8308V32.0886C7.92188 32.3152 7.50781 32.5027 7.02344 32.6355C6.53906 32.7683 6.0625 32.8386 5.58594 32.8386C4.57812 32.8386 3.75781 32.5964 3.13281 32.1042C2.50781 31.6199 2.19531 30.9792 2.19531 30.1824C2.19531 29.3777 2.5 28.7371 3.11719 28.2527C3.72656 27.7683 4.51562 27.5261 5.47656 27.5261C5.92188 27.5261 6.35938 27.5808 6.80469 27.698C7.24219 27.8152 7.60156 27.9558 7.89062 28.1355L7.97656 26.4558C7.66406 26.3152 7.23438 26.198 6.67969 26.1042C6.125 26.0183 5.64062 25.9714 5.23438 25.9714C3.61719 25.9714 2.28906 26.4246 1.44531 27.1824C0.601562 27.9402 0.132812 28.9871 0.132812 30.1824C0.132812 31.3777 0.585938 32.4246 1.42969 33.1824C2.26562 33.9402 3.58594 34.3933 5.20312 34.3933ZM16.1641 34.0652C17.9219 33.4324 18.9141 31.9714 18.9141 30.1824C18.9141 28.9949 18.4688 27.9402 17.6719 27.1824C16.875 26.4324 15.6406 25.9714 14.1953 25.9714C12.7344 25.9714 11.5078 26.4324 10.7109 27.1824C9.91406 27.9402 9.46094 28.9949 9.46094 30.1824C9.46094 31.3699 9.91406 32.4246 10.7109 33.1746C11.1094 33.5574 11.6016 33.8542 12.2031 34.0652C12.7969 34.2839 13.4531 34.3933 14.1797 34.3933C14.9062 34.3933 15.5625 34.2839 16.1641 34.0652ZM14.1797 32.8855C13.4062 32.8855 12.7656 32.6277 12.2578 32.1199C11.75 31.6121 11.4922 30.9714 11.4922 30.1824C11.4922 29.3933 11.75 28.7449 12.2578 28.2371C12.7656 27.7292 13.4062 27.4792 14.1797 27.4792C14.9609 27.4792 15.6094 27.7292 16.1172 28.2371C16.625 28.7449 16.8828 29.3933 16.8828 30.1824C16.8828 30.9714 16.625 31.6199 16.1172 32.1277C15.6094 32.6355 14.9609 32.8855 14.1797 32.8855ZM23.2812 34.1824C23.1328 33.4246 23.0547 32.5339 23.0547 31.4949V25.6667C23.0547 24.6277 23.1328 23.7371 23.2812 22.9792H20.6719C20.8203 23.7371 20.8984 24.6277 20.8984 25.6667V31.4949C20.8984 32.5339 20.8203 33.4246 20.6719 34.1824H23.2812ZM28.0625 34.1824C27.9141 33.4246 27.8359 32.5339 27.8359 31.4949V25.6667C27.8359 24.6277 27.9141 23.7371 28.0625 22.9792H25.4531C25.6016 23.7371 25.6797 24.6277 25.6797 25.6667V31.4949C25.6797 32.5339 25.6016 33.4246 25.4531 34.1824H28.0625ZM33.1797 34.3933C34.7656 34.3933 35.8594 33.7527 36.2656 32.823H36.4141V32.9636C36.4141 33.5027 36.3516 33.9089 36.2188 34.1824H38.7188C38.625 33.9167 38.5625 33.5964 38.5312 33.2292C38.4922 32.8621 38.4766 32.323 38.4766 31.6199V29.0105C38.4766 27.8855 38.0078 27.0574 37.1953 26.6121C36.375 26.1667 35.3984 25.9714 34.1719 25.9714C33.6016 25.9714 32.9766 26.0261 32.3047 26.1433C31.6328 26.2605 31.1328 26.3855 30.7969 26.5183V28.0027C31.0234 27.8308 31.4219 27.6667 31.9922 27.5105C32.5625 27.3621 33.1484 27.2839 33.7422 27.2839C35.4375 27.2839 36.4141 27.9871 36.4141 29.3855V30.5027H36.2344C36.0391 30.0574 35.6719 29.6824 35.1406 29.3777C34.6016 29.073 33.9531 28.9167 33.1953 28.9167C32.1484 28.9167 31.3281 29.1746 30.7344 29.6824C30.1328 30.1902 29.8359 30.8464 29.8359 31.6511C29.8359 32.4558 30.1328 33.1121 30.7266 33.6199C31.3203 34.1355 32.1406 34.3933 33.1797 34.3933ZM34.0938 33.0496C33.4141 33.0496 32.875 32.9167 32.4844 32.6511C32.0938 32.3933 31.8984 32.0496 31.8984 31.6355C31.8984 30.7996 32.7266 30.2292 34.0938 30.2292C34.7656 30.2292 35.3203 30.3699 35.75 30.6589C36.1797 30.948 36.3984 31.2761 36.3984 31.6355C36.3984 32.5183 35.5078 33.0496 34.0938 33.0496ZM46.7031 34.3933C49.0625 34.4167 50.5703 32.5417 50.5312 30.1824C50.5703 27.823 49.0625 25.948 46.7031 25.9714C45.8828 25.9714 45.1719 26.1746 44.5859 26.5808C43.9922 26.9871 43.5703 27.5261 43.3125 28.198H43.1484V25.6667C43.1484 24.5964 43.2266 23.698 43.3906 22.9792H40.7656C40.9141 23.6511 40.9922 24.5496 40.9922 25.6667V31.4949C40.9922 32.6121 40.9141 33.5105 40.7656 34.1824H43.375C43.2266 33.6824 43.1484 33.1667 43.1484 32.6433V32.1667H43.3281C43.5859 32.8074 44.0078 33.3386 44.5938 33.7605C45.1797 34.1824 45.8828 34.3933 46.7031 34.3933ZM45.7891 32.7292C45.0547 32.7292 44.4375 32.4636 43.9375 31.9402C43.4375 31.4167 43.1875 30.8308 43.1875 30.1824C43.1875 29.4558 43.4297 28.8542 43.9219 28.3621C44.4141 27.8777 45.0312 27.6355 45.7891 27.6355C46.5781 27.6355 47.2188 27.8699 47.7266 28.3464C48.2266 28.823 48.4766 29.4402 48.4766 30.1824C48.4766 30.9246 48.2266 31.5339 47.7266 32.0105C47.2188 32.4871 46.5781 32.7292 45.7891 32.7292ZM58.6016 34.0652C60.3594 33.4324 61.3516 31.9714 61.3516 30.1824C61.3516 28.9949 60.9062 27.9402 60.1094 27.1824C59.3125 26.4324 58.0781 25.9714 56.6328 25.9714C55.1719 25.9714 53.9453 26.4324 53.1484 27.1824C52.3516 27.9402 51.8984 28.9949 51.8984 30.1824C51.8984 31.3699 52.3516 32.4246 53.1484 33.1746C53.5469 33.5574 54.0391 33.8542 54.6406 34.0652C55.2344 34.2839 55.8906 34.3933 56.6172 34.3933C57.3438 34.3933 58 34.2839 58.6016 34.0652ZM56.6172 32.8855C55.8438 32.8855 55.2031 32.6277 54.6953 32.1199C54.1875 31.6121 53.9297 30.9714 53.9297 30.1824C53.9297 29.3933 54.1875 28.7449 54.6953 28.2371C55.2031 27.7292 55.8438 27.4792 56.6172 27.4792C57.3984 27.4792 58.0469 27.7292 58.5547 28.2371C59.0625 28.7449 59.3203 29.3933 59.3203 30.1824C59.3203 30.9714 59.0625 31.6199 58.5547 32.1277C58.0469 32.6355 57.3984 32.8855 56.6172 32.8855ZM65.7188 34.1824C65.5703 33.7683 65.4922 33.1511 65.4922 32.323V30.5027C65.4922 29.7292 65.7656 29.073 66.3125 28.5183C66.8594 27.9636 67.4922 27.6902 68.2031 27.6902C68.7969 27.6902 69.4219 27.8933 69.7344 28.1667V26.1824C69.3906 26.0417 68.9922 25.9714 68.5391 25.9714C67.0938 25.9714 66.0391 26.948 65.6406 28.6433H65.4922V27.9402C65.4922 27.6277 65.5234 27.3074 65.5859 26.9714C65.6484 26.6355 65.7266 26.3777 65.8281 26.1824H63.1094C63.25 26.9011 63.3203 27.7136 63.3203 28.6121V31.9558C63.3203 32.7371 63.25 33.4792 63.1094 34.1824H65.7188ZM74.0391 34.3933C75.625 34.3933 76.7188 33.7527 77.125 32.823H77.2734V32.9636C77.2734 33.5027 77.2109 33.9089 77.0781 34.1824H79.5781C79.4844 33.9167 79.4219 33.5964 79.3906 33.2292C79.3516 32.8621 79.3359 32.323 79.3359 31.6199V29.0105C79.3359 27.8855 78.8672 27.0574 78.0547 26.6121C77.2344 26.1667 76.2578 25.9714 75.0312 25.9714C74.4609 25.9714 73.8359 26.0261 73.1641 26.1433C72.4922 26.2605 71.9922 26.3855 71.6562 26.5183V28.0027C71.8828 27.8308 72.2812 27.6667 72.8516 27.5105C73.4219 27.3621 74.0078 27.2839 74.6016 27.2839C76.2969 27.2839 77.2734 27.9871 77.2734 29.3855V30.5027H77.0938C76.8984 30.0574 76.5312 29.6824 76 29.3777C75.4609 29.073 74.8125 28.9167 74.0547 28.9167C73.0078 28.9167 72.1875 29.1746 71.5938 29.6824C70.9922 30.1902 70.6953 30.8464 70.6953 31.6511C70.6953 32.4558 70.9922 33.1121 71.5859 33.6199C72.1797 34.1355 73 34.3933 74.0391 34.3933ZM74.9531 33.0496C74.2734 33.0496 73.7344 32.9167 73.3438 32.6511C72.9531 32.3933 72.7578 32.0496 72.7578 31.6355C72.7578 30.7996 73.5859 30.2292 74.9531 30.2292C75.625 30.2292 76.1797 30.3699 76.6094 30.6589C77.0391 30.948 77.2578 31.2761 77.2578 31.6355C77.2578 32.5183 76.3672 33.0496 74.9531 33.0496ZM85.5859 34.3933C86.2891 34.3933 86.8828 34.2683 87.3594 34.0261V32.2917C87.0078 32.5183 86.5625 32.6277 86.0156 32.6277C84.8359 32.6277 84.2422 32.0183 84.2422 30.7917V27.5886H87.3125V26.1824H84.2422V22.9792L82.2109 23.5261V26.1824H80.4219V27.5886H82.2109V31.4792C82.2109 33.4246 83.3359 34.3933 85.5859 34.3933ZM89.9219 24.8855C90.6797 24.8855 91.1875 24.3933 91.1875 23.7371C91.1875 23.0574 90.6797 22.5652 89.9219 22.5652C89.5469 22.5652 89.2422 22.6746 89.0078 22.9011C88.7734 23.1277 88.6562 23.4011 88.6562 23.7371C88.6562 24.3933 89.1719 24.8855 89.9219 24.8855ZM91.25 34.1824C91.0859 33.5183 91.0078 32.6277 91.0078 31.4949V27.7214C91.0078 27.073 91.0469 26.5574 91.1172 26.1824C90.875 26.3464 90.4844 26.4324 89.9531 26.4324C89.4219 26.4324 89.0156 26.3464 88.7344 26.1824C88.8125 26.5027 88.8516 27.0183 88.8516 27.7214V31.4949C88.8516 32.6277 88.7734 33.5183 88.6094 34.1824H91.25ZM98.8828 34.1824C98.9141 33.6589 99.0703 33.0027 99.3438 32.198L101.008 28.323C101.344 27.4402 101.664 26.7214 101.984 26.1824H99.4453C99.375 26.7371 99.2344 27.2761 99.0234 27.7996L97.5078 31.448C97.3594 31.8933 97.2344 32.2683 97.1406 32.5808H96.9922C96.9297 32.3542 96.8047 31.9792 96.625 31.4636L95.1094 27.7996C94.8906 27.2292 94.75 26.6902 94.6875 26.1824H92.1641C92.4531 26.6746 92.7734 27.3933 93.125 28.323L94.8047 32.198C95.0781 32.9871 95.2188 33.6433 95.2344 34.1824H98.8828ZM107.688 34.3933C108.398 34.3933 109.117 34.323 109.844 34.1746C110.57 34.0261 111.117 33.8464 111.5 33.6199L111.469 31.9089C111.164 32.2136 110.711 32.448 110.102 32.6277C109.492 32.8074 108.852 32.9011 108.172 32.9011C107.188 32.9011 106.344 32.6511 105.641 32.1433C104.938 31.6355 104.57 31.0027 104.539 30.2292L104.633 30.1667C105.578 30.7761 106.742 31.0808 108.125 31.0808C110.531 31.0808 111.703 30.3777 111.703 28.8074C111.703 28.0339 111.336 27.3464 110.641 26.8152C109.945 26.2917 108.797 25.9714 107.383 25.9714C106.438 25.9714 105.594 26.1589 104.867 26.5261C103.398 27.2683 102.602 28.5964 102.602 30.1824C102.602 31.4324 103.07 32.448 104.008 33.2214C104.938 34.0027 106.164 34.3933 107.688 34.3933ZM107.383 29.9402C106.273 29.9402 105.344 29.7214 104.602 29.2839C104.703 28.698 105.008 28.2371 105.523 27.9011C106.031 27.5652 106.617 27.4011 107.273 27.4011C107.969 27.4011 108.547 27.5339 109.008 27.7996C109.461 28.0652 109.688 28.3933 109.688 28.7761C109.688 29.2058 109.398 29.5339 108.938 29.698C108.477 29.8621 107.969 29.9402 107.383 29.9402ZM113.891 36.2605C114.727 35.6589 115.281 34.698 115.281 33.6902C115.281 32.8699 114.789 32.3621 114.164 32.3621C113.609 32.3621 113.188 32.7917 113.188 33.3308C113.188 33.8542 113.57 34.2449 114.047 34.2449C114.117 34.2449 114.266 34.2136 114.289 34.2136C114.25 34.4714 114.133 34.7449 113.922 35.0339C113.711 35.323 113.469 35.5417 113.203 35.7058L113.891 36.2605ZM121.75 34.3933C122.461 34.3933 123.18 34.323 123.906 34.1746C124.633 34.0261 125.18 33.8464 125.562 33.6199L125.531 31.9089C125.227 32.2136 124.773 32.448 124.164 32.6277C123.555 32.8074 122.914 32.9011 122.234 32.9011C121.25 32.9011 120.406 32.6511 119.703 32.1433C119 31.6355 118.633 31.0027 118.602 30.2292L118.695 30.1667C119.641 30.7761 120.805 31.0808 122.188 31.0808C124.594 31.0808 125.766 30.3777 125.766 28.8074C125.766 28.0339 125.398 27.3464 124.703 26.8152C124.008 26.2917 122.859 25.9714 121.445 25.9714C120.5 25.9714 119.656 26.1589 118.93 26.5261C117.461 27.2683 116.664 28.5964 116.664 30.1824C116.664 31.4324 117.133 32.448 118.07 33.2214C119 34.0027 120.227 34.3933 121.75 34.3933ZM121.445 29.9402C120.336 29.9402 119.406 29.7214 118.664 29.2839C118.766 28.698 119.07 28.2371 119.586 27.9011C120.094 27.5652 120.68 27.4011 121.336 27.4011C122.031 27.4011 122.609 27.5339 123.07 27.7996C123.523 28.0652 123.75 28.3933 123.75 28.7761C123.75 29.2058 123.461 29.5339 123 29.698C122.539 29.8621 122.031 29.9402 121.445 29.9402ZM129.039 34.1824C129.344 33.6042 129.688 33.0574 130.062 32.5496L131.273 31.0496H131.391L132.602 32.5339C133.07 33.1902 133.422 33.7371 133.648 34.1824H136.156C135.711 33.7058 135.141 32.9871 134.445 32.0417L132.875 30.073L134.266 28.323C134.953 27.4011 135.531 26.6902 136 26.1824H133.469C133.258 26.6042 132.938 27.1199 132.492 27.7371L131.391 29.0808H131.273L130.188 27.7371C129.766 27.1746 129.438 26.6589 129.211 26.1824H126.688C127.227 26.7839 127.797 27.4949 128.398 28.323L129.805 30.073L128.234 32.0417C127.578 32.9402 127 33.6589 126.508 34.1824H129.039ZM139.953 37.3855C139.789 36.5808 139.711 35.6824 139.711 34.698V32.1667H139.891C140.133 32.8386 140.555 33.3777 141.141 33.7839C141.727 34.1902 142.43 34.3933 143.25 34.3933C145.625 34.4167 147.133 32.5574 147.094 30.1824C147.094 28.9558 146.75 27.948 146.055 27.1589C145.359 26.3699 144.43 25.9714 143.25 25.9714C142.43 25.9714 141.734 26.1824 141.148 26.6042C140.562 27.0261 140.148 27.5574 139.891 28.198H139.711V27.7214C139.711 27.2449 139.789 26.7371 139.938 26.1824H137.328C137.477 26.8542 137.555 27.7527 137.555 28.8699V34.698C137.555 35.8152 137.477 36.7136 137.328 37.3855H139.953ZM142.352 32.7292C141.617 32.7292 141 32.4636 140.5 31.9402C140 31.4167 139.75 30.8308 139.75 30.1824C139.75 29.4558 139.992 28.8542 140.484 28.3621C140.977 27.8777 141.594 27.6355 142.352 27.6355C143.141 27.6355 143.781 27.8699 144.289 28.3464C144.789 28.823 145.039 29.4402 145.039 30.1824C145.039 30.9246 144.789 31.5339 144.289 32.0105C143.781 32.4871 143.141 32.7292 142.352 32.7292ZM153.5 34.3933C154.211 34.3933 154.93 34.323 155.656 34.1746C156.383 34.0261 156.93 33.8464 157.312 33.6199L157.281 31.9089C156.977 32.2136 156.523 32.448 155.914 32.6277C155.305 32.8074 154.664 32.9011 153.984 32.9011C153 32.9011 152.156 32.6511 151.453 32.1433C150.75 31.6355 150.383 31.0027 150.352 30.2292L150.445 30.1667C151.391 30.7761 152.555 31.0808 153.938 31.0808C156.344 31.0808 157.516 30.3777 157.516 28.8074C157.516 28.0339 157.148 27.3464 156.453 26.8152C155.758 26.2917 154.609 25.9714 153.195 25.9714C152.25 25.9714 151.406 26.1589 150.68 26.5261C149.211 27.2683 148.414 28.5964 148.414 30.1824C148.414 31.4324 148.883 32.448 149.82 33.2214C150.75 34.0027 151.977 34.3933 153.5 34.3933ZM153.195 29.9402C152.086 29.9402 151.156 29.7214 150.414 29.2839C150.516 28.698 150.82 28.2371 151.336 27.9011C151.844 27.5652 152.43 27.4011 153.086 27.4011C153.781 27.4011 154.359 27.5339 154.82 27.7996C155.273 28.0652 155.5 28.3933 155.5 28.7761C155.5 29.2058 155.211 29.5339 154.75 29.698C154.289 29.8621 153.781 29.9402 153.195 29.9402ZM161.891 34.1824C161.742 33.7683 161.664 33.1511 161.664 32.323V30.5027C161.664 29.7292 161.938 29.073 162.484 28.5183C163.031 27.9636 163.664 27.6902 164.375 27.6902C164.969 27.6902 165.594 27.8933 165.906 28.1667V26.1824C165.562 26.0417 165.164 25.9714 164.711 25.9714C163.266 25.9714 162.211 26.948 161.812 28.6433H161.664V27.9402C161.664 27.6277 161.695 27.3074 161.758 26.9714C161.82 26.6355 161.898 26.3777 162 26.1824H159.281C159.422 26.9011 159.492 27.7136 159.492 28.6121V31.9558C159.492 32.7371 159.422 33.4792 159.281 34.1824H161.891ZM168.469 24.8855C169.227 24.8855 169.734 24.3933 169.734 23.7371C169.734 23.0574 169.227 22.5652 168.469 22.5652C168.094 22.5652 167.789 22.6746 167.555 22.9011C167.32 23.1277 167.203 23.4011 167.203 23.7371C167.203 24.3933 167.719 24.8855 168.469 24.8855ZM169.797 34.1824C169.633 33.5183 169.555 32.6277 169.555 31.4949V27.7214C169.555 27.073 169.594 26.5574 169.664 26.1824C169.422 26.3464 169.031 26.4324 168.5 26.4324C167.969 26.4324 167.562 26.3464 167.281 26.1824C167.359 26.5027 167.398 27.0183 167.398 27.7214V31.4949C167.398 32.6277 167.32 33.5183 167.156 34.1824H169.797ZM174.469 34.1824C174.305 33.7371 174.227 32.9636 174.227 31.8621V30.2605C174.188 29.0183 175.211 27.7058 176.68 27.7214C178.047 27.7214 178.727 28.5808 178.727 30.0417V31.8464C178.727 32.8542 178.672 33.6355 178.562 34.1824H181.109C180.961 33.4246 180.883 32.6199 180.883 31.7683V30.1824C180.898 29.5496 181.141 28.9792 181.609 28.4714C182.07 27.9714 182.648 27.7214 183.336 27.7214C184.703 27.7214 185.383 28.5808 185.383 30.0417V31.8464C185.383 32.6824 185.305 33.4636 185.141 34.1824H187.766C187.617 33.5105 187.539 32.6667 187.539 31.6511V29.5261C187.539 27.2761 186.43 25.9714 184.242 25.9714C182.594 25.9714 181.383 26.7839 180.852 28.2136H180.711C180.305 26.7214 179.273 25.9714 177.609 25.9714C176.023 25.9714 174.945 26.7214 174.391 28.2136H174.227V27.7527C174.227 27.0886 174.32 26.5652 174.5 26.1824H171.844C171.992 26.8542 172.07 27.6667 172.07 28.6121V31.9402C172.07 32.7605 171.992 33.5105 171.844 34.1824H174.469ZM194.531 34.3933C195.242 34.3933 195.961 34.323 196.688 34.1746C197.414 34.0261 197.961 33.8464 198.344 33.6199L198.312 31.9089C198.008 32.2136 197.555 32.448 196.945 32.6277C196.336 32.8074 195.695 32.9011 195.016 32.9011C194.031 32.9011 193.188 32.6511 192.484 32.1433C191.781 31.6355 191.414 31.0027 191.383 30.2292L191.477 30.1667C192.422 30.7761 193.586 31.0808 194.969 31.0808C197.375 31.0808 198.547 30.3777 198.547 28.8074C198.547 28.0339 198.18 27.3464 197.484 26.8152C196.789 26.2917 195.641 25.9714 194.227 25.9714C193.281 25.9714 192.438 26.1589 191.711 26.5261C190.242 27.2683 189.445 28.5964 189.445 30.1824C189.445 31.4324 189.914 32.448 190.852 33.2214C191.781 34.0027 193.008 34.3933 194.531 34.3933ZM194.227 29.9402C193.117 29.9402 192.188 29.7214 191.445 29.2839C191.547 28.698 191.852 28.2371 192.367 27.9011C192.875 27.5652 193.461 27.4011 194.117 27.4011C194.812 27.4011 195.391 27.5339 195.852 27.7996C196.305 28.0652 196.531 28.3933 196.531 28.7761C196.531 29.2058 196.242 29.5339 195.781 29.698C195.32 29.8621 194.812 29.9402 194.227 29.9402ZM202.938 34.1824C202.773 33.7371 202.695 32.9636 202.695 31.8621V30.2605C202.695 29.6042 202.945 29.0183 203.438 28.4949C203.93 27.9792 204.547 27.7214 205.273 27.7214C206.688 27.7214 207.531 28.5496 207.531 30.0417V31.8464C207.531 32.6824 207.453 33.4636 207.289 34.1824H209.914C209.766 33.5105 209.688 32.6667 209.688 31.6511V29.5261C209.688 28.3933 209.383 27.5105 208.766 26.8933C208.148 26.2761 207.273 25.9714 206.156 25.9714C204.531 25.9714 203.398 26.7761 202.859 28.2136H202.695V27.7527C202.695 27.0886 202.789 26.5652 202.969 26.1824H200.312C200.461 26.8542 200.539 27.6667 200.539 28.6121V31.9402C200.539 32.7605 200.461 33.5105 200.312 34.1824H202.938ZM216.039 34.3933C216.742 34.3933 217.336 34.2683 217.812 34.0261V32.2917C217.461 32.5183 217.016 32.6277 216.469 32.6277C215.289 32.6277 214.695 32.0183 214.695 30.7917V27.5886H217.766V26.1824H214.695V22.9792L212.664 23.5261V26.1824H210.875V27.5886H212.664V31.4792C212.664 33.4246 213.789 34.3933 216.039 34.3933ZM222.117 34.3933C223.703 34.3933 224.797 33.7527 225.203 32.823H225.352V32.9636C225.352 33.5027 225.289 33.9089 225.156 34.1824H227.656C227.562 33.9167 227.5 33.5964 227.469 33.2292C227.43 32.8621 227.414 32.323 227.414 31.6199V29.0105C227.414 27.8855 226.945 27.0574 226.133 26.6121C225.312 26.1667 224.336 25.9714 223.109 25.9714C222.539 25.9714 221.914 26.0261 221.242 26.1433C220.57 26.2605 220.07 26.3855 219.734 26.5183V28.0027C219.961 27.8308 220.359 27.6667 220.93 27.5105C221.5 27.3621 222.086 27.2839 222.68 27.2839C224.375 27.2839 225.352 27.9871 225.352 29.3855V30.5027H225.172C224.977 30.0574 224.609 29.6824 224.078 29.3777C223.539 29.073 222.891 28.9167 222.133 28.9167C221.086 28.9167 220.266 29.1746 219.672 29.6824C219.07 30.1902 218.773 30.8464 218.773 31.6511C218.773 32.4558 219.07 33.1121 219.664 33.6199C220.258 34.1355 221.078 34.3933 222.117 34.3933ZM223.031 33.0496C222.352 33.0496 221.812 32.9167 221.422 32.6511C221.031 32.3933 220.836 32.0496 220.836 31.6355C220.836 30.7996 221.664 30.2292 223.031 30.2292C223.703 30.2292 224.258 30.3699 224.688 30.6589C225.117 30.948 225.336 31.2761 225.336 31.6355C225.336 32.5183 224.445 33.0496 223.031 33.0496ZM232.312 34.1824C232.164 33.4246 232.086 32.5339 232.086 31.4949V25.6667C232.086 24.6277 232.164 23.7371 232.312 22.9792H229.703C229.852 23.7371 229.93 24.6277 229.93 25.6667V31.4949C229.93 32.5339 229.852 33.4246 229.703 34.1824H232.312ZM241.555 34.3933C243.141 34.3933 244.234 33.7527 244.641 32.823H244.789V32.9636C244.789 33.5027 244.727 33.9089 244.594 34.1824H247.094C247 33.9167 246.938 33.5964 246.906 33.2292C246.867 32.8621 246.852 32.323 246.852 31.6199V29.0105C246.852 27.8855 246.383 27.0574 245.57 26.6121C244.75 26.1667 243.773 25.9714 242.547 25.9714C241.977 25.9714 241.352 26.0261 240.68 26.1433C240.008 26.2605 239.508 26.3855 239.172 26.5183V28.0027C239.398 27.8308 239.797 27.6667 240.367 27.5105C240.938 27.3621 241.523 27.2839 242.117 27.2839C243.812 27.2839 244.789 27.9871 244.789 29.3855V30.5027H244.609C244.414 30.0574 244.047 29.6824 243.516 29.3777C242.977 29.073 242.328 28.9167 241.57 28.9167C240.523 28.9167 239.703 29.1746 239.109 29.6824C238.508 30.1902 238.211 30.8464 238.211 31.6511C238.211 32.4558 238.508 33.1121 239.102 33.6199C239.695 34.1355 240.516 34.3933 241.555 34.3933ZM242.469 33.0496C241.789 33.0496 241.25 32.9167 240.859 32.6511C240.469 32.3933 240.273 32.0496 240.273 31.6355C240.273 30.7996 241.102 30.2292 242.469 30.2292C243.141 30.2292 243.695 30.3699 244.125 30.6589C244.555 30.948 244.773 31.2761 244.773 31.6355C244.773 32.5183 243.883 33.0496 242.469 33.0496ZM251.766 34.1824C251.602 33.7371 251.523 32.9636 251.523 31.8621V30.2605C251.523 29.6042 251.773 29.0183 252.266 28.4949C252.758 27.9792 253.375 27.7214 254.102 27.7214C255.516 27.7214 256.359 28.5496 256.359 30.0417V31.8464C256.359 32.6824 256.281 33.4636 256.117 34.1824H258.742C258.594 33.5105 258.516 32.6667 258.516 31.6511V29.5261C258.516 28.3933 258.211 27.5105 257.594 26.8933C256.977 26.2761 256.102 25.9714 254.984 25.9714C253.359 25.9714 252.227 26.7761 251.688 28.2136H251.523V27.7527C251.523 27.0886 251.617 26.5652 251.797 26.1824H249.141C249.289 26.8542 249.367 27.6667 249.367 28.6121V31.9402C249.367 32.7605 249.289 33.5105 249.141 34.1824H251.766ZM264.281 34.3933C265.102 34.3933 265.797 34.1824 266.375 33.7605C266.945 33.3386 267.367 32.8074 267.625 32.1667H267.805V32.6433C267.805 33.1667 267.727 33.6824 267.578 34.1824H270.188C270.039 33.4246 269.961 32.5339 269.961 31.4949V25.6667C269.961 24.6277 270.039 23.7371 270.188 22.9792H267.578C267.727 23.7371 267.805 24.6277 267.805 25.6667V28.198H267.641C267.398 27.5261 266.977 26.9871 266.383 26.5808C265.781 26.1746 265.07 25.9714 264.25 25.9714C261.891 25.948 260.406 27.823 260.445 30.1824C260.445 31.4089 260.789 32.4167 261.484 33.2058C262.172 33.9949 263.102 34.3933 264.281 34.3933ZM265.18 32.7292C264.391 32.7292 263.742 32.4871 263.234 32.0105C262.727 31.5339 262.477 30.9246 262.477 30.1824C262.477 29.4402 262.727 28.823 263.234 28.3464C263.742 27.8699 264.391 27.6355 265.18 27.6355C265.93 27.6355 266.547 27.8777 267.039 28.3621C267.531 28.8542 267.773 29.4558 267.773 30.1824C267.773 30.8308 267.523 31.4167 267.023 31.9402C266.523 32.4636 265.906 32.7292 265.18 32.7292ZM281.141 34.3933C281.656 34.3933 282.211 34.3386 282.805 34.2371C283.391 34.1355 283.859 33.9949 284.211 33.8308V32.0886C283.859 32.3152 283.445 32.5027 282.961 32.6355C282.477 32.7683 282 32.8386 281.523 32.8386C280.516 32.8386 279.695 32.5964 279.07 32.1042C278.445 31.6199 278.133 30.9792 278.133 30.1824C278.133 29.3777 278.438 28.7371 279.055 28.2527C279.664 27.7683 280.453 27.5261 281.414 27.5261C281.859 27.5261 282.297 27.5808 282.742 27.698C283.18 27.8152 283.539 27.9558 283.828 28.1355L283.914 26.4558C283.602 26.3152 283.172 26.198 282.617 26.1042C282.062 26.0183 281.578 25.9714 281.172 25.9714C279.555 25.9714 278.227 26.4246 277.383 27.1824C276.539 27.9402 276.07 28.9871 276.07 30.1824C276.07 31.3777 276.523 32.4246 277.367 33.1824C278.203 33.9402 279.523 34.3933 281.141 34.3933ZM288.422 34.1824C288.273 33.7683 288.195 33.1511 288.195 32.323V30.5027C288.195 29.7292 288.469 29.073 289.016 28.5183C289.562 27.9636 290.195 27.6902 290.906 27.6902C291.5 27.6902 292.125 27.8933 292.438 28.1667V26.1824C292.094 26.0417 291.695 25.9714 291.242 25.9714C289.797 25.9714 288.742 26.948 288.344 28.6433H288.195V27.9402C288.195 27.6277 288.227 27.3074 288.289 26.9714C288.352 26.6355 288.43 26.3777 288.531 26.1824H285.812C285.953 26.9011 286.023 27.7136 286.023 28.6121V31.9558C286.023 32.7371 285.953 33.4792 285.812 34.1824H288.422ZM298.469 34.3933C299.18 34.3933 299.898 34.323 300.625 34.1746C301.352 34.0261 301.898 33.8464 302.281 33.6199L302.25 31.9089C301.945 32.2136 301.492 32.448 300.883 32.6277C300.273 32.8074 299.633 32.9011 298.953 32.9011C297.969 32.9011 297.125 32.6511 296.422 32.1433C295.719 31.6355 295.352 31.0027 295.32 30.2292L295.414 30.1667C296.359 30.7761 297.523 31.0808 298.906 31.0808C301.312 31.0808 302.484 30.3777 302.484 28.8074C302.484 28.0339 302.117 27.3464 301.422 26.8152C300.727 26.2917 299.578 25.9714 298.164 25.9714C297.219 25.9714 296.375 26.1589 295.648 26.5261C294.18 27.2683 293.383 28.5964 293.383 30.1824C293.383 31.4324 293.852 32.448 294.789 33.2214C295.719 34.0027 296.945 34.3933 298.469 34.3933ZM298.164 29.9402C297.055 29.9402 296.125 29.7214 295.383 29.2839C295.484 28.698 295.789 28.2371 296.305 27.9011C296.812 27.5652 297.398 27.4011 298.055 27.4011C298.75 27.4011 299.328 27.5339 299.789 27.7996C300.242 28.0652 300.469 28.3933 300.469 28.7761C300.469 29.2058 300.18 29.5339 299.719 29.698C299.258 29.8621 298.75 29.9402 298.164 29.9402ZM307.195 34.3933C308.781 34.3933 309.875 33.7527 310.281 32.823H310.43V32.9636C310.43 33.5027 310.367 33.9089 310.234 34.1824H312.734C312.641 33.9167 312.578 33.5964 312.547 33.2292C312.508 32.8621 312.492 32.323 312.492 31.6199V29.0105C312.492 27.8855 312.023 27.0574 311.211 26.6121C310.391 26.1667 309.414 25.9714 308.188 25.9714C307.617 25.9714 306.992 26.0261 306.32 26.1433C305.648 26.2605 305.148 26.3855 304.812 26.5183V28.0027C305.039 27.8308 305.438 27.6667 306.008 27.5105C306.578 27.3621 307.164 27.2839 307.758 27.2839C309.453 27.2839 310.43 27.9871 310.43 29.3855V30.5027H310.25C310.055 30.0574 309.688 29.6824 309.156 29.3777C308.617 29.073 307.969 28.9167 307.211 28.9167C306.164 28.9167 305.344 29.1746 304.75 29.6824C304.148 30.1902 303.852 30.8464 303.852 31.6511C303.852 32.4558 304.148 33.1121 304.742 33.6199C305.336 34.1355 306.156 34.3933 307.195 34.3933ZM308.109 33.0496C307.43 33.0496 306.891 32.9167 306.5 32.6511C306.109 32.3933 305.914 32.0496 305.914 31.6355C305.914 30.7996 306.742 30.2292 308.109 30.2292C308.781 30.2292 309.336 30.3699 309.766 30.6589C310.195 30.948 310.414 31.2761 310.414 31.6355C310.414 32.5183 309.523 33.0496 308.109 33.0496ZM318.742 34.3933C319.445 34.3933 320.039 34.2683 320.516 34.0261V32.2917C320.164 32.5183 319.719 32.6277 319.172 32.6277C317.992 32.6277 317.398 32.0183 317.398 30.7917V27.5886H320.469V26.1824H317.398V22.9792L315.367 23.5261V26.1824H313.578V27.5886H315.367V31.4792C315.367 33.4246 316.492 34.3933 318.742 34.3933ZM323.078 24.8855C323.836 24.8855 324.344 24.3933 324.344 23.7371C324.344 23.0574 323.836 22.5652 323.078 22.5652C322.703 22.5652 322.398 22.6746 322.164 22.9011C321.93 23.1277 321.812 23.4011 321.812 23.7371C321.812 24.3933 322.328 24.8855 323.078 24.8855ZM324.406 34.1824C324.242 33.5183 324.164 32.6277 324.164 31.4949V27.7214C324.164 27.073 324.203 26.5574 324.273 26.1824C324.031 26.3464 323.641 26.4324 323.109 26.4324C322.578 26.4324 322.172 26.3464 321.891 26.1824C321.969 26.5027 322.008 27.0183 322.008 27.7214V31.4949C322.008 32.6277 321.93 33.5183 321.766 34.1824H324.406ZM332.039 34.1824C332.07 33.6589 332.227 33.0027 332.5 32.198L334.164 28.323C334.5 27.4402 334.82 26.7214 335.141 26.1824H332.602C332.531 26.7371 332.391 27.2761 332.18 27.7996L330.664 31.448C330.516 31.8933 330.391 32.2683 330.297 32.5808H330.148C330.086 32.3542 329.961 31.9792 329.781 31.4636L328.266 27.7996C328.047 27.2292 327.906 26.6902 327.844 26.1824H325.32C325.609 26.6746 325.93 27.3933 326.281 28.323L327.961 32.198C328.234 32.9871 328.375 33.6433 328.391 34.1824H332.039ZM340.844 34.3933C341.555 34.3933 342.273 34.323 343 34.1746C343.727 34.0261 344.273 33.8464 344.656 33.6199L344.625 31.9089C344.32 32.2136 343.867 32.448 343.258 32.6277C342.648 32.8074 342.008 32.9011 341.328 32.9011C340.344 32.9011 339.5 32.6511 338.797 32.1433C338.094 31.6355 337.727 31.0027 337.695 30.2292L337.789 30.1667C338.734 30.7761 339.898 31.0808 341.281 31.0808C343.688 31.0808 344.859 30.3777 344.859 28.8074C344.859 28.0339 344.492 27.3464 343.797 26.8152C343.102 26.2917 341.953 25.9714 340.539 25.9714C339.594 25.9714 338.75 26.1589 338.023 26.5261C336.555 27.2683 335.758 28.5964 335.758 30.1824C335.758 31.4324 336.227 32.448 337.164 33.2214C338.094 34.0027 339.32 34.3933 340.844 34.3933ZM340.539 29.9402C339.43 29.9402 338.5 29.7214 337.758 29.2839C337.859 28.698 338.164 28.2371 338.68 27.9011C339.188 27.5652 339.773 27.4011 340.43 27.4011C341.125 27.4011 341.703 27.5339 342.164 27.7996C342.617 28.0652 342.844 28.3933 342.844 28.7761C342.844 29.2058 342.555 29.5339 342.094 29.698C341.633 29.8621 341.125 29.9402 340.539 29.9402ZM125.203 56.3933C125.719 56.3933 126.273 56.3386 126.867 56.2371C127.453 56.1355 127.922 55.9949 128.273 55.8308V54.0886C127.922 54.3152 127.508 54.5027 127.023 54.6355C126.539 54.7683 126.062 54.8386 125.586 54.8386C124.578 54.8386 123.758 54.5964 123.133 54.1042C122.508 53.6199 122.195 52.9792 122.195 52.1824C122.195 51.3777 122.5 50.7371 123.117 50.2527C123.727 49.7683 124.516 49.5261 125.477 49.5261C125.922 49.5261 126.359 49.5808 126.805 49.698C127.242 49.8152 127.602 49.9558 127.891 50.1355L127.977 48.4558C127.664 48.3152 127.234 48.198 126.68 48.1042C126.125 48.0183 125.641 47.9714 125.234 47.9714C123.617 47.9714 122.289 48.4246 121.445 49.1824C120.602 49.9402 120.133 50.9871 120.133 52.1824C120.133 53.3777 120.586 54.4246 121.43 55.1824C122.266 55.9402 123.586 56.3933 125.203 56.3933ZM136.164 56.0652C137.922 55.4324 138.914 53.9714 138.914 52.1824C138.914 50.9949 138.469 49.9402 137.672 49.1824C136.875 48.4324 135.641 47.9714 134.195 47.9714C132.734 47.9714 131.508 48.4324 130.711 49.1824C129.914 49.9402 129.461 50.9949 129.461 52.1824C129.461 53.3699 129.914 54.4246 130.711 55.1746C131.109 55.5574 131.602 55.8542 132.203 56.0652C132.797 56.2839 133.453 56.3933 134.18 56.3933C134.906 56.3933 135.562 56.2839 136.164 56.0652ZM134.18 54.8855C133.406 54.8855 132.766 54.6277 132.258 54.1199C131.75 53.6121 131.492 52.9714 131.492 52.1824C131.492 51.3933 131.75 50.7449 132.258 50.2371C132.766 49.7292 133.406 49.4792 134.18 49.4792C134.961 49.4792 135.609 49.7292 136.117 50.2371C136.625 50.7449 136.883 51.3933 136.883 52.1824C136.883 52.9714 136.625 53.6199 136.117 54.1277C135.609 54.6355 134.961 54.8855 134.18 54.8855ZM143.297 56.1824C143.133 55.7371 143.055 54.9636 143.055 53.8621V52.2605C143.016 51.0183 144.039 49.7058 145.508 49.7214C146.875 49.7214 147.555 50.5808 147.555 52.0417V53.8464C147.555 54.8542 147.5 55.6355 147.391 56.1824H149.938C149.789 55.4246 149.711 54.6199 149.711 53.7683V52.1824C149.727 51.5496 149.969 50.9792 150.438 50.4714C150.898 49.9714 151.477 49.7214 152.164 49.7214C153.531 49.7214 154.211 50.5808 154.211 52.0417V53.8464C154.211 54.6824 154.133 55.4636 153.969 56.1824H156.594C156.445 55.5105 156.367 54.6667 156.367 53.6511V51.5261C156.367 49.2761 155.258 47.9714 153.07 47.9714C151.422 47.9714 150.211 48.7839 149.68 50.2136H149.539C149.133 48.7214 148.102 47.9714 146.438 47.9714C144.852 47.9714 143.773 48.7214 143.219 50.2136H143.055V49.7527C143.055 49.0886 143.148 48.5652 143.328 48.1824H140.672C140.82 48.8542 140.898 49.6667 140.898 50.6121V53.9402C140.898 54.7605 140.82 55.5105 140.672 56.1824H143.297ZM161.312 56.1824C161.148 55.7371 161.07 54.9636 161.07 53.8621V52.2605C161.031 51.0183 162.055 49.7058 163.523 49.7214C164.891 49.7214 165.57 50.5808 165.57 52.0417V53.8464C165.57 54.8542 165.516 55.6355 165.406 56.1824H167.953C167.805 55.4246 167.727 54.6199 167.727 53.7683V52.1824C167.742 51.5496 167.984 50.9792 168.453 50.4714C168.914 49.9714 169.492 49.7214 170.18 49.7214C171.547 49.7214 172.227 50.5808 172.227 52.0417V53.8464C172.227 54.6824 172.148 55.4636 171.984 56.1824H174.609C174.461 55.5105 174.383 54.6667 174.383 53.6511V51.5261C174.383 49.2761 173.273 47.9714 171.086 47.9714C169.438 47.9714 168.227 48.7839 167.695 50.2136H167.555C167.148 48.7214 166.117 47.9714 164.453 47.9714C162.867 47.9714 161.789 48.7214 161.234 50.2136H161.07V49.7527C161.07 49.0886 161.164 48.5652 161.344 48.1824H158.688C158.836 48.8542 158.914 49.6667 158.914 50.6121V53.9402C158.914 54.7605 158.836 55.5105 158.688 56.1824H161.312ZM180.242 56.3933C181.867 56.3933 183 55.5964 183.539 54.1667H183.703V54.6121C183.703 55.2605 183.617 55.7839 183.445 56.1824H186.102C185.938 55.4636 185.859 54.6511 185.859 53.7527V50.4246C185.859 49.6511 185.938 48.9011 186.102 48.1824H183.477C183.625 48.6589 183.703 49.4324 183.703 50.5027V52.1042C183.703 52.7605 183.453 53.3464 182.961 53.8621C182.469 54.3855 181.859 54.6433 181.141 54.6433C179.711 54.6433 178.883 53.8152 178.883 52.3386V50.5183C178.883 49.6355 178.961 48.8542 179.109 48.1824H176.5C176.641 48.8855 176.711 49.7292 176.711 50.7136V52.8386C176.711 53.9792 177.023 54.8542 177.641 55.4714C178.258 56.0886 179.125 56.3933 180.242 56.3933ZM190.891 56.1824C190.727 55.7371 190.648 54.9636 190.648 53.8621V52.2605C190.648 51.6042 190.898 51.0183 191.391 50.4949C191.883 49.9792 192.5 49.7214 193.227 49.7214C194.641 49.7214 195.484 50.5496 195.484 52.0417V53.8464C195.484 54.6824 195.406 55.4636 195.242 56.1824H197.867C197.719 55.5105 197.641 54.6667 197.641 53.6511V51.5261C197.641 50.3933 197.336 49.5105 196.719 48.8933C196.102 48.2761 195.227 47.9714 194.109 47.9714C192.484 47.9714 191.352 48.7761 190.812 50.2136H190.648V49.7527C190.648 49.0886 190.742 48.5652 190.922 48.1824H188.266C188.414 48.8542 188.492 49.6667 188.492 50.6121V53.9402C188.492 54.7605 188.414 55.5105 188.266 56.1824H190.891ZM201.234 46.8855C201.992 46.8855 202.5 46.3933 202.5 45.7371C202.5 45.0574 201.992 44.5652 201.234 44.5652C200.859 44.5652 200.555 44.6746 200.32 44.9011C200.086 45.1277 199.969 45.4011 199.969 45.7371C199.969 46.3933 200.484 46.8855 201.234 46.8855ZM202.562 56.1824C202.398 55.5183 202.32 54.6277 202.32 53.4949V49.7214C202.32 49.073 202.359 48.5574 202.43 48.1824C202.188 48.3464 201.797 48.4324 201.266 48.4324C200.734 48.4324 200.328 48.3464 200.047 48.1824C200.125 48.5027 200.164 49.0183 200.164 49.7214V53.4949C200.164 54.6277 200.086 55.5183 199.922 56.1824H202.562ZM208.883 56.3933C209.586 56.3933 210.18 56.2683 210.656 56.0261V54.2917C210.305 54.5183 209.859 54.6277 209.312 54.6277C208.133 54.6277 207.539 54.0183 207.539 52.7917V49.5886H210.609V48.1824H207.539V44.9792L205.508 45.5261V48.1824H203.719V49.5886H205.508V53.4792C205.508 55.4246 206.633 56.3933 208.883 56.3933ZM216.391 59.8777C219.258 59.8777 221.781 58.6355 221.781 55.7839C221.781 55.2761 221.625 54.7449 221.312 54.198V50.4246C221.312 49.6667 221.391 48.9167 221.555 48.1824H218.93C219.078 48.5964 219.156 49.3699 219.156 50.5027V52.1042C219.156 52.7605 218.906 53.3464 218.414 53.8621C217.922 54.3855 217.312 54.6433 216.594 54.6433C215.164 54.6433 214.336 53.8152 214.336 52.3386V50.5183C214.336 49.6511 214.414 48.8699 214.562 48.1824H211.953C212.102 48.9558 212.18 49.7996 212.18 50.7136V52.8386C212.18 55.1199 213.453 56.3933 215.695 56.3933C217.344 56.3933 218.547 55.5808 219.078 54.1355H219.219C219.539 54.5886 219.695 55.0496 219.695 55.5261C219.695 57.5886 218.109 58.4089 216.055 58.4089C215.297 58.4089 214.562 58.2996 213.836 58.0886C213.109 57.8777 212.492 57.573 212 57.1902V59.0808C213.172 59.6121 214.633 59.8777 216.391 59.8777ZM224.336 56.0496C224.531 55.8542 224.625 55.6277 224.625 55.3542C224.625 55.0808 224.531 54.8464 224.336 54.6511C224.141 54.4558 223.906 54.3621 223.633 54.3621C223.359 54.3621 223.117 54.4558 222.922 54.6511C222.727 54.8464 222.625 55.0808 222.625 55.3542C222.625 55.6277 222.727 55.8542 222.922 56.0496C223.117 56.2449 223.359 56.3386 223.633 56.3386C223.906 56.3386 224.141 56.2449 224.336 56.0496Z" fill="black"/>
</svg>
