<svg width="78" height="53" viewBox="0 0 78 53" fill="none" xmlns="http://www.w3.org/2000/svg">
<path d="M15.4907 0.968139C15.4907 10.6498 20.3315 15.4906 30.0132 15.4906M30.0132 15.4906C20.3315 15.4906 15.4907 20.3315 15.4907 30.0131M0.968205 15.4906C10.6499 15.4906 15.4907 10.6498 15.4907 0.96814M15.4907 30.0131C15.4907 20.3315 10.6499 15.4906 0.968205 15.4906" stroke="#C04397" stroke-width="2"/>
<path d="M46.9226 21.0602C46.9226 28.5777 50.6813 32.3365 58.1989 32.3365M58.1989 32.3365C50.6813 32.3365 46.9226 36.0952 46.9226 43.6128M35.6463 32.3365C43.1638 32.3365 46.9226 28.5777 46.9226 21.0602M46.9226 43.6128C46.9226 36.0952 43.1638 32.3365 35.6463 32.3365" stroke="#C04397" stroke-width="2"/>
<path d="M61.1235 3.05743C61.1235 8.86643 64.028 11.7709 69.837 11.7709M69.837 11.7709C64.028 11.7709 61.1235 14.6754 61.1235 20.4844M52.41 11.7709C58.219 11.7709 61.1235 8.86643 61.1235 3.05743M61.1235 20.4844C61.1235 14.6754 58.219 11.7709 52.41 11.7709" stroke="#C04397" stroke-width="2"/>
</svg>
