<svg width="27" height="37" viewBox="0 0 27 37" fill="none" xmlns="http://www.w3.org/2000/svg">
<path d="M3.81087 19.1288C4.42255 17.1086 3.90928 12.821 3.57618 10.9297C3.90343 11.0315 4.77928 11.4378 5.66469 12.2493C6.5501 13.0609 7.88147 14.137 8.43648 14.5736C8.53387 14.4346 8.76014 14.016 8.88612 13.4538C9.0436 12.7511 10.5305 9.53616 11.5644 7.58223C12.3916 6.01908 15.3846 3.24388 16.7777 2.05167C17.1126 1.82395 17.8388 1.3698 18.0647 1.37501C18.2907 1.38022 18.2487 1.56761 18.1994 1.66065C17.1229 4.23519 17.6293 8.00466 18.017 9.56757L19.5746 15.5368C19.7823 16.3327 19.7712 19.2615 19.7398 20.6264C20.126 20.2115 21.072 19.2162 21.7653 18.554C22.632 17.7264 25.8991 16.9542 25.7514 17.2333C25.6037 17.5124 24.8163 21.0258 24.6588 21.7287L24.6588 21.7287C24.5013 22.4315 23.7106 26.0862 23.3957 27.4917C22.2043 30.1483 19.893 32.3553 19.1708 33.045L19.1708 33.045C18.4485 33.7347 16.7249 34.9664 12.6074 35.8603C8.48995 36.7542 7.24525 35.5954 5.70513 34.9948C4.47304 34.5143 2.97396 32.954 2.37843 32.2339C0.723172 30.5005 1.14707 26.4134 1.56593 24.5866C2.05938 23.609 3.19919 21.149 3.81087 19.1288Z" fill="#E94633" stroke="white" stroke-width="0.80444"/>
<path d="M17.7383 27.7851C17.7488 27.3333 18.0793 25.2501 18.2433 24.265C17.5605 24.4753 15.9559 25.4366 15.239 25.891C15.2586 25.0438 15.2431 23.2634 15.025 22.9193C14.7524 22.4892 14.3744 20.5027 14.1213 19.2255C13.9189 18.2037 14.0913 16.4465 14.2028 15.6956C11.6943 16.6549 9.84641 20.8221 9.23603 22.7858L8.54308 22.2047L6.59566 20.8884C6.67894 21.3612 6.83702 22.674 6.80315 24.1424C6.76928 25.6108 6.07811 26.9982 5.73676 27.5083C5.39319 28.1125 4.86637 29.7203 5.50763 31.3173C6.3092 33.3136 8.12845 34.0619 8.54878 34.2128C8.96911 34.3638 10.3811 34.3964 12.0819 34.1531C13.7828 33.9098 15.0828 32.6683 15.9495 31.8407C16.8163 31.0131 17.7253 28.3499 17.7383 27.7851Z" fill="#F5B840" stroke="white" stroke-width="0.80444"/>
<path d="M11.8307 26.6601C11.6074 26.5419 10.9825 26.6876 10.6979 26.7752C10.2164 27.235 9.19497 28.238 8.96124 28.5717C8.66908 28.9888 8.21944 30.1086 8.19664 31.0969C8.17385 32.0853 8.72886 32.5219 9.28712 32.8173C9.84539 33.1127 10.837 32.9943 11.405 32.8662C11.9731 32.738 12.4195 31.7594 12.5672 31.4803C12.7149 31.2011 12.616 29.3623 12.5009 28.2295C12.3857 27.0967 12.1099 26.8078 11.8307 26.6601Z" fill="#422ED0" stroke="white" stroke-width="0.80444"/>
</svg>
