<svg width="185" height="148" viewBox="0 0 185 148" fill="none" xmlns="http://www.w3.org/2000/svg">
<rect x="0.664062" y="37.6165" width="161.819" height="112.635" rx="2.35007" transform="rotate(-13.262 0.664062 37.6165)" fill="#48AABF"/>
<g clip-path="url(#clip0_2392_4255)">
<path d="M54.3487 57.214L62.0832 76.82L70.2158 57.3758L67.953 78.3305L84.1903 64.8928L72.4485 82.3957L93.0707 78.0431L74.5399 88.0845L94.8227 93.8141L73.748 94.0935L89.0448 108.593L70.2543 99.0463L77.0608 118.993L64.8591 101.808L61.616 122.634L58.7984 101.746L46.2487 118.679L53.4606 98.8751L34.4793 108.036L50.0686 93.8521L29.004 93.143L49.3994 87.8281L31.0772 77.411L51.6063 82.1832L40.2239 64.4445L56.1838 78.2104L54.3487 57.214Z" fill="#C7E377"/>
<path d="M38.7725 15.0677C38.7765 15.2022 38.7484 15.3131 38.6882 15.4006C38.6279 15.4874 38.5513 15.5417 38.4585 15.5636C38.348 15.5896 38.2406 15.5659 38.1366 15.4925C38.0325 15.419 37.9618 15.3033 37.9246 15.1453C37.8885 14.9922 37.9045 14.8572 37.9727 14.7401C38.0416 14.6229 38.1398 14.5493 38.2673 14.5192C38.363 14.4967 38.4477 14.5036 38.5213 14.5401C38.5948 14.5759 38.638 14.6211 38.6509 14.6757C38.6572 14.7026 38.6535 14.7266 38.6398 14.7478C38.6267 14.7681 38.6045 14.782 38.5733 14.7893C38.5315 14.7992 38.4968 14.7931 38.4692 14.7712C38.4537 14.7592 38.4388 14.7327 38.4247 14.6919C38.4113 14.651 38.3896 14.6224 38.3597 14.6063C38.3298 14.5909 38.293 14.5884 38.249 14.5987C38.1782 14.6154 38.1273 14.6551 38.0964 14.7177C38.0554 14.8007 38.0483 14.8992 38.0752 15.0133C38.1026 15.1295 38.1552 15.2256 38.2329 15.3015C38.3112 15.3765 38.3989 15.4026 38.4959 15.3797C38.5654 15.3634 38.6222 15.3249 38.6662 15.2644C38.6975 15.2227 38.7215 15.1545 38.7381 15.0601L38.7725 15.0677ZM39.2399 14.29C39.3873 14.2553 39.5188 14.2834 39.6345 14.3743C39.7329 14.4521 39.7967 14.553 39.8259 14.677C39.8464 14.7641 39.8463 14.8573 39.8256 14.9564C39.8048 15.0556 39.7629 15.1365 39.6999 15.1992C39.6376 15.2618 39.5615 15.3036 39.4715 15.3248C39.3248 15.3594 39.1944 15.3284 39.0804 15.2319C38.9842 15.1506 38.9217 15.0487 38.8928 14.9261C38.8717 14.8368 38.8728 14.743 38.8961 14.6448C38.9198 14.5457 38.9629 14.4667 39.0253 14.4079C39.0876 14.3483 39.1591 14.309 39.2399 14.29ZM39.2232 14.3669C39.1857 14.3757 39.1504 14.396 39.1175 14.4277C39.0851 14.4585 39.0639 14.5046 39.0537 14.5661C39.0435 14.6276 39.0487 14.7023 39.0694 14.7902C39.1028 14.9319 39.1596 15.0475 39.2398 15.1371C39.3207 15.2265 39.4073 15.2603 39.4994 15.2386C39.5681 15.2224 39.6181 15.1807 39.6494 15.1135C39.6807 15.0463 39.68 14.9436 39.6475 14.8054C39.6067 14.6325 39.5375 14.5052 39.4397 14.4236C39.3733 14.3674 39.3012 14.3485 39.2232 14.3669ZM40.1845 14.285C40.2662 14.1207 40.3588 14.0263 40.4623 14.0019C40.5154 13.9894 40.5643 13.9921 40.6089 14.01C40.6533 14.0272 40.6941 14.0636 40.7311 14.1192C40.7567 14.158 40.7799 14.2214 40.8006 14.3092L40.8985 14.7248C40.9131 14.7865 40.9279 14.8271 40.943 14.8468C40.955 14.8626 40.9706 14.8735 40.99 14.8794C41.01 14.8852 41.0434 14.8825 41.0902 14.8715L41.0992 14.9098L40.6177 15.0233L40.6087 14.985L40.6289 14.9802C40.6742 14.9696 40.7042 14.9554 40.7187 14.9378C40.7338 14.9192 40.7417 14.8957 40.7425 14.8671C40.7428 14.8558 40.7364 14.8222 40.7232 14.7662L40.6292 14.3676C40.6083 14.279 40.5815 14.2176 40.5488 14.1835C40.5166 14.1484 40.4732 14.1373 40.4187 14.1502C40.3343 14.1701 40.2612 14.2359 40.1993 14.3477L40.3203 14.8611C40.3358 14.927 40.3493 14.9668 40.3608 14.9806C40.3756 14.9988 40.3926 15.0109 40.412 15.0168C40.4319 15.0218 40.4684 15.0181 40.5215 15.0056L40.5305 15.0438L40.049 15.1573L40.04 15.119L40.0613 15.114C40.1109 15.1023 40.1413 15.0821 40.1524 15.0533C40.1641 15.0236 40.1616 14.9733 40.1449 14.9025L40.0598 14.5411C40.0322 14.4241 40.0126 14.3536 40.0009 14.3294C39.9899 14.3051 39.9777 14.2896 39.9642 14.2831C39.9514 14.2764 39.9358 14.2752 39.9173 14.2796C39.8975 14.2842 39.875 14.2951 39.8499 14.3123L39.8249 14.2778L40.0902 14.0896L40.1359 14.0788L40.1845 14.285ZM41.5698 13.7409L41.648 14.0725L41.6129 14.0808C41.5614 13.9829 41.51 13.9203 41.4586 13.8927C41.408 13.865 41.35 13.8589 41.2848 13.8742C41.2352 13.8859 41.1983 13.9085 41.174 13.9419C41.1497 13.9753 41.1413 14.0079 41.1488 14.0398C41.1582 14.0795 41.1776 14.1108 41.2069 14.1338C41.2357 14.1577 41.2876 14.178 41.3626 14.1947L41.5356 14.2336C41.696 14.2699 41.7897 14.3454 41.8168 14.4602C41.8376 14.5488 41.8208 14.6283 41.7664 14.6987C41.7125 14.7682 41.6441 14.8128 41.5612 14.8323C41.5016 14.8464 41.4311 14.8518 41.3496 14.8485C41.3245 14.847 41.3045 14.8479 41.2897 14.8514C41.2734 14.8553 41.2628 14.8675 41.2579 14.8881L41.2228 14.8964L41.1409 14.5488L41.176 14.5405C41.2192 14.6351 41.2747 14.7009 41.3426 14.738C41.4104 14.7751 41.4791 14.7855 41.5485 14.7691C41.5974 14.7576 41.6337 14.7341 41.6575 14.6985C41.6819 14.6621 41.6893 14.6237 41.6797 14.5834C41.6682 14.5345 41.6412 14.4975 41.5986 14.4723C41.5567 14.447 41.4784 14.421 41.3636 14.3942C41.2489 14.3674 41.1707 14.3372 41.1291 14.3036C41.0877 14.2707 41.0597 14.2235 41.0452 14.1618C41.0263 14.0818 41.0378 14.0084 41.0797 13.9416C41.1223 13.8748 41.1872 13.8311 41.2743 13.8105C41.3126 13.8015 41.3609 13.7987 41.4193 13.8021C41.458 13.8042 41.4833 13.8039 41.4954 13.801C41.5067 13.7984 41.515 13.7938 41.5202 13.7873C41.5254 13.7809 41.5302 13.7681 41.5347 13.7491L41.5698 13.7409ZM42.0029 13.3314L42.0783 13.6513L42.3057 13.5977L42.3233 13.6721L42.0958 13.7257L42.2446 14.3571C42.2595 14.4202 42.2784 14.4606 42.3012 14.4784C42.3249 14.496 42.3508 14.5015 42.3792 14.4948C42.4026 14.4893 42.4236 14.4769 42.4422 14.4575C42.4606 14.4374 42.4726 14.4118 42.4779 14.3806L42.5194 14.3709C42.5109 14.4462 42.4882 14.5069 42.4512 14.553C42.4141 14.5984 42.3714 14.6268 42.3232 14.6381C42.2906 14.6458 42.2566 14.6445 42.2213 14.6341C42.1857 14.623 42.1566 14.6026 42.1339 14.5728C42.111 14.5423 42.0913 14.492 42.0747 14.4218L41.9204 13.7671L41.7663 13.8034L41.758 13.7683C41.7933 13.7435 41.8268 13.708 41.8585 13.6616C41.8908 13.6144 41.9168 13.5615 41.9367 13.5029C41.9467 13.4722 41.9577 13.4176 41.9699 13.3391L42.0029 13.3314ZM42.6795 13.4793L42.7311 13.6983C42.7782 13.5331 42.8446 13.4404 42.9303 13.4202C42.9693 13.411 43.0044 13.4155 43.0356 13.4335C43.0666 13.4509 43.0858 13.4752 43.0931 13.5064C43.0997 13.534 43.096 13.5596 43.082 13.583C43.0681 13.6065 43.0484 13.6213 43.0229 13.6273C42.9981 13.6331 42.9673 13.6277 42.9304 13.6109C42.8941 13.5933 42.8685 13.5862 42.8536 13.5897C42.8409 13.5928 42.8287 13.6031 42.8172 13.6208C42.7921 13.6573 42.7705 13.7129 42.7521 13.7876L42.8621 14.2542C42.8748 14.308 42.8912 14.3472 42.9111 14.3717C42.9248 14.3886 42.9449 14.4007 42.9713 14.408C42.9977 14.4152 43.0328 14.4137 43.0768 14.4033L43.0858 14.4416L42.5873 14.5591L42.5783 14.5208C42.6279 14.5091 42.6629 14.4926 42.6833 14.4714C42.6983 14.4558 42.7065 14.4349 42.7077 14.4084C42.7084 14.3955 42.7021 14.3607 42.6887 14.304L42.5998 13.9267C42.5731 13.8133 42.5547 13.7466 42.5448 13.7265C42.5353 13.7055 42.5231 13.6916 42.508 13.6847C42.4936 13.6776 42.4772 13.6762 42.4588 13.6806C42.4368 13.6857 42.4133 13.6969 42.3881 13.714L42.3685 13.6783L42.6349 13.4898L42.6795 13.4793ZM43.9798 13.2031L44.1189 13.7931C44.1454 13.9057 44.1642 13.9742 44.1752 13.9986C44.1867 14.022 44.1993 14.0374 44.2129 14.0446C44.2273 14.0517 44.2423 14.0534 44.2579 14.0498C44.2799 14.0446 44.3033 14.0327 44.328 14.0142L44.3517 14.0478L44.0888 14.2366L44.0409 14.2479L43.9923 14.0417C43.9301 14.1521 43.8798 14.2241 43.8413 14.2579C43.8029 14.2916 43.7593 14.3143 43.7104 14.3258C43.6558 14.3386 43.6047 14.3342 43.5569 14.3126C43.5097 14.29 43.4725 14.2558 43.4452 14.2099C43.4179 14.164 43.3936 14.0956 43.3722 14.0049L43.2698 13.5702C43.2589 13.5241 43.2464 13.4934 43.2323 13.4781C43.2182 13.4627 43.2002 13.4527 43.1782 13.4482C43.1567 13.4428 43.1205 13.4464 43.0697 13.4592L43.0604 13.4198L43.4016 13.3394L43.5552 13.991C43.5765 14.0817 43.6062 14.1375 43.644 14.1585C43.6826 14.1794 43.7242 14.1845 43.7688 14.174C43.7993 14.1668 43.8314 14.1492 43.8652 14.121C43.8996 14.0927 43.9371 14.0453 43.9776 13.979L43.8475 13.4273C43.8345 13.372 43.8155 13.3372 43.7904 13.323C43.7659 13.3078 43.7216 13.307 43.6575 13.3206L43.6482 13.2813L43.9798 13.2031ZM45.184 13.5566C45.188 13.691 45.1599 13.802 45.0997 13.8895C45.0394 13.9763 44.9628 14.0306 44.87 14.0525C44.7595 14.0785 44.6522 14.0548 44.5481 13.9814C44.444 13.9079 44.3733 13.7922 44.3361 13.6342C44.3 13.4811 44.3161 13.346 44.3842 13.229C44.4531 13.1118 44.5513 13.0382 44.6788 13.0081C44.7745 12.9856 44.8592 12.9925 44.9328 13.029C45.0064 13.0648 45.0495 13.11 45.0624 13.1645C45.0687 13.1915 45.0651 13.2155 45.0514 13.2367C45.0382 13.257 45.016 13.2708 44.9848 13.2782C44.943 13.288 44.9083 13.282 44.8807 13.2601C44.8652 13.248 44.8503 13.2216 44.8362 13.1808C44.8228 13.1398 44.8011 13.1113 44.7712 13.0952C44.7414 13.0798 44.7045 13.0772 44.6606 13.0876C44.5897 13.1043 44.5388 13.1439 44.508 13.2066C44.4669 13.2895 44.4599 13.3881 44.4867 13.5022C44.5141 13.6184 44.5667 13.7144 44.6444 13.7904C44.7227 13.8654 44.8104 13.8915 44.9075 13.8686C44.9769 13.8522 45.0337 13.8138 45.0777 13.7533C45.109 13.7115 45.133 13.6434 45.1496 13.549L45.184 13.5566ZM45.3893 12.5332L45.4647 12.8532L45.6922 12.7996L45.7097 12.874L45.4823 12.9276L45.6311 13.5589C45.6459 13.622 45.6648 13.6624 45.6877 13.6802C45.7113 13.6979 45.7373 13.7033 45.7656 13.6966C45.789 13.6911 45.81 13.6787 45.8286 13.6594C45.8471 13.6393 45.859 13.6137 45.8644 13.5825L45.9058 13.5727C45.8974 13.648 45.8747 13.7087 45.8377 13.7548C45.8005 13.8002 45.7578 13.8286 45.7096 13.84C45.6771 13.8477 45.6431 13.8463 45.6077 13.836C45.5722 13.8249 45.5431 13.8045 45.5203 13.7747C45.4974 13.7441 45.4777 13.6938 45.4612 13.6237L45.3069 12.9689L45.1528 13.0052L45.1445 12.9702C45.1798 12.9454 45.2133 12.9098 45.245 12.8634C45.2772 12.8162 45.3033 12.7633 45.3232 12.7048C45.3331 12.674 45.3442 12.6194 45.3564 12.541L45.3893 12.5332ZM46.038 13.1051C46.0713 13.2499 46.1331 13.355 46.2234 13.4205C46.3136 13.486 46.4065 13.5074 46.5022 13.4849C46.566 13.4699 46.6172 13.4395 46.6557 13.3937C46.6949 13.3471 46.7204 13.2775 46.7322 13.185L46.7702 13.1985C46.7782 13.2991 46.7558 13.3978 46.7031 13.4948C46.6503 13.591 46.57 13.6518 46.4623 13.6772C46.3453 13.7047 46.2344 13.683 46.1294 13.612C46.0249 13.5402 45.9546 13.4273 45.9183 13.2736C45.8791 13.1071 45.8911 12.9674 45.9542 12.8545C46.0179 12.7407 46.1142 12.6687 46.2432 12.6383C46.3523 12.6126 46.4505 12.6276 46.5377 12.6833C46.6247 12.7383 46.6824 12.8261 46.7108 12.9466L46.038 13.1051ZM46.0234 13.0435L46.4741 12.9373C46.4559 12.8757 46.4381 12.8336 46.4207 12.8107C46.3937 12.7752 46.3597 12.7503 46.319 12.736C46.2789 12.7215 46.2397 12.7188 46.2015 12.7278C46.1427 12.7416 46.0953 12.7771 46.0594 12.8342C46.024 12.8904 46.012 12.9602 46.0234 13.0435ZM47.6465 13.2511C47.6107 13.3119 47.5727 13.3586 47.5325 13.3913C47.4922 13.4232 47.4458 13.4454 47.3934 13.4577C47.2871 13.4828 47.1838 13.4604 47.0836 13.3905C46.9832 13.3199 46.9165 13.2148 46.8836 13.0752C46.8507 12.9356 46.8646 12.7977 46.9252 12.6615C46.9857 12.5246 47.085 12.4399 47.2232 12.4073C47.309 12.3871 47.3862 12.3977 47.4551 12.439L47.4128 12.2594C47.3865 12.1482 47.3676 12.0804 47.3559 12.0563C47.3449 12.0319 47.3327 12.0165 47.3192 12.0099C47.3057 12.0034 47.2904 12.0021 47.2734 12.0061C47.255 12.0105 47.2319 12.0219 47.2041 12.0404L47.1815 12.0065L47.4436 11.8191L47.4914 11.8078L47.7567 12.9334C47.7836 13.0475 47.8025 13.1167 47.8135 13.1411C47.825 13.1645 47.8376 13.1799 47.8513 13.1871C47.8657 13.1942 47.8807 13.1959 47.8963 13.1922C47.9154 13.1877 47.9395 13.1757 47.9685 13.1561L47.989 13.1906L47.7282 13.3788L47.6793 13.3903L47.6465 13.2511ZM47.6289 13.1767L47.5107 12.675C47.4951 12.6278 47.472 12.5869 47.4414 12.5522C47.4108 12.5176 47.3754 12.4945 47.3353 12.483C47.2957 12.4706 47.2593 12.4684 47.226 12.4762C47.1636 12.4909 47.1146 12.532 47.0789 12.5995C47.0318 12.6884 47.0249 12.8037 47.0583 12.9454C47.0921 13.0886 47.1491 13.1911 47.2295 13.2529C47.3098 13.314 47.3881 13.3356 47.4647 13.3175C47.5292 13.3023 47.5839 13.2554 47.6289 13.1767ZM49.0102 11.9872L49.0884 12.3189L49.0533 12.3271C49.0018 12.2293 48.9504 12.1666 48.899 12.1391C48.8484 12.1114 48.7905 12.1052 48.7253 12.1206C48.6757 12.1323 48.6387 12.1548 48.6144 12.1882C48.5901 12.2216 48.5817 12.2543 48.5893 12.2862C48.5986 12.3258 48.618 12.3572 48.6473 12.3802C48.6761 12.4041 48.728 12.4244 48.803 12.4411L48.976 12.48C49.1364 12.5162 49.2301 12.5918 49.2572 12.7066C49.2781 12.7951 49.2613 12.8746 49.2068 12.9451C49.1529 13.0146 49.0845 13.0592 49.0016 13.0787C48.942 13.0927 48.8715 13.0981 48.79 13.0949C48.7649 13.0933 48.745 13.0943 48.7301 13.0978C48.7138 13.1017 48.7032 13.1139 48.6983 13.1345L48.6632 13.1427L48.5813 12.7952L48.6164 12.7869C48.6596 12.8814 48.7152 12.9472 48.783 12.9844C48.8508 13.0215 48.9195 13.0319 48.9889 13.0155C49.0378 13.004 49.0742 12.9804 49.0979 12.9449C49.1223 12.9085 49.1297 12.8701 49.1202 12.8297C49.1086 12.7808 49.0816 12.7438 49.039 12.7187C48.9972 12.6934 48.9188 12.6674 48.8041 12.6406C48.6893 12.6138 48.6111 12.5836 48.5695 12.55C48.5281 12.5171 48.5002 12.4698 48.4856 12.4082C48.4668 12.3281 48.4783 12.2547 48.5201 12.188C48.5627 12.1211 48.6276 12.0774 48.7147 12.0569C48.753 12.0479 48.8013 12.0451 48.8597 12.0485C48.8984 12.0506 48.9237 12.0503 48.9358 12.0474C48.9471 12.0447 48.9554 12.0402 48.9606 12.0337C48.9658 12.0273 48.9707 12.0145 48.9752 11.9955L49.0102 11.9872ZM49.4433 11.5778L49.5187 11.8977L49.7462 11.8441L49.7637 11.9185L49.5362 11.9721L49.685 12.6035C49.6999 12.6665 49.7188 12.707 49.7417 12.7248C49.7653 12.7424 49.7912 12.7479 49.8196 12.7412C49.843 12.7357 49.864 12.7232 49.8826 12.7039C49.9011 12.6838 49.913 12.6582 49.9183 12.627L49.9598 12.6172C49.9514 12.6925 49.9286 12.7532 49.8916 12.7994C49.8545 12.8448 49.8118 12.8732 49.7636 12.8845C49.731 12.8922 49.697 12.8909 49.6617 12.8805C49.6262 12.8694 49.597 12.849 49.5743 12.8192C49.5514 12.7887 49.5317 12.7383 49.5152 12.6682L49.3608 12.0134L49.2067 12.0498L49.1985 12.0147C49.2338 11.9899 49.2673 11.9543 49.299 11.908C49.3312 11.8607 49.3573 11.8078 49.3771 11.7493C49.3871 11.7185 49.3981 11.6639 49.4103 11.5855L49.4433 11.5778ZM50.5899 12.5248C50.5082 12.6256 50.456 12.6851 50.4333 12.7031C50.3992 12.7298 50.3606 12.7483 50.3173 12.7585C50.25 12.7744 50.189 12.7644 50.1342 12.7287C50.0801 12.6929 50.0442 12.6374 50.0265 12.5623C50.0153 12.5148 50.0162 12.4712 50.0293 12.4314C50.047 12.3764 50.0866 12.3192 50.1482 12.2598C50.2104 12.2003 50.318 12.1203 50.4709 12.02L50.4619 11.9817C50.439 11.8846 50.4077 11.8217 50.368 11.7929C50.329 11.7639 50.2801 11.7564 50.2213 11.7702C50.1766 11.7808 50.1441 11.8012 50.1235 11.8314C50.1023 11.8619 50.0953 11.8927 50.1027 11.9239L50.1193 11.985C50.127 12.0176 50.1244 12.0448 50.1116 12.0665C50.0995 12.088 50.08 12.102 50.053 12.1083C50.0268 12.1145 50.003 12.1104 49.9817 12.096C49.961 12.0814 49.947 12.0582 49.9394 12.0263C49.9251 11.9653 49.9431 11.902 49.9934 11.8363C50.0437 11.7706 50.1252 11.7244 50.2379 11.6979C50.3243 11.6775 50.3986 11.6753 50.4608 11.6914C50.5077 11.7035 50.5467 11.7306 50.5775 11.7727C50.5975 11.8001 50.6185 11.861 50.6407 11.9552L50.7187 12.2858C50.7405 12.3786 50.7558 12.4353 50.7643 12.4557C50.7727 12.4754 50.7816 12.4879 50.7911 12.4931C50.8013 12.4982 50.8117 12.4995 50.8223 12.497C50.8336 12.4943 50.843 12.4895 50.8503 12.4825C50.863 12.4698 50.8856 12.4372 50.9181 12.3847L50.9321 12.4442C50.8778 12.5692 50.8145 12.6402 50.7422 12.6572C50.7075 12.6654 50.6771 12.6599 50.6508 12.6406C50.6246 12.6214 50.6043 12.5828 50.5899 12.5248ZM50.5736 12.4558L50.4862 12.0848C50.3892 12.1525 50.3272 12.1989 50.3002 12.224C50.2516 12.2684 50.2192 12.3104 50.2031 12.3501C50.187 12.3898 50.1838 12.4298 50.1933 12.4702C50.2053 12.5212 50.2306 12.5602 50.2691 12.587C50.3074 12.6131 50.3464 12.6215 50.3861 12.6121C50.4399 12.5995 50.5024 12.5473 50.5736 12.4558ZM51.0872 11.4977L51.1388 11.7167C51.1859 11.5515 51.2523 11.4588 51.338 11.4386C51.377 11.4294 51.4121 11.4339 51.4433 11.4519C51.4743 11.4693 51.4935 11.4936 51.5008 11.5248C51.5073 11.5524 51.5036 11.578 51.4897 11.6014C51.4758 11.6249 51.4561 11.6397 51.4306 11.6457C51.4058 11.6515 51.3749 11.6461 51.3381 11.6293C51.3018 11.6117 51.2762 11.6046 51.2613 11.6082C51.2485 11.6112 51.2364 11.6215 51.2248 11.6392C51.1998 11.6757 51.1781 11.7313 51.1598 11.806L51.2698 12.2726C51.2825 12.3264 51.2988 12.3656 51.3188 12.3901C51.3325 12.407 51.3526 12.4191 51.379 12.4264C51.4054 12.4336 51.4405 12.4321 51.4845 12.4217L51.4935 12.46L50.995 12.5775L50.9859 12.5392C51.0355 12.5275 51.0706 12.511 51.091 12.4898C51.106 12.4743 51.1142 12.4533 51.1154 12.4268C51.1161 12.4139 51.1098 12.3791 51.0964 12.3224L51.0075 11.9451C50.9808 11.8317 50.9624 11.765 50.9524 11.7449C50.943 11.7239 50.9308 11.71 50.9157 11.7031C50.9013 11.696 50.8849 11.6946 50.8664 11.699C50.8445 11.7041 50.8209 11.7153 50.7958 11.7324L50.7762 11.6967L51.0425 11.5082L51.0872 11.4977ZM51.7413 11.0361L51.8167 11.3561L52.0442 11.3025L52.0617 11.3769L51.8343 11.4305L51.9831 12.0619C51.9979 12.1249 52.0168 12.1653 52.0397 12.1831C52.0633 12.2008 52.0893 12.2062 52.1176 12.1996C52.141 12.194 52.162 12.1816 52.1806 12.1623C52.1991 12.1422 52.211 12.1166 52.2164 12.0854L52.2578 12.0756C52.2494 12.1509 52.2267 12.2116 52.1897 12.2577C52.1525 12.3032 52.1098 12.3315 52.0616 12.3429C52.029 12.3506 51.9951 12.3492 51.9597 12.3389C51.9242 12.3278 51.8951 12.3074 51.8723 12.2776C51.8494 12.2471 51.8297 12.1967 51.8132 12.1266L51.6589 11.4718L51.5047 11.5081L51.4965 11.4731C51.5318 11.4483 51.5653 11.4127 51.597 11.3663C51.6292 11.3191 51.6553 11.2662 51.6752 11.2077C51.6851 11.1769 51.6962 11.1223 51.7084 11.0439L51.7413 11.0361ZM52.2607 10.6837C52.2905 10.6767 52.3182 10.6814 52.3437 10.6978C52.3698 10.7133 52.3864 10.736 52.3934 10.7658C52.4004 10.7955 52.3958 10.8235 52.3795 10.8498C52.364 10.8759 52.3414 10.8925 52.3116 10.8995C52.2818 10.9065 52.2538 10.9019 52.2275 10.8856C52.2013 10.8694 52.1846 10.8464 52.1776 10.8166C52.1706 10.7869 52.175 10.7593 52.1907 10.7339C52.2069 10.7076 52.2303 10.6909 52.2607 10.6837ZM52.469 11.1721L52.6533 11.9544C52.6677 12.0153 52.6816 12.055 52.6949 12.0736C52.7088 12.0913 52.7254 12.1031 52.7448 12.109C52.7648 12.1147 52.7979 12.1122 52.8439 12.1013L52.8529 12.1396L52.3799 12.251L52.3709 12.2128C52.4184 12.2016 52.4492 12.1895 52.4633 12.1764C52.4775 12.1634 52.4866 12.1451 52.4908 12.1217C52.4957 12.0981 52.4911 12.0562 52.4769 11.9959L52.3885 11.6207C52.3636 11.5152 52.3443 11.4475 52.3305 11.4178C52.3202 11.3963 52.3088 11.3826 52.2961 11.3766C52.2833 11.3699 52.2677 11.3687 52.2493 11.373C52.2295 11.3777 52.2066 11.3887 52.1808 11.406L52.1569 11.3713L52.4222 11.1831L52.469 11.1721ZM53.0713 11.2477C53.153 11.0834 53.2456 10.989 53.3491 10.9646C53.4022 10.9521 53.4511 10.9548 53.4957 10.9727C53.5401 10.9899 53.5809 11.0263 53.6179 11.0819C53.6435 11.1207 53.6667 11.1841 53.6874 11.272L53.7853 11.6876C53.7999 11.7492 53.8147 11.7898 53.8298 11.8095C53.8418 11.8254 53.8574 11.8362 53.8768 11.8422C53.8968 11.8479 53.9302 11.8453 53.977 11.8342L53.986 11.8725L53.5045 11.986L53.4955 11.9477L53.5157 11.943C53.561 11.9323 53.591 11.9181 53.6055 11.9005C53.6206 11.882 53.6285 11.8584 53.6293 11.8298C53.6296 11.8185 53.6232 11.7849 53.61 11.7289L53.516 11.3303C53.4951 11.2417 53.4683 11.1804 53.4356 11.1462C53.4034 11.1111 53.36 11.1 53.3055 11.1129C53.2211 11.1328 53.148 11.1986 53.0861 11.3105L53.2071 11.8238C53.2227 11.8897 53.2362 11.9296 53.2476 11.9433C53.2624 11.9615 53.2794 11.9736 53.2988 11.9795C53.3187 11.9845 53.3552 11.9808 53.4083 11.9683L53.4174 12.0065L52.9359 12.12L52.9268 12.0818L52.9481 12.0767C52.9977 12.0651 53.0281 12.0448 53.0392 12.016C53.0509 11.9863 53.0484 11.936 53.0317 11.8652L52.9466 11.5038C52.919 11.3869 52.8994 11.3163 52.8877 11.2921C52.8767 11.2678 52.8645 11.2524 52.851 11.2458C52.8382 11.2391 52.8226 11.2379 52.8041 11.2423C52.7843 11.247 52.7618 11.2579 52.7367 11.275L52.7117 11.2405L52.977 11.0523L53.0227 11.0415L53.0713 11.2477ZM54.3241 10.7651L54.7323 10.6689L54.7416 10.7082C54.7047 10.7199 54.6815 10.7325 54.6719 10.746C54.6631 10.7593 54.661 10.7758 54.6657 10.7957C54.6709 10.8176 54.6832 10.8428 54.7025 10.8711L55.0429 11.3822L55.1448 10.8768L55.0557 10.7464C55.0287 10.7079 54.9995 10.6837 54.968 10.6739C54.95 10.6677 54.9196 10.6685 54.8766 10.6764L54.8673 10.6371L55.3307 10.5279L55.34 10.5672C55.2895 10.5813 55.2555 10.5991 55.2381 10.6204C55.2266 10.6351 55.2238 10.6548 55.2296 10.6796C55.2329 10.6938 55.2392 10.7076 55.2484 10.7212L55.6012 11.2282L55.6794 10.6409C55.6845 10.5993 55.6844 10.5672 55.6791 10.5445C55.6759 10.531 55.666 10.5206 55.6493 10.5134C55.6333 10.5059 55.605 10.5062 55.5643 10.5143L55.555 10.475L55.8622 10.4026L55.8714 10.4419C55.812 10.4657 55.7765 10.5182 55.765 10.5994L55.6374 11.5147L55.5938 11.525L55.2038 10.9606L55.0666 11.6492L55.0272 11.6585L54.5219 10.9137C54.4891 10.8668 54.4607 10.8369 54.4367 10.8238C54.4125 10.8101 54.3781 10.8036 54.3334 10.8044L54.3241 10.7651ZM56.0724 9.78535C56.1021 9.77834 56.1298 9.78304 56.1553 9.79945C56.1814 9.81499 56.198 9.83764 56.205 9.8674C56.212 9.89717 56.2074 9.92518 56.1912 9.95145C56.1756 9.97755 56.153 9.99411 56.1232 10.0011C56.0935 10.0081 56.0654 10.0035 56.0392 9.98727C56.0129 9.97103 55.9963 9.94802 55.9892 9.91826C55.9822 9.8885 55.9866 9.86092 56.0023 9.83553C56.0185 9.80926 56.0419 9.79253 56.0724 9.78535ZM56.2806 10.2737L56.465 11.056C56.4793 11.1169 56.4932 11.1567 56.5065 11.1752C56.5204 11.1929 56.537 11.2047 56.5564 11.2106C56.5764 11.2164 56.6095 11.2138 56.6555 11.2029L56.6646 11.2412L56.1916 11.3527L56.1825 11.3144C56.23 11.3032 56.2608 11.2911 56.275 11.2781C56.2891 11.265 56.2982 11.2468 56.3024 11.2233C56.3074 11.1997 56.3027 11.1578 56.2885 11.0976L56.2001 10.7224C56.1752 10.6168 56.1559 10.5492 56.1422 10.5195C56.1319 10.498 56.1204 10.4842 56.1078 10.4782C56.095 10.4715 56.0793 10.4703 56.0609 10.4747C56.0411 10.4794 56.0182 10.4904 55.9924 10.5077L55.9685 10.4729L56.2338 10.2847L56.2806 10.2737ZM56.7647 9.85219L56.8401 10.1721L57.0675 10.1185L57.0851 10.1929L56.8576 10.2465L57.0064 10.8779C57.0213 10.941 57.0401 10.9814 57.063 10.9992C57.0866 11.0168 57.1126 11.0223 57.141 11.0156C57.1643 11.0101 57.1853 10.9977 57.204 10.9783C57.2224 10.9583 57.2343 10.9326 57.2397 10.9015L57.2812 10.8917C57.2727 10.967 57.25 11.0277 57.213 11.0738C57.1758 11.1192 57.1332 11.1476 57.085 11.1589C57.0524 11.1666 57.0184 11.1653 56.9831 11.1549C56.9475 11.1438 56.9184 11.1234 56.8957 11.0936C56.8728 11.0631 56.8531 11.0128 56.8365 10.9426L56.6822 10.2879L56.5281 10.3242L56.5198 10.2891C56.5551 10.2643 56.5886 10.2288 56.6203 10.1824C56.6526 10.1352 56.6786 10.0823 56.6985 10.0237C56.7085 9.99296 56.7195 9.93837 56.7317 9.85995L56.7647 9.85219ZM57.3224 9.49074L57.4902 10.2029C57.5485 10.0979 57.5978 10.0279 57.6382 9.99299C57.6784 9.95733 57.7215 9.93408 57.7676 9.92322C57.8229 9.9102 57.8739 9.91424 57.9208 9.93536C57.9677 9.95648 58.0083 9.99738 58.0428 10.0581C58.067 10.1002 58.0933 10.1816 58.1217 10.302L58.2028 10.6464C58.2174 10.7081 58.2323 10.749 58.2475 10.7694C58.2586 10.7847 58.2738 10.7953 58.2932 10.8013C58.3125 10.8072 58.3449 10.8048 58.3902 10.7941L58.3992 10.8324L57.9209 10.9451L57.9119 10.9068L57.9342 10.9016C57.9796 10.8909 58.0095 10.8767 58.0241 10.8591C58.0384 10.8407 58.046 10.8173 58.0467 10.7887C58.0462 10.7768 58.0394 10.7433 58.0264 10.688L57.9452 10.3436C57.9202 10.2373 57.898 10.1689 57.8789 10.1382C57.8604 10.1074 57.8372 10.0867 57.8092 10.0761C57.7811 10.0648 57.7501 10.0631 57.7161 10.0711C57.6813 10.0793 57.6474 10.097 57.6142 10.1243C57.581 10.1516 57.5447 10.1994 57.5055 10.2677L57.6267 10.7822C57.6424 10.8488 57.6557 10.8894 57.6667 10.904C57.6783 10.9185 57.6954 10.9291 57.7179 10.9357C57.7409 10.9415 57.7773 10.9386 57.8269 10.9269L57.8359 10.9651L57.3533 11.0789L57.3443 11.0406C57.3875 11.0304 57.42 11.0157 57.4416 10.9964C57.4541 10.9859 57.4623 10.9698 57.4661 10.948C57.4699 10.9261 57.4646 10.8847 57.4503 10.8238L57.2426 9.94262C57.2164 9.83136 57.1974 9.76365 57.1858 9.73948C57.1748 9.71514 57.1625 9.6997 57.149 9.69316C57.1362 9.68645 57.1206 9.68527 57.1022 9.68961C57.0873 9.69312 57.0646 9.70446 57.0339 9.72365L57.0103 9.68996L57.2735 9.50227L57.3224 9.49074ZM58.906 9.34077L59.2164 9.08697L59.2515 9.0787L59.5383 10.2957C59.5574 10.3765 59.5724 10.4261 59.5835 10.4444C59.5952 10.4626 59.613 10.4745 59.6368 10.4801C59.6605 10.4857 59.7052 10.4816 59.7707 10.4676L59.78 10.5069L59.2379 10.6347L59.2286 10.5954C59.2963 10.5779 59.3389 10.5619 59.3564 10.5473C59.3737 10.532 59.3843 10.5149 59.3881 10.4961C59.3917 10.4765 59.3833 10.4235 59.363 10.3371L59.1796 9.55902C59.1549 9.45414 59.1355 9.38766 59.1214 9.35957C59.111 9.33806 59.0979 9.32358 59.0819 9.31613C59.0667 9.3085 59.0498 9.30686 59.0314 9.31121C59.0052 9.31738 58.9713 9.33697 58.9297 9.36996L58.906 9.34077ZM59.8449 9.46391L60.303 9.35594L60.3123 9.39527C60.2833 9.40211 60.2639 9.41192 60.2542 9.42468C60.2452 9.43727 60.2426 9.45172 60.2464 9.46801C60.2504 9.48502 60.269 9.50832 60.3022 9.5379C60.3126 9.5474 60.3285 9.56236 60.3498 9.58278L60.4449 9.67704L60.4986 9.54771C60.5331 9.46553 60.5481 9.41523 60.5438 9.39681C60.5403 9.38193 60.5313 9.37094 60.517 9.36386C60.5024 9.35607 60.4817 9.35535 60.4547 9.3617L60.4455 9.32237L60.775 9.24471L60.7842 9.28404C60.75 9.29435 60.7222 9.31101 60.7007 9.33403C60.6716 9.36631 60.6365 9.42993 60.5953 9.52491L60.5043 9.73373L60.8288 10.0253C60.9085 10.097 60.9632 10.1387 60.9929 10.1504C61.0224 10.1614 61.0576 10.1632 61.0985 10.1558L61.1076 10.194L60.6484 10.3023L60.6394 10.264C60.6712 10.2565 60.6944 10.2436 60.7088 10.2252C60.7199 10.2121 60.7235 10.1974 60.7197 10.1811C60.7158 10.1648 60.6835 10.1291 60.6226 10.0739L60.4311 9.89909L60.3239 10.1442C60.2909 10.2201 60.2758 10.264 60.2787 10.2761C60.2827 10.2931 60.2942 10.3068 60.3131 10.3173C60.3326 10.327 60.3584 10.3287 60.3906 10.3226L60.3997 10.3609L60.0818 10.4358L60.0728 10.3975C60.0975 10.388 60.1177 10.3739 60.1335 10.3552C60.1556 10.3283 60.1886 10.2651 60.2325 10.1658L60.3727 9.84665L60.1246 9.62238C60.0541 9.55821 60.0021 9.51998 59.9686 9.5077C59.9355 9.49454 59.8974 9.49305 59.8542 9.50324L59.8449 9.46391ZM61.0828 8.82771L61.3933 8.57391L61.4284 8.56564L61.7152 9.78268C61.7342 9.86346 61.7493 9.91302 61.7603 9.93136C61.7721 9.94953 61.7899 9.96142 61.8136 9.96704C61.8374 9.97266 61.882 9.9685 61.9476 9.95455L61.9568 9.99388L61.4147 10.1216L61.4055 10.0823C61.4732 10.0649 61.5158 10.0488 61.5333 10.0342C61.5506 10.0189 61.5612 10.0019 61.5649 9.98302C61.5686 9.96347 61.5602 9.91046 61.5398 9.82401L61.3564 9.04596C61.3317 8.94108 61.3123 8.8746 61.2982 8.84651C61.2879 8.825 61.2748 8.81052 61.2588 8.80307C61.2435 8.79544 61.2267 8.7938 61.2083 8.79814C61.1821 8.80432 61.1481 8.82391 61.1066 8.8569L61.0828 8.82771ZM62.3923 9.05201C62.4465 8.96445 62.4787 8.91385 62.4889 8.90021C62.5145 8.86577 62.5439 8.83677 62.5772 8.8132C62.6106 8.78964 62.6453 8.7736 62.6815 8.76508C62.7424 8.75071 62.799 8.75607 62.8513 8.78115C62.9036 8.80622 62.9451 8.85067 62.9758 8.91448C63.0288 8.81224 63.0773 8.74209 63.1215 8.70401C63.1654 8.66522 63.214 8.63957 63.2671 8.62704C63.3189 8.61485 63.3677 8.61754 63.4138 8.63512C63.4603 8.65182 63.5024 8.68753 63.54 8.74225C63.5653 8.77967 63.5883 8.84232 63.609 8.93019L63.7077 9.34897C63.722 9.40992 63.7365 9.45064 63.7511 9.47114C63.7618 9.48506 63.7781 9.49544 63.7999 9.50226C63.8215 9.50838 63.854 9.50635 63.8972 9.49616L63.9062 9.53443L63.4258 9.64766L63.4168 9.6094L63.437 9.60464C63.4788 9.59478 63.5094 9.57895 63.529 9.55714C63.5426 9.54196 63.55 9.52114 63.5513 9.49467C63.5513 9.48195 63.5446 9.44725 63.5312 9.39056L63.4325 8.97177C63.4138 8.89241 63.3911 8.83868 63.3642 8.81059C63.3259 8.77176 63.2763 8.75952 63.2153 8.77388C63.1778 8.78273 63.1421 8.80124 63.1084 8.82939C63.0752 8.85666 63.0376 8.90216 62.9958 8.96587L62.9964 8.97806L63.0093 9.02327L63.1188 9.48776C63.1345 9.55437 63.1478 9.59499 63.1588 9.60962C63.1704 9.62408 63.1878 9.63456 63.211 9.64105C63.2341 9.64684 63.2704 9.64388 63.32 9.63219L63.3291 9.67046L62.8369 9.78645L62.8279 9.74818C62.8818 9.73549 62.9171 9.72043 62.9339 9.703C62.9515 9.6854 62.9611 9.66293 62.9629 9.63558C62.9636 9.6227 62.9571 9.5872 62.9434 9.5291L62.8447 9.11031C62.826 9.03094 62.8009 8.97666 62.7693 8.94745C62.7275 8.90944 62.6785 8.89704 62.6226 8.91023C62.5843 8.91925 62.5488 8.93846 62.5161 8.96786C62.4646 9.0129 62.4275 9.05867 62.4048 9.10516L62.5278 9.62705C62.5429 9.69082 62.5569 9.73128 62.5699 9.7484C62.5836 9.76537 62.6002 9.7768 62.6195 9.78272C62.6394 9.78775 62.6759 9.78401 62.7291 9.77148L62.7381 9.80975L62.2566 9.92323L62.2476 9.88497C62.2922 9.87444 62.3223 9.86249 62.3378 9.8491C62.3532 9.83501 62.3631 9.8166 62.3674 9.79388C62.3717 9.77045 62.3667 9.72862 62.3525 9.66838L62.2648 9.29636C62.2396 9.18936 62.2201 9.12103 62.2064 9.09135C62.1959 9.06913 62.1843 9.05503 62.1717 9.04903C62.1589 9.04232 62.1433 9.04114 62.1249 9.04548C62.105 9.05016 62.0825 9.06107 62.0574 9.07821L62.0324 9.0437L62.2978 8.85551L62.3435 8.84474L62.3923 9.05201ZM64.0866 8.65269C64.1408 8.56512 64.173 8.51452 64.1832 8.50089C64.2088 8.46645 64.2382 8.43744 64.2715 8.41388C64.3049 8.39031 64.3396 8.37427 64.3758 8.36575C64.4367 8.35139 64.4933 8.35675 64.5456 8.38182C64.5979 8.4069 64.6394 8.45134 64.6701 8.51515C64.7231 8.41292 64.7716 8.34276 64.8158 8.30468C64.8597 8.2659 64.9083 8.24024 64.9614 8.22772C65.0132 8.21552 65.062 8.21822 65.1081 8.23579C65.1546 8.25249 65.1967 8.2882 65.2343 8.34292C65.2596 8.38035 65.2826 8.44299 65.3033 8.53086L65.402 8.94965C65.4163 9.01059 65.4308 9.05131 65.4453 9.07182C65.4561 9.08574 65.4724 9.09611 65.4942 9.10294C65.5158 9.10906 65.5483 9.10702 65.5915 9.09684L65.6005 9.1351L65.1201 9.24834L65.111 9.21007L65.1312 9.20531C65.1731 9.19546 65.2037 9.17963 65.2233 9.15782C65.2369 9.14264 65.2443 9.12181 65.2456 9.09534C65.2456 9.08263 65.2389 9.04792 65.2255 8.99123L65.1268 8.57245C65.1081 8.49308 65.0854 8.43936 65.0585 8.41127C65.0202 8.37243 64.9706 8.36019 64.9096 8.37456C64.8721 8.38341 64.8364 8.40191 64.8027 8.43006C64.7695 8.45734 64.7319 8.50283 64.6901 8.56654L64.6907 8.57874L64.7036 8.62394L64.8131 9.08844C64.8288 9.15505 64.8421 9.19566 64.8531 9.21029C64.8647 9.22475 64.8821 9.23523 64.9053 9.24172C64.9284 9.24751 64.9647 9.24456 65.0143 9.23287L65.0233 9.27113L64.5312 9.38712L64.5222 9.34886C64.576 9.33616 64.6114 9.3211 64.6282 9.30367C64.6458 9.28607 64.6554 9.2636 64.6572 9.23625C64.6579 9.22337 64.6514 9.18788 64.6377 9.12977L64.539 8.71098C64.5203 8.63162 64.4952 8.57733 64.4636 8.54812C64.4217 8.51012 64.3728 8.49771 64.3168 8.51091C64.2786 8.51993 64.2431 8.53914 64.2104 8.56854C64.1589 8.61358 64.1218 8.65934 64.0991 8.70583L64.2221 9.22772C64.2372 9.2915 64.2512 9.33195 64.2642 9.34908C64.2779 9.36604 64.2944 9.37748 64.3138 9.38339C64.3337 9.38843 64.3702 9.38468 64.4233 9.37216L64.4324 9.41042L63.9509 9.5239L63.9418 9.48564C63.9865 9.47512 64.0166 9.46316 64.0321 9.44978C64.0475 9.43568 64.0574 9.41727 64.0617 9.39455C64.0659 9.37112 64.0609 9.32929 64.0467 9.26906L63.9591 8.89704C63.9338 8.79004 63.9144 8.7217 63.9006 8.69202C63.8902 8.66981 63.8786 8.6557 63.866 8.6497C63.8532 8.643 63.8376 8.64182 63.8192 8.64616C63.7993 8.65083 63.7768 8.66174 63.7517 8.67889L63.7267 8.64438L63.992 8.45619L64.0377 8.44542L64.0866 8.65269ZM66.6164 7.83766L66.6945 8.16929L66.6595 8.17756C66.608 8.07974 66.5566 8.01706 66.5052 7.98953C66.4545 7.96182 66.3966 7.95565 66.3314 7.97102C66.2818 7.98271 66.2449 8.00526 66.2206 8.03866C66.1963 8.07206 66.1879 8.1047 66.1954 8.13659C66.2048 8.17627 66.2241 8.20761 66.2535 8.23061C66.2823 8.25449 66.3342 8.27479 66.4092 8.29152L66.5822 8.33041C66.7426 8.36666 66.8363 8.44218 66.8633 8.55698C66.8842 8.64555 66.8674 8.72506 66.813 8.79548C66.759 8.86504 66.6906 8.90959 66.6077 8.92913C66.5482 8.94315 66.4777 8.94856 66.3961 8.94534C66.3711 8.94376 66.3511 8.94473 66.3362 8.94824C66.3199 8.95208 66.3093 8.9643 66.3045 8.98489L66.2694 8.99316L66.1875 8.64558L66.2226 8.63732C66.2658 8.73185 66.3213 8.79767 66.3891 8.83479C66.457 8.8719 66.5256 8.88228 66.5951 8.86591C66.644 8.85439 66.6803 8.83086 66.7041 8.79534C66.7284 8.75894 66.7358 8.72054 66.7263 8.68015C66.7148 8.63126 66.6877 8.59425 66.6452 8.56913C66.6033 8.54384 66.525 8.51779 66.4102 8.49099C66.2954 8.46419 66.2173 8.43399 66.1757 8.40041C66.1343 8.36753 66.1063 8.32027 66.0918 8.25862C66.0729 8.17855 66.0844 8.10515 66.1263 8.03844C66.1689 7.97156 66.2337 7.92785 66.3209 7.9073C66.3592 7.89829 66.4075 7.8955 66.4659 7.89893C66.5045 7.90105 66.5299 7.90068 66.5419 7.89784C66.5533 7.89517 66.5615 7.8906 66.5668 7.88414C66.572 7.87768 66.5768 7.86494 66.5813 7.84593L66.6164 7.83766ZM67.6974 7.58288L67.9925 8.835C68.0072 8.89736 68.0209 8.93639 68.0335 8.9521C68.0462 8.96781 68.0626 8.97854 68.0826 8.98429C68.1034 8.98987 68.14 8.98648 68.1924 8.97412L68.2017 9.01344L67.7106 9.12918L67.7014 9.08986L67.7216 9.0851C67.7613 9.07574 67.79 9.06298 67.8079 9.0468C67.8202 9.03566 67.8282 9.01882 67.8319 8.99626C67.8357 8.97442 67.8308 8.93444 67.8171 8.87634L67.7184 8.45755C67.6719 8.54927 67.628 8.61499 67.5865 8.65469C67.5448 8.69368 67.4981 8.71928 67.4464 8.73147C67.3521 8.75368 67.2577 8.73068 67.1631 8.66248C67.0692 8.5941 67.0053 8.48799 66.9714 8.34415C66.9325 8.17904 66.9497 8.03323 67.0231 7.90673C67.0963 7.77952 67.2021 7.69963 67.3402 7.66706C67.3806 7.65754 67.4192 7.65444 67.4558 7.65776C67.4925 7.66108 67.527 7.67091 67.5593 7.68724C67.5957 7.65771 67.6297 7.62576 67.6612 7.5914L67.6974 7.58288ZM67.7026 8.39058L67.5949 7.93353C67.5824 7.88038 67.5654 7.84024 67.5441 7.81311C67.5234 7.78582 67.4929 7.76571 67.4524 7.75281C67.412 7.7399 67.3695 7.73871 67.3248 7.74923C67.2455 7.76793 67.1854 7.81763 67.1445 7.8983C67.1037 7.97898 67.0994 8.0877 67.1317 8.22447C67.1625 8.35556 67.2147 8.44836 67.2881 8.50285C67.3623 8.55719 67.4401 8.57475 67.5216 8.55554C67.5634 8.54569 67.5985 8.52806 67.6269 8.50266C67.6552 8.47656 67.6804 8.4392 67.7026 8.39058ZM68.7841 7.35706L68.9231 7.94698C68.9497 8.05964 68.9684 8.12815 68.9794 8.15249C68.9909 8.17596 69.0035 8.19131 69.0172 8.19856C69.0316 8.20564 69.0465 8.20735 69.0621 8.20367C69.0841 8.19849 69.1075 8.18663 69.1323 8.16807L69.1559 8.20176L68.893 8.39051L68.8452 8.40179L68.7966 8.19558C68.7343 8.30599 68.684 8.37806 68.6456 8.4118C68.6072 8.44554 68.5635 8.46817 68.5146 8.4797C68.46 8.49256 68.4089 8.48816 68.3611 8.4665C68.3139 8.44396 68.2767 8.40973 68.2494 8.3638C68.2221 8.31787 68.1978 8.24956 68.1764 8.15886L68.074 7.72412C68.0631 7.67806 68.0506 7.64734 68.0366 7.63197C68.0225 7.61659 68.0044 7.60663 67.9824 7.6021C67.9609 7.59669 67.9248 7.60035 67.8739 7.61308L67.8646 7.57375L68.2058 7.49334L68.3594 8.14491C68.3808 8.23561 68.4104 8.29146 68.4483 8.31245C68.4868 8.33328 68.5284 8.33844 68.5731 8.32791C68.6035 8.32073 68.6357 8.30307 68.6694 8.27492C68.7039 8.2466 68.7413 8.19925 68.7818 8.13287L68.6518 7.58121C68.6387 7.52594 68.6197 7.49116 68.5946 7.47687C68.5701 7.46171 68.5258 7.46093 68.4617 7.47455L68.4524 7.43522L68.7841 7.35706ZM69.767 8.005C69.6853 8.10579 69.6331 8.16521 69.6105 8.18327C69.5764 8.21 69.5377 8.22846 69.4945 8.23865C69.4272 8.25452 69.3661 8.2446 69.3113 8.20889C69.2572 8.17302 69.2213 8.11753 69.2036 8.04242C69.1925 7.99494 69.1934 7.95133 69.2065 7.9116C69.2242 7.85657 69.2638 7.79936 69.3253 7.73998C69.3876 7.68042 69.4952 7.60047 69.648 7.50011L69.639 7.46185C69.6161 7.36477 69.5848 7.30183 69.5451 7.27304C69.5062 7.24409 69.4573 7.23654 69.3984 7.2504C69.3538 7.26092 69.3212 7.28132 69.3007 7.31159C69.2794 7.34203 69.2725 7.37284 69.2798 7.40402L69.2965 7.46517C69.3042 7.49776 69.3016 7.52492 69.2887 7.54665C69.2766 7.5682 69.2571 7.58215 69.2302 7.5885C69.204 7.59468 69.1802 7.59056 69.1588 7.57615C69.1382 7.56156 69.1241 7.53833 69.1166 7.50644C69.1022 7.4455 69.1202 7.38217 69.1705 7.31645C69.2209 7.25074 69.3024 7.2046 69.415 7.17805C69.5015 7.15767 69.5758 7.1555 69.6379 7.17152C69.6849 7.18364 69.7238 7.21074 69.7547 7.25283C69.7746 7.28029 69.7957 7.34115 69.8179 7.43539L69.8958 7.76596C69.9177 7.85879 69.9329 7.91542 69.9415 7.93584C69.9498 7.95555 69.9588 7.96804 69.9682 7.97328C69.9784 7.97837 69.9888 7.97965 69.9994 7.97715C70.0108 7.97448 70.0201 7.96966 70.0274 7.96269C70.0402 7.94998 70.0628 7.91735 70.0953 7.86481L70.1093 7.92433C70.055 8.04933 69.9917 8.12035 69.9194 8.13738C69.8847 8.14557 69.8542 8.14003 69.828 8.12078C69.8017 8.10153 69.7814 8.06294 69.767 8.005ZM69.7507 7.93591L69.6633 7.56495C69.5663 7.63269 69.5043 7.67909 69.4773 7.70415C69.4287 7.74852 69.3963 7.79056 69.3803 7.83025C69.3642 7.86994 69.3609 7.90998 69.3704 7.95037C69.3825 8.00139 69.4077 8.04032 69.4462 8.06715C69.4845 8.09327 69.5235 8.10166 69.5632 8.09231C69.6171 8.07961 69.6796 8.02748 69.7507 7.93591ZM70.2643 6.97788L70.3159 7.19684C70.363 7.03166 70.4294 6.93897 70.5152 6.91876C70.5541 6.90958 70.5892 6.91402 70.6204 6.9321C70.6514 6.94947 70.6706 6.97375 70.678 7.00493C70.6845 7.03257 70.6808 7.05812 70.6669 7.0816C70.6529 7.10507 70.6332 7.11981 70.6077 7.12583C70.5829 7.13167 70.5521 7.12622 70.5152 7.10948C70.4789 7.09186 70.4533 7.0848 70.4384 7.08831C70.4257 7.09132 70.4135 7.10166 70.402 7.11934C70.377 7.15591 70.3553 7.2115 70.337 7.28613L70.4469 7.75275C70.4596 7.8066 70.476 7.84576 70.4959 7.87023C70.5097 7.88719 70.5297 7.89929 70.5561 7.90653C70.5825 7.91378 70.6177 7.91222 70.6616 7.90187L70.6706 7.94013L70.1721 8.05762L70.1631 8.01936C70.2127 8.00767 70.2477 7.99119 70.2681 7.96992C70.2832 7.95441 70.2913 7.93342 70.2925 7.90694C70.2933 7.89406 70.2869 7.85928 70.2736 7.80259L70.1846 7.42525C70.1579 7.31188 70.1396 7.24514 70.1296 7.22505C70.1202 7.20409 70.1079 7.19015 70.0928 7.18323C70.0784 7.17615 70.062 7.17478 70.0436 7.17913C70.0216 7.1843 69.9981 7.19546 69.9729 7.21261L69.9533 7.17685L70.2197 6.98841L70.2643 6.97788ZM70.9612 7.23099C70.9946 7.37572 71.0564 7.48083 71.1466 7.54633C71.2369 7.61182 71.3298 7.6333 71.4255 7.61075C71.4893 7.59572 71.5404 7.56533 71.579 7.51959C71.6182 7.47297 71.6436 7.40338 71.6555 7.31083L71.6934 7.32433C71.7014 7.42491 71.6791 7.52368 71.6264 7.62062C71.5735 7.71685 71.4932 7.77766 71.3855 7.80305C71.2686 7.8306 71.1577 7.80889 71.0527 7.73789C70.9482 7.66602 70.8779 7.5532 70.8416 7.39943C70.8024 7.23291 70.8143 7.09321 70.8775 6.98034C70.9412 6.8666 71.0375 6.79453 71.1665 6.76413C71.2756 6.73841 71.3738 6.75342 71.461 6.80917C71.548 6.8642 71.6057 6.95195 71.6341 7.07242L70.9612 7.23099ZM70.9467 7.16934L71.3974 7.06312C71.3792 7.0016 71.3614 6.95942 71.344 6.93658C71.3169 6.90108 71.283 6.87616 71.2422 6.86184C71.2022 6.84734 71.163 6.84461 71.1247 6.85363C71.0659 6.86749 71.0186 6.90296 70.9827 6.96004C70.9473 7.01625 70.9353 7.08602 70.9467 7.16934ZM71.9028 6.58946C71.9354 6.58178 71.9657 6.5866 71.9938 6.60393C72.0225 6.6211 72.0407 6.64598 72.0484 6.67857C72.0561 6.71117 72.051 6.74191 72.0331 6.77081C72.0158 6.79883 71.9908 6.81668 71.9582 6.82436C71.9256 6.83205 71.8949 6.8273 71.8662 6.81014C71.838 6.7921 71.8201 6.76678 71.8124 6.73419C71.8047 6.70159 71.8095 6.67128 71.8269 6.64326C71.8449 6.61508 71.8702 6.59714 71.9028 6.58946ZM72.0762 7.99144L72.0652 7.94467C72.1325 7.90338 72.18 7.85255 72.2076 7.79217C72.2361 7.73234 72.2437 7.67408 72.2304 7.61739C72.2272 7.60393 72.2213 7.59334 72.2128 7.58563C72.2063 7.58043 72.2006 7.57841 72.1957 7.57957C72.1879 7.58141 72.1725 7.59251 72.1496 7.61286C72.1384 7.62224 72.1257 7.6286 72.1115 7.63194C72.0768 7.64013 72.0467 7.63637 72.0213 7.62066C71.9959 7.60495 71.979 7.57903 71.9705 7.54289C71.9623 7.50817 71.9684 7.47532 71.9888 7.44434C72.0098 7.41319 72.0395 7.39311 72.0778 7.38409C72.1245 7.37306 72.1708 7.38384 72.2167 7.41643C72.263 7.44813 72.2942 7.49764 72.31 7.56496C72.3272 7.63795 72.3177 7.71163 72.2813 7.78602C72.2459 7.86094 72.1775 7.92942 72.0762 7.99144ZM73.0365 5.78709L73.3409 7.07853C73.3553 7.13947 73.369 7.17886 73.3822 7.1967C73.3961 7.21437 73.4135 7.22635 73.4344 7.23263C73.4552 7.23821 73.4907 7.23507 73.541 7.22321L73.5501 7.26148L73.0728 7.37396L73.0638 7.3357C73.1084 7.32517 73.1378 7.31339 73.1519 7.30033C73.1661 7.28728 73.1752 7.26904 73.1794 7.24561C73.1836 7.22218 73.1786 7.18035 73.1644 7.12012L72.956 6.23577C72.9301 6.12594 72.9118 6.0592 72.901 6.03557C72.89 6.01123 72.8778 5.99579 72.8643 5.98925C72.8515 5.98254 72.8366 5.98119 72.8195 5.9852C72.8011 5.98954 72.7791 6.00072 72.7534 6.01874L72.7266 5.9858L72.9887 5.79836L73.0365 5.78709ZM74.1824 6.96435C74.1007 7.06514 74.0485 7.12456 74.0258 7.14262C73.9917 7.16935 73.9531 7.18781 73.9098 7.198C73.8425 7.21387 73.7815 7.20395 73.7267 7.16824C73.6726 7.13237 73.6367 7.07688 73.619 7.00176C73.6078 6.95429 73.6088 6.91068 73.6218 6.87095C73.6395 6.81592 73.6791 6.75871 73.7407 6.69932C73.803 6.63977 73.9105 6.55982 74.0634 6.45946L74.0544 6.4212C74.0315 6.32412 74.0002 6.26118 73.9605 6.23239C73.9215 6.20343 73.8726 6.19589 73.8138 6.20975C73.7692 6.22027 73.7366 6.24067 73.716 6.27094C73.6948 6.30138 73.6878 6.33219 73.6952 6.36337L73.7118 6.42452C73.7195 6.45711 73.7169 6.48427 73.7041 6.50599C73.692 6.52755 73.6725 6.5415 73.6455 6.54785C73.6193 6.55403 73.5955 6.54991 73.5742 6.5355C73.5535 6.52091 73.5395 6.49768 73.5319 6.46579C73.5176 6.40485 73.5356 6.34152 73.5859 6.2758C73.6362 6.21009 73.7177 6.16395 73.8304 6.1374C73.9169 6.11702 73.9911 6.11485 74.0533 6.13087C74.1002 6.14298 74.1392 6.17009 74.17 6.21218C74.19 6.23964 74.211 6.3005 74.2333 6.39474L74.3112 6.72531C74.333 6.81814 74.3483 6.87476 74.3568 6.89519C74.3652 6.9149 74.3741 6.92738 74.3836 6.93263C74.3938 6.93772 74.4042 6.939 74.4148 6.9365C74.4261 6.93383 74.4355 6.92901 74.4428 6.92204C74.4555 6.90932 74.4781 6.8767 74.5106 6.82416L74.5246 6.88368C74.4703 7.00868 74.407 7.07969 74.3348 7.09673C74.3 7.10491 74.2696 7.09938 74.2433 7.08013C74.2171 7.06088 74.1968 7.02229 74.1824 6.96435ZM74.1661 6.89526L74.0787 6.5243C73.9817 6.59204 73.9197 6.63844 73.8927 6.6635C73.8441 6.70787 73.8117 6.7499 73.7956 6.7896C73.7796 6.82929 73.7763 6.86933 73.7858 6.90972C73.7978 6.96074 73.8231 6.99967 73.8616 7.0265C73.8999 7.05262 73.9389 7.06101 73.9786 7.05165C74.0324 7.03896 74.0949 6.98683 74.1661 6.89526ZM75.0241 5.85606L75.1022 6.18769L75.0671 6.19596C75.0157 6.09814 74.9642 6.03546 74.9129 6.00793C74.8622 5.98023 74.8043 5.97406 74.7391 5.98942C74.6895 6.00111 74.6525 6.02366 74.6283 6.05706C74.604 6.09046 74.5956 6.1231 74.6031 6.15499C74.6124 6.19467 74.6318 6.22601 74.6612 6.24901C74.69 6.27289 74.7419 6.29319 74.8169 6.30992L74.9898 6.34881C75.1502 6.38506 75.244 6.46058 75.271 6.57538C75.2919 6.66396 75.2751 6.74346 75.2206 6.81389C75.1667 6.88344 75.0983 6.92799 75.0154 6.94753C74.9559 6.96156 74.8853 6.96696 74.8038 6.96374C74.7787 6.96217 74.7588 6.96313 74.7439 6.96664C74.7276 6.97048 74.717 6.9827 74.7121 7.00329L74.6771 7.01156L74.5952 6.66399L74.6302 6.65572C74.6735 6.75025 74.729 6.81607 74.7968 6.85319C74.8647 6.89031 74.9333 6.90068 75.0027 6.88432C75.0516 6.87279 75.088 6.84927 75.1118 6.81374C75.1361 6.77734 75.1435 6.73894 75.134 6.69855C75.1225 6.64966 75.0954 6.61265 75.0528 6.58753C75.011 6.56224 74.9327 6.5362 74.8179 6.50939C74.7031 6.48259 74.6249 6.4524 74.5834 6.41881C74.542 6.38594 74.514 6.33867 74.4995 6.27703C74.4806 6.19695 74.4921 6.12356 74.534 6.05684C74.5765 5.98996 74.6414 5.94625 74.7286 5.92571C74.7668 5.91669 74.8152 5.9139 74.8736 5.91734C74.9122 5.91945 74.9376 5.91909 74.9496 5.91625C74.9609 5.91357 74.9692 5.90901 74.9744 5.90254C74.9796 5.89608 74.9845 5.88334 74.989 5.86433L75.0241 5.85606ZM75.4571 5.44658L75.5325 5.76652L75.76 5.71291L75.7775 5.78731L75.5501 5.84092L75.6989 6.4723C75.7137 6.53536 75.7326 6.57579 75.7555 6.59358C75.7791 6.61121 75.8051 6.61668 75.8334 6.61C75.8568 6.60449 75.8778 6.59206 75.8964 6.57271C75.9149 6.55265 75.9268 6.52703 75.9322 6.49584L75.9736 6.48607C75.9652 6.56136 75.9425 6.62207 75.9055 6.66819C75.8683 6.7136 75.8256 6.74198 75.7774 6.75334C75.7448 6.76102 75.7109 6.75968 75.6755 6.74931C75.64 6.73824 75.6109 6.7178 75.5881 6.688C75.5652 6.6575 75.5455 6.60717 75.529 6.53701L75.3747 5.88226L75.2205 5.91858L75.2123 5.88351C75.2476 5.85873 75.2811 5.82316 75.3128 5.77679C75.345 5.72955 75.3711 5.67666 75.391 5.61812C75.4009 5.58736 75.412 5.53276 75.4242 5.45435L75.4571 5.44658ZM77.0223 5.38509L77.1005 5.71672L77.0654 5.72499C77.0139 5.62717 76.9625 5.56449 76.9112 5.53695C76.8605 5.50925 76.8026 5.50308 76.7374 5.51845C76.6878 5.53014 76.6508 5.55268 76.6265 5.58608C76.6022 5.61949 76.5939 5.65213 76.6014 5.68402C76.6107 5.7237 76.6301 5.75504 76.6594 5.77804C76.6883 5.80192 76.7402 5.82222 76.8152 5.83895L76.9881 5.87784C77.1485 5.91409 77.2422 5.98961 77.2693 6.10441C77.2902 6.19298 77.2734 6.27249 77.2189 6.34291C77.165 6.41247 77.0966 6.45701 77.0137 6.47656C76.9542 6.49058 76.8836 6.49599 76.8021 6.49277C76.777 6.49119 76.7571 6.49216 76.7422 6.49567C76.7259 6.49951 76.7153 6.51173 76.7104 6.53232L76.6754 6.54059L76.5934 6.19301L76.6285 6.18475C76.6717 6.27928 76.7273 6.3451 76.7951 6.38222C76.8629 6.41933 76.9316 6.42971 77.001 6.41334C77.0499 6.40182 77.0863 6.37829 77.1101 6.34277C77.1344 6.30637 77.1418 6.26797 77.1323 6.22758C77.1207 6.17868 77.0937 6.14168 77.0511 6.11656C77.0093 6.09127 76.9309 6.06522 76.8162 6.03842C76.7014 6.01162 76.6232 5.98142 76.5817 5.94784C76.5402 5.91496 76.5123 5.8677 76.4977 5.80605C76.4789 5.72598 76.4904 5.65258 76.5322 5.58587C76.5748 5.51899 76.6397 5.47528 76.7268 5.45473C76.7651 5.44572 76.8134 5.44293 76.8719 5.44636C76.9105 5.44848 76.9358 5.44811 76.9479 5.44527C76.9592 5.4426 76.9675 5.43803 76.9727 5.43157C76.9779 5.42511 76.9828 5.41237 76.9873 5.39336L77.0223 5.38509ZM78.1033 5.13031L78.3984 6.38243C78.4131 6.44479 78.4268 6.48382 78.4395 6.49953C78.4522 6.51524 78.4685 6.52597 78.4886 6.53172C78.5094 6.5373 78.546 6.53391 78.5984 6.52155L78.6077 6.56087L78.1166 6.67661L78.1073 6.63729L78.1275 6.63253C78.1672 6.62317 78.196 6.61041 78.2139 6.59423C78.2262 6.58309 78.2342 6.56625 78.2379 6.54369C78.2417 6.52185 78.2368 6.48187 78.2231 6.42377L78.1244 6.00498C78.0779 6.0967 78.0339 6.16242 77.9924 6.20212C77.9508 6.24111 77.9041 6.2667 77.8523 6.2789C77.7581 6.30111 77.6636 6.27811 77.569 6.20991C77.4751 6.14153 77.4112 6.03542 77.3773 5.89158C77.3384 5.72647 77.3557 5.58066 77.4291 5.45416C77.5023 5.32695 77.608 5.24705 77.7462 5.21449C77.7866 5.20497 77.8251 5.20187 77.8618 5.20519C77.8985 5.20851 77.933 5.21834 77.9652 5.23467C78.0017 5.20514 78.0356 5.17319 78.0672 5.13883L78.1033 5.13031ZM78.1086 5.93801L78.0008 5.48096C77.9883 5.42781 77.9714 5.38767 77.95 5.36054C77.9294 5.33325 77.8988 5.31314 77.8584 5.30024C77.818 5.28733 77.7754 5.28614 77.7308 5.29666C77.6514 5.31536 77.5913 5.36506 77.5505 5.44573C77.5097 5.52641 77.5054 5.63513 77.5376 5.7719C77.5685 5.90299 77.6207 5.99578 77.6941 6.05028C77.7682 6.10462 77.8461 6.12218 77.9275 6.10297C77.9694 6.09312 78.0045 6.07549 78.0329 6.05009C78.0611 6.02399 78.0864 5.98663 78.1086 5.93801ZM79.19 4.90449L79.3291 5.49441C79.3556 5.60707 79.3744 5.67558 79.3853 5.69992C79.3969 5.72339 79.4095 5.73874 79.4231 5.74599C79.4375 5.75307 79.4525 5.75478 79.4681 5.7511C79.4901 5.74592 79.5134 5.73406 79.5382 5.7155L79.5619 5.74919L79.299 5.93794L79.2511 5.94922L79.2025 5.74301C79.1403 5.85342 79.09 5.92549 79.0515 5.95923C79.0131 5.99297 78.9694 6.0156 78.9206 6.02713C78.866 6.03999 78.8148 6.03559 78.7671 6.01393C78.7199 5.99139 78.6827 5.95716 78.6554 5.91123C78.6281 5.8653 78.6038 5.79699 78.5824 5.70629L78.4799 5.27155C78.4691 5.22549 78.4566 5.19478 78.4425 5.1794C78.4284 5.16402 78.4104 5.15406 78.3883 5.14953C78.3669 5.14412 78.3307 5.14778 78.2799 5.16051L78.2706 5.12118L78.6118 5.04077L78.7654 5.69234C78.7867 5.78304 78.8164 5.83889 78.8542 5.85988C78.8928 5.88071 78.9344 5.88587 78.979 5.87534C79.0095 5.86816 79.0416 5.8505 79.0754 5.82235C79.1098 5.79403 79.1473 5.74668 79.1877 5.6803L79.0577 5.12864C79.0447 5.07337 79.0257 5.03859 79.0006 5.0243C78.9761 5.00914 78.9318 5.00836 78.8677 5.02198L78.8584 4.98265L79.19 4.90449ZM80.173 5.55243C80.0913 5.65322 80.0391 5.71264 80.0164 5.7307C79.9823 5.75743 79.9437 5.77589 79.9004 5.78608C79.8331 5.80195 79.7721 5.79203 79.7173 5.75632C79.6632 5.72045 79.6273 5.66496 79.6096 5.58985C79.5984 5.54237 79.5994 5.49876 79.6124 5.45903C79.6301 5.404 79.6697 5.34679 79.7313 5.2874C79.7936 5.22785 79.9011 5.1479 80.054 5.04754L80.045 5.00928C80.0221 4.9122 79.9908 4.84926 79.9511 4.82047C79.9121 4.79152 79.8632 4.78397 79.8044 4.79783C79.7598 4.80835 79.7272 4.82875 79.7066 4.85902C79.6854 4.88946 79.6784 4.92027 79.6858 4.95145L79.7024 5.0126C79.7101 5.04519 79.7075 5.07235 79.6947 5.09408C79.6826 5.11563 79.6631 5.12958 79.6361 5.13593C79.6099 5.14211 79.5861 5.13799 79.5648 5.12358C79.5441 5.10899 79.5301 5.08576 79.5225 5.05387C79.5082 4.99293 79.5262 4.9296 79.5765 4.86388C79.6268 4.79817 79.7083 4.75203 79.821 4.72548C79.9075 4.7051 79.9817 4.70293 80.0439 4.71895C80.0908 4.73107 80.1298 4.75817 80.1606 4.80026C80.1806 4.82772 80.2016 4.88858 80.2239 4.98282L80.3018 5.31339C80.3236 5.40622 80.3389 5.46285 80.3474 5.48327C80.3558 5.50298 80.3647 5.51546 80.3742 5.52071C80.3844 5.5258 80.3948 5.52708 80.4054 5.52458C80.4167 5.52191 80.4261 5.51709 80.4334 5.51012C80.4461 5.4974 80.4687 5.46478 80.5012 5.41224L80.5152 5.47176C80.4609 5.59676 80.3976 5.66778 80.3254 5.68481C80.2906 5.69299 80.2602 5.68746 80.2339 5.66821C80.2077 5.64896 80.1874 5.61037 80.173 5.55243ZM80.1567 5.48334L80.0693 5.11238C79.9723 5.18012 79.9103 5.22652 79.8833 5.25158C79.8347 5.29595 79.8023 5.33799 79.7862 5.37768C79.7702 5.41737 79.7669 5.45741 79.7764 5.4978C79.7884 5.54882 79.8137 5.58775 79.8522 5.61458C79.8905 5.6407 79.9295 5.64909 79.9692 5.63973C80.023 5.62704 80.0855 5.57491 80.1567 5.48334ZM80.6703 4.52531L80.7219 4.74427C80.769 4.57909 80.8354 4.4864 80.9211 4.46619C80.9601 4.457 80.9952 4.46145 81.0264 4.47953C81.0574 4.4969 81.0766 4.52118 81.0839 4.55236C81.0904 4.57999 81.0867 4.60555 81.0728 4.62902C81.0589 4.6525 81.0392 4.66724 81.0137 4.67326C80.9889 4.6791 80.958 4.67365 80.9212 4.65691C80.8849 4.63929 80.8593 4.63223 80.8444 4.63574C80.8316 4.63874 80.8195 4.64909 80.808 4.66677C80.7829 4.70334 80.7612 4.75893 80.7429 4.83356L80.8529 5.30018C80.8656 5.35403 80.8819 5.39319 80.9019 5.41765C80.9156 5.43462 80.9357 5.44672 80.9621 5.45396C80.9885 5.46121 81.0236 5.45965 81.0676 5.4493L81.0766 5.48756L80.5781 5.60505L80.5691 5.56679C80.6187 5.5551 80.6537 5.53862 80.6741 5.51735C80.6891 5.50184 80.6973 5.48084 80.6985 5.45437C80.6992 5.44149 80.6929 5.40671 80.6795 5.35002L80.5906 4.97268C80.5639 4.8593 80.5455 4.79257 80.5355 4.77248C80.5261 4.75152 80.5139 4.73758 80.4988 4.73066C80.4844 4.72358 80.468 4.72221 80.4496 4.72655C80.4276 4.73173 80.404 4.74289 80.3789 4.76003L80.3593 4.72427L80.6256 4.53583L80.6703 4.52531ZM81.3672 4.77842C81.4006 4.92315 81.4624 5.02826 81.5526 5.09376C81.6428 5.15925 81.7358 5.18073 81.8314 5.15818C81.8952 5.14315 81.9464 5.11276 81.985 5.06702C82.0241 5.0204 82.0496 4.95081 82.0614 4.85826L82.0994 4.87176C82.1074 4.97234 82.0851 5.07111 82.0324 5.16805C81.9795 5.26428 81.8992 5.32509 81.7915 5.35048C81.6746 5.37803 81.5636 5.35632 81.4586 5.28532C81.3542 5.21345 81.2838 5.10063 81.2476 4.94686C81.2083 4.78034 81.2203 4.64064 81.2834 4.52777C81.3471 4.41403 81.4435 4.34196 81.5724 4.31156C81.6816 4.28584 81.7797 4.30085 81.8669 4.3566C81.9539 4.41163 82.0116 4.49938 82.04 4.61985L81.3672 4.77842ZM81.3527 4.71677L81.8033 4.61056C81.7851 4.54903 81.7673 4.50685 81.75 4.48401C81.7229 4.44851 81.689 4.42359 81.6482 4.40927C81.6081 4.39477 81.569 4.39204 81.5307 4.40106C81.4719 4.41492 81.4245 4.45039 81.3886 4.50747C81.3532 4.56368 81.3413 4.63345 81.3527 4.71677ZM82.7494 3.49785C82.7792 3.49084 82.8069 3.49554 82.8324 3.51195C82.8585 3.52749 82.8751 3.55014 82.8821 3.57991C82.8891 3.60967 82.8845 3.63768 82.8683 3.66395C82.8527 3.69005 82.8301 3.70661 82.8003 3.71363C82.7705 3.72064 82.7425 3.71602 82.7163 3.69978C82.69 3.68353 82.6733 3.66052 82.6663 3.63076C82.6593 3.601 82.6637 3.57342 82.6794 3.54803C82.6956 3.52176 82.719 3.50504 82.7494 3.49785ZM82.9577 3.9862L83.1421 4.7685C83.1564 4.82945 83.1703 4.86919 83.1836 4.88773C83.1975 4.9054 83.2141 4.9172 83.2335 4.92311C83.2535 4.92885 83.2866 4.9263 83.3326 4.91544L83.3417 4.95371L82.8687 5.06519L82.8596 5.02692C82.9071 5.01573 82.9379 5.00361 82.952 4.99056C82.9662 4.9775 82.9753 4.95926 82.9795 4.93583C82.9844 4.91224 82.9798 4.87032 82.9656 4.81009L82.8772 4.43488C82.8523 4.3293 82.833 4.26167 82.8193 4.23199C82.809 4.21049 82.7975 4.19673 82.7849 4.19074C82.7721 4.18403 82.7564 4.18285 82.738 4.18719C82.7182 4.19187 82.6953 4.20286 82.6695 4.22017L82.6456 4.18541L82.9109 3.99722L82.9577 3.9862ZM83.8569 3.77426L83.9351 4.10589L83.9 4.11416C83.8485 4.01634 83.7971 3.95366 83.7457 3.92612C83.6951 3.89842 83.6371 3.89225 83.5719 3.90762C83.5223 3.91931 83.4854 3.94185 83.4611 3.97525C83.4368 4.00865 83.4284 4.0413 83.4359 4.07319C83.4453 4.11287 83.4646 4.14421 83.494 4.16721C83.5228 4.19108 83.5747 4.21139 83.6497 4.22812L83.8227 4.26701C83.9831 4.30326 84.0768 4.37878 84.1038 4.49358C84.1247 4.58215 84.1079 4.66165 84.0535 4.73208C83.9996 4.80164 83.9311 4.84618 83.8482 4.86572C83.7887 4.87975 83.7182 4.88516 83.6366 4.88194C83.6116 4.88036 83.5916 4.88133 83.5767 4.88484C83.5604 4.88868 83.5499 4.90089 83.545 4.92149L83.5099 4.92976L83.428 4.58218L83.4631 4.57392C83.5063 4.66845 83.5618 4.73427 83.6297 4.77139C83.6975 4.8085 83.7661 4.81888 83.8356 4.80251C83.8845 4.79099 83.9208 4.76746 83.9446 4.73194C83.9689 4.69554 83.9763 4.65714 83.9668 4.61675C83.9553 4.56785 83.9283 4.53085 83.8857 4.50573C83.8438 4.48044 83.7655 4.45439 83.6507 4.42759C83.536 4.40078 83.4578 4.37059 83.4162 4.33701C83.3748 4.30413 83.3468 4.25687 83.3323 4.19522C83.3134 4.11515 83.3249 4.04175 83.3668 3.97504C83.4094 3.90816 83.4742 3.86445 83.5614 3.8439C83.5997 3.83488 83.648 3.83209 83.7064 3.83553C83.7451 3.83764 83.7704 3.83728 83.7824 3.83444C83.7938 3.83177 83.8021 3.8272 83.8073 3.82074C83.8125 3.81427 83.8173 3.80154 83.8218 3.78253L83.8569 3.77426ZM38.6016 17.2085L38.912 16.9547L38.9471 16.9464L39.2339 18.1635C39.253 18.2442 39.268 18.2938 39.2791 18.3121C39.2908 18.3303 39.3086 18.3422 39.3324 18.3478C39.3561 18.3534 39.4008 18.3493 39.4663 18.3353L39.4756 18.3747L38.9335 18.5024L38.9242 18.4631C38.9919 18.4456 39.0345 18.4296 39.052 18.415C39.0693 18.3997 39.0799 18.3826 39.0837 18.3638C39.0873 18.3442 39.0789 18.2912 39.0586 18.2048L38.8752 17.4267C38.8505 17.3219 38.8311 17.2554 38.817 17.2273C38.8066 17.2058 38.7935 17.1913 38.7775 17.1838C38.7623 17.1762 38.7454 17.1746 38.727 17.1789C38.7008 17.1851 38.6669 17.2047 38.6253 17.2377L38.6016 17.2085ZM40.629 17.5418L40.6646 17.6928L40.4711 17.7384L40.5608 18.1189L40.3854 18.1602L40.2957 17.7797L39.6856 17.9235L39.6536 17.7874L40.0972 16.6754L40.2141 16.6478L40.4356 17.5874L40.629 17.5418ZM40.2602 17.6288L40.0916 16.9134L39.7542 17.748L40.2602 17.6288ZM41.7174 17.2853L41.753 17.4362L41.5596 17.4818L41.6492 17.8624L41.4739 17.9037L41.3842 17.5232L40.7741 17.667L40.742 17.5309L41.1856 16.4188L41.3025 16.3913L41.524 17.3309L41.7174 17.2853ZM41.3486 17.3722L41.18 16.6569L40.8427 17.4915L41.3486 17.3722ZM41.7174 16.8186L42.1755 16.7106L42.1848 16.7499C42.1557 16.7568 42.1363 16.7666 42.1266 16.7793C42.1176 16.7919 42.115 16.8064 42.1189 16.8227C42.1229 16.8397 42.1415 16.863 42.1746 16.8926C42.1851 16.9021 42.201 16.917 42.2222 16.9374L42.3174 17.0317L42.371 16.9024C42.4055 16.8202 42.4206 16.7699 42.4163 16.7515C42.4127 16.7366 42.4038 16.7256 42.3894 16.7185C42.3749 16.7107 42.3541 16.71 42.3272 16.7164L42.3179 16.677L42.6474 16.5994L42.6567 16.6387C42.6225 16.649 42.5946 16.6657 42.5731 16.6887C42.5441 16.721 42.509 16.7846 42.4678 16.8796L42.3767 17.0884L42.7013 17.3799C42.781 17.4516 42.8357 17.4933 42.8654 17.505C42.8949 17.516 42.9301 17.5178 42.971 17.5104L42.98 17.5487L42.5208 17.6569L42.5118 17.6187C42.5437 17.6111 42.5668 17.5982 42.5812 17.5799C42.5923 17.5668 42.596 17.5521 42.5921 17.5358C42.5883 17.5195 42.5559 17.4837 42.495 17.4285L42.3035 17.2538L42.1964 17.4989C42.1634 17.5747 42.1483 17.6187 42.1511 17.6307C42.1552 17.6477 42.1666 17.6615 42.1856 17.672C42.205 17.6816 42.2309 17.6834 42.2631 17.6773L42.2721 17.7155L41.9543 17.7905L41.9453 17.7522C41.97 17.7426 41.9902 17.7285 42.006 17.7098C42.0281 17.6829 42.0611 17.6198 42.105 17.5205L42.2452 17.2013L41.9971 16.977C41.9266 16.9129 41.8746 16.8746 41.841 16.8624C41.808 16.8492 41.7699 16.8477 41.7267 16.8579L41.7174 16.8186ZM42.9553 16.1824L43.2657 15.9286L43.3008 15.9203L43.5877 17.1373C43.6067 17.2181 43.6217 17.2677 43.6328 17.286C43.6446 17.3042 43.6623 17.3161 43.6861 17.3217C43.7098 17.3273 43.7545 17.3232 43.82 17.3092L43.8293 17.3485L43.2872 17.4763L43.2779 17.437C43.3456 17.4195 43.3882 17.4035 43.4057 17.3889C43.4231 17.3736 43.4336 17.3565 43.4374 17.3377C43.441 17.3181 43.4326 17.2651 43.4123 17.1787L43.2289 16.4006C43.2042 16.2957 43.1848 16.2293 43.1707 16.2012C43.1604 16.1797 43.1472 16.1652 43.1313 16.1577C43.116 16.1501 43.0991 16.1485 43.0807 16.1528C43.0545 16.159 43.0206 16.1786 42.979 16.2116L42.9553 16.1824ZM44.9827 16.5157L45.0183 16.6666L44.8248 16.7122L44.9145 17.0928L44.7391 17.1341L44.6495 16.7536L44.0393 16.8974L44.0073 16.7613L44.4509 15.6492L44.5678 15.6217L44.7893 16.5613L44.9827 16.5157ZM44.6139 16.6026L44.4453 15.8873L44.1079 16.7219L44.6139 16.6026ZM46.0711 16.2592L46.1067 16.4101L45.9133 16.4557L46.0029 16.8362L45.8276 16.8776L45.7379 16.497L45.1278 16.6408L45.0957 16.5048L45.5393 15.3927L45.6562 15.3652L45.8777 16.3048L46.0711 16.2592ZM45.7023 16.3461L45.5337 15.6308L45.1964 16.4654L45.7023 16.3461Z" fill="black" fill-opacity="0.3"/>
<path d="M37.1672 129.52C32.15 108.232 35.7909 85.8249 47.2889 67.2265C58.7869 48.6281 77.2001 35.3623 98.4779 30.3474" stroke="black" stroke-opacity="0.3" stroke-width="0.447632"/>
<path d="M159.754 68.2678C156.653 55.1112 148.455 43.7247 136.964 36.6132C125.472 29.5017 111.628 27.2478 98.4772 30.3474" stroke="black" stroke-opacity="0.3" stroke-width="0.447632"/>
<path d="M136.338 106.146C144.465 104.231 151.498 99.1637 155.889 92.0602C160.281 84.9566 161.671 76.3982 159.755 68.2677" stroke="black" stroke-opacity="0.3" stroke-width="0.447632"/>
<path d="M112.928 91.6596C114.113 96.6857 117.244 101.036 121.634 103.752C126.025 106.469 131.313 107.33 136.337 106.146" stroke="black" stroke-opacity="0.3" stroke-width="0.447632"/>
<path d="M112.929 91.6597C112.197 88.5554 112.728 85.2876 114.405 82.5754C116.082 79.8631 118.767 77.9285 121.87 77.1972" stroke="black" stroke-opacity="0.3" stroke-width="0.447632"/>
<path d="M130.819 82.7359C130.595 81.7844 130.185 80.8863 129.614 80.093C129.043 79.2996 128.321 78.6266 127.49 78.1122C126.659 77.5979 125.735 77.2524 124.77 77.0953C123.806 76.9383 122.82 76.9729 121.869 77.197" stroke="black" stroke-opacity="0.3" stroke-width="0.447632"/>
<path d="M130.82 82.7357C130.958 83.3213 130.98 83.9283 130.883 84.522C130.787 85.1158 130.574 85.6848 130.258 86.1964C129.942 86.708 129.528 87.1522 129.04 87.5038C128.552 87.8553 127.999 88.1072 127.414 88.2452" stroke="black" stroke-opacity="0.3" stroke-width="0.447632"/>
<path d="M123.972 86.1151C124.058 86.4811 124.216 86.8265 124.435 87.1316C124.655 87.4368 124.933 87.6956 125.252 87.8934C125.572 88.0913 125.928 88.2242 126.299 88.2845C126.669 88.3449 127.049 88.3317 127.415 88.2454" stroke="black" stroke-opacity="0.3" stroke-width="0.447632"/>
<path d="M123.97 86.1151C123.866 85.6716 123.942 85.2048 124.181 84.8174C124.421 84.4299 124.804 84.1535 125.248 84.0491" stroke="black" stroke-opacity="0.3" stroke-width="0.447632"/>
<path d="M125.642 85.7212L125.248 84.0491" stroke="black" stroke-opacity="0.3" stroke-width="0.447632"/>
<path d="M126.756 85.4586L123.971 86.1151" stroke="black" stroke-opacity="0.3" stroke-width="0.447632"/>
<path d="M125.512 85.1638L126.626 84.9012" stroke="black" stroke-opacity="0.3" stroke-width="0.447632"/>
<path d="M126.068 85.0325L126.2 85.5899" stroke="black" stroke-opacity="0.3" stroke-width="0.447632"/>
<path d="M126.363 83.7864L127.414 88.2455" stroke="black" stroke-opacity="0.3" stroke-width="0.447632"/>
<path d="M123.576 84.443L130.819 82.7359" stroke="black" stroke-opacity="0.3" stroke-width="0.447632"/>
<path d="M124.628 88.902L121.869 77.1969" stroke="black" stroke-opacity="0.3" stroke-width="0.447632"/>
<path d="M131.87 87.1951L112.928 91.6597" stroke="black" stroke-opacity="0.3" stroke-width="0.447632"/>
<path d="M129.111 75.49L136.337 106.146" stroke="black" stroke-opacity="0.3" stroke-width="0.447632"/>
<path d="M110.162 79.9263L159.776 68.2329" stroke="black" stroke-opacity="0.3" stroke-width="0.447632"/>
<path d="M117.394 110.611L98.4766 30.3474" stroke="black" stroke-opacity="0.3" stroke-width="0.447632"/>
<path d="M37.167 129.52L18.2324 49.1824" stroke="black" stroke-opacity="0.3" stroke-width="0.447632"/>
<path d="M166.962 98.8502L148.045 18.5868" stroke="black" stroke-opacity="0.3" stroke-width="0.447632"/>
<path d="M18.2324 49.1824L148.119 18.5694" stroke="black" stroke-opacity="0.3" stroke-width="0.447632"/>
<path d="M37.166 129.52L167.053 98.9067" stroke="black" stroke-opacity="0.3" stroke-width="0.447632"/>
<path d="M126.626 84.9012C126.556 84.6056 126.372 84.3497 126.114 84.1899C125.856 84.0301 125.545 83.9795 125.249 84.0491" stroke="black" stroke-opacity="0.3" stroke-width="0.447632"/>
<path d="M126.626 84.9013C126.644 84.9745 126.646 85.0504 126.634 85.1246C126.622 85.1988 126.596 85.2699 126.556 85.3338C126.517 85.3978 126.465 85.4533 126.404 85.4972C126.343 85.5412 126.274 85.5727 126.201 85.5899" stroke="black" stroke-opacity="0.3" stroke-width="0.447632"/>
<path d="M125.511 85.1627C125.528 85.2358 125.56 85.3049 125.604 85.3659C125.648 85.427 125.703 85.4787 125.767 85.5183C125.831 85.5578 125.902 85.5844 125.976 85.5965C126.051 85.6086 126.126 85.6059 126.2 85.5887" stroke="black" stroke-opacity="0.3" stroke-width="0.447632"/>
<circle cx="150.924" cy="98.1766" r="1.0911" transform="rotate(-13.262 150.924 98.1766)" fill="#F05127"/>
<circle cx="153.651" cy="95.1191" r="2.09828" transform="rotate(-13.262 153.651 95.1191)" fill="#F05127"/>
</g>
<path d="M76.9848 30.8808C77.3581 30.7928 77.6771 30.654 77.9387 30.465C78.2004 30.276 78.3677 30.0729 78.4386 29.8591L78.496 29.8456L78.517 29.9346C78.5603 30.1184 78.5624 30.2816 78.5204 30.4249L79.7209 30.142C79.5828 29.929 79.4749 29.6513 79.395 29.3124L79.1953 28.4651C79.0843 27.9941 78.7835 27.6952 78.3448 27.5833C77.9062 27.4715 77.3783 27.4958 76.7321 27.6481C76.0917 27.7991 75.5297 28.0255 75.0511 28.3232L75.1966 28.9407C75.576 28.6209 76.0787 28.3872 76.7077 28.239C77.1442 28.1361 77.4916 28.1179 77.7469 28.185C78.0023 28.2522 78.163 28.4326 78.2327 28.7284L78.32 29.0989L78.2626 29.1124C78.1007 28.9656 77.8636 28.873 77.5471 28.8293C77.2313 28.7886 76.8882 28.8118 76.5177 28.8992C75.3947 29.1638 74.8747 29.6714 75.0203 30.2889C75.0927 30.5962 75.2996 30.8051 75.6402 30.9128C75.9816 31.0233 76.4305 31.0115 76.9848 30.8808ZM77.2564 30.2196C76.5096 30.3956 76.044 30.3235 75.9736 30.0248C75.9052 29.7347 76.2837 29.4757 77.0391 29.2977C77.3177 29.232 77.6008 29.1987 77.8634 29.2065C78.1266 29.2172 78.3194 29.3021 78.3573 29.463C78.3824 29.5692 78.3373 29.6738 78.2228 29.7796C77.9909 29.9919 77.6355 30.1303 77.2564 30.2196ZM81.8002 29.6519C81.6591 29.5033 81.5817 29.3548 81.514 29.0676L81.3617 28.4214C81.3163 28.229 81.3404 28.0353 81.4368 27.8398C81.5303 27.645 81.6649 27.4829 81.8393 27.3478C82.0107 27.2135 82.1958 27.1243 82.3911 27.0783C82.5548 27.0397 82.7275 27.0263 82.9098 27.0409C83.0921 27.0556 83.2283 27.0932 83.3219 27.156L83.1182 26.2915C83.0319 26.2725 82.9117 26.2644 82.7642 26.2689C82.6145 26.2769 82.4762 26.2943 82.3498 26.3241C82.0253 26.4006 81.759 26.5573 81.5511 26.7943C81.3439 27.0341 81.2435 27.3154 81.2455 27.6454L81.1938 27.6576L81.1342 27.4049C81.0747 27.1521 81.082 26.8745 81.1416 26.7029L79.8664 27.0034C80.0045 27.2164 80.1124 27.4941 80.1923 27.833L80.482 29.0622C80.5625 29.404 80.5894 29.6978 80.5595 29.9443L81.8002 29.6519ZM86.4911 28.6403C86.8559 28.5543 87.2125 28.4339 87.5617 28.2819C87.9108 28.1299 88.1757 27.9674 88.3512 27.7987L88.1823 27.1594C88.0173 27.3469 87.7903 27.5156 87.5064 27.6613C87.2224 27.8071 86.9095 27.9202 86.5735 27.9994C86.2978 28.0644 86.0312 28.0909 85.7744 28.0817C85.5147 28.0731 85.2835 28.0185 85.0774 27.9155C84.8712 27.8125 84.7307 27.6668 84.6582 27.4747L84.6832 27.4263C84.9875 27.4698 85.2799 27.4888 85.5635 27.4826C85.847 27.4764 86.1495 27.4354 86.4741 27.3589C86.9566 27.2452 87.3488 27.083 87.6409 26.8687C87.9307 26.6579 88.0677 26.377 87.9966 26.0755C87.9282 25.7854 87.684 25.5853 87.2611 25.4758C86.8388 25.3692 86.3218 25.3879 85.7129 25.5315C85.2678 25.6364 84.8834 25.7936 84.5593 26.0004C84.2358 26.21 83.997 26.4573 83.8493 26.7437C83.6987 27.0309 83.6603 27.3309 83.734 27.644C83.9424 28.5923 85.1159 28.9796 86.4911 28.6403ZM86.1658 26.9769C85.6402 27.1007 85.108 27.1322 84.5698 27.0741C84.5905 26.8661 84.7263 26.6704 84.9829 26.4857C85.2366 26.3016 85.5304 26.1717 85.8635 26.0932C86.2282 26.0072 86.5155 25.9911 86.7309 26.0433C86.9442 26.0992 87.0653 26.1889 87.0944 26.3124C87.1608 26.5938 86.8522 26.8151 86.1658 26.9769Z" fill="black"/>
<path d="M157.235 40.2241C157.459 40.0804 157.776 39.9602 158.193 39.862L160.522 39.3131L160.821 40.5825C160.921 41.0075 160.968 41.3331 160.963 41.5556L161.796 41.1289L160.611 36.1L159.675 36.0931C159.779 36.2898 159.883 36.6019 159.983 37.0241L160.281 38.2906L157.952 38.8396C157.535 38.9377 157.198 38.9718 156.933 38.9432L157.235 40.2241ZM158.13 44.421C158.216 44.7857 158.337 45.1424 158.489 45.4915C158.641 45.8407 158.803 46.1056 158.972 46.2811L159.611 46.1122C159.424 45.9472 159.255 45.7202 159.109 45.4362C158.964 45.1523 158.851 44.8394 158.771 44.5034C158.706 44.2277 158.68 43.9611 158.689 43.7042C158.698 43.4446 158.752 43.2134 158.855 43.0072C158.958 42.8011 159.104 42.6606 159.296 42.5881L159.344 42.613C159.301 42.9174 159.282 43.2098 159.288 43.4933C159.294 43.7768 159.335 44.0794 159.412 44.404C159.526 44.8865 159.688 45.2787 159.902 45.5708C160.113 45.8606 160.394 45.9975 160.695 45.9265C160.985 45.8581 161.185 45.6139 161.295 45.1909C161.402 44.7687 161.383 44.2517 161.239 43.6428C161.134 43.1976 160.977 42.8133 160.77 42.4892C160.561 42.1657 160.313 41.9269 160.027 41.7792C159.74 41.6286 159.44 41.5901 159.127 41.6639C158.179 41.8723 157.791 43.0458 158.13 44.421ZM159.794 44.0956C159.67 43.5701 159.639 43.0379 159.697 42.4997C159.905 42.5204 160.1 42.6562 160.285 42.9128C160.469 43.1665 160.599 43.4602 160.678 43.7934C160.764 44.1581 160.78 44.4454 160.727 44.6608C160.672 44.874 160.582 44.9952 160.458 45.0243C160.177 45.0907 159.956 44.7821 159.794 44.0956ZM159.112 48.5854C159.2 48.9588 159.339 49.2777 159.528 49.5394C159.717 49.801 159.92 49.9684 160.134 50.0392L160.147 50.0967L160.058 50.1177C159.874 50.161 159.711 50.1631 159.568 50.1211L159.851 51.3216C160.064 51.1834 160.342 51.0755 160.68 50.9957L161.528 50.796C161.999 50.685 162.298 50.3841 162.41 49.9455C162.521 49.5068 162.497 48.979 162.345 48.3328C162.194 47.6923 161.967 47.1303 161.67 46.6518L161.052 46.7973C161.372 47.1767 161.606 47.6794 161.754 48.3083C161.857 48.7449 161.875 49.0923 161.808 49.3476C161.741 49.6029 161.56 49.7636 161.264 49.8334L160.894 49.9207L160.88 49.8632C161.027 49.7013 161.12 49.4643 161.163 49.1478C161.204 48.832 161.181 48.4888 161.094 48.1184C160.829 46.9954 160.321 46.4754 159.704 46.6209C159.397 46.6933 159.188 46.9002 159.08 47.2409C158.97 47.5822 158.981 48.0311 159.112 48.5854ZM159.773 48.857C159.597 48.1103 159.669 47.6446 159.968 47.5742C160.258 47.5059 160.517 47.8844 160.695 48.6397C160.761 48.9183 160.794 49.2015 160.786 49.464C160.776 49.7273 160.691 49.9201 160.53 49.958C160.424 49.983 160.319 49.938 160.213 49.8235C160.001 49.5916 159.863 49.2361 159.773 48.857ZM160.341 53.4009C160.565 53.2572 160.839 53.1471 161.169 53.0693L161.617 52.9637C161.93 52.8899 162.211 52.9359 162.453 53.1031C162.695 53.2674 162.854 53.5028 162.925 53.8044C163.065 54.3989 162.804 54.7575 162.25 54.8882L161.632 55.0337C161.302 55.1116 161.007 55.1355 160.743 55.1069L161.037 56.3533C161.254 56.2081 161.528 56.0951 161.864 56.0159L162.312 55.9103C162.939 55.7535 163.499 56.1762 163.621 56.7568C163.759 57.3427 163.498 57.7042 162.944 57.8349L162.327 57.9804C161.988 58.0603 161.691 58.0878 161.439 58.0593L161.731 59.3C161.938 59.1604 162.215 59.0496 162.56 58.9684L163.361 58.7795C163.783 58.68 164.086 58.4751 164.274 58.167C164.459 57.8568 164.495 57.4543 164.379 56.9632C164.329 56.7535 164.254 56.5621 164.15 56.3897C164.045 56.2172 163.901 56.0664 163.72 55.9423C163.536 55.8188 163.331 55.7459 163.106 55.7293L163.092 55.669C163.64 55.3729 163.872 54.8121 163.684 54.0165C163.636 53.8097 163.561 53.6241 163.459 53.4573C163.356 53.2906 163.213 53.1484 163.033 53.03C162.854 52.9117 162.65 52.8445 162.422 52.8285L162.41 52.7768L162.668 52.7159C162.901 52.6611 163.101 52.6473 163.274 52.6733L162.989 51.467C162.766 51.6107 162.491 51.7208 162.161 51.7987L160.938 52.087C160.607 52.1649 160.313 52.1888 160.048 52.1602L160.341 53.4009ZM162.876 64.5567C163.068 65.3723 163.331 65.9835 163.664 66.3931C163.996 66.7998 164.363 66.9558 164.762 66.8617C165.142 66.7724 165.382 66.4943 165.473 66.1212C165.564 65.7482 165.572 65.2795 165.518 64.792C165.392 63.5758 165.032 62.2569 165.553 62.1372C165.711 62.1 165.859 62.2136 165.967 62.3883C166.021 62.4756 166.071 62.588 166.126 62.7297C166.228 63.0088 166.291 63.2487 166.367 63.5854C166.462 63.9903 166.517 64.4019 166.531 64.82C166.544 65.2382 166.512 65.6006 166.43 65.9109L167.283 65.7098C167.331 65.3863 167.34 65.0113 167.308 64.5822C167.277 64.1531 167.217 63.7457 167.127 63.3609C166.957 62.64 166.732 62.0594 166.439 61.6131C166.146 61.1668 165.764 60.9506 165.354 61.0473C165.127 61.1008 164.952 61.233 164.83 61.3738C164.768 61.446 164.718 61.5398 164.679 61.658C164.639 61.7735 164.61 61.8804 164.587 61.9767C164.565 62.073 164.552 62.2003 164.55 62.3584C164.547 62.5137 164.545 62.6475 164.549 62.7528C164.55 62.8587 164.559 63.002 164.577 63.1826C164.596 63.3632 164.611 63.5051 164.625 63.6019C164.636 63.6994 164.654 63.8406 164.679 64.0256C164.706 64.2285 164.729 64.4049 164.748 64.549C164.764 64.6938 164.775 64.8428 164.785 65.0011C164.792 65.1601 164.789 65.2882 164.776 65.3882C164.747 65.589 164.664 65.7482 164.514 65.7833C164.144 65.8707 163.891 65.3784 163.653 64.3675C163.391 63.2531 163.381 62.2854 163.626 61.4606L162.667 61.638C162.617 62.0532 162.613 62.5269 162.655 63.0657C162.694 63.6023 162.769 64.1 162.876 64.5567ZM164.415 70.6846C164.638 70.541 164.956 70.4207 165.372 70.3226L167.701 69.7736L168 71.043C168.101 71.4681 168.147 71.7936 168.142 72.0162L168.975 71.5894L167.79 66.5605L166.854 66.5536C166.958 66.7504 167.062 67.0624 167.162 67.4846L167.46 68.7512L165.131 69.3001C164.715 69.3983 164.377 69.4324 164.113 69.4037L164.415 70.6846ZM165.575 76.0074C165.673 76.4238 165.798 76.8127 165.952 77.1705C166.106 77.5283 166.27 77.8261 166.445 78.0668L167.41 77.8394C167.192 77.6453 166.994 77.3857 166.823 77.0592C166.652 76.7326 166.52 76.3787 166.43 75.9967C166.328 75.5631 166.289 75.166 166.311 74.8063C166.332 74.4466 166.421 74.1436 166.578 73.8974C166.736 73.6512 166.957 73.496 167.241 73.429C167.522 73.3626 167.79 73.4027 168.039 73.5471C168.538 73.8387 168.884 74.4453 169.071 75.238C169.161 75.62 169.194 75.9911 169.172 76.348C169.15 76.7048 169.079 76.9973 168.966 77.2241L169.891 77.1364C169.972 76.8476 170.008 76.5117 170.006 76.1331C170.004 75.7516 169.954 75.3573 169.857 74.9466C169.651 74.0735 169.281 73.3635 168.796 72.9017C168.311 72.44 167.674 72.2446 166.994 72.405C166.313 72.5654 165.83 73.037 165.609 73.6803C165.384 74.3243 165.369 75.1343 165.575 76.0074Z" fill="black"/>
<path d="M43.1892 95.0305C46.8539 94.1668 50.0299 93.0302 52.7144 91.6093L51.2117 85.2334C49.3248 87.1575 46.6984 88.5162 43.3324 89.3096C38.4554 90.4833 34.9018 90.1203 34.3982 87.9836C34.2357 87.2943 34.4308 86.6299 34.9719 85.993C36.0656 84.7167 38.1251 83.7826 40.8363 83.1436C42.5825 82.732 44.2193 82.5767 45.7555 82.6633C47.2917 82.7499 48.5103 83.0326 49.4086 83.4999L48.9252 77.5386C45.8155 76.9498 42.427 77.0815 38.7393 77.9506C31.2031 79.7268 26.0508 83.6938 27.4472 89.6703C27.9969 92.0024 29.4566 93.7198 31.4338 94.6483C34.4262 96.0773 38.6684 96.1203 43.1892 95.0305ZM83.4624 84.4836C85.2698 83.3543 86.5878 82.0008 87.3935 80.4285C88.2019 78.8677 88.3878 77.1869 87.9681 75.4062C87.5484 73.6256 86.6314 72.2047 85.2084 71.1577C83.7881 70.1221 82.0044 69.4997 79.8829 69.2964C77.7526 69.1073 75.3765 69.3157 72.7687 69.9303C70.1609 70.5449 67.9418 71.4196 66.1317 72.5374C64.3128 73.6694 63.0063 75.0202 62.1979 76.581C61.3922 78.1533 61.1948 79.8368 61.6145 81.6175C62.0342 83.3981 62.9626 84.8163 64.3829 85.8518C65.8059 86.8988 67.5782 87.524 69.7112 87.7246C71.8327 87.9279 74.2088 87.7195 76.8166 87.1049C79.4244 86.4903 81.6435 85.6156 83.4624 84.4836ZM75.563 81.7859C73.6674 82.2327 72.0921 82.2887 70.8282 81.9682C69.5643 81.6476 68.8145 80.9876 68.5763 79.9767C68.338 78.9657 68.7141 78.0404 69.7045 77.2006C70.695 76.3609 72.1322 75.719 74.0277 75.2722C75.9118 74.8282 77.4844 74.7607 78.7571 75.067C80.0183 75.3761 80.7681 76.0361 81.0063 77.047C81.2446 78.058 80.8685 78.9833 79.8808 79.8346C78.8815 80.6885 77.447 81.3419 75.563 81.7859ZM120.731 75.6997C122.539 74.5704 123.857 73.2169 124.663 71.6446C125.471 70.0838 125.657 68.403 125.237 66.6223C124.817 64.8417 123.9 63.4208 122.477 62.3738C121.057 61.3382 119.273 60.7158 117.152 60.5125C115.022 60.3234 112.646 60.5318 110.038 61.1464C107.43 61.761 105.211 62.6357 103.401 63.7535C101.582 64.8855 100.275 66.2363 99.4669 67.7971C98.6613 69.3694 98.4639 71.0529 98.8835 72.8336C99.3032 74.6142 100.232 76.0324 101.652 77.0679C103.075 78.1149 104.847 78.7401 106.98 78.9407C109.102 79.144 111.478 78.9356 114.086 78.321C116.693 77.7064 118.912 76.8317 120.731 75.6997ZM112.832 73.002C110.936 73.4488 109.361 73.5048 108.097 73.1843C106.833 72.8637 106.084 72.2037 105.845 71.1928C105.607 70.1818 105.983 69.2565 106.974 68.4167C107.964 67.577 109.401 66.9351 111.297 66.4883C113.181 66.0443 114.753 65.9768 116.026 66.2831C117.287 66.5922 118.037 67.2522 118.275 68.2631C118.514 69.2741 118.138 70.1994 117.15 71.0507C116.151 71.9046 114.716 72.558 112.832 73.002ZM155.41 68.5813C155.858 68.4757 156.309 68.3329 156.776 68.1503C157.23 67.9704 157.602 67.7979 157.893 67.6444C158.45 67.3312 158.981 67.0121 159.027 67.0012L157.716 61.0288C157.135 61.4933 156.318 61.9403 155.27 62.3813C154.211 62.8251 153.095 63.185 151.935 63.4585L145.375 65.0045L144.517 61.3628C144.249 60.2255 144.016 58.8253 143.818 57.1621C143.611 55.5132 143.561 54.3244 143.654 53.5871L134.901 55.6503C135.333 56.3003 135.765 57.1564 136.2 58.2301C136.623 59.3065 136.955 60.356 137.202 61.4014L138.277 65.9621C138.534 67.0535 138.722 68.2098 138.845 69.4539C138.957 70.7008 138.966 71.7172 138.867 72.4803C140.577 71.3496 142.541 70.523 144.735 70.0059C148.538 69.061 152.112 69.407 155.41 68.5813Z" fill="black"/>
<path d="M25.9954 93.3598L22.5654 92.8525L22.5546 92.8065L25.397 90.8209L25.1046 89.5802C24.7539 89.584 24.3622 89.543 23.9332 89.4591L21.6756 89.0515C21.2351 88.9704 20.8622 88.8673 20.5604 88.7444L20.8751 90.0799C21.1037 90.0593 21.3333 90.0689 21.5611 90.1092L23.6051 90.4853C23.7793 90.517 24.0279 90.5555 24.3508 90.6006L24.3603 90.6408L21.4837 92.6618L21.6719 93.4602L25.1482 93.9839L25.159 94.0298C24.9531 94.1723 24.7507 94.317 24.5548 94.4632L22.8824 95.7153C22.6922 95.8602 22.4904 95.9684 22.2804 96.0421L22.5965 97.3834C22.7863 97.1598 23.074 96.901 23.4559 96.6048L25.2958 95.2405C25.6726 94.9486 26.0005 94.7318 26.2851 94.589L25.9954 93.3598ZM24.1769 85.2454C24.091 84.8807 23.9705 84.5241 23.8185 84.1749C23.6665 83.8257 23.504 83.5609 23.3353 83.3854L22.6961 83.5542C22.8835 83.7192 23.0522 83.9463 23.198 84.2302C23.3437 84.5142 23.4569 84.827 23.5361 85.1631C23.601 85.4388 23.6275 85.7054 23.6183 85.9622C23.6098 86.2219 23.5551 86.453 23.4521 86.6592C23.3492 86.8654 23.2034 87.0058 23.0113 87.0784L22.963 87.0534C23.0065 86.7491 23.0254 86.4566 23.0193 86.1731C23.0131 85.8896 22.9721 85.587 22.8956 85.2625C22.7819 84.78 22.6197 84.3877 22.4053 84.0957C22.1945 83.8058 21.9137 83.6689 21.6121 83.74C21.3221 83.8084 21.1219 84.0526 21.0124 84.4755C20.9058 84.8978 20.9246 85.4148 21.0681 86.0236C21.173 86.4688 21.3303 86.8531 21.537 87.1773C21.7467 87.5007 21.9939 87.7396 22.2804 87.8873C22.5675 88.0379 22.8676 88.0763 23.1806 88.0025C24.1289 87.7942 24.5162 86.6206 24.1769 85.2454ZM22.5135 85.5708C22.6374 86.0964 22.6688 86.6286 22.6108 87.1667C22.4028 87.146 22.2071 87.0103 22.0223 86.7537C21.8382 86.5 21.7083 86.2062 21.6298 85.8731C21.5439 85.5083 21.5277 85.2211 21.58 85.0057C21.6358 84.7924 21.7255 84.6712 21.849 84.6421C22.1305 84.5758 22.3517 84.8844 22.5135 85.5708Z" fill="black"/>
<defs>
<clipPath id="clip0_2392_4255">
<rect x="14.7871" y="47.0499" width="138.654" height="87.9597" rx="2.35007" transform="rotate(-13.262 14.7871 47.0499)" fill="white"/>
</clipPath>
</defs>
</svg>
