<svg width="120" height="126" viewBox="0 0 120 126" fill="none" xmlns="http://www.w3.org/2000/svg">
<path d="M66.0663 40.5636L66.5698 43.2797L68.5737 41.3783L92.0634 19.0889L78.1237 48.3168L76.9346 50.8102L79.6734 50.4497L111.778 46.2241L83.3212 61.6764L80.8935 62.9946L83.3212 64.3128L111.778 79.7651L79.6734 75.5396L76.9346 75.1791L78.1237 77.6725L92.0634 106.9L68.5737 84.611L66.5698 82.7095L66.0663 85.4257L60.1641 117.265L54.2618 85.4257L53.7583 82.7095L51.7544 84.611L28.2647 106.9L42.2044 77.6725L43.3936 75.1791L40.6548 75.5396L8.54978 79.7651L37.007 64.3128L39.4346 62.9946L37.007 61.6764L8.54978 46.2241L40.6548 50.4497L43.3936 50.8102L42.2044 48.3168L28.2647 19.0889L51.7544 41.3783L53.7583 43.2797L54.2618 40.5636L60.1641 8.72417L66.0663 40.5636Z" fill="#F05127" stroke="#FFD746" stroke-width="3"/>
</svg>
