<svg width="375" height="229" viewBox="0 0 375 229" fill="none" xmlns="http://www.w3.org/2000/svg">
<path fill-rule="evenodd" clip-rule="evenodd" d="M2.52379 70.8063C10.6551 69.5237 16.1171 61.3216 14.7234 52.4865C14.7234 52.4864 14.7234 52.4863 14.7234 52.4863L332.743 2.32221L332.743 2.32242C334.136 11.1572 341.857 17.2796 349.988 15.9976L372.346 157.735C364.215 159.018 358.753 167.22 360.147 176.055L42.128 226.219C40.7342 217.384 33.0128 211.261 24.8815 212.544L24.881 212.544L2.52345 70.8064C2.52356 70.8063 2.52367 70.8063 2.52379 70.8063Z" fill="#F6C5C5"/>
<rect x="24.4555" y="74.6011" width="309.616" height="128.607" rx="5.84417" transform="rotate(-8.96393 24.4555 74.6011)" stroke="#EB4242" stroke-width="1.20914"/>
<line x1="52.5723" y1="69.5541" x2="72.7993" y2="197.785" stroke="#EB4242" stroke-width="1.20914"/>
<line x1="303.179" y1="30.0236" x2="323.406" y2="158.254" stroke="#EB4242" stroke-width="1.20914"/>
<path d="M82.85 99.2778C85.4977 98.8601 87.6743 97.6964 89.1757 95.9324C90.6647 94.1703 91.3269 91.5668 90.8587 88.5989C90.4838 86.2221 89.4821 84.2724 88.1095 83.0122C86.017 81.1083 83.1063 80.4189 79.9536 80.9162C77.2936 81.3357 75.0943 82.5157 73.6033 84.2654C72.1019 86.0294 71.4275 88.6349 71.8937 91.5905C72.3618 94.5584 73.8055 96.8297 75.777 98.0459C77.7362 99.264 80.1899 99.6974 82.85 99.2778ZM82.1409 94.7828C81.1188 94.944 80.2153 94.6574 79.4325 93.9353C78.6373 93.2151 78.1222 92.1099 77.8911 90.6444C77.6599 89.179 77.8118 87.9812 78.3343 87.0532C78.8568 86.1251 79.6425 85.5847 80.6646 85.4234C81.6744 85.2641 82.576 85.5384 83.3588 86.2606C84.1416 86.9827 84.6548 88.0756 84.886 89.5411C85.1171 91.0066 84.9672 92.2166 84.4447 93.1447C83.9221 94.0727 83.1508 94.6235 82.1409 94.7828ZM100.884 96.067C100.621 95.4396 100.328 94.4635 100.002 93.114C99.6756 91.7645 99.4159 90.5181 99.2352 89.3728L98.7748 86.4541L99.1443 86.3959L107.165 95.0763L112.584 94.2216L110.806 82.9534C110.385 80.2811 110.246 78.1195 110.377 76.4706L103.468 77.5604C103.715 78.1652 103.998 79.0797 104.309 80.3307C104.62 81.5817 104.852 82.7315 105.017 83.7783L105.491 86.7831L105.134 86.8395L97.4415 78.5615L91.19 79.4971C91.8379 81.1241 92.371 83.2235 92.777 85.7973L93.5482 90.6864C93.9523 93.2479 94.0913 95.4094 93.9756 97.1568L100.884 96.067ZM127.743 91.8303C128.938 91.6419 129.97 91.3024 130.853 90.8223C132.62 89.862 133.637 88.225 133.328 86.2669C133.178 85.3186 132.777 84.5363 132.127 83.9321C130.815 82.738 128.856 82.4033 126.529 82.7704L126.098 82.8384L126.045 82.5059L126.144 82.4904C129.29 82.032 131.652 80.0438 131.225 77.4985C130.804 74.7503 127.795 73.6727 124.379 74.262L113.061 76.0472C113.705 77.7253 114.226 79.8267 114.624 82.3512L115.395 87.2403C115.791 89.7525 115.943 91.9121 115.847 93.7068L127.743 91.8303ZM120.099 79.6953L123.301 79.1903C124.631 78.9805 125.575 79.3617 125.716 80.2607C125.862 81.1843 125.069 81.8395 123.752 82.0473L120.55 82.5524L120.099 79.6953ZM120.876 84.6213L124.657 84.0249C126.048 83.8054 127.096 84.2839 127.259 85.3184C127.422 86.3528 126.581 87.1039 125.202 87.3215L121.397 87.9217L120.876 84.6213ZM144.77 89.5106C147.417 89.093 149.594 87.9292 151.095 86.1652C152.584 84.4032 153.247 81.7997 152.778 78.8318C152.404 76.455 151.402 74.5052 150.029 73.245C147.937 71.3411 145.026 70.6517 141.873 71.149C139.213 71.5686 137.014 72.7485 135.523 74.4983C134.022 76.2623 133.347 78.8677 133.813 81.8233C134.282 84.7912 135.725 87.0625 137.697 88.2787C139.656 89.4969 142.11 89.9302 144.77 89.5106ZM144.061 85.0157C143.038 85.1769 142.135 84.8903 141.352 84.1681C140.557 83.4479 140.042 82.3428 139.811 80.8773C139.58 79.4118 139.731 78.2141 140.254 77.286C140.777 76.3579 141.562 75.8175 142.584 75.6563C143.594 75.497 144.496 75.7713 145.278 76.4934C146.061 77.2156 146.575 78.3084 146.806 79.7739C147.037 81.2394 146.887 82.4495 146.364 83.3775C145.842 84.3056 145.07 84.8564 144.061 85.0157ZM160.218 86.7078C160.08 85.8335 160.079 84.5462 160.225 82.8319L160.322 82.2486L165.285 81.4658L165.566 81.9642C166.23 83.6139 166.639 84.8493 166.782 85.6724L173.69 84.5827C172.551 82.8818 171.452 80.8717 170.406 78.5629L167.898 73.9477C167.456 72.9826 167.059 71.9092 166.686 70.7438C166.313 69.5784 166.029 68.5757 165.856 67.7194L155.573 69.3415C155.678 70.1705 155.725 71.1855 155.728 72.4091C155.732 73.6328 155.665 74.8047 155.546 75.8961L154.569 81.061C154.244 83.8006 153.814 86.0393 153.285 87.8015L160.218 86.7078ZM161.153 76.7156C161.26 76.0299 161.31 74.987 161.324 73.5585L161.657 73.5061C162.07 74.7661 162.453 75.7533 162.816 76.4533L164.308 79.0325L160.527 79.6289L161.153 76.7156ZM190.13 82.3808C190.758 82.2818 191.346 82.0122 191.897 81.5845C192.436 81.1588 192.79 80.6864 192.961 80.1672L191.694 72.6175C191.287 74.4361 190.29 75.4769 188.701 75.7275C188.024 75.8343 187.358 75.6112 186.801 75.2825C185.996 74.8164 185.103 74.1999 183.835 74.4L183.786 74.4077L183.762 74.26L183.984 74.225C185.277 74.021 186.395 73.668 187.34 73.1781C188.285 72.6883 189.004 72.0448 189.495 71.2353C189.988 70.4382 190.149 69.5418 189.992 68.5443C189.838 67.5714 189.4 66.7949 188.674 66.1901C187.212 65.007 185.018 64.6968 182.395 65.1106L171.681 66.8006C172.329 68.4275 172.862 70.527 173.268 73.1008L174.039 77.9898C174.443 80.5513 174.582 82.7129 174.466 84.4603L181.375 83.3705C180.727 81.7436 180.194 79.6442 179.79 77.0827L179.627 76.0482C179.835 75.927 180.186 75.8337 180.691 75.7541C182.686 75.4394 183.586 76.9005 184.512 78.5339C185.642 80.577 186.794 82.9196 190.13 82.3808ZM178.871 71.2577L182.245 70.7254C183.44 70.537 184.379 70.9694 184.517 71.8438C184.665 72.7797 183.909 73.4291 182.579 73.6389L179.328 74.1517L178.871 71.2577ZM203.357 79.9031C206.153 79.4621 208.323 78.3373 209.733 76.638C211.144 74.9388 211.731 72.4987 211.275 69.6047C210.822 66.7353 209.51 64.5819 207.645 63.3994C205.78 62.217 203.342 61.8063 200.572 62.2434L192 63.5954C192.297 64.3564 192.588 65.3202 192.887 66.4973C193.187 67.6743 193.414 68.7995 193.587 69.8956L194.359 74.7846C194.531 75.8806 194.661 77.0214 194.737 78.2211C194.812 79.4208 194.832 80.4274 194.786 81.2551L203.357 79.9031ZM199.201 68.278L201.713 67.8817C202.563 67.7477 203.334 67.9163 204.027 68.3876C204.722 68.8713 205.138 69.5882 205.289 70.5487C205.443 71.5216 205.268 72.3318 204.766 72.9915C204.252 73.6532 203.57 74.051 202.708 74.187L200.196 74.5833L199.201 68.278ZM221.276 77.0766C220.643 75.5482 220.112 73.4611 219.69 70.7888L218.919 65.8997C218.498 63.2274 218.359 61.0658 218.49 59.417L211.581 60.5067C212.205 62.0617 212.726 64.1631 213.144 66.8108L213.915 71.6998C214.33 74.3352 214.482 76.4949 214.367 78.1664L221.276 77.0766ZM230.857 75.5653C230.594 74.9379 230.301 73.9618 229.974 72.6123C229.648 71.2628 229.388 70.0164 229.207 68.8711L228.747 65.9524L229.116 65.8942L237.137 74.5746L242.556 73.7199L240.778 62.4517C240.357 59.7794 240.218 57.6178 240.349 55.9689L233.44 57.0587C233.687 57.6635 233.97 58.578 234.281 59.829C234.592 61.08 234.824 62.2298 234.989 63.2766L235.463 66.2814L235.106 66.3377L227.414 58.0598L221.162 58.9954C221.81 60.6224 222.343 62.7218 222.749 65.2956L223.52 70.1847C223.924 72.7462 224.064 74.9077 223.948 76.6551L230.857 75.5653ZM254.853 72.1461C256.59 71.8722 258.215 71.376 259.73 70.6575C261.247 69.9512 262.458 69.066 263.35 68.0039L262.169 60.5164L252.982 61.9655L253.316 64.3993C253.972 64.157 254.65 63.9744 255.327 63.8675L256.792 63.6364L257.043 65.225C256.468 65.8205 255.546 66.2184 254.253 66.4223C252.911 66.6341 251.803 66.4932 250.906 66.0038C250.008 65.5143 249.472 64.7533 249.306 63.7065C249.124 62.5489 249.497 61.556 250.415 60.7298C251.332 59.9035 252.696 59.3476 254.494 59.064C255.442 58.9144 256.408 58.8757 257.389 58.9355C258.372 59.0076 259.149 59.2131 259.734 59.5626L258.884 53.853C257.005 53.3796 254.777 53.3397 252.179 53.7496C249.371 54.1925 246.978 55.5039 245.414 57.3535C243.852 59.2154 243.133 61.7774 243.568 64.5359C244.005 67.3068 245.439 69.5165 247.435 70.8047C249.43 72.0928 252.045 72.5891 254.853 72.1461ZM85.7316 128.828C85.1129 127.386 84.5914 125.36 84.1776 122.737L83.896 120.952L84.1423 120.913C84.6289 121.997 85.4214 122.781 86.5219 123.276C87.6224 123.772 88.8324 123.922 90.1624 123.712C91.8988 123.438 93.1868 122.641 94.0491 121.306C94.9132 119.984 95.1721 118.264 94.838 116.146C94.1289 111.651 90.0148 110.053 85.9139 110.7L76.0373 112.258C76.6852 113.885 77.2183 115.985 77.6243 118.558L78.3955 123.447C78.7995 126.009 78.9385 128.171 78.8229 129.918L85.7316 128.828ZM86.9909 120.489C86.2151 120.611 85.4704 120.451 84.7711 120.018C84.0718 119.586 83.6286 118.937 83.4414 118.07L83.2161 116.641C83.9356 116.402 84.8495 116.194 85.9578 116.02C87.7312 115.74 88.956 116.544 89.1736 117.923C89.2766 118.576 89.1118 119.132 88.6937 119.602C88.2652 120.086 87.6929 120.378 86.9909 120.489ZM101.322 126.369C101.184 125.495 101.183 124.207 101.329 122.493L101.427 121.91L106.39 121.127L106.67 121.625C107.334 123.275 107.744 124.51 107.886 125.333L114.795 124.244C113.656 122.543 112.556 120.533 111.51 118.224L109.003 113.609C108.56 112.644 108.164 111.57 107.791 110.405C107.417 109.239 107.133 108.237 106.96 107.38L96.6772 109.003C96.7827 109.832 96.8292 110.847 96.8329 112.07C96.8366 113.294 96.769 114.466 96.6509 115.557L95.6734 120.722C95.3482 123.462 94.9188 125.7 94.389 127.463L101.322 126.369ZM102.258 116.377C102.364 115.691 102.414 114.648 102.429 113.22L102.761 113.167C103.175 114.427 103.558 115.414 103.92 116.114L105.413 118.694L101.632 119.29L102.258 116.377ZM123.546 123.229C126.144 122.82 128.211 122.077 129.716 120.981C131.21 119.887 131.926 118.348 131.639 116.526C131.398 114.999 130.491 113.968 129.312 113.535C128.135 113.115 126.614 112.913 125.149 112.993C122.193 113.055 119.303 113.536 119.084 112.145C119.019 111.738 119.281 111.394 119.851 111.09C120.422 110.785 121.182 110.564 122.142 110.413C123.411 110.213 124.708 110.197 126.021 110.356C127.333 110.515 128.403 110.814 129.227 111.239L128.221 104.86C127.286 104.692 126.159 104.592 124.829 104.562C123.499 104.532 122.213 104.621 120.994 104.813C119.295 105.081 117.823 105.516 116.594 106.126C115.353 106.738 114.403 107.519 113.762 108.491C113.12 109.463 112.885 110.535 113.072 111.717C113.291 113.109 114.034 114.14 115.022 114.641C116.012 115.154 117.27 115.448 118.585 115.467C121.835 115.586 125.347 114.805 125.545 116.061C125.669 116.849 124.623 117.418 122.419 117.765C120.904 118.004 119.354 118.022 117.782 117.815C116.197 117.611 114.838 117.156 113.68 116.455L114.505 123.128C115.764 123.346 117.272 123.462 119.03 123.487C120.788 123.513 122.29 123.428 123.546 123.229ZM142.338 120.265C144.937 119.855 147.003 119.113 148.509 118.017C150.002 116.923 150.719 115.384 150.431 113.561C150.19 112.034 149.283 111.004 148.104 110.571C146.927 110.151 145.406 109.949 143.942 110.029C140.986 110.091 138.096 110.572 137.876 109.181C137.812 108.774 138.073 108.43 138.644 108.125C139.214 107.821 139.975 107.6 140.935 107.449C142.204 107.248 143.501 107.233 144.814 107.392C146.126 107.551 147.195 107.849 148.02 108.275L147.014 101.896C146.078 101.728 144.952 101.628 143.622 101.598C142.292 101.568 141.006 101.657 139.787 101.849C138.087 102.117 136.616 102.551 135.387 103.162C134.146 103.774 133.196 104.555 132.554 105.527C131.912 106.499 131.678 107.571 131.864 108.753C132.084 110.145 132.827 111.176 133.815 111.677C134.804 112.189 136.062 112.483 137.378 112.503C140.628 112.621 144.139 111.84 144.338 113.096C144.462 113.884 143.416 114.453 141.211 114.801C139.697 115.04 138.147 115.057 136.575 114.851C134.99 114.647 133.631 114.192 132.473 113.491L133.298 120.164C134.557 120.382 136.064 120.497 137.823 120.523C139.581 120.549 141.082 120.463 142.338 120.265ZM157.519 110.967L156.65 106.737L160.562 108.492L161.322 106.593L157.259 105.24L160.709 102.701L159.396 101.103L156.211 103.953L155.74 99.686L153.696 100.009L154.561 104.214L150.653 102.483L149.921 104.403L153.959 105.76L150.535 108.295L151.818 109.872L155 106.997L155.475 111.289L157.519 110.967Z" fill="#EB4242"/>
<path d="M316.435 64.9366C316.616 66.0826 316.916 67.0752 317.344 67.9132C317.762 68.7439 318.3 69.3673 318.967 69.791C319.626 70.216 320.357 70.3607 321.171 70.2324C323.253 69.904 323.741 68.1683 323.858 66.2941C323.983 63.9612 323.529 61.4239 324.781 61.2353C325.525 61.118 326.049 62.0573 326.302 63.6582C326.44 64.533 326.453 65.4096 326.35 66.2954C326.248 67.1812 326.057 67.9017 325.788 68.473L329.392 67.9045C329.539 67.2986 329.627 66.5495 329.658 65.666C329.688 64.7738 329.64 63.9027 329.505 63.0454C329.021 59.7507 327.072 57.4581 324.707 57.867C319.922 58.6218 323.144 66.4873 321.106 66.8088C320.298 66.9183 319.76 65.8376 319.542 64.339C319.383 63.333 319.372 62.2948 319.505 61.2069C319.638 60.119 319.938 59.1752 320.393 58.3682L316.608 58.8128C316.426 59.6484 316.317 60.6608 316.282 61.8588C316.246 63.0567 316.3 64.0793 316.435 64.9366ZM318.973 79.3742C319.794 79.0116 321.027 78.7005 322.68 78.4397L328.183 77.5718L328.491 79.5226C328.623 80.3623 328.58 81.1133 328.372 81.7826L332.029 80.6409L330.368 70.1086L326.535 70.1393C326.942 70.7296 327.216 71.4396 327.347 72.2706L327.665 74.2914L322.163 75.1593C320.588 75.4077 319.321 75.5 318.352 75.4377L318.973 79.3742ZM320.581 91.2151C320.741 92.2298 320.961 93.1184 321.244 93.8897C321.526 94.6521 321.884 95.3847 322.31 96.0974L326.089 95.5013C325.561 95.0556 325.092 94.4662 324.701 93.7479C324.299 93.0223 324.03 92.2221 323.893 91.356C323.761 90.5162 323.764 89.7446 323.896 89.0425C324.026 88.3317 324.308 87.7313 324.75 87.2402C325.182 86.7416 325.753 86.4364 326.461 86.3247C327.467 86.166 328.347 86.4576 329.092 87.2008C329.837 87.944 330.313 88.9717 330.521 90.2926C330.629 90.9749 330.637 91.6549 330.54 92.3427C330.442 93.0306 330.265 93.6143 330.021 94.1101L333.519 93.6121C333.673 93.0499 333.756 92.3824 333.784 91.5978C333.813 90.8133 333.757 90.0062 333.629 89.1927C333.39 87.6793 332.823 86.2985 331.902 85.1796C331.446 84.615 330.924 84.1504 330.345 83.7756C329.177 83.0185 327.608 82.6831 325.929 82.948C321.607 83.6297 319.993 87.4885 320.581 91.2151ZM329.15 97.5736C330.101 98.5443 331.381 99.0417 332.676 98.8375C333.21 98.7533 333.615 98.537 333.883 98.1899C334.151 97.8428 334.252 97.4593 334.185 97.0394C334.127 96.672 333.947 96.3778 333.643 96.1567C333.329 95.9283 332.993 95.8468 332.617 95.9061C332.258 95.9627 331.988 96.1219 331.787 96.3866C331.586 96.6426 331.516 96.9405 331.567 97.2641C331.585 97.3779 331.619 97.4801 331.671 97.5795C331.355 97.5666 331.015 97.4588 330.64 97.24C330.265 97.0213 329.967 96.7814 329.754 96.5102L329.15 97.5736ZM324.211 112.581L328.168 112.037C327.591 111.617 327.111 110.734 326.925 109.553L326.308 105.643L326.486 105.579L328.885 108.338C330.461 110.376 331.811 111.203 333.342 110.961C334.418 110.792 335.22 110.19 335.746 109.148C336.272 108.105 336.416 106.863 336.187 105.411C336.029 104.405 335.784 103.538 335.446 102.812C335.105 102.076 334.619 101.265 333.985 100.37L330.573 100.909C331.186 101.439 331.709 102.083 332.143 102.848C332.576 103.605 332.848 104.36 332.968 105.121C333.082 105.847 333.061 106.451 332.914 106.941C332.757 107.423 332.46 107.702 332.023 107.771C331.717 107.82 331.393 107.754 331.051 107.575C330.709 107.396 330.255 107.019 329.69 106.454L325.079 101.434L322.516 101.839L324.211 112.581ZM326.167 124.985L330.125 124.442C329.548 124.022 329.068 123.138 328.881 121.957L328.265 118.047L328.443 117.983L330.842 120.743C332.418 122.78 333.768 123.607 335.299 123.366C336.375 123.196 337.176 122.594 337.702 121.552C338.228 120.51 338.373 119.268 338.144 117.816C337.985 116.81 337.741 115.943 337.402 115.216C337.062 114.481 336.576 113.67 335.941 112.775L332.53 113.313C333.142 113.844 333.665 114.488 334.1 115.253C334.533 116.009 334.804 116.764 334.924 117.526C335.039 118.252 335.018 118.856 334.871 119.345C334.714 119.827 334.417 120.107 333.98 120.176C333.674 120.224 333.349 120.159 333.007 119.98C332.665 119.8 332.211 119.424 331.647 118.858L327.036 113.839L324.473 114.243L326.167 124.985Z" fill="#EB4242"/>
<path d="M38.9061 108.714C39.0868 109.86 39.3869 110.853 39.8149 111.691C40.2328 112.521 40.7705 113.145 41.438 113.568C42.0968 113.993 42.8279 114.138 43.6414 114.01C45.7234 113.681 46.2117 111.946 46.3284 110.071C46.4536 107.739 45.9995 105.201 47.2519 105.013C47.9954 104.895 48.5201 105.835 48.7727 107.436C48.9106 108.31 48.9234 109.187 48.8211 110.073C48.7187 110.959 48.5275 111.679 48.259 112.25L51.8631 111.682C52.0096 111.076 52.0977 110.327 52.1287 109.443C52.1583 108.551 52.1105 107.68 51.9753 106.823C51.4915 103.528 49.5429 101.235 47.1778 101.644C42.3927 102.399 45.6148 110.265 43.5765 110.586C42.769 110.696 42.2309 109.615 42.0125 108.116C41.8538 107.11 41.8424 106.072 41.9757 104.984C42.1089 103.896 42.4083 102.953 42.8637 102.146L39.0787 102.59C38.8967 103.426 38.7875 104.438 38.7523 105.636C38.7171 106.834 38.7708 107.857 38.9061 108.714ZM41.4434 123.152C42.2649 122.789 43.4979 122.478 45.1512 122.217L50.6536 121.349L50.9613 123.3C51.0938 124.14 51.0508 124.891 50.8426 125.56L54.4998 124.418L52.8384 113.886L49.006 113.917C49.4129 114.507 49.6863 115.217 49.8174 116.048L50.1361 118.069L44.6337 118.937C43.0591 119.185 41.7916 119.277 40.8225 119.215L41.4434 123.152ZM43.0512 134.992C43.2113 136.007 43.4321 136.896 43.7152 137.667C43.9968 138.429 44.3544 139.162 44.7807 139.875L48.5597 139.279C48.0322 138.833 47.5626 138.244 47.1714 137.525C46.7701 136.8 46.5004 135.999 46.3638 135.133C46.2313 134.294 46.2351 133.522 46.3664 132.82C46.4964 132.109 46.7782 131.509 47.2207 131.018C47.6531 130.519 48.2236 130.214 48.9322 130.102C49.9382 129.943 50.818 130.235 51.5628 130.978C52.3076 131.721 52.7835 132.749 52.9919 134.07C53.0995 134.752 53.1081 135.432 53.0104 136.12C52.9127 136.808 52.7358 137.392 52.4913 137.887L55.99 137.389C56.1434 136.827 56.2263 136.16 56.255 135.375C56.2837 134.591 56.2281 133.784 56.0997 132.97C55.861 131.457 55.2936 130.076 54.3729 128.957C53.9163 128.392 53.3947 127.928 52.8156 127.553C51.6472 126.796 50.0791 126.46 48.3996 126.725C44.0781 127.407 42.4634 131.266 43.0512 134.992ZM51.6211 141.351C52.5721 142.322 53.852 142.819 55.1466 142.615C55.6803 142.531 56.0854 142.314 56.3534 141.967C56.6214 141.62 56.7223 141.237 56.6561 140.817C56.5981 140.449 56.4173 140.155 56.1134 139.934C55.7995 139.706 55.4638 139.624 55.0877 139.683C54.729 139.74 54.4583 139.899 54.258 140.164C54.0563 140.42 53.9867 140.718 54.0378 141.041C54.0557 141.155 54.0898 141.257 54.1413 141.357C53.8255 141.344 53.4857 141.236 53.1105 141.017C52.7353 140.799 52.4375 140.559 52.2244 140.288L51.6211 141.351ZM46.6814 156.358L50.6391 155.815C50.0619 155.395 49.5818 154.511 49.3955 153.33L48.7787 149.42L48.9569 149.356L51.3556 152.116C52.9322 154.153 54.282 154.98 55.8128 154.739C56.8888 154.569 57.6905 153.967 58.2164 152.925C58.7423 151.883 58.8871 150.641 58.658 149.189C58.4994 148.183 58.255 147.316 57.9163 146.589C57.5761 145.854 57.0896 145.043 56.4553 144.148L53.0437 144.686C53.6564 145.217 54.1793 145.861 54.6138 146.626C55.0469 147.382 55.3184 148.137 55.4385 148.898C55.553 149.625 55.5318 150.229 55.3848 150.718C55.2277 151.2 54.9312 151.48 54.4938 151.549C54.1876 151.597 53.8635 151.532 53.5215 151.353C53.1794 151.173 52.7255 150.797 52.1612 150.231L47.5501 145.212L44.987 145.616L46.6814 156.358ZM48.6381 168.763L52.5958 168.219C52.0185 167.799 51.5385 166.916 51.3522 165.735L50.7354 161.824L50.9136 161.76L53.3123 164.52C54.8889 166.558 56.2386 167.385 57.7695 167.143C58.8455 166.973 59.6471 166.372 60.1731 165.329C60.699 164.287 60.8438 163.045 60.6147 161.593C60.456 160.587 60.2117 159.72 59.8729 158.993C59.5328 158.258 59.0463 157.447 58.412 156.552L55.0003 157.09C55.613 157.621 56.136 158.265 56.5705 159.03C57.0036 159.787 57.2751 160.542 57.3952 161.303C57.5097 162.029 57.4884 162.633 57.3415 163.122C57.1844 163.604 56.8879 163.884 56.4505 163.953C56.1443 164.002 55.8202 163.936 55.4781 163.757C55.1361 163.578 54.6822 163.201 54.1178 162.636L49.5067 157.616L46.9436 158.02L48.6381 168.763Z" fill="#EB4242"/>
<path d="M86.8357 179.848C86.8081 179.559 86.892 179.068 87.0815 178.374L87.2181 177.839L91.1022 177.226L91.3971 177.694C91.781 178.309 92.012 178.75 92.0844 179.02L94.0789 178.705C93.7545 178.278 93.3397 177.656 92.8294 176.846L90.2886 172.788C90.0406 172.391 89.8016 171.747 89.558 170.847L86.7354 171.293C86.7844 172.134 86.7444 172.827 86.6145 173.368L85.4578 178.009C85.2536 178.836 85.0436 179.551 84.8295 180.164L86.8357 179.848ZM88.1058 173.993C88.1653 173.727 88.2363 173.267 88.3303 172.613L88.4353 172.596C88.7032 173.158 88.9112 173.567 89.0604 173.831L90.425 175.964L87.474 176.43L88.1058 173.993ZM97.288 178.36C97.9003 178.264 98.3945 178.024 98.7764 177.641C99.1524 177.259 99.4048 176.813 99.5218 176.305L99.656 176.283L99.7121 176.639C99.7737 177.03 99.7761 177.424 99.7242 177.815L101.672 177.507C101.472 176.959 101.309 176.304 101.186 175.528L100.5 171.177C100.378 170.402 100.331 169.728 100.353 169.145L98.405 169.452C98.6051 170 98.7682 170.656 98.8906 171.431L99.1886 173.321L99.0662 173.34C98.8063 172.867 98.4279 172.514 97.9368 172.281C97.4399 172.049 96.8853 171.981 96.273 172.077C94.509 172.338 93.6217 173.912 93.9287 175.669C94.0731 176.584 94.4484 177.296 95.0603 177.803C95.6664 178.311 96.4073 178.499 97.288 178.36ZM97.7627 177.012C97.1737 177.105 96.6611 177.001 96.2259 176.705C95.7907 176.409 95.5323 175.983 95.445 175.429C95.3576 174.875 95.4715 174.385 95.7945 173.97C96.1174 173.554 96.5739 173.303 97.1629 173.21C97.7228 173.122 98.212 173.23 98.6364 173.533C99.0618 173.843 99.3134 174.263 99.399 174.806C99.4753 175.29 99.3577 175.757 99.0461 176.206C98.7345 176.656 98.305 176.927 97.7627 177.012ZM105.253 176.943C105.078 176.63 104.929 176.061 104.799 175.239L104.61 174.044C104.435 173.121 105.044 172.021 106.142 171.859C107.163 171.698 107.772 172.26 107.944 173.35L108.156 174.698C108.275 175.45 108.326 176.039 108.309 176.461L110.21 176.161C110.01 175.612 109.857 175.021 109.757 174.385L109.57 173.201C109.507 172.727 109.621 172.273 109.911 171.839C110.196 171.411 110.598 171.156 111.111 171.076C112.132 170.915 112.74 171.476 112.912 172.567L113.125 173.914C113.223 174.538 113.257 175.13 113.219 175.686L115.179 175.377C114.989 174.893 114.831 174.272 114.712 173.514L114.461 171.928C114.196 170.248 113.215 169.405 111.582 169.662C110.351 169.857 109.543 170.606 109.315 171.735L109.21 171.752C108.731 170.686 107.873 170.248 106.63 170.443C105.447 170.63 104.73 171.317 104.492 172.496L104.369 172.516L104.315 172.171C104.237 171.676 104.245 171.274 104.334 170.967L102.351 171.28C102.541 171.764 102.695 172.361 102.807 173.067L103.198 175.551C103.295 176.164 103.325 176.733 103.293 177.252L105.253 176.943ZM116.545 168.049C117.111 167.96 117.432 167.532 117.355 167.042C117.275 166.535 116.838 166.227 116.272 166.317C115.992 166.361 115.777 166.478 115.629 166.675C115.481 166.872 115.425 167.09 115.465 167.34C115.542 167.83 115.985 168.137 116.545 168.049ZM118.631 174.832C118.431 174.356 118.267 173.7 118.134 172.855L117.69 170.038C117.613 169.554 117.582 169.164 117.59 168.876C117.429 169.027 117.147 169.137 116.751 169.2C116.354 169.262 116.041 169.246 115.811 169.157C115.907 169.387 115.997 169.767 116.08 170.292L116.524 173.109C116.658 173.954 116.704 174.628 116.66 175.143L118.631 174.832ZM123.374 174.246C123.899 174.163 124.327 174 124.655 173.763L124.45 172.468C124.215 172.678 123.895 172.813 123.487 172.877C122.606 173.016 122.091 172.631 121.947 171.715L121.57 169.324L123.862 168.963L123.696 167.913L121.404 168.274L121.027 165.883L119.575 166.531L119.888 168.514L118.552 168.724L118.718 169.774L120.053 169.563L120.511 172.468C120.741 173.92 121.694 174.511 123.374 174.246ZM128.22 173.481C129.089 173.344 129.749 173.055 130.2 172.619C130.651 172.183 130.83 171.683 130.741 171.123C130.585 170.132 129.75 169.839 128.855 169.777C127.639 169.682 126.294 169.948 126.189 169.283C126.122 168.857 126.595 168.52 127.441 168.386C127.872 168.318 128.313 168.308 128.756 168.352C129.199 168.396 129.564 168.47 129.848 168.568L129.648 167.303C129.294 167.215 128.891 167.159 128.44 167.141C127.988 167.122 127.561 167.142 127.159 167.205C126.319 167.338 125.687 167.617 125.26 168.049C124.832 168.481 124.656 168.957 124.736 169.464C124.884 170.445 125.718 170.726 126.616 170.776C127.82 170.867 129.166 170.612 129.281 171.341C129.356 171.814 128.909 172.123 127.935 172.277C127.497 172.346 126.996 172.353 126.431 172.293C125.866 172.233 125.377 172.13 124.978 171.984L125.196 173.366C125.571 173.469 126.059 173.535 126.654 173.555C127.249 173.575 127.771 173.552 128.22 173.481ZM140.038 171.366C141.276 170.687 141.844 169.479 141.634 168.144C141.494 167.257 141.037 166.522 140.353 166.051C139.67 165.585 138.694 165.386 137.615 165.556C136.525 165.728 135.663 166.216 135.157 166.87C134.651 167.53 134.437 168.37 134.577 169.257C134.717 170.143 135.179 170.877 135.862 171.343C136.205 171.582 136.607 171.746 137.081 171.832C137.55 171.926 138.053 171.93 138.595 171.845C139.138 171.759 139.615 171.6 140.038 171.366ZM138.418 170.719C137.84 170.81 137.332 170.693 136.893 170.374C136.454 170.055 136.186 169.607 136.093 169.018C136 168.429 136.116 167.914 136.436 167.475C136.755 167.036 137.204 166.774 137.781 166.683C138.364 166.591 138.878 166.702 139.317 167.021C139.756 167.34 140.024 167.794 140.117 168.383C140.21 168.972 140.094 169.486 139.775 169.925C139.455 170.364 139.001 170.627 138.418 170.719ZM145.376 170.614C145.201 170.3 145.052 169.732 144.922 168.91L144.734 167.714C144.656 167.225 144.774 166.758 145.08 166.309C145.386 165.866 145.817 165.601 146.359 165.516C147.415 165.349 148.142 165.868 148.318 166.982L148.53 168.329C148.629 168.953 148.662 169.545 148.625 170.101L150.584 169.792C150.394 169.308 150.237 168.687 150.117 167.929L149.867 166.343C149.733 165.497 149.402 164.874 148.869 164.486C148.335 164.098 147.646 163.974 146.812 164.105C145.599 164.297 144.848 165.031 144.615 166.167L144.493 166.187L144.438 165.842C144.36 165.347 144.368 164.945 144.458 164.638L142.475 164.951C142.665 165.435 142.819 166.032 142.93 166.738L143.322 169.222C143.418 169.835 143.448 170.404 143.417 170.923L145.376 170.614ZM155.712 169.145C156.243 169.061 156.771 168.924 157.296 168.727C157.821 168.531 158.208 168.333 158.467 168.118L158.242 166.845C158.05 167.108 157.74 167.336 157.306 167.542C156.872 167.748 156.405 167.894 155.898 167.974C155.163 168.09 154.504 168.002 153.919 167.706C153.334 167.41 152.986 166.981 152.871 166.407L152.934 166.349C153.711 166.693 154.616 166.783 155.648 166.62C157.445 166.337 158.237 165.674 158.052 164.502C157.961 163.925 157.606 163.455 157.024 163.14C156.443 162.831 155.548 162.727 154.493 162.894C153.787 163.005 153.179 163.244 152.68 163.604C151.671 164.331 151.233 165.416 151.419 166.6C151.567 167.533 152.036 168.236 152.827 168.703C153.613 169.177 154.575 169.324 155.712 169.145ZM154.96 165.856C154.132 165.987 153.412 165.933 152.807 165.694C152.813 165.245 152.987 164.865 153.332 164.553C153.671 164.243 154.09 164.051 154.579 163.974C155.098 163.892 155.546 163.923 155.921 164.067C156.291 164.212 156.498 164.43 156.543 164.716C156.594 165.037 156.417 165.316 156.092 165.492C155.767 165.669 155.397 165.787 154.96 165.856ZM166.501 167.443C167.58 167.273 168.418 166.901 169.016 166.335C169.614 165.768 169.849 165.098 169.726 164.322C169.619 163.64 169.264 163.134 168.792 162.873C168.315 162.614 167.711 162.458 167.082 162.414C165.518 162.272 163.817 162.517 163.674 161.571C163.581 160.982 164.259 160.546 165.455 160.358C166.026 160.268 166.592 160.256 167.146 160.318C167.701 160.386 168.162 160.504 168.528 160.668L168.244 158.866C167.852 158.766 167.381 158.697 166.827 158.671C166.273 158.645 165.716 158.679 165.156 158.767C164.136 158.928 163.328 159.301 162.733 159.885C162.138 160.474 161.897 161.14 162.013 161.881C162.124 162.581 162.479 163.086 162.952 163.358C163.425 163.63 164.03 163.792 164.659 163.836C166.209 163.962 167.902 163.743 168.041 164.63C168.092 164.95 167.949 165.218 167.618 165.432C167.281 165.646 166.809 165.798 166.209 165.893C165.585 165.991 164.922 166 164.221 165.914C163.521 165.833 162.908 165.655 162.379 165.373L162.617 167.26C163.147 167.398 163.788 167.488 164.546 167.518C165.299 167.555 165.953 167.529 166.501 167.443ZM174.216 166.226C175.429 166.034 176.181 165.306 176.415 164.175L176.538 164.156L176.59 164.489C176.667 164.973 176.664 165.373 176.583 165.691L178.566 165.378C178.358 164.861 178.204 164.264 178.099 163.593L177.707 161.109C177.616 160.531 177.586 159.962 177.624 159.406L175.664 159.716C175.831 160.054 175.98 160.622 176.106 161.421L176.295 162.616C176.372 163.106 176.255 163.573 175.948 164.016C175.642 164.465 175.218 164.729 174.681 164.814C173.614 164.982 172.898 164.461 172.724 163.359L172.51 162C172.406 161.341 172.372 160.749 172.404 160.23L170.456 160.537C170.644 161.045 170.796 161.667 170.912 162.402L171.162 163.988C171.296 164.839 171.632 165.456 172.166 165.844C172.699 166.232 173.382 166.357 174.216 166.226ZM182.518 167.205C182.3 166.624 182.136 165.963 182.02 165.228L181.722 163.338L181.856 163.317C182.116 163.79 182.495 164.143 182.98 164.377C183.465 164.611 184.014 164.68 184.626 164.584C186.402 164.322 187.309 162.756 187 160.988C186.855 160.072 186.48 159.36 185.868 158.853C185.256 158.346 184.515 158.158 183.635 158.297C183.022 158.393 182.528 158.633 182.14 159.017C181.753 159.401 181.506 159.846 181.389 160.355L181.255 160.376L181.199 160.02C181.143 159.664 181.141 159.276 181.187 158.844L179.239 159.152C179.429 159.636 179.593 160.297 179.725 161.131L180.411 165.482C180.542 166.316 180.59 166.996 180.558 167.515L182.518 167.205ZM183.76 163.447C183.212 163.534 182.72 163.408 182.285 163.076C181.85 162.744 181.594 162.336 181.518 161.852C181.432 161.31 181.542 160.832 181.852 160.407C182.162 159.988 182.594 159.734 183.16 159.645C183.749 159.552 184.255 159.651 184.69 159.947C185.119 160.244 185.379 160.676 185.466 161.23C185.553 161.784 185.439 162.268 185.121 162.683C184.798 163.098 184.349 163.354 183.76 163.447ZM192.278 163.377C192.808 163.293 193.337 163.156 193.862 162.96C194.387 162.763 194.774 162.565 195.033 162.35L194.808 161.077C194.616 161.34 194.306 161.569 193.872 161.774C193.438 161.98 192.971 162.126 192.464 162.206C191.729 162.322 191.07 162.234 190.485 161.938C189.9 161.642 189.552 161.213 189.437 160.639L189.5 160.581C190.277 160.925 191.182 161.015 192.214 160.853C194.011 160.569 194.803 159.906 194.618 158.734C194.527 158.157 194.172 157.687 193.59 157.372C193.009 157.063 192.114 156.959 191.059 157.126C190.353 157.237 189.745 157.476 189.246 157.836C188.237 158.563 187.799 159.648 187.985 160.832C188.133 161.765 188.602 162.468 189.393 162.935C190.179 163.409 191.141 163.556 192.278 163.377ZM191.526 160.088C190.698 160.219 189.978 160.165 189.373 159.926C189.379 159.477 189.553 159.097 189.898 158.785C190.237 158.475 190.656 158.283 191.145 158.206C191.664 158.124 192.112 158.155 192.487 158.299C192.857 158.444 193.064 158.662 193.109 158.948C193.16 159.269 192.983 159.548 192.658 159.725C192.333 159.901 191.963 160.019 191.526 160.088ZM198.516 162.231C198.357 161.94 198.226 161.488 198.128 160.87L197.914 159.511C197.823 158.934 197.95 158.412 198.293 157.933C198.636 157.455 199.076 157.176 199.607 157.092C200.05 157.023 200.54 157.101 200.806 157.268L200.572 155.787C200.299 155.722 199.993 155.717 199.655 155.77C198.576 155.94 197.904 156.793 197.806 158.106L197.695 158.123L197.612 157.598C197.575 157.365 197.561 157.122 197.568 156.864C197.575 156.606 197.603 156.404 197.656 156.247L195.627 156.567C195.816 157.087 195.964 157.685 196.07 158.356L196.464 160.852C196.556 161.435 196.591 161.997 196.569 162.539L198.516 162.231ZM205.061 161.36C205.93 161.223 206.59 160.934 207.041 160.498C207.492 160.062 207.671 159.562 207.582 159.002C207.426 158.011 206.591 157.718 205.696 157.656C204.48 157.561 203.135 157.827 203.03 157.162C202.963 156.736 203.436 156.399 204.282 156.265C204.713 156.197 205.154 156.188 205.597 156.231C206.04 156.275 206.405 156.349 206.689 156.447L206.489 155.182C206.135 155.094 205.732 155.038 205.28 155.02C204.829 155.001 204.402 155.021 204 155.085C203.16 155.217 202.528 155.496 202.101 155.928C201.673 156.36 201.497 156.836 201.577 157.344C201.725 158.324 202.559 158.605 203.457 158.655C204.661 158.746 206.007 158.492 206.122 159.221C206.197 159.693 205.75 160.003 204.776 160.156C204.338 160.225 203.837 160.232 203.272 160.172C202.707 160.112 202.218 160.01 201.819 159.863L202.037 161.246C202.412 161.348 202.9 161.414 203.495 161.434C204.09 161.454 204.612 161.431 205.061 161.36ZM212.334 160.213C212.859 160.13 213.287 159.967 213.614 159.73L213.41 158.436C213.174 158.646 212.855 158.78 212.447 158.845C211.566 158.983 211.051 158.598 210.906 157.683L210.529 155.292L212.821 154.93L212.656 153.881L210.364 154.242L209.987 151.851L208.535 152.498L208.847 154.481L207.512 154.692L207.678 155.742L209.013 155.531L209.471 158.435C209.7 159.887 210.654 160.478 212.334 160.213ZM216.871 159.497C218.055 159.311 218.796 158.704 218.99 157.962L219.1 157.944L219.117 158.049C219.18 158.452 219.182 158.762 219.115 158.982L220.981 158.688C220.88 158.501 220.795 158.269 220.729 157.998C220.656 157.729 220.581 157.328 220.498 156.803L220.191 154.856C220.059 154.016 219.611 153.453 218.952 153.216C218.287 152.98 217.535 152.949 216.62 153.094C216.194 153.161 215.734 153.275 215.246 153.442C214.759 153.609 214.4 153.761 214.165 153.899L214.34 155.008C214.489 154.853 214.767 154.683 215.174 154.499C215.582 154.321 216.01 154.194 216.454 154.124C217.719 153.925 218.531 154.334 218.696 155.378L218.827 156.212L218.693 156.233C218.495 155.924 218.177 155.687 217.744 155.522C217.306 155.359 216.803 155.318 216.238 155.407C215.456 155.531 214.874 155.82 214.491 156.269C214.102 156.719 213.957 157.244 214.052 157.844C214.147 158.445 214.446 158.9 214.949 159.209C215.453 159.524 216.095 159.62 216.871 159.497ZM217.395 158.387C216.888 158.467 216.47 158.431 216.147 158.279C215.825 158.132 215.638 157.899 215.59 157.59C215.491 156.966 216.042 156.442 217.063 156.281C217.564 156.202 217.995 156.242 218.35 156.407C218.705 156.572 218.907 156.792 218.949 157.06C219.053 157.719 218.451 158.22 217.395 158.387ZM224.457 158.14C224.297 157.848 224.166 157.396 224.069 156.778L223.854 155.419C223.763 154.842 223.89 154.32 224.233 153.841C224.576 153.363 225.016 153.084 225.547 153.001C225.99 152.931 226.48 153.009 226.746 153.176L226.512 151.695C226.239 151.63 225.933 151.625 225.595 151.678C224.516 151.848 223.844 152.701 223.746 154.014L223.635 154.031L223.553 153.507C223.516 153.273 223.501 153.03 223.508 152.772C223.516 152.514 223.543 152.313 223.596 152.155L221.567 152.475C221.756 152.995 221.905 153.593 222.01 154.264L222.404 156.76C222.496 157.343 222.531 157.905 222.509 158.447L224.457 158.14Z" fill="#EB4242"/>
</svg>
