<svg width="540" height="44" viewBox="0 0 540 44" fill="none" xmlns="http://www.w3.org/2000/svg">
<path d="M30.25 34.7266C31.4453 34.7266 32.6172 34.3984 33.7656 33.7656C34.8906 33.1328 35.6875 32.3594 36.1562 31.4453L36.0156 17.0547C34.7266 20.3125 32.5703 21.9531 29.5469 21.9531C28.2578 21.9531 27.0859 21.3438 26.1484 20.5703C24.7891 19.4688 23.3125 18.0625 20.8984 18.0625H20.8047V17.7812H21.2266C23.6875 17.7812 25.8672 17.4531 27.7656 16.8203C29.6641 16.1875 31.1875 15.2031 32.3359 13.8438C33.4844 12.5078 34.0469 10.8906 34.0469 8.99219C34.0469 7.14062 33.4609 5.57031 32.2891 4.23438C29.9219 1.60938 25.9375 0.390625 20.9453 0.390625H0.554688C1.28125 3.60156 1.65625 7.65625 1.65625 12.5547V21.8594C1.65625 26.7344 1.28125 30.7891 0.554688 34H13.7031C12.9766 30.7891 12.6016 26.7344 12.6016 21.8594V19.8906C13.0234 19.7266 13.7031 19.6562 14.6641 19.6562C18.4609 19.6562 19.7031 22.6328 20.9453 25.9375C22.4453 30.0625 23.8984 34.75 30.25 34.7266ZM12.6016 10.7734H19.0234C21.2969 10.7734 22.9141 11.8516 22.9141 13.5156C22.9141 15.2969 21.3203 16.2812 18.7891 16.2812H12.6016V10.7734ZM53.2891 34.6797C58.5391 34.6797 62.7344 33.2734 65.2656 30.9297C67.7734 28.5859 69.0859 25.5391 69.0859 22C69.0859 18.4609 67.7734 15.4141 65.2656 13.0703C62.7344 10.7266 58.5625 9.32031 53.3359 9.32031C48.0859 9.32031 43.8906 10.7266 41.3828 13.0703C38.8516 15.4141 37.5391 18.4609 37.5391 22C37.5391 25.5391 38.8516 28.5859 41.3828 30.9297C43.8906 33.2734 48.0625 34.6797 53.2891 34.6797ZM53.2891 27.6719C51.625 27.6719 50.2891 27.1328 49.2578 26.0547C48.2266 25 47.7109 23.6406 47.7109 22C47.7109 20.3594 48.2266 19 49.2578 17.9219C50.2891 16.8672 51.625 16.3281 53.2891 16.3281C55 16.3281 56.3594 16.8672 57.3906 17.9219C58.3984 18.9766 58.9141 20.3359 58.9141 22C58.9141 23.6641 58.3984 25.0234 57.3906 26.0781C56.3594 27.1328 55 27.6719 53.2891 27.6719ZM84.6719 34.6797C89.5234 34.6797 92.7578 32.4531 94.375 28H95.0078V28.5859C95.0078 30.5781 94.5625 32.3828 93.6953 34H107.055C106.281 30.8594 105.906 27.3203 105.906 23.3828V19.4453C105.906 17.5 106 15.8359 106.188 14.5C106.352 13.1641 106.656 11.6641 107.055 10H93.9062C94.2812 10.9609 94.5625 12.4609 94.75 14.5234C94.9141 16.6094 95.0078 18.4141 95.0078 19.9844V22.2812C95.0078 23.8281 94.5156 25.1406 93.5078 26.1953C92.5 27.2734 91.1875 27.8125 89.5703 27.8125C88 27.8125 86.8047 27.2969 85.9375 26.2656C85.0703 25.2578 84.625 23.9219 84.625 22.2812V20.0312C84.625 16.4219 84.9766 13.0703 85.6797 10H72.5781C73.3047 13.2109 73.6797 16.9375 73.6797 21.1797V23.7344C73.6797 27.1328 74.6172 29.8047 76.5156 31.75C78.4141 33.6953 81.1328 34.6797 84.6719 34.6797ZM124.938 34C124.562 33.0859 124.281 31.5625 124.094 29.4766C123.906 27.3906 123.812 25.5859 123.812 24.0625L123.766 21.7656C123.766 20.1953 124.281 18.8828 125.289 17.8281C126.297 16.7734 127.633 16.2344 129.25 16.2344C132.367 16.2344 134.195 18.4609 134.195 21.7656V23.9688C134.195 27.4375 133.82 30.7891 133.094 34H146.242C145.469 30.8594 145.094 27.1328 145.094 22.8203V20.2656C145.094 16.8672 144.156 14.1953 142.258 12.25C140.359 10.3047 137.641 9.32031 134.102 9.32031C129.344 9.32031 126.109 11.5703 124.398 16.0469H123.812V15.4141C123.812 13.3281 124.258 11.5234 125.125 10H111.766C112.492 13.0234 112.867 16.5625 112.867 20.6172V24.5547C112.867 26.5469 112.773 28.2109 112.609 29.5469C112.445 30.9062 112.164 32.3828 111.766 34H124.938ZM160.609 34.6797C165.648 34.6797 169.07 32.1016 170.641 28.0938H171.32V28.6797C171.32 29.6875 171.25 30.5547 171.109 31.2812C170.945 32.0078 170.664 32.9219 170.219 34H183.32C182.594 30.7891 182.219 26.7344 182.219 21.8594V12.5547C182.219 7.65625 182.594 3.60156 183.32 0.390625H170.219C170.945 3.60156 171.32 7.65625 171.32 12.5547V16H170.688C169.188 11.9453 165.672 9.32031 160.609 9.32031C156.883 9.32031 153.883 10.7266 152.102 13.0703C150.32 15.4141 149.383 18.4609 149.383 22C149.383 28.9375 152.969 34.6797 160.609 34.6797ZM165.414 27.8594C163.609 27.8594 162.156 27.3203 161.078 26.2188C160 25.1172 159.461 23.7109 159.461 22C159.461 20.2891 160 18.8828 161.078 17.7812C162.156 16.6797 163.609 16.1406 165.414 16.1406C167.172 16.1406 168.555 16.7031 169.609 17.8047C170.664 18.9062 171.18 20.3125 171.18 22C171.18 23.6172 170.641 25 169.586 26.1484C168.531 27.2969 167.125 27.8594 165.414 27.8594ZM226 34V23.5469H217.656V6.10938C217.656 3.46094 217.773 1.53906 217.984 0.390625H211.492C210.203 1.79688 208.539 2.94531 206.523 3.85938C204.508 4.77344 202.375 5.42969 200.125 5.78125V15.4609C203.336 15.3203 206.523 14.5938 209.688 13.3047V23.5469H199.352V34H226ZM257.688 34.6797C259.445 34.6797 261.438 34.5391 263.664 34.2812C265.891 34 267.555 33.6719 268.633 33.2734V25.0234C267.531 25.7031 266.148 26.2656 264.508 26.6875C262.867 27.1094 261.32 27.3203 259.891 27.3203C254.266 27.3203 251.055 25.3516 251.055 22C251.055 18.625 254.125 16.6797 259.188 16.6797C260.664 16.6797 262.164 16.8906 263.688 17.3359C265.211 17.7812 266.383 18.2969 267.203 18.8828L267.672 10.9141C266.641 10.4688 265.047 10.0938 262.914 9.78906C260.758 9.48438 259.023 9.32031 257.688 9.32031C251.781 9.32031 247.258 10.7266 244.656 13.0703C242.031 15.4375 240.789 18.4375 240.789 22C240.789 25.5625 242.031 28.5625 244.656 30.9062C247.258 33.2734 251.781 34.6797 257.688 34.6797ZM286.68 34.6797C291.93 34.6797 296.125 33.2734 298.656 30.9297C301.164 28.5859 302.477 25.5391 302.477 22C302.477 18.4609 301.164 15.4141 298.656 13.0703C296.125 10.7266 291.953 9.32031 286.727 9.32031C281.477 9.32031 277.281 10.7266 274.773 13.0703C272.242 15.4141 270.93 18.4609 270.93 22C270.93 25.5391 272.242 28.5859 274.773 30.9297C277.281 33.2734 281.453 34.6797 286.68 34.6797ZM286.68 27.6719C285.016 27.6719 283.68 27.1328 282.648 26.0547C281.617 25 281.102 23.6406 281.102 22C281.102 20.3594 281.617 19 282.648 17.9219C283.68 16.8672 285.016 16.3281 286.68 16.3281C288.391 16.3281 289.75 16.8672 290.781 17.9219C291.789 18.9766 292.305 20.3359 292.305 22C292.305 23.6641 291.789 25.0234 290.781 26.0781C289.75 27.1328 288.391 27.6719 286.68 27.6719ZM319.141 34C318.742 33.0625 318.461 31.5391 318.273 29.4297C318.062 27.3438 317.969 25.5391 317.969 24.0625V21.7656C317.969 20.1484 318.414 18.8359 319.281 17.7812C320.148 16.75 321.391 16.2344 322.961 16.2344C326.055 16.2344 327.438 18.4141 327.438 21.7656V23.9688C327.438 26.4062 327.391 28.3516 327.32 29.7812C327.227 31.2344 327.016 32.6406 326.711 34H339.438C338.711 30.7891 338.336 27.2969 338.336 23.5469V21.5781C338.359 20.1484 338.852 18.8828 339.766 17.8281C340.68 16.7734 341.852 16.2344 343.328 16.2344C346.352 16.2344 347.734 18.4141 347.734 21.7656V23.9688C347.734 27.6484 347.359 30.9766 346.633 34H359.781C359.055 30.9766 358.68 27.25 358.68 22.8203V20.2656C358.68 13.7266 355.75 9.32031 348.555 9.32031C343.422 9.32031 339.789 11.8516 338.289 16.0469H337.703C336.438 11.8281 333.695 9.39062 328.258 9.32031C323.523 9.32031 320.312 11.5703 318.602 16.0469H318.016V15.4141C318.016 13.3281 318.461 11.5234 319.328 10H305.969C306.695 13.0234 307.07 16.5625 307.07 20.6172V24.5547C307.07 26.5469 306.977 28.2109 306.812 29.5469C306.648 30.9062 306.367 32.3828 305.969 34H319.141ZM377.453 43.6094C377.102 42.1328 376.844 40.2812 376.633 38.0312C376.422 35.7578 376.328 33.5781 376.328 31.4453V28H376.961C378.461 32.0547 381.977 34.6797 387.039 34.6797C390.766 34.6797 393.742 33.2734 395.547 30.9297C397.328 28.6094 398.266 25.5859 398.266 22.0469C398.266 18.5078 397.328 15.4375 395.547 13.0938C393.742 10.75 390.766 9.32031 387.039 9.32031C382 9.32031 378.625 11.8984 376.961 15.9062H376.328V15.3203C376.328 14.3125 376.398 13.4453 376.562 12.7188C376.703 11.9922 376.984 11.0781 377.383 10H364.281C364.633 11.4766 364.938 13.3281 365.148 15.5547C365.359 17.7812 365.453 19.9844 365.453 22.1406V31.4453C365.453 33.6016 365.359 35.8047 365.148 38.0547C364.938 40.2812 364.633 42.1328 364.281 43.6094H377.453ZM382.234 27.8594C380.523 27.8594 379.141 27.2969 378.086 26.1484C377.031 25 376.492 23.6406 376.492 22.0469C376.492 20.3359 377.008 18.9062 378.062 17.8047C379.094 16.7031 380.477 16.1406 382.234 16.1406C384.039 16.1406 385.469 16.6797 386.57 17.7812C387.648 18.8828 388.188 20.3125 388.188 22.0469C388.188 23.7344 387.648 25.1172 386.57 26.2188C385.469 27.3203 384.039 27.8594 382.234 27.8594ZM414.555 34C413.852 30.6953 413.5 26.6406 413.5 21.8594V12.5547C413.5 7.75 413.852 3.69531 414.555 0.390625H401.453C401.805 1.89062 402.086 3.76562 402.297 6.01562C402.508 8.28906 402.625 10.4688 402.625 12.5547V21.8594C402.625 23.9453 402.508 26.125 402.297 28.375C402.086 30.625 401.805 32.5 401.453 34H414.555ZM434.5 34.6797C436.867 34.6797 439.258 34.4688 441.648 34.0703C444.039 33.6484 445.867 33.1094 447.156 32.4531L446.969 24.5547C446.078 25.5391 444.742 26.3125 442.961 26.875C441.18 27.4375 439.305 27.7188 437.359 27.7188C434.828 27.7188 432.625 27.1562 430.75 26.0547C428.852 24.9531 427.82 23.6641 427.633 22.1875L428.008 21.9531C430.562 23.8984 433.727 24.5547 437.852 24.5547C444.109 24.5547 447.695 22.3516 447.695 17.9219C447.695 16.1172 447.133 14.5 445.75 13C443.781 10.8438 439.867 9.34375 433.773 9.32031C428.734 9.32031 424.586 10.75 422.055 13.0703C419.5 15.4141 418.117 18.5078 418.117 22C418.117 25.7969 419.594 28.8672 422.57 31.1875C425.547 33.5078 429.508 34.6797 434.5 34.6797ZM433.68 21.8125C431.172 21.8125 429.273 21.2031 427.961 19.9844C428.172 18.6484 428.781 17.6406 429.742 16.9375C430.703 16.2578 431.828 15.9062 433.094 15.9062C435.93 15.9062 437.711 17.125 437.711 19.0234C437.711 19.8438 437.312 20.5 436.516 21.0156C435.719 21.5547 434.781 21.8125 433.68 21.8125ZM465.93 34.6797C466.961 34.6797 468.039 34.5391 469.164 34.2812C470.266 34.0234 471.203 33.6719 471.93 33.2734V24.8359C471.25 25.5156 469.773 26.0312 468.438 26.0312C467.148 26.0312 466.047 25.6562 465.156 24.8828C464.266 24.1328 463.82 23.0547 463.82 21.6719V13.2109H471.648V10H463.82V0.390625L453.695 3.03906V10H449.43V13.2109H453.695V25.5625C453.695 31.6328 457.773 34.6797 465.93 34.6797ZM490.375 34.6797C492.742 34.6797 495.133 34.4688 497.523 34.0703C499.914 33.6484 501.742 33.1094 503.031 32.4531L502.844 24.5547C501.953 25.5391 500.617 26.3125 498.836 26.875C497.055 27.4375 495.18 27.7188 493.234 27.7188C490.703 27.7188 488.5 27.1562 486.625 26.0547C484.727 24.9531 483.695 23.6641 483.508 22.1875L483.883 21.9531C486.438 23.8984 489.602 24.5547 493.727 24.5547C499.984 24.5547 503.57 22.3516 503.57 17.9219C503.57 16.1172 503.008 14.5 501.625 13C499.656 10.8438 495.742 9.34375 489.648 9.32031C484.609 9.32031 480.461 10.75 477.93 13.0703C475.375 15.4141 473.992 18.5078 473.992 22C473.992 25.7969 475.469 28.8672 478.445 31.1875C481.422 33.5078 485.383 34.6797 490.375 34.6797ZM489.555 21.8125C487.047 21.8125 485.148 21.2031 483.836 19.9844C484.047 18.6484 484.656 17.6406 485.617 16.9375C486.578 16.2578 487.703 15.9062 488.969 15.9062C491.805 15.9062 493.586 17.125 493.586 19.0234C493.586 19.8438 493.188 20.5 492.391 21.0156C491.594 21.5547 490.656 21.8125 489.555 21.8125ZM516.812 34.6797C521.852 34.6797 525.273 32.1016 526.844 28.0938H527.523V28.6797C527.523 29.6875 527.453 30.5547 527.312 31.2812C527.148 32.0078 526.867 32.9219 526.422 34H539.523C538.797 30.7891 538.422 26.7344 538.422 21.8594V12.5547C538.422 7.65625 538.797 3.60156 539.523 0.390625H526.422C527.148 3.60156 527.523 7.65625 527.523 12.5547V16H526.891C525.391 11.9453 521.875 9.32031 516.812 9.32031C513.086 9.32031 510.086 10.7266 508.305 13.0703C506.523 15.4141 505.586 18.4609 505.586 22C505.586 28.9375 509.172 34.6797 516.812 34.6797ZM521.617 27.8594C519.812 27.8594 518.359 27.3203 517.281 26.2188C516.203 25.1172 515.664 23.7109 515.664 22C515.664 20.2891 516.203 18.8828 517.281 17.7812C518.359 16.6797 519.812 16.1406 521.617 16.1406C523.375 16.1406 524.758 16.7031 525.812 17.8047C526.867 18.9062 527.383 20.3125 527.383 22C527.383 23.6172 526.844 25 525.789 26.1484C524.734 27.2969 523.328 27.8594 521.617 27.8594Z" fill="#C33D59"/>
</svg>
