<svg width="405" height="247" viewBox="0 0 405 247" fill="none" xmlns="http://www.w3.org/2000/svg">
<path fill-rule="evenodd" clip-rule="evenodd" d="M2.72625 76.4907C11.5104 75.1051 17.4108 66.2445 15.9053 56.7001V56.7L359.454 2.50879V2.50894C360.96 12.0532 369.301 18.6672 378.085 17.2819L402.237 170.398C393.454 171.784 387.553 180.644 389.059 190.188L45.5097 244.379C44.0042 234.835 35.6627 228.221 26.8786 229.606L26.8784 229.607L2.72601 76.4907C2.72609 76.4907 2.72617 76.4907 2.72625 76.4907Z" fill="#F4B5C2"/>
<path d="M350.569 29.4588L32.6547 79.6064C29.2106 80.1497 26.8589 83.3821 27.4022 86.8263L47.0822 211.589C47.6255 215.033 50.8579 217.385 54.3021 216.842L372.217 166.694C375.661 166.151 378.012 162.918 377.469 159.474L357.789 34.7113C357.246 31.2672 354.013 28.9155 350.569 29.4588Z" stroke="#C02B4A" stroke-width="1.30621"/>
<path d="M56.7923 75.1379L78.6431 213.663" stroke="#C02B4A" stroke-width="1.30621"/>
<path d="M327.518 32.4338L349.369 170.959" stroke="#C02B4A" stroke-width="1.30621"/>
<path d="M87.563 107.151C86.8946 105.593 86.3312 103.405 85.8843 100.571L85.58 98.6419L85.8461 98.6C86.3717 99.7714 87.2279 100.618 88.4167 101.153C89.6055 101.688 90.9127 101.85 92.3495 101.624C94.2253 101.328 95.6167 100.468 96.5481 99.0252C97.4817 97.5963 97.7613 95.7388 97.4004 93.4505C96.6344 88.5947 92.19 86.8688 87.7599 87.5676L77.0904 89.2506C77.7903 91.0082 78.3662 93.2761 78.8048 96.0566L79.6379 101.338C80.0744 104.105 80.2246 106.44 80.0997 108.328L87.563 107.151ZM88.9234 98.1418C88.0853 98.274 87.2808 98.1011 86.5254 97.6339C85.77 97.1668 85.2911 96.4651 85.0889 95.5289L84.8455 93.9857C85.6227 93.7267 86.61 93.5028 87.8073 93.314C89.7231 93.0118 91.0463 93.8802 91.2813 95.3702C91.3925 96.0753 91.2146 96.676 90.7629 97.1836C90.3 97.7065 89.6817 98.0222 88.9234 98.1418ZM108.277 103.883C107.716 102.922 107.3 101.583 107.03 99.8671L106.837 98.6432C106.658 97.5124 106.924 96.5159 107.618 95.6429C108.312 94.7699 109.224 94.2442 110.342 94.068C111.632 93.8644 113.022 94.2042 113.829 94.8268L112.943 89.2127C112.274 89.0319 111.535 89.0122 110.71 89.1423C108.102 89.5536 106.601 91.6175 106.579 94.8523L106.247 94.9047L106.119 94.0932C106.016 93.4414 105.989 92.7503 106.051 92.0179C106.099 91.2876 106.25 90.6911 106.487 90.2038L98.6911 91.4335C99.391 93.1911 99.9208 95.1665 100.267 97.3615L100.624 99.6231C100.796 100.714 100.887 101.64 100.912 102.4C100.938 103.173 100.913 104.05 100.84 105.057L108.277 103.883ZM125.26 101.6C128.24 101.13 130.495 99.956 131.722 98.399C132.936 96.8441 133.408 94.9971 133.091 92.9882C132.774 90.9794 131.756 89.3676 130.123 88.2617C128.476 87.158 125.982 86.7332 123.016 87.2012C120.036 87.6713 117.78 88.8451 116.567 90.4C115.34 91.957 114.868 93.804 115.184 95.8128C115.501 97.8217 116.519 99.4336 118.166 100.537C119.799 101.643 122.293 102.068 125.26 101.6ZM124.632 97.6221C123.688 97.7711 122.881 97.5847 122.199 97.0651C121.519 96.5588 121.105 95.8333 120.958 94.9021C120.811 93.9708 120.982 93.1531 121.471 92.4488C121.962 91.7578 122.672 91.3322 123.617 91.1832C124.588 91.03 125.408 91.2142 126.087 91.7206C126.754 92.229 127.168 92.9544 127.317 93.899C127.466 94.8436 127.295 95.6614 126.818 96.3503C126.327 97.0413 125.603 97.4689 124.632 97.6221ZM143.624 98.3077C143.314 97.8112 143.018 96.9716 142.723 95.7911C142.416 94.626 142.202 93.61 142.069 92.7719L141.864 91.4681C141.719 90.5502 141.854 89.7654 142.252 89.0891C142.652 88.4261 143.311 88.0221 144.202 87.8815C145.958 87.6045 146.938 88.7179 147.238 90.6203L147.436 91.8709C147.654 93.2544 147.802 94.3628 147.89 95.1806C147.967 96.0139 147.973 96.831 147.921 97.6298L155.145 96.4904C154.445 94.7328 153.92 92.7842 153.584 90.6556L153.408 89.5381C153.293 88.7245 153.459 87.962 153.884 87.2815C154.308 86.601 154.925 86.1901 155.763 86.0579C157.479 85.7872 158.459 86.9006 158.759 88.803L158.957 90.0535C159.286 92.1422 159.371 94.0649 159.23 95.8461L166.693 94.6689C166.01 93.0178 165.463 90.9361 165.067 88.4217L164.838 86.9716C164.252 83.2599 162.195 81.0211 158.111 81.6653C155.197 82.1249 153.362 83.887 152.886 86.4026L152.553 86.4551C151.457 84.1738 149.683 83.0357 146.59 83.4826C143.902 83.9065 142.281 85.4712 141.711 88.1654L141.378 88.2178L141.322 87.8587C141.135 86.6747 141.226 85.6104 141.582 84.668L133.999 85.8641C134.682 87.5152 135.212 89.4905 135.575 91.792L135.927 94.027C136.106 95.1578 136.202 96.1109 136.228 96.8839C136.257 97.6702 136.229 98.5334 136.148 99.487L143.624 98.3077ZM177.57 93.3486C180.55 92.8785 182.805 91.7047 184.032 90.1477C185.246 88.5928 185.718 86.7458 185.401 84.7369C185.084 82.7281 184.066 81.1162 182.433 80.0103C180.786 78.9066 178.292 78.4819 175.326 78.9499C172.346 79.42 170.09 80.5939 168.877 82.1488C167.65 83.7058 167.177 85.5527 167.494 87.5615C167.811 89.5704 168.829 91.1823 170.476 92.2861C172.109 93.3919 174.603 93.8166 177.57 93.3486ZM176.942 89.3708C175.998 89.5198 175.191 89.3335 174.509 88.8139C173.829 88.3076 173.415 87.582 173.268 86.6508C173.121 85.7195 173.292 84.9018 173.781 84.1975C174.272 83.5065 174.982 83.0809 175.926 82.9319C176.898 82.7787 177.717 82.9629 178.397 83.4693C179.064 83.9777 179.478 84.7031 179.627 85.6477C179.776 86.5923 179.605 87.41 179.128 88.0989C178.637 88.7899 177.913 89.2176 176.942 89.3708ZM196.62 90.3435C197.206 90.2512 197.805 90.075 198.421 89.8279C199.023 89.5829 199.523 89.2993 199.9 89.0081L199.145 84.2188C198.82 84.6655 198.028 85.0904 197.269 85.21C196.538 85.3254 195.879 85.2112 195.304 84.8519C194.731 84.5059 194.382 83.9338 194.258 83.1489L193.501 78.3463L197.944 77.6454L197.657 75.8228L193.213 76.5238L192.353 71.0692L186.843 73.4791L187.466 77.4303L185.045 77.8122L185.332 79.6348L187.754 79.2528L188.86 86.2639C189.403 89.7095 191.991 91.0738 196.62 90.3435ZM205.293 73.0639C205.806 72.424 205.989 71.686 205.857 70.8479C205.723 69.9965 205.319 69.3376 204.634 68.8865C203.95 68.4355 203.109 68.2954 202.098 68.4549C201.087 68.6143 200.331 69.0063 199.832 69.6441C199.319 70.284 199.138 71.0352 199.272 71.8867C199.404 72.7248 199.806 73.3704 200.491 73.8214C201.162 74.2746 202.002 74.4147 203.013 74.2552C204.024 74.0957 204.781 73.7038 205.293 73.0639ZM209.012 87.9935C208.312 86.236 207.736 83.9681 207.299 81.2009L206.705 77.436C206.508 76.1854 206.419 75.1905 206.424 74.4399C205.751 75.105 204.731 75.5522 203.334 75.7726C201.938 75.9929 200.789 75.8877 199.865 75.4745C200.077 76.0409 200.299 77.0149 200.519 78.4118L201.113 82.1768C201.55 84.944 201.7 87.279 201.575 89.1666L209.012 87.9935ZM219.742 86.6964C222.722 86.2264 224.977 85.0524 226.204 83.4954C227.418 81.9405 227.89 80.0936 227.573 78.0847C227.256 76.0759 226.239 74.4639 224.605 73.3581C222.959 72.2544 220.465 71.8297 217.498 72.2976C214.518 72.7677 212.263 73.9416 211.049 75.4965C209.822 77.0535 209.35 78.9004 209.667 80.9093C209.984 82.9181 211.001 84.5302 212.648 85.6339C214.281 86.7397 216.775 87.1644 219.742 86.6964ZM219.115 82.7186C218.17 82.8676 217.363 82.6812 216.682 82.1616C216.002 81.6552 215.587 80.9298 215.44 79.9985C215.294 79.0673 215.465 78.2495 215.953 77.5452C216.444 76.8542 217.154 76.4286 218.099 76.2796C219.07 76.1264 219.89 76.3107 220.57 76.817C221.236 77.3255 221.651 78.0509 221.8 78.9955C221.949 79.94 221.778 80.7578 221.3 81.4467C220.809 82.1377 220.086 82.5654 219.115 82.7186ZM238.107 83.4041C237.812 82.9189 237.516 82.0793 237.223 80.9121C236.93 79.7448 236.715 78.7289 236.578 77.8641L236.346 76.5646C236.205 75.6732 236.381 74.8821 236.858 74.1932C237.336 73.5043 238.046 73.0787 238.964 72.9339C240.733 72.6548 241.97 73.7549 242.266 75.6307L242.463 76.8813C242.774 78.8502 242.861 80.7862 242.736 82.6738L250.2 81.4966C249.479 79.7832 248.933 77.7015 248.547 75.2536L248.318 73.8035C248.014 71.8745 247.242 70.4418 245.991 69.5076C244.739 68.5734 243.107 68.258 241.099 68.5749C238.398 69.0009 236.764 70.5676 236.193 73.2618L235.861 73.3143L235.804 72.9551C235.617 71.7711 235.708 70.7069 236.064 69.7645L228.481 70.9606C229.164 72.6117 229.694 74.587 230.057 76.8885L230.41 79.1235C230.588 80.2543 230.684 81.2073 230.71 81.9802C230.739 82.7665 230.711 83.6299 230.63 84.5835L238.107 83.4041ZM268.22 79.0494C268.806 78.9571 269.405 78.7807 270.021 78.5337C270.623 78.2887 271.123 78.0053 271.5 77.7141L270.745 72.9247C270.42 73.3713 269.628 73.7962 268.87 73.9158C268.138 74.0313 267.479 73.917 266.904 73.5578C266.331 73.2118 265.982 72.6397 265.858 71.8548L265.101 67.0522L269.544 66.3513L269.257 64.5287L264.813 65.2296L263.953 59.7751L258.443 62.185L259.066 66.1361L256.645 66.5182L256.932 68.3407L259.354 67.9587L260.46 74.9697C261.003 78.4154 263.591 79.7797 268.22 79.0494ZM281.737 76.9173C284.717 76.4473 286.972 75.2734 288.199 73.7164C289.413 72.1615 289.885 70.3145 289.568 68.3057C289.251 66.2969 288.233 64.6849 286.6 63.5791C284.954 62.4754 282.46 62.0507 279.493 62.5186C276.513 62.9887 274.257 64.1625 273.044 65.7174C271.817 67.2744 271.345 69.1214 271.662 71.1303C271.978 73.1391 272.996 74.7511 274.643 75.8548C276.276 76.9606 278.77 77.3853 281.737 76.9173ZM281.109 72.9396C280.165 73.0886 279.358 72.9022 278.676 72.3826C277.997 71.8762 277.582 71.1508 277.435 70.2195C277.288 69.2883 277.459 68.4705 277.948 67.7662C278.439 67.0752 279.149 66.6496 280.094 66.5006C281.065 66.3474 281.885 66.5317 282.565 67.038C283.231 67.5464 283.645 68.2719 283.794 69.2164C283.943 70.161 283.772 70.9788 283.295 71.6677C282.804 72.3587 282.081 72.7864 281.109 72.9396ZM93.963 139.945C96.77 139.502 99.0023 138.7 100.629 137.516C102.242 136.335 103.016 134.672 102.706 132.703C102.446 131.053 101.465 129.94 100.192 129.472C98.9205 129.019 97.2772 128.801 95.6955 128.886C92.502 128.954 89.3798 129.474 89.1427 127.97C89.0735 127.531 89.3557 127.16 89.9719 126.831C90.5881 126.502 91.4094 126.263 92.4471 126.099C93.8174 125.883 95.2191 125.867 96.637 126.038C98.0548 126.21 99.21 126.532 100.101 126.992L99.0135 120.1C98.0032 119.919 96.7863 119.811 95.3496 119.779C93.9128 119.746 92.5237 119.843 91.2066 120.05C89.3707 120.34 87.7813 120.809 86.4536 121.468C85.1127 122.13 84.0868 122.973 83.3935 124.023C82.7002 125.073 82.4465 126.231 82.648 127.509C82.8851 129.012 83.688 130.126 84.755 130.667C85.8241 131.221 87.1831 131.538 88.6044 131.559C92.1151 131.687 95.9087 130.843 96.1228 132.2C96.2571 133.052 95.1269 133.666 92.7456 134.042C91.1092 134.3 89.4351 134.319 87.7365 134.096C86.0246 133.875 84.5564 133.384 83.3054 132.627L84.197 139.835C85.5567 140.071 87.1853 140.196 89.0848 140.223C90.9844 140.251 92.606 140.159 93.963 139.945ZM114.105 136.768C115.448 136.556 116.786 136.222 118.108 135.782C119.427 135.328 120.416 134.858 121.089 134.371L120.276 129.904C119.858 130.543 119.169 131.101 118.208 131.58C117.248 132.059 116.209 132.386 115.104 132.56C113.668 132.787 112.367 132.665 111.204 132.208C110.028 131.752 109.327 131.113 109.088 130.292L109.28 130.125C110.904 131 112.759 131.09 115.101 130.72C118.653 130.16 120.491 128.588 120.094 126.074C119.933 125.05 119.468 124.182 118.549 123.454C117.239 122.407 114.883 121.906 111.422 122.438C108.561 122.889 106.335 124.072 105.106 125.616C103.865 127.175 103.357 129.055 103.67 131.037C104.01 133.192 105.123 134.803 107.02 135.854C108.918 136.904 111.271 137.215 114.105 136.768ZM112.487 129.537C111.063 129.762 109.931 129.586 109.077 129.012C109.077 128.235 109.333 127.608 109.815 127.123C110.3 126.651 110.907 126.351 111.626 126.237C113.235 125.983 114.355 126.516 114.525 127.593C114.599 128.059 114.431 128.467 114.025 128.831C113.621 129.208 113.112 129.439 112.487 129.537ZM130.993 133.708C130.698 133.223 130.402 132.384 130.109 131.216C129.815 130.049 129.601 129.033 129.464 128.168L129.232 126.869C129.091 125.977 129.267 125.186 129.744 124.497C130.222 123.808 130.932 123.383 131.85 123.238C133.619 122.959 134.856 124.059 135.152 125.935L135.349 127.185C135.66 129.154 135.747 131.09 135.622 132.978L143.086 131.801C142.365 130.087 141.819 128.006 141.433 125.558L141.204 124.108C140.9 122.179 140.128 120.746 138.877 119.812C137.625 118.878 135.993 118.562 133.985 118.879C131.284 119.305 129.65 120.872 129.079 123.566L128.747 123.618L128.69 123.259C128.503 122.075 128.594 121.011 128.95 120.069L121.367 121.265C122.05 122.916 122.58 124.891 122.943 127.193L123.296 129.428C123.474 130.558 123.57 131.511 123.596 132.284C123.625 133.071 123.597 133.934 123.516 134.888L130.993 133.708ZM149.185 115.322C149.698 114.683 149.881 113.945 149.749 113.106C149.615 112.255 149.211 111.596 148.526 111.145C147.842 110.694 147.001 110.554 145.99 110.713C144.979 110.873 144.223 111.265 143.724 111.903C143.211 112.543 143.03 113.294 143.164 114.145C143.296 114.983 143.698 115.629 144.383 116.08C145.054 116.533 145.894 116.673 146.905 116.514C147.916 116.354 148.673 115.962 149.185 115.322ZM152.904 130.252C152.204 128.495 151.628 126.227 151.191 123.459L150.597 119.695C150.4 118.444 150.311 117.449 150.316 116.698C149.643 117.364 148.623 117.811 147.226 118.031C145.83 118.251 144.681 118.146 143.757 117.733C143.969 118.299 144.191 119.273 144.411 120.67L145.005 124.435C145.442 127.202 145.592 129.538 145.467 131.425L152.904 130.252ZM163.634 128.955C166.614 128.485 168.869 127.311 170.096 125.754C171.31 124.199 171.782 122.352 171.465 120.343C171.148 118.334 170.131 116.722 168.497 115.617C166.851 114.513 164.357 114.088 161.39 114.556C158.41 115.026 156.155 116.2 154.941 117.755C153.714 119.312 153.242 121.159 153.559 123.168C153.876 125.177 154.893 126.789 156.54 127.892C158.173 128.998 160.667 129.423 163.634 128.955ZM163.007 124.977C162.062 125.126 161.255 124.94 160.574 124.42C159.894 123.914 159.479 123.188 159.332 122.257C159.186 121.326 159.357 120.508 159.845 119.804C160.336 119.113 161.046 118.687 161.991 118.538C162.962 118.385 163.782 118.569 164.462 119.076C165.128 119.584 165.543 120.309 165.692 121.254C165.841 122.199 165.67 123.016 165.192 123.705C164.701 124.396 163.978 124.824 163.007 124.977ZM181.959 125.669C181.398 124.708 180.982 123.369 180.712 121.653L180.519 120.429C180.34 119.298 180.606 118.302 181.3 117.429C181.994 116.556 182.906 116.03 184.024 115.854C185.314 115.65 186.704 115.99 187.511 116.612L186.626 110.998C185.956 110.817 185.217 110.798 184.392 110.928C181.784 111.339 180.283 113.403 180.261 116.638L179.929 116.69L179.801 115.879C179.698 115.227 179.671 114.536 179.733 113.803C179.781 113.073 179.932 112.477 180.169 111.989L172.373 113.219C173.073 114.977 173.603 116.952 173.949 119.147L174.306 121.409C174.478 122.5 174.569 123.426 174.594 124.186C174.62 124.959 174.595 125.835 174.522 126.842L181.959 125.669ZM208.095 121.942C209.704 121.688 211.111 121.357 212.33 120.96C213.534 120.552 214.736 120.049 215.937 119.45L214.81 112.306C214.132 113.109 213.234 113.809 212.115 114.408C210.996 115.008 209.766 115.42 208.435 115.63C205.189 116.142 202.101 115.497 201.682 112.836C201.491 111.626 201.914 110.591 202.936 109.721C203.959 108.864 205.368 108.287 207.151 108.006C208.202 107.84 209.278 107.834 210.366 107.99C211.443 108.161 212.331 108.43 213.031 108.81L212.042 102.19C211.202 101.968 210.147 101.848 208.888 101.815C207.63 101.795 206.336 101.89 204.992 102.102C202.744 102.456 200.649 103.264 198.875 104.635C197.987 105.32 197.239 106.106 196.64 106.978C195.431 108.737 194.857 111.145 195.274 113.793C195.694 116.453 196.971 118.583 198.662 119.885C201.209 121.855 204.762 122.508 208.095 121.942ZM226.454 119.046C229.434 118.576 231.689 117.402 232.916 115.845C234.13 114.29 234.602 112.443 234.285 110.434C233.968 108.425 232.95 106.813 231.317 105.708C229.67 104.604 227.176 104.179 224.21 104.647C221.23 105.117 218.974 106.291 217.761 107.846C216.534 109.403 216.061 111.25 216.378 113.259C216.695 115.268 217.713 116.88 219.36 117.983C220.993 119.089 223.487 119.514 226.454 119.046ZM225.826 115.068C224.882 115.217 224.075 115.031 223.393 114.511C222.713 114.005 222.299 113.279 222.152 112.348C222.005 111.417 222.176 110.599 222.665 109.895C223.156 109.204 223.866 108.778 224.811 108.629C225.782 108.476 226.602 108.66 227.281 109.166C227.948 109.675 228.362 110.4 228.511 111.345C228.66 112.289 228.489 113.107 228.012 113.796C227.521 114.487 226.797 114.915 225.826 115.068ZM244.778 115.76C244.218 114.798 243.802 113.46 243.531 111.743L243.338 110.52C243.16 109.389 243.425 108.392 244.119 107.519C244.813 106.646 245.726 106.121 246.843 105.944C248.134 105.741 249.524 106.081 250.331 106.703L249.445 101.089C248.776 100.908 248.036 100.889 247.212 101.019C244.604 101.43 243.103 103.494 243.081 106.729L242.749 106.781L242.621 105.97C242.518 105.318 242.491 104.627 242.552 103.894C242.601 103.164 242.752 102.568 242.989 102.08L235.193 103.31C235.893 105.068 236.422 107.043 236.769 109.238L237.125 111.5C237.298 112.59 237.389 113.517 237.413 114.276C237.44 115.049 237.415 115.926 237.342 116.933L244.778 115.76ZM262.121 113.42C263.464 113.208 264.802 112.874 266.124 112.434C267.443 111.98 268.432 111.511 269.105 111.023L268.292 106.556C267.874 107.195 267.185 107.753 266.224 108.232C265.264 108.711 264.225 109.038 263.12 109.213C261.684 109.439 260.383 109.317 259.22 108.86C258.044 108.404 257.343 107.765 257.104 106.944L257.296 106.777C258.92 107.653 260.775 107.742 263.116 107.372C266.669 106.812 268.507 105.241 268.11 102.726C267.949 101.702 267.484 100.834 266.565 100.107C265.255 99.0588 262.899 98.5578 259.438 99.0902C256.577 99.5413 254.351 100.724 253.122 102.268C251.881 103.827 251.373 105.707 251.686 107.689C252.026 109.844 253.139 111.455 255.036 112.506C256.934 113.556 259.287 113.867 262.121 113.42ZM260.503 106.189C259.079 106.414 257.947 106.238 257.093 105.664C257.093 104.887 257.349 104.26 257.831 103.775C258.316 103.303 258.923 103.003 259.642 102.889C261.251 102.636 262.371 103.168 262.541 104.245C262.615 104.711 262.447 105.119 262.041 105.483C261.637 105.861 261.128 106.091 260.503 106.189ZM276.126 103.752L275.187 99.1829L279.413 101.08L280.234 99.0275L275.845 97.5656L279.571 94.8236L278.153 93.0975L274.712 96.1763L274.203 91.5662L271.995 91.9146L272.93 96.4576L268.708 94.5873L267.917 96.6618L272.28 98.128L268.58 100.866L269.967 102.57L273.404 99.4641L273.917 104.101L276.126 103.752Z" fill="#C02B4A"/>
<path d="M342.437 70.0554C342.632 71.2933 342.956 72.3657 343.418 73.271C343.87 74.1683 344.451 74.8418 345.172 75.2995C345.883 75.7586 346.673 75.9149 347.552 75.7763C349.801 75.4215 350.329 73.5466 350.455 71.5218C350.59 69.0017 350.099 66.2607 351.452 66.057C352.256 65.9302 352.822 66.945 353.095 68.6743C353.244 69.6193 353.258 70.5663 353.148 71.5232C353.037 72.4801 352.83 73.2585 352.54 73.8756L356.434 73.2615C356.592 72.607 356.687 71.7978 356.721 70.8434C356.753 69.8795 356.701 68.9385 356.555 68.0124C356.032 64.4532 353.927 61.9765 351.372 62.4182C346.203 63.2336 349.684 71.7306 347.482 72.0779C346.61 72.1962 346.028 71.0288 345.792 69.4098C345.621 68.323 345.609 67.2015 345.753 66.0262C345.897 64.851 346.22 63.8315 346.712 62.9597L342.623 63.44C342.426 64.3427 342.308 65.4363 342.27 66.7305C342.232 68.0246 342.29 69.1293 342.437 70.0554ZM345.178 85.6521C346.065 85.2603 347.397 84.9243 349.183 84.6425L355.127 83.7049L355.46 85.8123C355.603 86.7195 355.556 87.5307 355.331 88.2538L359.282 87.0205L357.487 75.6425L353.347 75.6757C353.787 76.3134 354.082 77.0804 354.224 77.9781L354.568 80.1611L348.624 81.0987C346.923 81.3671 345.554 81.4668 344.507 81.3995L345.178 85.6521ZM346.914 98.4435C347.087 99.5397 347.326 100.5 347.632 101.333C347.936 102.156 348.322 102.948 348.783 103.718L352.865 103.074C352.295 102.592 351.788 101.956 351.365 101.18C350.932 100.396 350.641 99.5312 350.493 98.5956C350.35 97.6884 350.354 96.8549 350.496 96.0965C350.636 95.3286 350.941 94.6801 351.419 94.1494C351.886 93.6109 352.502 93.2812 353.268 93.1605C354.354 92.989 355.305 93.3039 356.109 94.1068C356.914 94.9097 357.428 96.0199 357.653 97.4469C357.769 98.184 357.779 98.9186 357.673 99.6617C357.568 100.405 357.377 101.035 357.112 101.571L360.892 101.033C361.058 100.426 361.147 99.7045 361.178 98.857C361.209 98.0095 361.149 97.1376 361.011 96.2587C360.753 94.6239 360.14 93.1322 359.145 91.9234C358.652 91.3136 358.088 90.8117 357.463 90.4067C356.201 89.5889 354.507 89.2265 352.692 89.5127C348.024 90.2491 346.279 94.4177 346.914 98.4435ZM356.172 105.312C357.2 106.361 358.582 106.898 359.981 106.678C360.557 106.587 360.995 106.353 361.285 105.978C361.574 105.603 361.683 105.189 361.612 104.735C361.549 104.338 361.354 104.021 361.025 103.782C360.686 103.535 360.324 103.447 359.917 103.511C359.53 103.572 359.237 103.744 359.021 104.03C358.803 104.307 358.728 104.628 358.783 104.978C358.802 105.101 358.839 105.211 358.895 105.319C358.554 105.305 358.187 105.188 357.781 104.952C357.376 104.716 357.054 104.457 356.824 104.164L356.172 105.312ZM350.836 121.525L355.112 120.937C354.488 120.484 353.969 119.529 353.768 118.253L353.102 114.029L353.294 113.96L355.886 116.941C357.589 119.142 359.047 120.036 360.701 119.775C361.863 119.591 362.729 118.942 363.297 117.816C363.865 116.69 364.022 115.348 363.774 113.779C363.603 112.692 363.339 111.756 362.973 110.971C362.605 110.177 362.08 109.301 361.395 108.334L357.709 108.915C358.371 109.489 358.936 110.184 359.405 111.011C359.873 111.828 360.167 112.644 360.296 113.466C360.42 114.25 360.397 114.903 360.238 115.431C360.069 115.952 359.748 116.254 359.276 116.329C358.945 116.381 358.595 116.31 358.225 116.117C357.856 115.923 357.365 115.516 356.756 114.906L351.775 109.483L349.006 109.92L350.836 121.525ZM352.95 134.925L357.225 134.338C356.602 133.884 356.083 132.929 355.882 131.654L355.216 127.429L355.408 127.36L357.999 130.341C359.702 132.542 361.161 133.436 362.814 133.175C363.977 132.992 364.843 132.342 365.411 131.216C365.979 130.09 366.135 128.748 365.888 127.179C365.717 126.093 365.453 125.156 365.087 124.371C364.719 123.577 364.194 122.701 363.508 121.734L359.823 122.315C360.485 122.889 361.05 123.584 361.519 124.411C361.987 125.228 362.28 126.044 362.41 126.866C362.534 127.65 362.511 128.303 362.352 128.832C362.182 129.352 361.862 129.655 361.389 129.729C361.059 129.781 360.709 129.711 360.339 129.517C359.97 129.324 359.479 128.917 358.87 128.306L353.888 122.883L351.119 123.32L352.95 134.925Z" fill="#C02B4A"/>
<path d="M42.6277 117.347C42.823 118.585 43.1471 119.657 43.6095 120.562C44.061 121.46 44.6418 122.133 45.3629 122.591C46.0746 123.05 46.8644 123.206 47.7432 123.068C49.9923 122.713 50.5198 120.838 50.646 118.813C50.7811 116.293 50.2907 113.552 51.6435 113.348C52.4468 113.222 53.0136 114.236 53.2864 115.966C53.4355 116.911 53.4492 117.858 53.3387 118.815C53.2281 119.772 53.0216 120.55 52.7315 121.167L56.625 120.553C56.7833 119.899 56.8784 119.089 56.9118 118.135C56.9438 117.171 56.8922 116.23 56.7461 115.304C56.2235 111.745 54.1185 109.268 51.5635 109.71C46.3943 110.525 49.875 119.022 47.6732 119.369C46.8008 119.488 46.2195 118.32 45.9835 116.701C45.8121 115.615 45.7998 114.493 45.9437 113.318C46.0877 112.143 46.4111 111.123 46.9031 110.251L42.8142 110.732C42.6176 111.634 42.4996 112.728 42.4616 114.022C42.4236 115.316 42.4816 116.421 42.6277 117.347ZM45.3688 132.944C46.2562 132.552 47.5881 132.216 49.3742 131.934L55.3183 130.996L55.6507 133.104C55.7938 134.011 55.7475 134.822 55.5225 135.545L59.4733 134.312L57.6785 122.934L53.5385 122.967C53.9781 123.605 54.2734 124.372 54.415 125.27L54.7593 127.453L48.8152 128.39C47.1142 128.659 45.7449 128.758 44.698 128.691L45.3688 132.944ZM47.1056 145.735C47.2786 146.831 47.5171 147.791 47.8229 148.624C48.1272 149.448 48.5135 150.239 48.9739 151.009L53.0564 150.365C52.4865 149.884 51.9792 149.247 51.5566 148.471C51.123 147.687 50.8317 146.823 50.6841 145.887C50.541 144.98 50.5451 144.146 50.687 143.388C50.8274 142.62 51.1319 141.972 51.6099 141.441C52.077 140.902 52.6933 140.573 53.4587 140.452C54.5455 140.281 55.4959 140.596 56.3005 141.398C57.1051 142.201 57.6192 143.311 57.8443 144.738C57.9606 145.476 57.9699 146.21 57.8644 146.953C57.7588 147.696 57.5677 148.327 57.3036 148.862L61.0831 148.324C61.2488 147.717 61.3385 146.996 61.3694 146.148C61.4004 145.301 61.3403 144.429 61.2017 143.55C60.9438 141.915 60.3308 140.424 59.3363 139.215C58.843 138.605 58.2795 138.103 57.6539 137.698C56.3917 136.88 54.6978 136.518 52.8834 136.804C48.215 137.541 46.4706 141.709 47.1056 145.735ZM56.3635 152.604C57.3909 153.653 58.7735 154.19 60.1721 153.969C60.7485 153.878 61.1862 153.645 61.4758 153.27C61.7653 152.895 61.8743 152.48 61.8027 152.027C61.7401 151.63 61.5447 151.312 61.2165 151.073C60.8773 150.827 60.5148 150.739 60.1084 150.803C59.7209 150.864 59.4285 151.036 59.2121 151.322C58.9942 151.598 58.919 151.92 58.9742 152.27C58.9936 152.393 59.0304 152.503 59.086 152.61C58.7449 152.596 58.3778 152.48 57.9725 152.244C57.5672 152.007 57.2454 151.748 57.0152 151.455L56.3635 152.604ZM51.0273 168.816L55.3027 168.229C54.6791 167.775 54.1605 166.821 53.9593 165.545L53.2929 161.321L53.4854 161.252L56.0767 164.233C57.7799 166.434 59.238 167.327 60.8918 167.066C62.0541 166.883 62.9201 166.233 63.4883 165.107C64.0564 163.981 64.2128 162.639 63.9654 161.071C63.7939 159.984 63.53 159.047 63.1641 158.263C62.7966 157.468 62.271 156.592 61.5858 155.625L57.9003 156.207C58.5622 156.78 59.1271 157.476 59.5965 158.302C60.0644 159.119 60.3577 159.935 60.4874 160.757C60.6111 161.542 60.5881 162.194 60.4294 162.723C60.2597 163.244 59.9393 163.546 59.4668 163.621C59.1361 163.673 58.786 163.602 58.4164 163.408C58.0469 163.215 57.5566 162.808 56.9469 162.197L51.9657 156.775L49.1968 157.211L51.0273 168.816ZM53.1411 182.216L57.4165 181.629C56.7928 181.176 56.2742 180.221 56.073 178.945L55.4067 174.721L55.5992 174.652L58.1905 177.633C59.8936 179.834 61.3517 180.728 63.0055 180.467C64.1679 180.283 65.0339 179.633 65.602 178.508C66.1702 177.382 66.3266 176.04 66.0791 174.471C65.9077 173.384 65.6437 172.448 65.2778 171.663C64.9104 170.868 64.3848 169.992 63.6996 169.026L60.014 169.607C60.6759 170.18 61.2408 170.876 61.7102 171.703C62.1781 172.52 62.4714 173.335 62.6011 174.158C62.7248 174.942 62.7019 175.595 62.5431 176.123C62.3734 176.644 62.0531 176.946 61.5806 177.021C61.2498 177.073 60.8997 177.002 60.5302 176.809C60.1607 176.615 59.6703 176.208 59.0607 175.597L54.0794 170.175L51.3105 170.612L53.1411 182.216Z" fill="#C02B4A"/>
<path d="M97.544 193.827C98.7725 193.633 99.8104 193.172 100.67 192.442L100.457 191.088C99.784 191.859 98.7272 192.445 97.5176 192.636C96.7616 192.755 96.0656 192.723 95.4234 192.54C94.7812 192.358 94.2514 192.028 93.8204 191.547C93.3904 191.073 93.1176 190.489 93.0073 189.79C92.6465 187.748 94.1127 185.909 96.392 185.582C97.3811 185.426 98.2757 185.53 99.083 185.9L98.9652 184.621C98.1014 184.344 97.1435 184.288 96.0788 184.456C94.6865 184.676 93.4894 185.356 92.7167 186.31C91.9377 187.266 91.5781 188.588 91.7977 189.981C91.9458 190.919 92.3017 191.703 92.8613 192.344C93.4209 192.985 94.1039 193.426 94.9176 193.673C95.7259 193.926 96.6052 193.975 97.544 193.827ZM103.616 192.694C103.485 192.437 103.364 191.959 103.252 191.247L102.948 189.403C102.888 189.025 102.932 188.644 103.076 188.253C103.222 187.869 103.466 187.527 103.8 187.235C104.135 186.943 104.526 186.759 104.967 186.69C106.259 186.486 107.133 187.077 107.347 188.432L107.678 190.53C107.768 191.103 107.802 191.602 107.78 192.038L109.191 191.815C109.036 191.407 108.911 190.897 108.812 190.273L108.461 188.043C108.171 186.21 106.987 185.376 105.23 185.654C103.938 185.857 103.076 186.652 102.831 187.885L102.724 187.902L102.313 185.294C102.2 184.582 102.159 184.033 102.191 183.66L100.773 183.884C100.909 184.211 101.037 184.74 101.153 185.477L102.068 191.273C102.185 192.016 102.226 192.565 102.198 192.918L103.616 192.694ZM114.806 191.104C115.361 191.016 115.905 190.866 116.433 190.653C116.962 190.447 117.36 190.223 117.621 189.995L117.452 189.007C117.242 189.273 116.899 189.514 116.423 189.731C115.941 189.95 115.423 190.102 114.862 190.191C114.018 190.324 113.263 190.204 112.592 189.839C111.921 189.473 111.524 188.922 111.395 188.187L111.459 188.138C112.375 188.504 113.379 188.604 114.462 188.433C116.548 188.104 117.401 187.414 117.195 186.11C117.092 185.455 116.703 184.955 116.03 184.615C115.356 184.276 114.503 184.191 113.464 184.355C112.406 184.522 111.581 184.981 110.983 185.734C110.385 186.487 110.166 187.354 110.32 188.331C110.478 189.333 110.972 190.088 111.808 190.601C112.64 191.123 113.641 191.287 114.806 191.104ZM114.037 187.822C113.564 187.897 113.083 187.915 112.605 187.874C112.127 187.833 111.7 187.745 111.335 187.603C111.327 186.978 111.54 186.441 111.974 186.004C112.409 185.567 112.935 185.297 113.558 185.199C114.207 185.096 114.777 185.149 115.269 185.361C115.761 185.574 116.035 185.88 116.097 186.27C116.223 187.071 115.536 187.586 114.037 187.822ZM123.173 189.784C123.727 189.696 124.272 189.546 124.8 189.334C125.329 189.127 125.726 188.903 125.987 188.675L125.819 187.688C125.609 187.953 125.266 188.195 124.79 188.412C124.308 188.63 123.79 188.783 123.229 188.871C122.385 189.004 121.63 188.884 120.959 188.519C120.288 188.153 119.891 187.603 119.762 186.867L119.825 186.819C120.742 187.184 121.745 187.284 122.829 187.113C124.914 186.784 125.767 186.095 125.562 184.79C125.458 184.135 125.07 183.635 124.396 183.295C123.723 182.956 122.87 182.871 121.83 183.035C120.772 183.202 119.947 183.662 119.349 184.414C118.751 185.167 118.533 186.035 118.687 187.011C118.845 188.013 119.338 188.768 120.175 189.282C121.006 189.803 122.007 189.968 123.173 189.784ZM122.403 186.503C121.931 186.577 121.449 186.595 120.971 186.554C120.494 186.513 120.067 186.426 119.702 186.283C119.694 185.658 119.906 185.121 120.341 184.684C120.776 184.248 121.301 183.977 121.925 183.879C122.574 183.777 123.144 183.829 123.636 184.042C124.128 184.255 124.402 184.56 124.464 184.951C124.59 185.751 123.903 186.266 122.403 186.503ZM129.307 188.642C129.176 188.385 129.066 187.97 128.973 187.384L128.672 185.475C128.567 184.807 128.708 184.191 129.097 183.626C129.486 183.061 129.983 182.731 130.581 182.636C130.991 182.572 131.464 182.626 131.697 182.751L131.526 181.667C131.244 181.602 130.928 181.6 130.575 181.656C129.435 181.836 128.703 182.726 128.551 184.093L128.456 184.108L128.353 183.453C128.277 182.967 128.274 182.542 128.34 182.183L126.885 182.412C127.019 182.772 127.136 183.27 127.237 183.906L127.79 187.415C127.884 188.008 127.921 188.492 127.902 188.863L129.307 188.642ZM136.201 187.729C137.014 187.601 137.64 187.315 138.068 186.873C138.496 186.437 138.668 185.932 138.579 185.365C138.524 185.019 138.397 184.742 138.2 184.521C137.804 184.093 137.242 183.968 136.605 183.901C135.344 183.77 133.932 183.987 133.789 183.079C133.698 182.5 134.244 181.994 135.221 181.84C135.649 181.772 136.08 181.762 136.519 181.803C136.953 181.851 137.313 181.923 137.599 182.02L137.45 181.075C137.126 180.984 136.742 180.922 136.298 180.895C135.855 180.868 135.432 180.89 135.035 180.952C134.235 181.078 133.633 181.354 133.224 181.787C132.808 182.22 132.644 182.698 132.727 183.221C132.819 183.807 133.16 184.205 133.599 184.369C134.038 184.538 134.611 184.648 135.16 184.645C136.272 184.696 137.372 184.671 137.508 185.534C137.61 186.183 137.047 186.666 136.008 186.83C135.535 186.904 135.013 186.909 134.446 186.837C133.874 186.772 133.397 186.654 133.002 186.484L133.167 187.529C133.555 187.655 134.04 187.74 134.627 187.777C135.215 187.82 135.741 187.801 136.201 187.729ZM147.044 186.018C147.56 185.937 148 185.777 148.357 185.547L148.204 184.576C147.896 184.793 147.519 184.936 147.078 185.006C146.038 185.17 145.483 184.76 145.301 183.607L144.802 180.445L147.454 180.026L147.322 179.188L144.67 179.607L144.262 177.024L143.214 177.499L143.574 179.78L141.973 180.032L142.106 180.87L143.706 180.618L144.253 184.089C144.497 185.632 145.424 186.274 147.044 186.018ZM152.852 185.102C153.911 184.935 154.723 184.478 155.297 183.735C155.864 182.994 156.07 182.128 155.914 181.139C155.758 180.15 155.296 179.39 154.534 178.858C153.766 178.327 152.852 178.142 151.794 178.309C150.723 178.478 149.904 178.936 149.336 179.678C148.763 180.42 148.557 181.286 148.713 182.275C148.869 183.264 149.331 184.024 150.106 184.554C150.874 185.085 151.788 185.27 152.852 185.102ZM150.819 183.796C150.266 183.399 149.932 182.838 149.816 182.101C149.699 181.364 149.844 180.728 150.249 180.18C150.653 179.632 151.208 179.305 151.92 179.193C152.632 179.08 153.261 179.22 153.814 179.617C154.368 180.014 154.701 180.575 154.818 181.312C154.934 182.049 154.789 182.685 154.385 183.233C153.98 183.781 153.425 184.108 152.713 184.22C152.001 184.333 151.372 184.193 150.819 183.796ZM163.858 183.366C164.495 183.266 165.011 183.062 165.414 182.746C165.811 182.438 166.059 182.089 166.158 181.693L166.259 181.677L166.275 181.778C166.342 182.206 166.351 182.547 166.308 182.805L167.675 182.59C167.54 182.308 167.413 181.792 167.294 181.036L166.883 178.427C166.626 176.802 165.446 176.155 163.342 176.487C162.901 176.557 162.442 176.681 161.966 176.853C161.489 177.025 161.134 177.184 160.891 177.326L161.029 178.201C161.176 178.068 161.473 177.905 161.921 177.712C162.362 177.52 162.819 177.39 163.285 177.316C164.772 177.082 165.609 177.557 165.797 178.747L165.966 179.818L165.84 179.838C165.626 179.51 165.282 179.248 164.806 179.058C164.324 178.87 163.782 178.826 163.17 178.923C162.32 179.057 161.684 179.364 161.263 179.85C160.843 180.336 160.682 180.91 160.786 181.572C160.889 182.227 161.22 182.723 161.769 183.056C162.32 183.396 163.014 183.499 163.858 183.366ZM164.167 182.497C163.531 182.598 163.006 182.545 162.605 182.337C162.198 182.13 161.96 181.812 161.893 181.384C161.824 180.949 161.952 180.574 162.27 180.253C162.587 179.931 163.07 179.72 163.713 179.618C164.33 179.521 164.871 179.591 165.328 179.828C165.785 180.066 166.038 180.362 166.095 180.721C166.168 181.181 166.028 181.565 165.682 181.871C165.338 182.184 164.828 182.393 164.167 182.497ZM171.014 182.063C170.859 181.655 170.729 181.12 170.625 180.459L169.711 174.663C169.607 174.007 169.567 173.465 169.589 173.029L168.184 173.25C168.328 173.634 168.458 174.169 168.564 174.843L169.478 180.639C169.587 181.326 169.628 181.875 169.609 182.285L171.014 182.063ZM174.403 181.528C174.248 181.12 174.119 180.585 174.014 179.924L173.1 174.128C172.997 173.473 172.956 172.93 172.978 172.494L171.573 172.716C171.718 173.1 171.847 173.635 171.954 174.309L172.868 180.105C172.976 180.792 173.018 181.34 172.998 181.75L174.403 181.528ZM182.941 180.356C183.458 180.275 183.898 180.115 184.255 179.884L184.102 178.914C183.794 179.13 183.416 179.274 182.975 179.343C181.936 179.507 181.381 179.098 181.199 177.945L180.7 174.782L183.352 174.364L183.22 173.526L180.568 173.944L180.16 171.361L179.112 171.837L179.471 174.117L177.871 174.37L178.003 175.208L179.604 174.955L180.151 178.426C180.395 179.97 181.322 180.611 182.941 180.356ZM186.877 179.561C186.746 179.304 186.626 178.826 186.513 178.114L186.21 176.27C186.15 175.892 186.193 175.511 186.338 175.12C186.484 174.735 186.727 174.393 187.062 174.101C187.397 173.81 187.788 173.625 188.229 173.556C189.52 173.352 190.395 173.944 190.609 175.298L190.939 177.396C191.03 177.97 191.063 178.468 191.042 178.904L192.453 178.681C192.298 178.273 192.173 177.764 192.074 177.14L191.722 174.91C191.433 173.076 190.249 172.243 188.492 172.52C187.2 172.724 186.337 173.518 186.093 174.752L185.986 174.768L185.574 172.16C185.462 171.448 185.421 170.9 185.452 170.527L184.035 170.75C184.17 171.077 184.299 171.606 184.415 172.343L185.329 178.139C185.447 178.883 185.488 179.431 185.46 179.784L186.877 179.561ZM198.068 177.97C198.622 177.883 199.167 177.732 199.695 177.52C200.224 177.313 200.621 177.089 200.882 176.861L200.714 175.874C200.504 176.139 200.161 176.381 199.685 176.598C199.203 176.816 198.685 176.969 198.124 177.057C197.28 177.19 196.525 177.071 195.854 176.705C195.183 176.34 194.786 175.789 194.657 175.054L194.72 175.005C195.637 175.37 196.64 175.47 197.724 175.299C199.809 174.97 200.663 174.281 200.457 172.976C200.354 172.321 199.965 171.821 199.291 171.482C198.618 171.142 197.765 171.057 196.726 171.221C195.667 171.388 194.842 171.848 194.244 172.601C193.646 173.353 193.428 174.221 193.582 175.197C193.74 176.199 194.234 176.954 195.07 177.468C195.901 177.989 196.902 178.154 198.068 177.97ZM197.298 174.689C196.826 174.763 196.345 174.781 195.867 174.74C195.389 174.699 194.962 174.612 194.597 174.469C194.589 173.844 194.801 173.307 195.236 172.87C195.671 172.434 196.196 172.163 196.82 172.065C197.469 171.963 198.039 172.015 198.531 172.228C199.023 172.441 199.297 172.746 199.359 173.137C199.485 173.937 198.798 174.452 197.298 174.689ZM207.554 176.299C207.413 176.018 207.286 175.541 207.178 174.854L206.887 173.008C206.827 172.63 206.864 172.25 206.996 171.861C207.123 171.479 207.354 171.14 207.676 170.85C207.998 170.56 208.376 170.378 208.817 170.308C210.058 170.112 210.807 170.763 211.014 172.08L211.345 174.177C211.452 174.852 211.498 175.348 211.479 175.68L212.859 175.463C212.704 175.054 212.58 174.557 212.488 173.971L212.191 172.088C212.146 171.72 212.191 171.352 212.332 170.974C212.473 170.603 212.699 170.277 213.023 169.994C213.34 169.711 213.713 169.536 214.135 169.47C215.376 169.274 216.124 169.924 216.332 171.241L216.663 173.339C216.753 173.912 216.786 174.41 216.765 174.846L218.17 174.625C218.025 174.241 217.899 173.725 217.797 173.082L217.446 170.852C217.163 169.063 216.086 168.167 214.378 168.437C213.074 168.642 212.193 169.44 211.942 170.674L211.841 170.69C211.355 169.572 210.416 169.062 209.08 169.272C207.789 169.476 207.021 170.217 206.77 171.49L206.65 171.509L206.574 171.03C206.497 170.539 206.487 170.146 206.549 169.846L205.119 170.072C205.255 170.399 205.378 170.896 205.484 171.564L206.035 175.06C206.133 175.684 206.165 176.17 206.137 176.523L207.554 176.299ZM223.722 173.923C224.276 173.836 224.821 173.685 225.349 173.473C225.878 173.267 226.275 173.043 226.536 172.814L226.368 171.827C226.158 172.093 225.815 172.334 225.339 172.551C224.857 172.769 224.339 172.922 223.778 173.011C222.934 173.144 222.179 173.024 221.508 172.658C220.837 172.293 220.44 171.742 220.311 171.007L220.374 170.958C221.291 171.324 222.294 171.424 223.378 171.253C225.463 170.924 226.317 170.234 226.111 168.93C226.008 168.275 225.619 167.774 224.945 167.435C224.272 167.096 223.419 167.011 222.38 167.175C221.321 167.342 220.496 167.801 219.898 168.554C219.3 169.307 219.082 170.174 219.236 171.151C219.394 172.152 219.888 172.907 220.724 173.421C221.555 173.942 222.556 174.107 223.722 173.923ZM222.952 170.642C222.48 170.717 221.998 170.734 221.521 170.693C221.043 170.653 220.616 170.565 220.251 170.422C220.243 169.797 220.455 169.26 220.89 168.824C221.325 168.387 221.85 168.117 222.474 168.018C223.123 167.916 223.693 167.968 224.185 168.181C224.677 168.394 224.951 168.7 225.013 169.09C225.139 169.89 224.452 170.405 222.952 170.642ZM229.869 172.779C229.728 172.498 229.601 172.021 229.493 171.334L229.201 169.488C229.142 169.11 229.179 168.73 229.311 168.341C229.438 167.96 229.669 167.62 229.991 167.33C230.313 167.04 230.691 166.858 231.132 166.788C232.373 166.593 233.122 167.243 233.329 168.56L233.66 170.658C233.767 171.332 233.813 171.828 233.794 172.16L235.174 171.943C235.019 171.534 234.895 171.037 234.803 170.451L234.506 168.568C234.461 168.2 234.506 167.832 234.646 167.454C234.788 167.083 235.014 166.757 235.338 166.474C235.655 166.191 236.027 166.016 236.449 165.95C237.691 165.754 238.439 166.404 238.647 167.721L238.977 169.819C239.068 170.392 239.101 170.89 239.08 171.326L240.485 171.105C240.34 170.721 240.214 170.205 240.112 169.562L239.76 167.332C239.478 165.543 238.401 164.647 236.693 164.917C235.389 165.122 234.508 165.92 234.257 167.154L234.156 167.17C233.67 166.052 232.731 165.542 231.395 165.753C230.103 165.956 229.336 166.697 229.085 167.97L228.965 167.989L228.889 167.51C228.812 167.019 228.802 166.626 228.864 166.326L227.434 166.552C227.569 166.879 227.693 167.376 227.798 168.044L228.35 171.54C228.448 172.164 228.48 172.65 228.451 173.003L229.869 172.779ZM245.69 170.458C246.749 170.291 247.561 169.834 248.135 169.091C248.702 168.349 248.908 167.484 248.752 166.495C248.596 165.506 248.134 164.746 247.372 164.214C246.604 163.683 245.69 163.498 244.631 163.665C243.56 163.834 242.742 164.292 242.174 165.034C241.601 165.776 241.395 166.642 241.551 167.631C241.707 168.62 242.169 169.38 242.943 169.91C243.712 170.441 244.625 170.626 245.69 170.458ZM243.657 169.152C243.103 168.755 242.77 168.194 242.653 167.457C242.537 166.72 242.682 166.083 243.086 165.535C243.491 164.987 244.046 164.661 244.758 164.549C245.47 164.436 246.099 164.576 246.652 164.973C247.206 165.37 247.539 165.931 247.656 166.668C247.772 167.405 247.627 168.041 247.223 168.589C246.818 169.137 246.263 169.464 245.551 169.576C244.839 169.688 244.21 169.549 243.657 169.152ZM252.322 169.238C252.192 168.981 252.081 168.565 251.988 167.98L251.687 166.071C251.582 165.403 251.724 164.786 252.112 164.221C252.501 163.657 252.998 163.326 253.596 163.232C254.006 163.167 254.479 163.222 254.712 163.347L254.541 162.263C254.26 162.198 253.943 162.196 253.59 162.251C252.45 162.431 251.719 163.322 251.566 164.689L251.472 164.703L251.368 164.048C251.292 163.563 251.289 163.137 251.355 162.778L249.9 163.008C250.034 163.368 250.151 163.866 250.252 164.502L250.805 168.011C250.899 168.603 250.936 169.088 250.918 169.459L252.322 169.238ZM256.676 160.286C256.793 160.126 256.836 159.945 256.805 159.749C256.741 159.346 256.39 159.085 255.943 159.156C255.495 159.226 255.229 159.585 255.293 159.988C255.324 160.183 255.42 160.342 255.586 160.458C255.753 160.574 255.947 160.614 256.167 160.579C256.388 160.545 256.56 160.447 256.676 160.286ZM258.119 168.323C257.972 167.966 257.842 167.431 257.73 166.719L257.149 163.04C257.069 162.529 257.034 162.141 257.051 161.88C256.944 161.981 256.735 162.052 256.427 162.101C256.118 162.15 255.892 162.147 255.734 162.088C255.825 162.299 255.916 162.672 256.003 163.22L256.583 166.9C256.69 167.574 256.725 168.123 256.695 168.548L258.119 168.323ZM263.664 167.623C264.219 167.535 264.763 167.385 265.291 167.173C265.821 166.966 266.218 166.742 266.479 166.514L266.31 165.527C266.1 165.792 265.757 166.034 265.282 166.251C264.799 166.469 264.281 166.622 263.72 166.71C262.876 166.843 262.121 166.723 261.45 166.358C260.779 165.992 260.382 165.442 260.253 164.706L260.317 164.658C261.233 165.023 262.237 165.123 263.32 164.952C265.406 164.623 266.259 163.934 266.053 162.629C265.95 161.974 265.561 161.474 264.888 161.134C264.214 160.795 263.362 160.71 262.322 160.874C261.264 161.041 260.439 161.501 259.841 162.253C259.243 163.006 259.024 163.874 259.178 164.85C259.336 165.852 259.83 166.607 260.667 167.121C261.498 167.642 262.499 167.807 263.664 167.623ZM262.895 164.341C262.422 164.416 261.941 164.434 261.463 164.393C260.985 164.352 260.558 164.265 260.193 164.122C260.185 163.497 260.398 162.96 260.832 162.523C261.267 162.087 261.793 161.816 262.416 161.718C263.065 161.616 263.635 161.668 264.127 161.881C264.619 162.094 264.893 162.399 264.955 162.79C265.081 163.59 264.394 164.105 262.895 164.341ZM270.846 166.49C271.659 166.362 272.285 166.076 272.713 165.634C273.141 165.198 273.313 164.693 273.224 164.126C273.169 163.78 273.042 163.503 272.845 163.282C272.449 162.854 271.887 162.729 271.25 162.662C269.989 162.532 268.577 162.748 268.434 161.841C268.343 161.261 268.889 160.755 269.866 160.601C270.294 160.533 270.725 160.524 271.164 160.564C271.598 160.612 271.958 160.684 272.244 160.781L272.095 159.836C271.771 159.745 271.387 159.683 270.943 159.656C270.5 159.629 270.077 159.651 269.68 159.713C268.88 159.84 268.278 160.115 267.869 160.548C267.453 160.982 267.289 161.459 267.372 161.982C267.464 162.568 267.805 162.967 268.244 163.13C268.684 163.299 269.256 163.409 269.805 163.407C270.917 163.457 272.017 163.432 272.153 164.295C272.255 164.944 271.692 165.427 270.653 165.591C270.18 165.665 269.658 165.67 269.091 165.598C268.519 165.533 268.042 165.415 267.647 165.245L267.812 166.291C268.2 166.417 268.685 166.502 269.272 166.538C269.86 166.581 270.386 166.563 270.846 166.49ZM275.779 163.213L274.907 156.416L273.603 156.622L274.865 163.357L275.779 163.213ZM275.716 165.722C276.145 165.654 276.414 165.276 276.354 164.892C276.29 164.488 275.926 164.229 275.492 164.298C275.044 164.369 274.778 164.727 274.842 165.13C274.902 165.514 275.269 165.792 275.716 165.722Z" fill="#C02B4A"/>
</svg>
