<svg width="272" height="169" viewBox="0 0 272 169" fill="none" xmlns="http://www.w3.org/2000/svg">
<g filter="url(#filter0_d_2675_4266)">
<mask id="path-1-outside-1_2675_4266" maskUnits="userSpaceOnUse" x="-3.94792" y="-2.33329" width="148.28" height="143.248" fill="black">
<rect fill="white" x="-3.94792" y="-2.33329" width="148.28" height="143.248"/>
<path fill-rule="evenodd" clip-rule="evenodd" d="M40.229 34.5627C40.1457 34.4785 40.0621 34.3942 39.9783 34.3098C31.3068 25.5829 15.3765 17.7952 11.4507 21.6961C4.29574 28.8057 9.71485 47.0379 18.3863 55.7647C19.0668 56.4495 19.7764 57.085 20.51 57.6714C14.4728 68.584 11.6228 79.9133 12.828 87.8507C15.4123 104.871 45.9493 129.423 78.2749 124.515C110.601 119.607 132.474 87.0974 129.89 70.0769C128.718 62.3602 122.935 52.7197 114.34 44.2606C115.125 43.2105 115.839 42.0798 116.468 40.8728C122.159 29.9654 121.922 10.9463 112.979 6.28096C108.072 3.72114 95.1716 15.8864 89.4813 26.7938C89.3185 27.1058 89.1575 27.4166 88.9986 27.726C80.8115 24.6229 71.9874 23.2475 63.104 24.5963C54.6143 25.8853 46.9149 29.5342 40.229 34.5627Z"/>
</mask>
<path fill-rule="evenodd" clip-rule="evenodd" d="M40.229 34.5627C40.1457 34.4785 40.0621 34.3942 39.9783 34.3098C31.3068 25.5829 15.3765 17.7952 11.4507 21.6961C4.29574 28.8057 9.71485 47.0379 18.3863 55.7647C19.0668 56.4495 19.7764 57.085 20.51 57.6714C14.4728 68.584 11.6228 79.9133 12.828 87.8507C15.4123 104.871 45.9493 129.423 78.2749 124.515C110.601 119.607 132.474 87.0974 129.89 70.0769C128.718 62.3602 122.935 52.7197 114.34 44.2606C115.125 43.2105 115.839 42.0798 116.468 40.8728C122.159 29.9654 121.922 10.9463 112.979 6.28096C108.072 3.72114 95.1716 15.8864 89.4813 26.7938C89.3185 27.1058 89.1575 27.4166 88.9986 27.726C80.8115 24.6229 71.9874 23.2475 63.104 24.5963C54.6143 25.8853 46.9149 29.5342 40.229 34.5627Z" fill="#E8BB52"/>
<path d="M39.9783 34.3098L44.0196 30.2941L44.0196 30.2941L39.9783 34.3098ZM40.229 34.5627L36.1795 38.5702L39.6783 42.1056L43.6535 39.1158L40.229 34.5627ZM11.4507 21.6961L7.43498 17.6548L7.43498 17.6548L11.4507 21.6961ZM18.3863 55.7647L22.4277 51.749L22.4277 51.749L18.3863 55.7647ZM20.51 57.6714L25.4952 60.4293L27.8225 56.2226L24.0671 53.221L20.51 57.6714ZM114.34 44.2606L109.776 40.8509L106.8 44.8337L110.344 48.321L114.34 44.2606ZM116.468 40.8728L111.417 38.2377L111.417 38.2377L116.468 40.8728ZM112.979 6.28096L115.614 1.22979L115.614 1.22979L112.979 6.28096ZM89.4813 26.7938L94.5324 29.429L94.5324 29.429L89.4813 26.7938ZM88.9986 27.726L86.9794 33.0534L91.7406 34.8581L94.0666 30.3286L88.9986 27.726ZM35.9369 38.3255C36.0181 38.4072 36.099 38.4888 36.1795 38.5702L44.2785 30.5552C44.1924 30.4681 44.1061 30.3811 44.0196 30.2941L35.9369 38.3255ZM15.4664 25.7375C14.4224 26.7749 13.6997 26.166 15.5232 26.4318C16.9651 26.6419 19.0459 27.2925 21.5587 28.4456C26.5663 30.7436 32.134 34.4983 35.9369 38.3255L44.0196 30.2941C39.1511 25.3944 32.4179 20.8919 26.311 18.0895C23.2666 16.6924 20.0867 15.5821 17.1666 15.1565C14.628 14.7865 10.4419 14.667 7.43498 17.6548L15.4664 25.7375ZM22.4277 51.749C18.9385 48.2376 15.8676 42.4842 14.5282 36.8142C13.0963 30.7523 14.1001 27.0951 15.4664 25.7375L7.43498 17.6548C1.64629 23.4067 1.78224 32.4204 3.43898 39.4337C5.18825 46.8388 9.16268 54.565 14.345 59.7804L22.4277 51.749ZM24.0671 53.221C23.5021 52.7694 22.9542 52.2789 22.4277 51.749L14.345 59.7804C15.1793 60.6201 16.0508 61.4006 16.9529 62.1217L24.0671 53.221ZM18.4607 86.9955C17.5209 80.806 19.7614 70.7935 25.4952 60.4293L15.5248 54.9134C9.18421 66.3745 5.72477 79.0206 7.19532 88.7059L18.4607 86.9955ZM77.4197 118.882C62.9125 121.085 48.573 116.689 37.462 109.603C31.9265 106.072 27.3352 101.961 24.0302 97.8699C20.672 93.7132 18.9029 89.9079 18.4607 86.9955L7.19532 88.7059C8.04526 94.3038 11.0624 99.9501 15.1669 105.031C19.3245 110.177 24.8724 115.088 31.3349 119.209C44.2198 127.427 61.3117 132.853 79.1302 130.148L77.4197 118.882ZM124.257 70.9321C124.699 73.8445 124.139 78.0035 122.166 82.9696C120.224 87.8571 117.06 93.1461 112.822 98.1604C104.315 108.225 91.9269 116.68 77.4197 118.882L79.1302 130.148C96.9486 127.442 111.66 117.188 121.525 105.516C126.473 99.6616 130.313 93.3251 132.755 87.1767C135.167 81.1069 136.372 74.8195 135.522 69.2217L124.257 70.9321ZM110.344 48.321C118.499 56.3481 123.345 64.9256 124.257 70.9321L135.522 69.2217C134.091 59.7948 127.37 49.0912 118.336 40.2002L110.344 48.321ZM111.417 38.2377C110.93 39.1716 110.379 40.0434 109.776 40.8509L118.904 47.6703C119.87 46.3775 120.747 44.988 121.52 43.508L111.417 38.2377ZM110.344 11.3321C112.052 12.223 114.096 15.4174 114.528 21.6311C114.932 27.4433 113.707 33.8488 111.417 38.2377L121.52 43.508C124.92 36.9894 126.422 28.4317 125.895 20.8411C125.395 13.652 122.849 5.0043 115.614 1.22979L110.344 11.3321ZM94.5324 29.429C97.0279 24.6455 101.23 19.4073 105.33 15.7265C107.387 13.8796 109.181 12.6407 110.496 12.012C112.158 11.2169 111.649 12.0129 110.344 11.3321L115.614 1.22979C111.856 -0.730863 107.894 0.625785 105.58 1.73263C102.918 3.00582 100.211 5.01001 97.718 7.24777C92.7182 11.7365 87.6249 18.0347 84.4301 24.1587L94.5324 29.429ZM94.0666 30.3286C94.2195 30.031 94.3748 29.7311 94.5324 29.429L84.4301 24.1586C84.2622 24.4805 84.0956 24.8021 83.9306 25.1234L94.0666 30.3286ZM63.9592 30.229C71.7017 29.0534 79.5301 30.23 86.9794 33.0534L91.0178 22.3987C82.0929 19.0159 72.273 17.4416 62.2488 18.9636L63.9592 30.229ZM43.6535 39.1158C49.7237 34.5504 56.5593 31.3525 63.9592 30.229L62.2488 18.9636C52.6694 20.4181 44.1061 24.518 36.8046 30.0095L43.6535 39.1158Z" fill="white" mask="url(#path-1-outside-1_2675_4266)"/>
</g>
<mask id="path-3-outside-2_2675_4266" maskUnits="userSpaceOnUse" x="-1.87739" y="-0.0236224" width="143.725" height="138.693" fill="black">
<rect fill="white" x="-1.87739" y="-0.0236224" width="143.725" height="138.693"/>
<path fill-rule="evenodd" clip-rule="evenodd" d="M40.022 34.5948C39.9387 34.5106 39.8551 34.4263 39.7712 34.3419C31.0998 25.615 15.1695 17.8274 11.2436 21.7282C4.08871 28.8378 9.50782 47.07 18.1793 55.7968C18.8597 56.4816 19.5694 57.1171 20.303 57.7035C14.2658 68.6161 11.4158 79.9454 12.621 87.8828C15.2052 104.903 45.7422 129.455 78.0679 124.547C110.394 119.639 132.267 87.1295 129.683 70.109C128.511 62.3923 122.728 52.7518 114.133 44.2927C114.917 43.2426 115.632 42.1119 116.261 40.9049C121.952 29.9975 121.715 10.9784 112.772 6.31306C107.865 3.75325 94.9646 15.9185 89.2742 26.8259C89.1115 27.1379 88.9505 27.4487 88.7916 27.7581C80.6044 24.655 71.7803 23.2796 62.897 24.6284C54.4073 25.9174 46.7079 29.5663 40.022 34.5948Z"/>
</mask>
<path fill-rule="evenodd" clip-rule="evenodd" d="M40.022 34.5948C39.9387 34.5106 39.8551 34.4263 39.7712 34.3419C31.0998 25.615 15.1695 17.8274 11.2436 21.7282C4.08871 28.8378 9.50782 47.07 18.1793 55.7968C18.8597 56.4816 19.5694 57.1171 20.303 57.7035C14.2658 68.6161 11.4158 79.9454 12.621 87.8828C15.2052 104.903 45.7422 129.455 78.0679 124.547C110.394 119.639 132.267 87.1295 129.683 70.109C128.511 62.3923 122.728 52.7518 114.133 44.2927C114.917 43.2426 115.632 42.1119 116.261 40.9049C121.952 29.9975 121.715 10.9784 112.772 6.31306C107.865 3.75325 94.9646 15.9185 89.2742 26.8259C89.1115 27.1379 88.9505 27.4487 88.7916 27.7581C80.6044 24.655 71.7803 23.2796 62.897 24.6284C54.4073 25.9174 46.7079 29.5663 40.022 34.5948Z" fill="#E8BB52"/>
<path d="M39.7712 34.3419L42.4069 31.723L42.4069 31.723L39.7712 34.3419ZM40.022 34.5948L37.381 37.2084L39.6628 39.5141L42.2554 37.5642L40.022 34.5948ZM11.2436 21.7282L13.8626 24.3639L13.8626 24.3639L11.2436 21.7282ZM18.1793 55.7968L20.815 53.1779L20.815 53.1779L18.1793 55.7968ZM20.303 57.7035L23.5542 59.5021L25.072 56.7586L22.6228 54.8011L20.303 57.7035ZM114.133 44.2927L111.156 42.069L109.216 44.6665L111.527 46.9408L114.133 44.2927ZM116.261 40.9049L112.967 39.1863L112.967 39.1863L116.261 40.9049ZM112.772 6.31306L114.491 3.01882L114.491 3.01882L112.772 6.31306ZM89.2742 26.8259L92.5685 28.5445L92.5685 28.5445L89.2742 26.8259ZM88.7916 27.7582L87.4747 31.2325L90.5798 32.4095L92.0968 29.4555L88.7916 27.7582ZM37.1356 36.9608C37.2177 37.0435 37.2995 37.126 37.381 37.2084L42.663 31.9812C42.5778 31.8951 42.4925 31.8091 42.4069 31.723L37.1356 36.9608ZM13.8626 24.3639C13.5231 24.7013 13.6541 24.2191 15.602 24.503C17.301 24.7506 19.5729 25.4811 22.1782 26.6767C27.3769 29.0623 33.1473 32.9471 37.1356 36.9608L42.4069 31.723C37.7237 27.0098 31.1932 22.6373 25.2775 19.9227C22.3255 18.568 19.3368 17.5376 16.6738 17.1495C14.2595 16.7976 10.9271 16.8048 8.62471 19.0926L13.8626 24.3639ZM20.815 53.1779C17.0313 49.3701 13.8033 43.2737 12.3926 37.3018C10.9216 31.0745 11.7272 26.4857 13.8626 24.3639L8.62471 19.0926C3.60514 24.0803 3.54287 32.1624 5.16051 39.0102C6.8385 46.1136 10.6558 53.4967 15.5436 58.4158L20.815 53.1779ZM22.6228 54.8011C21.9992 54.3026 21.395 53.7617 20.815 53.1779L15.5436 58.4158C16.3244 59.2015 17.1396 59.9316 17.9832 60.6059L22.6228 54.8011ZM16.2944 87.3251C15.2624 80.5276 17.7149 70.0571 23.5542 59.5021L17.0518 55.9048C10.8167 67.1752 7.56924 79.3632 8.94748 88.4406L16.2944 87.3251ZM77.5101 120.874C62.4271 123.164 47.6089 118.589 36.1894 111.305C30.4927 107.672 25.735 103.422 22.2817 99.1473C18.7937 94.83 16.8075 90.7045 16.2944 87.3251L8.94748 88.4406C9.7265 93.5714 12.5266 98.8975 16.5013 103.817C20.5107 108.78 25.8921 113.552 32.1935 117.571C44.7699 125.592 61.3831 130.839 78.6257 128.221L77.5101 120.874ZM126.009 70.6668C126.522 74.0462 125.85 78.5753 123.801 83.7334C121.772 88.8402 118.49 94.3113 114.129 99.4717C105.386 109.816 92.5932 118.583 77.5101 120.874L78.6257 128.221C95.8682 125.603 110.175 115.661 119.804 104.269C124.629 98.5606 128.351 92.4063 130.707 86.4772C133.042 80.5993 134.135 74.6821 133.356 69.5513L126.009 70.6668ZM111.527 46.9408C119.835 55.1182 125.007 64.0654 126.009 70.6668L133.356 69.5513C132.015 60.7192 125.62 50.3854 116.739 41.6446L111.527 46.9408ZM112.967 39.1863C112.43 40.2152 111.823 41.1771 111.156 42.069L117.11 46.5165C118.012 45.308 118.833 44.0086 119.556 42.6235L112.967 39.1863ZM111.054 9.60731C113.722 10.9997 115.854 15.1425 116.298 21.5258C116.723 27.6473 115.45 34.4271 112.967 39.1863L119.556 42.6235C122.763 36.4753 124.217 28.2919 123.711 21.0106C123.223 13.9912 120.765 6.29183 114.491 3.01882L111.054 9.60731ZM92.5685 28.5445C95.1856 23.5279 99.5428 18.1054 103.799 14.2841C105.932 12.3691 107.885 10.9972 109.434 10.2564C111.21 9.40711 111.478 9.82868 111.054 9.60731L114.491 3.01882C111.613 1.51754 108.429 2.49983 106.228 3.55245C103.8 4.71355 101.252 6.58464 98.8348 8.75445C93.9915 13.1027 89.0532 19.2165 85.98 25.1073L92.5685 28.5445ZM92.0968 29.4555C92.2518 29.1538 92.409 28.8501 92.5685 28.5445L85.98 25.1073C85.8139 25.4257 85.6492 25.7436 85.4863 26.0608L92.0968 29.4555ZM63.4547 28.3019C71.5941 27.0661 79.7687 28.3118 87.4747 31.2325L90.1085 24.2838C81.4401 20.9982 71.9666 19.4932 62.3392 20.9549L63.4547 28.3019ZM42.2554 37.5642C48.5397 32.8377 55.6758 29.483 63.4547 28.3019L62.3392 20.9549C53.1388 22.3519 44.876 26.2948 37.7886 31.6253L42.2554 37.5642Z" fill="#4A291F" mask="url(#path-3-outside-2_2675_4266)"/>
<path fill-rule="evenodd" clip-rule="evenodd" d="M73.5222 115.914C87.3619 114.718 97.7044 103.389 96.6228 90.6107C95.5412 77.8324 83.445 68.4436 69.6053 69.6402C55.7655 70.8367 45.423 82.1655 46.5046 94.9437C47.5863 107.722 59.6824 117.111 73.5222 115.914Z" fill="white"/>
<path d="M98.7923 30.6698C98.1403 31.9196 98.2136 35.079 105.221 38.7346C112.228 42.3903 113.797 40.2436 114.513 38.8712C118.938 30.3899 117.898 13.0449 113.12 10.5522C110.386 9.12569 103.217 22.1885 98.7923 30.6698Z" fill="#FFFFFB"/>
<path d="M98.7923 30.6698C98.1403 31.9196 98.2136 35.079 105.221 38.7346C112.228 42.3903 113.797 40.2436 114.513 38.8712C118.938 30.3899 117.898 13.0449 113.12 10.5522C110.386 9.12569 103.217 22.1885 98.7923 30.6698Z" fill="#FFFFFB"/>
<path d="M31.8229 40.838C32.8165 41.8379 33.6842 44.8767 28.0778 50.4475C22.4714 56.0183 20.3361 54.4341 19.245 53.336C12.5024 46.5503 8.34652 29.6785 12.1695 25.8798C14.3572 23.706 25.0802 34.0523 31.8229 40.838Z" fill="#FFFFFB"/>
<ellipse cx="48.2076" cy="70.8287" rx="7.43116" ry="7.30731" transform="rotate(-8.63345 48.2076 70.8287)" fill="#4A291F"/>
<circle cx="48.2961" cy="69.5628" r="2.1055" transform="rotate(-8.63345 48.2961 69.5628)" fill="white"/>
<ellipse cx="43.5399" cy="56.158" rx="5.69722" ry="3.83943" transform="rotate(-18.224 43.5399 56.158)" fill="#FFFFFB"/>
<ellipse rx="5.69722" ry="3.83943" transform="matrix(-0.999861 -0.016703 -0.016703 0.999861 88.8469 49.279)" fill="#FFFFFB"/>
<ellipse cx="89.1052" cy="64.6193" rx="7.18346" ry="7.0596" transform="rotate(-8.63345 89.1052 64.6193)" fill="#4A291F"/>
<path d="M79.568 79.3463C80.1328 83.0658 74.2534 88.797 72.157 89.1153C70.0605 89.4337 62.745 85.7058 62.1802 81.9864C61.6155 78.2669 68.0154 75.9642 70.1119 75.6459C72.2083 75.3276 79.0033 75.6268 79.568 79.3463Z" fill="#4A291F"/>
<path d="M56.7461 95.7144C57.9139 96.8733 61.1133 99.06 64.5682 98.5354C68.8869 97.8797 70.6753 94.8114 72.9668 94.4634C75.2584 94.1155 77.8769 96.5147 82.1956 95.859C85.6505 95.3344 88.0566 92.2966 88.8278 90.8433" stroke="#4A291F" stroke-width="2.97246" stroke-linecap="round" stroke-linejoin="round"/>
<path d="M73.1139 94.6069L71.8125 86.0354" stroke="#4A291F" stroke-width="2.97246" stroke-linecap="round" stroke-linejoin="round"/>
<circle cx="89.1946" cy="63.3531" r="2.1055" transform="rotate(-8.63345 89.1946 63.3531)" fill="white"/>
<circle cx="110.285" cy="70.9476" r="4.4587" transform="rotate(-8.63345 110.285 70.9476)" fill="#F5CDCD"/>
<circle cx="29.4662" cy="83.2182" r="4.4587" transform="rotate(-8.63345 29.4662 83.2182)" fill="#F5CDCD"/>
<path d="M15.7998 67.9279C38.0542 56.329 93.566 47.3279 121.197 55.2989C121.631 55.4241 122.065 55.144 122.128 54.697C122.619 51.1965 123.331 43.74 123.071 35.8042C123.06 35.4572 122.803 35.1645 122.462 35.1022C59.685 23.652 7.45304 50.2644 7.33545 52.7799C7.24522 54.71 12.0823 63.1453 14.8315 67.6531C15.0364 67.9891 15.4508 68.1098 15.7998 67.9279Z" fill="#324A59" stroke="#272525" stroke-width="3.71558"/>
<path d="M52.8209 51.0087C51.0773 48.853 50.0507 43.6241 51.3274 41.3684C51.4545 41.1436 51.6656 40.9914 51.9071 40.9002C57.5567 38.7675 71.6919 36.7544 77.5987 37.0549C77.7019 37.0602 77.8015 37.0719 77.8793 37.1401C78.8028 37.9496 80.3625 44.4241 79.4738 46.9766C79.3857 47.2295 79.1936 47.4217 78.9542 47.5418C74.4774 49.7891 58.5949 52.2018 53.5264 51.4064C53.2488 51.3628 52.9976 51.2272 52.8209 51.0087Z" fill="#C4C4C4"/>
<path fill-rule="evenodd" clip-rule="evenodd" d="M70.6229 40.2579C70.7678 40.1527 70.8 39.9499 70.6948 39.805C70.5896 39.6601 70.3868 39.6279 70.2419 39.7331L67.4445 41.764C67.3907 41.803 67.2938 41.8135 67.1972 41.7532C65.8169 40.8909 63.6507 40.9606 62.3393 42.7754C62.0833 43.1295 61.9215 43.5752 61.8417 44.0561L59.7514 46.361C59.3214 46.8352 59.5848 47.5972 60.2158 47.7047L63.6897 48.2963C63.7999 48.3219 63.9148 48.3413 64.0315 48.3553C64.3537 48.3938 64.7133 48.3931 65.0727 48.3514C65.7766 48.2698 66.5486 48.0218 67.021 47.5251C67.523 46.9973 67.8436 46.3476 67.9613 45.7272C68.0773 45.1151 68.0028 44.4807 67.638 44.0364C67.3005 43.6253 66.7147 43.3409 66.1246 43.2688C65.5285 43.196 64.8577 43.3334 64.3995 43.8628C64.3214 43.953 64.2715 44.0588 64.2467 44.1663C64.195 44.3902 64.1488 44.708 64.1739 45.0042C64.197 45.276 64.2949 45.6705 64.6707 45.8259C64.9522 45.9424 65.2753 45.9478 65.5377 45.9227C65.8059 45.8971 66.0519 45.8355 66.204 45.7834C66.3734 45.7255 66.4638 45.5411 66.4058 45.3717C66.3478 45.2022 66.1634 45.1119 65.994 45.1699C65.8863 45.2067 65.6901 45.2568 65.4761 45.2772C65.2562 45.2981 65.057 45.2839 64.9186 45.2267C64.905 45.2211 64.8395 45.1778 64.8201 44.9494C64.8028 44.7451 64.8352 44.4999 64.8786 44.3122C64.8817 44.2986 64.8867 44.2908 64.8899 44.2871C65.1644 43.9699 65.5909 43.857 66.046 43.9126C66.507 43.9689 66.9262 44.1915 67.1368 44.4479C67.3354 44.6899 67.4198 45.1019 67.3241 45.6064C67.23 46.1026 66.9683 46.6395 66.5511 47.0782C66.2316 47.4141 65.6396 47.6328 64.998 47.7073C64.6846 47.7436 64.3761 47.7433 64.1085 47.7114C64.022 47.701 63.942 47.6876 63.8691 47.6719C63.8554 47.6676 63.8413 47.6642 63.8268 47.6618L63.8192 47.6605C63.6955 47.6305 63.5943 47.5935 63.5186 47.5532C62.9723 47.1254 62.5992 46.3181 62.4749 45.4356C62.4218 45.0592 62.4165 44.6869 62.456 44.3434C62.5317 44.251 62.5481 44.1279 62.5078 44.0223C62.5794 43.6827 62.6996 43.384 62.8649 43.1552L62.8649 43.1552C63.9505 41.6529 65.7236 41.5973 66.8536 42.3032C67.1327 42.4776 67.5208 42.51 67.8255 42.2888L70.6229 40.2579ZM61.7893 45.0793L60.2318 46.7966C60.1458 46.8915 60.1985 47.0439 60.3247 47.0654L62.5423 47.443C62.1626 46.8951 61.9285 46.2059 61.8327 45.5261C61.8119 45.3785 61.7973 45.229 61.7893 45.0793Z" fill="#272525"/>
<circle cx="53.6685" cy="42.9641" r="0.743116" transform="rotate(-8.63345 53.6685 42.9641)" fill="#272525"/>
<circle cx="77.1831" cy="46.1214" r="0.743116" transform="rotate(171.367 77.1831 46.1214)" fill="#272525"/>
<circle cx="53.9068" cy="46.1845" r="0.743116" transform="rotate(-8.63345 53.9068 46.1845)" fill="#272525"/>
<circle cx="76.9428" cy="42.9009" r="0.743116" transform="rotate(171.367 76.9428 42.9009)" fill="#272525"/>
<circle cx="54.6353" cy="49.3313" r="0.743116" transform="rotate(-8.63345 54.6353 49.3313)" fill="#272525"/>
<circle cx="76.2143" cy="39.7538" r="0.743116" transform="rotate(171.367 76.2143 39.7538)" fill="#272525"/>
<path d="M254.325 116.463C248.497 140.295 223.341 158.35 187.292 149.534C169.193 145.108 156.492 136.822 149.148 126.316C141.815 115.827 139.728 102.996 143.087 89.2594C149.342 63.6842 178.99 49.3996 209.93 56.966C240.87 64.5324 260.579 90.8879 254.325 116.463Z" fill="#D1D2D7" stroke="black" stroke-width="2.40243"/>
<g filter="url(#filter1_f_2675_4266)">
<ellipse cx="198.503" cy="103.88" rx="26.0263" ry="22.0223" transform="rotate(13.7422 198.503 103.88)" fill="#676575"/>
</g>
<mask id="path-31-outside-3_2675_4266" maskUnits="userSpaceOnUse" x="37.3789" y="112.483" width="194" height="48" fill="black">
<rect fill="white" x="37.3789" y="112.483" width="194" height="48"/>
<path d="M51.4091 144.666C53.1996 144.394 54.7519 143.935 56.0639 143.274C57.3643 142.629 58.3424 141.796 59.0098 140.757C59.6792 139.733 59.9116 138.593 59.7186 137.322C59.2247 134.069 56.5197 133.291 53.595 133.092C49.9545 132.875 45.9896 133.561 45.7065 131.605C45.5301 130.443 47.0011 129.632 49.5023 129.253C50.8691 129.045 52.2376 129.033 53.6195 129.201C55.0013 129.368 56.1243 129.673 57.0137 130.098L56.1587 124.466C55.2143 124.232 54.0457 124.088 52.6669 124.032C51.2743 123.978 49.9141 124.044 48.5746 124.248C43.4271 124.973 39.8307 127.994 40.4478 131.69C41.5829 139.166 53.8903 134.208 54.3738 137.392C54.5374 138.654 52.8456 139.484 50.5042 139.812C48.9324 140.05 47.3116 140.059 45.6146 139.841C43.9175 139.623 42.447 139.147 41.1913 138.429L41.8513 144.341C43.154 144.633 44.7335 144.813 46.6032 144.878C48.4729 144.944 50.0696 144.869 51.4091 144.666Z"/>
<path d="M69.008 141.589C68.458 140.176 67.9972 138.246 67.6236 135.786L66.4324 127.941C66.0589 125.48 65.9261 123.501 66.0321 121.989L59.8815 122.922C60.4568 124.317 60.9313 126.245 61.3069 128.719L62.4981 136.564C62.8737 139.038 62.9928 141.02 62.8574 142.522L69.008 141.589Z"/>
<path d="M78.603 140.132C78.0529 138.719 77.5921 136.789 77.2186 134.329L76.1395 127.222L76.3582 127.189L84.0976 139.297L85.6967 139.055L89.5205 125.19L89.7938 125.149L90.873 132.256C91.2403 134.675 91.3751 136.668 91.2596 138.21L97.4239 137.274C96.8652 135.989 96.3907 134.061 95.9985 131.478L94.8073 123.632C94.4151 121.049 94.296 119.067 94.448 117.674L87.532 118.724L85.072 128.033C85.0306 128.221 84.9649 128.525 84.8631 128.96C84.7498 129.41 84.684 129.714 84.6426 129.902C84.6013 130.09 84.545 130.364 84.4697 130.697C84.337 131.389 84.2539 131.947 84.1547 132.675L83.895 132.714C83.3538 131.636 82.5871 130.27 81.5771 128.591L76.5018 120.399L69.4765 121.466C70.0518 122.86 70.5263 124.788 70.9019 127.262L72.0931 135.107C72.4687 137.581 72.5878 139.563 72.4524 141.066L78.603 140.132Z"/>
<path d="M106.978 135.823C106.432 134.438 105.979 132.563 105.618 130.185L105.05 126.258L105.269 126.225C105.76 127.618 106.655 128.629 107.953 129.257C109.252 129.899 110.695 130.099 112.294 129.856C114.222 129.564 115.696 128.683 116.706 127.229C117.702 125.777 118.033 123.909 117.683 121.599C117.328 119.262 116.037 117.486 114.271 116.538C112.505 115.59 110.289 115.269 107.952 115.624L97.8513 117.157C98.4267 118.552 98.9011 120.48 99.2767 122.954L100.468 130.799C100.844 133.273 100.963 135.255 100.827 136.757L106.978 135.823ZM109.543 126.471C108.86 126.575 108.181 126.524 107.491 126.307C106.8 126.09 106.167 125.697 105.617 125.109C105.068 124.535 104.708 123.821 104.55 122.964L104.274 121.146C105.222 120.848 106.467 120.576 107.984 120.345C109.255 120.152 110.312 120.299 111.139 120.775C111.953 121.253 112.44 121.976 112.583 122.919C112.718 123.807 112.5 124.582 111.916 125.244C111.331 125.906 110.541 126.319 109.543 126.471Z"/>
<path d="M153.959 142.582C155.517 142.964 156.929 143.182 158.211 143.24C159.478 143.294 160.749 143.221 162.032 143.038L163.454 137.237C162.494 137.728 161.362 138.048 160.092 138.178C158.805 138.318 157.49 138.224 156.161 137.898C154.872 137.582 153.763 137.111 152.832 136.498C151.887 135.882 151.192 135.114 150.752 134.18C150.295 133.257 150.2 132.252 150.467 131.164C150.846 129.62 151.796 128.529 153.316 127.905C154.835 127.281 156.602 127.216 158.629 127.713C159.677 127.97 160.661 128.368 161.592 128.924C162.523 129.479 163.257 130.086 163.823 130.738L165.217 125.4C164.501 124.84 163.59 124.318 162.477 123.803C161.365 123.288 160.17 122.881 158.921 122.575C156.598 122.006 154.268 121.99 152.101 122.64C151.013 122.957 150.029 123.427 149.14 124.035C147.345 125.26 145.916 127.315 145.284 129.893C143.658 136.526 148.239 141.18 153.959 142.582Z"/>
<path d="M170.302 146.175C170.332 144.66 170.641 142.7 171.234 140.283L171.793 138.001L179.675 139.933L179.115 142.215C178.519 144.646 177.874 146.523 177.176 147.861L183.232 149.345C183.261 147.716 183.561 145.739 184.124 143.443L186.013 135.736C186.576 133.44 187.224 131.549 187.952 130.091L181.896 128.606C181.897 130.115 181.601 132.078 181.005 134.508L180.435 136.831L172.554 134.899L173.123 132.576C173.716 130.159 174.347 128.279 175.022 126.921L168.98 125.44C168.98 126.949 168.684 128.911 168.088 131.342L166.198 139.049C165.603 141.479 164.957 143.356 164.259 144.694L170.302 146.175Z"/>
<path d="M190.536 151.136C190.804 150.276 191.399 149.127 192.311 147.671L192.884 146.9L200.054 148.658L200.179 149.6C200.331 151.359 200.324 152.667 200.163 153.496L206.232 154.984C205.884 153.56 205.576 151.449 205.312 148.638L204.126 140.177C203.974 138.36 204.109 136.358 204.521 134.153L195.632 131.974C194.995 134.052 194.158 135.897 193.156 137.487L188.205 144.444C186.864 146.549 185.614 148.278 184.454 149.645L190.536 151.136ZM197.16 140.49C197.43 140.086 197.985 139.098 198.83 137.512L199.098 137.577C199.082 139.21 199.118 140.344 199.181 140.957L199.902 145.504L194.451 144.167L197.16 140.49Z"/>
<path d="M216.41 157.479C218.357 157.956 220.151 158.012 221.823 157.639C223.494 157.266 224.932 156.451 226.137 155.195C227.342 153.939 228.196 152.312 228.693 150.284C229.19 148.257 229.188 146.406 228.701 144.735C227.713 141.39 225.011 139.176 221.13 138.225L212.134 136.019C212.134 137.528 211.838 139.491 211.243 141.921L209.353 149.628C208.757 152.059 208.112 153.936 207.414 155.274L216.41 157.479ZM216.479 142.337L220.077 143.219C221.353 143.531 222.335 144.228 223.01 145.304C223.672 146.378 223.839 147.614 223.497 149.01C223.154 150.407 222.435 151.426 221.348 152.085C220.248 152.74 219.055 152.903 217.779 152.591L214.181 151.709L216.479 142.337Z"/>
</mask>
<path d="M51.4091 144.666C53.1996 144.394 54.7519 143.935 56.0639 143.274C57.3643 142.629 58.3424 141.796 59.0098 140.757C59.6792 139.733 59.9116 138.593 59.7186 137.322C59.2247 134.069 56.5197 133.291 53.595 133.092C49.9545 132.875 45.9896 133.561 45.7065 131.605C45.5301 130.443 47.0011 129.632 49.5023 129.253C50.8691 129.045 52.2376 129.033 53.6195 129.201C55.0013 129.368 56.1243 129.673 57.0137 130.098L56.1587 124.466C55.2143 124.232 54.0457 124.088 52.6669 124.032C51.2743 123.978 49.9141 124.044 48.5746 124.248C43.4271 124.973 39.8307 127.994 40.4478 131.69C41.5829 139.166 53.8903 134.208 54.3738 137.392C54.5374 138.654 52.8456 139.484 50.5042 139.812C48.9324 140.05 47.3116 140.059 45.6146 139.841C43.9175 139.623 42.447 139.147 41.1913 138.429L41.8513 144.341C43.154 144.633 44.7335 144.813 46.6032 144.878C48.4729 144.944 50.0696 144.869 51.4091 144.666Z" fill="#C33D59"/>
<path d="M69.008 141.589C68.458 140.176 67.9972 138.246 67.6236 135.786L66.4324 127.941C66.0589 125.48 65.9261 123.501 66.0321 121.989L59.8815 122.922C60.4568 124.317 60.9313 126.245 61.3069 128.719L62.4981 136.564C62.8737 139.038 62.9928 141.02 62.8574 142.522L69.008 141.589Z" fill="#C33D59"/>
<path d="M78.603 140.132C78.0529 138.719 77.5921 136.789 77.2186 134.329L76.1395 127.222L76.3582 127.189L84.0976 139.297L85.6967 139.055L89.5205 125.19L89.7938 125.149L90.873 132.256C91.2403 134.675 91.3751 136.668 91.2596 138.21L97.4239 137.274C96.8652 135.989 96.3907 134.061 95.9985 131.478L94.8073 123.632C94.4151 121.049 94.296 119.067 94.448 117.674L87.532 118.724L85.072 128.033C85.0306 128.221 84.9649 128.525 84.8631 128.96C84.7498 129.41 84.684 129.714 84.6426 129.902C84.6013 130.09 84.545 130.364 84.4697 130.697C84.337 131.389 84.2539 131.947 84.1547 132.675L83.895 132.714C83.3538 131.636 82.5871 130.27 81.5771 128.591L76.5018 120.399L69.4765 121.466C70.0518 122.86 70.5263 124.788 70.9019 127.262L72.0931 135.107C72.4687 137.581 72.5878 139.563 72.4524 141.066L78.603 140.132Z" fill="#C33D59"/>
<path d="M106.978 135.823C106.432 134.438 105.979 132.563 105.618 130.185L105.05 126.258L105.269 126.225C105.76 127.618 106.655 128.629 107.953 129.257C109.252 129.899 110.695 130.099 112.294 129.856C114.222 129.564 115.696 128.683 116.706 127.229C117.702 125.777 118.033 123.909 117.683 121.599C117.328 119.262 116.037 117.486 114.271 116.538C112.505 115.59 110.289 115.269 107.952 115.624L97.8513 117.157C98.4267 118.552 98.9011 120.48 99.2767 122.954L100.468 130.799C100.844 133.273 100.963 135.255 100.827 136.757L106.978 135.823ZM109.543 126.471C108.86 126.575 108.181 126.524 107.491 126.307C106.8 126.09 106.167 125.697 105.617 125.109C105.068 124.535 104.708 123.821 104.55 122.964L104.274 121.146C105.222 120.848 106.467 120.576 107.984 120.345C109.255 120.152 110.312 120.299 111.139 120.775C111.953 121.253 112.44 121.976 112.583 122.919C112.718 123.807 112.5 124.582 111.916 125.244C111.331 125.906 110.541 126.319 109.543 126.471Z" fill="#C33D59"/>
<path d="M153.959 142.582C155.517 142.964 156.929 143.182 158.211 143.24C159.478 143.294 160.749 143.221 162.032 143.038L163.454 137.237C162.494 137.728 161.362 138.048 160.092 138.178C158.805 138.318 157.49 138.224 156.161 137.898C154.872 137.582 153.763 137.111 152.832 136.498C151.887 135.882 151.192 135.114 150.752 134.18C150.295 133.257 150.2 132.252 150.467 131.164C150.846 129.62 151.796 128.529 153.316 127.905C154.835 127.281 156.602 127.216 158.629 127.713C159.677 127.97 160.661 128.368 161.592 128.924C162.523 129.479 163.257 130.086 163.823 130.738L165.217 125.4C164.501 124.84 163.59 124.318 162.477 123.803C161.365 123.288 160.17 122.881 158.921 122.575C156.598 122.006 154.268 121.99 152.101 122.64C151.013 122.957 150.029 123.427 149.14 124.035C147.345 125.26 145.916 127.315 145.284 129.893C143.658 136.526 148.239 141.18 153.959 142.582Z" fill="#C33D59"/>
<path d="M170.302 146.175C170.332 144.66 170.641 142.7 171.234 140.283L171.793 138.001L179.675 139.933L179.115 142.215C178.519 144.646 177.874 146.523 177.176 147.861L183.232 149.345C183.261 147.716 183.561 145.739 184.124 143.443L186.013 135.736C186.576 133.44 187.224 131.549 187.952 130.091L181.896 128.606C181.897 130.115 181.601 132.078 181.005 134.508L180.435 136.831L172.554 134.899L173.123 132.576C173.716 130.159 174.347 128.279 175.022 126.921L168.98 125.44C168.98 126.949 168.684 128.911 168.088 131.342L166.198 139.049C165.603 141.479 164.957 143.356 164.259 144.694L170.302 146.175Z" fill="#C33D59"/>
<path d="M190.536 151.136C190.804 150.276 191.399 149.127 192.311 147.671L192.884 146.9L200.054 148.658L200.179 149.6C200.331 151.359 200.324 152.667 200.163 153.496L206.232 154.984C205.884 153.56 205.576 151.449 205.312 148.638L204.126 140.177C203.974 138.36 204.109 136.358 204.521 134.153L195.632 131.974C194.995 134.052 194.158 135.897 193.156 137.487L188.205 144.444C186.864 146.549 185.614 148.278 184.454 149.645L190.536 151.136ZM197.16 140.49C197.43 140.086 197.985 139.098 198.83 137.512L199.098 137.577C199.082 139.21 199.118 140.344 199.181 140.957L199.902 145.504L194.451 144.167L197.16 140.49Z" fill="#C33D59"/>
<path d="M216.41 157.479C218.357 157.956 220.151 158.012 221.823 157.639C223.494 157.266 224.932 156.451 226.137 155.195C227.342 153.939 228.196 152.312 228.693 150.284C229.19 148.257 229.188 146.406 228.701 144.735C227.713 141.39 225.011 139.176 221.13 138.225L212.134 136.019C212.134 137.528 211.838 139.491 211.243 141.921L209.353 149.628C208.757 152.059 208.112 153.936 207.414 155.274L216.41 157.479ZM216.479 142.337L220.077 143.219C221.353 143.531 222.335 144.228 223.01 145.304C223.672 146.378 223.839 147.614 223.497 149.01C223.154 150.407 222.435 151.426 221.348 152.085C220.248 152.74 219.055 152.903 217.779 152.591L214.181 151.709L216.479 142.337Z" fill="#C33D59"/>
<path d="M51.4091 144.666C53.1996 144.394 54.7519 143.935 56.0639 143.274C57.3643 142.629 58.3424 141.796 59.0098 140.757C59.6792 139.733 59.9116 138.593 59.7186 137.322C59.2247 134.069 56.5197 133.291 53.595 133.092C49.9545 132.875 45.9896 133.561 45.7065 131.605C45.5301 130.443 47.0011 129.632 49.5023 129.253C50.8691 129.045 52.2376 129.033 53.6195 129.201C55.0013 129.368 56.1243 129.673 57.0137 130.098L56.1587 124.466C55.2143 124.232 54.0457 124.088 52.6669 124.032C51.2743 123.978 49.9141 124.044 48.5746 124.248C43.4271 124.973 39.8307 127.994 40.4478 131.69C41.5829 139.166 53.8903 134.208 54.3738 137.392C54.5374 138.654 52.8456 139.484 50.5042 139.812C48.9324 140.05 47.3116 140.059 45.6146 139.841C43.9175 139.623 42.447 139.147 41.1913 138.429L41.8513 144.341C43.154 144.633 44.7335 144.813 46.6032 144.878C48.4729 144.944 50.0696 144.869 51.4091 144.666Z" stroke="white" stroke-width="4.49729" mask="url(#path-31-outside-3_2675_4266)"/>
<path d="M69.008 141.589C68.458 140.176 67.9972 138.246 67.6236 135.786L66.4324 127.941C66.0589 125.48 65.9261 123.501 66.0321 121.989L59.8815 122.922C60.4568 124.317 60.9313 126.245 61.3069 128.719L62.4981 136.564C62.8737 139.038 62.9928 141.02 62.8574 142.522L69.008 141.589Z" stroke="white" stroke-width="4.49729" mask="url(#path-31-outside-3_2675_4266)"/>
<path d="M78.603 140.132C78.0529 138.719 77.5921 136.789 77.2186 134.329L76.1395 127.222L76.3582 127.189L84.0976 139.297L85.6967 139.055L89.5205 125.19L89.7938 125.149L90.873 132.256C91.2403 134.675 91.3751 136.668 91.2596 138.21L97.4239 137.274C96.8652 135.989 96.3907 134.061 95.9985 131.478L94.8073 123.632C94.4151 121.049 94.296 119.067 94.448 117.674L87.532 118.724L85.072 128.033C85.0306 128.221 84.9649 128.525 84.8631 128.96C84.7498 129.41 84.684 129.714 84.6426 129.902C84.6013 130.09 84.545 130.364 84.4697 130.697C84.337 131.389 84.2539 131.947 84.1547 132.675L83.895 132.714C83.3538 131.636 82.5871 130.27 81.5771 128.591L76.5018 120.399L69.4765 121.466C70.0518 122.86 70.5263 124.788 70.9019 127.262L72.0931 135.107C72.4687 137.581 72.5878 139.563 72.4524 141.066L78.603 140.132Z" stroke="white" stroke-width="4.49729" mask="url(#path-31-outside-3_2675_4266)"/>
<path d="M106.978 135.823C106.432 134.438 105.979 132.563 105.618 130.185L105.05 126.258L105.269 126.225C105.76 127.618 106.655 128.629 107.953 129.257C109.252 129.899 110.695 130.099 112.294 129.856C114.222 129.564 115.696 128.683 116.706 127.229C117.702 125.777 118.033 123.909 117.683 121.599C117.328 119.262 116.037 117.486 114.271 116.538C112.505 115.59 110.289 115.269 107.952 115.624L97.8513 117.157C98.4267 118.552 98.9011 120.48 99.2767 122.954L100.468 130.799C100.844 133.273 100.963 135.255 100.827 136.757L106.978 135.823ZM109.543 126.471C108.86 126.575 108.181 126.524 107.491 126.307C106.8 126.09 106.167 125.697 105.617 125.109C105.068 124.535 104.708 123.821 104.55 122.964L104.274 121.146C105.222 120.848 106.467 120.576 107.984 120.345C109.255 120.152 110.312 120.299 111.139 120.775C111.953 121.253 112.44 121.976 112.583 122.919C112.718 123.807 112.5 124.582 111.916 125.244C111.331 125.906 110.541 126.319 109.543 126.471Z" stroke="white" stroke-width="4.49729" mask="url(#path-31-outside-3_2675_4266)"/>
<path d="M153.959 142.582C155.517 142.964 156.929 143.182 158.211 143.24C159.478 143.294 160.749 143.221 162.032 143.038L163.454 137.237C162.494 137.728 161.362 138.048 160.092 138.178C158.805 138.318 157.49 138.224 156.161 137.898C154.872 137.582 153.763 137.111 152.832 136.498C151.887 135.882 151.192 135.114 150.752 134.18C150.295 133.257 150.2 132.252 150.467 131.164C150.846 129.62 151.796 128.529 153.316 127.905C154.835 127.281 156.602 127.216 158.629 127.713C159.677 127.97 160.661 128.368 161.592 128.924C162.523 129.479 163.257 130.086 163.823 130.738L165.217 125.4C164.501 124.84 163.59 124.318 162.477 123.803C161.365 123.288 160.17 122.881 158.921 122.575C156.598 122.006 154.268 121.99 152.101 122.64C151.013 122.957 150.029 123.427 149.14 124.035C147.345 125.26 145.916 127.315 145.284 129.893C143.658 136.526 148.239 141.18 153.959 142.582Z" stroke="white" stroke-width="4.49729" mask="url(#path-31-outside-3_2675_4266)"/>
<path d="M170.302 146.175C170.332 144.66 170.641 142.7 171.234 140.283L171.793 138.001L179.675 139.933L179.115 142.215C178.519 144.646 177.874 146.523 177.176 147.861L183.232 149.345C183.261 147.716 183.561 145.739 184.124 143.443L186.013 135.736C186.576 133.44 187.224 131.549 187.952 130.091L181.896 128.606C181.897 130.115 181.601 132.078 181.005 134.508L180.435 136.831L172.554 134.899L173.123 132.576C173.716 130.159 174.347 128.279 175.022 126.921L168.98 125.44C168.98 126.949 168.684 128.911 168.088 131.342L166.198 139.049C165.603 141.479 164.957 143.356 164.259 144.694L170.302 146.175Z" stroke="white" stroke-width="4.49729" mask="url(#path-31-outside-3_2675_4266)"/>
<path d="M190.536 151.136C190.804 150.276 191.399 149.127 192.311 147.671L192.884 146.9L200.054 148.658L200.179 149.6C200.331 151.359 200.324 152.667 200.163 153.496L206.232 154.984C205.884 153.56 205.576 151.449 205.312 148.638L204.126 140.177C203.974 138.36 204.109 136.358 204.521 134.153L195.632 131.974C194.995 134.052 194.158 135.897 193.156 137.487L188.205 144.444C186.864 146.549 185.614 148.278 184.454 149.645L190.536 151.136ZM197.16 140.49C197.43 140.086 197.985 139.098 198.83 137.512L199.098 137.577C199.082 139.21 199.118 140.344 199.181 140.957L199.902 145.504L194.451 144.167L197.16 140.49Z" stroke="white" stroke-width="4.49729" mask="url(#path-31-outside-3_2675_4266)"/>
<path d="M216.41 157.479C218.357 157.956 220.151 158.012 221.823 157.639C223.494 157.266 224.932 156.451 226.137 155.195C227.342 153.939 228.196 152.312 228.693 150.284C229.19 148.257 229.188 146.406 228.701 144.735C227.713 141.39 225.011 139.176 221.13 138.225L212.134 136.019C212.134 137.528 211.838 139.491 211.243 141.921L209.353 149.628C208.757 152.059 208.112 153.936 207.414 155.274L216.41 157.479ZM216.479 142.337L220.077 143.219C221.353 143.531 222.335 144.228 223.01 145.304C223.672 146.378 223.839 147.614 223.497 149.01C223.154 150.407 222.435 151.426 221.348 152.085C220.248 152.74 219.055 152.903 217.779 152.591L214.181 151.709L216.479 142.337Z" stroke="white" stroke-width="4.49729" mask="url(#path-31-outside-3_2675_4266)"/>
<path d="M252.824 90.5771C255.328 86.5178 259.957 76.2453 258.436 67.6295C256.536 56.8596 233.284 67.6614 229.61 70.885" stroke="black" stroke-width="2.40243" stroke-linecap="round"/>
<path d="M243.456 81.691C247.337 80.9913 249.398 79.3086 243.439 78.3892C237.481 77.4697 234.788 76.6855 237.779 72.8828C240.668 69.2084 251.44 64.2546 256.283 64.3118" stroke="black" stroke-width="2.40243" stroke-linecap="round" stroke-linejoin="round"/>
<path d="M156.624 67.0513C156.275 62.2946 156.91 51.0455 162.236 44.1037C168.892 35.4264 184.534 55.74 186.306 60.2953" stroke="black" stroke-width="2.40243" stroke-linecap="round"/>
<path d="M169.036 63.4921C165.916 61.0802 164.865 58.6367 170.575 60.5708C176.285 62.5048 179.037 63.0523 178.138 58.2983C177.27 53.705 170.001 44.3394 165.678 42.1547" stroke="black" stroke-width="2.40243" stroke-linecap="round" stroke-linejoin="round"/>
<path d="M250.679 64.1483C241.993 64.7402 232.678 69.9905 229.105 72.5416C226.987 73.9147 225.426 78.5936 224.91 80.7614L242.919 85.1656C243.055 84.4445 243.199 82.926 242.689 82.6203C242.051 82.2381 242.113 80.7739 242.961 80.5809C243.809 80.3879 246.05 79.9787 245.639 79.8783C245.311 79.7979 242.635 79.422 241.339 79.2441C239.924 79.1069 238.229 78.5705 237.558 78.3195C235.852 77.5426 235.349 76.3468 235.311 75.846C235.275 70.584 245.542 65.855 250.679 64.1483Z" fill="#D1D2D7"/>
<path d="M170.721 44.5939C178.153 49.1276 183.995 58.0847 185.986 61.9965C187.232 64.1924 186.458 69.0637 185.915 71.2248L167.906 66.8206C168.118 66.1183 168.691 64.7048 169.285 64.6689C170.027 64.6241 170.647 63.2964 169.984 62.734C169.321 62.1715 167.522 60.7742 167.933 60.8746C168.261 60.955 170.808 61.8562 172.041 62.2968C173.359 62.8279 175.11 63.1345 175.821 63.2214C177.694 63.3196 178.692 62.4909 178.957 62.0642C181.416 57.4124 174.491 48.4791 170.721 44.5939Z" fill="#D1D2D7"/>
<path d="M257.531 72.9222C256.918 80.2693 253.211 90.1917 252.579 88.6132C251.948 87.0346 249.462 82.7316 248.149 80.7766C248.66 79.7009 248.023 78.9205 247.692 78.649C247.091 77.8349 244.595 77.3506 243.371 77.2259C239.052 76.4937 237.877 75.8584 237.829 75.6323C237.27 74.7576 239.47 72.6374 240.501 71.865C246.978 67.0111 253.181 65.6884 256.152 65.4862C257.549 66.3995 257.682 70.8155 257.531 72.9222Z" fill="#F9ADAD"/>
<path d="M160.595 49.2165C157.748 56.0173 156.458 66.5307 157.746 65.4216C159.035 64.3125 163.227 61.6428 165.294 60.5143C165.337 59.3242 166.262 58.9258 166.681 58.8376C167.59 58.3929 170.027 59.1149 171.171 59.5693C175.34 60.9128 176.676 60.8918 176.823 60.7133C177.722 60.195 176.749 57.2989 176.191 56.1381C172.685 48.8429 167.793 44.8067 165.25 43.2559C163.589 43.4215 161.434 47.2779 160.595 49.2165Z" fill="#F9ADAD"/>
<path d="M197.671 106.721C195.277 109.14 191.219 109.35 192.446 109.249C193.58 109.526 190.543 116.195 195.082 117.305C199.618 118.414 200.195 111.144 201.329 111.421C199.67 110.014 198.914 109.829 197.671 106.721Z" fill="#ED8686" stroke="black" stroke-width="1.9457"/>
<path d="M198.699 103.33C197.733 105.709 197.498 110.882 204.291 112.543" stroke="black" stroke-width="2.40243" stroke-linecap="round"/>
<path d="M198.491 103.279C198.25 105.836 196.07 110.533 189.278 108.872" stroke="black" stroke-width="2.40243" stroke-linecap="round"/>
<path d="M194.286 100.563L193.704 99.8956L192.798 100.685L193.704 99.8956C193.503 99.6658 193.34 99.4061 193.22 99.1258C192.273 96.9125 194.26 94.5678 196.599 95.1398L204.132 96.9821C206.526 97.5676 207.165 100.672 205.197 102.155C205.011 102.295 204.809 102.413 204.595 102.505L203.987 102.767C200.618 104.219 196.696 103.329 194.286 100.563Z" fill="#202329" stroke="black" stroke-width="2.40243"/>
<ellipse rx="5.31534" ry="3.82659" transform="matrix(0.99942 0.0937702 -0.136183 0.987302 183.512 75.9363)" fill="#FFFFFB"/>
<ellipse rx="5.31534" ry="3.82659" transform="matrix(-0.89614 -0.435088 -0.436005 0.903653 224.605 87.402)" fill="#FFFFFB"/>
<path d="M155.247 75.768C178.896 73.9791 229.316 87.4662 249.287 105.448C249.63 105.757 250.168 105.68 250.418 105.284C252.313 102.279 256.033 95.8117 259.138 88.5377C259.272 88.2253 259.17 87.8642 258.898 87.6666C210.782 52.7553 155.56 56.4862 154.403 58.7222C153.518 60.4336 154.044 69.931 154.466 75.1047C154.499 75.5075 154.838 75.7989 155.247 75.768Z" fill="#324A59" stroke="#272525" stroke-width="3.71558"/>
<path d="M193.498 74.8757C192.945 72.2432 194.265 67.1425 196.274 65.578C196.487 65.4119 196.755 65.3515 197.023 65.3652C202.698 65.6538 215.391 69.3319 220.245 71.9064C220.342 71.9573 220.431 72.0146 220.468 72.116C220.889 73.2488 219.491 79.6649 217.681 81.6385C217.496 81.8408 217.235 81.9461 216.961 81.9616C212.218 82.229 197.929 78.2438 193.958 75.5479C193.723 75.3886 193.556 75.1525 193.498 74.8757Z" fill="#C4C4C4"/>
<path fill-rule="evenodd" clip-rule="evenodd" d="M213.05 72.0959C213.226 72.0548 213.338 71.8811 213.299 71.7079C213.261 71.5346 213.087 71.4275 212.911 71.4685L209.743 72.2073C209.675 72.2232 209.575 72.1919 209.511 72.0891C208.691 70.7774 206.828 70.0106 204.962 71.1424C204.597 71.3644 204.273 71.7058 204.004 72.1107L201.257 73.392C200.689 73.6568 200.609 74.4228 201.112 74.7781L203.788 76.6698C203.872 76.7376 203.963 76.8015 204.057 76.861C204.315 77.0236 204.622 77.165 204.946 77.2687C205.579 77.4716 206.345 77.5499 206.961 77.2801C207.61 76.996 208.153 76.5311 208.511 76.0169C208.864 75.5096 209.066 74.9113 208.946 74.3707C208.834 73.8665 208.459 73.3744 207.983 73.0731C207.502 72.7678 206.864 72.6274 206.244 72.9331C206.138 72.9855 206.052 73.0617 205.987 73.1478C205.85 73.3302 205.678 73.5989 205.576 73.8749C205.483 74.1236 205.396 74.517 205.652 74.81C205.846 75.0314 206.123 75.1655 206.358 75.2466C206.599 75.3295 206.836 75.3703 206.989 75.3828C207.168 75.3974 207.328 75.2654 207.346 75.0879C207.364 74.9105 207.234 74.7548 207.054 74.7403C206.951 74.7319 206.768 74.7012 206.583 74.6374C206.392 74.5717 206.237 74.4839 206.15 74.3836C206.145 74.378 206.105 74.3097 206.187 74.0873C206.26 73.8922 206.392 73.6805 206.508 73.5268C206.516 73.5154 206.524 73.5105 206.527 73.5088C206.882 73.3337 207.274 73.3955 207.624 73.6176C207.981 73.8437 208.239 74.204 208.309 74.5194C208.375 74.8216 208.271 75.2348 207.976 75.6579C207.686 76.074 207.239 76.458 206.706 76.6915C206.304 76.8676 205.723 76.8364 205.157 76.655C204.881 76.5665 204.624 76.4471 204.414 76.3154C204.349 76.2738 204.289 76.2322 204.236 76.1912C204.225 76.1806 204.213 76.1707 204.2 76.1616L204.192 76.1559C204.104 76.0833 204.038 76.0133 203.993 75.9501C203.713 75.3488 203.737 74.4674 204.005 73.6137C204.119 73.249 204.272 72.9071 204.451 72.6095C204.555 72.5546 204.62 72.4513 204.627 72.3417C204.832 72.0592 205.06 71.8336 205.296 71.6902L205.296 71.6902C206.816 70.7681 208.296 71.3827 208.955 72.4353C209.135 72.7234 209.492 72.9256 209.882 72.8346L213.05 72.0959ZM203.52 73.0442L201.526 73.9741C201.413 74.0271 201.397 74.1803 201.497 74.2513L203.174 75.4366C203.086 74.7938 203.178 74.0822 203.382 73.4333C203.423 73.3026 203.469 73.1725 203.52 73.0442Z" fill="#272525"/>
<ellipse rx="0.691866" ry="0.741975" transform="matrix(0.963214 0.268735 -0.289623 0.957141 197.602 67.9254)" fill="#272525"/>
<ellipse rx="0.691866" ry="0.741975" transform="matrix(-0.963214 -0.268735 0.289623 -0.957141 216.101 79.9799)" fill="#272525"/>
<ellipse rx="0.691866" ry="0.741975" transform="matrix(0.963214 0.268735 -0.289623 0.957141 196.448 70.9407)" fill="#272525"/>
<ellipse rx="0.691866" ry="0.741975" transform="matrix(-0.963214 -0.268735 0.289623 -0.957141 217.252 76.9646)" fill="#272525"/>
<ellipse rx="0.691866" ry="0.741975" transform="matrix(0.963214 0.268735 -0.289623 0.957141 195.739 74.0802)" fill="#272525"/>
<ellipse rx="0.691866" ry="0.741975" transform="matrix(-0.963214 -0.268735 0.289623 -0.957141 217.961 73.825)" fill="#272525"/>
<path d="M196.875 70.9655C199.269 71.7623 201.714 72.356 204.124 73.115C205.128 73.4311 206.202 73.6469 207.237 73.853C208.082 74.0213 208.877 74.2831 209.702 74.5275C212.217 75.2723 214.741 75.8415 217.126 76.9467" stroke="#272525" stroke-width="1.37632" stroke-linecap="round"/>
<circle cx="177.444" cy="85.7075" r="12.0121" transform="rotate(13.7422 177.444 85.7075)" fill="#DBEEFF"/>
<circle cx="179.333" cy="86.1689" r="9.81679" transform="rotate(13.7422 179.333 86.1689)" fill="#84AAD7"/>
<circle cx="180.846" cy="86.5391" r="7.82865" transform="rotate(13.7422 180.846 86.5391)" fill="#231616"/>
<circle cx="225.746" cy="97.5197" r="12.0121" transform="rotate(13.7422 225.746 97.5197)" fill="#DBEEFF"/>
<circle cx="223.856" cy="97.0574" r="9.81679" transform="rotate(13.7422 223.856 97.0574)" fill="#84AAD7"/>
<circle cx="222.342" cy="96.688" r="7.82865" transform="rotate(13.7422 222.342 96.688)" fill="#231616"/>
<defs>
<filter id="filter0_d_2675_4266" x="1.45644" y="0.235229" width="135.327" height="132.596" filterUnits="userSpaceOnUse" color-interpolation-filters="sRGB">
<feFlood flood-opacity="0" result="BackgroundImageFix"/>
<feColorMatrix in="SourceAlpha" type="matrix" values="0 0 0 0 0 0 0 0 0 0 0 0 0 0 0 0 0 0 127 0" result="hardAlpha"/>
<feOffset dy="0.990822"/>
<feGaussianBlur stdDeviation="0.495411"/>
<feColorMatrix type="matrix" values="0 0 0 0 0 0 0 0 0 0 0 0 0 0 0 0 0 0 0.25 0"/>
<feBlend mode="normal" in2="BackgroundImageFix" result="effect1_dropShadow_2675_4266"/>
<feBlend mode="normal" in="SourceGraphic" in2="effect1_dropShadow_2675_4266" result="shape"/>
</filter>
<filter id="filter1_f_2675_4266" x="156.665" y="65.5905" width="83.6749" height="76.5786" filterUnits="userSpaceOnUse" color-interpolation-filters="sRGB">
<feFlood flood-opacity="0" result="BackgroundImageFix"/>
<feBlend mode="normal" in="SourceGraphic" in2="BackgroundImageFix" result="shape"/>
<feGaussianBlur stdDeviation="8.00809" result="effect1_foregroundBlur_2675_4266"/>
</filter>
</defs>
</svg>
