<svg width="261" height="192" viewBox="0 0 261 192" fill="none" xmlns="http://www.w3.org/2000/svg">
<path d="M19.4152 155.569C8.69247 135.742 16.0729 110.977 35.8998 100.254L215.254 3.25676C218.58 1.45811 222.734 2.69611 224.533 6.02192L256.849 65.7777C258.648 69.1035 257.41 73.2577 254.084 75.0564L74.7302 172.054C54.9033 182.777 30.1379 175.396 19.4152 155.569Z" fill="#FEB913"/>
<path d="M23.7354 152.934C14.1747 135.255 20.7553 113.174 38.4335 103.613L214.917 8.16799C216.99 7.04714 219.578 7.81862 220.699 9.89114L251.263 66.4044C252.383 68.4769 251.612 71.0656 249.539 72.1865L73.0557 167.632C55.3775 177.192 33.296 170.612 23.7354 152.934Z" stroke="black" stroke-width="2"/>
<path d="M43.0008 152.041C44.126 151.433 45.0481 150.756 45.7624 150.004C46.4727 149.264 46.9237 148.476 47.1193 147.627C47.3195 146.786 47.2016 145.973 46.7695 145.174C45.6639 143.129 43.6799 143.259 41.6881 143.825C39.2164 144.551 36.7446 145.955 36.0889 144.722C35.694 143.991 36.4781 143.101 38.0501 142.251C38.9091 141.786 39.8159 141.451 40.7746 141.233C41.7332 141.014 42.5526 140.948 43.2452 141.018L41.3313 137.479C40.6475 137.549 39.8363 137.732 38.9062 138.024C37.9675 138.321 37.0793 138.69 36.2375 139.146C32.9891 140.858 31.3203 143.726 32.6136 146.035C35.1547 150.734 42.151 144.496 43.2334 146.498C43.6436 147.297 42.7174 148.253 41.2392 149.031C40.2514 149.565 39.176 149.958 37.9958 150.218C36.8157 150.479 35.7244 150.514 34.7181 150.337L36.5696 154.109C37.5053 153.992 38.5982 153.734 39.8568 153.331C41.1154 152.928 42.159 152.497 43.0008 152.041ZM57.0823 144.104C56.4037 143.383 55.6277 142.215 54.7497 140.591L51.8277 135.188L53.7432 134.152C54.5678 133.706 55.3644 133.475 56.1369 133.446L53.6074 130.062L43.2652 135.656L44.7038 139.63C45.1682 138.99 45.8062 138.445 46.6222 138.004L48.6065 136.93L51.5285 142.333C52.3647 143.88 52.9259 145.164 53.2169 146.194L57.0823 144.104ZM68.8048 138.086C69.8012 137.547 70.6442 136.991 71.3422 136.414C72.0317 135.841 72.6622 135.201 73.2469 134.496L71.24 130.785C70.9702 131.497 70.5296 132.202 69.9263 132.872C69.3191 133.556 68.5859 134.13 67.7355 134.59C66.9109 135.036 66.1071 135.315 65.3289 135.436C64.542 135.562 63.8143 135.489 63.1412 135.209C62.4641 134.943 61.9374 134.462 61.5611 133.766C61.0268 132.778 61.0071 131.756 61.5066 130.709C62.006 129.662 62.9 128.79 64.197 128.088C64.867 127.726 65.571 127.467 66.3221 127.316C67.0732 127.165 67.7451 127.135 68.3504 127.207L66.5484 123.752C65.9076 123.799 65.1829 123.958 64.3566 124.216C63.5304 124.474 62.7115 124.828 61.9126 125.26C60.4266 126.064 59.199 127.161 58.3734 128.529C57.954 129.211 57.6623 129.923 57.4851 130.663C57.1267 132.156 57.3534 133.91 58.2454 135.559C60.5403 139.802 65.1455 140.065 68.8048 138.086ZM76.1706 121.18C76.7117 120.887 77.0536 120.513 77.2089 120.041C77.3688 119.577 77.3236 119.124 77.0774 118.669C76.8312 118.213 76.4722 117.919 75.9917 117.79C75.5113 117.661 75.0114 117.743 74.4703 118.036C73.9463 118.319 73.6044 118.693 73.4491 119.165C73.2939 119.638 73.3351 120.104 73.5813 120.559C73.8229 121.006 74.1859 121.287 74.6663 121.416C75.1467 121.545 75.6466 121.463 76.1706 121.18ZM83.3932 129.875C82.7053 129.136 81.9293 127.968 81.0606 126.362L79.272 123.055C78.8679 122.308 78.5903 121.692 78.4214 121.195C78.1874 121.665 77.6988 122.096 76.9514 122.5C76.2041 122.904 75.5503 123.092 74.9768 123.058C75.2492 123.376 75.6174 123.955 76.068 124.788L77.8565 128.095C78.7253 129.701 79.2779 130.99 79.5191 131.97L83.3932 129.875ZM89.515 126.886C90.9753 126.096 91.9784 125.22 92.5157 124.264C93.053 123.307 93.089 122.388 92.6106 121.503C90.822 118.196 85.2445 123.034 84.4827 121.625C84.2225 121.144 84.7511 120.458 85.8849 119.845C86.5721 119.473 87.3058 119.188 88.0819 119.001C88.8581 118.814 89.5061 118.719 90.0431 118.706L88.7285 116.275C87.2088 116.442 85.7684 116.899 84.4027 117.638C83.0025 118.395 82.0595 119.238 81.5566 120.176C81.0536 121.114 81.0155 121.968 81.4383 122.749C82.3488 124.433 84.1802 124.042 85.8948 123.415C87.6007 122.792 89.1813 121.937 89.5947 122.701C89.892 123.251 89.3621 123.893 88.0135 124.622C87.3692 124.971 86.5662 125.272 85.591 125.522C84.6073 125.776 83.7378 125.913 82.9739 125.938L84.4094 128.592C85.0753 128.51 85.9248 128.294 86.9626 127.955C87.9958 127.607 88.845 127.248 89.515 126.886ZM105.243 118.38C105.99 117.976 106.712 117.319 107.053 116.779L105.706 114.288C105.548 114.673 105.091 115.142 104.533 115.444C103.407 116.053 102.404 115.819 101.749 114.607L99.9601 111.3L103.07 109.619L102.336 108.261L99.2261 109.943L97.3214 106.421L94.7728 108.832L96.2454 111.555L94.4759 112.512L95.2099 113.869L96.9794 112.912L99.3672 117.328C100.71 119.81 102.967 119.611 105.243 118.38ZM112.393 114.191C112.11 113.956 111.778 113.547 111.392 112.956C111.01 112.374 110.673 111.813 110.385 111.28L109.662 109.984C109.314 109.339 109.239 108.647 109.443 107.915C109.638 107.188 110.092 106.631 110.787 106.255C112.136 105.526 113.409 105.97 114.175 107.387L114.923 108.77C115.518 109.87 115.973 110.978 116.284 112.087L120.115 110.015C119.412 109.207 118.691 108.121 117.943 106.738L117.065 105.114C116.391 103.869 115.523 103.084 114.455 102.751C113.386 102.418 112.217 102.596 110.954 103.279C109.176 104.24 108.428 105.711 108.697 107.686L108.499 107.793L107.394 105.748C106.553 104.193 106 102.905 105.731 101.873L101.883 103.954C102.567 104.706 103.334 105.879 104.198 107.476L106.865 112.407C107.729 114.005 108.29 115.289 108.544 116.272L112.393 114.191ZM127.646 106.264C128.462 105.823 129.244 105.3 129.998 104.681C130.752 104.063 131.28 103.521 131.584 103.035L130.241 100.675C130.109 101.191 129.768 101.73 129.218 102.294C128.673 102.867 128.032 103.346 127.311 103.736C125.354 104.839 122.966 104.654 122.171 103.285L122.263 103.147C123.547 103.285 124.961 102.942 126.498 102.111C128.981 100.768 129.843 99.3027 128.927 97.6105C128.477 96.7773 127.695 96.2344 126.618 96.0505C125.533 95.8712 124.011 96.2173 122.327 97.1278C120.609 98.0569 119.445 99.3528 118.981 100.692C118.517 102.031 118.633 103.456 119.334 104.753C120.082 106.136 121.21 106.969 122.731 107.257C124.252 107.544 125.885 107.216 127.646 106.264ZM124.713 101.622C123.639 102.202 122.663 102.43 121.773 102.324C121.574 101.709 121.612 101.123 121.895 100.559C122.183 100.003 122.624 99.5652 123.217 99.2447C123.861 98.8963 124.441 98.7378 124.975 98.76C125.513 98.7908 125.883 99.0017 126.092 99.3883C126.515 100.17 125.701 101.087 124.713 101.622ZM142.48 98.2413C143.941 97.4515 144.944 96.576 145.481 95.6192C146.018 94.6625 146.054 93.7438 145.576 92.859C143.787 89.5519 138.21 94.3891 137.448 92.9803C137.188 92.4993 137.716 91.8137 138.85 91.2005C139.537 90.8289 140.271 90.5431 141.047 90.3565C141.823 90.1699 142.471 90.0748 143.008 90.0619L141.694 87.631C140.174 87.7978 138.734 88.2548 137.368 88.9935C135.968 89.7507 135.025 90.5937 134.522 91.5319C134.019 92.47 133.981 93.3233 134.404 94.105C135.314 95.7886 137.145 95.3977 138.86 94.7702C140.566 94.1473 142.147 93.2925 142.56 94.057C142.857 94.6068 142.327 95.2487 140.979 95.978C140.335 96.3264 139.531 96.6275 138.556 96.8773C137.573 97.1318 136.703 97.2689 135.939 97.2935L137.375 99.9478C138.041 99.8652 138.89 99.65 139.928 99.3108C140.961 98.963 141.81 98.6036 142.48 98.2413ZM153.69 92.1788C154.437 91.7747 155.159 91.1179 155.5 90.5782L154.153 88.0871C153.995 88.4724 153.538 88.9415 152.98 89.2434C151.854 89.852 150.851 89.6177 150.196 88.4065L148.407 85.0994L151.517 83.4177L150.783 82.0605L147.673 83.7422L145.768 80.2204L143.22 82.6312L144.692 85.3542L142.923 86.3112L143.657 87.6684L145.426 86.7114L147.814 91.1266C149.157 93.6091 151.414 93.4099 153.69 92.1788ZM160.33 88.5878C162.074 87.6448 162.87 86.3258 162.755 85.0448L162.944 84.9426L163.028 85.0973C163.339 85.6728 163.498 86.1527 163.503 86.5502L167.102 84.6037C166.769 84.3172 166.438 83.9303 166.121 83.4467C165.795 82.9678 165.37 82.243 164.854 81.2895L163.688 79.1334C163.126 78.094 162.259 77.497 161.354 77.3426C160.901 77.2654 160.408 77.2769 159.865 77.3599C158.787 77.5431 157.812 77.9371 156.704 78.5363C156.051 78.8894 155.358 79.353 154.629 79.9139C153.896 80.488 153.369 80.9506 153.053 81.3103L154.167 83.3719C154.326 82.9867 154.669 82.5343 155.195 82.028C155.72 81.5218 156.327 81.0828 157.005 80.7158C157.864 80.2512 158.649 80.06 159.36 80.142C160.066 80.2373 160.617 80.6391 161.011 81.3692L161.555 82.3743L161.332 82.495C160.839 82.1176 160.221 81.919 159.473 81.9124C158.726 81.9058 157.933 82.1236 157.083 82.5835C155.94 83.2013 155.2 83.9679 154.858 84.8747C154.516 85.7815 154.588 86.6749 155.057 87.5425C155.527 88.4101 156.235 88.9597 157.186 89.1782C158.141 89.4053 159.188 89.2057 160.33 88.5878ZM160.779 86.1133C159.517 86.7962 158.463 86.6553 158.036 85.865C157.613 85.0833 158.081 84.1419 159.344 83.459C159.971 83.1199 160.556 82.97 161.095 83.0226C161.634 83.0752 161.999 83.2776 162.185 83.6212C162.631 84.4458 162.094 85.4025 160.779 86.1133ZM172.797 81.5237C172.523 81.2834 172.194 80.8614 171.795 80.2668C171.396 79.6723 171.063 79.1193 170.789 78.6125L170.083 77.3068C169.735 76.6626 169.665 75.9788 169.855 75.243C170.05 74.5157 170.496 73.964 171.192 73.5877C172.557 72.849 173.83 73.2932 174.597 74.7105L175.345 76.0935C175.939 77.193 176.394 78.3013 176.705 79.41L180.536 77.338C179.833 76.5304 179.112 75.4437 178.364 74.0607L177.486 72.4372C176.813 71.1917 175.944 70.4069 174.876 70.0742C173.799 69.7461 172.638 69.9188 171.375 70.6017C169.606 71.5587 168.849 73.0337 169.101 75.0182L168.903 75.125L168.713 74.7728C168.309 74.0255 168.098 73.3288 168.091 72.6998L164.209 74.7996C164.93 75.6197 165.623 76.6549 166.296 77.9004L167.685 80.4688C168.243 81.4996 168.674 82.5432 168.966 83.5956L172.797 81.5237ZM186.383 74.4979C187.294 74.0054 187.938 73.3686 188.318 72.5743C188.704 71.7885 188.843 70.9581 188.745 70.0786L188.951 69.9671L189.151 70.3365C189.481 70.9464 189.708 71.612 189.822 72.3162L193.653 70.2443C192.895 69.3772 192.115 68.2007 191.32 66.7318L188.654 61.8012C187.86 60.3323 187.302 59.035 186.991 57.9264L183.16 59.9983C183.938 60.9434 184.705 62.116 185.467 63.5247L186.573 65.5691L186.384 65.6713C185.696 65.0773 184.916 64.7222 184.03 64.624C183.144 64.5257 182.242 64.7251 181.322 65.2222C180.008 65.9329 179.187 67.043 178.964 68.2518C178.732 69.4652 178.977 70.8207 179.678 72.1178C180.147 72.9853 180.725 73.6834 181.419 74.2073C182.104 74.7358 182.874 75.0301 183.746 75.1026C184.623 75.1837 185.499 74.9764 186.383 74.4979ZM186.561 71.6039C185.797 72.0173 185.053 72.1199 184.33 71.9115C183.606 71.7032 183.045 71.2405 182.65 70.5104C182.265 69.7974 182.185 69.0747 182.406 68.3553C182.628 67.6359 183.121 67.0695 183.885 66.6561C184.616 66.2612 185.334 66.1726 186.053 66.3942C186.772 66.6158 187.32 67.0744 187.701 67.7788C188.059 68.4402 188.138 69.1412 187.935 69.8949C187.732 70.6486 187.274 71.2183 186.561 71.6039ZM199.053 67.6457C200.797 66.7026 201.594 65.3836 201.478 64.1027L201.667 64.0005L201.751 64.1551C202.062 64.7306 202.222 65.2105 202.226 65.608L205.825 63.6615C205.492 63.3751 205.161 62.9881 204.844 62.5045C204.518 62.0256 204.093 61.3008 203.577 60.3473L202.411 58.1913C201.849 57.1519 200.982 56.5549 200.077 56.4005C199.625 56.3232 199.131 56.3347 198.588 56.4177C197.51 56.6009 196.535 56.9949 195.427 57.5942C194.774 57.9472 194.081 58.4108 193.352 58.9717C192.619 59.5458 192.092 60.0085 191.776 60.3682L192.891 62.4298C193.049 62.0445 193.393 61.5922 193.918 61.0859C194.444 60.5796 195.05 60.1407 195.729 59.7737C196.588 59.3091 197.372 59.1178 198.083 59.1999C198.789 59.2952 199.34 59.697 199.735 60.4271L200.278 61.4321L200.055 61.5529C199.562 61.1755 198.944 60.9769 198.197 60.9703C197.449 60.9637 196.657 61.1814 195.806 61.6413C194.664 62.2592 193.924 63.0258 193.581 63.9326C193.239 64.8393 193.311 65.7328 193.781 66.6003C194.25 67.4679 194.958 68.0176 195.909 68.2361C196.864 68.4632 197.911 68.2635 199.053 67.6457ZM199.503 65.1712C198.24 65.8541 197.187 65.7131 196.759 64.9229C196.337 64.1412 196.804 63.1998 198.067 62.5169C198.694 62.1778 199.279 62.0279 199.818 62.0805C200.358 62.1331 200.722 62.3355 200.908 62.6791C201.354 63.5037 200.817 64.4604 199.503 65.1712ZM211.52 60.5815C210.995 60.144 210.46 59.4227 209.921 58.4263L209.16 57.0175C208.732 56.2273 208.653 55.4039 208.919 54.5608C209.185 53.7177 209.697 53.0851 210.453 52.6763C210.823 52.4765 211.229 52.3455 211.651 52.2839C212.073 52.2223 212.436 52.2368 212.731 52.3104L211.161 49.407C210.626 49.4853 210.124 49.6457 209.66 49.8965C208.037 50.7745 207.486 52.5269 208.159 54.6945L207.961 54.8013L207.608 54.1485C207.404 53.7706 207.233 53.3522 207.1 52.8802C206.971 52.4168 206.915 52.0253 206.926 51.6972L202.932 53.8574C203.617 54.6525 204.31 55.6877 205.002 56.9676L206.392 59.5359C206.977 60.6183 207.408 61.6619 207.689 62.6535L211.52 60.5815ZM221.052 55.7484C221.963 55.256 222.606 54.6192 222.987 53.8248C223.373 53.039 223.512 52.2087 223.414 51.3292L223.62 51.2177L223.82 51.5871C224.15 52.1969 224.376 52.8626 224.491 53.5668L228.322 51.4949C227.564 50.6278 226.784 49.4512 225.989 47.9824L223.323 43.0518C222.528 41.5829 221.971 40.2856 221.66 39.1769L217.829 41.2489C218.607 42.1939 219.374 43.3665 220.136 44.7753L221.242 46.8197L221.053 46.9219C220.365 46.3279 219.584 45.9728 218.699 45.8745C217.813 45.7763 216.91 45.9757 215.991 46.4727C214.677 47.1835 213.856 48.2935 213.633 49.5023C213.401 50.7158 213.645 52.0712 214.347 53.3683C214.816 54.2359 215.394 54.934 216.088 55.4579C216.773 55.9864 217.543 56.2806 218.415 56.3531C219.291 56.4342 220.167 56.2269 221.052 55.7484ZM221.23 52.8544C220.466 53.2679 219.722 53.3704 218.998 53.1621C218.275 52.9537 217.714 52.4911 217.319 51.761C216.934 51.048 216.853 50.3252 217.075 49.6059C217.297 48.8865 217.79 48.3201 218.554 47.9066C219.284 47.5118 220.002 47.4232 220.722 47.6447C221.441 47.8663 221.989 48.325 222.37 49.0294C222.728 49.6908 222.807 50.3918 222.604 51.1455C222.401 51.8992 221.943 52.4688 221.23 52.8544Z" fill="black"/>
</svg>
