<svg width="83" height="92" viewBox="0 0 83 92" fill="none" xmlns="http://www.w3.org/2000/svg">
<g clip-path="url(#clip0_2392_4181)">
<path d="M27.7601 72.3826C39.1655 65.9254 41.6396 56.9941 35.1823 45.5887M35.1823 45.5887C41.6396 56.9941 50.5709 59.4682 61.9763 53.011M54.554 79.8049C48.0968 68.3995 39.1655 65.9254 27.7601 72.3826M61.9763 53.011C50.5709 59.4682 48.0968 68.3995 54.554 79.8049" stroke="#FFD746" stroke-width="2.70748"/>
</g>
<g clip-path="url(#clip1_2392_4181)">
<path d="M30.888 37.4416C39.7439 32.4278 41.665 25.4928 36.6511 16.6369M36.6511 16.6369C41.665 25.4928 48.5999 27.4139 57.4559 22.4001M51.6927 43.2048C46.6788 34.3488 39.7439 32.4278 30.888 37.4416M57.4559 22.4001C48.5999 27.4139 46.6788 34.3488 51.6927 43.2048" stroke="#FFD746" stroke-width="2.70748"/>
</g>
<g clip-path="url(#clip2_2392_4181)">
<path d="M9.03025 35.3575C15.8735 31.4831 17.358 26.1243 13.4836 19.2811M13.4836 19.2811C17.358 26.1243 22.7168 27.6088 29.56 23.7345M25.1066 39.8108C21.2323 32.9676 15.8735 31.4831 9.03025 35.3575M29.56 23.7345C22.7168 27.6088 21.2323 32.9676 25.1066 39.8108" stroke="#FFD746" stroke-width="2.70748"/>
</g>
<defs>
<clipPath id="clip0_2392_4181">
<rect width="41.9407" height="41.9407" fill="white" transform="translate(36.9512 91.277) rotate(-119.517)"/>
</clipPath>
<clipPath id="clip1_2392_4181">
<rect width="32.5657" height="32.5657" fill="white" transform="translate(38.0254 52.1125) rotate(-119.517)"/>
</clipPath>
<clipPath id="clip2_2392_4181">
<rect width="25.1644" height="25.1644" fill="white" transform="translate(14.5449 46.6941) rotate(-119.517)"/>
</clipPath>
</defs>
</svg>
