<svg width="149" height="147" viewBox="0 0 149 147" fill="none" xmlns="http://www.w3.org/2000/svg">
<path d="M81.4913 42.8294L81.8394 44.7229L83.0275 43.2081L106.892 12.7831L95.4086 49.7061L94.8368 51.5444L96.5928 50.7553L131.863 34.9055L104.536 62.2628L103.175 63.6249L105.097 63.7422L143.693 66.0985L106.782 77.6229L104.945 78.1967L106.592 79.1935L139.671 99.2162L101.633 92.2675L99.7395 91.9216L100.735 93.5697L120.72 126.672L90.2684 102.842L88.7523 101.655L88.8674 103.577L91.1805 142.175L75.2911 106.923L74.5 105.168L73.7089 106.923L57.8195 142.175L60.1326 103.577L60.2477 101.655L58.7316 102.842L28.2799 126.672L48.2654 93.5697L49.2605 91.9216L47.3667 92.2675L9.32872 99.2162L42.4083 79.1935L44.0553 78.1967L42.2176 77.6229L5.3075 66.0985L43.903 63.7422L45.8246 63.6249L44.4641 62.2628L17.1375 34.9055L52.4072 50.7553L54.1632 51.5444L53.5914 49.7061L42.1085 12.7831L65.9725 43.2081L67.1606 44.7229L67.5087 42.8294L74.5 4.79932L81.4913 42.8294Z" fill="#06A462" stroke="#FFD746" stroke-width="1.73549"/>
</svg>
