<svg width="624" height="27" viewBox="0 0 624 27" fill="none" xmlns="http://www.w3.org/2000/svg">
<path d="M8.22461 26.5098C11.248 26.5098 13.375 26.1934 15.3438 25.209C18.2266 23.7852 19.668 20.9023 19.7383 15.5586V9.91602C19.7383 6.10156 20.0195 3.06055 20.5645 0.792969H10.668C11.2129 3.06055 11.4941 6.10156 11.4941 9.91602V13.9062C11.4941 15.6992 11.0547 17.1582 10.1934 18.3008C9.33203 19.4434 8.08398 20.0234 6.48438 20.0234C4.2168 20.0234 2.56445 19.1797 1.52734 17.5098L0.4375 24.9277C1.28125 25.3848 2.38867 25.7539 3.77734 26.0703C5.14844 26.3691 6.625 26.5098 8.22461 26.5098ZM36.7012 26.5098C40.4805 26.5098 43.7676 25.3672 46.2461 23.2402C48.707 21.1133 50.2012 17.6328 50.2012 13.3965C50.2012 10.0039 49.2344 7.06836 47.5996 5.01172C45.1035 1.90039 41.2012 0.300781 36.7012 0.300781C32.9043 0.300781 29.582 1.46094 27.1211 3.57031C24.6426 5.69727 23.1309 9.17773 23.1309 13.3965C23.1309 17.6328 24.6426 21.1133 27.1211 23.2402C29.582 25.3672 32.9043 26.5098 36.7012 26.5098ZM36.7012 20.0938C35.2422 20.0938 34.0469 19.4961 33.1152 18.3184C32.166 17.1406 31.6914 15.4883 31.6914 13.3965C31.6914 11.3047 32.166 9.66992 33.0977 8.49219C34.0293 7.31445 35.2422 6.73438 36.7012 6.73438C38.1426 6.73438 39.3379 7.31445 40.2695 8.49219C41.2012 9.66992 41.6758 11.3047 41.6758 13.3965C41.6758 15.4883 41.2012 17.1406 40.2695 18.3184C39.3379 19.4961 38.1426 20.0938 36.7012 20.0938ZM62.5234 26C61.9785 23.7324 61.6973 20.709 61.6973 16.8945V9.91602C61.6973 6.10156 61.9785 3.06055 62.5234 0.792969H52.6621C53.1895 3.0957 53.4531 6.13672 53.4531 9.91602V16.8945C53.4531 20.6562 53.1895 23.6973 52.6621 26H62.5234ZM76.1992 26C75.9707 25.0684 75.7773 23.6445 75.6191 21.6934C75.4609 19.7422 75.373 17.9492 75.373 16.3145V12.1484H75.9004L85.1641 26H92.8984V9.91602C92.8984 6.10156 93.1797 3.06055 93.7246 0.792969H83.8633C84.0742 1.68945 84.2676 3.02539 84.4258 4.83594C84.584 6.64648 84.6543 8.29883 84.6543 9.79297V14.082H84.1445L75.25 0.863281L66.3379 0.792969C66.8828 3.20117 67.1641 6.24219 67.1641 9.91602V16.8945C67.1641 20.5508 66.8828 23.5918 66.3379 26H76.1992ZM122.816 26C122.271 23.5918 121.99 20.5508 121.99 16.8945V9.07227H125.119C126.982 9.07227 128.6 9.47656 129.988 10.2676L128.617 0.792969H106.943L105.572 10.2676C106.926 9.47656 108.543 9.07227 110.424 9.07227H113.781V16.8945C113.781 20.5508 113.5 23.5918 112.955 26H122.816ZM142.469 26C141.924 23.7324 141.643 20.709 141.643 16.8945V15.1367H149.482V16.8945C149.482 20.6562 149.219 23.6973 148.691 26H158.553C158.008 23.7324 157.727 20.709 157.727 16.8945V9.91602C157.727 6.10156 158.008 3.06055 158.553 0.792969H148.691C149.219 3.0957 149.482 6.13672 149.482 9.91602V11.5332H141.643V9.91602C141.643 6.10156 141.924 3.06055 142.469 0.792969H132.607C133.152 3.20117 133.434 6.24219 133.434 9.91602V16.8945C133.434 20.5508 133.152 23.5918 132.607 26H142.469ZM184.516 26L185.816 16.5957C185.236 17 184.357 17.3164 183.215 17.5625C182.072 17.8086 180.227 17.9316 177.678 17.9316H171.35V15.207H177.133C178.979 15.207 180.455 15.2773 181.562 15.418V11.709C180.578 11.7969 179.102 11.8496 177.133 11.8496H171.35V8.89648H178.68C180.438 8.89648 181.773 8.98438 182.688 9.14258C183.602 9.30078 184.287 9.58203 184.727 9.98633L183.514 0.792969H162.35C162.596 1.91797 162.789 3.32422 162.947 5.0293C163.105 6.73438 163.176 8.35156 163.176 9.91602V16.8945C163.176 18.459 163.105 20.0762 162.947 21.7637C162.789 23.4512 162.596 24.8574 162.35 26H184.516ZM211.779 26.5098C213.906 26.5098 215.787 26.3691 217.439 26.1055C219.074 25.8242 220.727 25.4199 222.396 24.8926V15.4531C221.359 16.3496 220.059 17.0703 218.494 17.6152C216.93 18.1602 215.26 18.4414 213.502 18.4414C209.213 18.4414 205.363 16.9824 205.363 13.4668C205.363 11.8672 206.119 10.6191 207.613 9.70508C209.107 8.80859 211.041 8.35156 213.396 8.35156C214.785 8.35156 216.174 8.5625 217.545 8.98438C218.898 9.42383 219.988 9.95117 220.814 10.584L220.885 1.84766C219.848 1.39062 218.512 1.02148 216.895 0.722656C215.277 0.441406 213.59 0.300781 211.814 0.300781C208.844 0.300781 205.979 0.916016 203.412 2.32227C202.129 3.02539 201.004 3.88672 200.055 4.88867C198.139 6.91016 196.908 9.89844 196.908 13.3965C196.908 16.9121 198.121 19.918 200.037 21.9395C202.92 24.998 207.367 26.5625 211.779 26.5098ZM237.619 26.5098C241.398 26.5098 244.686 25.3672 247.164 23.2402C249.625 21.1133 251.119 17.6328 251.119 13.3965C251.119 10.0039 250.152 7.06836 248.518 5.01172C246.021 1.90039 242.119 0.300781 237.619 0.300781C233.822 0.300781 230.5 1.46094 228.039 3.57031C225.561 5.69727 224.049 9.17773 224.049 13.3965C224.049 17.6328 225.561 21.1133 228.039 23.2402C230.5 25.3672 233.822 26.5098 237.619 26.5098ZM237.619 20.0938C236.16 20.0938 234.965 19.4961 234.033 18.3184C233.084 17.1406 232.609 15.4883 232.609 13.3965C232.609 11.3047 233.084 9.66992 234.016 8.49219C234.947 7.31445 236.16 6.73438 237.619 6.73438C239.061 6.73438 240.256 7.31445 241.188 8.49219C242.119 9.66992 242.594 11.3047 242.594 13.3965C242.594 15.4883 242.119 17.1406 241.188 18.3184C240.256 19.4961 239.061 20.0938 237.619 20.0938ZM275.852 26.5449C276.748 26.5449 277.627 26.2988 278.488 25.8242C279.332 25.3496 279.93 24.7695 280.281 24.084L280.176 13.291C279.209 15.7344 277.592 16.9648 275.324 16.9648C274.357 16.9648 273.479 16.5078 272.775 15.9277C271.756 15.1016 270.648 14.0469 268.838 14.0469H268.768V13.8359H269.084C270.93 13.8359 272.564 13.5898 273.988 13.1152C275.412 12.6406 276.555 11.9023 277.416 10.8828C278.277 9.88086 278.699 8.66797 278.699 7.24414C278.699 5.85547 278.26 4.67773 277.381 3.67578C275.605 1.70703 272.617 0.792969 268.873 0.792969H253.58C254.125 3.20117 254.406 6.24219 254.406 9.91602V16.8945C254.406 20.5508 254.125 23.5918 253.58 26H263.441C262.896 23.5918 262.615 20.5508 262.615 16.8945V15.418C262.932 15.2949 263.441 15.2422 264.162 15.2422C267.01 15.2422 267.941 17.4746 268.873 19.9531C269.998 23.0469 271.088 26.5625 275.852 26.5449ZM262.615 8.58008H267.432C269.137 8.58008 270.35 9.38867 270.35 10.6367C270.35 11.9727 269.154 12.7109 267.256 12.7109H262.615V8.58008ZM304.75 26L306.051 16.5957C305.471 17 304.592 17.3164 303.449 17.5625C302.307 17.8086 300.461 17.9316 297.912 17.9316H291.584V15.207H297.367C299.213 15.207 300.689 15.2773 301.797 15.418V11.709C300.812 11.7969 299.336 11.8496 297.367 11.8496H291.584V8.89648H298.914C300.672 8.89648 302.008 8.98438 302.922 9.14258C303.836 9.30078 304.521 9.58203 304.961 9.98633L303.748 0.792969H282.584C282.83 1.91797 283.023 3.32422 283.182 5.0293C283.34 6.73438 283.41 8.35156 283.41 9.91602V16.8945C283.41 18.459 283.34 20.0762 283.182 21.7637C283.023 23.4512 282.83 24.8574 282.584 26H304.75ZM330.713 26.5098C334.492 26.5098 337.779 25.3672 340.258 23.2402C342.719 21.1133 344.213 17.6328 344.213 13.3965C344.213 10.0039 343.246 7.06836 341.611 5.01172C339.115 1.90039 335.213 0.300781 330.713 0.300781C326.916 0.300781 323.594 1.46094 321.133 3.57031C318.654 5.69727 317.143 9.17773 317.143 13.3965C317.143 17.6328 318.654 21.1133 321.133 23.2402C323.594 25.3672 326.916 26.5098 330.713 26.5098ZM330.713 20.0938C329.254 20.0938 328.059 19.4961 327.127 18.3184C326.178 17.1406 325.703 15.4883 325.703 13.3965C325.703 11.3047 326.178 9.66992 327.109 8.49219C328.041 7.31445 329.254 6.73438 330.713 6.73438C332.154 6.73438 333.35 7.31445 334.281 8.49219C335.213 9.66992 335.688 11.3047 335.688 13.3965C335.688 15.4883 335.213 17.1406 334.281 18.3184C333.35 19.4961 332.154 20.0938 330.713 20.0938ZM356.535 26C355.955 23.6445 355.674 20.6562 355.674 17.0352V15.5586H361.387C363.408 15.5586 364.885 15.6113 365.816 15.7344V11.8496C364.832 11.9375 363.355 11.9902 361.387 11.9902H355.674V8.89648H363.338C365.078 8.89648 366.414 8.98438 367.346 9.14258C368.26 9.30078 368.945 9.58203 369.385 9.98633L368.119 0.792969H346.674C346.92 1.91797 347.113 3.32422 347.271 5.0293C347.43 6.73438 347.5 8.35156 347.5 9.91602V16.8945C347.5 18.459 347.43 20.0762 347.271 21.7637C347.113 23.4512 346.92 24.8574 346.674 26H356.535ZM395.049 26.5098C397.176 26.5098 399.057 26.3691 400.709 26.1055C402.344 25.8242 403.996 25.4199 405.666 24.8926V15.4531C404.629 16.3496 403.328 17.0703 401.764 17.6152C400.199 18.1602 398.529 18.4414 396.771 18.4414C392.482 18.4414 388.633 16.9824 388.633 13.4668C388.633 11.8672 389.389 10.6191 390.883 9.70508C392.377 8.80859 394.311 8.35156 396.666 8.35156C398.055 8.35156 399.443 8.5625 400.814 8.98438C402.168 9.42383 403.258 9.95117 404.084 10.584L404.154 1.84766C403.117 1.39062 401.781 1.02148 400.164 0.722656C398.547 0.441406 396.859 0.300781 395.084 0.300781C392.113 0.300781 389.248 0.916016 386.682 2.32227C385.398 3.02539 384.273 3.88672 383.324 4.88867C381.408 6.91016 380.178 9.89844 380.178 13.3965C380.178 16.9121 381.391 19.918 383.307 21.9395C386.189 24.998 390.637 26.5625 395.049 26.5098ZM430.82 26.5449C431.717 26.5449 432.596 26.2988 433.457 25.8242C434.301 25.3496 434.898 24.7695 435.25 24.084L435.145 13.291C434.178 15.7344 432.561 16.9648 430.293 16.9648C429.326 16.9648 428.447 16.5078 427.744 15.9277C426.725 15.1016 425.617 14.0469 423.807 14.0469H423.736V13.8359H424.053C425.898 13.8359 427.533 13.5898 428.957 13.1152C430.381 12.6406 431.523 11.9023 432.385 10.8828C433.246 9.88086 433.668 8.66797 433.668 7.24414C433.668 5.85547 433.229 4.67773 432.35 3.67578C430.574 1.70703 427.586 0.792969 423.842 0.792969H408.549C409.094 3.20117 409.375 6.24219 409.375 9.91602V16.8945C409.375 20.5508 409.094 23.5918 408.549 26H418.41C417.865 23.5918 417.584 20.5508 417.584 16.8945V15.418C417.9 15.2949 418.41 15.2422 419.131 15.2422C421.979 15.2422 422.91 17.4746 423.842 19.9531C424.967 23.0469 426.057 26.5625 430.82 26.5449ZM417.584 8.58008H422.4C424.105 8.58008 425.318 9.38867 425.318 10.6367C425.318 11.9727 424.123 12.7109 422.225 12.7109H417.584V8.58008ZM459.719 26L461.02 16.5957C460.439 17 459.561 17.3164 458.418 17.5625C457.275 17.8086 455.43 17.9316 452.881 17.9316H446.553V15.207H452.336C454.182 15.207 455.658 15.2773 456.766 15.418V11.709C455.781 11.7969 454.305 11.8496 452.336 11.8496H446.553V8.89648H453.883C455.641 8.89648 456.977 8.98438 457.891 9.14258C458.805 9.30078 459.49 9.58203 459.93 9.98633L458.717 0.792969H437.553C437.799 1.91797 437.992 3.32422 438.15 5.0293C438.309 6.73438 438.379 8.35156 438.379 9.91602V16.8945C438.379 18.459 438.309 20.0762 438.15 21.7637C437.992 23.4512 437.799 24.8574 437.553 26H459.719ZM471.285 26C471.285 24.752 471.566 22.959 472.146 20.6035L472.41 19.8125H479.494L479.775 20.5684C480.338 23.0117 480.637 24.8223 480.654 26H490.516C489.303 23.3809 488.213 20.3398 487.264 16.8945L484.785 9.91602C484.381 8.47461 484.064 6.89258 483.801 5.1875C483.537 3.48242 483.361 2.02344 483.309 0.792969H468.631C468.596 1.9707 468.438 3.39453 468.174 5.09961C467.91 6.80469 467.559 8.42188 467.154 9.91602L464.658 16.8945C463.604 20.6387 462.514 23.6621 461.389 26H471.285ZM474.783 12.2891C475.082 11.3574 475.381 9.91602 475.715 7.92969H476.189C476.488 9.77539 476.805 11.2344 477.156 12.2891L478.668 16.209H473.271L474.783 12.2891ZM505.422 26C504.877 23.5918 504.596 20.5508 504.596 16.8945V9.07227H507.725C509.588 9.07227 511.205 9.47656 512.594 10.2676L511.223 0.792969H489.549L488.178 10.2676C489.531 9.47656 491.148 9.07227 493.029 9.07227H496.387V16.8945C496.387 20.5508 496.105 23.5918 495.561 26H505.422ZM525.074 26C524.529 23.7324 524.248 20.709 524.248 16.8945V9.91602C524.248 6.10156 524.529 3.06055 525.074 0.792969H515.213C515.74 3.0957 516.004 6.13672 516.004 9.91602V16.8945C516.004 20.6562 515.74 23.6973 515.213 26H525.074ZM548.066 26C548.102 24.8574 548.26 23.4336 548.523 21.7285C548.787 20.041 549.139 18.4238 549.543 16.8945L552.021 9.91602C552.426 8.29883 552.9 6.64648 553.48 4.95898C554.061 3.28906 554.605 1.90039 555.133 0.792969H545.254C545.219 2.26953 544.955 4.18555 544.463 6.52344L541.914 14.4863C541.562 15.8047 541.246 17.2637 540.947 18.8633H540.508C540.314 17.7207 539.98 16.2617 539.506 14.4863L536.975 6.52344C536.5 4.80078 536.236 2.88477 536.184 0.792969H526.322C527.395 3.13086 528.432 6.17188 529.416 9.91602L531.912 16.9297C532.281 18.459 532.615 20.0762 532.879 21.7461C533.143 23.4336 533.301 24.8574 533.336 26H548.066ZM566.242 26C565.697 23.7324 565.416 20.709 565.416 16.8945V9.91602C565.416 6.10156 565.697 3.06055 566.242 0.792969H556.381C556.908 3.0957 557.172 6.13672 557.172 9.91602V16.8945C557.172 20.6562 556.908 23.6973 556.381 26H566.242ZM586.105 26C585.561 23.5918 585.279 20.5508 585.279 16.8945V9.07227H588.408C590.271 9.07227 591.889 9.47656 593.277 10.2676L591.906 0.792969H570.232L568.861 10.2676C570.215 9.47656 571.832 9.07227 573.713 9.07227H577.07V16.8945C577.07 20.5508 576.789 23.5918 576.244 26H586.105ZM613.281 26C612.771 23.5918 612.525 21.3242 612.525 19.1973V17.2461L617.166 9.91602C618.098 8.31641 619.152 6.68164 620.312 4.97656C621.455 3.28906 622.492 1.90039 623.389 0.792969H612.912C612.016 3.13086 611.154 5.09961 610.328 6.69922L608.553 9.33594H608.166L606.408 6.73438C605.617 5.20508 604.773 3.21875 603.842 0.792969H593.33C595.211 3.0957 597.285 6.13672 599.588 9.91602L604.211 17.2109V19.127C604.211 21.5 603.947 23.8027 603.42 26H613.281Z" fill="#FBFFFE"/>
</svg>
