<svg width="200" height="181" viewBox="0 0 200 181" fill="none" xmlns="http://www.w3.org/2000/svg">
<mask id="path-1-inside-1_698:8136" fill="white">
<path fill-rule="evenodd" clip-rule="evenodd" d="M110.156 8.87065L117.436 9.55154L124.67 56.1331L173.481 34.2771L180.516 34.935L144.277 77.277L192.981 91.9518L186.7 99.5591L141.745 104.349L169.86 153.297L162.258 151.871L118.558 121.491L100.291 173.037L96.0505 168.586L88.2974 118.661L34.6114 142.699L32.6698 139.604L68.6905 97.5168L10.8959 80.1031L8.08835 77.1716L71.2224 70.4447L43.3499 21.9202L50.1873 22.5596L94.4098 53.303L110.156 8.87065ZM185.115 29.5615L185.799 28.7615L184.923 29.1538L185.115 29.5615Z"/>
</mask>
<path fill-rule="evenodd" clip-rule="evenodd" d="M110.156 8.87065L117.436 9.55154L124.67 56.1331L173.481 34.2771L180.516 34.935L144.277 77.277L192.981 91.9518L186.7 99.5591L141.745 104.349L169.86 153.297L162.258 151.871L118.558 121.491L100.291 173.037L96.0505 168.586L88.2974 118.661L34.6114 142.699L32.6698 139.604L68.6905 97.5168L10.8959 80.1031L8.08835 77.1716L71.2224 70.4447L43.3499 21.9202L50.1873 22.5596L94.4098 53.303L110.156 8.87065ZM185.115 29.5615L185.799 28.7615L184.923 29.1538L185.115 29.5615Z" fill="#6EC9C4"/>
<path d="M117.436 9.55154L118.537 9.38061L118.404 8.5233L117.54 8.44251L117.436 9.55154ZM110.156 8.87065L110.259 7.76163L109.396 7.68084L109.106 8.49859L110.156 8.87065ZM124.67 56.1331L123.569 56.304L123.793 57.7461L125.125 57.1497L124.67 56.1331ZM173.481 34.2771L173.585 33.1681L173.293 33.1408L173.026 33.2605L173.481 34.2771ZM180.516 34.935L181.362 35.6593L182.76 34.0262L180.619 33.826L180.516 34.935ZM144.277 77.277L143.431 76.5528L142.32 77.8507L143.956 78.3435L144.277 77.277ZM192.981 91.9518L193.84 92.661L194.907 91.3687L193.302 90.8853L192.981 91.9518ZM186.7 99.5591L186.818 100.667L187.27 100.619L187.559 100.268L186.7 99.5591ZM141.745 104.349L141.627 103.241L139.928 103.422L140.779 104.904L141.745 104.349ZM169.86 153.297L169.655 154.391L172.03 154.836L170.826 152.742L169.86 153.297ZM162.258 151.871L161.622 152.786L161.818 152.922L162.053 152.966L162.258 151.871ZM118.558 121.491L119.193 120.576L117.995 119.743L117.508 121.119L118.558 121.491ZM100.291 173.037L99.4842 173.805L100.735 175.118L101.341 173.409L100.291 173.037ZM96.0505 168.586L94.9498 168.757L95.0034 169.101L95.244 169.354L96.0505 168.586ZM88.2974 118.661L89.3981 118.49L89.1741 117.048L87.8422 117.644L88.2974 118.661ZM34.6114 142.699L33.6678 143.291L34.1825 144.112L35.0666 143.716L34.6114 142.699ZM32.6698 139.604L31.8236 138.88L31.291 139.502L31.7262 140.196L32.6698 139.604ZM68.6905 97.5168L69.5368 98.2411L70.6476 96.9431L69.0119 96.4503L68.6905 97.5168ZM10.8959 80.1031L10.0915 80.8735L10.2941 81.0851L10.5746 81.1696L10.8959 80.1031ZM8.08835 77.1716L7.97033 76.064L5.71535 76.3043L7.28392 77.9421L8.08835 77.1716ZM71.2224 70.4447L71.3404 71.5523L73.0391 71.3713L72.1882 69.89L71.2224 70.4447ZM43.3499 21.9202L43.4536 20.8112L41.3133 20.611L42.384 22.475L43.3499 21.9202ZM50.1873 22.5596L50.8232 21.6451L50.5827 21.4779L50.2911 21.4506L50.1873 22.5596ZM94.4098 53.303L93.774 54.2176L94.9723 55.0506L95.4597 53.6751L94.4098 53.303ZM185.799 28.7615L186.646 29.4858L185.344 27.7449L185.799 28.7615ZM185.115 29.5615L184.106 30.0347L184.839 31.5964L185.961 30.2858L185.115 29.5615ZM184.923 29.1538L184.468 28.1372L183.433 28.6006L183.915 29.627L184.923 29.1538ZM117.54 8.44251L110.259 7.76163L110.052 9.97967L117.332 10.6606L117.54 8.44251ZM125.771 55.9621L118.537 9.38061L116.335 9.72247L123.569 56.304L125.771 55.9621ZM173.026 33.2605L124.215 55.1165L125.125 57.1497L173.936 35.2937L173.026 33.2605ZM180.619 33.826L173.585 33.1681L173.378 35.3862L180.412 36.044L180.619 33.826ZM145.123 78.0013L181.362 35.6593L179.669 34.2107L143.431 76.5528L145.123 78.0013ZM193.302 90.8853L144.598 76.2105L143.956 78.3435L192.66 93.0183L193.302 90.8853ZM187.559 100.268L193.84 92.661L192.122 91.2426L185.841 98.85L187.559 100.268ZM141.863 105.457L186.818 100.667L186.582 98.4516L141.627 103.241L141.863 105.457ZM170.826 152.742L142.711 103.794L140.779 104.904L168.895 153.851L170.826 152.742ZM162.053 152.966L169.655 154.391L170.066 152.202L162.463 150.776L162.053 152.966ZM117.922 122.405L161.622 152.786L162.894 150.957L119.193 120.576L117.922 122.405ZM101.341 173.409L119.607 121.863L117.508 121.119L99.2408 172.665L101.341 173.409ZM95.244 169.354L99.4842 173.805L101.097 172.269L96.857 167.817L95.244 169.354ZM87.1967 118.832L94.9498 168.757L97.1512 168.415L89.3981 118.49L87.1967 118.832ZM35.0666 143.716L88.7526 119.677L87.8422 117.644L34.1562 141.683L35.0666 143.716ZM31.7262 140.196L33.6678 143.291L35.555 142.108L33.6134 139.012L31.7262 140.196ZM67.8443 96.7925L31.8236 138.88L33.5161 140.328L69.5368 98.2411L67.8443 96.7925ZM10.5746 81.1696L68.3692 98.5833L69.0119 96.4503L11.2173 79.0366L10.5746 81.1696ZM7.28392 77.9421L10.0915 80.8735L11.7004 79.3326L8.89278 76.4012L7.28392 77.9421ZM71.1044 69.3371L7.97033 76.064L8.20636 78.2792L71.3404 71.5523L71.1044 69.3371ZM42.384 22.475L70.2565 70.9995L72.1882 69.89L44.3157 21.3654L42.384 22.475ZM50.2911 21.4506L43.4536 20.8112L43.2461 23.0292L50.0836 23.6687L50.2911 21.4506ZM95.0456 52.3885L50.8232 21.6451L49.5515 23.4742L93.774 54.2176L95.0456 52.3885ZM109.106 8.49859L93.3599 52.931L95.4597 53.6751L111.206 9.2427L109.106 8.49859ZM184.953 28.0373L184.268 28.8372L185.961 30.2858L186.646 29.4858L184.953 28.0373ZM185.379 30.1704L186.255 29.7781L185.344 27.7449L184.468 28.1372L185.379 30.1704ZM186.123 29.0883L185.932 28.6806L183.915 29.627L184.106 30.0347L186.123 29.0883Z" fill="#7EF7F0" mask="url(#path-1-inside-1_698:8136)"/>
<path d="M91.5299 77.8755C91.5659 77.5582 91.6697 77.0914 91.8451 76.4639C92.0206 75.8365 92.1998 75.2665 92.3882 74.7561L92.8683 73.4553L93.033 73.5161L94.3291 78.9086L96.744 79.8L98.5977 74.778C99.0373 73.587 99.4756 72.6699 99.9071 72.0247L96.828 70.8882C96.7905 71.1924 96.6969 71.6318 96.5377 72.2154C96.3784 72.7989 96.2099 73.323 96.0377 73.7895L95.5434 75.1287L95.3843 75.0699L94.1305 69.9175L91.3559 68.8684C91.2485 69.6831 90.9859 70.6651 90.5625 71.8122L89.7582 73.9911C89.3368 75.1327 88.8985 76.0498 88.4509 76.7389L91.5299 77.8755ZM101.499 81.7359C102.728 82.1897 103.832 82.223 104.627 81.8929C105.417 81.5608 105.988 80.9608 106.294 80.132C106.6 79.3032 106.556 78.4763 106.171 77.7107C105.781 76.943 104.926 76.2531 103.702 75.8013C102.472 75.3476 101.368 75.3142 100.578 75.6463C99.783 75.9764 99.2123 76.5764 98.9064 77.4052C98.6005 78.234 98.6445 79.0609 99.0347 79.8286C99.4194 80.5942 100.275 81.2841 101.499 81.7359ZM102.104 80.0948C101.715 79.951 101.448 79.7093 101.3 79.3677C101.15 79.0315 101.147 78.6686 101.288 78.2844C101.43 77.9002 101.668 77.6265 102.003 77.4631C102.336 77.3053 102.695 77.2945 103.085 77.4384C103.486 77.5862 103.757 77.83 103.908 78.1661C104.053 78.5002 104.056 78.8631 103.912 79.2528C103.768 79.6425 103.53 79.9162 103.203 80.0761C102.87 80.234 102.505 80.2427 102.104 80.0948ZM110.087 84.7249L112.042 82.2661L112.179 82.3167L112.079 85.4603L115.405 86.688C115.598 86.0981 115.937 85.4314 116.424 84.688L117.365 83.3889C117.859 82.6421 118.358 82.0342 118.863 81.5782L115.943 80.5005C115.824 80.8558 115.621 81.2862 115.333 81.7971L114.291 83.3021C114.185 83.4376 114.104 83.5571 114.049 83.6554L113.9 83.6007L114.066 79.8076L112.243 79.135L109.893 82.1403L109.772 82.0957L109.818 81.6511L109.993 79.826C110.088 79.2811 110.214 78.8223 110.366 78.4422L107.452 77.3665C107.528 77.9871 107.518 78.7753 107.414 79.7161L107.274 81.3109C107.231 81.7001 107.164 82.0996 107.07 82.5075C106.975 82.9154 106.872 83.2453 106.761 83.4972L110.087 84.7249ZM124.796 83.0574C125.126 82.9235 125.352 82.6827 125.48 82.3369C125.61 81.9857 125.596 81.6502 125.432 81.334C125.268 81.0178 124.98 80.7865 124.562 80.6325C124.145 80.4786 123.775 80.4668 123.451 80.6027C123.121 80.7365 122.893 80.9829 122.763 81.3341C122.635 81.6799 122.651 82.0099 122.815 82.3261C122.973 82.6402 123.262 82.8716 123.679 83.0255C124.096 83.1795 124.466 83.1913 124.796 83.0574ZM123.04 89.5059C123.147 88.6912 123.41 87.7093 123.831 86.5677L124.404 85.0144C124.595 84.4985 124.772 84.1025 124.933 83.8188C124.537 83.9284 124.055 83.8816 123.479 83.6689C122.903 83.4561 122.49 83.1727 122.227 82.8201C122.187 83.0798 122.065 83.4961 121.852 84.0724L121.279 85.6256C120.857 86.7673 120.419 87.6844 119.971 88.3735L123.04 89.5059ZM126.834 91.0873C127.888 91.4762 128.759 91.6169 129.454 91.5058C130.15 91.3947 130.602 91.05 130.819 90.4627C131.14 89.6085 130.491 88.9511 129.673 88.4808C128.574 87.8257 127.163 87.4235 127.307 87.0338C127.39 86.8088 127.85 86.7975 128.514 87.0426C128.98 87.2148 129.424 87.4474 129.839 87.7438C130.253 88.0402 130.581 88.3172 130.823 88.5748L131.545 86.6524C130.813 86.0015 129.964 85.4951 128.998 85.1385C127.994 84.7678 127.167 84.6434 126.517 84.7652C125.859 84.8905 125.437 85.2083 125.246 85.7243C124.464 87.8428 129.008 88.4411 128.722 89.215C128.631 89.4619 128.141 89.4371 127.367 89.1514C126.956 88.9995 126.483 88.7438 125.952 88.3918C125.415 88.0379 124.973 87.6813 124.616 87.3312L123.836 89.4443C124.159 89.7008 124.629 89.999 125.251 90.3409C125.87 90.6752 126.4 90.9272 126.834 91.0873ZM79.2672 91.6511C79.5087 91.7403 79.7733 91.8005 80.0591 91.8374C80.3393 91.8722 80.5893 91.8709 80.7938 91.8404L81.5231 89.8646C81.3052 89.965 80.9149 89.9581 80.602 89.8426C80.3002 89.7312 80.0746 89.5482 79.9329 89.2901C79.7892 89.0375 79.7781 88.7465 79.8976 88.4227L80.6289 86.4413L82.4621 87.1179L82.7397 86.366L80.9065 85.6894L81.7371 83.4391L79.1371 83.1841L78.5354 84.8142L77.5365 84.4455L77.259 85.1974L78.2579 85.5661L77.1903 88.4586C76.6656 89.8801 77.3572 90.9461 79.2672 91.6511ZM84.5785 93.4307C84.5697 93.1842 84.6335 92.8087 84.7733 92.3115C84.9112 91.8198 85.0472 91.3836 85.185 91.0104L85.3725 90.4685C85.5028 90.0987 85.7315 89.8339 86.0642 89.676C86.3913 89.5162 86.7453 89.5034 87.124 89.6432C87.854 89.9126 88.0896 90.592 87.804 91.3659L87.6135 91.8818C87.2955 92.7435 86.92 93.4905 86.4885 94.1357L89.5676 95.2722C89.6588 94.5014 89.893 93.5963 90.2759 92.559L90.4968 91.9607C90.7905 91.1649 90.8019 90.4582 90.5255 89.8385C90.2491 89.2189 89.6975 88.7534 88.8577 88.4434C87.7436 88.0322 86.7917 88.2795 86.0041 89.1799L85.8778 89.1333L86.1797 88.3155C86.6092 87.152 87.042 86.2328 87.4836 85.5602L84.41 84.4257C84.3647 84.8018 84.265 85.2577 84.1199 85.8029C83.9728 86.3535 83.8064 86.872 83.622 87.3715L82.8178 89.5504C82.6334 90.0499 82.423 90.5522 82.1812 91.0554C81.9373 91.564 81.7149 91.9808 81.5049 92.2962L84.5785 93.4307ZM94.1356 97.1392C94.69 97.3438 95.268 97.501 95.8623 97.6144C96.4586 97.7222 96.9333 97.754 97.2919 97.7117L97.9307 95.8459C97.6371 95.9994 97.2574 96.0651 96.7916 96.0428C96.3259 96.0206 95.8625 95.9244 95.4069 95.7563C94.8142 95.5375 94.3469 95.2153 94.003 94.7953C93.6536 94.3732 93.5236 93.9822 93.6073 93.6202L93.7154 93.5978C94.1455 94.2741 94.8297 94.7013 95.7957 95.0578C97.2611 95.5988 98.2913 95.3928 98.6742 94.3555C98.8302 93.9328 98.8382 93.5055 98.644 93.0347C98.3694 92.3596 97.5825 91.67 96.1575 91.1378C94.9774 90.7022 93.8824 90.6785 93.0891 91.003C92.2882 91.3311 91.697 91.936 91.3951 92.7538C91.067 93.643 91.1473 94.4896 91.6438 95.2902C92.1403 96.0909 92.9666 96.7077 94.1356 97.1392ZM95.0557 94.0551C94.4685 93.8383 94.0766 93.5315 93.8746 93.1327C94.0394 92.8381 94.2692 92.6547 94.555 92.5731C94.8388 92.497 95.1327 92.5119 95.429 92.6213C96.0932 92.8665 96.4049 93.3058 96.2408 93.7504C96.1699 93.9425 96.0199 94.0617 95.7887 94.1136C95.5555 94.171 95.3137 94.1503 95.0557 94.0551ZM104.372 100.917C104.613 101.007 104.878 101.067 105.164 101.104C105.444 101.139 105.694 101.137 105.898 101.107L106.628 99.1309C106.41 99.2313 106.019 99.2244 105.707 99.1089C105.405 98.9975 105.179 98.8145 105.037 98.5564C104.894 98.3038 104.883 98.0128 105.002 97.689L105.733 95.7076L107.567 96.3842L107.844 95.6323L106.011 94.9557L106.842 92.7054L104.242 92.4504L103.64 94.0805L102.641 93.7118L102.364 94.4637L103.362 94.8324L102.295 97.7249C101.77 99.1464 102.462 100.212 104.372 100.917ZM111.324 96.2059C111.654 96.0721 111.88 95.8312 112.008 95.4855C112.138 95.1342 112.124 94.7987 111.96 94.4825C111.797 94.1663 111.508 93.935 111.091 93.7811C110.673 93.6271 110.304 93.6153 109.979 93.7512C109.649 93.8851 109.421 94.1314 109.291 94.4827C109.164 94.8284 109.179 95.1584 109.343 95.4746C109.501 95.7888 109.79 96.0201 110.207 96.1741C110.624 96.328 110.994 96.3398 111.324 96.2059ZM109.568 102.654C109.675 101.84 109.938 100.858 110.359 99.7162L110.932 98.1629C111.123 97.647 111.3 97.251 111.461 96.9674C111.065 97.0769 110.584 97.0301 110.007 96.8174C109.431 96.6047 109.018 96.3213 108.755 95.9686C108.716 96.2283 108.593 96.6446 108.38 97.2209L107.807 98.7742C107.386 99.9158 106.947 100.833 106.5 101.522L109.568 102.654ZM113.646 104.16C113.633 103.906 113.699 103.525 113.838 103.014C113.969 102.508 114.103 102.077 114.23 101.731L114.429 101.193C114.569 100.815 114.786 100.546 115.081 100.374C115.373 100.207 115.708 100.194 116.076 100.33C116.8 100.597 116.936 101.227 116.646 102.012L116.456 102.528C116.245 103.099 116.066 103.55 115.926 103.879C115.778 104.211 115.607 104.522 115.419 104.814L118.399 105.914C118.506 105.099 118.72 104.249 119.044 103.371L119.215 102.91C119.344 102.577 119.568 102.323 119.873 102.155C120.179 101.987 120.5 101.962 120.845 102.09C121.553 102.351 121.689 102.981 121.399 103.766L121.209 104.282C120.891 105.144 120.515 105.891 120.084 106.536L123.163 107.673C123.254 106.902 123.488 105.997 123.871 104.959L124.092 104.361C124.657 102.83 124.352 101.545 122.667 100.923C121.465 100.479 120.396 100.758 119.682 101.611L119.544 101.56C119.613 100.463 119.181 99.6548 117.914 99.1683C116.805 98.7591 115.859 99.0085 115.071 99.9089L114.934 99.8582L114.989 99.71C115.169 99.2216 115.429 98.8374 115.764 98.5556L112.636 97.4009C112.544 98.1717 112.326 99.0329 111.976 99.9824L111.636 100.904C111.463 101.371 111.298 101.753 111.144 102.051C110.988 102.355 110.794 102.677 110.561 103.021L113.646 104.16ZM127.714 109.533C128.269 109.738 128.847 109.895 129.441 110.009C130.037 110.116 130.512 110.148 130.871 110.106L131.509 108.24C131.216 108.394 130.836 108.459 130.37 108.437C129.905 108.415 129.441 108.319 128.986 108.15C128.393 107.932 127.926 107.61 127.582 107.19C127.232 106.767 127.102 106.376 127.186 106.014L127.294 105.992C127.724 106.668 128.408 107.096 129.374 107.452C130.84 107.993 131.87 107.787 132.253 106.75C132.409 106.327 132.417 105.9 132.223 105.429C131.948 104.754 131.161 104.064 129.736 103.532C128.556 103.096 127.461 103.073 126.668 103.397C125.867 103.725 125.276 104.33 124.974 105.148C124.646 106.037 124.726 106.884 125.223 107.684C125.719 108.485 126.545 109.102 127.714 109.533ZM128.635 106.449C128.047 106.233 127.655 105.926 127.453 105.527C127.618 105.232 127.848 105.049 128.134 104.967C128.418 104.891 128.711 104.906 129.008 105.016C129.672 105.261 129.984 105.7 129.82 106.145C129.749 106.337 129.599 106.456 129.368 106.508C129.134 106.565 128.892 106.545 128.635 106.449Z" fill="black"/>
</svg>
