<svg width="78" height="53" viewBox="0 0 78 53" fill="none" xmlns="http://www.w3.org/2000/svg">
<path d="M15.4907 0.968139C15.4907 10.6498 20.3315 15.4906 30.0132 15.4906M30.0132 15.4906C20.3315 15.4906 15.4907 20.3315 15.4907 30.0131M0.968205 15.4906C10.6499 15.4906 15.4907 10.6498 15.4907 0.96814M15.4907 30.0131C15.4907 20.3315 10.6499 15.4906 0.968205 15.4906" stroke="#C04397" stroke-width="0.484083"/>
<path d="M46.9224 21.0602C46.9224 28.5777 50.6812 32.3365 58.1987 32.3365M58.1987 32.3365C50.6812 32.3365 46.9224 36.0952 46.9224 43.6128M35.6462 32.3365C43.1637 32.3365 46.9224 28.5777 46.9224 21.0602M46.9224 43.6128C46.9224 36.0952 43.1637 32.3365 35.6462 32.3365" stroke="#C04397" stroke-width="0.375876"/>
<path d="M61.1234 3.05749C61.1234 8.86649 64.0279 11.771 69.8369 11.771M69.8369 11.771C64.0279 11.771 61.1234 14.6755 61.1234 20.4845M52.4099 11.771C58.2189 11.771 61.1234 8.86649 61.1234 3.0575M61.1234 20.4845C61.1234 14.6755 58.2189 11.771 52.4099 11.771" stroke="#C04397" stroke-width="0.29045"/>
</svg>
