<svg width="213" height="120" viewBox="0 0 213 120" fill="none" xmlns="http://www.w3.org/2000/svg">
<rect x="18.0938" y="0.132324" width="200" height="73.6342" rx="36.8171" transform="rotate(13.9081 18.0938 0.132324)" fill="#F4AFCE"/>
<rect x="21.828" y="5.02361" width="190.399" height="65.4584" rx="32.7292" transform="rotate(13.9081 21.828 5.02361)" stroke="black" stroke-width="2"/>
<path d="M28.7216 48.5497C28.7317 47.7373 28.9092 46.6544 29.2449 45.2989L30.2591 41.2844L30.4108 41.3219C30.1294 43.6366 31.8128 45.4921 34.0901 46.0057C35.3888 46.3273 36.6579 46.1587 37.6987 45.5311C38.7371 44.9129 39.5611 43.7387 39.946 42.1841C40.3333 40.62 40.0079 39.1309 39.1291 38.0481C38.2503 36.9653 36.8937 36.1464 35.2538 35.7403L28.8647 34.1582C28.8478 35.0796 28.6727 36.1932 28.3511 37.4919L26.6 44.5635C26.2784 45.8621 25.9137 46.9288 25.4987 47.7516L28.7216 48.5497ZM33.6815 43.3492C32.8473 43.1426 32.0384 42.5902 31.4612 41.8335C30.8721 41.084 30.5902 39.988 30.8554 38.8766L31.2004 37.4832C32.0414 37.5808 33.0793 37.7774 34.3211 38.0849C35.4207 38.3572 36.2246 38.8078 36.7424 39.439C37.2483 40.0774 37.4062 40.7805 37.2161 41.5483C37.0353 42.2782 36.6102 42.8168 35.9335 43.1523C35.2569 43.4878 34.5062 43.5534 33.6815 43.3492ZM46.9856 52.9214C49.3086 52.6817 50.9514 51.2072 51.4889 49.0364C51.8457 47.5956 51.6223 46.182 50.8831 45.0231C50.1415 43.8737 48.7823 42.9435 47.0286 42.5093C45.256 42.0703 43.6292 42.2611 42.437 42.9317C41.2424 43.6117 40.3757 44.7553 40.0189 46.1962C39.6621 47.637 39.8951 49.0529 40.6366 50.2023C41.005 50.7865 41.513 51.2946 42.1796 51.7313C42.8343 52.1751 43.5977 52.505 44.4792 52.7233C45.3608 52.9416 46.1899 53.0061 46.9856 52.9214ZM44.9323 50.8938C43.9938 50.6614 43.294 50.1561 42.8304 49.3874C42.3668 48.6186 42.2465 47.7639 42.4836 46.8065C42.7206 45.849 43.2283 45.1397 43.997 44.6761C44.7657 44.2126 45.6182 44.1017 46.5566 44.3341C47.5046 44.5688 48.2162 45.067 48.6798 45.8357C49.1434 46.6044 49.2614 47.4687 49.0243 48.4261C48.7872 49.3835 48.2796 50.0928 47.5108 50.5564C46.7421 51.02 45.8802 51.1285 44.9323 50.8938ZM56.4327 55.6833C57.8451 56.033 59.0364 56.0161 60.0043 55.6421C60.9722 55.2681 61.5652 54.6201 61.7906 53.7101C62.1896 52.0987 61.105 51.1158 59.7819 50.4461C57.9892 49.5193 55.7689 49.06 56.0365 47.9794C56.2078 47.2874 57.1453 47.0768 58.5198 47.4172C59.2213 47.5909 59.8993 47.8594 60.5467 48.2109C61.194 48.5623 61.7017 48.9093 62.0719 49.2425L62.5813 47.1855C62.0973 46.8242 61.5186 46.4797 60.8429 46.1614C60.1671 45.8432 59.5034 45.5983 58.8493 45.4364C57.4843 45.0984 56.3427 45.1175 55.4127 45.5009C54.4828 45.8843 53.9086 46.4967 53.7044 47.3214C53.3006 48.9116 54.3899 49.8755 55.7272 50.5286C57.5032 51.4412 59.7189 51.9194 59.4254 53.1043C59.2353 53.8722 58.3546 54.0565 56.7716 53.6645C56.0606 53.4885 55.2925 53.1775 54.4697 52.7223C53.6468 52.267 52.9683 51.7972 52.4533 51.3175L51.897 53.5641C52.4023 53.9609 53.1043 54.3762 53.9982 54.7887C54.8921 55.2012 55.7028 55.5025 56.4327 55.6833ZM67.3847 46.1515C68.3042 46.3792 69.0682 45.9346 69.2654 45.1383C69.4696 44.3136 69.0013 43.5639 68.0818 43.3362C67.6268 43.2235 67.2243 43.2647 66.8718 43.4691C66.5194 43.6736 66.295 43.9702 66.1941 44.3778C65.9969 45.1741 66.4747 45.9262 67.3847 46.1515ZM66.2029 57.831C66.2033 56.9759 66.3761 55.8718 66.7165 54.4973L67.8502 49.9188C68.0451 49.132 68.2474 48.5181 68.4454 48.0842C68.1022 48.2105 67.6024 48.1974 66.9578 48.0378C66.3132 47.8782 65.8461 47.6519 65.5542 47.3683C65.5527 47.7804 65.4452 48.4178 65.234 49.2709L64.1002 53.8494C63.7598 55.224 63.3975 56.2811 62.9989 57.0376L66.2029 57.831ZM73.8083 59.9859C74.6614 60.1971 75.4194 60.2239 76.0704 60.0732L76.5915 57.9688C76.0969 58.1381 75.5237 58.137 74.8601 57.9727C73.4287 57.6182 72.8914 56.7004 73.2599 55.2122L74.2223 51.3257L77.9477 52.2481L78.3702 50.5419L74.6449 49.6194L75.6073 45.7329L72.9783 45.7861L72.1802 49.0091L70.0095 48.4715L69.5869 50.1778L71.7577 50.7153L70.5888 55.4361C70.0043 57.7964 71.0782 59.3099 73.8083 59.9859ZM81.926 49.7523C82.8455 49.98 83.6095 49.5354 83.8067 48.7391C84.0109 47.9144 83.5426 47.1646 82.6231 46.9369C82.1681 46.8243 81.7656 46.8654 81.4131 47.0699C81.0607 47.2744 80.8363 47.571 80.7354 47.9786C80.5382 48.7748 81.016 49.527 81.926 49.7523ZM80.7442 61.4317C80.7446 60.5767 80.9174 59.4726 81.2578 58.0981L82.3915 53.5196C82.5864 52.7328 82.7887 52.1189 82.9867 51.685C82.6435 51.8113 82.1437 51.7982 81.4991 51.6386C80.8545 51.479 80.3874 51.2526 80.0955 50.9691C80.094 51.3812 79.9865 52.0186 79.7752 52.8717L78.6415 57.4502C78.3011 58.8247 77.9387 59.8819 77.5401 60.6383L80.7442 61.4317ZM90.0055 63.7251C90.2006 63.0993 90.5874 62.35 91.161 61.4558L94.3443 57.254C95.0172 56.2838 95.6218 55.508 96.1724 54.9501L93.0916 54.1872C92.8396 54.8392 92.507 55.451 92.0938 56.0227L89.1587 59.9942C88.8447 60.4899 88.5804 60.9073 88.3728 61.2584L88.1927 61.2138C88.1849 60.9201 88.1459 60.4275 88.0828 59.7479L87.3447 54.8467C87.2506 54.089 87.242 53.3927 87.3187 52.7577L84.2569 51.9995C84.4597 52.6836 84.6324 53.6519 84.7797 54.8856L85.6535 60.092C85.7482 61.1316 85.7216 61.9701 85.5786 62.6289L90.0055 63.7251ZM100.625 66.6264C101.488 66.84 102.381 66.9707 103.307 67.0089C104.233 67.0471 104.951 66.9933 105.484 66.8335L105.96 64.7481C105.498 65.0263 104.878 65.1745 104.085 65.2094C103.291 65.2444 102.486 65.1656 101.661 64.9614C100.467 64.6657 99.5183 64.1088 98.8177 63.2814C98.1172 62.454 97.8618 61.5758 98.0562 60.628L98.1888 60.5803C99.1527 61.6037 100.474 62.3232 102.151 62.7386C105.071 63.4616 106.704 62.9606 107.176 61.0552C107.408 60.1168 107.169 59.1723 106.485 58.3188C105.799 57.4747 104.502 56.741 102.786 56.3162C101.639 56.0322 100.559 56.0061 99.567 56.2334C97.5619 56.6926 96.1959 58.0647 95.7194 59.989C95.3439 61.5057 95.6075 62.8788 96.5126 64.0989C97.4059 65.3262 98.7768 66.1687 100.625 66.6264ZM101.594 61.1317C100.247 60.7984 99.1852 60.2536 98.4161 59.4998C98.7154 58.8193 99.2235 58.3516 99.9501 58.0989C100.667 57.8439 101.427 57.8209 102.224 58.018C103.067 58.2269 103.729 58.5618 104.208 59.0226C104.678 59.481 104.855 59.9472 104.74 60.4117C104.611 60.9331 104.161 61.2444 103.553 61.3049C102.944 61.3655 102.304 61.3077 101.594 61.1317ZM115.969 70.1544C115.984 69.323 116.164 68.2307 116.502 66.8657L117.035 64.7139L121.784 65.8899C122.675 66.1105 123.329 66.3127 123.756 66.4989L124.42 63.8162C123.996 63.7817 123.314 63.6529 122.394 63.4252L117.645 62.2492L118.42 59.1211L124.183 60.5482C125.415 60.8534 126.203 61.169 126.547 61.4856L126.834 58.4177L116.112 55.7629C116.096 56.6843 115.92 57.7979 115.599 59.0966L113.848 66.1682C113.526 67.4668 113.161 68.5335 112.746 69.3563L115.969 70.1544ZM130.305 73.9759C132.277 74.4641 133.891 73.8376 134.974 72.2648L135.173 72.3141L135.04 72.8544C134.845 73.6412 134.583 74.2505 134.255 74.6823L137.478 75.4804C137.495 74.559 137.644 73.5497 137.914 72.4596L138.914 68.4214C139.146 67.4829 139.467 66.5964 139.882 65.7736L136.696 64.9849C136.733 65.6077 136.596 66.5697 136.274 67.8683L135.793 69.8116C135.596 70.6078 135.116 71.2437 134.364 71.7214C133.61 72.2087 132.793 72.3384 131.921 72.1224C130.186 71.6929 129.43 70.4393 129.874 68.6477L130.421 66.439C130.686 65.3678 131.016 64.4434 131.398 63.6727L128.231 62.8887C128.191 63.7841 128.023 64.829 127.727 66.0234L127.088 68.6018C126.746 69.9858 126.862 71.1413 127.425 72.0757C127.989 73.01 128.949 73.6402 130.305 73.9759ZM145.225 77.6705C146.079 77.8818 146.837 77.9085 147.488 77.7579L148.009 75.6534C147.514 75.8227 146.941 75.8216 146.277 75.6573C144.846 75.3029 144.309 74.3851 144.677 72.8968L145.64 69.0103L149.365 69.9328L149.787 68.2265L146.062 67.304L147.024 63.4175L144.396 63.4708L143.597 66.6937L141.427 66.1562L141.004 67.8625L143.175 68.4L142.006 73.1207C141.421 75.4811 142.495 76.9945 145.225 77.6705ZM153.567 79.7362C155.539 80.2244 157.153 79.5979 158.237 78.0251L158.436 78.0744L158.302 78.6148C158.107 79.4015 157.845 80.0108 157.517 80.4426L160.74 81.2407C160.757 80.3193 160.906 79.31 161.176 78.2199L162.176 74.1817C162.409 73.2432 162.729 72.3567 163.144 71.5339L159.959 70.7452C159.996 71.368 159.858 72.33 159.536 73.6286L159.055 75.5719C158.858 76.3682 158.379 77.004 157.627 77.4817C156.872 77.969 156.055 78.0987 155.183 77.8827C153.448 77.4532 152.692 76.1996 153.136 74.408L153.683 72.1993C153.948 71.1281 154.278 70.2037 154.66 69.433L151.494 68.649C151.453 69.5444 151.285 70.5893 150.989 71.7837L150.351 74.3621C150.008 75.7461 150.124 76.9017 150.688 77.836C151.251 78.7703 152.212 79.4005 153.567 79.7362ZM166.532 82.6749C166.476 82.1279 166.567 81.3556 166.816 80.3508L167.363 78.1421C167.595 77.2036 168.124 76.4895 168.954 75.9808C169.784 75.4721 170.634 75.3305 171.497 75.5441C172.217 75.7225 172.915 76.1567 173.212 76.5824L173.808 74.1746C173.433 73.9007 172.971 73.6957 172.421 73.5595C170.667 73.1253 169.094 73.9933 168.101 75.9306L167.921 75.886L168.133 75.0329C168.227 74.6537 168.361 74.2744 168.537 73.8856C168.714 73.4968 168.886 73.2074 169.068 73.001L165.77 72.1841C165.724 73.0984 165.565 74.1054 165.296 75.1955L164.291 79.2527C164.056 80.2006 163.748 81.08 163.366 81.8909L166.532 82.6749ZM178.659 85.9495C179.522 86.1631 180.415 86.2938 181.341 86.332C182.267 86.3701 182.985 86.3164 183.517 86.1566L183.993 84.0712C183.532 84.3493 182.912 84.4976 182.119 84.5325C181.325 84.5674 180.52 84.4887 179.695 84.2845C178.501 83.9887 177.552 83.4319 176.851 82.6045C176.151 81.7771 175.896 80.8989 176.09 79.9511L176.223 79.9034C177.186 80.9268 178.507 81.6463 180.185 82.0617C183.105 82.7847 184.738 82.2837 185.21 80.3783C185.442 79.4399 185.203 78.4954 184.519 77.6419C183.833 76.7978 182.536 76.0641 180.82 75.6393C179.673 75.3552 178.593 75.3292 177.601 75.5565C175.596 76.0157 174.23 77.3878 173.753 79.3121C173.378 80.8288 173.641 82.2019 174.546 83.422C175.44 84.6493 176.811 85.4918 178.659 85.9495ZM179.627 80.4548C178.281 80.1214 177.219 79.5767 176.45 78.8229C176.749 78.1424 177.257 77.6747 177.984 77.422C178.701 77.167 179.461 77.1439 180.257 77.3411C181.101 77.55 181.763 77.8849 182.242 78.3457C182.712 78.8041 182.888 79.2703 182.773 79.7348C182.644 80.2562 182.195 80.5674 181.586 80.628C180.978 80.6886 180.338 80.6308 179.627 80.4548Z" fill="black"/>
</svg>
