<svg width="327" height="183" viewBox="0 0 327 183" fill="none" xmlns="http://www.w3.org/2000/svg">
<path fill-rule="evenodd" clip-rule="evenodd" d="M194.676 40.0565C192.347 50.099 182.318 56.3524 172.276 54.0238C162.233 51.6952 155.98 41.6664 158.308 31.6239C158.308 31.6239 158.308 31.6238 158.308 31.6238L31.5746 2.23762C28.5314 1.53199 25.4924 3.42695 24.7868 6.47013L1.27779 107.857C0.572157 110.901 2.46711 113.94 5.5103 114.645L126.733 142.754C129.777 143.459 132.745 141.489 134.326 138.795C138.348 131.939 146.491 128.174 154.643 130.064C162.795 131.954 168.451 138.919 169.045 146.845C169.279 149.96 171.078 153.036 174.121 153.742L294.795 181.723C297.838 182.428 300.877 180.533 301.582 177.49L325.091 76.1028C325.797 73.0596 323.902 70.0206 320.859 69.3149L194.676 40.0564C194.676 40.0564 194.676 40.0564 194.676 40.0565Z" fill="#F14453"/>
<mask id="path-2-inside-1_238:2087" fill="white">
<path fill-rule="evenodd" clip-rule="evenodd" d="M190.713 51.9119C188.898 59.7391 179.793 64.3144 170.377 62.1311C160.961 59.9478 154.799 51.8326 156.614 44.0054C156.614 44.0053 156.614 44.0052 156.614 44.0052L37.4534 16.375C34.7843 15.7561 32.1189 17.4181 31.5 20.0872L13.4264 98.0334C12.8075 100.702 14.4695 103.368 17.1386 103.987L131.467 130.496C134.136 131.115 136.742 129.353 138.352 127.136C141.964 122.162 149.202 119.674 156.635 121.398C164.067 123.121 169.472 128.541 170.527 134.597C170.997 137.296 172.562 140.025 175.231 140.644L289.043 167.034C291.712 167.653 294.377 165.991 294.996 163.322L313.07 85.3758C313.689 82.7067 312.027 80.0413 309.358 79.4224L190.713 51.9118C190.713 51.9117 190.713 51.9118 190.713 51.9119Z"/>
</mask>
<path d="M289.043 167.034L288.817 168.008L289.043 167.034ZM131.467 130.496L131.693 129.522L131.467 130.496ZM138.352 127.136L137.543 126.549L138.352 127.136ZM17.1386 103.987L16.9127 104.961L17.1386 103.987ZM170.527 134.597L169.542 134.769L170.527 134.597ZM175.231 140.644L175.005 141.618L175.231 140.644ZM170.151 63.1053C179.929 65.3725 189.71 60.6638 191.687 52.1377L189.738 51.686C188.086 58.8144 179.657 63.2564 170.603 61.1569L170.151 63.1053ZM155.64 43.7795C153.663 52.3055 160.374 60.8381 170.151 63.1053L170.603 61.1569C161.549 59.0575 155.935 51.3597 157.588 44.2312L155.64 43.7795ZM37.2275 17.3491L156.388 44.9793L156.84 43.031L37.6793 15.4008L37.2275 17.3491ZM14.4005 98.2593L32.4742 20.313L30.5259 19.8613L12.4522 97.8075L14.4005 98.2593ZM131.693 129.522L17.3644 103.013L16.9127 104.961L131.241 131.471L131.693 129.522ZM139.161 127.724C142.496 123.132 149.294 120.722 156.409 122.372L156.861 120.424C149.111 118.627 141.432 121.193 137.543 126.549L139.161 127.724ZM156.409 122.372C163.524 124.022 168.568 129.177 169.542 134.769L171.512 134.425C170.377 127.904 164.611 122.221 156.861 120.424L156.409 122.372ZM289.269 166.06L175.457 139.67L175.005 141.618L288.817 168.008L289.269 166.06ZM312.096 85.1499L294.022 163.096L295.971 163.548L314.044 85.6016L312.096 85.1499ZM190.487 52.8859L309.132 80.3965L309.584 78.4482L190.939 50.9376L190.487 52.8859ZM190.939 50.9376C190.401 50.8128 189.863 51.1479 189.738 51.686L191.687 52.1377C191.562 52.6757 191.025 53.0106 190.487 52.8859L190.939 50.9376ZM314.044 85.6016C314.788 82.3946 312.791 79.1919 309.584 78.4482L309.132 80.3965C311.263 80.8907 312.59 83.0188 312.096 85.1499L314.044 85.6016ZM288.817 168.008C292.024 168.752 295.227 166.755 295.971 163.548L294.022 163.096C293.528 165.227 291.4 166.554 289.269 166.06L288.817 168.008ZM131.241 131.471C134.493 132.225 137.457 130.07 139.161 127.724L137.543 126.549C136.026 128.636 133.779 130.006 131.693 129.522L131.241 131.471ZM12.4522 97.8075C11.7086 101.015 13.7056 104.217 16.9127 104.961L17.3644 103.013C15.2334 102.518 13.9064 100.39 14.4005 98.2593L12.4522 97.8075ZM37.6793 15.4008C34.4722 14.6572 31.2695 16.6542 30.5259 19.8613L32.4742 20.313C32.9683 18.182 35.0964 16.855 37.2275 17.3491L37.6793 15.4008ZM169.542 134.769C170.039 137.625 171.753 140.864 175.005 141.618L175.457 139.67C173.37 139.186 171.955 136.967 171.512 134.425L169.542 134.769ZM157.588 44.2312C157.717 43.6751 157.36 43.1516 156.84 43.031L156.388 44.9793C155.869 44.8588 155.511 44.3354 155.64 43.7795L157.588 44.2312Z" fill="black" mask="url(#path-2-inside-1_238:2087)"/>
<path d="M52.9806 59.2219C52.9701 57.9028 53.2014 56.2009 53.6888 54.0991L53.9134 53.1305L58.2333 54.1321L58.0087 55.1007C57.528 57.1735 56.9942 58.8155 56.4094 60.0169L61.8432 61.2769C61.8327 59.9578 62.064 58.2559 62.5513 56.154L63.4429 52.3088C63.9303 50.2069 64.4738 48.5672 65.0638 47.3874L59.63 46.1274C59.6264 47.4636 59.3831 49.173 58.9003 51.2554L58.6937 52.1465L54.3738 51.1449L54.5804 50.2538C55.0677 48.1519 55.6113 46.5122 56.2012 45.3324L50.7675 44.0724C50.7601 45.469 50.5265 47.1806 50.0571 49.2049L49.1655 53.0502C48.6983 55.0649 48.1548 56.7046 47.5469 57.9619L52.9806 59.2219ZM70.0595 63.478C71.0377 63.7048 72.0459 63.8467 73.072 63.9112C74.1004 63.9659 74.9076 63.9183 75.5032 63.7706L76.1826 60.4885C75.7202 60.81 75.094 61.0016 74.3039 61.0634C73.5139 61.1252 72.7121 61.0617 71.9082 60.8753C70.8621 60.6327 70.0055 60.1892 69.3362 59.5543C68.6572 58.9171 68.3546 58.2856 68.4186 57.6574L68.596 57.5965C69.4654 58.6452 70.7101 59.2196 72.4148 59.6149C75.0009 60.2145 76.6939 59.6477 77.1184 57.8171C77.2914 57.0712 77.2139 56.349 76.7861 55.5966C76.1791 54.5169 74.7053 53.5219 72.1893 52.9283C70.1068 52.4454 68.2554 52.6387 66.987 53.3551C65.7066 54.0789 64.8387 55.2249 64.5041 56.6681C64.1403 58.2372 64.4562 59.6475 65.464 60.8917C66.4718 62.1358 67.9964 62.9996 70.0595 63.478ZM70.9535 58.0819C69.9171 57.8416 69.1909 57.4078 68.7653 56.7784C68.9805 56.2465 69.3289 55.8884 69.7934 55.6899C70.2556 55.5011 70.7542 55.4636 71.2773 55.5849C72.4493 55.8566 73.0686 56.531 72.8867 57.3155C72.8081 57.6545 72.5805 57.8876 72.2018 58.0243C71.8208 58.1707 71.4087 58.1874 70.9535 58.0819ZM82.4353 66.0516C82.3177 65.2385 82.4037 64.2071 82.6934 62.9576L82.9001 62.0666C83.091 61.2433 83.5484 60.6349 84.265 60.2295C84.9817 59.824 85.7516 59.7168 86.5652 59.9054C87.5047 60.1233 88.3619 60.7405 88.742 61.39L89.6898 57.3026C89.2817 56.9936 88.7811 56.7755 88.1806 56.6363C86.2822 56.1961 84.6833 57.193 83.7733 59.401L83.5312 59.3448L83.6682 58.754C83.7782 58.2794 83.9509 57.7989 84.1958 57.3147C84.4311 56.8283 84.6997 56.4619 84.9966 56.194L79.3207 54.8779C79.3133 56.2745 79.1291 57.773 78.7586 59.3711L78.3768 61.0177C78.1926 61.812 77.9989 62.4713 77.8053 62.998C77.6095 63.5344 77.3495 64.1273 77.0209 64.7962L82.4353 66.0516ZM94.9521 69.2499C95.9304 69.4768 96.9386 69.6187 97.9647 69.6831C98.9931 69.7378 99.8002 69.6903 100.396 69.5426L101.075 66.2605C100.613 66.5819 99.9866 66.7736 99.1966 66.8353C98.4066 66.8971 97.6048 66.8337 96.8008 66.6472C95.7548 66.4047 94.8982 65.9611 94.2289 65.3262C93.5499 64.6891 93.2472 64.0575 93.3112 63.4293L93.4887 63.3684C94.358 64.4171 95.6027 64.9915 97.3074 65.3868C99.8935 65.9865 101.587 65.4196 102.011 63.589C102.184 62.8432 102.107 62.121 101.679 61.3686C101.072 60.2888 99.598 59.2938 97.0819 58.7002C94.9995 58.2174 93.1481 58.4107 91.8796 59.127C90.5993 59.8508 89.7314 60.9968 89.3967 62.44C89.0329 64.0091 89.3489 65.4195 90.3567 66.6636C91.3644 67.9077 92.889 68.7716 94.9521 69.2499ZM95.8461 63.8538C94.8097 63.6135 94.0836 63.1797 93.6579 62.5503C93.8731 62.0184 94.2215 61.6603 94.686 61.4618C95.1483 61.273 95.6469 61.2355 96.1699 61.3568C97.3419 61.6286 97.9613 62.3029 97.7793 63.0875C97.7007 63.4265 97.4732 63.6595 97.0945 63.7962C96.7135 63.9427 96.3013 63.9594 95.8461 63.8538ZM104.822 63.659C106.448 62.9848 107.619 61.766 107.98 60.2066C108.142 59.5092 108.076 58.9122 107.783 58.4156C107.478 57.9264 107.051 57.6129 106.499 57.4849C106.014 57.3726 105.557 57.4504 105.128 57.7182C104.686 57.9935 104.415 58.3696 104.303 58.8539C104.193 59.3285 104.249 59.7496 104.47 60.1172C104.691 60.4849 105.015 60.7133 105.441 60.8121C105.645 60.8592 105.804 60.8758 105.91 60.8595C105.723 61.1835 105.417 61.4902 104.992 61.7797C104.568 62.0691 104.176 62.264 103.808 62.3523L104.822 63.659ZM111.408 73.0657C113.268 73.4969 114.767 73.5484 115.916 73.2128C117.066 72.8771 117.754 72.1997 117.994 71.1633C118.354 69.6546 117.119 68.6844 115.64 68.0658C113.647 67.1955 111.183 66.8181 111.343 66.1304C111.435 65.7333 112.207 65.6163 113.379 65.8881C114.202 66.079 115.001 66.3764 115.763 66.7879C116.525 67.1993 117.137 67.5964 117.599 67.9792L118.407 64.5839C117.033 63.6427 115.495 62.9697 113.79 62.5744C112.018 62.1634 110.596 62.1299 109.527 62.4738C108.445 62.8252 107.8 63.4512 107.588 64.3617C106.722 68.1004 114.51 68.1407 114.193 69.5064C114.092 69.9422 113.261 70.0047 111.896 69.688C111.169 69.5196 110.317 69.1893 109.346 68.7091C108.366 68.2266 107.545 67.7197 106.868 67.2056L106.003 70.9346C106.603 71.2982 107.459 71.7008 108.58 72.1446C109.695 72.5765 110.643 72.8883 111.408 73.0657ZM129.525 81.737C133.429 82.6421 137.335 81.772 138.085 78.537C138.222 77.9461 138.187 77.3052 137.97 76.6119L138.855 72.7956C139.046 71.9723 139.242 71.3033 139.438 70.7669C139.634 70.2306 139.892 69.6473 140.216 68.9978L134.782 67.7379C134.857 68.1635 134.841 68.8029 134.714 69.6613C134.586 70.5197 134.438 71.2916 134.28 71.9696L134.08 72.9233C133.931 73.5626 133.593 74.0556 133.075 74.3948C132.546 74.7416 131.952 74.8386 131.283 74.6836C130.634 74.5331 130.19 74.2055 129.93 73.6962C129.668 73.1966 129.612 72.6019 129.769 71.9239L129.985 70.994C130.304 69.6186 130.77 68.2672 131.382 66.9495L125.968 65.6941C125.955 67.2017 125.763 68.7799 125.381 70.4265L125.136 71.4823C124.81 72.8867 124.942 74.0808 125.53 75.0644C126.119 76.048 127.138 76.713 128.601 77.0522C130.683 77.535 132.282 76.8034 133.357 75.2052L133.579 75.2569C133.943 75.7596 134.053 76.2955 133.918 76.8767C133.716 77.7484 133.201 78.3433 132.383 78.654C131.566 78.9646 130.551 78.9844 129.35 78.7059C128.304 78.4634 127.275 78.0613 126.264 77.4902C125.253 76.919 124.517 76.3094 124.055 75.6613L123.2 79.4335C123.91 79.8531 124.862 80.2782 126.039 80.7042C127.216 81.1302 128.373 81.4698 129.525 81.737ZM145.813 81.0431C147.982 81.5462 149.851 81.3671 151.121 80.641C152.382 79.9128 153.217 78.7794 153.556 77.3168C153.895 75.8542 153.645 74.4693 152.833 73.2604C152.011 72.0493 150.422 71.0684 148.262 70.5675C146.092 70.0644 144.224 70.2436 142.963 70.9719C141.692 71.6979 140.858 72.8313 140.519 74.2938C140.18 75.7564 140.43 77.1413 141.251 78.3525C142.063 79.5614 143.653 80.5423 145.813 81.0431ZM146.484 78.1471C145.796 77.9876 145.296 77.6368 144.973 77.0924C144.648 76.5578 144.565 75.9466 144.722 75.2686C144.88 74.5905 145.223 74.0782 145.752 73.7314C146.28 73.3944 146.883 73.2996 147.571 73.4591C148.278 73.6231 148.788 73.9761 149.113 74.5108C149.429 75.0432 149.512 75.6544 149.352 76.3421C149.193 77.0298 148.849 77.5422 148.332 77.8814C147.805 78.2185 147.191 78.311 146.484 78.1471ZM158.782 84.0504C160.787 84.5153 162.337 83.9051 163.432 82.2197L163.693 82.2803L163.637 82.5225C163.446 83.3458 163.089 84.0489 162.576 84.6342L168.097 85.9143C168.078 84.5423 168.263 83.0438 168.64 81.4166L169.017 79.7893C169.204 78.9854 169.402 78.3067 169.607 77.7726C169.803 77.2362 170.073 76.6455 170.397 75.996L164.963 74.7361C165.026 75.1691 164.998 75.816 164.878 76.6863C164.746 77.564 164.612 78.3188 164.462 78.9678L164.241 79.917C164.093 80.5563 163.764 81.0515 163.246 81.3908C162.727 81.7398 162.133 81.8368 161.464 81.6818C160.815 81.5313 160.371 81.2037 160.111 80.6944C159.849 80.1948 159.793 79.6001 159.951 78.9221L160.166 77.9922C160.512 76.5006 160.979 75.1492 161.563 73.9477L156.149 72.6923C156.142 74.0889 155.939 75.6649 155.533 77.418L155.288 78.4738C154.962 79.8782 155.094 81.0722 155.692 82.0581C156.29 83.0439 157.319 83.7112 158.782 84.0504ZM175.458 87.6212C175.341 86.808 175.427 85.7767 175.716 84.5272L175.923 83.6361C176.114 82.8128 176.571 82.2044 177.288 81.799C178.005 81.3936 178.775 81.2863 179.588 81.475C180.528 81.6928 181.385 82.3101 181.765 82.9596L182.713 78.8721C182.305 78.5632 181.804 78.345 181.204 78.2058C179.305 77.7656 177.706 78.7626 176.796 80.9705L176.554 80.9144L176.691 80.3235C176.801 79.8489 176.974 79.3684 177.219 78.8843C177.454 78.3979 177.723 78.0315 178.02 77.7635L172.344 76.4474C172.336 77.844 172.152 79.3425 171.782 80.9407L171.4 82.5873C171.216 83.3815 171.022 84.0408 170.828 84.5675C170.632 85.1039 170.373 85.6969 170.044 86.3657L175.458 87.6212ZM192.866 91.9537C193.293 92.0525 193.752 92.0977 194.241 92.0989C194.721 92.098 195.142 92.0425 195.481 91.9475L196.289 88.4606C195.943 88.6763 195.284 88.7479 194.732 88.6199C194.199 88.4964 193.78 88.2358 193.486 87.8309C193.189 87.4356 193.109 86.9474 193.241 86.3759L194.052 82.8793L197.287 83.6294L197.595 82.3025L194.36 81.5523L195.28 77.5811L190.842 77.7054L190.175 80.5821L188.413 80.1734L188.105 81.5003L189.868 81.9091L188.684 87.0135C188.102 89.5222 189.496 91.1721 192.866 91.9537ZM203.585 82.5278C204.113 82.2318 204.443 81.7775 204.584 81.1673C204.728 80.5474 204.634 79.9847 204.29 79.4865C203.946 78.9883 203.41 78.6598 202.674 78.4891C201.938 78.3185 201.312 78.3774 200.793 78.6757C200.265 78.9718 199.933 79.4357 199.79 80.0556C199.648 80.6658 199.744 81.2189 200.088 81.7171C200.422 82.213 200.959 82.5415 201.695 82.7122C202.431 82.8829 203.057 82.8239 203.585 82.5278ZM201.998 93.7749C202.005 92.3783 202.239 90.6668 202.706 88.6521L203.341 85.911C203.552 85.0005 203.767 84.295 203.978 83.7825C203.334 84.0516 202.511 84.0753 201.494 83.8395C200.477 83.6037 199.721 83.2139 199.203 82.6753C199.191 83.1217 199.073 83.8497 198.837 84.8667L198.202 87.6078C197.735 89.6224 197.191 91.2621 196.583 92.5195L201.998 93.7749ZM210.175 95.9671C210.902 96.1355 211.738 96.2683 212.683 96.3751C213.63 96.4723 214.349 96.4961 214.833 96.4348L215.624 93.0253C215.103 93.2007 214.478 93.3006 213.76 93.3178C213.041 93.3349 212.382 93.2738 211.791 93.1368C209.466 92.5978 208.328 91.4765 208.649 90.0914C208.972 88.6967 210.428 88.187 212.52 88.6721C213.13 88.8136 213.73 89.0445 214.317 89.3745C214.904 89.7045 215.338 90.0299 215.621 90.3506L216.579 87.1024C216.195 86.8195 215.572 86.5118 214.72 86.1815C213.858 85.849 213.157 85.615 212.605 85.487C210.164 84.921 208.16 85.0687 206.86 85.788C205.549 86.5147 204.748 87.6355 204.407 89.1077C204.065 90.58 204.291 91.9388 205.151 93.1589C206 94.3865 207.734 95.4011 210.175 95.9671ZM227.624 100.034C228.128 100.15 228.637 100.156 229.142 100.049C229.644 99.9507 230.024 99.7633 230.28 99.496L231.243 95.1672C230.7 95.97 229.719 96.4161 228.45 96.1219C227.84 95.9804 227.336 95.5983 227.082 95.2843C226.819 94.968 226.427 94.5912 226.009 94.4537L226.066 94.2115L226.172 94.2362C227.577 94.5619 228.744 94.5877 229.675 94.3137C230.595 94.0471 231.154 93.4828 231.354 92.6208C231.763 90.8579 230.766 89.698 228.354 89.1388C227.173 88.8648 226.091 88.9509 225.108 89.4067C224.115 89.8602 223.386 90.5794 222.904 91.5596L222.739 91.5214L223.24 89.3615C223.723 87.279 224.257 85.6371 224.842 84.4356L219.427 83.1801C219.42 84.5767 219.186 86.2883 218.717 88.3127L217.825 92.1579C217.358 94.1726 216.815 95.8123 216.207 97.0697L221.621 98.3251C221.603 97.1267 221.753 95.8652 222.06 94.5382L222.188 93.9861C222.446 93.9745 222.678 93.9874 222.872 94.0323C224.131 94.3243 224.483 95.3143 224.752 96.3975C224.929 97.1325 225.138 97.9055 225.486 98.558C225.833 99.2201 226.569 99.7887 227.624 100.034ZM222.466 92.8768C222.634 92.4156 223.006 92.0426 223.588 91.7794C224.17 91.5162 224.747 91.446 225.319 91.5785C226.142 91.7694 226.596 92.232 226.459 92.8228C226.315 93.4427 225.788 93.6471 224.887 93.4382L222.466 92.8768ZM237.644 102.336C238.622 102.563 239.631 102.705 240.657 102.77C241.685 102.824 242.492 102.777 243.088 102.629L243.767 99.347C243.305 99.6684 242.679 99.86 241.889 99.9218C241.099 99.9836 240.297 99.9201 239.493 99.7337C238.447 99.4912 237.59 99.0476 236.921 98.4127C236.242 97.7755 235.939 97.144 236.003 96.5158L236.181 96.4549C237.05 97.5036 238.295 98.078 239.999 98.4733C242.586 99.073 244.279 98.5061 244.703 96.6755C244.876 95.9297 244.799 95.2074 244.371 94.455C243.764 93.3753 242.29 92.3803 239.774 91.7867C237.691 91.3038 235.84 91.4972 234.572 92.2135C233.291 92.9373 232.423 94.0833 232.089 95.5265C231.725 97.0956 232.041 98.506 233.049 99.7501C234.056 100.994 235.581 101.858 237.644 102.336ZM238.538 96.9403C237.502 96.7 236.776 96.2662 236.35 95.6368C236.565 95.1049 236.914 94.7468 237.378 94.5483C237.84 94.3595 238.339 94.322 238.862 94.4433C240.034 94.7151 240.653 95.3894 240.471 96.174C240.393 96.513 240.165 96.746 239.787 96.8827C239.406 97.0291 238.993 97.0458 238.538 96.9403ZM250.633 105.348C251.059 105.447 251.518 105.492 252.008 105.493C252.488 105.492 252.909 105.437 253.247 105.342L254.056 101.855C253.71 102.071 253.05 102.142 252.498 102.014C251.965 101.891 251.546 101.63 251.252 101.225C250.956 100.83 250.875 100.342 251.008 99.7704L251.818 96.2738L255.053 97.0239L255.361 95.697L252.126 94.9468L253.047 90.9756L248.609 91.0999L247.942 93.9766L246.179 93.5679L245.871 94.8948L247.634 95.3036L246.451 100.408C245.869 102.917 247.262 104.567 250.633 105.348ZM265.627 108.825C266.053 108.924 266.512 108.969 267.001 108.97C267.481 108.969 267.902 108.914 268.241 108.819L269.049 105.332C268.703 105.547 268.044 105.619 267.492 105.491C266.959 105.368 266.54 105.107 266.246 104.702C265.95 104.307 265.869 103.818 266.001 103.247L266.812 99.7504L270.047 100.501L270.355 99.1736L267.12 98.4235L268.041 94.4523L263.603 94.5766L262.936 97.4532L261.173 97.0445L260.865 98.3715L262.628 98.7802L261.444 103.885C260.863 106.393 262.256 108.043 265.627 108.825ZM275.467 111.107C277.637 111.61 279.506 111.431 280.776 110.705C282.037 109.976 282.872 108.843 283.211 107.38C283.55 105.918 283.299 104.533 282.488 103.324C281.666 102.113 280.077 101.132 277.917 100.631C275.747 100.128 273.879 100.307 272.618 101.035C271.347 101.761 270.513 102.895 270.174 104.357C269.834 105.82 270.085 107.205 270.906 108.416C271.718 109.625 273.307 110.606 275.467 111.107ZM276.139 108.211C275.451 108.051 274.951 107.7 274.628 107.156C274.303 106.621 274.22 106.01 274.377 105.332C274.534 104.654 274.878 104.142 275.407 103.795C275.935 103.458 276.538 103.363 277.226 103.523C277.933 103.687 278.443 104.04 278.768 104.574C279.084 105.107 279.167 105.718 279.007 106.406C278.848 107.093 278.504 107.606 277.987 107.945C277.459 108.282 276.846 108.375 276.139 108.211ZM143.495 110.275C145.538 110.749 147.288 110.818 148.729 110.458C150.16 110.096 151.15 109.172 151.483 107.738C151.761 106.537 151.399 105.504 150.656 104.832C149.912 104.169 148.847 103.565 147.741 103.186C145.537 102.349 143.256 101.84 143.51 100.746C143.584 100.426 143.88 100.25 144.393 100.195C144.906 100.14 145.534 100.204 146.289 100.38C147.287 100.611 148.251 100.988 149.174 101.498C150.097 102.008 150.798 102.548 151.28 103.109L152.444 98.0915C151.803 97.6876 151 97.2769 150.025 96.857C149.051 96.4372 148.073 96.1187 147.115 95.8963C145.778 95.5864 144.56 95.4674 143.469 95.5512C142.368 95.6328 141.433 95.9262 140.668 96.453C139.902 96.9798 139.408 97.7022 139.193 98.632C138.939 99.7265 139.18 100.711 139.761 101.377C140.339 102.052 141.181 102.645 142.148 103.053C144.515 104.112 147.345 104.585 147.116 105.573C146.973 106.193 146.029 106.3 144.295 105.898C143.104 105.622 141.953 105.171 140.852 104.549C139.742 103.924 138.873 103.181 138.226 102.317L136.841 107.497C137.707 108.035 138.787 108.571 140.079 109.116C141.371 109.66 142.507 110.046 143.495 110.275ZM160.549 113.933C160.556 112.537 160.79 110.825 161.257 108.811L162.256 104.5L163.98 104.9C165.007 105.138 165.847 105.568 166.511 106.181L166.966 100.785L155.023 98.0159L153.057 103.061C153.904 102.798 154.847 102.782 155.883 103.023L157.733 103.452L156.734 107.762C156.267 109.776 155.723 111.416 155.115 112.674L160.549 113.933ZM173.279 117.181C174.451 117.453 175.505 117.616 176.449 117.682C177.386 117.735 178.348 117.724 179.336 117.647L180.542 112.445C179.856 112.807 179.047 113.038 178.115 113.138C177.183 113.238 176.227 113.18 175.259 112.955C172.895 112.407 170.961 111.112 171.41 109.175C171.614 108.293 172.19 107.702 173.13 107.389C174.068 107.086 175.192 107.081 176.49 107.382C177.255 107.56 177.993 107.853 178.695 108.261C179.385 108.676 179.918 109.106 180.292 109.56L181.447 104.755C180.934 104.371 180.245 103.997 179.392 103.626C178.537 103.264 177.625 102.971 176.647 102.744C175.01 102.365 173.352 102.337 171.759 102.784C170.962 103.008 170.232 103.339 169.581 103.77C168.267 104.639 167.207 106.128 166.76 108.056C166.311 109.993 166.595 111.804 167.393 113.163C168.59 115.216 170.841 116.647 173.279 117.181Z" fill="#E0E0E0"/>
</svg>
