<svg width="385" height="411" viewBox="0 0 385 411" fill="none" xmlns="http://www.w3.org/2000/svg">
<path d="M126.531 73.1843C127.133 66.9093 134.837 64.2535 139.178 68.8242L145.501 75.4803C151.151 81.4289 161.052 79.6029 164.208 72.03L167.74 63.5566C170.166 57.7379 178.31 57.4708 181.111 63.1181L185.191 71.3419C188.837 78.6918 198.836 79.8652 204.084 73.5592L209.957 66.5032C213.989 61.6579 221.85 63.8032 222.863 70.0254L224.337 79.0863C225.655 87.1842 234.864 91.2528 241.738 86.774L249.429 81.7625C254.711 78.3211 261.59 82.6882 260.724 88.9323L259.462 98.0252C258.334 106.152 265.934 112.754 273.823 110.5L282.65 107.978C288.711 106.247 293.998 112.448 291.329 118.159L287.443 126.476C283.97 133.909 289.287 142.458 297.49 142.63L306.668 142.822C312.97 142.954 316.194 150.437 311.961 155.108L305.796 161.91C300.286 167.989 302.847 177.726 310.635 180.308L319.348 183.197C325.332 185.18 326.207 193.282 320.785 196.497L312.889 201.18C305.832 205.365 305.409 215.424 312.09 220.186L319.565 225.515C324.698 229.174 323.146 237.174 317.017 238.648L308.091 240.795C300.115 242.715 296.745 252.202 301.726 258.722L307.298 266.017C311.124 271.027 307.283 278.214 300.992 277.816L291.83 277.237C283.642 276.72 277.626 284.792 280.463 292.491L283.638 301.105C285.818 307.02 280.029 312.755 274.134 310.52L265.55 307.267C257.879 304.359 249.75 310.3 250.192 318.492L250.687 327.659C251.026 333.954 243.804 337.728 238.83 333.855L231.587 328.216C225.113 323.176 215.595 326.457 213.602 334.416L211.372 343.321C209.841 349.436 201.828 350.914 198.216 345.748L192.957 338.224C188.256 331.499 178.194 331.829 173.944 338.847L169.188 346.699C165.923 352.092 157.83 351.142 155.902 345.14L153.093 336.4C150.584 328.589 140.871 325.938 134.741 331.392L127.883 337.494C123.173 341.684 115.719 338.391 115.646 332.087L115.538 322.908C115.443 314.704 106.943 309.308 99.4779 312.713L91.1254 316.522C85.3898 319.138 79.2381 313.794 81.0257 307.749L83.6288 298.946C85.9554 291.078 79.4236 283.417 71.287 284.469L62.1828 285.647C55.931 286.456 51.6277 279.537 55.1177 274.287L60.2 266.642C64.7422 259.81 60.7588 250.564 52.6734 249.171L43.6265 247.614C37.414 246.544 35.3414 238.663 40.2237 234.675L47.3336 228.868C53.6879 223.678 52.6069 213.669 45.291 209.955L37.1052 205.8C31.484 202.946 31.8263 194.805 37.6672 192.434L46.1729 188.98C53.7746 185.894 55.692 176.01 49.7958 170.305L43.1985 163.922C38.6681 159.538 41.3948 151.859 47.6752 151.315L56.821 150.522C64.9947 149.813 69.7402 140.934 65.7875 133.744L61.3648 125.7C58.3278 120.176 63.1968 113.642 69.3586 114.973L78.3317 116.911C86.3513 118.643 93.5031 111.557 91.8452 103.522L89.9901 94.5311C88.7163 88.3572 95.2948 83.5488 100.791 86.6367L108.794 91.1335C115.947 95.1525 124.869 90.4892 125.653 82.3224L126.531 73.1843Z" fill="#F05127" stroke="#BE310C" stroke-width="4"/>
<path d="M95.387 225.929C97.2963 225.27 98.5705 224.608 99.5994 223.557C101.11 222.031 101.393 219.896 100.274 216.507L99.0453 212.944C98.2149 210.535 97.7305 208.553 97.5809 207.003L91.3316 209.157C92.1693 210.47 93.0089 212.33 93.8393 214.738L94.708 217.258C95.0983 218.39 95.1384 219.407 94.8432 220.316C94.548 221.225 93.8862 221.863 92.8761 222.211C91.4442 222.705 90.2171 222.532 89.1987 221.703L90.1253 226.625C90.7576 226.73 91.5373 226.722 92.483 226.619C93.4139 226.509 94.3769 226.277 95.387 225.929ZM112.37 220.074C114.857 219.217 116.614 217.866 117.43 216.342C118.235 214.823 118.359 213.166 117.781 211.489C117.204 209.813 116.085 208.585 114.514 207.884C112.933 207.187 110.727 207.202 108.252 208.056C105.766 208.913 104.008 210.264 103.203 211.783C102.387 213.307 102.263 214.964 102.841 216.64C103.419 218.316 104.538 219.545 106.119 220.242C107.689 220.942 109.895 220.927 112.37 220.074ZM111.226 216.755C110.438 217.027 109.717 216.989 109.053 216.647C108.392 216.316 107.926 215.756 107.658 214.979C107.39 214.202 107.413 213.474 107.725 212.795C108.041 212.128 108.586 211.654 109.374 211.382C110.184 211.103 110.916 211.136 111.577 211.468C112.226 211.803 112.692 212.362 112.964 213.15C113.236 213.938 113.213 214.666 112.908 215.33C112.592 215.998 112.036 216.476 111.226 216.755ZM121.935 202.283C122.278 201.656 122.323 200.994 122.082 200.295C121.837 199.585 121.39 199.081 120.733 198.798C120.077 198.515 119.335 198.522 118.491 198.813C117.647 199.104 117.058 199.556 116.726 200.179C116.384 200.806 116.342 201.479 116.587 202.189C116.828 202.889 117.272 203.382 117.928 203.665C118.573 203.951 119.316 203.944 120.159 203.653C121.003 203.362 121.592 202.91 121.935 202.283ZM127.4 214.532C126.531 213.13 125.692 211.271 124.896 208.962L123.813 205.821C123.453 204.778 123.226 203.937 123.115 203.292C122.639 203.965 121.832 204.505 120.666 204.906C119.501 205.308 118.499 205.393 117.643 205.179C117.911 205.633 118.25 206.435 118.651 207.6L119.734 210.742C120.53 213.051 121.015 215.032 121.195 216.671L127.4 214.532ZM135.647 211.689C135.32 211.317 134.938 210.642 134.509 209.685C134.08 208.727 133.741 207.888 133.492 207.166L133.095 206.086C132.838 205.343 132.868 204.637 133.173 203.973C133.478 203.309 134.023 202.835 134.789 202.571C136.265 202.062 137.495 202.818 138.034 204.383L138.394 205.427C138.96 207.07 139.33 208.718 139.51 210.358L145.737 208.211C144.858 206.85 144.072 205.146 143.368 203.104L142.951 201.894C142.396 200.284 141.516 199.172 140.299 198.56C139.082 197.949 137.634 197.927 135.958 198.505C133.705 199.281 132.54 200.875 132.461 203.275L132.183 203.37L132.08 203.07C131.739 202.083 131.656 201.155 131.817 200.292L125.49 202.473C126.328 203.787 127.084 205.401 127.746 207.322L128.388 209.187C128.714 210.13 128.941 210.933 129.081 211.593C129.226 212.264 129.334 213.009 129.409 213.84L135.647 211.689ZM160.833 203.367C161.322 203.198 161.809 202.956 162.3 202.65C162.78 202.348 163.166 202.028 163.445 201.721L162.068 197.725C161.857 198.158 161.242 198.643 160.609 198.861C159.998 199.072 159.416 199.074 158.867 198.853C158.323 198.643 157.936 198.205 157.71 197.551L156.329 193.543L160.037 192.265L159.512 190.745L155.805 192.023L154.236 187.472L149.873 190.379L151.01 193.676L148.989 194.372L149.514 195.893L151.534 195.197L153.55 201.046C154.542 203.921 156.97 204.698 160.833 203.367ZM171.345 199.383C171.018 199.011 170.64 198.347 170.226 197.397C169.815 196.458 169.472 195.607 169.212 194.852L168.815 193.772C168.547 193.032 168.566 192.33 168.882 191.662C169.187 190.998 169.721 190.529 170.487 190.265C171.963 189.756 173.193 190.512 173.732 192.077L174.092 193.12C174.693 194.863 175.058 196.5 175.208 198.051L181.435 195.904C180.597 194.591 179.811 192.887 179.088 190.789L178.671 189.579C178.116 187.97 177.236 186.858 176.019 186.246C174.802 185.635 173.354 185.613 171.656 186.198C169.402 186.975 168.238 188.569 168.159 190.968L167.903 191.056L167.333 189.402C166.522 187.049 166.026 185.071 165.858 183.465L159.642 185.608C160.049 186.25 160.474 187.085 160.941 188.116C161.412 189.158 161.812 190.175 162.16 191.185L163.68 195.592C164.028 196.602 164.339 197.65 164.603 198.739C164.87 199.839 165.054 200.769 165.129 201.526L171.345 199.383ZM190.903 193C192.025 192.614 193.122 192.124 194.19 191.545C195.253 190.954 196.031 190.401 196.534 189.879L195.156 186.169C194.895 186.781 194.388 187.365 193.636 187.923C192.885 188.48 192.042 188.919 191.121 189.237C189.922 189.65 188.787 189.743 187.719 189.528C186.64 189.316 185.941 188.874 185.612 188.205L185.751 188.033C187.278 188.537 188.884 188.331 190.838 187.658C193.801 186.636 195.14 185.007 194.417 182.909C194.122 182.055 193.592 181.381 192.692 180.896C191.407 180.196 189.309 180.125 186.419 181.109C184.032 181.931 182.301 183.286 181.481 184.798C180.654 186.325 180.504 188.016 181.074 189.67C181.694 191.468 182.895 192.681 184.683 193.294C186.472 193.907 188.539 193.815 190.903 193ZM188.414 187.04C187.226 187.45 186.228 187.471 185.407 187.108C185.289 186.441 185.413 185.864 185.753 185.374C186.098 184.896 186.573 184.545 187.172 184.339C188.515 183.876 189.558 184.162 189.868 185.061C190.002 185.45 189.92 185.826 189.627 186.2C189.338 186.585 188.936 186.86 188.414 187.04ZM215.401 184.555C219.02 183.307 219.781 180.002 218.648 176.717C217.515 173.431 214.88 171.297 211.261 172.545C208.863 173.371 207.63 175.162 207.556 177.361L207.279 177.457L206.716 175.825C205.894 173.439 205.409 171.457 205.263 169.881L199.025 172.031C199.863 173.344 200.702 175.204 201.533 177.612L203.052 182.019C203.882 184.428 204.363 186.398 204.512 187.949L210.717 185.81C210.345 185.379 210.067 185.003 209.881 184.682C209.696 184.361 209.517 183.95 209.349 183.462L209.253 183.185L209.553 183.081C210.996 184.708 213.015 185.378 215.401 184.555ZM212.012 182.109C211.191 182.392 210.429 182.345 209.742 181.973C209.044 181.605 208.567 181.049 208.303 180.283C208.027 179.484 208.053 178.73 208.373 178.036C208.692 177.342 209.267 176.846 210.099 176.559C210.954 176.265 211.719 176.286 212.42 176.628C213.111 176.974 213.596 177.552 213.875 178.362C214.154 179.173 214.125 179.916 213.794 180.613C213.452 181.315 212.867 181.815 212.012 182.109ZM229.732 179.615C230.853 179.228 231.951 178.738 233.018 178.159C234.081 177.569 234.859 177.015 235.362 176.494L233.984 172.784C233.723 173.395 233.216 173.98 232.465 174.537C231.713 175.094 230.871 175.534 229.949 175.851C228.751 176.264 227.615 176.358 226.547 176.142C225.468 175.93 224.77 175.488 224.44 174.82L224.579 174.647C226.107 175.152 227.712 174.946 229.666 174.272C232.63 173.251 233.968 171.622 233.245 169.524C232.95 168.669 232.42 167.995 231.52 167.51C230.236 166.811 228.137 166.739 225.247 167.723C222.861 168.546 221.129 169.9 220.309 171.412C219.482 172.94 219.332 174.63 219.902 176.284C220.522 178.083 221.723 179.296 223.512 179.909C225.3 180.522 227.367 180.43 229.732 179.615ZM227.242 173.655C226.055 174.064 225.056 174.086 224.235 173.723C224.117 173.055 224.241 172.479 224.582 171.989C224.926 171.51 225.401 171.16 226.001 170.953C227.344 170.49 228.386 170.777 228.696 171.676C228.83 172.064 228.749 172.44 228.455 172.814C228.166 173.2 227.764 173.475 227.242 173.655ZM243.418 174.896C245.549 174.162 247.081 173.274 248.021 172.217C248.961 171.16 249.224 170.051 248.815 168.863C248.229 167.128 246.385 166.931 244.517 167.24C241.977 167.619 239.275 168.786 239.003 167.998C238.846 167.543 239.546 166.942 240.889 166.479C241.832 166.154 242.818 165.95 243.838 165.884C244.859 165.818 245.72 165.832 246.423 165.925L245.102 162.021C243.137 161.941 241.176 162.232 239.222 162.905C237.191 163.606 235.748 164.463 234.893 165.478C234.031 166.508 233.778 167.539 234.138 168.583C235.615 172.867 243.433 168.023 243.973 169.589C244.145 170.088 243.353 170.672 241.787 171.211C240.955 171.498 239.895 171.702 238.623 171.83C237.339 171.962 236.2 171.97 235.2 171.88L236.673 176.154C237.501 176.142 238.61 176.008 240.011 175.748C241.397 175.482 242.541 175.199 243.418 174.896ZM258.559 169.677C259.047 169.509 259.535 169.266 260.025 168.96C260.505 168.658 260.892 168.339 261.171 168.031L259.793 164.035C259.582 164.468 258.967 164.953 258.334 165.172C257.724 165.382 257.141 165.384 256.593 165.163C256.049 164.954 255.662 164.516 255.436 163.861L254.054 159.854L257.762 158.576L257.238 157.055L253.53 158.333L251.961 153.782L247.598 156.689L248.735 159.986L246.715 160.683L247.239 162.203L249.259 161.507L251.276 167.357C252.267 170.231 254.696 171.009 258.559 169.677ZM115.814 254.85C116.647 254.563 117.568 254.171 118.58 253.686C119.589 253.189 120.323 252.762 120.769 252.397L119.422 248.49C119.011 248.992 118.448 249.484 117.74 249.951C117.032 250.419 116.333 250.772 115.656 251.005C112.992 251.923 111.15 251.515 110.603 249.928C110.052 248.329 111.188 246.907 113.586 246.08C114.285 245.839 115.03 245.694 115.824 245.656C116.619 245.619 117.258 245.671 117.742 245.815L116.663 241.964C116.102 241.922 115.286 242.005 114.226 242.208C113.155 242.416 112.307 242.622 111.674 242.84C108.877 243.804 106.964 245.209 106.115 246.743C105.258 248.293 105.159 249.917 105.741 251.604C106.323 253.291 107.401 254.509 109.027 255.191C110.645 255.887 113.017 255.814 115.814 254.85ZM129.545 250.117C132.032 249.259 133.789 247.908 134.605 246.385C135.41 244.866 135.534 243.208 134.957 241.532C134.379 239.856 133.26 238.627 131.689 237.927C130.108 237.23 127.902 237.245 125.427 238.099C122.941 238.956 121.183 240.307 120.378 241.826C119.562 243.349 119.438 245.007 120.016 246.683C120.594 248.359 121.713 249.588 123.294 250.284C124.865 250.985 127.07 250.97 129.545 250.117ZM128.401 246.798C127.613 247.069 126.892 247.032 126.228 246.69C125.567 246.359 125.101 245.799 124.833 245.022C124.565 244.245 124.588 243.517 124.9 242.838C125.216 242.17 125.761 241.697 126.549 241.425C127.359 241.146 128.091 241.179 128.752 241.51C129.401 241.845 129.867 242.405 130.139 243.193C130.411 243.981 130.389 244.709 130.083 245.373C129.767 246.041 129.211 246.518 128.401 246.798ZM144.808 244.495C144.466 244.116 144.084 243.44 143.651 242.472C143.211 241.518 142.872 240.679 142.63 239.98L142.255 238.892C141.991 238.126 141.988 237.432 142.227 236.791C142.469 236.161 142.973 235.714 143.717 235.457C145.182 234.952 146.193 235.759 146.74 237.346L147.1 238.389C147.498 239.544 147.793 240.473 147.993 241.161C148.186 241.865 148.316 242.565 148.393 243.259L154.421 241.181C153.552 239.779 152.805 238.186 152.192 236.41L151.871 235.478C151.649 234.797 151.675 234.117 151.936 233.468C152.196 232.819 152.663 232.373 153.363 232.132C154.795 231.638 155.805 232.445 156.353 234.032L156.712 235.075C157.313 236.818 157.679 238.456 157.828 240.006L164.056 237.859C163.218 236.546 162.432 234.842 161.709 232.744L161.291 231.535C160.224 228.438 158.117 226.829 154.709 228.004C152.278 228.842 150.971 230.634 150.946 232.866L150.668 232.961C149.38 231.17 147.683 230.463 145.096 231.318C142.854 232.091 141.701 233.681 141.621 236.08L141.344 236.176L141.241 235.876C140.9 234.888 140.816 233.961 140.978 233.098L134.651 235.279C135.489 236.592 136.244 238.207 136.906 240.127L137.549 241.992C137.875 242.936 138.102 243.739 138.242 244.399C138.387 245.069 138.494 245.814 138.57 246.645L144.808 244.495ZM172.425 234.974C172.083 234.595 171.701 233.92 171.268 232.951C170.828 231.998 170.489 231.158 170.248 230.459L169.873 229.371C169.609 228.605 169.605 227.911 169.844 227.27C170.086 226.64 170.59 226.193 171.334 225.936C172.799 225.431 173.81 226.238 174.357 227.825L174.717 228.869C175.115 230.023 175.41 230.952 175.61 231.641C175.803 232.344 175.933 233.045 176.01 233.738L182.038 231.66C181.169 230.258 180.422 228.665 179.809 226.889L179.488 225.957C179.266 225.276 179.292 224.596 179.553 223.948C179.813 223.299 180.28 222.852 180.98 222.611C182.412 222.117 183.422 222.924 183.97 224.511L184.329 225.555C184.93 227.297 185.296 228.935 185.445 230.485L191.673 228.339C190.835 227.025 190.049 225.322 189.326 223.224L188.909 222.014C187.841 218.917 185.734 217.308 182.326 218.483C179.895 219.321 178.588 221.113 178.563 223.345L178.285 223.441C176.997 221.649 175.3 220.943 172.714 221.797C170.471 222.57 169.318 224.16 169.239 226.559L168.961 226.655L168.858 226.355C168.517 225.367 168.433 224.44 168.595 223.577L162.268 225.758C163.106 227.071 163.861 228.686 164.523 230.607L165.166 232.471C165.492 233.415 165.719 234.218 165.859 234.878C166.004 235.548 166.111 236.294 166.187 237.125L172.425 234.974ZM199.087 226.143C201.385 225.351 202.553 223.768 202.592 221.395L202.892 221.292L202.988 221.569C203.313 222.513 203.397 223.44 203.25 224.347L209.577 222.166C208.698 220.805 207.943 219.19 207.3 217.325L206.657 215.461C206.339 214.539 206.112 213.736 205.983 213.073C205.842 212.413 205.742 211.653 205.659 210.8L199.431 212.947C199.766 213.34 200.144 214.005 200.57 214.951C200.988 215.912 201.327 216.752 201.583 217.495L201.958 218.583C202.211 219.316 202.192 220.018 201.887 220.682C201.586 221.357 201.052 221.827 200.286 222.091C199.542 222.347 198.892 222.298 198.313 221.951C197.738 221.615 197.309 221.055 197.041 220.278L196.674 219.213C196.084 217.503 195.704 215.859 195.535 214.29L189.33 216.429C190.199 217.831 190.985 219.535 191.677 221.544L192.094 222.754C192.649 224.363 193.53 225.475 194.746 226.087C195.963 226.698 197.411 226.72 199.087 226.143ZM218.047 219.247C217.72 218.875 217.338 218.199 216.908 217.242C216.479 216.285 216.14 215.445 215.891 214.724L215.494 213.644C215.238 212.9 215.268 212.194 215.573 211.53C215.878 210.866 216.422 210.393 217.188 210.129C218.665 209.62 219.894 210.376 220.434 211.941L220.793 212.984C221.36 214.627 221.729 216.276 221.909 217.915L228.137 215.768C227.257 214.407 226.471 212.703 225.767 210.661L225.35 209.451C224.795 207.841 223.915 206.729 222.698 206.118C221.482 205.506 220.033 205.484 218.357 206.062C216.104 206.839 214.939 208.432 214.86 210.832L214.582 210.928L214.479 210.628C214.139 209.64 214.055 208.713 214.217 207.849L207.89 210.031C208.728 211.344 209.483 212.959 210.145 214.879L210.788 216.744C211.113 217.687 211.34 218.491 211.481 219.15C211.625 219.821 211.733 220.566 211.808 221.397L218.047 219.247ZM230.864 200.695C231.206 200.068 231.251 199.406 231.01 198.707C230.766 197.996 230.318 197.492 229.662 197.209C229.006 196.926 228.263 196.934 227.42 197.225C226.576 197.516 225.986 197.967 225.655 198.591C225.312 199.218 225.271 199.891 225.516 200.601C225.757 201.3 226.2 201.793 226.857 202.076C227.502 202.363 228.244 202.355 229.088 202.065C229.932 201.774 230.521 201.322 230.864 200.695ZM236.328 212.944C235.46 211.542 234.62 209.683 233.824 207.374L232.742 204.233C232.382 203.189 232.154 202.349 232.044 201.704C231.568 202.377 230.76 202.916 229.595 203.318C228.429 203.72 227.427 203.804 226.571 203.59C226.84 204.044 227.178 204.847 227.58 206.012L228.663 209.153C229.459 211.462 229.943 213.444 230.123 215.083L236.328 212.944ZM245.43 210.166C245.919 209.998 246.406 209.755 246.897 209.45C247.377 209.148 247.763 208.828 248.042 208.521L246.665 204.525C246.454 204.958 245.839 205.443 245.206 205.661C244.596 205.871 244.013 205.874 243.465 205.653C242.92 205.443 242.533 205.005 242.308 204.35L240.926 200.343L244.634 199.065L244.109 197.544L240.402 198.822L238.833 194.271L234.47 197.179L235.607 200.476L233.587 201.172L234.111 202.693L236.131 201.996L238.148 207.846C239.139 210.721 241.568 211.498 245.43 210.166ZM259.228 210.85C263.701 209.307 267.065 205.987 265.787 202.28C265.553 201.602 265.116 200.983 264.464 200.425L262.957 196.052C262.631 195.108 262.408 194.316 262.267 193.657C262.127 192.997 262.019 192.252 261.936 191.399L255.709 193.545C256.051 193.924 256.436 194.574 256.847 195.513C257.257 196.452 257.593 197.317 257.861 198.094L258.258 199.174C258.511 199.907 258.481 200.613 258.176 201.277C257.863 201.956 257.33 202.425 256.564 202.689C255.82 202.946 255.17 202.897 254.591 202.55C254.015 202.214 253.586 201.654 253.319 200.877L252.951 199.812C252.408 198.235 252.027 196.591 251.813 194.889L245.608 197.028C246.541 198.544 247.338 200.244 247.988 202.131L248.405 203.341C248.96 204.951 249.84 206.063 251.046 206.678C252.252 207.293 253.689 207.319 255.365 206.742C257.752 205.919 258.892 204.184 258.966 201.911L259.221 201.823C259.899 202.098 260.346 202.565 260.576 203.231C260.92 204.23 260.777 205.149 260.154 205.972C259.532 206.795 258.528 207.452 257.152 207.926C255.953 208.34 254.671 208.583 253.301 208.645C251.932 208.708 250.813 208.559 249.944 208.201L251.455 212.511C252.427 212.486 253.647 212.314 255.092 212.002C256.537 211.69 257.907 211.305 259.228 210.85Z" fill="#F2F2F2"/>
<line x1="89.4214" y1="175.577" x2="228.345" y2="127.684" stroke="#F2994A" stroke-width="4"/>
<line x1="125.341" y1="279.77" x2="264.265" y2="231.877" stroke="#F2994A" stroke-width="4"/>
</svg>
