<svg width="118" height="118" viewBox="0 0 118 118" fill="none" xmlns="http://www.w3.org/2000/svg">
<path d="M62.3822 20.5148L63.0079 23.4289L64.2664 20.7271L71.0688 6.12316L70.8612 22.2323L70.8227 25.2126L72.6509 22.8585L82.5324 10.1345L78.7454 25.7935L78.0447 28.6905L80.3508 26.8023L92.816 16.5961L85.6394 31.0198L84.3117 33.6883L86.9802 32.3606L101.404 25.184L91.1977 37.6492L89.3095 39.9553L92.2065 39.2547L107.866 35.4676L95.1415 45.3491L92.7874 47.1773L95.7677 47.1389L111.877 46.9312L97.2729 53.7336L94.5711 54.9921L97.4852 55.6178L113.237 59L97.4852 62.3822L94.5711 63.0079L97.2729 64.2664L111.877 71.0688L95.7677 70.8612L92.7874 70.8227L95.1415 72.6509L107.866 82.5324L92.2065 78.7454L89.3095 78.0447L91.1977 80.3508L101.404 92.816L86.9802 85.6394L84.3117 84.3117L85.6394 86.9802L92.816 101.404L80.3508 91.1977L78.0447 89.3095L78.7454 92.2065L82.5324 107.866L72.6509 95.1415L70.8227 92.7874L70.8612 95.7677L71.0688 111.877L64.2664 97.2729L63.0079 94.5711L62.3822 97.4852L59 113.237L55.6178 97.4852L54.9921 94.5711L53.7336 97.2729L46.9312 111.877L47.1389 95.7677L47.1773 92.7874L45.3491 95.1415L35.4676 107.866L39.2547 92.2065L39.9553 89.3095L37.6492 91.1977L25.184 101.404L32.3606 86.9802L33.6883 84.3117L31.0198 85.6394L16.5961 92.816L26.8023 80.3508L28.6905 78.0447L25.7935 78.7454L10.1345 82.5324L22.8585 72.6509L25.2126 70.8227L22.2323 70.8612L6.12316 71.0688L20.7271 64.2664L23.4289 63.0079L20.5148 62.3822L4.76333 59L20.5148 55.6178L23.4289 54.9921L20.7271 53.7336L6.12316 46.9312L22.2323 47.1389L25.2126 47.1773L22.8585 45.3491L10.1345 35.4676L25.7935 39.2547L28.6905 39.9553L26.8023 37.6492L16.5961 25.184L31.0198 32.3606L33.6883 33.6883L32.3606 31.0198L25.184 16.5961L37.6492 26.8023L39.9553 28.6905L39.2547 25.7935L35.4676 10.1345L45.3491 22.8585L47.1773 25.2126L47.1389 22.2323L46.9312 6.12316L53.7336 20.7271L54.9921 23.4289L55.6178 20.5148L59 4.76333L62.3822 20.5148Z" stroke="#6B3A85" stroke-width="2"/>
</svg>
