<svg width="365" height="270" viewBox="0 0 365 270" fill="none" xmlns="http://www.w3.org/2000/svg">
<g clip-path="url(#clip0_238:2200)">
<path d="M88.3563 197.516L46.6456 196.337C44.2734 196.273 42.3485 194.243 42.3727 191.81L42.7763 123.015C42.7881 120.587 44.7295 118.66 47.1067 118.737L88.8174 119.915C91.1896 119.98 93.1145 122.009 93.0903 124.442L92.6867 193.237C92.6749 195.665 90.7285 197.58 88.3563 197.516Z" fill="black" stroke="black" stroke-width="3.89619" stroke-miterlimit="10"/>
<path d="M283.596 126.489L322.342 83.5769C323.935 81.8138 323.808 79.0281 322.046 77.3462L264.899 23.061C263.142 21.3918 260.424 21.4615 258.819 23.2294L220.073 66.1417C218.48 67.9047 218.607 70.6904 220.369 72.3724L277.516 126.658C279.278 128.34 282.004 128.252 283.596 126.489Z" fill="black" stroke="black" stroke-width="3.89619" stroke-miterlimit="10"/>
<path d="M259.555 131.74L267.038 123.448C268.631 121.685 268.504 118.9 266.743 117.218L225.672 78.2041C223.915 76.5349 221.197 76.6046 219.592 78.3725L212.108 86.6639C210.516 88.427 210.643 91.2127 212.404 92.8947L253.475 131.908C255.249 133.585 257.967 133.516 259.555 131.74Z" fill="black" stroke="black" stroke-width="3.89619" stroke-miterlimit="10"/>
<path d="M110.087 127.298C115.559 127.469 121.03 127.639 126.502 127.809C126.781 123.794 127.998 114.788 134.616 106.906C136.313 104.897 140.037 100.56 146.483 98.1784C149.119 97.2004 157.257 94.1928 164.189 98.5708C166.507 100.037 168.009 101.893 168.905 103.25C171.492 99.794 175.377 95.6147 180.966 92.1994C184.439 90.0748 189.687 86.9534 197.182 86.545C202.686 86.2476 207.151 87.5278 209.813 88.5229C222.941 101.765 236.057 115.012 249.189 128.267C247.607 133.874 246.031 139.494 244.461 145.096C245.206 146.027 248.694 150.623 248.129 157.055C247.554 163.609 243.209 167.335 242.066 168.277C239.959 170.034 237.83 170.889 236.464 171.33C237.014 172.381 239.57 177.471 237.664 182.866C236.186 187.052 232.839 189.098 230.576 190.49C226.871 192.748 223.304 193.308 221.31 193.45C221.145 194.821 220.379 199.745 216.202 203.685C212.013 207.63 207.142 208.019 205.551 208.063C198.695 208.283 194.075 204.11 193.158 203.247C192.052 204.909 189.179 208.725 183.994 210.544C182.255 211.159 179.018 212.238 175.023 211.143C171.391 210.142 169.107 207.884 168.135 206.807C167.529 207.556 165.828 209.478 162.978 210.054C159.617 210.74 156.005 209.276 153.543 206.338C151.703 207.242 147.582 208.943 142.15 208.507C135.731 207.984 131.409 204.798 130.345 203.962C124.132 199.129 122.429 192.46 122.008 190.566C118.006 189.489 113.996 188.429 109.993 187.351" fill="black"/>
<path d="M110.087 127.298C115.559 127.469 121.03 127.639 126.502 127.809C126.781 123.794 127.998 114.788 134.616 106.906C136.313 104.897 140.037 100.56 146.483 98.1784C149.119 97.2004 157.257 94.1928 164.189 98.5708C166.507 100.037 168.009 101.893 168.905 103.25C171.492 99.794 175.377 95.6147 180.966 92.1994C184.439 90.0748 189.687 86.9534 197.182 86.545C202.686 86.2476 207.151 87.5278 209.813 88.523C222.941 101.765 236.057 115.012 249.189 128.267C247.608 133.874 246.031 139.494 244.461 145.096C245.206 146.027 248.694 150.623 248.129 157.055C247.554 163.609 243.209 167.335 242.066 168.277C239.959 170.034 237.83 170.889 236.464 171.33C237.014 172.381 239.57 177.471 237.664 182.866C236.186 187.052 232.839 189.098 230.576 190.49C226.871 192.748 223.304 193.308 221.31 193.45C221.145 194.821 220.379 199.745 216.202 203.685C212.013 207.63 207.142 208.019 205.551 208.063C198.695 208.283 194.075 204.11 193.158 203.247C192.052 204.909 189.179 208.725 183.994 210.544C182.255 211.159 179.018 212.238 175.023 211.143C171.391 210.142 169.107 207.884 168.135 206.807C167.529 207.556 165.828 209.478 162.978 210.054C159.617 210.74 156.005 209.276 153.543 206.338C151.703 207.242 147.582 208.943 142.15 208.507C135.731 207.984 131.409 204.798 130.345 203.962C124.132 199.129 122.429 192.46 122.008 190.566C118.006 189.489 113.996 188.429 109.993 187.351" stroke="black" stroke-width="3.89619" stroke-miterlimit="10"/>
<path d="M120.908 189.451C120.522 187.647 120.101 184.799 120.523 181.374C120.948 177.92 121.425 174.048 124.58 171.547C128.075 168.782 132.407 169.644 132.906 169.759C138.173 170.905 140.437 175.682 140.665 176.196C140.887 175.081 141.646 171.864 144.503 169.215C145.338 168.435 147.886 166.273 151.824 165.936C152.873 165.853 156.16 165.563 159.201 167.645C164.297 171.104 164.118 178.018 164.108 178.433C164.291 177.143 165.281 171.075 170.428 167.728C171.452 167.067 174 165.418 177.359 165.791C182.297 166.344 185.125 170.815 186.033 172.24C186.775 173.421 187.639 175.319 188.395 183.325C188.675 186.286 188.946 190.323 188.984 195.156C189.667 195.008 190.77 194.919 191.782 195.511C193.583 196.56 194.429 199.405 193.47 202.362" stroke="black" stroke-width="2.59746" stroke-miterlimit="10"/>
<path d="M192.634 196.208C196.416 196.02 199.214 196.595 199.936 197.064C200.518 197.427 201.067 197.889 201.067 197.889C201.359 198.129 201.586 198.349 201.764 198.515" stroke="black" stroke-width="2.59746" stroke-miterlimit="10"/>
<path d="M221.701 193.724C220.617 190.707 217.771 184.099 211.161 178.495C205.334 173.556 199.399 171.788 196.372 171.097" stroke="black" stroke-width="3.89619" stroke-miterlimit="10"/>
<path d="M236.211 170.342C235.485 168.141 234.297 165.517 232.33 162.974C225.298 153.935 214.06 153.238 211.745 153.137" stroke="black" stroke-width="3.89619" stroke-miterlimit="10"/>
<path d="M243.954 144.045C238.212 141.086 231.81 138.147 224.757 135.476C210.181 129.949 196.763 126.968 185.495 125.387C182.602 127.464 178.719 130.511 174.576 134.688C166.756 142.551 165.209 147.146 158.793 149.237C157.365 149.702 152.216 151.39 147.446 148.7C146.684 148.276 143.762 146.574 142.309 142.936C140.901 139.413 141.744 136.266 142.115 134.947C143.222 131.052 145.75 128.691 146.581 127.899C146.62 127.854 153.589 119.851 167.527 103.843C168.22 103.06 168.769 102.421 169.068 102.056" stroke="black" stroke-width="3.89619" stroke-miterlimit="10"/>
<path d="M167.873 206.497C166.232 203.622 164.208 199.281 163.178 193.687C161.519 184.71 163.34 177.409 164.529 173.76" stroke="black" stroke-width="3.89619" stroke-miterlimit="10"/>
<path d="M153.158 206.003C151.874 205.076 150.013 203.579 148.187 201.364C143.637 195.901 142.379 189.941 141.681 186.451C140.485 180.466 140.694 174.951 140.652 174.952C140.639 174.957 140.664 175.976 140.704 176.886" stroke="black" stroke-width="3.89619" stroke-miterlimit="10"/>
<path d="M216.093 132.43C218.317 131.818 221.248 130.755 224.372 128.868C227.595 126.943 229.949 124.797 231.574 123.08" stroke="black" stroke-width="3.89619" stroke-miterlimit="10"/>
<path d="M105.633 187.954L97.2495 187.723C94.8772 187.658 92.9523 185.628 92.9765 183.195L93.2895 130.167C93.3013 127.739 95.2427 125.811 97.6199 125.889L106.003 126.12C108.375 126.185 110.3 128.214 110.276 130.647L109.951 183.681C109.939 186.109 108.005 188.019 105.633 187.954Z" fill="black" stroke="black" stroke-width="3.89619" stroke-miterlimit="10"/>
</g>
<g clip-path="url(#clip1_238:2200)">
<path d="M88.9936 196.361L48.3329 195.673C46.0204 195.636 44.1644 193.723 44.2134 191.406L45.3221 125.886C45.3589 123.573 47.272 121.717 49.5893 121.766L90.25 122.455C92.5625 122.492 94.4185 124.405 94.3695 126.722L93.2608 192.242C93.224 194.554 91.3062 196.398 88.9936 196.361Z" fill="#B6E8F3" stroke="#0A2A2B" stroke-width="3.89619" stroke-miterlimit="10"/>
<path d="M280.114 126.691L318.342 85.4211C319.913 83.7255 319.819 81.0739 318.118 79.4904L262.957 28.387C261.261 26.8157 258.61 26.9103 257.026 28.6105L218.799 69.8801C217.227 71.5757 217.322 74.2273 219.022 75.8108L274.184 126.914C275.884 128.498 278.543 128.386 280.114 126.691Z" fill="#B6E8F3" stroke="#0A2A2B" stroke-width="3.89619" stroke-miterlimit="10"/>
<path d="M256.617 131.941L264 123.967C265.572 122.271 265.477 119.62 263.777 118.036L224.133 81.3094C222.438 79.738 219.786 79.8327 218.203 81.5329L210.819 89.507C209.248 91.2026 209.343 93.8542 211.043 95.4376L250.686 132.165C252.398 133.743 255.05 133.649 256.617 131.941Z" fill="#B6E8F3" stroke="#0A2A2B" stroke-width="3.89619" stroke-miterlimit="10"/>
<path d="M110.914 129.265C116.248 129.37 121.581 129.476 126.915 129.581C127.229 125.754 128.51 117.165 135.045 109.59C136.72 107.659 140.397 103.489 146.707 101.155C149.288 100.196 157.255 97.2471 163.969 101.344C166.214 102.717 167.659 104.469 168.518 105.751C171.077 102.433 174.909 98.4128 180.395 95.1022C183.803 93.0428 188.953 90.0156 196.266 89.5488C201.636 89.2083 205.977 90.3811 208.562 91.3012C221.226 103.776 233.877 116.255 246.546 128.741C244.945 134.098 243.349 139.466 241.76 144.818C242.476 145.696 245.831 150.037 245.213 156.169C244.584 162.416 240.308 166.009 239.184 166.919C237.111 168.614 235.025 169.45 233.689 169.884C234.214 170.879 236.654 175.699 234.739 180.857C233.254 184.859 229.97 186.843 227.748 188.191C224.112 190.381 220.628 190.952 218.683 191.107C218.507 192.415 217.709 197.112 213.595 200.907C209.469 204.707 204.715 205.129 203.164 205.187C196.475 205.468 192.014 201.542 191.128 200.729C190.033 202.324 187.191 205.988 182.117 207.774C180.415 208.378 177.247 209.439 173.362 208.438C169.832 207.522 167.628 205.396 166.691 204.38C166.093 205.099 164.414 206.948 161.629 207.526C158.344 208.215 154.837 206.858 152.467 204.085C150.663 204.966 146.627 206.628 141.335 206.27C135.081 205.838 130.899 202.849 129.871 202.064C123.863 197.525 122.272 191.192 121.881 189.393C117.989 188.409 114.09 187.441 110.198 186.456" fill="#B6E8F3"/>
<path d="M110.914 129.265C116.248 129.37 121.581 129.476 126.915 129.581C127.229 125.754 128.51 117.165 135.045 109.59C136.72 107.659 140.397 103.489 146.707 101.155C149.288 100.196 157.255 97.2471 163.969 101.344C166.214 102.717 167.659 104.469 168.518 105.751C171.077 102.433 174.909 98.4128 180.395 95.1022C183.803 93.0428 188.953 90.0156 196.266 89.5488C201.636 89.2083 205.977 90.3811 208.562 91.3012C221.226 103.776 233.877 116.255 246.546 128.741C244.945 134.098 243.349 139.466 241.76 144.818C242.476 145.696 245.831 150.037 245.213 156.169C244.584 162.416 240.308 166.009 239.184 166.919C237.111 168.614 235.025 169.45 233.689 169.884C234.214 170.879 236.654 175.699 234.739 180.857C233.254 184.859 229.97 186.843 227.748 188.191C224.112 190.381 220.628 190.952 218.683 191.107C218.507 192.415 217.709 197.112 213.595 200.907C209.469 204.707 204.715 205.129 203.164 205.187C196.475 205.468 192.014 201.542 191.128 200.729C190.033 202.324 187.191 205.988 182.117 207.774C180.415 208.378 177.247 209.439 173.362 208.438C169.832 207.522 167.628 205.396 166.691 204.38C166.093 205.099 164.414 206.948 161.629 207.526C158.344 208.215 154.837 206.858 152.467 204.085C150.663 204.966 146.627 206.628 141.335 206.27C135.081 205.838 130.899 202.849 129.871 202.064C123.863 197.525 122.272 191.192 121.881 189.393C117.989 188.409 114.09 187.441 110.198 186.456" stroke="#0A2A2B" stroke-width="3.89619" stroke-miterlimit="10"/>
<path d="M120.819 188.342C120.461 186.628 120.08 183.921 120.527 180.655C120.977 177.361 121.482 173.669 124.586 171.254C128.022 168.585 132.237 169.36 132.723 169.464C137.847 170.501 140.005 175.027 140.222 175.514C140.45 174.45 141.224 171.379 144.037 168.826C144.86 168.075 147.366 165.989 151.21 165.627C152.233 165.537 155.442 165.226 158.385 167.178C163.319 170.419 163.072 177.005 163.058 177.401C163.25 176.17 164.279 170.381 169.333 167.141C170.338 166.5 172.839 164.904 176.111 165.223C180.92 165.699 183.632 169.927 184.502 171.275C185.214 172.392 186.036 174.191 186.691 181.807C186.933 184.624 187.155 188.466 187.142 193.068C187.809 192.92 188.886 192.823 189.866 193.377C191.611 194.358 192.407 197.058 191.441 199.884" stroke="#0A2A2B" stroke-width="2.59746" stroke-miterlimit="10"/>
<path d="M190.691 194.032C194.381 193.813 197.103 194.332 197.803 194.771C198.366 195.11 198.897 195.545 198.897 195.545C199.179 195.77 199.398 195.977 199.57 196.134" stroke="#0A2A2B" stroke-width="2.59746" stroke-miterlimit="10"/>
<path d="M219.06 191.364C218.034 188.503 215.328 182.239 208.94 176.971C203.31 172.328 197.541 170.706 194.596 170.079" stroke="#0A2A2B" stroke-width="3.89619" stroke-miterlimit="10"/>
<path d="M233.452 168.946C232.768 166.857 231.636 164.37 229.745 161.969C222.982 153.434 212.031 152.888 209.774 152.815" stroke="#0A2A2B" stroke-width="3.89619" stroke-miterlimit="10"/>
<path d="M241.276 143.822C235.707 141.063 229.495 138.332 222.645 135.861C208.489 130.748 195.436 128.05 184.466 126.661C181.622 128.669 177.804 131.611 173.721 135.632C166.014 143.202 164.457 147.594 158.179 149.652C156.783 150.109 151.743 151.77 147.12 149.258C146.382 148.862 143.55 147.271 142.171 143.822C140.835 140.482 141.69 137.476 142.065 136.217C143.185 132.495 145.674 130.221 146.493 129.458C146.532 129.415 153.411 121.72 167.168 106.33C167.852 105.578 168.394 104.964 168.689 104.612" stroke="#0A2A2B" stroke-width="3.89619" stroke-miterlimit="10"/>
<path d="M166.439 204.088C164.869 201.367 162.94 197.254 161.994 191.937C160.469 183.405 162.321 176.433 163.519 172.946" stroke="#0A2A2B" stroke-width="3.89619" stroke-miterlimit="10"/>
<path d="M152.095 203.77C150.852 202.901 149.053 201.495 147.296 199.404C142.916 194.249 141.751 188.586 141.107 185.27C140.002 179.583 140.264 174.328 140.223 174.33C140.211 174.334 140.224 175.304 140.254 176.17" stroke="#0A2A2B" stroke-width="3.89619" stroke-miterlimit="10"/>
<path d="M214.23 133.05C216.405 132.444 219.274 131.401 222.34 129.572C225.502 127.705 227.82 125.637 229.423 123.985" stroke="#0A2A2B" stroke-width="3.89619" stroke-miterlimit="10"/>
<path d="M105.94 187.076L97.7675 186.943C95.4549 186.906 93.599 184.993 93.6479 182.676L94.5043 132.172C94.5411 129.859 96.4543 128.003 98.7715 128.052L106.944 128.185C109.256 128.222 111.112 130.135 111.063 132.453L110.195 182.961C110.158 185.274 108.252 187.113 105.94 187.076Z" fill="#B6E8F3" stroke="#0A2A2B" stroke-width="3.89619" stroke-miterlimit="10"/>
</g>
<defs>
<clipPath id="clip0_238:2200">
<rect width="306.872" height="158.551" fill="white" transform="translate(10.7837 116.704) rotate(-21.1883)"/>
</clipPath>
<clipPath id="clip1_238:2200">
<rect width="300.474" height="150.354" fill="white" transform="translate(14.1914 120.208) rotate(-21.1883)"/>
</clipPath>
</defs>
</svg>
