<svg width="156" height="166" viewBox="0 0 156 166" fill="none" xmlns="http://www.w3.org/2000/svg">
<g clip-path="url(#clip0_238:2141)">
<path d="M120.75 79.4461C120.642 78.9679 123.964 78.6579 126.377 76.0961C129.058 73.2524 129.1 69.2311 129.122 67.015C129.14 65.6208 129.124 61.4159 126.501 57.3007C123.934 53.2726 120.369 51.7197 114.871 49.3265C110.641 47.4811 106.207 45.5436 100.348 45.9405C97.4902 46.1363 95.3901 46.8066 91.7973 47.9667C88.3671 49.0777 85.1376 50.1131 81.4529 52.5988C79.6522 53.8079 76.5472 55.9425 73.9112 59.8671C72.1508 62.4967 71.9212 64.61 71.4679 64.5274C70.7118 64.3779 70.8515 58.6306 72.004 53.2017C72.5421 50.6584 73.2341 48.4916 74.5194 44.4725C75.9995 39.8492 76.4438 39.1389 76.6969 36.896C76.9266 34.8791 77.2212 32.0415 75.8886 28.8878C74.7363 26.1487 72.9341 24.5351 72.1389 23.8332C71.2035 23.0153 67.8679 20.0851 63.0049 20.0828C59.8069 20.0808 57.4869 21.3527 55.7876 22.3185C54.5042 23.0432 51.4966 24.924 48.3751 29.4175C42.8061 37.4389 39.9265 49.3335 42.2226 58.1206C42.2943 58.4073 42.9879 61.0175 42.6392 61.1488C42.1215 61.3438 40.9444 55.1756 36.3489 51.8151C32.6356 49.0995 27.336 48.7067 23.0328 50.255C22.0568 50.6106 18.5371 51.9966 15.9984 55.5708C12.0934 61.0592 13.3069 67.8049 14.1896 72.3587C16.2611 83.016 21.9435 90.4794 30.1041 100.967C33.9236 105.886 37.3107 109.69 39.5329 112.098C41.5373 118.414 43.1169 123.344 44.0992 126.401C46.4673 133.809 46.8986 135.083 48.158 136.889C52.2312 142.738 58.5944 144.866 62.7789 146.27C66.3406 147.462 71.6902 148.596 80.3555 147.963C103.117 146.315 119.092 134.435 123.606 130.852C132.541 123.759 136.015 117.83 137.252 115.542C138.817 112.648 141.547 107.47 141.775 100.29C141.881 97.1129 142.058 91.3999 138.373 86.0678C137.393 84.6513 135.066 81.2928 130.891 79.8492C125.883 78.116 120.891 80.0446 120.75 79.4461Z" fill="#06A462" stroke="black" stroke-width="3.38718" stroke-miterlimit="10" stroke-linecap="round" stroke-linejoin="round"/>
<path d="M71.9566 61.5928C71.8674 63.9187 72.011 67.279 73.1305 71.1162C73.9697 73.9852 75.1161 76.2922 76.1321 77.9968" stroke="black" stroke-width="3.38718" stroke-miterlimit="10" stroke-linecap="round" stroke-linejoin="round"/>
<path d="M41.176 56.7532C43.2627 64.1834 45.6962 70.2283 47.7377 74.7197C52.3589 84.8751 56.0362 89.2571 57.7198 91.1325C59.0077 92.5658 60.1656 93.686 60.9621 94.4236" stroke="black" stroke-width="3.38718" stroke-miterlimit="10" stroke-linecap="round" stroke-linejoin="round"/>
<path d="M56.182 101.364C56.5977 100.097 57.6946 97.4039 60.3316 95.0836C62.5396 93.1299 64.8312 92.3272 66.0901 91.9857" stroke="black" stroke-width="3.38718" stroke-miterlimit="10" stroke-linecap="round" stroke-linejoin="round"/>
<path d="M120.651 79.8571C120.04 78.7479 117.083 80.2837 113.528 80.1025C108.212 79.8247 107.505 76.0252 101.581 75.3848C100.397 75.2517 97.6821 74.9953 94.7715 76.3328C89.0731 78.9496 87.807 85.3262 87.7638 85.5958C87.2302 88.5355 87.9707 90.6937 89.1876 94.2771C90.5531 98.2871 92.0567 102.728 96.3328 105.4C97.4571 106.111 100.313 107.895 103.795 107.21C107.008 106.579 108.935 104.201 109.641 103.32C110.684 102.022 111.357 100.188 112.647 96.5653C113.741 93.5111 113.671 93.1993 114.8 90.2046C116.651 85.2848 117.39 84.6203 117.809 84.2933C118.461 83.7823 119.452 83.2404 120.16 81.9483C120.439 81.4088 120.97 80.4486 120.651 79.8571Z" fill="#F8F7F2" stroke="black" stroke-width="3.38718" stroke-miterlimit="10"/>
</g>
<defs>
<clipPath id="clip0_238:2141">
<rect width="115.887" height="133.037" fill="white" transform="translate(0.0151367 41.1645) rotate(-20.6382)"/>
</clipPath>
</defs>
</svg>
