<svg width="217" height="170" viewBox="0 0 217 170" fill="none" xmlns="http://www.w3.org/2000/svg">
<rect x="1.62598" y="37.7888" width="194" height="26.5753" transform="rotate(-10.1841 1.62598 37.7888)" fill="#E97E4A"/>
<rect x="6.79443" y="66.5612" width="139.078" height="23.032" transform="rotate(-10.1841 6.79443 66.5612)" fill="#F4B5C2"/>
<rect x="11.6499" y="93.5897" width="94.7854" height="19.4886" transform="rotate(-10.1841 11.6499 93.5897)" fill="#B6E8F3"/>
<rect x="16.5054" y="120.618" width="115.907" height="21.2603" transform="rotate(-10.1841 16.5054 120.618)" fill="#EECC50"/>
<rect x="20.9995" y="146.506" width="14.1735" height="21.2603" transform="rotate(-10.1841 20.9995 146.506)" fill="#84AC13"/>
<path d="M12.8197 42.6568C13.4035 42.5519 13.8293 42.3128 14.1139 41.9269C14.4002 41.5502 14.4954 41.1218 14.4072 40.6306C14.3189 40.1395 14.0789 39.7617 13.6777 39.499C13.2766 39.2362 12.7942 39.1603 12.2104 39.2651C11.6451 39.3667 11.2193 39.6058 10.9347 39.9917C10.6501 40.3777 10.5473 40.817 10.6355 41.3082C10.7221 41.7901 10.9697 42.1569 11.3709 42.4196C11.772 42.6824 12.2544 42.7584 12.8197 42.6568ZM16.8127 52.7968C16.4053 51.9134 16.0468 50.6099 15.7355 48.877L15.0946 45.3092C14.9497 44.503 14.8812 43.8553 14.8764 43.3492C14.5202 43.7097 13.9429 43.9569 13.1366 44.1017C12.3304 44.2466 11.6753 44.2207 11.1604 44.0167C11.3137 44.3909 11.4765 45.0313 11.638 45.9302L12.2789 49.4979C12.5902 51.2308 12.7078 52.5776 12.6334 53.5476L16.8127 52.7968ZM24.2818 51.4551C23.8687 50.4866 23.5211 49.1907 23.2298 47.569L22.4973 43.4915L24.8326 43.072L24.5695 41.6079L22.1972 42.034C21.3523 42.1763 20.6591 42.2051 20.1086 42.1223C19.558 42.0394 19.2502 41.8173 19.1853 41.4559C19.0704 40.8165 19.596 40.3872 20.7636 40.1775C21.5976 40.0277 22.5061 40.1323 23.4797 40.4931L23.0468 38.0837C22.1923 37.9598 21.5474 37.8844 21.123 37.8649C20.6894 37.8472 20.2084 37.8857 19.6617 37.984C18.6887 38.1588 17.9174 38.4982 17.3681 39.0082C16.8188 39.5182 16.602 40.1216 16.7251 40.8073C16.9665 42.151 18.139 42.4474 19.0638 42.3769L19.1021 42.59L16.3313 43.0878L16.5943 44.552L19.0222 44.1158L19.7547 48.1932C20.056 49.8705 20.1812 51.2064 20.1395 52.1992L24.2818 51.4551ZM36.8501 50.4887C35.9681 49.4131 35.2689 48.343 34.7583 47.2581C34.2401 46.1841 33.8545 44.9429 33.6015 43.5343C33.3501 42.135 33.2812 40.8464 33.3916 39.65C33.4943 38.4645 33.7757 37.2086 34.2248 35.8748L32.5844 35.0503C31.8584 36.2808 31.3746 37.6878 31.1161 39.2839C30.8575 40.88 30.8618 42.4481 31.1365 43.9771C31.4112 45.5062 31.9529 46.9777 32.7508 48.384C33.5504 49.7996 34.4937 50.9503 35.5992 51.8326L36.8501 50.4887ZM43.9666 48.1963C44.606 48.0814 45.3189 47.896 46.0942 47.6323C46.8678 47.3594 47.4545 47.1105 47.8415 46.8688L47.3604 44.1907C46.9824 44.536 46.5034 44.8516 45.931 45.1267C45.3511 45.4126 44.7822 45.6009 44.2169 45.7024C43.0586 45.9105 42.0979 45.8344 41.3458 45.4816C40.5844 45.1305 40.1342 44.5418 39.9894 43.7356C39.8446 42.9294 40.0541 42.2317 40.6178 41.6425C41.1816 41.0534 42.0018 40.6669 43.0675 40.4755C43.6328 40.3739 44.2021 40.3482 44.7848 40.3965C45.3691 40.4542 45.8379 40.5613 46.2006 40.7162L45.8986 38.1302C45.4871 38.0224 44.8968 37.9849 44.1246 37.9993C43.3523 38.0137 42.7122 38.0713 42.2025 38.1628C40.0804 38.5441 38.492 39.3938 37.6375 40.4943C36.7846 41.6041 36.4744 42.913 36.7275 44.3216C36.9805 45.7301 37.7175 46.8509 38.8924 47.5868C40.0597 48.3337 41.8445 48.5775 43.9666 48.1963ZM57.5266 45.349C58.9439 44.5587 59.7319 43.4605 60.0328 42.1534C60.1748 41.5061 60.1863 40.8248 60.0615 40.1298C59.9366 39.4348 59.6887 38.8001 59.3303 38.2427C58.5949 37.1313 57.4816 36.3651 55.8669 36.1099C55.0604 35.9869 54.1846 36.0104 53.2393 36.1802C52.2941 36.35 51.4649 36.6329 50.7516 37.0288C49.3267 37.8301 48.5496 38.9358 48.2564 40.2321C48.1051 40.881 48.0936 41.5623 48.2184 42.2573C48.3433 42.9523 48.5895 43.5777 48.9572 44.1334C49.6833 45.2466 50.7983 46.022 52.4113 46.2679C53.2195 46.4001 54.0953 46.3767 55.0406 46.2069C55.9858 46.0371 56.815 45.7542 57.5266 45.349ZM52.5342 43.4908C51.933 43.0727 51.5662 42.469 51.4247 41.6813C51.2832 40.8936 51.4153 40.1907 51.8334 39.5895C52.2515 38.9883 52.8552 38.6215 53.6522 38.4783C54.4491 38.3352 55.1428 38.4689 55.744 38.887C56.336 39.3068 56.7044 39.9198 56.8459 40.7074C56.9874 41.4951 56.8537 42.1888 56.4448 42.7883C56.0267 43.3896 55.4247 43.7656 54.6277 43.9087C53.8308 44.0519 53.1355 43.909 52.5342 43.4908ZM66.8095 44.0927C67.7918 43.9163 68.5733 43.5272 69.1615 42.9145C69.7514 42.3111 70.1294 41.5927 70.3046 40.7577L70.527 40.7178L70.5986 41.1162C70.7168 41.7742 70.7238 42.4521 70.6162 43.1315L74.7493 42.389C74.3169 41.3666 73.9567 40.0538 73.672 38.4692L72.7165 33.15C72.4318 31.5653 72.3126 30.2093 72.3621 29.1003L68.229 29.8428C68.6562 30.9426 69.0055 32.2478 69.2785 33.7676L69.6747 35.9731L69.4708 36.0097C69.0202 35.2585 68.4125 34.698 67.6309 34.341C66.8493 33.984 65.9628 33.8945 64.9712 34.0726C63.5534 34.3273 62.4671 35.0964 61.8982 36.1361C61.3199 37.1774 61.1353 38.4924 61.3867 39.8917C61.5548 40.8277 61.8731 41.641 62.3508 42.33C62.8192 43.0207 63.4355 43.5222 64.2121 43.8515C64.9903 44.19 65.855 44.2642 66.8095 44.0927ZM67.8449 41.4961C67.0201 41.6443 66.308 41.5139 65.7084 41.1051C65.1088 40.6962 64.7345 40.1034 64.593 39.3157C64.4548 38.5466 64.5994 37.8606 65.0192 37.2686C65.439 36.6766 66.0613 36.3066 66.886 36.1584C67.6737 36.0169 68.3581 36.1522 68.95 36.572C69.542 36.9918 69.9054 37.577 70.0419 38.3369C70.1701 39.0504 70.0314 39.7163 69.6183 40.3453C69.2052 40.9743 68.614 41.3579 67.8449 41.4961ZM76.9836 31.1303C77.5674 31.0254 77.9932 30.7863 78.2778 30.4004C78.5641 30.0237 78.6593 29.5953 78.5711 29.1041C78.4828 28.613 78.2428 28.2352 77.8416 27.9725C77.4405 27.7097 76.9581 27.6337 76.3743 27.7386C75.809 27.8402 75.3832 28.0793 75.0986 28.4652C74.814 28.8511 74.7112 29.2905 74.7994 29.7817C74.886 30.2635 75.1337 30.6304 75.5348 30.8931C75.9359 31.1559 76.4183 31.2318 76.9836 31.1303ZM80.9766 41.2703C80.5692 40.3869 80.2107 39.0834 79.8994 37.3505L79.2585 33.7827C79.1136 32.9765 79.0451 32.3288 79.0403 31.8226C78.6841 32.1832 78.1068 32.4304 77.3005 32.5752C76.4943 32.72 75.8392 32.6942 75.3243 32.4902C75.4776 32.8644 75.6404 33.5048 75.8019 34.4037L76.4428 37.9714C76.7541 39.7043 76.8717 41.0511 76.7973 42.0211L80.9766 41.2703ZM87.1669 40.1583C86.9882 39.8556 86.8149 39.3702 86.6285 38.7053C86.4421 38.0405 86.3044 37.4339 86.2062 36.8871L85.9532 35.4786C85.8283 34.7836 85.9703 34.1363 86.3666 33.5198C86.7645 32.9126 87.3387 32.5416 88.0894 32.4068C89.5628 32.1421 90.5944 32.9325 90.8691 34.4615L91.1371 35.9535C91.3502 37.1397 91.4328 38.2919 91.3833 39.4008L95.5164 38.6584C95.1158 37.7068 94.7832 36.4943 94.5152 35.0023L94.2006 33.2508C93.9592 31.9071 93.4004 30.9266 92.5225 30.2999C91.6354 29.6748 90.52 29.483 89.1578 29.7277C87.2488 30.0706 86.1112 31.1933 85.7435 33.0865L85.5303 33.1248L85.4621 32.7448C85.3172 31.9386 85.3347 31.2372 85.5178 30.659L81.3292 31.4115C81.7423 32.3799 82.0649 33.5369 82.3063 34.8806L82.8041 37.6513C83.0039 38.7634 83.0841 39.849 83.0339 40.9008L87.1669 40.1583ZM103.766 41.6628C107.336 41.0311 110.225 38.905 109.644 35.6708C109.556 35.1797 109.335 34.6933 108.988 34.2008L108.354 30.6701C108.076 29.1225 107.947 27.7681 107.962 26.6271L103.829 27.3695C104.036 27.7245 104.197 28.0305 104.301 28.2893C104.395 28.5497 104.483 28.8783 104.554 29.2768L104.623 29.6567L104.382 29.7C103.944 28.9656 103.338 28.4144 102.565 28.0557C101.785 27.708 100.908 27.6168 99.9259 27.7933C96.9976 28.3194 95.825 30.8449 96.3228 33.6157C96.4926 34.561 96.8109 35.3743 97.2886 36.0633C97.7663 36.7523 98.3825 37.2539 99.1591 37.5831C99.9357 37.9123 100.791 37.9882 101.746 37.8167C102.728 37.6403 103.517 37.2403 104.105 36.6276C104.694 36.0149 105.079 35.2856 105.253 34.4413L105.438 34.408C105.892 34.8048 106.167 35.2719 106.264 35.8094C106.442 36.8009 106.206 37.6181 105.565 38.2593C104.916 38.9022 103.978 39.3289 102.764 39.5469C101.81 39.7184 100.84 39.7492 99.8445 39.641C98.8493 39.5328 98.0305 39.2877 97.3786 38.9074L97.9047 41.8357C98.6572 41.9779 99.5573 42.0362 100.603 42.0014C101.649 41.9665 102.701 41.8542 103.766 41.6628ZM102.79 35.2185C101.966 35.3666 101.244 35.2379 100.635 34.8308C100.026 34.4236 99.6521 33.8308 99.5106 33.0431C99.3724 32.2739 99.517 31.5879 99.9461 30.9943C100.375 30.4006 101.007 30.0289 101.831 29.8807C102.61 29.7409 103.294 29.8762 103.886 30.296C104.478 30.7158 104.842 31.301 104.978 32.0609C105.105 32.7652 104.957 33.4327 104.544 34.0617C104.132 34.7 103.541 35.0836 102.79 35.2185ZM118.453 26.8757L118.198 25.4579L109.747 26.9761L110.001 28.3939L118.453 26.8757ZM119.097 30.462L118.842 29.0442L110.391 30.5624L110.646 31.9802L119.097 30.462ZM127.998 25.161L127.743 23.7432L119.292 25.2614L119.546 26.6793L127.998 25.161ZM128.642 28.7473L128.387 27.3295L119.936 28.8477L120.191 30.2656L128.642 28.7473ZM135.132 31.5417C134.7 30.5193 134.34 29.2065 134.055 27.6219L133.099 22.3027C132.815 20.718 132.696 19.362 132.745 18.253L128.612 18.9955C129.025 19.9639 129.376 21.2784 129.671 22.9186L130.626 28.2378C130.921 29.8781 131.049 31.2325 130.999 32.2842L135.132 31.5417ZM145.321 29.5774C146.738 28.7872 147.526 27.689 147.827 26.3818C147.969 25.7345 147.981 25.0533 147.856 24.3582C147.731 23.6632 147.483 23.0286 147.125 22.4712C146.389 21.3597 145.276 20.5936 143.661 20.3384C142.855 20.2154 141.979 20.2388 141.034 20.4086C140.089 20.5784 139.259 20.8613 138.546 21.2573C137.121 22.0585 136.344 23.1643 136.051 24.4605C135.9 25.1095 135.888 25.7907 136.013 26.4858C136.138 27.1808 136.384 27.8061 136.752 28.3619C137.478 29.475 138.593 30.2504 140.206 30.4964C141.014 30.6286 141.89 30.6052 142.835 30.4354C143.78 30.2656 144.609 29.9827 145.321 29.5774ZM140.329 27.7193C139.727 27.3012 139.361 26.6974 139.219 25.9098C139.078 25.1221 139.21 24.4192 139.628 23.8179C140.046 23.2167 140.65 22.85 141.447 22.7068C142.244 22.5636 142.937 22.6973 143.538 23.1154C144.13 23.5352 144.499 24.1482 144.64 24.9359C144.782 25.7236 144.648 26.4172 144.239 27.0168C143.821 27.618 143.219 27.994 142.422 28.1372C141.625 28.2804 140.93 28.1374 140.329 27.7193ZM158.411 27.3599C158.299 26.6338 158.33 25.6334 158.492 24.3512L159.319 20.5389C159.545 19.1878 159.817 18.0962 160.126 17.2564L156.159 17.9689C156.224 18.8086 156.191 19.5319 156.071 20.1371L155.322 24.0119C155.244 24.533 155.193 25.0491 155.168 25.5509L154.955 25.5892C154.839 25.3136 154.611 24.8474 154.275 24.2L152.206 20.8313C151.84 20.1796 151.567 19.5112 151.396 18.8245L147.448 19.5337C147.994 20.1723 148.612 21.1134 149.301 22.3385L151.421 25.6214C152.019 26.7098 152.386 27.6386 152.526 28.417L158.411 27.3599ZM168.56 25.8141C169.44 25.656 170.315 25.4128 171.191 25.0736C172.068 24.7343 172.715 24.398 173.14 24.0444L172.621 21.4782C172.345 21.9104 171.87 22.3019 171.197 22.6525C170.525 23.0123 169.794 23.2584 169.016 23.3982C166.891 23.8181 164.76 22.9286 164.444 21.4357L164.57 21.3366C165.705 21.8501 167.103 21.9625 168.761 21.6646C171.44 21.1835 172.671 20.1014 172.343 18.2758C172.181 17.3769 171.629 16.644 170.698 16.151C169.759 15.6598 168.26 15.5177 166.444 15.844C164.59 16.1769 163.133 17.0126 162.305 18.0989C161.476 19.1851 161.153 20.5251 161.404 21.9244C161.672 23.4164 162.454 24.5195 163.76 25.2415C165.066 25.9634 166.66 26.1554 168.56 25.8141ZM167.274 20.6787C166.115 20.8868 165.153 20.8014 164.37 20.4351C164.373 19.8127 164.584 19.2869 165.014 18.8558C165.445 18.4339 165.981 18.1656 166.62 18.0507C167.315 17.9258 167.894 17.9557 168.376 18.1369C168.86 18.3274 169.135 18.632 169.21 19.049C169.361 19.8923 168.34 20.4872 167.274 20.6787ZM176.298 26.5572C177.028 25.3452 177.521 23.9365 177.778 22.3312C178.036 20.735 178.032 19.167 177.757 17.638C177.482 16.1089 176.942 14.6467 176.143 13.2311C175.345 11.8247 174.392 10.6758 173.283 9.77487L172.042 11.1171C172.927 12.2112 173.628 13.2906 174.146 14.3646C174.657 15.4495 175.041 16.6815 175.292 18.0808C175.545 19.4893 175.616 20.7872 175.513 21.9727C175.403 23.1691 175.12 24.4157 174.667 25.731L176.298 26.5572ZM190.154 24.9291L189.881 23.4093L188.704 23.6207C188.37 23.6807 188.069 23.6009 187.789 23.3738C187.509 23.1466 187.327 22.8254 187.254 22.4177L186.61 18.8314C186.448 17.9325 186.058 17.4095 185.449 17.2702C185.971 16.9277 186.157 16.3108 185.999 15.4304L185.354 11.8441C185.201 10.9916 185.626 10.3222 186.293 10.2023L187.47 9.99088L187.194 8.45258L186.017 8.66399C185.248 8.80217 184.64 9.19837 184.173 9.84666C183.706 10.495 183.548 11.2694 183.708 12.159L184.307 15.4951C184.441 16.2364 184.188 16.8557 183.549 16.9706L183.78 18.2587C184.42 18.1438 184.867 18.6088 185 19.3501L185.604 22.714C185.762 23.5943 186.169 24.2579 186.83 24.6939C187.492 25.1298 188.208 25.2787 188.977 25.1405L190.154 24.9291ZM21.7164 79.3481C21.3672 78.7891 21.0953 77.9674 20.9022 76.8925L20.6291 75.3727C20.476 74.5201 20.6519 73.7424 21.1494 73.0504C21.6469 72.3583 22.3072 71.9336 23.1227 71.7871C23.5211 71.7155 23.9329 71.7181 24.3378 71.7888C24.7427 71.8596 25.0709 71.9824 25.319 72.1387L24.7563 69.0065C24.2428 68.917 23.735 68.9126 23.2346 69.0025C21.4832 69.3171 20.4502 70.7558 20.4128 72.9436L20.1996 72.9818L20.0731 72.2776C19.9999 71.8698 19.9696 71.4352 19.99 70.9628C20.012 70.4997 20.0785 70.1243 20.1878 69.8272L15.8787 70.6013C16.2666 71.536 16.5892 72.693 16.8373 74.0737L17.335 76.8445C17.5448 78.0122 17.625 79.0978 17.5833 80.0906L21.7164 79.3481ZM33.7375 77.4661C34.6178 77.3079 35.4924 77.0647 36.369 76.7255C37.2455 76.3863 37.893 76.0499 38.3173 75.6963L37.7989 73.1301C37.5226 73.5624 37.0477 73.9538 36.3741 74.3044C35.7021 74.6642 34.9715 74.9103 34.1931 75.0501C32.0684 75.4701 29.938 74.5805 29.622 73.0876L29.7476 72.9885C30.8826 73.5021 32.2803 73.6145 33.939 73.3165C36.6172 72.8354 37.8481 71.7533 37.5202 69.9277C37.3587 69.0289 36.8061 68.2959 35.8758 67.803C34.9361 67.3117 33.4375 67.1696 31.6212 67.4959C29.7678 67.8288 28.3108 68.6645 27.4824 69.7508C26.654 70.8371 26.3303 72.1771 26.5817 73.5764C26.8497 75.0683 27.6314 76.1715 28.9377 76.8934C30.244 77.6153 31.8377 77.8073 33.7375 77.4661ZM32.4514 72.3306C31.293 72.5387 30.3307 72.4533 29.5474 72.087C29.5504 71.4647 29.7621 70.9388 30.1916 70.5077C30.6228 70.0858 31.1581 69.8175 31.7976 69.7026C32.4926 69.5778 33.0719 69.6076 33.5541 69.7889C34.0379 69.9794 34.3126 70.2839 34.3875 70.701C34.539 71.5442 33.5171 72.1392 32.4514 72.3306ZM46.4335 79.3943C50.0029 78.7627 52.8925 76.6365 52.3115 73.4024C52.2233 72.9112 52.002 72.4249 51.6552 71.9323L51.021 68.4016C50.743 66.8541 50.6144 65.4997 50.6295 64.3586L46.4964 65.1011C46.7037 65.456 46.8639 65.7621 46.9678 66.0208C47.0624 66.2812 47.1501 66.6099 47.2217 67.0083L47.29 67.3883L47.049 67.4316C46.611 66.6971 46.005 66.146 45.2327 65.7873C44.4527 65.4395 43.5754 65.3484 42.5931 65.5249C39.6648 66.0509 38.4923 68.5765 38.9901 71.3473C39.1599 72.2925 39.4781 73.1058 39.9559 73.7949C40.4336 74.4839 41.0498 74.9854 41.8264 75.3146C42.603 75.6439 43.4584 75.7198 44.4129 75.5483C45.3952 75.3718 46.1843 74.9718 46.7725 74.3591C47.3608 73.7465 47.7463 73.0172 47.9199 72.1729L48.1052 72.1396C48.5591 72.5363 48.8344 73.0035 48.9309 73.5409C49.1091 74.5325 48.8732 75.3497 48.2327 75.9909C47.5829 76.6337 46.6456 77.0604 45.4316 77.2785C44.4771 77.45 43.5069 77.4808 42.5118 77.3725C41.5166 77.2643 40.6977 77.0192 40.0459 76.6389L40.5719 79.5672C41.3245 79.7095 42.2246 79.7678 43.2706 79.7329C44.3166 79.6981 45.3678 79.5858 46.4335 79.3943ZM45.4576 72.95C44.6328 73.0982 43.9114 72.9695 43.3025 72.5623C42.6937 72.1551 42.3194 71.5623 42.1779 70.7746C42.0397 70.0055 42.1843 69.3195 42.6133 68.7258C43.0424 68.1322 43.6739 67.7605 44.4987 67.6123C45.2771 67.4725 45.9615 67.6078 46.5534 68.0276C47.1454 68.4474 47.5088 69.0326 47.6453 69.7925C47.7718 70.4967 47.6239 71.1642 47.2108 71.7933C46.7993 72.4316 46.2082 72.8152 45.4576 72.95ZM54.587 62.5859C55.1708 62.481 55.5966 62.2419 55.8812 61.8559C56.1675 61.4793 56.2627 61.0508 56.1745 60.5597C56.0862 60.0685 55.8462 59.6908 55.445 59.428C55.0439 59.1653 54.5615 59.0893 53.9777 59.1942C53.4124 59.2957 52.9866 59.5348 52.702 59.9208C52.4174 60.3067 52.3146 60.7461 52.4028 61.2372C52.4894 61.7191 52.7371 62.0859 53.1382 62.3487C53.5393 62.6114 54.0217 62.6874 54.587 62.5859ZM58.58 72.7259C58.1726 71.8425 57.8141 70.539 57.5028 68.806L56.8619 65.2383C56.717 64.4321 56.6485 63.7843 56.6437 63.2782C56.2875 63.6387 55.7102 63.8859 54.904 64.0308C54.0977 64.1756 53.4426 64.1498 52.9277 63.9458C53.081 64.32 53.2438 64.9603 53.4053 65.8592L54.0462 69.427C54.3575 71.1599 54.4751 72.5067 54.4007 73.4767L58.58 72.7259ZM65.0873 71.8343C66.6627 71.5513 67.8452 71.0519 68.6257 70.3377C69.4062 69.6236 69.7162 68.7931 69.5447 67.8386C68.9038 64.2708 62.3378 67.0191 62.0648 65.4994C61.9716 64.9804 62.6623 64.512 63.8855 64.2922C64.6269 64.1591 65.3849 64.1185 66.1519 64.1816C66.9189 64.2447 67.541 64.353 68.0367 64.5031L67.5656 61.8806C66.1237 61.5752 64.6669 61.5595 63.1934 61.8242C61.6829 62.0955 60.5652 62.5833 59.8218 63.2908C59.0784 63.9983 58.7863 64.7682 58.9378 65.6115C59.2641 67.4278 61.0591 67.6219 62.8184 67.5642C64.5684 67.5081 66.2735 67.2018 66.4217 68.0265C66.5282 68.6196 65.8494 69.0476 64.3945 69.309C63.6995 69.4339 62.8733 69.4675 61.905 69.4023C60.9274 69.3388 60.0898 69.2022 59.3829 68.9944L59.8973 71.8579C60.532 71.983 61.3748 72.0421 62.4274 72.0443C63.4784 72.0372 64.3645 71.9642 65.0873 71.8343ZM77.1806 69.6619C77.9868 69.517 78.8458 69.1331 79.3207 68.7417L78.8379 66.0543C78.5771 66.3595 78.0173 66.6513 77.4149 66.7595C76.201 66.9776 75.3524 66.4605 75.1176 65.1538L74.4767 61.5861L77.8313 60.9834L77.5683 59.5193L74.2137 60.1219L73.5312 56.3225L70.4704 57.762L70.9981 60.6996L69.0891 61.0425L69.3521 62.5067L71.2611 62.1637L72.1168 66.9269C72.5979 69.605 74.7249 70.103 77.1806 69.6619ZM86.6514 67.9605C87.5317 67.8024 88.4064 67.5591 89.2829 67.2199C90.1594 66.8807 90.8069 66.5444 91.2312 66.1908L90.7128 63.6245C90.4365 64.0568 89.9616 64.4482 89.288 64.7988C88.6161 65.1587 87.8854 65.4047 87.107 65.5446C84.9823 65.9645 82.8519 65.075 82.5359 63.5821L82.6615 63.4829C83.7965 63.9965 85.1942 64.1089 86.853 63.8109C89.5311 63.3298 90.762 62.2478 90.4341 60.4222C90.2726 59.5233 89.72 58.7903 88.7897 58.2974C87.8501 57.8062 86.3514 57.6641 84.5351 57.9903C82.6817 58.3233 81.2247 59.159 80.3963 60.2453C79.5679 61.3315 79.2442 62.6715 79.4956 64.0708C79.7636 65.5628 80.5453 66.6659 81.8516 67.3879C83.1579 68.1098 84.7517 68.3018 86.6514 67.9605ZM85.3653 62.8251C84.207 63.0331 83.2446 62.9477 82.4613 62.5815C82.4643 61.9591 82.676 61.4332 83.1055 61.0021C83.5367 60.5803 84.0721 60.3119 84.7115 60.1971C85.4065 60.0722 85.9858 60.1021 86.468 60.2833C86.9518 60.4738 87.2265 60.7784 87.3014 61.1954C87.4529 62.0387 86.431 62.6336 85.3653 62.8251ZM97.4639 65.7407C97.1147 65.1817 96.8428 64.36 96.6497 63.2851L96.3766 61.7653C96.2235 60.9127 96.3995 60.135 96.8969 59.443C97.3944 58.7509 98.0547 58.3262 98.8702 58.1797C99.2686 58.1081 99.6804 58.1107 100.085 58.1814C100.49 58.2522 100.818 58.375 101.067 58.5313L100.504 55.3991C99.9903 55.3096 99.4825 55.3052 98.9821 55.395C97.2307 55.7097 96.1977 57.1484 96.1603 59.3361L95.9471 59.3744L95.8206 58.6701C95.7474 58.2624 95.7171 57.8278 95.7375 57.3554C95.7595 56.8923 95.826 56.5168 95.9353 56.2198L91.6262 56.9939C92.0141 57.9286 92.3367 59.0856 92.5848 60.4663L93.0825 63.2371C93.2923 64.4047 93.3725 65.4904 93.3308 66.4832L97.4639 65.7407ZM107.787 62.0209L107.089 58.1381L110.527 57.5205L110.271 56.0934L106.833 56.711L106.162 52.9764L104.587 53.2594L105.258 56.994L101.82 57.6116L102.076 59.0387L105.514 58.4211L106.212 62.3039L107.787 62.0209ZM117.332 60.3063L116.634 56.4234L120.072 55.8058L119.816 54.3787L116.378 54.9963L115.707 51.2618L114.132 51.5448L114.803 55.2793L111.365 55.8969L111.621 57.324L115.059 56.7064L115.756 60.5893L117.332 60.3063ZM123.839 53.9813C124.074 53.6424 124.159 53.2636 124.088 52.8652C124.016 52.4667 123.806 52.1505 123.468 51.9148C123.129 51.6791 122.759 51.5924 122.361 51.664C121.962 51.7356 121.646 51.9455 121.41 52.2844C121.175 52.6232 121.088 52.9927 121.16 53.3912C121.231 53.7897 121.443 54.1152 121.781 54.3509C122.122 54.5958 122.492 54.6825 122.89 54.6109C123.289 54.5393 123.605 54.3294 123.839 53.9813ZM124.176 63.525C125.173 62.4753 125.682 61.102 125.444 59.7768C125.339 59.193 125.1 58.7672 124.733 58.4793C124.358 58.2023 123.948 58.1037 123.494 58.1853C123.105 58.2552 122.796 58.4542 122.568 58.7821C122.332 59.121 122.253 59.4796 122.323 59.8688C122.463 60.6472 123.086 61.0805 123.79 60.954C123.948 60.9257 124.057 60.8964 124.127 60.8553C124.118 61.1821 124.011 61.5456 123.786 61.9401C123.56 62.3346 123.312 62.6566 123.028 62.8893L124.176 63.525ZM26.4903 105.923C26.0579 104.9 25.6977 103.588 25.413 102.003L24.4575 96.6837C24.1728 95.0991 24.0536 93.743 24.1031 92.634L19.97 93.3765C20.3832 94.345 20.7341 95.6594 21.0287 97.2997L21.9843 102.619C22.2789 104.259 22.4075 105.613 22.3572 106.665L26.4903 105.923ZM34.5266 104.756C35.407 104.598 36.2816 104.355 37.1581 104.016C38.0346 103.677 38.6821 103.34 39.1064 102.987L38.588 100.421C38.3118 100.853 37.8368 101.244 37.1632 101.595C36.4913 101.955 35.7607 102.201 34.9822 102.341C32.8575 102.761 30.7271 101.871 30.4111 100.378L30.5368 100.279C31.6717 100.792 33.0694 100.905 34.7282 100.607C37.4063 100.126 38.6373 99.0438 38.3093 97.2182C38.1478 96.3193 37.5953 95.5863 36.6649 95.0934C35.7253 94.6022 34.2266 94.46 32.4103 94.7863C30.5569 95.1193 29.1 95.955 28.2716 97.0412C27.4431 98.1275 27.1195 99.4675 27.3708 100.867C27.6389 102.359 28.4206 103.462 29.7269 104.184C31.0332 104.906 32.6269 105.098 34.5266 104.756ZM33.2406 99.621C32.0822 99.8291 31.1198 99.7437 30.3366 99.3774C30.3396 98.7551 30.5512 98.2292 30.9808 97.7981C31.412 97.3763 31.9473 97.1079 32.5867 96.9931C33.2817 96.8682 33.861 96.8981 34.3432 97.0793C34.827 97.2698 35.1018 97.5744 35.1767 97.9914C35.3282 98.8347 34.3062 99.4296 33.2406 99.621ZM44.7109 102.927C46.5921 102.589 47.7192 101.621 47.9997 100.413L48.2035 100.377L48.2335 100.544C48.345 101.164 48.3465 101.652 48.2304 102.017L52.1132 101.32C51.895 100.957 51.7082 100.503 51.5636 99.9645C51.4098 99.4277 51.2388 98.6358 51.0541 97.6072L50.6362 95.2812C50.4348 94.1599 49.8209 93.3518 49.0386 92.9375C48.6474 92.7304 48.1921 92.5922 47.6694 92.5043C46.6271 92.3472 45.6156 92.4141 44.4202 92.6289C43.7159 92.7554 42.9415 92.971 42.1047 93.2648C41.2602 93.5696 40.6382 93.8344 40.2402 94.0685L40.6397 96.2925C40.9006 95.9874 41.3518 95.6768 41.9857 95.3716C42.6196 95.0664 43.3073 94.8472 44.0394 94.7157C44.966 94.5492 45.7424 94.6106 46.3683 94.9C46.9866 95.2002 47.3695 95.7341 47.511 96.5218L47.7058 97.606L47.4648 97.6493C47.1273 97.1551 46.6212 96.7868 45.9387 96.5555C45.2562 96.3242 44.4647 96.2846 43.5473 96.4494C42.3148 96.6708 41.406 97.1498 40.8191 97.877C40.2323 98.6042 40.0293 99.4442 40.1974 100.38C40.3656 101.316 40.8483 102.033 41.6532 102.52C42.4597 103.016 43.4784 103.148 44.7109 102.927ZM45.8683 100.796C44.506 101.041 43.584 100.594 43.4309 99.7419C43.2794 98.8986 43.9916 98.1776 45.3539 97.9328C46.0304 97.8113 46.6113 97.8504 47.0892 98.0611C47.5671 98.2718 47.8402 98.5671 47.9068 98.9378C48.0666 99.8274 47.2861 100.542 45.8683 100.796ZM58.2572 100.216C57.908 99.657 57.636 98.8354 57.4429 97.7604L57.1699 96.2406C57.0168 95.3881 57.1927 94.6103 57.6902 93.9183C58.1877 93.2263 58.8479 92.8016 59.6634 92.6551C60.0619 92.5835 60.4737 92.5861 60.8786 92.6568C61.2835 92.7276 61.6117 92.8504 61.8598 93.0067L61.2971 89.8745C60.7836 89.785 60.2758 89.7805 59.7754 89.8704C58.024 90.185 56.991 91.6237 56.9536 93.8115L56.7404 93.8498L56.6139 93.1455C56.5407 92.7378 56.5104 92.3032 56.5308 91.8308C56.5528 91.3677 56.6193 90.9922 56.7285 90.6952L52.4194 91.4693C52.8074 92.404 53.13 93.5609 53.378 94.9417L53.8758 97.7125C54.0856 98.8801 54.1658 99.9658 54.1241 100.959L58.2572 100.216ZM68.599 98.3583C68.4203 98.0556 68.247 97.5701 68.0606 96.9053C67.8742 96.2405 67.7365 95.6339 67.6383 95.0871L67.3852 93.6785C67.2604 92.9835 67.4024 92.3362 67.7987 91.7198C68.1966 91.1126 68.7708 90.7416 69.5215 90.6068C70.9949 90.3421 72.0265 91.1325 72.3012 92.6615L72.5692 94.1535C72.7823 95.3396 72.8649 96.4918 72.8154 97.6008L76.9485 96.8583C76.5479 95.9067 76.2153 94.6942 75.9473 93.2023L75.6327 91.4508C75.3913 90.1071 74.8325 89.1265 73.9546 88.4998C73.0675 87.8748 71.9521 87.683 70.5899 87.9277C68.6809 88.2706 67.5433 89.3933 67.1755 91.2865L66.9624 91.3248L66.8942 90.9448C66.7493 90.1386 66.7668 89.4371 66.9499 88.859L62.7613 89.6114C63.1744 90.5799 63.497 91.7368 63.7384 93.0805L64.2362 95.8513C64.4359 96.9633 64.5162 98.049 64.466 99.1007L68.599 98.3583ZM83.296 93.8527L82.5985 89.9699L86.0365 89.3523L85.7801 87.9252L82.3421 88.5428L81.6712 84.8082L80.0959 85.0912L80.7667 88.8258L77.3287 89.4434L77.5851 90.8705L81.0231 90.2529L81.7206 94.1357L83.296 93.8527ZM92.8409 92.138L92.1434 88.2552L95.5814 87.6376L95.325 86.2105L91.887 86.8281L91.2161 83.0936L89.6407 83.3766L90.3116 87.1111L86.8736 87.7287L87.13 89.1558L90.568 88.5382L91.2655 92.4211L92.8409 92.138ZM99.3478 85.8131C99.5835 85.4742 99.6685 85.0954 99.5969 84.697C99.5253 84.2985 99.3155 83.9822 98.9766 83.7466C98.6377 83.5109 98.2682 83.4242 97.8697 83.4958C97.4713 83.5674 97.155 83.7773 96.9194 84.1161C96.6837 84.455 96.597 84.8245 96.6686 85.223C96.7402 85.6215 96.9517 85.947 97.2906 86.1827C97.6311 86.4276 98.0006 86.5143 98.3991 86.4427C98.7976 86.3711 99.1138 86.1612 99.3478 85.8131ZM99.6848 95.3568C100.682 94.307 101.191 92.9338 100.953 91.6086C100.848 91.0248 100.609 90.599 100.242 90.3111C99.867 90.0341 99.457 89.9355 99.003 90.0171C98.6138 90.087 98.3051 90.2859 98.0771 90.6139C97.8414 90.9528 97.7623 91.3113 97.8322 91.7006C97.9721 92.479 98.5952 92.9123 99.2995 92.7858C99.457 92.7575 99.5665 92.7282 99.6357 92.6871C99.6274 93.0138 99.5205 93.3774 99.2948 93.7719C99.0692 94.1664 98.8209 94.4884 98.5375 94.7211L99.6848 95.3568ZM33.1477 136.645C36.7171 136.014 39.6067 133.888 39.0257 130.653C38.9375 130.162 38.7162 129.676 38.3694 129.183L37.7352 125.653C37.4572 124.105 37.3287 122.751 37.3437 121.61L33.2107 122.352C33.4179 122.707 33.5781 123.013 33.682 123.272C33.7766 123.532 33.8643 123.861 33.9359 124.259L34.0042 124.639L33.7632 124.683C33.3252 123.948 32.7192 123.397 31.9469 123.038C31.167 122.691 30.2897 122.599 29.3074 122.776C26.379 123.302 25.2065 125.828 25.7043 128.598C25.8741 129.544 26.1924 130.357 26.6701 131.046C27.1478 131.735 27.764 132.236 28.5406 132.566C29.3172 132.895 30.1726 132.971 31.1271 132.799C32.1094 132.623 32.8985 132.223 33.4867 131.61C34.075 130.998 34.4605 130.268 34.6341 129.424L34.8194 129.391C35.2734 129.787 35.5486 130.255 35.6451 130.792C35.8233 131.784 35.5874 132.601 34.9469 133.242C34.2971 133.885 33.3598 134.311 32.1458 134.53C31.1913 134.701 30.2211 134.732 29.226 134.624C28.2308 134.515 27.4119 134.27 26.7601 133.89L27.2861 136.818C28.0387 136.961 28.9388 137.019 29.9848 136.984C31.0308 136.949 32.082 136.837 33.1477 136.645ZM32.1718 130.201C31.347 130.349 30.6256 130.221 30.0168 129.813C29.4079 129.406 29.0336 128.813 28.8921 128.026C28.7539 127.257 28.8985 126.571 29.3276 125.977C29.7566 125.383 30.3881 125.012 31.2129 124.863C31.9913 124.724 32.6757 124.859 33.2677 125.279C33.8596 125.698 34.223 126.284 34.3595 127.044C34.4861 127.748 34.3381 128.415 33.925 129.044C33.5135 129.683 32.9224 130.066 32.1718 130.201ZM45.424 129.954C45.0748 129.395 44.8029 128.573 44.6098 127.498L44.3368 125.978C44.1836 125.126 44.3596 124.348 44.857 123.656C45.3545 122.964 46.0148 122.539 46.8303 122.393C47.2287 122.321 47.6405 122.324 48.0454 122.394C48.4504 122.465 48.7785 122.588 49.0266 122.744L48.464 119.612C47.9504 119.523 47.4427 119.518 46.9422 119.608C45.1908 119.923 44.1578 121.361 44.1204 123.549L43.9073 123.587L43.7807 122.883C43.7075 122.475 43.6772 122.041 43.6976 121.568C43.7196 121.105 43.7861 120.73 43.8954 120.433L39.5863 121.207C39.9742 122.142 40.2968 123.298 40.5449 124.679L41.0426 127.45C41.2524 128.618 41.3326 129.703 41.2909 130.696L45.424 129.954ZM59.5975 127.274C61.0148 126.483 61.8028 125.385 62.1037 124.078C62.2457 123.431 62.2572 122.749 62.1324 122.054C62.0075 121.359 61.7596 120.725 61.4012 120.167C60.6658 119.056 59.5525 118.29 57.9378 118.034C57.1313 117.912 56.2555 117.935 55.3102 118.105C54.365 118.275 53.5358 118.557 52.8225 118.953C51.3976 119.755 50.6205 120.86 50.3273 122.157C50.176 122.806 50.1645 123.487 50.2893 124.182C50.4142 124.877 50.6604 125.502 51.0281 126.058C51.7542 127.171 52.8692 127.947 54.4822 128.192C55.2904 128.325 56.1662 128.301 57.1115 128.132C58.0567 127.962 58.8859 127.679 59.5975 127.274ZM54.6051 125.415C54.0039 124.997 53.6372 124.394 53.4957 123.606C53.3542 122.818 53.4862 122.115 53.9043 121.514C54.3224 120.913 54.9261 120.546 55.7231 120.403C56.52 120.26 57.2137 120.393 57.8149 120.812C58.4069 121.231 58.7753 121.844 58.9168 122.632C59.0583 123.42 58.9246 124.113 58.5158 124.713C58.0976 125.314 57.4956 125.69 56.6986 125.833C55.9017 125.976 55.2064 125.834 54.6051 125.415ZM70.565 125.437L71.4533 119.519L71.6665 119.481L74.5683 124.718L79.0813 123.907C78.9044 123.136 78.8586 122.082 78.9423 120.737L79.3498 117.201C79.4247 116.021 79.6046 114.946 79.8787 113.969L75.931 114.678C76.0259 115.206 76.0673 115.916 76.0646 116.806L75.6688 120.407C75.6418 120.842 75.61 121.145 75.5843 121.321L75.3897 121.356L72.1223 115.362L69.611 115.813L68.6375 122.589L68.4522 122.622C68.1998 122.122 68.0555 121.851 68.027 121.799L66.4456 118.534C66.1347 117.815 65.9172 117.137 65.8023 116.497L61.8175 117.213C62.2988 117.815 62.8324 118.762 63.4385 120.06L65.095 123.263C65.3255 123.748 65.524 124.267 65.6997 124.819C65.8754 125.371 65.9897 125.848 66.0428 126.25L70.565 125.437ZM87.7848 122.621C88.5911 122.476 89.45 122.093 89.9249 121.701L89.4422 119.014C89.1813 119.319 88.6215 119.611 88.0192 119.719C86.8052 119.937 85.9566 119.42 85.7219 118.113L85.081 114.546L88.4356 113.943L88.1725 112.479L84.8179 113.081L84.1354 109.282L81.0746 110.721L81.6023 113.659L79.6934 114.002L79.9564 115.466L81.8654 115.123L82.721 119.886C83.2021 122.564 85.3291 123.062 87.7848 122.621ZM95.5949 120.941C95.4069 120.64 95.226 120.165 95.0505 119.508C94.8767 118.86 94.7374 118.244 94.6342 117.67L94.3626 116.264C94.2378 115.569 94.3781 114.913 94.7853 114.304C95.1832 113.697 95.7667 113.324 96.5174 113.189C97.9723 112.928 99.0039 113.718 99.2786 115.247L99.5466 116.739C99.7597 117.926 99.8423 119.078 99.7928 120.187L103.926 119.444C103.525 118.493 103.193 117.28 102.925 115.788L102.61 114.037C102.369 112.693 101.81 111.712 100.932 111.086C100.054 110.459 98.9295 110.269 97.5672 110.514C95.649 110.858 94.5207 111.979 94.1714 113.869L93.9583 113.907L93.5621 111.702C93.2608 110.025 93.1432 108.678 93.2077 107.652L89.0561 108.398C89.4559 109.292 89.8052 110.597 90.1148 112.321L91.0704 117.64C91.38 119.364 91.5069 120.709 91.4433 121.687L95.5949 120.941ZM110.255 116.442L109.557 112.559L112.995 111.942L112.739 110.514L109.301 111.132L108.63 107.398L107.055 107.681L107.726 111.415L104.288 112.033L104.544 113.46L107.982 112.842L108.679 116.725L110.255 116.442ZM119.8 114.727L119.102 110.844L122.54 110.227L122.284 108.8L118.846 109.417L118.175 105.683L116.6 105.966L117.27 109.7L113.832 110.318L114.089 111.745L117.527 111.128L118.224 115.01L119.8 114.727ZM126.307 108.402C126.542 108.063 126.627 107.685 126.556 107.286C126.484 106.888 126.274 106.572 125.935 106.336C125.597 106.1 125.227 106.014 124.829 106.085C124.43 106.157 124.114 106.367 123.878 106.705C123.643 107.044 123.556 107.414 123.627 107.812C123.699 108.211 123.911 108.536 124.249 108.772C124.59 109.017 124.959 109.104 125.358 109.032C125.756 108.96 126.073 108.751 126.307 108.402ZM126.644 117.946C127.641 116.896 128.15 115.523 127.912 114.198C127.807 113.614 127.568 113.188 127.201 112.9C126.826 112.623 126.416 112.525 125.962 112.606C125.573 112.676 125.264 112.875 125.036 113.203C124.8 113.542 124.721 113.901 124.791 114.29C124.931 115.068 125.554 115.502 126.258 115.375C126.416 115.347 126.525 115.318 126.594 115.276C126.586 115.603 126.479 115.967 126.254 116.361C126.028 116.756 125.78 117.078 125.496 117.31L126.644 117.946ZM32.8391 162.937C33.6083 162.799 34.2365 162.409 34.7052 161.77C35.1723 161.122 35.333 160.366 35.1749 159.485L34.5706 156.121C34.4374 155.38 34.6821 154.772 35.3215 154.657L35.0901 153.369C34.4507 153.484 34.0096 152.998 33.8747 152.248L33.2754 148.912C33.1173 148.031 32.7018 147.369 32.0383 146.924C31.3656 146.481 30.6484 146.323 29.8793 146.461L28.7209 146.669L28.9972 148.207L30.1556 147.999C30.8321 147.878 31.4711 148.346 31.6226 149.19L32.2668 152.776C32.4283 153.675 32.8171 154.188 33.4257 154.328C32.9037 154.67 32.7197 155.296 32.8811 156.195L33.522 159.763C33.6735 160.606 33.2393 161.277 32.5628 161.399L31.4044 161.607L31.6808 163.145L32.8391 162.937Z" fill="black"/>
</svg>
