<svg width="242" height="312" viewBox="0 0 242 312" fill="none" xmlns="http://www.w3.org/2000/svg">
<mask id="path-1-inside-1_238:2475" fill="white">
<path fill-rule="evenodd" clip-rule="evenodd" d="M70.7658 0.796875L96.1656 101.396L193.637 46.3298L132.086 133.532L241.428 155.629L240.44 157.083L132.086 178.98L193.637 266.182L96.1656 211.116L70.7658 311.715L45.3659 211.116L-52.1059 266.182L9.44513 178.98L-66.918 163.548H-54.614L-70.5957 149.707L9.44513 133.532L-52.1059 46.3298L-38.712 53.8966L-43.3303 57.1158H-33.0138L45.3659 101.396L70.7658 0.796875ZM-77.9761 151.199L-87.4455 159.4L-103.001 156.256L-77.9761 151.199Z"/>
</mask>
<path fill-rule="evenodd" clip-rule="evenodd" d="M70.7658 0.796875L96.1656 101.396L193.637 46.3298L132.086 133.532L241.428 155.629L240.44 157.083L132.086 178.98L193.637 266.182L96.1656 211.116L70.7658 311.715L45.3659 211.116L-52.1059 266.182L9.44513 178.98L-66.918 163.548H-54.614L-70.5957 149.707L9.44513 133.532L-52.1059 46.3298L-38.712 53.8966L-43.3303 57.1158H-33.0138L45.3659 101.396L70.7658 0.796875ZM-77.9761 151.199L-87.4455 159.4L-103.001 156.256L-77.9761 151.199Z" fill="#6EC9C4"/>
<path d="M96.1656 101.396L94.3605 101.852L94.9576 104.217L97.0814 103.017L96.1656 101.396ZM70.7658 0.796875L72.5709 0.341103H68.9606L70.7658 0.796875ZM193.637 46.3298L195.158 47.4034L192.722 44.7088L193.637 46.3298ZM132.086 133.532L130.565 132.459L128.919 134.792L131.718 135.357L132.086 133.532ZM241.428 155.629L242.968 156.675L244.543 154.359L241.797 153.804L241.428 155.629ZM240.44 157.083L240.809 158.908L241.553 158.758L241.98 158.13L240.44 157.083ZM132.086 178.98L131.718 177.155L128.919 177.721L130.565 180.053L132.086 178.98ZM193.637 266.182L192.722 267.803L195.158 265.109L193.637 266.182ZM96.1656 211.116L97.0814 209.495L94.9576 208.295L94.3605 210.66L96.1656 211.116ZM70.7658 311.715L68.9606 312.171H72.5709L70.7658 311.715ZM45.3659 211.116L47.1711 210.66L46.5739 208.295L44.4502 209.495L45.3659 211.116ZM-52.1059 266.182L-53.6269 265.109L-51.1901 267.803L-52.1059 266.182ZM9.44513 178.98L10.9662 180.053L12.6128 177.721L9.81392 177.155L9.44513 178.98ZM-66.918 163.548V161.686L-67.2868 165.373L-66.918 163.548ZM-54.614 163.548V165.41H-49.6203L-53.3952 162.141L-54.614 163.548ZM-70.5957 149.707L-70.9644 147.883L-74.6798 148.633L-71.8145 151.115L-70.5957 149.707ZM9.44513 133.532L9.81392 135.357L12.6128 134.792L10.9662 132.459L9.44513 133.532ZM-52.1059 46.3298L-51.1901 44.7088L-53.6269 47.4034L-52.1059 46.3298ZM-38.712 53.8966L-37.6474 55.424L-35.2192 53.7315L-37.7962 52.2756L-38.712 53.8966ZM-43.3303 57.1158L-44.3949 55.5884L-49.2571 58.9776H-43.3303V57.1158ZM-33.0138 57.1158L-32.098 55.4948L-32.5243 55.254H-33.0138V57.1158ZM45.3659 101.396L44.4502 103.017L46.5739 104.217L47.1711 101.852L45.3659 101.396ZM-87.4455 159.4L-87.8143 161.224L-86.918 161.406L-86.2267 160.807L-87.4455 159.4ZM-77.9761 151.199L-76.7573 152.606L-71.4058 147.972L-78.3449 149.374L-77.9761 151.199ZM-103.001 156.256L-103.37 154.431L-103.37 158.081L-103.001 156.256ZM97.9707 100.94L72.5709 0.341103L68.9606 1.25265L94.3605 101.852L97.9707 100.94ZM192.722 44.7088L95.2498 99.775L97.0814 103.017L194.553 47.9508L192.722 44.7088ZM133.607 134.606L195.158 47.4034L192.116 45.2562L130.565 132.459L133.607 134.606ZM241.797 153.804L132.455 131.707L131.718 135.357L241.059 157.454L241.797 153.804ZM241.98 158.13L242.968 156.675L239.888 154.582L238.9 156.037L241.98 158.13ZM132.455 180.805L240.809 158.908L240.071 155.258L131.718 177.155L132.455 180.805ZM195.158 265.109L133.607 177.906L130.565 180.053L192.116 267.256L195.158 265.109ZM95.2498 212.737L192.722 267.803L194.553 264.561L97.0814 209.495L95.2498 212.737ZM72.5709 312.171L97.9707 211.572L94.3605 210.66L68.9606 311.259L72.5709 312.171ZM43.5608 211.572L68.9606 312.171L72.5709 311.259L47.1711 210.66L43.5608 211.572ZM-51.1901 267.803L46.2817 212.737L44.4502 209.495L-53.0216 264.561L-51.1901 267.803ZM7.92408 177.906L-53.6269 265.109L-50.5848 267.256L10.9662 180.053L7.92408 177.906ZM-67.2868 165.373L9.07634 180.805L9.81392 177.155L-66.5492 161.723L-67.2868 165.373ZM-54.614 161.686H-66.918V165.41H-54.614V161.686ZM-71.8145 151.115L-55.8328 164.955L-53.3952 162.141L-69.3768 148.3L-71.8145 151.115ZM9.07634 131.707L-70.9644 147.883L-70.2269 151.532L9.81392 135.357L9.07634 131.707ZM-53.6269 47.4034L7.92408 134.606L10.9662 132.459L-50.5848 45.2562L-53.6269 47.4034ZM-37.7962 52.2756L-51.1901 44.7088L-53.0216 47.9508L-39.6278 55.5176L-37.7962 52.2756ZM-42.2657 58.6431L-37.6474 55.424L-39.7766 52.3693L-44.3949 55.5884L-42.2657 58.6431ZM-33.0138 55.254H-43.3303V58.9776H-33.0138V55.254ZM46.2817 99.775L-32.098 55.4948L-33.9296 58.7368L44.4502 103.017L46.2817 99.775ZM68.9606 0.341103L43.5608 100.94L47.1711 101.852L72.5709 1.25265L68.9606 0.341103ZM-86.2267 160.807L-76.7573 152.606L-79.195 149.792L-88.6643 157.992L-86.2267 160.807ZM-103.37 158.081L-87.8143 161.224L-87.0767 157.575L-102.632 154.431L-103.37 158.081ZM-78.3449 149.374L-103.37 154.431L-102.632 158.081L-77.6074 153.024L-78.3449 149.374Z" fill="black" fill-opacity="0.95" mask="url(#path-1-inside-1_238:2475)"/>
<path d="M41.1596 135.034C41.1702 134.5 41.2701 133.707 41.4645 132.636C41.6589 131.564 41.8684 130.588 42.1025 129.709L42.699 127.469L42.9825 127.545L45.9788 136.318L50.1365 137.425L52.4397 128.779C52.986 126.728 53.5726 125.134 54.1903 123.993L48.8892 122.581C48.8742 123.093 48.7868 123.839 48.6126 124.835C48.4384 125.831 48.2396 126.729 48.0256 127.532L47.4114 129.838L47.1374 129.765L44.2489 121.385L39.4682 120.071C39.4163 121.444 39.132 123.119 38.6059 125.094L37.6065 128.845C37.083 130.811 36.4963 132.405 35.8585 133.622L41.1596 135.034ZM58.3506 139.907C60.4672 140.471 62.3097 140.354 63.5819 139.681C64.8447 139.006 65.7011 137.918 66.0812 136.491C66.4613 135.064 66.2594 133.695 65.5001 132.481C64.7312 131.264 63.2003 130.249 61.0931 129.688C58.9764 129.124 57.134 129.24 55.8712 129.916C54.5989 130.589 53.7425 131.676 53.3624 133.103C52.9823 134.53 53.1842 135.899 53.953 137.116C54.7124 138.33 56.2434 139.345 58.3506 139.907ZM59.1032 137.081C58.4323 136.903 57.9516 136.542 57.6516 135.996C57.3491 135.46 57.2872 134.857 57.4634 134.196C57.6396 133.534 57.9935 133.041 58.5251 132.717C59.0541 132.403 59.6506 132.329 60.3215 132.508C61.0113 132.692 61.5015 133.055 61.804 133.591C62.0971 134.124 62.1589 134.728 61.9802 135.399C61.8015 136.07 61.4476 136.562 60.928 136.879C60.399 137.194 59.793 137.265 59.1032 137.081ZM73.1079 143.544L75.9791 139.148L76.2154 139.211L76.538 144.458L82.2643 145.984C82.4933 144.972 82.9547 143.81 83.6486 142.497L85.0124 140.188C85.7182 138.868 86.4536 137.779 87.2232 136.942L82.1961 135.603C82.0539 136.212 81.7839 136.96 81.3835 137.855L79.8837 140.522C79.7282 140.764 79.6111 140.976 79.5349 141.148L79.2798 141.08L78.9644 134.742L75.8272 133.906L72.3836 139.273L72.1757 139.218L72.1825 138.471L72.1892 135.406C72.2627 134.485 72.4004 133.702 72.5956 133.045L67.5779 131.709C67.8018 132.73 67.9074 134.043 67.8807 135.625L67.8965 138.3C67.8841 138.955 67.8357 139.63 67.7421 140.324C67.6484 141.017 67.5282 141.582 67.3816 142.019L73.1079 143.544ZM97.328 138.48C97.8564 138.206 98.1952 137.77 98.3538 137.175C98.5149 136.57 98.4404 136.014 98.1184 135.513C97.7964 135.012 97.2798 134.672 96.5616 134.481C95.8435 134.29 95.2262 134.327 94.7072 134.604C94.1787 134.878 93.8374 135.324 93.6763 135.928C93.5178 136.524 93.5948 137.071 93.9168 137.571C94.2293 138.069 94.746 138.409 95.4641 138.601C96.1823 138.792 96.7996 138.754 97.328 138.48ZM95.4083 149.485C95.4603 148.112 95.7445 146.437 96.2681 144.472L96.9805 141.798C97.2171 140.91 97.4506 140.223 97.6741 139.726C97.0323 139.97 96.2235 139.967 95.2313 139.703C94.2391 139.438 93.5077 139.031 93.0156 138.485C92.9899 138.923 92.8509 139.635 92.5866 140.627L91.8742 143.301C91.3506 145.267 90.7639 146.861 90.1261 148.078L95.4083 149.485ZM101.969 151.526C103.783 152.009 105.255 152.108 106.395 151.815C107.536 151.522 108.234 150.878 108.503 149.867C108.905 148.395 107.723 147.402 106.288 146.747C104.357 145.827 101.947 145.378 102.126 144.707C102.229 144.319 102.992 144.229 104.135 144.534C104.938 144.748 105.714 145.065 106.45 145.494C107.186 145.923 107.775 146.333 108.217 146.724L109.119 143.412C107.799 142.443 106.308 141.732 104.645 141.289C102.916 140.829 101.52 140.75 100.457 141.054C99.3829 141.365 98.7286 141.96 98.4919 142.848C97.5203 146.496 105.175 146.784 104.82 148.116C104.707 148.542 103.888 148.576 102.556 148.221C101.847 148.033 101.02 147.681 100.081 147.178C99.1329 146.672 98.3416 146.148 97.6927 145.621L96.7235 149.259C97.3013 149.635 98.1297 150.058 99.2183 150.53C100.3 150.991 101.222 151.327 101.969 151.526ZM23.0028 159.467C23.4186 159.578 23.8684 159.637 24.3496 159.654C24.8214 159.668 25.2372 159.627 25.5729 159.544L26.4791 156.143C26.1321 156.344 25.4814 156.393 24.9428 156.249C24.423 156.111 24.0192 155.841 23.7432 155.434C23.4647 155.036 23.4009 154.553 23.5494 153.996L24.4581 150.585L27.6142 151.425L27.9591 150.131L24.803 149.29L25.8351 145.416L21.4685 145.396L20.7209 148.203L19.0011 147.745L18.6562 149.039L20.376 149.497L19.0495 154.477C18.3975 156.924 19.7144 158.591 23.0028 159.467ZM32.1189 161.602C32.0658 161.193 32.1135 160.558 32.2689 159.709C32.4218 158.869 32.5803 158.122 32.7515 157.48L32.9793 156.548C33.1385 155.913 33.4779 155.437 34.0069 155.122C34.5265 154.805 35.1136 154.729 35.7656 154.902C37.0223 155.237 37.5203 156.331 37.1653 157.664L36.9287 158.552C36.5335 160.035 36.0249 161.337 35.4072 162.478L40.7083 163.89C40.7401 162.593 40.9892 161.05 41.4649 159.264L41.7393 158.234C42.1043 156.864 42.0133 155.686 41.4568 154.698C40.9003 153.71 39.9099 153.021 38.4642 152.636C36.546 152.125 35.0003 152.685 33.8297 154.306L33.6124 154.248L33.9874 152.84C34.5211 150.837 35.0983 149.24 35.7285 148.051L30.4369 146.642C30.4201 147.275 30.3251 148.049 30.1685 148.979C30.0094 149.918 29.8131 150.807 29.584 151.667L28.5847 155.418C28.3556 156.278 28.0837 157.147 27.7596 158.022C27.4329 158.906 27.1275 159.635 26.8272 160.192L32.1189 161.602ZM48.6011 166.286C49.5555 166.54 50.542 166.712 51.5486 166.808C52.5578 166.895 53.3527 166.874 53.9429 166.748L54.7156 163.543C54.2508 163.844 53.6291 164.013 52.8506 164.048C52.072 164.084 51.2859 163.996 50.5016 163.787C49.481 163.515 48.6532 163.051 48.0156 162.406C47.3685 161.758 47.0911 161.127 47.1741 160.512L47.3505 160.458C48.1715 161.516 49.3767 162.121 51.0398 162.564C53.5628 163.236 55.2452 162.733 55.7209 160.947C55.9147 160.219 55.8616 159.507 55.4652 158.754C54.9031 157.673 53.4861 156.648 51.0318 155.984C49.0002 155.443 47.1741 155.573 45.9044 156.237C44.6227 156.908 43.7329 158.006 43.3578 159.414C42.95 160.945 43.2156 162.342 44.1665 163.597C45.1173 164.852 46.5884 165.75 48.6011 166.286ZM49.6523 161.01C48.6413 160.741 47.9413 160.291 47.543 159.659C47.7716 159.143 48.1255 158.802 48.5884 158.622C49.0489 158.451 49.5402 158.43 50.0504 158.566C51.1938 158.871 51.7811 159.553 51.5772 160.319C51.4891 160.649 51.258 160.871 50.8813 160.994C50.5021 161.125 50.0965 161.129 49.6523 161.01ZM66.2242 170.981C66.6399 171.091 67.0897 171.15 67.571 171.167C68.0428 171.182 68.4585 171.141 68.7942 171.058L69.7004 167.656C69.3534 167.857 68.7027 167.907 68.1641 167.763C67.6444 167.625 67.2405 167.355 66.9645 166.948C66.686 166.55 66.6223 166.067 66.7708 165.51L67.6795 162.098L70.8356 162.939L71.1804 161.645L68.0244 160.804L69.0564 156.93L64.6898 156.91L63.9422 159.716L62.2224 159.258L61.8776 160.553L63.5974 161.011L62.2708 165.991C61.6188 168.438 62.9358 170.105 66.2242 170.981ZM77.0614 162.058C77.5898 161.783 77.9286 161.347 78.0872 160.752C78.2483 160.147 78.1738 159.591 77.8518 159.091C77.5298 158.59 77.0132 158.25 76.295 158.058C75.5769 157.867 74.9596 157.905 74.4406 158.182C73.9122 158.456 73.5709 158.901 73.4098 159.506C73.2512 160.101 73.3282 160.648 73.6502 161.149C73.9628 161.647 74.4794 161.987 75.1975 162.178C75.9157 162.37 76.533 162.332 77.0614 162.058ZM75.1418 173.063C75.1937 171.69 75.478 170.015 76.0016 168.05L76.7139 165.375C76.9505 164.487 77.1841 163.801 77.4076 163.303C76.7657 163.547 75.9569 163.544 74.9647 163.28C73.9726 163.016 73.2411 162.609 72.749 162.063C72.7233 162.501 72.5843 163.213 72.32 164.205L71.6076 166.879C71.084 168.845 70.4974 170.439 69.8596 171.656L75.1418 173.063ZM82.1626 174.933C82.1027 174.512 82.1529 173.868 82.3039 172.997C82.4428 172.134 82.5989 171.396 82.7575 170.801L83.0041 169.875C83.1778 169.223 83.4983 168.741 83.9612 168.409C84.4216 168.087 84.9778 168.012 85.6109 168.181C86.8582 168.513 87.1816 169.54 86.8217 170.892L86.5851 171.78C86.3233 172.762 86.0955 173.542 85.9136 174.111C85.7197 174.686 85.4836 175.231 85.2148 175.746L90.3458 177.113C90.3977 175.74 90.6216 174.292 91.0243 172.78L91.2358 171.986C91.3988 171.413 91.7331 170.955 92.2149 170.628C92.6967 170.301 93.2271 170.21 93.8224 170.368C95.0414 170.693 95.3648 171.72 95.0048 173.071L94.7682 173.96C94.373 175.443 93.8644 176.745 93.2467 177.886L98.5478 179.298C98.5796 178.001 98.8286 176.458 99.3044 174.672L99.5788 173.642C100.281 171.006 99.5731 168.915 96.6722 168.142C94.6028 167.591 92.8663 168.221 91.8109 169.751L91.5747 169.688C91.5175 167.852 90.6738 166.574 88.4891 165.962C86.5803 165.454 85.0441 166.016 83.8735 167.637L83.6372 167.574L83.7052 167.319C83.9292 166.478 84.3026 165.798 84.8159 165.277L79.4297 163.842C79.3979 165.139 79.169 166.606 78.7335 168.241L78.3107 169.829C78.0967 170.632 77.8802 171.293 77.6705 171.814C77.4584 172.344 77.1864 172.909 76.8521 173.518L82.1626 174.933ZM106.412 181.686C107.367 181.941 108.353 182.112 109.36 182.208C110.369 182.295 111.164 182.274 111.754 182.148L112.527 178.943C112.062 179.245 111.44 179.413 110.662 179.448C109.883 179.484 109.097 179.396 108.313 179.187C107.292 178.915 106.464 178.452 105.827 177.806C105.18 177.158 104.902 176.528 104.985 175.912L105.162 175.858C105.983 176.917 107.188 177.521 108.851 177.964C111.374 178.636 113.056 178.133 113.532 176.347C113.726 175.62 113.673 174.907 113.276 174.154C112.714 173.073 111.297 172.048 108.843 171.384C106.811 170.843 104.985 170.974 103.716 171.637C102.434 172.308 101.544 173.407 101.169 174.815C100.761 176.345 101.027 177.742 101.978 178.997C102.928 180.252 104.4 181.15 106.412 181.686ZM107.463 176.411C106.452 176.141 105.752 175.692 105.354 175.059C105.583 174.543 105.937 174.202 106.4 174.022C106.86 173.851 107.351 173.83 107.862 173.966C109.005 174.271 109.592 174.954 109.388 175.719C109.3 176.05 109.069 176.272 108.692 176.394C108.313 176.526 107.908 176.529 107.463 176.411Z" fill="black"/>
</svg>
