<svg width="241" height="241" viewBox="0 0 241 241" fill="none" xmlns="http://www.w3.org/2000/svg">
<circle cx="120.5" cy="120.5" r="120.5" fill="#F4B5C2"/>
<circle cx="120.5" cy="120.5" r="118.92" stroke="black" stroke-opacity="0.88" stroke-width="3.16066"/>
<path d="M138.439 118.093C137.702 144.618 138.493 154.873 139.748 157.819C139.905 158.187 140.615 159.726 139.824 160.953C138.685 162.714 134.738 163.38 132.795 162.112C130.838 160.835 131.321 157.868 131.553 155.243C132.444 145.256 131.259 141.449 130.168 137.89C129.666 136.253 129.215 136 129.008 134.761C128.716 133.016 128.956 131.288 128.956 131.288C129.01 130.898 129.07 130.64 129.116 130.089C129.186 129.273 129.164 128.63 129.116 127.854C129.021 126.294 128.932 125.909 128.862 124.86C128.846 124.617 128.835 124.412 128.829 124.218C128.794 123.129 128.816 122.283 128.821 122.083C128.843 121.382 128.837 120.157 128.724 117.852C128.913 117.77 129.072 117.741 129.183 117.732C129.267 117.725 129.291 117.73 129.631 117.732C129.801 117.732 129.769 117.732 129.963 117.732C130.336 117.734 130.379 117.739 130.514 117.732C130.657 117.725 130.773 117.711 130.843 117.702C130.878 117.697 130.903 117.692 130.905 117.692C130.967 117.683 137.2 117.931 137.924 117.732C137.956 117.723 138.083 117.685 138.199 117.732C138.353 117.795 138.412 117.96 138.439 118.093Z" fill="#F8D5DC" stroke="black" stroke-opacity="0.88" stroke-width="2.49754" stroke-miterlimit="10"/>
<path d="M153.534 117.734H89.8289C88.6358 117.734 87.6694 116.895 87.6694 115.858V71.2205C87.6694 70.1837 88.6358 69.344 89.8289 69.344H153.534C154.727 69.344 155.693 70.1837 155.693 71.2205V115.858C155.693 116.895 154.727 117.734 153.534 117.734Z" fill="#F8D5DC" stroke="black" stroke-opacity="0.88" stroke-width="2.49754" stroke-miterlimit="10"/>
<path d="M105.037 75.0345C103.744 75.0345 102.694 74.122 102.694 72.9985V66.8295C102.694 65.7059 103.744 64.7935 105.037 64.7935C106.33 64.7935 107.38 65.7059 107.38 66.8295V72.9985C107.38 74.122 106.33 75.0345 105.037 75.0345Z" fill="#F8D5DC" stroke="black" stroke-opacity="0.88" stroke-width="2.49754" stroke-miterlimit="10"/>
<path d="M121.417 75.0345C120.124 75.0345 119.074 74.122 119.074 72.9985V66.8295C119.074 65.7059 120.124 64.7935 121.417 64.7935C122.71 64.7935 123.76 65.7059 123.76 66.8295V72.9985C123.76 74.122 122.713 75.0345 121.417 75.0345Z" fill="#F8D5DC" stroke="black" stroke-opacity="0.88" stroke-width="2.49754" stroke-miterlimit="10"/>
<path d="M138.28 75.5928C136.987 75.5928 135.937 74.6803 135.937 73.5568V67.3878C135.937 66.2642 136.987 65.3517 138.28 65.3517C139.573 65.3517 140.623 66.2642 140.623 67.3878V73.5568C140.623 74.6827 139.573 75.5928 138.28 75.5928Z" fill="#F8D5DC" stroke="black" stroke-opacity="0.88" stroke-width="2.49754" stroke-miterlimit="10"/>
<path d="M89.8289 117.974H98.5371V78.5084H87.6694V116.1C87.6694 117.134 88.6358 117.974 89.8289 117.974Z" stroke="black" stroke-opacity="0.88" stroke-width="1.66503" stroke-miterlimit="10"/>
<path d="M110.468 78.5084H98.5342V117.976H110.468V78.5084Z" stroke="black" stroke-opacity="0.88" stroke-width="0.832514" stroke-miterlimit="10"/>
<path d="M122.406 78.5084H110.472V117.976H122.406V78.5084Z" stroke="black" stroke-opacity="0.88" stroke-width="1.66503" stroke-miterlimit="10"/>
<path d="M132.261 78.5084H122.405V117.976H132.261V78.5084Z" stroke="black" stroke-opacity="0.88" stroke-width="1.66503" stroke-miterlimit="10"/>
<path d="M144.483 78.5084H132.261V117.976H144.483V78.5084Z" stroke="black" stroke-opacity="0.88" stroke-width="1.66503" stroke-miterlimit="10"/>
<path d="M87.6704 82.0423V90.8361H155.694V82.0423H87.6704Z" stroke="black" stroke-opacity="0.88" stroke-width="1.66503" stroke-miterlimit="10"/>
<path d="M87.6704 90.836V99.6298H155.694V90.836H87.6704Z" stroke="black" stroke-opacity="0.88" stroke-width="1.66503" stroke-miterlimit="10"/>
<path d="M87.6689 99.6268V108.092H155.693V99.6268H87.6689Z" stroke="black" stroke-opacity="0.88" stroke-width="1.66503" stroke-miterlimit="10"/>
<path d="M155.693 116.796V109.032C155.693 108.514 155.21 108.094 154.614 108.094H87.6694V116.799C87.6694 117.317 88.1526 117.737 88.7492 117.737H154.614C155.21 117.734 155.693 117.315 155.693 116.796Z" stroke="black" stroke-opacity="0.88" stroke-width="1.66503" stroke-miterlimit="10"/>
<path d="M153.534 117.974H144.483V78.5084H155.693V116.1C155.693 117.134 154.727 117.974 153.534 117.974Z" stroke="black" stroke-opacity="0.88" stroke-width="1.66503" stroke-miterlimit="10"/>
<path d="M104.522 118.185C104.15 131.41 103.78 144.637 103.407 157.861C105.362 160.547 108.101 163.789 109.915 163.31C111.575 162.874 113.084 159.672 113.408 152.849C113.91 142.199 114.161 130.471 113.994 122.975C113.924 119.789 113.924 120.838 114.051 119.602C113.935 118.602 114.075 118.412 113.765 118.075C113.335 117.61 112.628 117.873 110.215 117.875C108.269 117.878 107.786 117.706 106.252 117.885C105.521 117.969 104.924 118.091 104.522 118.185Z" fill="#F8D5DC" stroke="black" stroke-opacity="0.88" stroke-width="2.49754" stroke-miterlimit="10"/>
<path d="M107.359 160.057C106.73 159.59 105.777 158.957 104.511 158.38C103.623 157.976 101.566 157.134 97.1606 156.782C94.0104 156.531 91.6107 156.339 88.5226 156.942C86.6115 157.315 82.6488 158.136 79.2422 161.094C75.0609 164.72 74.4131 169.216 74.2754 170.675C89.929 170.57 105.58 170.462 121.233 170.356C121.368 169.646 121.978 166.022 119.212 162.771C117.346 160.58 114.914 159.693 113.883 159.377C113.94 145.601 113.994 131.825 114.05 118.049" fill="#F8D5DC"/>
<path d="M107.359 160.057C106.73 159.59 105.777 158.957 104.511 158.38C103.623 157.976 101.566 157.134 97.1606 156.782C94.0104 156.531 91.6107 156.339 88.5226 156.942C86.6115 157.315 82.6488 158.136 79.2422 161.094C75.0609 164.72 74.4131 169.216 74.2754 170.675C89.929 170.57 105.58 170.462 121.233 170.356C121.368 169.646 121.978 166.022 119.212 162.771C117.346 160.58 114.914 159.693 113.883 159.377C113.94 145.601 113.994 131.825 114.05 118.049" stroke="black" stroke-opacity="0.88" stroke-width="2.49754" stroke-miterlimit="10"/>
<path d="M128.767 118.173C128.967 131.921 129.167 145.669 129.364 159.416C128.233 159.789 125.701 160.784 123.817 163.099C123.428 163.577 122.416 164.91 121.922 166.873C121.533 168.412 121.619 169.721 121.749 170.556C137.268 170.556 152.786 170.556 168.305 170.556C168.008 169.195 166.261 161.891 159.07 158.518C155.305 156.752 151.399 156.698 148.869 156.663C146.84 156.634 143.322 156.618 139.36 158.159C137.778 158.774 136.555 159.47 135.707 160.014" fill="#F8D5DC"/>
<path d="M128.767 118.173C128.967 131.921 129.167 145.669 129.364 159.416C128.233 159.789 125.701 160.784 123.817 163.099C123.428 163.577 122.416 164.91 121.922 166.873C121.533 168.412 121.619 169.721 121.749 170.556C137.268 170.556 152.786 170.556 168.305 170.556C168.008 169.195 166.261 161.891 159.07 158.518C155.305 156.752 151.399 156.698 148.869 156.663C146.84 156.634 143.322 156.618 139.36 158.159C137.778 158.774 136.555 159.47 135.707 160.014" stroke="black" stroke-opacity="0.88" stroke-width="2.49754" stroke-miterlimit="10"/>
<path d="M101.299 106.041C103.067 104.5 104.838 102.957 106.606 101.416" stroke="black" stroke-opacity="0.88" stroke-width="1.66503" stroke-miterlimit="10"/>
<path d="M106.57 106.041C104.853 104.5 103.136 102.957 101.417 101.416" stroke="black" stroke-opacity="0.88" stroke-width="1.66503" stroke-miterlimit="10"/>
<path d="M24.4534 124.148C23.6883 124.383 22.6638 124.546 21.3727 124.639L19.2419 124.778L19.2326 124.66C20.0001 124.455 20.5777 124.018 20.9655 123.349C21.3606 122.679 21.5245 121.913 21.4564 121.046C21.3743 120 20.9586 119.172 20.2174 118.569C19.4766 117.974 18.4864 117.717 17.2324 117.808C15.9635 117.899 14.9597 118.516 14.3817 119.423C13.8036 120.33 13.5451 121.505 13.6446 122.773L14.0747 128.254C14.8461 128.005 15.8996 127.832 17.2427 127.735L21.5019 127.427C22.845 127.33 23.9136 127.35 24.7153 127.486L24.4534 124.148ZM19.5312 122.378C19.5603 122.749 19.5066 123.111 19.3633 123.472C19.22 123.833 18.9841 124.155 18.6471 124.426C18.3176 124.696 17.92 124.859 17.4536 124.907L16.4668 124.979C16.3438 124.458 16.2458 123.779 16.1812 122.956C16.127 122.266 16.2472 121.705 16.5349 121.282C16.8231 120.866 17.2303 120.635 17.7423 120.598C18.2246 120.563 18.6319 120.713 18.9646 121.054C19.2974 121.395 19.4887 121.837 19.5312 122.378Z" fill="black"/>
<path d="M24.3298 108.486C23.832 108.644 23.1491 108.69 22.2884 108.626L21.0717 108.536C20.3891 108.485 19.8302 108.197 19.4016 107.681C18.9731 107.164 18.7817 106.575 18.8343 105.923C18.86 105.604 18.9451 105.289 19.0809 104.994C19.2167 104.698 19.3767 104.471 19.5463 104.312L17.0386 104.126C16.8666 104.501 16.7607 104.889 16.7284 105.289C16.6154 106.691 17.5066 107.764 19.1713 108.223L19.1575 108.394L18.5937 108.352C18.2672 108.328 17.929 108.265 17.572 108.157C17.2224 108.049 16.9489 107.924 16.7439 107.782L16.4659 111.23C17.2587 111.117 18.2081 111.098 19.3135 111.18L21.5319 111.345C22.4667 111.414 23.3127 111.567 24.0631 111.794L24.3298 108.486Z" fill="black"/>
<path d="M26.837 93.024C26.7118 91.7551 26.1632 90.85 25.3082 90.2355C24.8826 89.9363 24.3909 89.7216 23.8459 89.6018C23.301 89.482 22.7609 89.4698 22.2419 89.5614C21.2005 89.7589 20.2904 90.3356 19.5927 91.4313C19.2475 91.9799 18.9868 92.6232 18.8105 93.3613C18.6342 94.0994 18.5769 94.7875 18.6386 95.4255C18.7693 96.7033 19.3268 97.6027 20.1764 98.2084C20.6003 98.5148 21.0919 98.7295 21.6369 98.8494C22.1818 98.9692 22.7147 98.9797 23.2354 98.8809C24.275 98.6906 25.1925 98.1155 25.8828 97.0183C26.2353 96.4712 26.496 95.8279 26.6723 95.0898C26.8486 94.3517 26.9059 93.6637 26.837 93.024ZM23.9026 96.0878C23.4079 96.398 22.8526 96.4815 22.235 96.3457C21.6173 96.2099 21.1481 95.9011 20.8436 95.4153C20.539 94.9294 20.4638 94.3798 20.6125 93.7575C20.7611 93.1352 21.0783 92.6718 21.573 92.3617C22.066 92.0588 22.6285 91.9769 23.2461 92.1127C23.8637 92.2484 24.3257 92.5556 24.632 93.0343C24.9365 93.5201 25.019 94.0713 24.8704 94.6936C24.7217 95.3159 24.3973 95.7777 23.9026 96.0878Z" fill="black"/>
<path d="M22.0677 80.7671C22.23 80.3433 22.2438 79.9539 22.0967 79.6102C21.9496 79.2666 21.6958 79.0352 21.331 78.9065C20.9591 78.7754 20.6025 78.7916 20.2585 78.9621C19.9144 79.1325 19.6621 79.4378 19.4997 79.8616C19.3321 80.2993 19.3209 80.6817 19.468 81.0254C19.6151 81.369 19.8732 81.6099 20.2451 81.741C20.617 81.8721 20.9692 81.8465 21.3062 81.6736C21.6503 81.5031 21.9 81.2047 22.0677 80.7671ZM32.4885 86.9098C33.2763 84.8534 32.9844 83.1418 30.8585 82.3922L24.6351 80.1978C24.0879 80.0048 23.6705 79.8261 23.3761 79.6592C23.4765 80.0416 23.4087 80.5302 23.1798 81.1277C22.951 81.7252 22.6674 82.1535 22.3195 82.4172C22.5933 82.4507 23.032 82.5738 23.6424 82.7891L29.7114 84.9291C30.6866 85.2729 31.0328 85.9076 30.6921 86.7968C30.5431 87.1859 30.3178 87.5244 30.0234 87.8148L31.7634 88.4284C32.0339 87.9718 32.2756 87.4656 32.4885 86.9098Z" fill="black"/>
<path d="M35.2471 72.8696C35.5809 72.2467 35.8582 71.5876 36.0759 70.8824C36.2935 70.1773 36.4001 69.6164 36.3859 69.1865L34.51 68.3109C34.6468 68.6852 34.66 69.1643 34.5495 69.7481C34.4457 70.3353 34.2411 70.906 33.9459 71.4568C33.1643 72.9781 31.553 73.8911 30.4546 73.3908L30.4539 73.2661C31.3374 72.7982 32.097 71.979 32.726 70.8053C33.7417 68.9102 33.6648 67.637 32.3504 66.9886C31.7032 66.6694 30.9681 66.6716 30.1985 67.0215C29.4254 67.378 28.5973 68.2463 27.9085 69.5315C27.2056 70.843 27.0155 72.1421 27.2934 73.1662C27.5712 74.1904 28.2579 75.0183 29.2654 75.5152C30.3396 76.0451 31.4213 76.073 32.5207 75.5955C33.6202 75.1181 34.5266 74.2139 35.2471 72.8696ZM31.3705 71.2725C30.9312 72.0921 30.4032 72.6524 29.786 72.9698C29.3945 72.6772 29.1667 72.2995 29.1061 71.8302C29.0521 71.3642 29.1464 70.9049 29.3889 70.4525C29.6525 69.9607 29.9567 69.6133 30.3087 69.3973C30.6674 69.1846 30.9951 69.1555 31.2953 69.3036C31.9025 69.6031 31.7747 70.5184 31.3705 71.2725Z" fill="black"/>
<path d="M43.0775 60.9052C43.3852 60.4943 43.6963 60.0045 44.0002 59.4375C44.2979 58.8663 44.5004 58.4099 44.5908 58.0659L42.8205 56.8457C42.793 57.2421 42.6903 57.6769 42.5107 58.14C42.3328 58.6132 42.1069 59.0264 41.8349 59.3896C41.2775 60.134 40.6767 60.6137 40.0432 60.8271C39.4053 61.0465 38.816 60.9653 38.2831 60.598C37.7502 60.2307 37.4836 59.7309 37.4834 59.0988C37.4831 58.4666 37.7447 57.8073 38.2576 57.1225C38.5296 56.7592 38.8462 56.4357 39.2117 56.146C39.5834 55.8604 39.9156 55.665 40.2125 55.5537L38.5977 54.2872C38.2985 54.4511 37.9346 54.751 37.4937 55.1785C37.0529 55.6059 36.7129 55.9855 36.4676 56.313C35.4464 57.6767 34.9961 59.0096 35.112 60.0826C35.234 61.1598 35.7823 62.0524 36.7133 62.6941C37.6444 63.3359 38.6966 63.5555 39.7891 63.3244C40.8832 63.1035 42.0563 62.2688 43.0775 60.9052Z" fill="black"/>
<path d="M51.8617 51.0572C52.3165 50.5967 52.6914 49.9631 52.8132 49.5013L51.2167 48.0502C51.1928 48.3599 50.9684 48.7988 50.6286 49.1429C49.9438 49.8363 49.1454 49.9042 48.3692 49.1987L46.2497 47.2721L48.142 45.3559L47.2722 44.5653L45.3798 46.4815L43.1227 44.4299L41.8207 46.7321L43.5659 48.3183L42.489 49.4088L43.3588 50.1994L44.4357 49.109L47.2654 51.681C48.8564 53.1271 50.4764 52.46 51.8617 51.0572Z" fill="black"/>
<path d="M60.2914 43.797C61.293 43.0247 61.9332 42.2494 62.2063 41.4757C62.4793 40.702 62.3751 40.022 61.8831 39.4346C60.0437 37.239 56.4792 41.5268 55.6957 40.5915C55.4282 40.2721 55.7334 39.6989 56.5111 39.0992C56.9824 38.7358 57.5015 38.4294 58.0673 38.1903C58.6331 37.9512 59.1141 37.7962 59.5223 37.7162L58.1702 36.1023C57.0341 36.4245 56 36.9496 55.0632 37.6719C54.1029 38.4123 53.5039 39.1558 53.2544 39.9113C53.0049 40.6669 53.0981 41.299 53.5328 41.818C54.4692 42.9358 55.8113 42.4079 57.0302 41.7215C58.2433 41.0396 59.3273 40.2037 59.7525 40.7113C60.0583 41.0763 59.7457 41.6176 58.8207 42.3308C58.3789 42.6715 57.809 42.9983 57.1004 43.31C56.3859 43.6263 55.7418 43.8413 55.1621 43.9597L56.6384 45.7219C57.1349 45.5737 57.7525 45.304 58.4962 44.9183C59.235 44.527 59.8318 44.1513 60.2914 43.797Z" fill="black"/>
<path d="M81.3023 31.1518C82.2239 30.2786 82.5944 29.2953 82.5447 28.2489C82.5147 27.7321 82.377 27.2151 82.1311 26.7142C81.8853 26.2133 81.5577 25.782 81.1616 25.4305C80.3558 24.7338 79.3332 24.3717 78.0344 24.4932C77.3867 24.5574 76.7171 24.7456 76.0255 25.058C75.3339 25.3704 74.7561 25.7456 74.2919 26.1838C73.3668 27.0667 73.0063 28.0536 73.0595 29.0903C73.0827 29.6101 73.2205 30.1272 73.4663 30.6281C73.7121 31.129 74.0365 31.5536 74.4394 31.902C75.2384 32.6018 76.2643 32.9706 77.5597 32.8423C78.2107 32.7849 78.8804 32.5966 79.5719 32.2843C80.2635 31.9719 80.8414 31.5966 81.3023 31.1518ZM77.0565 30.7198C76.5033 30.5209 76.0908 30.1361 75.8122 29.5684C75.5336 29.0008 75.4839 28.4439 75.6766 27.9081C75.8692 27.3724 76.2553 26.9777 76.8384 26.7143C77.4214 26.4509 77.9845 26.4169 78.5377 26.6157C79.0841 26.8177 79.4999 27.2092 79.7785 27.7769C80.0571 28.3445 80.1035 28.8947 79.9176 29.4274C79.725 29.9632 79.3422 30.3646 78.7591 30.628C78.176 30.8913 77.6096 30.9187 77.0565 30.7198Z" fill="black"/>
<path d="M92.9239 27.1454C92.757 26.9209 92.5791 26.553 92.3755 26.0456C92.172 25.5382 92.0119 25.0729 91.8881 24.6518L91.569 23.567C91.4115 23.0317 91.469 22.5153 91.7299 22.0054C91.993 21.5027 92.4153 21.1726 92.997 21.0151C94.1388 20.706 95.0207 21.2533 95.3671 22.4309L95.7051 23.58C95.9738 24.4936 96.1366 25.3896 96.1913 26.2609L99.394 25.3939C98.9971 24.6768 98.6317 23.7509 98.2937 22.6018L97.8969 21.2529C97.5926 20.218 97.0681 19.4892 96.3215 19.0595C95.5677 18.6317 94.6701 18.5588 93.6145 18.8445C92.1352 19.245 91.3314 20.2023 91.2009 21.7094L91.0358 21.7541L90.9497 21.4615C90.7671 20.8406 90.7215 20.2904 90.8173 19.8252L87.5715 20.7039C87.9798 21.4333 88.3326 22.3164 88.637 23.3513L89.2647 25.4853C89.5166 26.3418 89.6718 27.1859 89.7211 28.0125L92.9239 27.1454Z" fill="black"/>
<path d="M116.91 23.1614C116.817 22.8999 116.755 22.4974 116.71 21.9537C116.665 21.41 116.65 20.9188 116.655 20.4799L116.67 19.3492C116.678 18.7764 116.863 18.2876 117.225 17.8828C117.588 17.478 118.067 17.2755 118.669 17.2828C119.8 17.2966 120.333 18.0694 120.317 19.2894L120.301 20.4871C120.285 21.6624 120.214 22.5692 120.079 23.2L123.308 23.2393C123.133 22.3965 123.048 21.458 123.062 20.4165L123.076 19.3677C123.091 18.8396 123.29 18.3658 123.66 17.9611C124.03 17.5564 124.494 17.3538 125.052 17.3606C126.19 17.3744 126.731 18.1473 126.714 19.3673L126.699 20.565C126.686 21.5172 126.577 22.4235 126.372 23.2767L129.698 23.3172C129.522 22.504 129.446 21.5061 129.462 20.3308L129.481 18.9248C129.509 16.7527 128.492 15.468 126.342 15.4418C124.758 15.4225 123.594 16.2045 123.063 17.5372L122.914 17.5354C122.524 16.1096 121.544 15.3834 119.96 15.3641C118.464 15.3459 117.436 16.0476 116.866 17.4618L116.695 17.4597L116.699 17.1547C116.708 16.5075 116.827 15.9658 117.055 15.5445L113.693 15.5036C113.868 16.3167 113.945 17.2625 113.931 18.3411L113.901 20.5654C113.89 21.458 113.789 22.3124 113.592 23.121L116.91 23.1614Z" fill="black"/>
<path d="M140.272 28.6242C143.073 29.2209 145.841 28.5261 146.419 25.9949C146.53 25.509 146.5 25.0085 146.328 24.4934L147.053 21.3167C147.174 20.7873 147.297 20.3495 147.42 20.0105C147.542 19.6788 147.704 19.3025 147.9 18.88L144.653 18.1971C144.69 18.4709 144.667 18.8691 144.592 19.4004C144.514 19.9391 144.427 20.4223 144.326 20.8647L144.074 21.9672C143.95 22.5111 143.653 22.9427 143.174 23.2677C142.694 23.6 142.16 23.7005 141.577 23.578C140.412 23.333 139.908 22.4669 140.182 21.2702L140.452 20.088C140.675 19.1089 140.972 18.244 141.341 17.5005L138.093 16.8177C138.092 17.661 137.957 18.6512 137.698 19.7826L137.382 21.1679C137.142 22.2195 137.246 23.1003 137.694 23.8103C138.135 24.5187 138.897 24.9906 139.967 25.2157C141.51 25.5402 142.765 24.9908 143.572 23.7619L143.718 23.7926C143.938 24.234 143.999 24.6651 143.902 25.093C143.724 25.869 143.306 26.3968 142.64 26.6747C141.973 26.9526 141.157 26.9862 140.189 26.7825C139.439 26.6248 138.721 26.3599 138.028 25.9861C137.335 25.6124 136.814 25.191 136.456 24.7205L135.932 27.0123C136.43 27.3375 137.076 27.6482 137.858 27.9342C138.639 28.2202 139.442 28.4497 140.272 28.6242Z" fill="black"/>
<path d="M162.879 32.1216C162.923 31.8506 163.064 31.4709 163.288 30.9756C163.513 30.4803 163.738 30.0441 163.956 29.6635L164.519 28.6828C164.804 28.186 165.207 27.8436 165.726 27.6557C166.246 27.4677 166.77 27.5095 167.303 27.7911C168.303 28.3194 168.402 29.2377 167.794 30.2958L167.198 31.3345C166.612 32.3539 166.108 33.1132 165.681 33.6025L168.536 35.1111C168.79 34.2952 169.171 33.4371 169.69 32.5338L170.212 31.6242C170.482 31.1696 170.89 30.847 171.416 30.6625C171.942 30.478 172.453 30.5129 172.947 30.7736C173.953 31.3055 174.058 32.2272 173.451 33.2853L172.854 34.324C172.38 35.1498 171.843 35.8917 171.246 36.5433L174.186 38.0971C174.425 37.307 174.843 36.4007 175.428 35.3814L176.128 34.162C177.21 32.2781 176.929 30.6917 175.028 29.6871C173.627 28.9467 172.211 29.0982 171.09 30.0197L170.959 29.9501C171.305 28.5267 170.786 27.445 169.385 26.7046C168.062 26.0059 166.806 26.149 165.611 27.124L165.46 27.0441L165.612 26.7796C165.934 26.2183 166.303 25.7994 166.712 25.536L163.739 23.9648C163.499 24.7549 163.108 25.616 162.571 26.5515L161.463 28.4805C161.019 29.2547 160.514 29.9549 159.945 30.5713L162.879 32.1216Z" fill="black"/>
<path d="M186.136 36.3801C186.508 36.6648 186.879 36.7889 187.264 36.7557C187.644 36.7283 187.955 36.5635 188.207 36.2602C188.459 35.9568 188.561 35.6237 188.509 35.2562C188.457 34.8887 188.248 34.5701 187.876 34.2854C187.515 34.0098 187.145 33.8858 186.76 33.9189C186.374 33.9521 186.053 34.118 185.801 34.4214C185.554 34.719 185.462 35.0509 185.514 35.4184C185.567 35.7859 185.775 36.1045 186.136 36.3801ZM182.083 43.9016C182.405 43.2118 183.007 42.3346 183.896 41.2644L185.726 39.0609C186.14 38.563 186.497 38.1907 186.802 37.928C186.395 37.9067 185.939 37.6989 185.425 37.3058C184.911 36.9127 184.58 36.5197 184.432 36.1163C184.286 36.3974 183.983 36.8206 183.521 37.3757L181.692 39.5792C180.803 40.6494 180.046 41.4091 179.417 41.864L182.083 43.9016Z" fill="black"/>
<path d="M189.481 50.219C189.604 49.9745 189.853 49.6556 190.217 49.2517C190.58 48.8479 190.927 48.5003 191.25 48.2037L192.084 47.4395C192.495 47.0625 192.993 46.8781 193.584 46.8709C194.169 46.8687 194.675 47.0812 195.1 47.5081C195.935 48.3463 195.864 49.3492 194.959 50.1787L194.076 50.9881C193.374 51.6316 192.636 52.1763 191.869 52.6174L194.211 54.9684C194.672 54.304 195.338 53.5721 196.221 52.7627L197.257 51.8126C198.053 51.0837 198.462 50.3048 198.492 49.4708C198.516 48.6316 198.148 47.8299 197.376 47.055C196.295 45.9691 195.033 45.7138 193.597 46.2839L193.477 46.1626L193.702 45.9565C194.179 45.5192 194.658 45.2313 195.128 45.1029L192.755 42.7203C192.288 43.4 191.655 44.1017 190.86 44.8306L189.22 46.3337C188.562 46.937 187.868 47.4518 187.139 47.868L189.481 50.219Z" fill="black"/>
<path d="M199.801 62.1759C200.255 62.821 200.798 63.2576 201.441 63.4876C202.079 63.7217 202.73 63.7695 203.4 63.6369L203.503 63.783L203.234 63.9567C202.791 64.2437 202.296 64.4576 201.762 64.5904L203.671 67.3048C204.278 66.6818 205.122 66.0207 206.19 65.3295L209.775 63.0096C210.843 62.3185 211.798 61.8156 212.627 61.5091L210.719 58.7947C210.054 59.4379 209.212 60.0889 208.187 60.7517L206.701 61.7136L206.607 61.5797C207.009 61.0273 207.219 60.4218 207.223 59.7552C207.227 59.0886 207 58.4297 206.542 57.7785C205.888 56.8473 204.965 56.3108 204.015 56.2261C203.061 56.1353 202.035 56.4091 201.092 57.0194C200.461 57.4276 199.97 57.9049 199.623 58.4575C199.271 59.0039 199.106 59.5973 199.121 60.2518C199.13 60.9103 199.361 61.549 199.801 62.1759ZM202.047 62.1129C201.666 61.5712 201.527 61.0239 201.629 60.4709C201.731 59.9179 202.042 59.4687 202.573 59.1251C203.091 58.7897 203.642 58.6812 204.215 58.7977C204.787 58.9142 205.264 59.2432 205.645 59.7849C206.008 60.3022 206.135 60.8313 206.023 61.3822C205.91 61.9331 205.601 62.3723 205.089 62.7037C204.608 63.0149 204.074 63.1214 203.476 63.0211C202.879 62.9207 202.402 62.618 202.047 62.1129Z" fill="black"/>
<path d="M213.527 88.0464L216.723 87.0194C216.174 86.7598 215.628 86.1058 215.277 85.1648L214.115 82.0492L214.252 81.9705L216.703 83.8809C218.352 85.32 219.61 85.7999 220.842 85.377C221.707 85.0798 222.273 84.4688 222.536 83.5369C222.8 82.605 222.713 81.5653 222.282 80.4082C221.983 79.6066 221.636 78.9317 221.233 78.3857C220.829 77.8327 220.29 77.2393 219.614 76.5985L216.87 77.5409C217.467 77.8863 218.008 78.3373 218.497 78.9009C218.982 79.4576 219.333 80.0369 219.559 80.6433C219.775 81.2218 219.858 81.7202 219.817 82.1431C219.767 82.5614 219.567 82.8344 219.216 82.9552C218.969 83.0398 218.689 83.0338 218.375 82.9371C218.061 82.8405 217.622 82.5983 217.059 82.2175L212.395 78.779L210.333 79.487L213.527 88.0464Z" fill="black"/>
<path d="M216.998 102.858C217.411 102.681 218.094 102.487 219.047 102.284L219.279 103.512L220.774 103.253L220.529 101.952L224.282 101.301C224.825 101.207 225.402 101.137 226.013 101.084C226.616 101.033 227.121 101.021 227.51 101.036L226.889 97.7389C226.671 97.8294 226.25 97.9629 225.611 98.1491L226.381 96.6114L218.443 93.0045L217.35 93.2694L218.504 99.3961C217.5 99.5323 216.791 99.5872 216.377 99.5608L216.998 102.858ZM223.803 98.5532L220.013 99.21L219.514 96.5634L223.803 98.5532Z" fill="black"/>
<path d="M217.493 110.081L228.375 113.247L228.315 111.902L217.433 108.743L217.493 110.081Z" fill="black"/>
<path d="M217.489 123.328C218.718 123.621 219.877 124.035 220.964 124.577C223.141 125.648 224.504 126.802 225.442 128.035L227.77 128.222L228.505 119.81L225.76 119.179C225.855 119.537 225.878 120.047 225.821 120.699L225.357 126.013L225.206 126.03C224.897 125.043 224.38 124.121 223.639 123.277C222.159 121.584 220.11 120.419 217.795 119.822L217.489 123.328Z" fill="black"/>
<path d="M97.9995 78.5001H113" stroke="#1E1A1A" stroke-width="1.7"/>
<circle cx="120.894" cy="120.105" r="83.7574" stroke="black" stroke-opacity="0.88" stroke-width="3.16066"/>
<mask id="path-47-inside-1_238:2148" fill="white">
<path d="M220.621 141.352C216.834 163.78 205.627 184.288 188.795 199.587C171.964 214.886 150.482 224.09 127.795 225.725C105.108 227.359 82.5296 221.328 63.6791 208.599C44.8285 195.87 30.798 177.18 23.8368 155.525L26.9587 154.522C33.695 175.477 47.2724 193.563 65.5142 205.881C83.7559 218.199 105.605 224.035 127.56 222.454C149.514 220.872 170.302 211.965 186.59 197.16C202.878 182.355 213.723 162.51 217.387 140.806L220.621 141.352Z"/>
</mask>
<path d="M220.621 141.352C216.834 163.78 205.627 184.288 188.795 199.587C171.964 214.886 150.482 224.09 127.795 225.725C105.108 227.359 82.5296 221.328 63.6791 208.599C44.8285 195.87 30.798 177.18 23.8368 155.525L26.9587 154.522C33.695 175.477 47.2724 193.563 65.5142 205.881C83.7559 218.199 105.605 224.035 127.56 222.454C149.514 220.872 170.302 211.965 186.59 197.16C202.878 182.355 213.723 162.51 217.387 140.806L220.621 141.352Z" stroke="black" stroke-opacity="0.88" stroke-width="6.32131" mask="url(#path-47-inside-1_238:2148)"/>
<path d="M21.2989 140.075L33.8611 153.836L17.4978 158.315L21.2989 140.075Z" fill="black" fill-opacity="0.88"/>
</svg>
