<svg width="262" height="124" viewBox="0 0 262 124" fill="none" xmlns="http://www.w3.org/2000/svg">
<path d="M7.07431 40.1958C10.9812 17.9963 32.1447 3.16719 54.3442 7.07413L255.161 42.4162C258.885 43.0716 261.372 46.6216 260.717 50.3454L248.942 117.252C248.286 120.976 244.736 123.463 241.013 122.808L40.196 87.4657C17.9965 83.5588 3.16738 62.3953 7.07431 40.1958Z" fill="#FEB913"/>
<path d="M12.0973 40.8125C15.5808 21.0188 34.4508 7.79679 54.2445 11.2803L251.847 46.0568C254.168 46.4652 255.718 48.6774 255.31 50.9979L244.173 114.274C243.765 116.594 241.553 118.145 239.232 117.736L41.6295 82.9596C21.8358 79.4761 8.61378 60.6062 12.0973 40.8125Z" stroke="black" stroke-width="2"/>
<path d="M27.7521 52.0764C29.012 52.2981 30.1548 52.3406 31.182 52.1941C32.198 52.0556 33.0407 51.7181 33.7216 51.1736C34.4008 50.6387 34.8134 49.9279 34.9708 49.0335C35.3737 46.7444 33.7382 45.6138 31.8252 44.821C29.4369 43.8553 26.628 43.4204 26.8796 42.0468C27.0235 41.2293 28.191 41.0183 29.9511 41.328C30.9129 41.4973 31.8317 41.7978 32.719 42.2217C33.6062 42.6456 34.2892 43.1029 34.789 43.5875L35.4863 39.625C34.9069 39.2553 34.1571 38.8952 33.2468 38.5466C32.3268 38.1963 31.4011 37.9343 30.4586 37.7684C26.8491 37.0935 23.7603 38.305 23.3401 40.9181C22.4142 46.1791 31.7713 45.6345 31.3769 47.8754C31.2019 48.7569 29.8822 48.9312 28.241 48.6225C27.1349 48.4279 26.048 48.068 24.9611 47.5396C23.8741 47.0111 22.9969 46.361 22.3183 45.597L21.427 49.7039C22.2333 50.1929 23.2501 50.6693 24.487 51.1349C25.7238 51.6004 26.8096 51.9105 27.7521 52.0764ZM43.7187 54.5988C43.6345 53.6123 43.7515 52.2149 44.0714 50.3971L45.1361 44.3475L47.2809 44.725C48.2042 44.8875 48.972 45.2011 49.5956 45.6579L49.7141 41.4348L38.1343 39.3969L36.7943 43.405C37.5556 43.1919 38.394 43.161 39.3077 43.3218L41.5294 43.7128L40.4647 49.7624C40.1601 51.4936 39.8026 52.8486 39.3907 53.8371L43.7187 54.5988ZM56.644 57.1611C57.7597 57.3575 58.7655 57.4452 59.6712 57.4262C60.5673 57.4054 61.4594 57.2947 62.3554 57.1053L63.0866 52.9504C62.4328 53.341 61.65 53.6197 60.7608 53.7706C59.8603 53.9294 58.9291 53.9242 57.9769 53.7566C57.0536 53.5941 56.2502 53.3139 55.5649 52.9256C54.8701 52.5356 54.3449 52.0267 53.991 51.3893C53.6258 50.7598 53.5118 50.0556 53.6489 49.2765C53.8435 48.1705 54.4626 47.3573 55.5044 46.8465C56.5462 46.3358 57.7884 46.2074 59.2407 46.4629C59.9909 46.595 60.7033 46.8294 61.3857 47.1776C62.0681 47.5257 62.6136 47.9192 63.0432 48.3518L63.7762 44.5244C63.2449 44.1632 62.5783 43.8376 61.7703 43.5269C60.9624 43.2161 60.1007 42.9851 59.2062 42.8277C57.5423 42.5349 55.899 42.6324 54.4024 43.192C53.6501 43.4662 52.9788 43.8438 52.3805 44.3136C51.1726 45.2612 50.2614 46.7766 49.9364 48.6232C49.1002 53.3744 52.5468 56.44 56.644 57.1611ZM72.916 48.483C73.5219 48.5896 74.0219 48.509 74.437 48.235C74.8504 47.9707 75.0963 47.5876 75.186 47.0778C75.2758 46.5681 75.1771 46.1144 74.8805 45.7152C74.5839 45.3159 74.1414 45.0695 73.5355 44.9628C72.9488 44.8596 72.4487 44.9402 72.0336 45.2141C71.6185 45.4881 71.3613 45.8792 71.2716 46.3889C71.1836 46.889 71.2935 47.3348 71.5901 47.734C71.8868 48.1333 72.3293 48.3797 72.916 48.483ZM73.178 59.7834C73.0972 58.7776 73.2142 57.3803 73.5308 55.5817L74.1824 51.8789C74.3297 51.0421 74.4946 50.387 74.6709 49.8925C74.1952 50.1161 73.5447 50.1504 72.7079 50.0031C71.8712 49.8559 71.2425 49.5965 70.8141 49.2137C70.8296 49.6329 70.7592 50.3146 70.595 51.2475L69.9433 54.9504C69.6268 56.7489 69.2597 58.1023 68.8404 59.02L73.178 59.7834ZM79.8326 61.2421C81.4676 61.5299 82.7975 61.4665 83.8128 61.0502C84.828 60.6339 85.4268 59.9361 85.6011 58.9455C86.2528 55.2426 78.8773 55.5708 79.1549 53.9934C79.2497 53.4549 80.0896 53.2457 81.3592 53.4691C82.1286 53.6046 82.8811 53.8361 83.6054 54.1718C84.3296 54.5075 84.8966 54.8354 85.3256 55.1588L85.8046 52.4369C84.5099 51.624 83.0971 51.0878 81.5678 50.8187C80.0001 50.5428 78.7375 50.6181 77.7607 51.0411C76.7839 51.4641 76.2242 52.1093 76.0702 52.9845C75.7384 54.8696 77.4167 55.7004 79.1503 56.2733C80.8742 56.8444 82.6439 57.1558 82.4933 58.0118C82.3849 58.6274 81.571 58.8014 80.061 58.5357C79.3396 58.4087 78.5232 58.146 77.6037 57.7363C76.6747 57.3249 75.9079 56.8925 75.2939 56.4374L74.7709 59.4093C75.3441 59.7581 76.1436 60.1169 77.1677 60.4955C78.1935 60.8644 79.0824 61.1101 79.8326 61.2421ZM97.4428 64.3414C98.2795 64.4886 99.2531 64.422 99.8555 64.2107L100.346 61.4215C99.9832 61.6254 99.3338 61.7094 98.7087 61.5994C97.4488 61.3776 96.8074 60.5707 97.0461 59.2145L97.6978 55.5117L101.179 56.1244L101.447 54.6048L97.9652 53.9921L98.6592 50.0488L95.1644 50.3559L94.6278 53.4047L92.6466 53.056L92.3791 54.5756L94.3604 54.9243L93.4904 59.8679C93.0012 62.6474 94.8941 63.8928 97.4428 64.3414ZM105.648 65.4978C105.572 65.1375 105.566 64.6108 105.63 63.9082C105.693 63.2152 105.777 62.5657 105.882 61.9694L106.12 60.5041C106.247 59.7828 106.618 59.1937 107.233 58.7465C107.837 58.2976 108.539 58.1434 109.318 58.2805C110.828 58.5463 111.549 59.6847 111.27 61.2716L110.998 62.8201C110.781 64.0512 110.449 65.2026 110.005 66.2646L114.294 67.0195C114.244 65.9498 114.354 64.6503 114.627 63.1018L114.947 61.2841C115.192 59.8895 114.999 58.735 114.368 57.8109C113.737 56.8868 112.71 56.2995 111.296 56.0507C109.306 55.7003 107.806 56.3884 106.79 58.1035L106.569 58.0646L106.972 55.7755C107.278 54.0347 107.646 52.6814 108.075 51.7059L103.766 50.9476C103.836 51.9613 103.709 53.3569 103.394 55.1459L102.423 60.6665C102.108 62.4554 101.75 63.8104 101.339 64.7395L105.648 65.4978ZM122.526 68.7558C123.44 68.9166 124.378 68.9925 125.353 68.9757C126.328 68.9588 127.078 68.8629 127.618 68.6703L128.031 65.9864C127.607 66.3085 127.005 66.5198 126.224 66.6202C125.441 66.7304 124.641 66.7087 123.833 66.5665C121.615 66.2156 119.858 64.5878 120.085 63.0212L120.242 62.9697C121.164 63.8755 122.484 64.4847 124.206 64.7877C126.986 65.2769 128.571 64.6635 128.904 62.7688C129.069 61.8359 128.793 60.9246 128.063 60.1121C127.324 59.2978 125.916 58.6235 124.03 58.2918C122.107 57.9533 120.39 58.246 119.195 59.0074C118 59.7688 117.205 60.9577 116.95 62.41C116.677 63.9585 117.044 65.3121 118.058 66.482C119.071 67.652 120.554 68.4088 122.526 68.7558ZM123.11 63.2959C121.908 63.0843 121.001 62.6571 120.37 62.0204C120.595 61.4155 120.989 60.9792 121.562 60.713C122.132 60.4565 122.75 60.3866 123.413 60.5034C124.135 60.6304 124.688 60.8666 125.093 61.2154C125.495 61.5739 125.654 61.9687 125.578 62.4015C125.424 63.2767 124.216 63.4906 123.11 63.2959ZM139.136 71.679C140.771 71.9668 142.101 71.9034 143.116 71.4871C144.131 71.0708 144.73 70.373 144.905 69.3824C145.556 65.6795 138.181 66.0077 138.458 64.4304C138.553 63.8918 139.393 63.6826 140.663 63.9061C141.432 64.0415 142.185 64.2731 142.909 64.6088C143.633 64.9445 144.2 65.2723 144.629 65.5957L145.108 62.8738C143.813 62.061 142.401 61.5248 140.871 61.2556C139.304 60.9797 138.041 61.055 137.064 61.478C136.087 61.9011 135.528 62.5462 135.374 63.4214C135.042 65.3065 136.72 66.1373 138.454 66.7102C140.178 67.2813 141.947 67.5927 141.797 68.4487C141.688 69.0643 140.874 69.2383 139.364 68.9726C138.643 68.8456 137.827 68.583 136.907 68.1732C135.978 67.7618 135.211 67.3294 134.597 66.8743L134.074 69.8462C134.648 70.195 135.447 70.5539 136.471 70.9324C137.497 71.3013 138.386 71.547 139.136 71.679ZM151.687 73.8879C152.524 74.0352 153.498 73.9686 154.1 73.7573L154.591 70.9681C154.228 71.1719 153.578 71.256 152.953 71.1459C151.693 70.9242 151.052 70.1172 151.291 68.7611L151.942 65.0583L155.424 65.671L155.691 64.1514L152.21 63.5386L152.904 59.5953L149.409 59.9024L148.872 62.9513L146.891 62.6026L146.624 64.1222L148.605 64.4709L147.735 69.4145C147.246 72.194 149.139 73.4394 151.687 73.8879ZM159.122 75.1964C161.074 75.54 162.518 75.0008 163.223 73.925L163.434 73.9623L163.404 74.1354C163.29 74.7798 163.117 75.255 162.874 75.5691L166.904 76.2783C166.821 75.8473 166.801 75.3382 166.853 74.7623C166.895 74.1847 167.012 73.3525 167.2 72.2849L167.625 69.8708C167.83 68.7071 167.521 67.7008 166.907 67.0177C166.6 66.6762 166.207 66.3788 165.729 66.1063C164.77 65.5807 163.762 65.2841 162.521 65.0658C161.79 64.9372 160.959 64.8702 160.039 64.8571C159.108 64.8518 158.408 64.8872 157.936 64.9729L157.53 67.2812C157.893 67.0773 158.444 66.9362 159.17 66.8657C159.896 66.7953 160.644 66.8277 161.404 66.9614C162.366 67.1307 163.1 67.4681 163.606 67.9736C164.1 68.487 164.282 69.1437 164.138 69.9612L163.94 71.0865L163.69 71.0425C163.538 70.4407 163.177 69.9012 162.595 69.4319C162.014 68.9626 161.257 68.6411 160.305 68.4735C159.026 68.2484 157.97 68.3897 157.138 68.888C156.307 69.3862 155.809 70.1314 155.638 71.1028C155.467 72.0742 155.681 72.9448 156.29 73.7065C156.898 74.4778 157.843 74.9712 159.122 75.1964ZM161.011 73.5357C159.597 73.2869 158.859 72.5224 159.014 71.6376C159.168 70.7623 160.12 70.315 161.534 70.5638C162.236 70.6874 162.787 70.9332 163.177 71.3092C163.567 71.6852 163.727 72.0704 163.66 72.4551C163.497 73.3784 162.482 73.7947 161.011 73.5357ZM173.28 77.4006C173.214 77.0419 173.219 76.5074 173.276 75.7934C173.332 75.0795 173.415 74.4396 173.514 73.8722L173.772 72.4102C173.899 71.6889 174.268 71.1095 174.875 70.6509C175.479 70.2021 176.171 70.0462 176.95 70.1833C178.479 70.4524 179.201 71.5908 178.922 73.1778L178.649 74.7262C178.433 75.9573 178.101 77.1087 177.656 78.1707L181.946 78.9257C181.896 77.8559 182.006 76.5564 182.278 75.008L182.598 73.1902C182.844 71.7956 182.65 70.6411 182.02 69.717C181.379 68.7913 180.362 68.2057 178.948 67.9569C176.967 67.6082 175.458 68.2945 174.423 70.0062L174.202 69.9673L174.271 69.573C174.418 68.7362 174.686 68.0595 175.071 67.5621L170.724 66.797C170.78 67.8877 170.68 69.1294 170.435 70.524L169.929 73.3998C169.726 74.5539 169.416 75.6396 168.991 76.6457L173.28 77.4006ZM188.293 80.3302C189.312 80.5096 190.212 80.4102 191.004 80.024C191.794 79.6475 192.419 79.0832 192.888 78.3328L193.119 78.3734L193.046 78.787C192.926 79.4699 192.69 80.1324 192.343 80.7554L196.632 81.5103C196.577 80.3603 196.696 78.9533 196.985 77.3087L197.957 71.788C198.246 70.1434 198.615 68.7804 199.06 67.7184L194.77 66.9635C194.793 68.1871 194.666 69.5828 194.388 71.1601L193.986 73.4491L193.774 73.4119C193.604 72.5193 193.213 71.7563 192.579 71.1292C191.946 70.5022 191.115 70.0981 190.086 69.9169C188.614 69.658 187.281 70.0184 186.356 70.8272C185.42 71.6343 184.77 72.8486 184.515 74.3009C184.344 75.2723 184.363 76.178 184.582 77.0197C184.791 77.8597 185.212 78.5683 185.85 79.1665C186.487 79.7744 187.302 80.1558 188.293 80.3302ZM190.229 78.1723C189.373 78.0216 188.726 77.6401 188.289 77.0276C187.851 76.4151 187.699 75.7041 187.843 74.8866C187.983 74.0883 188.369 73.4721 188.99 73.0458C189.61 72.6196 190.348 72.4817 191.204 72.6324C192.022 72.7763 192.64 73.1527 193.066 73.7731C193.492 74.3935 193.637 75.0932 193.498 75.8819C193.368 76.6225 192.994 77.2211 192.367 77.6859C191.74 78.1506 191.027 78.3127 190.229 78.1723ZM202.479 82.8269C204.431 83.1705 205.875 82.6312 206.58 81.5555L206.791 81.5927L206.761 81.7659C206.647 82.4103 206.475 82.8855 206.231 83.1996L210.261 83.9088C210.178 83.4778 210.158 82.9687 210.21 82.3928C210.252 81.8152 210.369 80.9829 210.557 79.9154L210.982 77.5013C211.187 76.3375 210.878 75.3313 210.264 74.6482C209.958 74.3067 209.564 74.0093 209.086 73.7368C208.128 73.2112 207.119 72.9146 205.878 72.6963C205.147 72.5676 204.316 72.5007 203.396 72.4876C202.465 72.4823 201.765 72.5177 201.294 72.6034L200.887 74.9117C201.25 74.7078 201.801 74.5667 202.527 74.4962C203.253 74.4257 204.001 74.4582 204.761 74.5919C205.723 74.7612 206.457 75.0986 206.963 75.6041C207.457 76.1175 207.639 76.7742 207.495 77.5917L207.297 78.717L207.047 78.673C206.895 78.0712 206.534 77.5317 205.953 77.0624C205.371 76.5931 204.614 76.2716 203.662 76.104C202.383 75.8789 201.327 76.0202 200.495 76.5184C199.664 77.0167 199.166 77.7619 198.995 78.7333C198.824 79.7047 199.038 80.5752 199.647 81.337C200.255 82.1083 201.2 82.6017 202.479 82.8269ZM204.368 81.1662C202.954 80.9174 202.216 80.1529 202.371 79.268C202.526 78.3928 203.477 77.9455 204.891 78.1943C205.593 78.3179 206.144 78.5637 206.534 78.9397C206.924 79.3157 207.085 79.7009 207.017 80.0856C206.854 81.0089 205.839 81.4252 204.368 81.1662ZM216.637 85.0311C216.497 84.3619 216.526 83.4647 216.723 82.349L217 80.7717C217.156 79.8869 217.605 79.1925 218.337 78.6966C219.069 78.2007 219.864 78.0233 220.71 78.1722C221.124 78.245 221.524 78.3947 221.893 78.6084C222.262 78.8221 222.537 79.059 222.723 79.2999L223.295 76.0491C222.827 75.7783 222.334 75.5924 221.815 75.501C219.997 75.1811 218.477 76.2125 217.658 78.3292L217.437 78.2903L217.566 77.5593C217.64 77.1362 217.766 76.7022 217.955 76.2495C218.142 75.8065 218.341 75.4647 218.553 75.2146L214.081 74.4275C214.125 75.4763 214.025 76.7181 213.773 78.1511L213.267 81.0269C213.053 82.2387 212.743 83.3244 212.348 84.2761L216.637 85.0311ZM227.11 87.1618C228.13 87.3412 229.03 87.2418 229.821 86.8556C230.612 86.479 231.236 85.9147 231.706 85.1644L231.936 85.205L231.864 85.6186C231.743 86.3014 231.508 86.964 231.16 87.587L235.45 88.3419C235.394 87.1918 235.513 85.7849 235.803 84.1402L236.774 78.6196C237.064 76.975 237.432 75.612 237.877 74.55L233.588 73.795C233.61 75.0187 233.483 76.4143 233.206 77.9916L232.803 80.2807L232.591 80.2434C232.421 79.3508 232.03 78.5879 231.397 77.9608C230.763 77.3337 229.932 76.9296 228.903 76.7485C227.432 76.4895 226.099 76.8499 225.173 77.6588C224.238 78.4659 223.588 79.6802 223.332 81.1325C223.161 82.1039 223.181 83.0096 223.399 83.8513C223.608 84.6912 224.029 85.3999 224.667 85.9981C225.304 86.6059 226.12 86.9874 227.11 87.1618ZM229.047 85.0038C228.191 84.8532 227.544 84.4716 227.106 83.8592C226.669 83.2467 226.516 82.5357 226.66 81.7182C226.801 80.9199 227.187 80.3036 227.807 79.8774C228.427 79.4511 229.166 79.3133 230.022 79.464C230.839 79.6078 231.457 79.9843 231.883 80.6047C232.31 81.2251 232.454 81.9248 232.315 82.7134C232.185 83.454 231.812 84.0527 231.185 84.5174C230.558 84.9822 229.845 85.1443 229.047 85.0038Z" fill="black"/>
</svg>
