<svg width="95" height="101" viewBox="0 0 95 101" fill="none" xmlns="http://www.w3.org/2000/svg">
<g clip-path="url(#clip0_698:8065)">
<path d="M20.9644 47.9376C21.0296 47.6479 19.0173 47.4601 17.5552 45.9081C15.9309 44.1853 15.9056 41.7492 15.8923 40.4066C15.8815 39.562 15.8908 37.0145 17.4803 34.5214C19.0353 32.0811 21.195 31.1403 24.5259 29.6905C27.0885 28.5726 29.7745 27.3988 33.3239 27.6392C35.0554 27.7578 36.3277 28.1639 38.5043 28.8667C40.5824 29.5398 42.5389 30.1671 44.7711 31.6729C45.862 32.4054 47.7431 33.6986 49.3401 36.0762C50.4066 37.6693 50.5456 38.9496 50.8203 38.8996C51.2783 38.809 51.1937 35.3272 50.4955 32.0382C50.1695 30.4974 49.7502 29.1847 48.9716 26.7498C48.075 23.9489 47.8058 23.5186 47.6524 22.1599C47.5133 20.938 47.3348 19.2189 48.1421 17.3083C48.8402 15.6489 49.932 14.6714 50.4137 14.2461C50.9805 13.7506 53.0012 11.9754 55.9474 11.9741C57.8847 11.9728 59.2902 12.7434 60.3197 13.3285C61.0973 13.7675 62.9193 14.9069 64.8104 17.6292C68.1842 22.4887 69.9288 29.6948 68.5377 35.0182C68.4942 35.1919 68.0741 36.7732 68.2853 36.8527C68.599 36.9709 69.312 33.234 72.0961 31.1982C74.3457 29.553 77.5564 29.315 80.1633 30.253C80.7546 30.4684 82.8869 31.3081 84.4249 33.4735C86.7906 36.7984 86.0555 40.8851 85.5207 43.6439C84.2658 50.1003 80.8232 54.6218 75.8794 60.9753C73.5654 63.9557 71.5135 66.26 70.1672 67.7191C68.9529 71.5449 67.9959 74.5321 67.4008 76.3838C65.9661 80.8721 65.7049 81.6435 64.9419 82.7376C62.4743 86.2814 58.6193 87.5704 56.0843 88.421C53.9265 89.1432 50.6856 89.8302 45.436 89.4464C31.6467 88.4483 21.9685 81.2509 19.2337 79.0806C13.8208 74.7834 11.7164 71.1914 10.9667 69.8054C10.0189 68.0523 8.36461 64.9149 8.22674 60.5652C8.16226 58.6406 8.05514 55.1795 10.2878 51.9492C10.8814 51.091 12.291 49.0564 14.8204 48.1818C17.8545 47.1318 20.879 48.3002 20.9644 47.9376Z" fill="#06A462" stroke="white" stroke-width="2.05203" stroke-miterlimit="10" stroke-linecap="round" stroke-linejoin="round"/>
<path d="M50.5242 37.1216C50.5782 38.5307 50.4913 40.5664 49.813 42.8911C49.3046 44.6292 48.6101 46.0268 47.9946 47.0595" stroke="white" stroke-width="2.05203" stroke-miterlimit="10" stroke-linecap="round" stroke-linejoin="round"/>
<path d="M69.1715 34.1898C67.9073 38.6912 66.433 42.3533 65.1963 45.0743C62.3966 51.2266 60.1688 53.8813 59.1489 55.0175C58.3687 55.8858 57.6672 56.5645 57.1846 57.0113" stroke="white" stroke-width="2.05203" stroke-miterlimit="10" stroke-linecap="round" stroke-linejoin="round"/>
<path d="M60.0808 61.2157C59.8289 60.4484 59.1644 58.8167 57.5669 57.411C56.2292 56.2274 54.8409 55.7411 54.0783 55.5343" stroke="white" stroke-width="2.05203" stroke-miterlimit="10" stroke-linecap="round" stroke-linejoin="round"/>
<path d="M21.0242 48.1867C21.3943 47.5147 23.1854 48.4451 25.3391 48.3353C28.56 48.167 28.9885 45.8652 32.5772 45.4773C33.2946 45.3967 34.9392 45.2413 36.7025 46.0516C40.1547 47.6369 40.9217 51.5 40.9479 51.6633C41.2712 53.4442 40.8226 54.7517 40.0853 56.9226C39.2581 59.352 38.3472 62.0422 35.7566 63.6613C35.0755 64.0918 33.3455 65.1725 31.2358 64.758C29.2893 64.3757 28.1218 62.9346 27.6942 62.4008C27.0621 61.6145 26.6546 60.5035 25.8732 58.3089C25.2106 56.4586 25.2525 56.2697 24.569 54.4554C23.4476 51.4749 22.9999 51.0724 22.7456 50.8742C22.3506 50.5647 21.7506 50.2364 21.3218 49.4536C21.1526 49.1267 20.8308 48.545 21.0242 48.1867Z" fill="black" stroke="white" stroke-width="2.05203" stroke-miterlimit="10"/>
</g>
<defs>
<clipPath id="clip0_698:8065">
<rect width="70.2067" height="80.5968" fill="white" transform="matrix(-0.935825 -0.352466 -0.352466 0.935825 94.1084 24.7456)"/>
</clipPath>
</defs>
</svg>
