<svg width="1494" height="48" viewBox="0 0 1494 48" fill="none" xmlns="http://www.w3.org/2000/svg">
<rect width="1493.93" height="48" fill="#A9E9F5"/>
<path d="M947.284 8H942.887V40.1653H947.284V8Z" fill="black"/>
<path d="M951.053 8H949.169V40.1653H951.053V8Z" fill="black"/>
<path d="M956.077 8H954.193V40.1653H956.077V8Z" fill="black"/>
<path d="M965.499 8H962.987V40.1653H965.499V8Z" fill="black"/>
<path d="M973.804 8H967.62V40.12H973.804V8Z" fill="black"/>
<path d="M979.986 8H975.864V40.12H979.986V8Z" fill="black"/>
<path d="M987.2 8H985.139V40.12H987.2V8Z" fill="black"/>
<path d="M991.323 8H989.261V40.12H991.323V8Z" fill="black"/>
<path d="M1000.6 8H997.506V40.12H1000.6V8Z" fill="black"/>
<path d="M1008.69 8H1006.76V40.12H1008.69V8Z" fill="black"/>
<path d="M1014.5 8H1010.63V40.12H1014.5V8Z" fill="black"/>
<path d="M1026.11 8H1020.3V40.12H1026.11V8Z" fill="black"/>
<path d="M1029.98 8H1028.04V40.12H1029.98V8Z" fill="black"/>
<path d="M1039.66 8H1035.79V40.12H1039.66V8Z" fill="black"/>
<path d="M1043.53 8H1041.59V40.12H1043.53V8Z" fill="black"/>
<path d="M1053.21 8H1049.33V40.12H1053.21V8Z" fill="black"/>
<path d="M1060.95 8H1059.01V40.12H1060.95V8Z" fill="black"/>
<path d="M1068.69 8H1062.88V40.12H1068.69V8Z" fill="black"/>
<path d="M1072.56 8H1070.62V40.12H1072.56V8Z" fill="black"/>
<path d="M1082.24 8H1078.37V40.12H1082.24V8Z" fill="black"/>
<path d="M1089.98 8H1084.17V40.12H1089.98V8Z" fill="black"/>
<path d="M1093.85 8H1091.91V40.12H1093.85V8Z" fill="black"/>
<path d="M1097.72 8H1095.78V40.12H1097.72V8Z" fill="black"/>
<path d="M1107.4 8H1103.53V40.12H1107.4V8Z" fill="black"/>
<path d="M1115.14 8H1113.2V40.12H1115.14V8Z" fill="black"/>
<path d="M1122.88 8H1120.94V40.12H1122.88V8Z" fill="black"/>
<path d="M1128.69 8H1124.82V40.12H1128.69V8Z" fill="black"/>
<path d="M1136.43 8H1134.49V40.12H1136.43V8Z" fill="black"/>
<path d="M1146.1 8H1144.17V40.12H1146.1V8Z" fill="black"/>
<path d="M1151.91 8H1148.04V40.12H1151.91V8Z" fill="black"/>
<path d="M1159.65 8H1155.78V40.12H1159.65V8Z" fill="black"/>
<path d="M1171.27 8H1165.46V40.12H1171.27V8Z" fill="black"/>
<path d="M1175.14 8H1173.2V40.12H1175.14V8Z" fill="black"/>
<path d="M1180.94 8H1177.07V40.12H1180.94V8Z" fill="black"/>
<path d="M464.47 8H460.073V40.1653H464.47V8Z" fill="black"/>
<path d="M468.239 8H466.354V40.1653H468.239V8Z" fill="black"/>
<path d="M473.263 8H471.378V40.1653H473.263V8Z" fill="black"/>
<path d="M482.684 8H480.172V40.1653H482.684V8Z" fill="black"/>
<path d="M490.989 8H484.806V40.12H490.989V8Z" fill="black"/>
<path d="M497.171 8H493.049V40.12H497.171V8Z" fill="black"/>
<path d="M504.386 8H502.325V40.12H504.386V8Z" fill="black"/>
<path d="M508.508 8H506.447V40.12H508.508V8Z" fill="black"/>
<path d="M517.783 8H514.691V40.12H517.783V8Z" fill="black"/>
<path d="M525.877 8H523.941V40.12H525.877V8Z" fill="black"/>
<path d="M531.683 8H527.812V40.12H531.683V8Z" fill="black"/>
<path d="M543.295 8H537.489V40.12H543.295V8Z" fill="black"/>
<path d="M547.166 8H545.23V40.12H547.166V8Z" fill="black"/>
<path d="M556.842 8H552.971V40.12H556.842V8Z" fill="black"/>
<path d="M560.713 8H558.778V40.12H560.713V8Z" fill="black"/>
<path d="M570.391 8H566.52V40.12H570.391V8Z" fill="black"/>
<path d="M578.132 8H576.197V40.12H578.132V8Z" fill="black"/>
<path d="M585.874 8H580.068V40.12H585.874V8Z" fill="black"/>
<path d="M589.745 8H587.81V40.12H589.745V8Z" fill="black"/>
<path d="M599.422 8H595.551V40.12H599.422V8Z" fill="black"/>
<path d="M607.164 8H601.357V40.12H607.164V8Z" fill="black"/>
<path d="M611.035 8H609.099V40.12H611.035V8Z" fill="black"/>
<path d="M614.904 8H612.969V40.12H614.904V8Z" fill="black"/>
<path d="M624.582 8H620.711V40.12H624.582V8Z" fill="black"/>
<path d="M632.324 8H630.389V40.12H632.324V8Z" fill="black"/>
<path d="M640.065 8H638.13V40.12H640.065V8Z" fill="black"/>
<path d="M645.872 8H642.001V40.12H645.872V8Z" fill="black"/>
<path d="M653.613 8H651.678V40.12H653.613V8Z" fill="black"/>
<path d="M663.29 8H661.355V40.12H663.29V8Z" fill="black"/>
<path d="M669.097 8H665.227V40.12H669.097V8Z" fill="black"/>
<path d="M676.839 8H672.968V40.12H676.839V8Z" fill="black"/>
<path d="M688.451 8H682.645V40.12H688.451V8Z" fill="black"/>
<path d="M692.322 8H690.387V40.12H692.322V8Z" fill="black"/>
<path d="M698.128 8H694.257V40.12H698.128V8Z" fill="black"/>
<path d="M8.17519 8H1.99194L1.99194 40.12H8.17519L8.17519 8Z" fill="black"/>
<path d="M14.3578 8H10.2356L10.2356 40.12H14.3578L14.3578 8Z" fill="black"/>
<path d="M21.5718 8H19.5107L19.5107 40.12H21.5718V8Z" fill="black"/>
<path d="M25.6941 8H23.6331L23.6331 40.12H25.6941V8Z" fill="black"/>
<path d="M34.9691 8H31.8774L31.8774 40.12H34.9691V8Z" fill="black"/>
<path d="M43.0626 8H41.1272V40.12H43.0626V8Z" fill="black"/>
<path d="M48.8691 8H44.9983V40.12H48.8691V8Z" fill="black"/>
<path d="M60.4813 8H54.675V40.12H60.4813V8Z" fill="black"/>
<path d="M64.3517 8H62.4163V40.12H64.3517V8Z" fill="black"/>
<path d="M74.0285 8H70.1577V40.12H74.0285V8Z" fill="black"/>
<path d="M77.8998 8H75.9644V40.12H77.8998V8Z" fill="black"/>
<path d="M87.5771 8H83.7063V40.12H87.5771V8Z" fill="black"/>
<path d="M95.3187 8H93.3833V40.12H95.3187V8Z" fill="black"/>
<path d="M103.061 8H97.2544V40.12H103.061V8Z" fill="black"/>
<path d="M106.931 8H104.996V40.12H106.931V8Z" fill="black"/>
<path d="M116.608 8H112.737V40.12H116.608V8Z" fill="black"/>
<path d="M124.35 8H118.543V40.12H124.35V8Z" fill="black"/>
<path d="M128.221 8H126.286V40.12H128.221V8Z" fill="black"/>
<path d="M132.09 8H130.155V40.12H132.09V8Z" fill="black"/>
<path d="M141.768 8H137.897V40.12H141.768V8Z" fill="black"/>
<path d="M149.51 8H147.575V40.12H149.51V8Z" fill="black"/>
<path d="M157.251 8H155.316V40.12H157.251V8Z" fill="black"/>
<path d="M163.058 8H159.187V40.12H163.058V8Z" fill="black"/>
<path d="M170.799 8H168.864V40.12H170.799V8Z" fill="black"/>
<path d="M180.476 8H178.541V40.12H180.476V8Z" fill="black"/>
<path d="M186.283 8H182.413V40.12H186.283V8Z" fill="black"/>
<path d="M194.025 8H190.154V40.12H194.025V8Z" fill="black"/>
<path d="M205.637 8H199.831V40.12H205.637V8Z" fill="black"/>
<path d="M209.508 8H207.573V40.12H209.508V8Z" fill="black"/>
<path d="M215.314 8H211.443V40.12H215.314V8Z" fill="black"/>
<path d="M1429.3 8.04224H1423.12V40.1622H1429.3V8.04224Z" fill="black"/>
<path d="M1435.48 8.04224H1431.36V40.1622H1435.48V8.04224Z" fill="black"/>
<path d="M1442.7 8.04224H1440.64V40.1622H1442.7V8.04224Z" fill="black"/>
<path d="M1446.82 8.04224H1444.76V40.1622H1446.82V8.04224Z" fill="black"/>
<path d="M1456.1 8.04224H1453V40.1622H1456.1V8.04224Z" fill="black"/>
<path d="M1464.19 8.04224H1462.25V40.1622H1464.19V8.04224Z" fill="black"/>
<path d="M1470 8.04224H1466.13V40.1622H1470V8.04224Z" fill="black"/>
<path d="M1481.61 8.04224H1475.8V40.1622H1481.61V8.04224Z" fill="black"/>
<path d="M1485.48 8.04224H1483.54V40.1622H1485.48V8.04224Z" fill="black"/>
<path d="M1490.11 8.11206H1488.17V40.232H1490.11V8.11206Z" fill="black"/>
<path d="M261.534 17.6793V13.6572L246 7L230.259 13.6572V24.822L246 31.3405L261.534 24.822V33.9757L246 40.4942L230.259 33.9757L234.281 32.1727" stroke="black" stroke-width="2"/>
<path d="M246.111 40.3621V15.6748" stroke="black" stroke-width="2"/>
<path d="M236.638 15.807L255.154 15.807" stroke="black" stroke-width="2"/>
<circle r="0.706495" transform="matrix(-1 0 0 1 261.552 19.7242)" fill="black"/>
<path d="M743.534 17.6793V13.6572L728 7L712.259 13.6572V24.822L728 31.3405L743.534 24.822V33.9757L728 40.4942L712.259 33.9757L716.281 32.1727" stroke="black" stroke-width="2"/>
<path d="M728.111 40.3621V15.6748" stroke="black" stroke-width="2"/>
<path d="M718.638 15.807L737.154 15.807" stroke="black" stroke-width="2"/>
<circle r="0.706495" transform="matrix(-1 0 0 1 743.552 19.7242)" fill="black"/>
<path d="M1225.53 17.6793V13.6572L1210 7L1194.26 13.6572V24.822L1210 31.3405L1225.53 24.822V33.9757L1210 40.4942L1194.26 33.9757L1198.28 32.1727" stroke="black" stroke-width="2"/>
<path d="M1210.11 40.3621V15.6748" stroke="black" stroke-width="2"/>
<path d="M1200.64 15.807L1219.15 15.807" stroke="black" stroke-width="2"/>
<circle r="0.706495" transform="matrix(-1 0 0 1 1225.55 19.7242)" fill="black"/>
<path d="M290.36 32.3634C290.911 32.3634 291.427 32.2345 291.919 31.9767C292.399 31.7306 292.762 31.4025 292.997 31.0157L292.833 25.3087C292.329 26.5157 291.602 27.2423 290.29 27.2423C289.317 27.2423 288.837 26.4572 288.18 25.672C287.934 25.4025 287.7 25.1447 287.454 24.9103C286.973 24.4532 286.153 24.1017 285.18 24.1017H285.134V23.9611H285.438C288.848 24.0079 291.555 22.1798 291.52 19.4962C291.532 16.7775 288.778 15.1486 285.321 15.1954H275.77C276.04 16.4025 276.18 18.09 276.18 20.2345V26.9611C276.18 29.0822 276.04 30.7697 275.77 32.0001H281.032C280.739 30.7931 280.598 29.1173 280.598 26.9611V25.1564C280.774 25.0626 281.302 25.0157 282.18 25.0157C284.466 25.0157 285.274 26.4572 285.907 28.0861C286.68 30.09 287.313 32.3634 290.36 32.3634ZM280.598 19.379H284.559C285.286 19.379 285.884 19.5431 286.352 19.8712C286.821 20.1993 287.055 20.6212 287.055 21.1251C287.055 22.215 285.989 22.9064 284.36 22.9064H280.598V19.379ZM301.505 32.34C302.618 32.34 303.743 32.2345 304.891 32.0118C306.04 31.7892 306.907 31.5197 307.505 31.1798L307.434 27.922C307.001 28.3907 306.333 28.7657 305.43 29.047C304.528 29.34 303.579 29.4806 302.594 29.4806C299.899 29.5275 297.485 27.9689 297.427 26.0704L297.602 25.9767C298.88 26.8556 300.567 27.3009 302.665 27.3009C306.052 27.3009 307.798 26.2462 307.798 23.9376C307.798 22.8009 307.282 21.7814 306.251 20.9728C305.208 20.1642 303.403 19.6603 301.106 19.6603C298.762 19.6603 296.794 20.3634 295.54 21.5118C294.286 22.6603 293.594 24.2306 293.594 26.0001C293.594 27.8868 294.309 29.4103 295.751 30.5822C297.192 31.754 299.102 32.34 301.505 32.34ZM301.059 25.7657C299.594 25.7657 298.434 25.4493 297.555 24.8282C297.696 24.0665 298.071 23.4689 298.692 23.0353C299.313 22.6134 300.028 22.4025 300.837 22.4025C301.716 22.4025 302.419 22.5665 302.969 22.8947C303.52 23.2345 303.79 23.6681 303.79 24.1954C303.79 25.2618 302.407 25.7657 301.059 25.7657ZM317.407 32.34C318.216 32.34 319.13 32.2697 320.137 32.1173C321.145 31.9532 321.919 31.7775 322.446 31.5665V28.1798C321.907 28.5197 321.251 28.8009 320.489 29.0118C319.716 29.2345 318.977 29.34 318.262 29.34C316.798 29.34 315.637 29.0353 314.794 28.4376C313.938 27.84 313.516 27.0197 313.516 26.0001C313.516 24.9806 313.927 24.172 314.747 23.5743C315.567 22.9767 316.657 22.6837 318.005 22.6837C318.719 22.6837 319.423 22.7775 320.126 22.965C320.829 23.1642 321.38 23.3986 321.79 23.6681L321.989 20.4337C321.509 20.2111 320.794 20.0353 319.844 19.8829C318.895 19.7306 318.098 19.6603 317.454 19.6603C314.77 19.6603 312.637 20.3517 311.348 21.5118C310.059 22.6837 309.391 24.2189 309.391 26.0001C309.391 27.7814 310.048 29.3165 311.325 30.4767C312.591 31.6486 314.723 32.34 317.407 32.34ZM329.77 32.0001C329.466 31.2384 329.313 30.172 329.313 28.8126V26.8907C329.313 25.8126 329.7 24.8986 330.462 24.1603C331.223 23.422 332.126 23.047 333.157 23.047C333.661 23.047 334.165 23.1407 334.645 23.3165C335.126 23.4923 335.501 23.715 335.77 23.9611V20.0001C335.161 19.7775 334.54 19.6603 333.907 19.6603C331.692 19.6603 330.11 21.1954 329.583 23.8673H329.313V22.9767C329.313 22.4611 329.372 21.922 329.501 21.3478C329.63 20.7853 329.794 20.34 329.993 20.0001H324.544C324.813 21.2306 324.954 22.7189 324.954 24.465V27.9689C324.954 29.4454 324.813 30.7931 324.544 32.0001H329.77ZM343.446 32.34C345.848 32.34 347.477 31.2267 348.344 29.0001H348.614V29.4806C348.614 30.5001 348.45 31.3322 348.11 32.0001H353.407C353.114 30.6759 352.962 29.1876 352.962 27.5353V24.0314C352.962 22.6603 353.114 21.3243 353.407 20.0001H348.18C348.321 20.4103 348.427 21.0431 348.509 21.9103C348.579 22.7775 348.614 23.5509 348.614 24.2189V26.0001C348.614 26.879 348.309 27.6407 347.688 28.297C347.067 28.965 346.282 29.2931 345.344 29.2931C343.469 29.2931 342.391 28.1212 342.391 26.1876V24.2775C342.391 22.672 342.544 21.2423 342.848 20.0001H337.622C337.891 21.2072 338.032 22.7775 338.032 24.6993V26.9376C338.032 28.6368 338.501 29.9611 339.45 30.9103C340.387 31.8595 341.723 32.34 343.446 32.34ZM358.634 18.6993C359.372 18.6993 359.946 18.5001 360.38 18.09C360.813 17.6915 361.024 17.1876 361.024 16.5665C361.024 15.9454 360.813 15.4298 360.38 15.0197C359.946 14.6095 359.372 14.4103 358.634 14.4103C357.919 14.4103 357.344 14.6095 356.911 15.0197C356.477 15.4298 356.255 15.9454 356.255 16.5665C356.255 17.1759 356.477 17.6798 356.911 18.09C357.344 18.5001 357.919 18.6993 358.634 18.6993ZM361.294 32.0001C360.989 30.8282 360.837 29.1525 360.837 26.9611V22.4493C360.837 21.4298 360.895 20.6212 361.001 20.0001C360.485 20.3634 359.723 20.5392 358.704 20.5392C357.684 20.5392 356.887 20.3634 356.302 20.0001C356.407 20.4923 356.466 21.3126 356.466 22.4493V26.9611C356.466 29.1525 356.313 30.8282 356.009 32.0001H361.294ZM370.786 32.34C371.805 32.34 372.942 32.0587 373.61 31.6837V28.2853C373.223 28.6017 372.473 28.8361 371.712 28.8361C370.177 28.8361 369.251 28.0157 369.251 26.3634V21.8517H373.493V20.0001H369.251V15.1954L365.184 16.2853V20.0001H362.77V21.8517H365.184V27.8751C365.184 31.2618 367.68 32.34 370.786 32.34ZM380.7 32.0001C380.548 31.59 380.442 30.9572 380.36 30.1017C380.278 29.2462 380.243 28.4728 380.243 27.7814V26.0001C380.243 25.0978 380.524 24.3243 381.087 23.6798C381.649 23.0353 382.399 22.7072 383.348 22.7072C385.13 22.7072 385.985 23.9142 385.985 25.8361V27.7228C385.985 29.5743 385.891 31.004 385.692 32.0001H390.778C390.485 30.6759 390.333 29.1993 390.333 27.5587V25.9064C390.344 25.0743 390.649 24.3243 391.223 23.6798C391.798 23.0353 392.524 22.7072 393.403 22.7072C395.196 22.7072 396.063 23.9142 396.063 25.8361V27.7228C396.063 29.2228 395.911 30.6525 395.606 32.0001H400.844C400.552 30.7228 400.411 29.1525 400.411 27.3009V25.0861C400.411 21.6642 398.782 19.6603 395.395 19.6603C392.899 19.6603 391.083 20.9142 390.274 23.0236H390.04C389.395 20.7853 387.837 19.6603 385.341 19.6603C382.985 19.6603 381.38 20.7853 380.512 23.0236H380.243V22.5431C380.243 21.5236 380.419 20.6681 380.77 20.0001H375.473C375.766 21.2775 375.907 22.7657 375.907 24.465V27.9689C375.907 29.3751 375.766 30.7228 375.473 32.0001H380.7ZM410.864 32.34C411.977 32.34 413.102 32.2345 414.251 32.0118C415.399 31.7892 416.266 31.5197 416.864 31.1798L416.794 27.922C416.36 28.3907 415.692 28.7657 414.79 29.047C413.887 29.34 412.938 29.4806 411.954 29.4806C409.259 29.5275 406.844 27.9689 406.786 26.0704L406.962 25.9767C408.239 26.8556 409.927 27.3009 412.024 27.3009C415.411 27.3009 417.157 26.2462 417.157 23.9376C417.157 22.8009 416.641 21.7814 415.61 20.9728C414.567 20.1642 412.762 19.6603 410.466 19.6603C408.122 19.6603 406.153 20.3634 404.899 21.5118C403.645 22.6603 402.954 24.2306 402.954 26.0001C402.954 27.8868 403.669 29.4103 405.11 30.5822C406.552 31.754 408.462 32.34 410.864 32.34ZM410.419 25.7657C408.954 25.7657 407.794 25.4493 406.915 24.8282C407.055 24.0665 407.43 23.4689 408.052 23.0353C408.673 22.6134 409.387 22.4025 410.196 22.4025C411.075 22.4025 411.778 22.5665 412.329 22.8947C412.88 23.2345 413.149 23.6681 413.149 24.1954C413.149 25.2618 411.766 25.7657 410.419 25.7657ZM424.598 32.0001C424.446 31.59 424.341 30.9572 424.259 30.1017C424.177 29.2462 424.141 28.4728 424.141 27.7814V26.0001C424.141 25.1212 424.458 24.3595 425.079 23.6915C425.7 23.0353 426.485 22.7072 427.434 22.7072C429.298 22.7072 430.387 23.9025 430.387 25.8361V27.7228C430.387 29.2228 430.235 30.6525 429.93 32.0001H435.157C434.876 30.7462 434.735 29.1876 434.735 27.3009V25.0861C434.735 23.3868 434.266 22.0626 433.329 21.1017C432.38 20.1407 431.055 19.6603 429.333 19.6603C426.919 19.6603 425.278 20.7853 424.411 23.0236H424.141V22.5431C424.141 21.5236 424.317 20.6681 424.669 20.0001H419.372C419.665 21.2775 419.805 22.7657 419.805 24.465V27.9689C419.805 29.3751 419.665 30.7228 419.372 32.0001H424.598ZM444.169 32.34C445.188 32.34 446.325 32.0587 446.993 31.6837V28.2853C446.606 28.6017 445.856 28.8361 445.094 28.8361C443.559 28.8361 442.634 28.0157 442.634 26.3634V21.8517H446.876V20.0001H442.634V15.1954L438.567 16.2853V20.0001H436.153V21.8517H438.567V27.8751C438.567 31.2618 441.063 32.34 444.169 32.34Z" fill="black"/>
<path d="M772.36 32.3633C772.911 32.3633 773.427 32.2344 773.919 31.9766C774.399 31.7305 774.762 31.4023 774.997 31.0156L774.833 25.3086C774.329 26.5156 773.602 27.2422 772.29 27.2422C771.317 27.2422 770.837 26.457 770.18 25.6719C769.934 25.4023 769.7 25.1445 769.454 24.9102C768.973 24.4531 768.153 24.1016 767.18 24.1016H767.134V23.9609H767.438C770.848 24.0078 773.555 22.1797 773.52 19.4961C773.532 16.7773 770.778 15.1484 767.321 15.1953H757.77C758.04 16.4023 758.18 18.0898 758.18 20.2344V26.9609C758.18 29.082 758.04 30.7695 757.77 32H763.032C762.739 30.793 762.598 29.1172 762.598 26.9609V25.1562C762.774 25.0625 763.302 25.0156 764.18 25.0156C766.466 25.0156 767.274 26.457 767.907 28.0859C768.68 30.0898 769.313 32.3633 772.36 32.3633ZM762.598 19.3789H766.559C767.286 19.3789 767.884 19.543 768.352 19.8711C768.821 20.1992 769.055 20.6211 769.055 21.125C769.055 22.2148 767.989 22.9062 766.36 22.9062H762.598V19.3789ZM783.505 32.3398C784.618 32.3398 785.743 32.2344 786.891 32.0117C788.04 31.7891 788.907 31.5195 789.505 31.1797L789.434 27.9219C789.001 28.3906 788.333 28.7656 787.43 29.0469C786.528 29.3398 785.579 29.4805 784.594 29.4805C781.899 29.5273 779.485 27.9688 779.427 26.0703L779.602 25.9766C780.88 26.8555 782.567 27.3008 784.665 27.3008C788.052 27.3008 789.798 26.2461 789.798 23.9375C789.798 22.8008 789.282 21.7812 788.251 20.9727C787.208 20.1641 785.403 19.6602 783.106 19.6602C780.762 19.6602 778.794 20.3633 777.54 21.5117C776.286 22.6602 775.594 24.2305 775.594 26C775.594 27.8867 776.309 29.4102 777.751 30.582C779.192 31.7539 781.102 32.3398 783.505 32.3398ZM783.059 25.7656C781.594 25.7656 780.434 25.4492 779.555 24.8281C779.696 24.0664 780.071 23.4688 780.692 23.0352C781.313 22.6133 782.028 22.4023 782.837 22.4023C783.716 22.4023 784.419 22.5664 784.969 22.8945C785.52 23.2344 785.79 23.668 785.79 24.1953C785.79 25.2617 784.407 25.7656 783.059 25.7656ZM799.407 32.3398C800.216 32.3398 801.13 32.2695 802.137 32.1172C803.145 31.9531 803.919 31.7773 804.446 31.5664V28.1797C803.907 28.5195 803.251 28.8008 802.489 29.0117C801.716 29.2344 800.977 29.3398 800.262 29.3398C798.798 29.3398 797.637 29.0352 796.794 28.4375C795.938 27.8398 795.516 27.0195 795.516 26C795.516 24.9805 795.927 24.1719 796.747 23.5742C797.567 22.9766 798.657 22.6836 800.005 22.6836C800.719 22.6836 801.423 22.7773 802.126 22.9648C802.829 23.1641 803.38 23.3984 803.79 23.668L803.989 20.4336C803.509 20.2109 802.794 20.0352 801.844 19.8828C800.895 19.7305 800.098 19.6602 799.454 19.6602C796.77 19.6602 794.637 20.3516 793.348 21.5117C792.059 22.6836 791.391 24.2188 791.391 26C791.391 27.7812 792.048 29.3164 793.325 30.4766C794.591 31.6484 796.723 32.3398 799.407 32.3398ZM811.77 32C811.466 31.2383 811.313 30.1719 811.313 28.8125V26.8906C811.313 25.8125 811.7 24.8984 812.462 24.1602C813.223 23.4219 814.126 23.0469 815.157 23.0469C815.661 23.0469 816.165 23.1406 816.645 23.3164C817.126 23.4922 817.501 23.7148 817.77 23.9609V20C817.161 19.7773 816.54 19.6602 815.907 19.6602C813.692 19.6602 812.11 21.1953 811.583 23.8672H811.313V22.9766C811.313 22.4609 811.372 21.9219 811.501 21.3477C811.63 20.7852 811.794 20.3398 811.993 20H806.544C806.813 21.2305 806.954 22.7188 806.954 24.4648V27.9688C806.954 29.4453 806.813 30.793 806.544 32H811.77ZM825.446 32.3398C827.848 32.3398 829.477 31.2266 830.344 29H830.614V29.4805C830.614 30.5 830.45 31.332 830.11 32H835.407C835.114 30.6758 834.962 29.1875 834.962 27.5352V24.0312C834.962 22.6602 835.114 21.3242 835.407 20H830.18C830.321 20.4102 830.427 21.043 830.509 21.9102C830.579 22.7773 830.614 23.5508 830.614 24.2188V26C830.614 26.8789 830.309 27.6406 829.688 28.2969C829.067 28.9648 828.282 29.293 827.344 29.293C825.469 29.293 824.391 28.1211 824.391 26.1875V24.2773C824.391 22.6719 824.544 21.2422 824.848 20H819.622C819.891 21.207 820.032 22.7773 820.032 24.6992V26.9375C820.032 28.6367 820.501 29.9609 821.45 30.9102C822.387 31.8594 823.723 32.3398 825.446 32.3398ZM840.634 18.6992C841.372 18.6992 841.946 18.5 842.38 18.0898C842.813 17.6914 843.024 17.1875 843.024 16.5664C843.024 15.9453 842.813 15.4297 842.38 15.0195C841.946 14.6094 841.372 14.4102 840.634 14.4102C839.919 14.4102 839.344 14.6094 838.911 15.0195C838.477 15.4297 838.255 15.9453 838.255 16.5664C838.255 17.1758 838.477 17.6797 838.911 18.0898C839.344 18.5 839.919 18.6992 840.634 18.6992ZM843.294 32C842.989 30.8281 842.837 29.1523 842.837 26.9609V22.4492C842.837 21.4297 842.895 20.6211 843.001 20C842.485 20.3633 841.723 20.5391 840.704 20.5391C839.684 20.5391 838.887 20.3633 838.302 20C838.407 20.4922 838.466 21.3125 838.466 22.4492V26.9609C838.466 29.1523 838.313 30.8281 838.009 32H843.294ZM852.786 32.3398C853.805 32.3398 854.942 32.0586 855.61 31.6836V28.2852C855.223 28.6016 854.473 28.8359 853.712 28.8359C852.177 28.8359 851.251 28.0156 851.251 26.3633V21.8516H855.493V20H851.251V15.1953L847.184 16.2852V20H844.77V21.8516H847.184V27.875C847.184 31.2617 849.68 32.3398 852.786 32.3398ZM862.7 32C862.548 31.5898 862.442 30.957 862.36 30.1016C862.278 29.2461 862.243 28.4727 862.243 27.7812V26C862.243 25.0977 862.524 24.3242 863.087 23.6797C863.649 23.0352 864.399 22.707 865.348 22.707C867.13 22.707 867.985 23.9141 867.985 25.8359V27.7227C867.985 29.5742 867.891 31.0039 867.692 32H872.778C872.485 30.6758 872.333 29.1992 872.333 27.5586V25.9062C872.344 25.0742 872.649 24.3242 873.223 23.6797C873.798 23.0352 874.524 22.707 875.403 22.707C877.196 22.707 878.063 23.9141 878.063 25.8359V27.7227C878.063 29.2227 877.911 30.6523 877.606 32H882.844C882.552 30.7227 882.411 29.1523 882.411 27.3008V25.0859C882.411 21.6641 880.782 19.6602 877.395 19.6602C874.899 19.6602 873.083 20.9141 872.274 23.0234H872.04C871.395 20.7852 869.837 19.6602 867.341 19.6602C864.985 19.6602 863.38 20.7852 862.512 23.0234H862.243V22.543C862.243 21.5234 862.419 20.668 862.77 20H857.473C857.766 21.2773 857.907 22.7656 857.907 24.4648V27.9688C857.907 29.375 857.766 30.7227 857.473 32H862.7ZM892.864 32.3398C893.977 32.3398 895.102 32.2344 896.251 32.0117C897.399 31.7891 898.266 31.5195 898.864 31.1797L898.794 27.9219C898.36 28.3906 897.692 28.7656 896.79 29.0469C895.887 29.3398 894.938 29.4805 893.954 29.4805C891.259 29.5273 888.844 27.9688 888.786 26.0703L888.962 25.9766C890.239 26.8555 891.927 27.3008 894.024 27.3008C897.411 27.3008 899.157 26.2461 899.157 23.9375C899.157 22.8008 898.641 21.7812 897.61 20.9727C896.567 20.1641 894.762 19.6602 892.466 19.6602C890.122 19.6602 888.153 20.3633 886.899 21.5117C885.645 22.6602 884.954 24.2305 884.954 26C884.954 27.8867 885.669 29.4102 887.11 30.582C888.552 31.7539 890.462 32.3398 892.864 32.3398ZM892.419 25.7656C890.954 25.7656 889.794 25.4492 888.915 24.8281C889.055 24.0664 889.43 23.4688 890.052 23.0352C890.673 22.6133 891.387 22.4023 892.196 22.4023C893.075 22.4023 893.778 22.5664 894.329 22.8945C894.88 23.2344 895.149 23.668 895.149 24.1953C895.149 25.2617 893.766 25.7656 892.419 25.7656ZM906.598 32C906.446 31.5898 906.341 30.957 906.259 30.1016C906.177 29.2461 906.141 28.4727 906.141 27.7812V26C906.141 25.1211 906.458 24.3594 907.079 23.6914C907.7 23.0352 908.485 22.707 909.434 22.707C911.298 22.707 912.387 23.9023 912.387 25.8359V27.7227C912.387 29.2227 912.235 30.6523 911.93 32H917.157C916.876 30.7461 916.735 29.1875 916.735 27.3008V25.0859C916.735 23.3867 916.266 22.0625 915.329 21.1016C914.38 20.1406 913.055 19.6602 911.333 19.6602C908.919 19.6602 907.278 20.7852 906.411 23.0234H906.141V22.543C906.141 21.5234 906.317 20.668 906.669 20H901.372C901.665 21.2773 901.805 22.7656 901.805 24.4648V27.9688C901.805 29.375 901.665 30.7227 901.372 32H906.598ZM926.169 32.3398C927.188 32.3398 928.325 32.0586 928.993 31.6836V28.2852C928.606 28.6016 927.856 28.8359 927.094 28.8359C925.559 28.8359 924.634 28.0156 924.634 26.3633V21.8516H928.876V20H924.634V15.1953L920.567 16.2852V20H918.153V21.8516H920.567V27.875C920.567 31.2617 923.063 32.3398 926.169 32.3398Z" fill="black"/>
<path d="M1254.36 32.3633C1254.91 32.3633 1255.43 32.2344 1255.92 31.9766C1256.4 31.7305 1256.76 31.4023 1257 31.0156L1256.83 25.3086C1256.33 26.5156 1255.6 27.2422 1254.29 27.2422C1253.32 27.2422 1252.84 26.457 1252.18 25.6719C1251.93 25.4023 1251.7 25.1445 1251.45 24.9102C1250.97 24.4531 1250.15 24.1016 1249.18 24.1016H1249.13V23.9609H1249.44C1252.85 24.0078 1255.56 22.1797 1255.52 19.4961C1255.53 16.7773 1252.78 15.1484 1249.32 15.1953H1239.77C1240.04 16.4023 1240.18 18.0898 1240.18 20.2344V26.9609C1240.18 29.082 1240.04 30.7695 1239.77 32H1245.03C1244.74 30.793 1244.6 29.1172 1244.6 26.9609V25.1562C1244.77 25.0625 1245.3 25.0156 1246.18 25.0156C1248.47 25.0156 1249.27 26.457 1249.91 28.0859C1250.68 30.0898 1251.31 32.3633 1254.36 32.3633ZM1244.6 19.3789H1248.56C1249.29 19.3789 1249.88 19.543 1250.35 19.8711C1250.82 20.1992 1251.06 20.6211 1251.06 21.125C1251.06 22.2148 1249.99 22.9062 1248.36 22.9062H1244.6V19.3789ZM1265.5 32.3398C1266.62 32.3398 1267.74 32.2344 1268.89 32.0117C1270.04 31.7891 1270.91 31.5195 1271.5 31.1797L1271.43 27.9219C1271 28.3906 1270.33 28.7656 1269.43 29.0469C1268.53 29.3398 1267.58 29.4805 1266.59 29.4805C1263.9 29.5273 1261.48 27.9688 1261.43 26.0703L1261.6 25.9766C1262.88 26.8555 1264.57 27.3008 1266.66 27.3008C1270.05 27.3008 1271.8 26.2461 1271.8 23.9375C1271.8 22.8008 1271.28 21.7812 1270.25 20.9727C1269.21 20.1641 1267.4 19.6602 1265.11 19.6602C1262.76 19.6602 1260.79 20.3633 1259.54 21.5117C1258.29 22.6602 1257.59 24.2305 1257.59 26C1257.59 27.8867 1258.31 29.4102 1259.75 30.582C1261.19 31.7539 1263.1 32.3398 1265.5 32.3398ZM1265.06 25.7656C1263.59 25.7656 1262.43 25.4492 1261.56 24.8281C1261.7 24.0664 1262.07 23.4688 1262.69 23.0352C1263.31 22.6133 1264.03 22.4023 1264.84 22.4023C1265.72 22.4023 1266.42 22.5664 1266.97 22.8945C1267.52 23.2344 1267.79 23.668 1267.79 24.1953C1267.79 25.2617 1266.41 25.7656 1265.06 25.7656ZM1281.41 32.3398C1282.22 32.3398 1283.13 32.2695 1284.14 32.1172C1285.15 31.9531 1285.92 31.7773 1286.45 31.5664V28.1797C1285.91 28.5195 1285.25 28.8008 1284.49 29.0117C1283.72 29.2344 1282.98 29.3398 1282.26 29.3398C1280.8 29.3398 1279.64 29.0352 1278.79 28.4375C1277.94 27.8398 1277.52 27.0195 1277.52 26C1277.52 24.9805 1277.93 24.1719 1278.75 23.5742C1279.57 22.9766 1280.66 22.6836 1282 22.6836C1282.72 22.6836 1283.42 22.7773 1284.13 22.9648C1284.83 23.1641 1285.38 23.3984 1285.79 23.668L1285.99 20.4336C1285.51 20.2109 1284.79 20.0352 1283.84 19.8828C1282.9 19.7305 1282.1 19.6602 1281.45 19.6602C1278.77 19.6602 1276.64 20.3516 1275.35 21.5117C1274.06 22.6836 1273.39 24.2188 1273.39 26C1273.39 27.7812 1274.05 29.3164 1275.32 30.4766C1276.59 31.6484 1278.72 32.3398 1281.41 32.3398ZM1293.77 32C1293.47 31.2383 1293.31 30.1719 1293.31 28.8125V26.8906C1293.31 25.8125 1293.7 24.8984 1294.46 24.1602C1295.22 23.4219 1296.13 23.0469 1297.16 23.0469C1297.66 23.0469 1298.16 23.1406 1298.65 23.3164C1299.13 23.4922 1299.5 23.7148 1299.77 23.9609V20C1299.16 19.7773 1298.54 19.6602 1297.91 19.6602C1295.69 19.6602 1294.11 21.1953 1293.58 23.8672H1293.31V22.9766C1293.31 22.4609 1293.37 21.9219 1293.5 21.3477C1293.63 20.7852 1293.79 20.3398 1293.99 20H1288.54C1288.81 21.2305 1288.95 22.7188 1288.95 24.4648V27.9688C1288.95 29.4453 1288.81 30.793 1288.54 32H1293.77ZM1307.45 32.3398C1309.85 32.3398 1311.48 31.2266 1312.34 29H1312.61V29.4805C1312.61 30.5 1312.45 31.332 1312.11 32H1317.41C1317.11 30.6758 1316.96 29.1875 1316.96 27.5352V24.0312C1316.96 22.6602 1317.11 21.3242 1317.41 20H1312.18C1312.32 20.4102 1312.43 21.043 1312.51 21.9102C1312.58 22.7773 1312.61 23.5508 1312.61 24.2188V26C1312.61 26.8789 1312.31 27.6406 1311.69 28.2969C1311.07 28.9648 1310.28 29.293 1309.34 29.293C1307.47 29.293 1306.39 28.1211 1306.39 26.1875V24.2773C1306.39 22.6719 1306.54 21.2422 1306.85 20H1301.62C1301.89 21.207 1302.03 22.7773 1302.03 24.6992V26.9375C1302.03 28.6367 1302.5 29.9609 1303.45 30.9102C1304.39 31.8594 1305.72 32.3398 1307.45 32.3398ZM1322.63 18.6992C1323.37 18.6992 1323.95 18.5 1324.38 18.0898C1324.81 17.6914 1325.02 17.1875 1325.02 16.5664C1325.02 15.9453 1324.81 15.4297 1324.38 15.0195C1323.95 14.6094 1323.37 14.4102 1322.63 14.4102C1321.92 14.4102 1321.34 14.6094 1320.91 15.0195C1320.48 15.4297 1320.25 15.9453 1320.25 16.5664C1320.25 17.1758 1320.48 17.6797 1320.91 18.0898C1321.34 18.5 1321.92 18.6992 1322.63 18.6992ZM1325.29 32C1324.99 30.8281 1324.84 29.1523 1324.84 26.9609V22.4492C1324.84 21.4297 1324.9 20.6211 1325 20C1324.48 20.3633 1323.72 20.5391 1322.7 20.5391C1321.68 20.5391 1320.89 20.3633 1320.3 20C1320.41 20.4922 1320.47 21.3125 1320.47 22.4492V26.9609C1320.47 29.1523 1320.31 30.8281 1320.01 32H1325.29ZM1334.79 32.3398C1335.81 32.3398 1336.94 32.0586 1337.61 31.6836V28.2852C1337.22 28.6016 1336.47 28.8359 1335.71 28.8359C1334.18 28.8359 1333.25 28.0156 1333.25 26.3633V21.8516H1337.49V20H1333.25V15.1953L1329.18 16.2852V20H1326.77V21.8516H1329.18V27.875C1329.18 31.2617 1331.68 32.3398 1334.79 32.3398ZM1344.7 32C1344.55 31.5898 1344.44 30.957 1344.36 30.1016C1344.28 29.2461 1344.24 28.4727 1344.24 27.7812V26C1344.24 25.0977 1344.52 24.3242 1345.09 23.6797C1345.65 23.0352 1346.4 22.707 1347.35 22.707C1349.13 22.707 1349.98 23.9141 1349.98 25.8359V27.7227C1349.98 29.5742 1349.89 31.0039 1349.69 32H1354.78C1354.48 30.6758 1354.33 29.1992 1354.33 27.5586V25.9062C1354.34 25.0742 1354.65 24.3242 1355.22 23.6797C1355.8 23.0352 1356.52 22.707 1357.4 22.707C1359.2 22.707 1360.06 23.9141 1360.06 25.8359V27.7227C1360.06 29.2227 1359.91 30.6523 1359.61 32H1364.84C1364.55 30.7227 1364.41 29.1523 1364.41 27.3008V25.0859C1364.41 21.6641 1362.78 19.6602 1359.4 19.6602C1356.9 19.6602 1355.08 20.9141 1354.27 23.0234H1354.04C1353.4 20.7852 1351.84 19.6602 1349.34 19.6602C1346.98 19.6602 1345.38 20.7852 1344.51 23.0234H1344.24V22.543C1344.24 21.5234 1344.42 20.668 1344.77 20H1339.47C1339.77 21.2773 1339.91 22.7656 1339.91 24.4648V27.9688C1339.91 29.375 1339.77 30.7227 1339.47 32H1344.7ZM1374.86 32.3398C1375.98 32.3398 1377.1 32.2344 1378.25 32.0117C1379.4 31.7891 1380.27 31.5195 1380.86 31.1797L1380.79 27.9219C1380.36 28.3906 1379.69 28.7656 1378.79 29.0469C1377.89 29.3398 1376.94 29.4805 1375.95 29.4805C1373.26 29.5273 1370.84 27.9688 1370.79 26.0703L1370.96 25.9766C1372.24 26.8555 1373.93 27.3008 1376.02 27.3008C1379.41 27.3008 1381.16 26.2461 1381.16 23.9375C1381.16 22.8008 1380.64 21.7812 1379.61 20.9727C1378.57 20.1641 1376.76 19.6602 1374.47 19.6602C1372.12 19.6602 1370.15 20.3633 1368.9 21.5117C1367.65 22.6602 1366.95 24.2305 1366.95 26C1366.95 27.8867 1367.67 29.4102 1369.11 30.582C1370.55 31.7539 1372.46 32.3398 1374.86 32.3398ZM1374.42 25.7656C1372.95 25.7656 1371.79 25.4492 1370.91 24.8281C1371.06 24.0664 1371.43 23.4688 1372.05 23.0352C1372.67 22.6133 1373.39 22.4023 1374.2 22.4023C1375.07 22.4023 1375.78 22.5664 1376.33 22.8945C1376.88 23.2344 1377.15 23.668 1377.15 24.1953C1377.15 25.2617 1375.77 25.7656 1374.42 25.7656ZM1388.6 32C1388.45 31.5898 1388.34 30.957 1388.26 30.1016C1388.18 29.2461 1388.14 28.4727 1388.14 27.7812V26C1388.14 25.1211 1388.46 24.3594 1389.08 23.6914C1389.7 23.0352 1390.48 22.707 1391.43 22.707C1393.3 22.707 1394.39 23.9023 1394.39 25.8359V27.7227C1394.39 29.2227 1394.23 30.6523 1393.93 32H1399.16C1398.88 30.7461 1398.73 29.1875 1398.73 27.3008V25.0859C1398.73 23.3867 1398.27 22.0625 1397.33 21.1016C1396.38 20.1406 1395.06 19.6602 1393.33 19.6602C1390.92 19.6602 1389.28 20.7852 1388.41 23.0234H1388.14V22.543C1388.14 21.5234 1388.32 20.668 1388.67 20H1383.37C1383.66 21.2773 1383.81 22.7656 1383.81 24.4648V27.9688C1383.81 29.375 1383.66 30.7227 1383.37 32H1388.6ZM1408.17 32.3398C1409.19 32.3398 1410.32 32.0586 1410.99 31.6836V28.2852C1410.61 28.6016 1409.86 28.8359 1409.09 28.8359C1407.56 28.8359 1406.63 28.0156 1406.63 26.3633V21.8516H1410.88V20H1406.63V15.1953L1402.57 16.2852V20H1400.15V21.8516H1402.57V27.875C1402.57 31.2617 1405.06 32.3398 1408.17 32.3398Z" fill="black"/>
</svg>
