<svg width="1235" height="147" viewBox="0 0 1235 147" fill="none" xmlns="http://www.w3.org/2000/svg">
<path d="M95.8047 143C92.7773 129.621 91.2148 112.727 91.2148 92.4141V48.957H108.598C118.949 48.957 127.934 51.2031 135.648 55.5977L128.031 2.96094H7.62109L0.00390625 55.5977C7.52344 51.2031 16.5078 48.957 26.957 48.957H45.6094V92.4141C45.6094 112.727 44.0469 129.621 41.0195 143H95.8047ZM210.633 145.832C220.496 145.832 230.457 144.953 240.418 143.293C250.379 141.535 257.996 139.289 263.367 136.555L262.586 103.645C258.875 107.746 253.309 110.969 245.887 113.312C238.465 115.656 230.652 116.828 222.547 116.828C212 116.828 202.82 114.484 195.008 109.895C187.098 105.305 182.801 99.9336 182.02 93.7812L183.582 92.8047C194.227 100.91 207.41 103.645 224.598 103.645C250.672 103.645 265.613 94.4648 265.613 76.0078C265.613 68.4883 263.27 61.75 257.508 55.5C249.305 46.5156 232.996 40.2656 207.605 40.168C186.609 40.168 169.324 46.125 158.777 55.793C148.133 65.5586 142.371 78.4492 142.371 93C142.371 108.82 148.523 121.613 160.926 131.281C173.328 140.949 189.832 145.832 210.633 145.832ZM207.215 92.2188C196.766 92.2188 188.855 89.6797 183.387 84.6016C184.266 79.0352 186.805 74.8359 190.809 71.9062C194.812 69.0742 199.5 67.6094 204.773 67.6094C216.59 67.6094 224.012 72.6875 224.012 80.5977C224.012 84.0156 222.352 86.75 219.031 88.8984C215.711 91.1445 211.805 92.2188 207.215 92.2188ZM332.199 145.832C351.828 145.832 364.914 138.312 370.383 126.594H372.629V128.352C372.629 134.797 371.555 139.68 369.406 143H420.383C418.527 138.02 417.355 132.062 416.672 125.129C415.988 118.195 415.598 108.332 415.598 95.6367V78.6445C415.598 52.9609 394.504 40.168 352.219 40.168C344.211 40.168 335.227 40.8516 325.363 42.3164C315.402 43.7812 308.176 45.3438 303.586 47.0039V75.6172C307.199 72.3945 312.473 69.7578 319.406 67.707C326.242 65.6562 333.664 64.582 341.574 64.582C350.461 64.582 357.883 66.5352 363.84 70.5391C369.699 74.543 372.629 80.3047 372.629 88.0195V96.8086H369.992C364.621 85.4805 351.633 77.7656 332.395 77.7656C319.406 77.7656 309.25 80.9883 302.023 87.5312C294.797 94.0742 291.184 102.18 291.184 111.848C291.184 118.098 292.746 123.762 295.773 128.742C301.828 138.898 314.914 145.832 332.199 145.832ZM352.805 123.371C341.086 123.371 333.762 118.098 333.762 110.969C333.762 103.547 340.988 98.5664 352.805 98.5664C358.566 98.5664 363.254 99.7383 366.77 102.18C370.285 104.621 372.043 107.551 372.043 110.969C372.043 118.488 364.621 123.371 352.805 123.371ZM507.672 143C506.012 139.094 504.84 132.746 504.059 123.957C503.18 115.266 502.789 107.746 502.789 101.594V92.0234C502.789 85.2852 504.645 79.8164 508.258 75.4219C511.871 71.125 517.047 68.9766 523.59 68.9766C536.48 68.9766 542.242 78.0586 542.242 92.0234V101.203C542.242 111.359 542.047 119.465 541.754 125.422C541.363 131.477 540.484 137.336 539.215 143H592.242C589.215 129.621 587.652 115.07 587.652 99.4453V91.2422C587.75 85.2852 589.801 80.0117 593.609 75.6172C597.418 71.2227 602.301 68.9766 608.453 68.9766C621.051 68.9766 626.812 78.0586 626.812 92.0234V101.203C626.812 116.535 625.25 130.402 622.223 143H677.008C673.98 130.402 672.418 114.875 672.418 96.418V85.7734C672.418 58.5273 660.211 40.168 630.23 40.168C608.844 40.168 593.707 50.7148 587.457 68.1953H585.016C579.742 50.6172 568.316 40.4609 545.66 40.168C525.934 40.168 512.555 49.543 505.426 68.1953H502.984V65.5586C502.984 56.8672 504.84 49.3477 508.453 43H452.789C455.816 55.5977 457.379 70.3438 457.379 87.2383V103.645C457.379 111.945 456.988 118.879 456.305 124.445C455.621 130.109 454.449 136.262 452.789 143H507.672ZM843.383 145.832C863.988 145.832 880.883 142.609 893.871 135.969C906.762 129.328 914.184 118.293 914.184 103.84C914.184 91.7305 908.422 82.6484 899.828 77.8633C891.234 73.1758 879.711 69.7578 868.285 68.5859C845.336 65.4609 822.387 65.6562 822.387 54.6211C822.387 51.3984 824.828 49.0547 829.613 47.3945C834.398 45.7344 840.551 44.9531 848.168 44.9531C858.227 44.9531 868.285 46.418 878.246 49.25C888.207 52.082 896.117 55.6953 901.977 59.9922V9.40625C894.945 6.96484 886.352 4.81641 876.098 2.96094C865.844 1.10547 855.785 0.226562 846.117 0.226562C832.641 0.226562 820.727 1.78906 810.473 5.01172C800.121 8.23438 791.82 13.1172 785.668 19.8555C779.516 26.5938 776.391 34.6016 776.391 43.9766C776.391 55.0117 780.883 63.8984 787.914 68.9766C794.945 74.1523 804.32 77.9609 814.477 79.7188C839.477 84.6016 867.602 82.8438 867.602 92.8047C867.602 99.0547 858.812 102.18 841.332 102.18C829.32 102.18 817.309 100.422 805.395 96.9062C793.383 93.3906 783.422 88.2148 775.316 81.3789L773.559 134.016C783.031 137.238 794.555 139.973 808.129 142.316C821.703 144.66 833.422 145.832 843.383 145.832ZM1030.67 143C1027.64 129.621 1026.08 112.727 1026.08 92.4141V48.957H1043.46C1053.82 48.957 1062.8 51.2031 1070.52 55.5977L1062.9 2.96094H942.488L934.871 55.5977C942.391 51.2031 951.375 48.957 961.824 48.957H980.477V92.4141C980.477 112.727 978.914 129.621 975.887 143H1030.67ZM1175.68 145.832C1187.49 145.832 1197.94 145.051 1207.12 143.586C1216.2 142.023 1225.38 139.777 1234.66 136.848V84.4062C1228.9 89.3867 1221.67 93.3906 1212.98 96.418C1204.29 99.4453 1195.01 101.008 1185.25 101.008C1161.42 101.008 1140.03 92.9023 1140.03 73.3711C1140.03 64.4844 1144.23 57.5508 1152.53 52.4727C1160.83 47.4922 1171.57 44.9531 1184.66 44.9531C1192.38 44.9531 1200.09 46.125 1207.71 48.4688C1215.23 50.9102 1221.28 53.8398 1225.87 57.3555L1226.26 8.82031C1220.5 6.28125 1213.08 4.23047 1204.09 2.57031C1195.11 1.00781 1185.73 0.226562 1175.87 0.226562C1159.37 0.226562 1143.45 3.64453 1129.19 11.457C1122.06 15.3633 1115.81 20.1484 1110.54 25.7148C1099.89 36.9453 1093.06 53.5469 1093.06 72.9805C1093.06 92.5117 1099.8 109.211 1110.44 120.441C1126.46 137.434 1151.16 146.125 1175.68 145.832Z" fill="#F0D5CE" fill-opacity="0.15"/>
</svg>
