<svg width="267" height="37" viewBox="0 0 267 37" fill="none" xmlns="http://www.w3.org/2000/svg">
<path d="M23.9531 36C23.2266 32.7891 22.8516 28.7344 22.8516 23.8594V13.4297H27.0234C29.5078 13.4297 31.6641 13.9688 33.5156 15.0234L31.6875 2.39062H2.78906L0.960938 15.0234C2.76562 13.9688 4.92188 13.4297 7.42969 13.4297H11.9062V23.8594C11.9062 28.7344 11.5312 32.7891 10.8047 36H23.9531ZM47.6719 36.6797C50.0391 36.6797 52.4297 36.4688 54.8203 36.0703C57.2109 35.6484 59.0391 35.1094 60.3281 34.4531L60.1406 26.5547C59.25 27.5391 57.9141 28.3125 56.1328 28.875C54.3516 29.4375 52.4766 29.7188 50.5312 29.7188C48 29.7188 45.7969 29.1562 43.9219 28.0547C42.0234 26.9531 40.9922 25.6641 40.8047 24.1875L41.1797 23.9531C43.7344 25.8984 46.8984 26.5547 51.0234 26.5547C57.2812 26.5547 60.8672 24.3516 60.8672 19.9219C60.8672 18.1172 60.3047 16.5 58.9219 15C56.9531 12.8438 53.0391 11.3438 46.9453 11.3203C41.9062 11.3203 37.7578 12.75 35.2266 15.0703C32.6719 17.4141 31.2891 20.5078 31.2891 24C31.2891 27.7969 32.7656 30.8672 35.7422 33.1875C38.7188 35.5078 42.6797 36.6797 47.6719 36.6797ZM46.8516 23.8125C44.3438 23.8125 42.4453 23.2031 41.1328 21.9844C41.3438 20.6484 41.9531 19.6406 42.9141 18.9375C43.875 18.2578 45 17.9062 46.2656 17.9062C49.1016 17.9062 50.8828 19.125 50.8828 21.0234C50.8828 21.8438 50.4844 22.5 49.6875 23.0156C48.8906 23.5547 47.9531 23.8125 46.8516 23.8125ZM80.0625 36.6797C81.8203 36.6797 83.8125 36.5391 86.0391 36.2812C88.2656 36 89.9297 35.6719 91.0078 35.2734V27.0234C89.9062 27.7031 88.5234 28.2656 86.8828 28.6875C85.2422 29.1094 83.6953 29.3203 82.2656 29.3203C76.6406 29.3203 73.4297 27.3516 73.4297 24C73.4297 20.625 76.5 18.6797 81.5625 18.6797C83.0391 18.6797 84.5391 18.8906 86.0625 19.3359C87.5859 19.7812 88.7578 20.2969 89.5781 20.8828L90.0469 12.9141C89.0156 12.4688 87.4219 12.0938 85.2891 11.7891C83.1328 11.4844 81.3984 11.3203 80.0625 11.3203C74.1562 11.3203 69.6328 12.7266 67.0312 15.0703C64.4062 17.4375 63.1641 20.4375 63.1641 24C63.1641 27.5625 64.4062 30.5625 67.0312 32.9062C69.6328 35.2734 74.1562 36.6797 80.0625 36.6797ZM107.672 36C107.297 35.0859 107.016 33.5859 106.852 31.5234C106.688 29.4844 106.594 27.6562 106.594 26.0625L106.547 23.7656C106.523 22.1953 107.016 20.8828 108.047 19.8281C109.055 18.7734 110.367 18.2344 111.984 18.2344C115.102 18.2344 116.93 20.4609 116.93 23.7656V25.9688C116.93 29.6484 116.555 32.9766 115.828 36H128.977C128.25 32.9766 127.875 29.25 127.875 24.8203V22.2656C127.875 18.8672 126.938 16.1953 125.039 14.25C123.141 12.3047 120.422 11.3203 116.836 11.3203C112.078 11.3203 108.844 13.5703 107.133 18.0469H106.594V14.5547C106.594 9.58594 106.945 5.53125 107.672 2.39062H94.5469C94.8984 3.86719 95.1562 5.71875 95.3672 7.96875C95.5781 10.2422 95.6719 12.4219 95.6719 14.5547V23.8594C95.6719 25.9922 95.5781 28.1719 95.3672 30.3984C95.1562 32.6484 94.8984 34.5234 94.5469 36H107.672ZM146.719 36C146.344 35.0859 146.062 33.5625 145.875 31.4766C145.688 29.3906 145.594 27.5859 145.594 26.0625L145.547 23.7656C145.547 22.1953 146.062 20.8828 147.07 19.8281C148.078 18.7734 149.414 18.2344 151.031 18.2344C154.148 18.2344 155.977 20.4609 155.977 23.7656V25.9688C155.977 29.4375 155.602 32.7891 154.875 36H168.023C167.25 32.8594 166.875 29.1328 166.875 24.8203V22.2656C166.875 18.8672 165.938 16.1953 164.039 14.25C162.141 12.3047 159.422 11.3203 155.883 11.3203C151.125 11.3203 147.891 13.5703 146.18 18.0469H145.594V17.4141C145.594 15.3281 146.039 13.5234 146.906 12H133.547C134.273 15.0234 134.648 18.5625 134.648 22.6172V26.5547C134.648 28.5469 134.555 30.2109 134.391 31.5469C134.227 32.9062 133.945 34.3828 133.547 36H146.719ZM182.977 9.32812C184.031 8.36719 184.547 7.14844 184.547 5.67188C184.547 4.17188 184.031 2.92969 182.977 1.96875C181.922 1.00781 180.516 0.539062 178.734 0.539062C176.953 0.539062 175.547 1.00781 174.516 1.96875C173.461 2.92969 172.945 4.17188 172.945 5.67188C172.945 7.14844 173.461 8.36719 174.516 9.32812C175.547 10.2891 176.953 10.7578 178.734 10.7578C180.516 10.7578 181.922 10.2891 182.977 9.32812ZM185.32 36C184.594 32.7891 184.219 28.7344 184.219 23.8594V17.2266C184.219 15.0234 184.336 13.2891 184.547 12C183.211 12.9609 181.336 13.4531 178.875 13.4531C176.414 13.4531 174.469 12.9609 172.992 12C173.203 13.0312 173.32 14.7656 173.32 17.2266V23.8594C173.32 28.7344 172.945 32.7891 172.219 36H185.32ZM205.266 36.6797C207.023 36.6797 209.016 36.5391 211.242 36.2812C213.469 36 215.133 35.6719 216.211 35.2734V27.0234C215.109 27.7031 213.727 28.2656 212.086 28.6875C210.445 29.1094 208.898 29.3203 207.469 29.3203C201.844 29.3203 198.633 27.3516 198.633 24C198.633 20.625 201.703 18.6797 206.766 18.6797C208.242 18.6797 209.742 18.8906 211.266 19.3359C212.789 19.7812 213.961 20.2969 214.781 20.8828L215.25 12.9141C214.219 12.4688 212.625 12.0938 210.492 11.7891C208.336 11.4844 206.602 11.3203 205.266 11.3203C199.359 11.3203 194.836 12.7266 192.234 15.0703C189.609 17.4375 188.367 20.4375 188.367 24C188.367 27.5625 189.609 30.5625 192.234 32.9062C194.836 35.2734 199.359 36.6797 205.266 36.6797ZM228.352 36.6797C233.062 36.6797 236.203 34.875 237.516 32.0625H238.055V32.4844C238.055 34.0312 237.797 35.2031 237.281 36H249.516C249.07 34.8047 248.789 33.375 248.625 31.7109C248.461 30.0469 248.367 27.6797 248.367 24.6328V20.5547C248.367 14.3906 243.305 11.3203 233.156 11.3203C231.234 11.3203 229.078 11.4844 226.711 11.8359C224.32 12.1875 222.586 12.5625 221.484 12.9609V19.8281C222.352 19.0547 223.617 18.4219 225.281 17.9297C226.922 17.4375 228.703 17.1797 230.602 17.1797C232.734 17.1797 234.516 17.6484 235.945 18.6094C237.352 19.5703 238.055 20.9531 238.055 22.8047V24.9141H237.422C236.133 22.1953 233.016 20.3438 228.398 20.3438C225.281 20.3438 222.844 21.1172 221.109 22.6875C219.375 24.2578 218.508 26.2031 218.508 28.5234C218.508 30.0234 218.883 31.3828 219.609 32.5781C221.062 35.0156 224.203 36.6797 228.352 36.6797ZM233.297 31.2891C230.484 31.2891 228.727 30.0234 228.727 28.3125C228.727 26.5312 230.461 25.3359 233.297 25.3359C234.68 25.3359 235.805 25.6172 236.648 26.2031C237.492 26.7891 237.914 27.4922 237.914 28.3125C237.914 30.1172 236.133 31.2891 233.297 31.2891ZM266.555 36C265.852 32.6953 265.5 28.6406 265.5 23.8594V14.5547C265.5 9.75 265.852 5.69531 266.555 2.39062H253.453C253.805 3.89062 254.086 5.76562 254.297 8.01562C254.508 10.2891 254.625 12.4688 254.625 14.5547V23.8594C254.625 25.9453 254.508 28.125 254.297 30.375C254.086 32.625 253.805 34.5 253.453 36H266.555Z" fill="#F4B5C2"/>
</svg>
