<svg width="299" height="41" viewBox="0 0 299 41" fill="none" xmlns="http://www.w3.org/2000/svg">
<path d="M25.9473 40C25.1299 36.3877 24.708 31.8262 24.708 26.3418V14.6084H29.4014C32.1963 14.6084 34.6221 15.2148 36.7051 16.4014L34.6484 2.18945H2.1377L0.0810547 16.4014C2.11133 15.2148 4.53711 14.6084 7.3584 14.6084H12.3945V26.3418C12.3945 31.8262 11.9727 36.3877 11.1553 40H25.9473ZM52.6309 40.7646C55.2939 40.7646 57.9834 40.5273 60.6729 40.0791C63.3623 39.6045 65.4189 38.998 66.8691 38.2598L66.6582 29.374C65.6562 30.4814 64.1533 31.3516 62.1494 31.9844C60.1455 32.6172 58.0361 32.9336 55.8477 32.9336C53 32.9336 50.5215 32.3008 48.4121 31.0615C46.2764 29.8223 45.1162 28.3721 44.9053 26.7109L45.3271 26.4473C48.2012 28.6357 51.7607 29.374 56.4014 29.374C63.4414 29.374 67.4756 26.8955 67.4756 21.9121C67.4756 19.8818 66.8428 18.0625 65.2871 16.375C63.0723 13.9492 58.6689 12.2617 51.8135 12.2354C46.1445 12.2354 41.4775 13.8438 38.6299 16.4541C35.7559 19.0908 34.2002 22.5713 34.2002 26.5C34.2002 30.7715 35.8613 34.2256 39.21 36.8359C42.5586 39.4463 47.0146 40.7646 52.6309 40.7646ZM51.708 26.2891C48.8867 26.2891 46.751 25.6035 45.2744 24.2324C45.5117 22.7295 46.1973 21.5957 47.2783 20.8047C48.3594 20.04 49.625 19.6445 51.0488 19.6445C54.2393 19.6445 56.2432 21.0156 56.2432 23.1514C56.2432 24.0742 55.7949 24.8125 54.8984 25.3926C54.002 25.999 52.9473 26.2891 51.708 26.2891ZM89.0703 40.7646C91.0479 40.7646 93.2891 40.6064 95.7939 40.3164C98.2988 40 100.171 39.6309 101.384 39.1826V29.9014C100.145 30.666 98.5889 31.2988 96.7432 31.7734C94.8975 32.248 93.1572 32.4854 91.5488 32.4854C85.2207 32.4854 81.6084 30.2705 81.6084 26.5C81.6084 22.7031 85.0625 20.5146 90.7578 20.5146C92.4189 20.5146 94.1064 20.752 95.8203 21.2529C97.5342 21.7539 98.8525 22.334 99.7754 22.9932L100.303 14.0283C99.1426 13.5273 97.3496 13.1055 94.9502 12.7627C92.5244 12.4199 90.5732 12.2354 89.0703 12.2354C82.4258 12.2354 77.3369 13.8174 74.4102 16.4541C71.457 19.1172 70.0596 22.4922 70.0596 26.5C70.0596 30.5078 71.457 33.8828 74.4102 36.5195C77.3369 39.1826 82.4258 40.7646 89.0703 40.7646ZM120.131 40C119.709 38.9717 119.393 37.2842 119.208 34.9639C119.023 32.6699 118.918 30.6133 118.918 28.8203L118.865 26.2363C118.839 24.4697 119.393 22.9932 120.553 21.8066C121.687 20.6201 123.163 20.0137 124.982 20.0137C128.489 20.0137 130.546 22.5186 130.546 26.2363V28.7148C130.546 32.8545 130.124 36.5986 129.307 40H144.099C143.281 36.5986 142.859 32.4062 142.859 27.4229V24.5488C142.859 20.7256 141.805 17.7197 139.669 15.5312C137.533 13.3428 134.475 12.2354 130.44 12.2354C125.088 12.2354 121.449 14.7666 119.524 19.8027H118.918V15.874C118.918 10.2842 119.313 5.72266 120.131 2.18945H105.365C105.761 3.85059 106.051 5.93359 106.288 8.46484C106.525 11.0225 106.631 13.4746 106.631 15.874V26.3418C106.631 28.7412 106.525 31.1934 106.288 33.6982C106.051 36.2295 105.761 38.3389 105.365 40H120.131ZM164.059 40C163.637 38.9717 163.32 37.2578 163.109 34.9111C162.898 32.5645 162.793 30.5342 162.793 28.8203L162.74 26.2363C162.74 24.4697 163.32 22.9932 164.454 21.8066C165.588 20.6201 167.091 20.0137 168.91 20.0137C172.417 20.0137 174.474 22.5186 174.474 26.2363V28.7148C174.474 32.6172 174.052 36.3877 173.234 40H188.026C187.156 36.4668 186.734 32.2744 186.734 27.4229V24.5488C186.734 20.7256 185.68 17.7197 183.544 15.5312C181.408 13.3428 178.35 12.2354 174.368 12.2354C169.016 12.2354 165.377 14.7666 163.452 19.8027H162.793V19.0908C162.793 16.7441 163.294 14.7139 164.27 13H149.24C150.058 16.4014 150.479 20.3828 150.479 24.9443V29.374C150.479 31.6152 150.374 33.4873 150.189 34.9902C150.005 36.5195 149.688 38.1807 149.24 40H164.059ZM204.849 9.99414C206.035 8.91309 206.615 7.54199 206.615 5.88086C206.615 4.19336 206.035 2.7959 204.849 1.71484C203.662 0.633789 202.08 0.106445 200.076 0.106445C198.072 0.106445 196.49 0.633789 195.33 1.71484C194.144 2.7959 193.563 4.19336 193.563 5.88086C193.563 7.54199 194.144 8.91309 195.33 9.99414C196.49 11.0752 198.072 11.6025 200.076 11.6025C202.08 11.6025 203.662 11.0752 204.849 9.99414ZM207.485 40C206.668 36.3877 206.246 31.8262 206.246 26.3418V18.8799C206.246 16.4014 206.378 14.4502 206.615 13C205.112 14.0811 203.003 14.6348 200.234 14.6348C197.466 14.6348 195.277 14.0811 193.616 13C193.854 14.1602 193.985 16.1113 193.985 18.8799V26.3418C193.985 31.8262 193.563 36.3877 192.746 40H207.485ZM229.924 40.7646C231.901 40.7646 234.143 40.6064 236.647 40.3164C239.152 40 241.024 39.6309 242.237 39.1826V29.9014C240.998 30.666 239.442 31.2988 237.597 31.7734C235.751 32.248 234.011 32.4854 232.402 32.4854C226.074 32.4854 222.462 30.2705 222.462 26.5C222.462 22.7031 225.916 20.5146 231.611 20.5146C233.272 20.5146 234.96 20.752 236.674 21.2529C238.388 21.7539 239.706 22.334 240.629 22.9932L241.156 14.0283C239.996 13.5273 238.203 13.1055 235.804 12.7627C233.378 12.4199 231.427 12.2354 229.924 12.2354C223.279 12.2354 218.19 13.8174 215.264 16.4541C212.311 19.1172 210.913 22.4922 210.913 26.5C210.913 30.5078 212.311 33.8828 215.264 36.5195C218.19 39.1826 223.279 40.7646 229.924 40.7646ZM255.896 40.7646C261.195 40.7646 264.729 38.7344 266.205 35.5703H266.812V36.0449C266.812 37.7852 266.521 39.1035 265.941 40H279.705C279.204 38.6553 278.888 37.0469 278.703 35.1748C278.519 33.3027 278.413 30.6396 278.413 27.2119V22.624C278.413 15.6895 272.718 12.2354 261.301 12.2354C259.139 12.2354 256.713 12.4199 254.05 12.8154C251.36 13.2109 249.409 13.6328 248.17 14.0811V21.8066C249.146 20.9365 250.569 20.2246 252.441 19.6709C254.287 19.1172 256.291 18.8271 258.427 18.8271C260.826 18.8271 262.83 19.3545 264.438 20.4355C266.021 21.5166 266.812 23.0723 266.812 25.1553V27.5283H266.1C264.649 24.4697 261.143 22.3867 255.948 22.3867C252.441 22.3867 249.699 23.2568 247.748 25.0234C245.797 26.79 244.821 28.9785 244.821 31.5889C244.821 33.2764 245.243 34.8057 246.061 36.1504C247.695 38.8926 251.229 40.7646 255.896 40.7646ZM261.459 34.7002C258.295 34.7002 256.317 33.2764 256.317 31.3516C256.317 29.3477 258.269 28.0029 261.459 28.0029C263.015 28.0029 264.28 28.3193 265.229 28.9785C266.179 29.6377 266.653 30.4287 266.653 31.3516C266.653 33.3818 264.649 34.7002 261.459 34.7002ZM298.874 40C298.083 36.2822 297.688 31.7207 297.688 26.3418V15.874C297.688 10.4688 298.083 5.90723 298.874 2.18945H284.135C284.53 3.87695 284.847 5.98633 285.084 8.51758C285.321 11.0752 285.453 13.5273 285.453 15.874V26.3418C285.453 28.6885 285.321 31.1406 285.084 33.6719C284.847 36.2031 284.53 38.3125 284.135 40H298.874Z" fill="white"/>
</svg>
