<svg width="338" height="252" viewBox="0 0 338 252" fill="none" xmlns="http://www.w3.org/2000/svg">
<g filter="url(#filter0_d_698:8534)">
<path fill-rule="evenodd" clip-rule="evenodd" d="M83.9718 65.0867C82.5921 55.0545 88.1879 45.9861 96.5024 44.8082C104.842 43.6268 112.759 50.8311 114.185 60.8995L114.186 60.8995C112.759 50.8311 118.364 41.7113 126.704 40.5299C135.043 39.3485 142.96 46.5528 144.387 56.6212L144.387 56.6212C142.961 46.5528 148.565 37.433 156.905 36.2516C165.215 35.0744 173.105 42.2234 174.572 52.2357C173.201 42.2099 178.795 33.1507 187.105 31.9734C195.445 30.792 203.362 37.9964 204.788 48.0648L204.788 48.0648C203.362 37.9964 208.967 28.8766 217.306 27.6951C225.646 26.5137 233.563 33.7181 234.989 43.7865L234.99 43.7865C233.563 33.7181 239.168 24.5983 247.507 23.4169C255.821 22.2392 263.714 29.3942 265.177 39.4126C263.799 29.3822 269.395 20.3163 277.708 19.1387C286.048 17.9572 293.965 25.1616 295.391 35.2299L314.502 170.136C315.928 180.204 310.324 189.324 301.984 190.506C293.67 191.683 285.777 184.528 284.315 174.51C285.692 184.54 280.097 193.606 271.783 194.784C263.444 195.965 255.527 188.761 254.1 178.692L254.1 178.692L254.1 178.692L254.1 178.692C255.526 188.761 249.922 197.881 241.582 199.062C233.242 200.243 225.325 193.039 223.899 182.971L223.899 182.971L223.899 182.971L223.899 182.971C225.325 193.039 219.721 202.159 211.381 203.34C203.071 204.518 195.181 197.369 193.713 187.356C195.085 197.382 189.491 206.441 181.181 207.619C172.841 208.8 164.924 201.596 163.498 191.527L163.498 191.527L163.497 191.527L163.497 191.527C164.924 201.596 159.319 210.715 150.979 211.897C142.64 213.078 134.723 205.874 133.296 195.805L133.296 195.805L133.296 195.805L133.296 195.806C134.722 205.874 129.118 214.994 120.778 216.175C112.464 217.353 104.569 210.196 103.108 200.175C104.488 210.207 98.8923 219.276 90.5777 220.453C82.238 221.635 74.321 214.43 72.8947 204.362L72.8947 204.362L72.8942 204.362L72.8942 204.362C74.3205 214.431 68.7161 223.55 60.3763 224.732C52.0366 225.913 44.1196 218.709 42.6933 208.64C42.6867 208.594 42.6803 208.548 42.674 208.501L23.583 73.7344L23.583 73.7343C22.1567 63.6659 27.7612 54.5461 36.1009 53.3647C44.4406 52.1833 52.3575 59.3876 53.7839 69.456L53.784 69.456C52.3577 59.3876 57.9622 50.2678 66.3019 49.0864C74.6165 47.9086 82.5108 55.066 83.9718 65.0867Z" fill="#EECC50"/>
<path d="M83.9718 65.0867L81.0032 65.5195L86.9438 64.678L83.9718 65.0867ZM114.185 60.8995L111.215 61.3203L111.636 64.2907L114.606 63.8699L114.185 60.8995ZM114.186 60.8995L114.606 63.8698L117.577 63.4491L117.156 60.4787L114.186 60.8995ZM144.387 56.6212L141.416 57.042L141.837 60.0124L144.807 59.5916L144.387 56.6212ZM144.387 56.6212L144.808 59.5915L147.778 59.1708L147.357 56.2004L144.387 56.6212ZM174.572 52.2357L171.604 52.6707L177.545 51.8291L174.572 52.2357ZM204.788 48.0648L201.818 48.4856L202.239 51.456L205.209 51.0352L204.788 48.0648ZM204.788 48.0648L205.209 51.0351L208.18 50.6144L207.759 47.644L204.788 48.0648ZM234.989 43.7865L232.019 44.2073L232.44 47.1777L235.41 46.7569L234.989 43.7865ZM234.99 43.7865L235.41 46.7568L238.381 46.3361L237.96 43.3657L234.99 43.7865ZM265.177 39.4126L262.208 39.8461L268.149 39.0045L265.177 39.4126ZM295.391 35.2299L298.361 34.8092L298.361 34.8091L295.391 35.2299ZM314.502 170.136L317.472 169.715L317.472 169.715L314.502 170.136ZM284.315 174.51L287.283 174.076L281.342 174.918L284.315 174.51ZM254.1 178.692L251.13 179.113L254.1 178.692ZM254.1 178.692L257.071 178.271L256.65 175.301L253.68 175.722L254.1 178.692ZM254.1 178.692L253.679 175.722L250.709 176.143L251.13 179.113L254.1 178.692ZM223.899 182.971L220.929 183.391L223.899 182.971ZM223.899 182.971L226.869 182.55L226.449 179.579L223.478 180L223.899 182.971ZM223.899 182.971L223.478 180L220.508 180.421L220.929 183.391L223.899 182.971ZM223.899 182.971L220.929 183.392L223.899 182.971ZM193.713 187.356L196.682 186.921L190.741 187.763L193.713 187.356ZM163.498 191.527L166.468 191.106L163.498 191.527ZM163.498 191.527L166.468 191.106L166.047 188.136L163.077 188.557L163.498 191.527ZM163.497 191.527L163.077 188.557L160.106 188.978L160.527 191.948L163.497 191.527ZM163.497 191.527L166.468 191.106L163.497 191.527ZM133.296 195.805L136.267 195.385L135.846 192.414L132.876 192.835L133.296 195.805ZM133.296 195.805L132.875 192.835L129.905 193.256L130.326 196.226L133.296 195.805ZM133.296 195.806L136.267 195.385L133.296 195.806ZM103.108 200.175L106.077 199.742L100.136 200.584L103.108 200.175ZM72.8947 204.362L75.8651 203.941L72.8947 204.362ZM72.8947 204.362L75.8651 203.941L75.4443 200.971L72.4739 201.391L72.8947 204.362ZM72.8942 204.362L72.4734 201.392L69.5031 201.812L69.9239 204.783L72.8942 204.362ZM42.674 208.501L45.6469 208.099L45.6457 208.09L45.6444 208.08L42.674 208.501ZM23.583 73.7344L20.6126 74.1551L23.583 73.7344ZM23.583 73.7343L20.6126 74.155L20.6126 74.1551L23.583 73.7343ZM53.7839 69.456L50.8135 69.8768L51.2343 72.8471L54.2046 72.4264L53.7839 69.456ZM53.784 69.456L54.2047 72.4264L57.1751 72.0056L56.7543 69.0352L53.784 69.456ZM96.0816 41.8379C85.6345 43.3178 79.4701 54.3725 80.9998 65.4955L86.9438 64.678C85.7141 55.7364 90.7412 48.6543 96.9232 47.7786L96.0816 41.8379ZM117.156 60.4787C115.575 49.3181 106.561 40.3534 96.0816 41.8379L96.9232 47.7786C103.123 46.9003 109.943 52.3442 111.215 61.3203L117.156 60.4787ZM113.765 57.9292L113.765 57.9292L114.606 63.8699L114.606 63.8698L113.765 57.9292ZM126.283 37.5596C115.803 39.0441 109.634 50.1596 111.215 61.3203L117.156 60.4787C115.884 51.5026 120.924 44.3786 127.124 43.5003L126.283 37.5596ZM147.357 56.2004C145.776 45.0398 136.762 36.0751 126.283 37.5596L127.124 43.5003C133.324 42.622 140.145 48.0659 141.416 57.042L147.357 56.2004ZM143.966 53.6509L143.966 53.6509L144.807 59.5916L144.808 59.5915L143.966 53.6509ZM156.484 33.2813C146.005 34.7658 139.836 45.8813 141.416 57.042L147.357 56.2004C146.086 47.2243 151.125 40.1003 157.326 39.222L156.484 33.2813ZM177.541 51.8007C175.914 40.6996 166.925 31.8022 156.484 33.2813L157.326 39.222C163.504 38.3467 170.296 43.7473 171.604 52.6707L177.541 51.8007ZM186.684 29.0031C176.243 30.4822 170.079 41.5261 171.6 52.6423L177.545 51.8291C176.322 42.8936 181.347 35.8191 187.526 34.9438L186.684 29.0031ZM207.759 47.6441C206.177 36.4833 197.164 27.5186 186.684 29.0031L187.526 34.9438C193.726 34.0655 200.546 39.5094 201.818 48.4856L207.759 47.6441ZM204.368 45.0945L204.367 45.0945L205.209 51.0352L205.209 51.0351L204.368 45.0945ZM216.886 24.7248C206.406 26.2093 200.237 37.3249 201.818 48.4856L207.759 47.644C206.487 38.6679 211.527 31.5438 217.727 30.6655L216.886 24.7248ZM237.96 43.3658C236.379 32.205 227.365 23.2403 216.886 24.7248L217.727 30.6655C223.927 29.7872 230.747 35.2311 232.019 44.2073L237.96 43.3658ZM234.569 40.8162L234.569 40.8162L235.41 46.7569L235.41 46.7568L234.569 40.8162ZM247.087 20.4465C236.607 21.931 230.438 33.0466 232.019 44.2073L237.96 43.3657C236.688 34.3896 241.728 27.2655 247.928 26.3872L247.087 20.4465ZM268.145 38.9792C266.523 27.8716 257.532 18.9668 247.087 20.4465L247.928 26.3872C254.109 25.5116 260.905 30.9169 262.208 39.8461L268.145 38.9792ZM268.149 39.0045C266.921 30.0646 271.948 22.9846 278.129 22.109L277.287 16.1683C266.842 17.648 260.677 28.6997 262.205 39.8208L268.149 39.0045ZM278.129 22.109C284.329 21.2307 291.149 26.6747 292.421 35.6508L298.361 34.8091C296.78 23.6485 287.767 14.6838 277.287 16.1683L278.129 22.109ZM317.472 169.715L298.361 34.8092L292.421 35.6507L311.532 170.557L317.472 169.715ZM302.405 193.476C312.884 191.991 319.053 180.876 317.472 169.715L311.532 170.556C312.803 179.533 307.763 186.657 301.563 187.535L302.405 193.476ZM281.346 174.943C282.968 186.051 291.959 194.956 302.405 193.476L301.563 187.535C295.382 188.411 288.587 183.006 287.283 174.076L281.346 174.943ZM272.204 197.754C282.65 196.274 288.814 185.223 287.287 174.102L281.342 174.918C282.57 183.858 277.544 190.938 271.363 191.813L272.204 197.754ZM251.13 179.113C252.711 190.274 261.725 199.239 272.204 197.754L271.363 191.813C265.162 192.692 258.342 187.248 257.071 178.272L251.13 179.113ZM251.13 179.113L251.13 179.113L257.071 178.272L257.071 178.271L251.13 179.113ZM254.521 181.663L254.521 181.663L253.68 175.722L253.679 175.722L254.521 181.663ZM257.07 178.272L257.07 178.272L251.13 179.113L251.13 179.113L257.07 178.272ZM242.003 202.032C252.482 200.548 258.651 189.432 257.07 178.272L251.13 179.113C252.401 188.089 247.362 195.213 241.161 196.092L242.003 202.032ZM220.929 183.391C222.51 194.552 231.524 203.517 242.003 202.032L241.161 196.092C234.961 196.97 228.141 191.526 226.87 182.55L220.929 183.391ZM220.929 183.391L220.929 183.391L226.87 182.55L226.869 182.55L220.929 183.391ZM224.32 185.941L224.32 185.941L223.478 180L223.478 180L224.32 185.941ZM226.869 182.55L226.869 182.55L220.929 183.391L220.929 183.392L226.869 182.55ZM211.802 206.311C222.281 204.826 228.45 193.711 226.869 182.55L220.929 183.392C222.2 192.368 217.16 199.492 210.96 200.37L211.802 206.311ZM190.745 187.791C192.372 198.892 201.36 207.79 211.802 206.311L210.96 200.37C204.782 201.245 197.989 195.845 196.682 186.921L190.745 187.791ZM181.601 210.589C192.043 209.11 198.206 198.066 196.686 186.95L190.741 187.763C191.963 196.698 186.939 203.773 180.76 204.648L181.601 210.589ZM160.527 191.948C162.108 203.109 171.122 212.073 181.601 210.589L180.76 204.648C174.56 205.527 167.74 200.083 166.468 191.106L160.527 191.948ZM160.527 191.948L160.527 191.948L166.468 191.106L166.468 191.106L160.527 191.948ZM163.918 194.497L163.918 194.497L163.077 188.557L163.077 188.557L163.918 194.497ZM166.468 191.106L166.468 191.106L160.527 191.948L160.527 191.948L166.468 191.106ZM151.4 214.867C161.88 213.383 168.049 202.267 166.468 191.106L160.527 191.948C161.799 200.924 156.759 208.048 150.559 208.927L151.4 214.867ZM130.326 196.226C131.907 207.387 140.921 216.352 151.4 214.867L150.559 208.927C144.359 209.805 137.538 204.361 136.267 195.385L130.326 196.226ZM130.326 196.226L130.326 196.226L136.267 195.385L136.267 195.385L130.326 196.226ZM133.717 198.776L133.717 198.776L132.876 192.835L132.875 192.835L133.717 198.776ZM136.267 195.385L136.267 195.385L130.326 196.226L130.326 196.226L136.267 195.385ZM121.199 219.146C131.678 217.661 137.848 206.545 136.267 195.385L130.326 196.226C131.597 205.202 126.558 212.327 120.357 213.205L121.199 219.146ZM100.14 200.608C101.76 211.718 110.752 220.625 121.199 219.146L120.357 213.205C114.176 214.081 107.379 208.673 106.077 199.742L100.14 200.608ZM90.9985 223.424C101.446 221.944 107.61 210.889 106.08 199.766L100.136 200.584C101.366 209.525 96.3389 216.607 90.157 217.483L90.9985 223.424ZM69.9244 204.783C71.5054 215.943 80.5192 224.908 90.9985 223.424L90.157 217.483C83.9568 218.361 77.1367 212.917 75.8651 203.941L69.9244 204.783ZM69.9244 204.783L69.9244 204.783L75.8651 203.941L75.8651 203.941L69.9244 204.783ZM73.315 207.332L73.3155 207.332L72.4739 201.391L72.4734 201.392L73.315 207.332ZM75.8646 203.941L75.8645 203.941L69.9239 204.783L69.9239 204.783L75.8646 203.941ZM60.7971 227.702C71.2764 226.218 77.4456 215.102 75.8646 203.941L69.9239 204.783C71.1954 213.759 66.1557 220.883 59.9555 221.761L60.7971 227.702ZM39.723 209.061C41.304 220.222 50.3177 229.187 60.7971 227.702L59.9555 221.761C53.7554 222.64 46.9352 217.196 45.6637 208.22L39.723 209.061ZM39.7011 208.904C39.7083 208.956 39.7155 209.009 39.723 209.061L45.6637 208.22C45.658 208.179 45.6524 208.139 45.6469 208.099L39.7011 208.904ZM20.6126 74.1551L39.7037 208.922L45.6444 208.08L26.5533 73.3136L20.6126 74.1551ZM20.6126 74.1551L20.6126 74.1551L26.5533 73.3136L26.5533 73.3135L20.6126 74.1551ZM35.6801 50.3944C25.2008 51.8789 19.0316 62.9944 20.6126 74.155L26.5533 73.3135C25.2818 64.3374 30.3215 57.2134 36.5217 56.3351L35.6801 50.3944ZM56.7542 69.0352C55.1731 57.8746 46.1594 48.9099 35.6801 50.3944L36.5217 56.3351C42.7218 55.4567 49.5419 60.9007 50.8135 69.8768L56.7542 69.0352ZM53.3632 66.4857L53.3631 66.4857L54.2046 72.4264L54.2047 72.4264L53.3632 66.4857ZM65.8811 46.1161C55.4018 47.6006 49.2326 58.7161 50.8136 69.8768L56.7543 69.0352C55.4828 60.0591 60.5225 52.9351 66.7227 52.0568L65.8811 46.1161ZM86.9404 64.6539C85.3206 53.5438 76.3283 44.6361 65.8811 46.1161L66.7227 52.0568C72.9046 51.181 79.701 56.5882 81.0032 65.5195L86.9404 64.6539Z" fill="#F05127"/>
<path d="M185.394 120.519C189.159 119.985 192.163 118.959 194.364 117.409C196.548 115.862 197.618 113.654 197.244 111.013C196.931 108.8 195.643 107.29 193.949 106.638C192.257 106.004 190.063 105.677 187.945 105.759C183.67 105.782 179.482 106.412 179.196 104.395C179.113 103.806 179.498 103.315 180.33 102.888C181.161 102.46 182.265 102.158 183.657 101.961C185.495 101.701 187.371 101.708 189.264 101.968C191.158 102.227 192.697 102.683 193.879 103.316L192.569 94.073C191.221 93.8089 189.595 93.6388 187.674 93.5651C185.752 93.4915 183.891 93.5913 182.125 93.8415C179.662 94.1904 177.525 94.7843 175.735 95.6386C173.927 96.4954 172.537 97.6025 171.587 98.993C170.637 100.384 170.273 101.928 170.516 103.641C170.802 105.657 171.853 107.165 173.269 107.911C174.688 108.674 176.499 109.128 178.401 109.186C183.095 109.431 188.189 108.382 188.447 110.202C188.609 111.344 187.083 112.143 183.889 112.595C181.694 112.906 179.454 112.896 177.186 112.562C174.9 112.23 172.946 111.542 171.288 110.503L172.329 120.167C174.144 120.51 176.32 120.712 178.861 120.789C181.402 120.866 183.574 120.776 185.394 120.519ZM216.62 115.567C215.721 113.201 214.998 110.154 214.472 106.443L213.347 98.5017L216.523 98.0517C218.415 97.7838 220.115 97.9616 221.638 98.5649L218.884 89.1439L196.881 92.2608L196.852 102.076C198.112 101.078 199.696 100.436 201.605 100.165L205.014 99.6822L206.138 107.623C206.664 111.335 206.816 114.462 206.609 116.985L216.62 115.567ZM240.266 112.745C242.425 112.439 244.314 112.026 245.954 111.521C247.573 111 249.192 110.352 250.812 109.577L249.454 99.9943C248.53 101.054 247.313 101.972 245.803 102.75C244.294 103.529 242.639 104.054 240.854 104.307C236.5 104.924 232.383 103.996 231.877 100.427C231.647 98.8035 232.235 97.4279 233.62 96.2851C235.008 95.1601 236.905 94.4181 239.296 94.0794C240.706 93.8797 242.146 93.8941 243.599 94.1252C245.036 94.3767 246.218 94.7553 247.148 95.2789L245.963 86.4C244.844 86.0852 243.435 85.9026 241.75 85.8318C240.068 85.7789 238.335 85.8788 236.533 86.1341C233.517 86.5613 230.697 87.5979 228.294 89.3945C227.092 90.2928 226.074 91.329 225.254 92.4827C223.6 94.8103 222.781 98.0208 223.284 101.572C223.789 105.141 225.453 108.018 227.689 109.794C231.055 112.485 235.795 113.433 240.266 112.745Z" fill="#F05127"/>
<path d="M165.129 153.147L166.216 142.031L166.537 141.985L170.669 152.362L179.114 151.166C178.947 150.275 178.845 149.17 178.78 147.841C178.714 146.513 178.727 145.255 178.803 144.056L179.374 138.638C179.497 135.753 179.798 133.349 180.304 131.421L172.795 132.484C172.917 133.245 172.986 134.696 172.991 136.852L172.562 141.05C172.558 141.31 172.553 141.665 172.549 142.116C172.514 143.023 172.513 143.596 172.545 144.301L172.237 144.345L167.536 133.229L162.798 133.9L161.383 145.883L161.088 145.924C161.043 145.699 160.73 144.651 160.165 142.779L158.604 138.891C158.012 136.927 157.675 135.514 157.592 134.638L150.044 135.707C151.049 137.408 152.033 139.63 152.982 142.376L155.034 147.424C155.427 148.556 155.777 149.776 156.095 151.055C156.401 152.349 156.61 153.439 156.71 154.34L165.129 153.147ZM191.643 149.787C192.994 149.596 194.342 149.282 195.675 148.861C197.006 148.427 198.007 147.971 198.69 147.492L197.944 142.997C197.515 143.631 196.814 144.181 195.843 144.646C194.871 145.111 193.823 145.424 192.712 145.581C191.267 145.786 189.963 145.643 188.804 145.165C187.63 144.69 186.937 144.037 186.711 143.209L186.906 143.045C188.522 143.949 190.382 144.068 192.737 143.734C196.311 143.228 198.18 141.68 197.822 139.151C197.676 138.12 197.224 137.242 196.313 136.497C195.014 135.425 192.658 134.886 189.176 135.365C186.299 135.773 184.046 136.925 182.788 138.454C181.519 139.999 180.979 141.878 181.262 143.872C181.569 146.04 182.661 147.674 184.548 148.758C186.435 149.842 188.792 150.191 191.643 149.787ZM190.133 142.506C188.701 142.709 187.568 142.514 186.72 141.925C186.732 141.145 186.999 140.52 187.491 140.041C187.984 139.575 188.598 139.283 189.321 139.181C190.94 138.951 192.056 139.503 192.21 140.587C192.276 141.056 192.102 141.463 191.688 141.822C191.277 142.194 190.762 142.417 190.133 142.506ZM214.167 146.596C218.53 145.978 220.113 142.409 219.552 138.448C218.991 134.486 216.479 131.497 212.116 132.116C209.225 132.525 207.439 134.28 206.874 136.749L206.54 136.796L206.261 134.829C205.853 131.951 205.739 129.606 205.919 127.792L198.398 128.857C199.057 130.525 199.599 132.81 200.011 135.714L200.764 141.027C201.175 143.932 201.287 146.264 201.117 148.049L208.598 146.989C208.272 146.421 208.039 145.935 207.9 145.532C207.761 145.128 207.649 144.626 207.565 144.037L207.518 143.702L207.879 143.651C209.154 145.805 211.289 147.004 214.167 146.596ZM210.872 143.09C209.881 143.231 209.031 143.01 208.336 142.439C207.627 141.871 207.209 141.138 207.079 140.215C206.942 139.251 207.136 138.405 207.649 137.69C208.162 136.976 208.92 136.541 209.924 136.399C210.954 136.253 211.814 136.445 212.532 136.985C213.237 137.527 213.659 138.286 213.797 139.263C213.935 140.24 213.739 141.073 213.213 141.79C212.673 142.508 211.902 142.944 210.872 143.09ZM229.397 144.439C231.967 144.075 233.893 143.406 235.186 142.417C236.479 141.429 237.02 140.233 236.817 138.801C236.535 136.711 234.494 136.085 232.315 136.026C229.361 135.898 226.051 136.626 225.917 135.676C225.839 135.127 226.761 134.601 228.381 134.371C229.518 134.21 230.677 134.196 231.844 134.345C233.012 134.493 233.983 134.697 234.757 134.956L234.118 130.255C231.915 129.734 229.634 129.634 227.279 129.967C224.83 130.314 223.011 130.968 221.823 131.928C220.623 132.904 220.111 134.014 220.29 135.272C221.021 140.438 230.918 136.674 231.186 138.561C231.271 139.163 230.248 139.649 228.361 139.917C227.357 140.059 226.114 140.057 224.648 139.924C223.169 139.792 221.879 139.552 220.769 139.231L221.499 144.384C222.437 144.551 223.719 144.642 225.36 144.656C226.984 144.658 228.34 144.589 229.397 144.439ZM242.924 126.591C243.448 125.957 243.644 125.219 243.524 124.376C243.403 123.519 243.008 122.852 242.328 122.388C241.648 121.925 240.807 121.771 239.79 121.915C238.773 122.059 238.008 122.441 237.497 123.073C236.972 123.707 236.778 124.458 236.9 125.314C237.019 126.158 237.412 126.812 238.092 127.275C238.759 127.741 239.6 127.894 240.617 127.75C241.634 127.606 242.399 127.225 242.924 126.591ZM246.419 141.632C245.745 139.857 245.203 137.572 244.808 134.788L244.272 131.001C244.094 129.743 244.02 128.743 244.036 127.99C243.351 128.646 242.32 129.079 240.915 129.278C239.51 129.477 238.359 129.353 237.438 128.924C237.642 129.496 237.849 130.477 238.049 131.882L238.585 135.67C238.979 138.453 239.093 140.799 238.938 142.691L246.419 141.632ZM257.315 140.484C257.904 140.401 258.508 140.233 259.13 139.995C259.738 139.759 260.245 139.482 260.627 139.196L259.945 134.378C259.612 134.821 258.81 135.235 258.047 135.343C257.311 135.447 256.652 135.322 256.081 134.952C255.512 134.596 255.17 134.016 255.058 133.227L254.374 128.395L258.844 127.762L258.584 125.929L254.114 126.562L253.337 121.075L247.769 123.406L248.332 127.381L245.897 127.726L246.156 129.56L248.592 129.214L249.591 136.268C250.082 139.734 252.658 141.144 257.315 140.484ZM271.274 138.507C272.626 138.315 273.974 138.001 275.307 137.58C276.638 137.146 277.638 136.69 278.321 136.211L277.575 131.716C277.146 132.35 276.446 132.9 275.474 133.366C274.502 133.831 273.454 134.143 272.344 134.3C270.898 134.505 269.595 134.362 268.435 133.885C267.262 133.409 266.569 132.757 266.342 131.929L266.537 131.765C268.153 132.669 270.013 132.788 272.369 132.454C275.942 131.948 277.811 130.4 277.453 127.87C277.307 126.84 276.855 125.962 275.944 125.217C274.646 124.145 272.289 123.605 268.808 124.085C265.93 124.492 263.677 125.644 262.419 127.174C261.15 128.719 260.611 130.597 260.893 132.591C261.2 134.76 262.292 136.393 264.179 137.477C266.067 138.562 268.423 138.91 271.274 138.507ZM269.765 131.225C268.333 131.428 267.199 131.234 266.351 130.644C266.364 129.864 266.63 129.239 267.122 128.76C267.616 128.294 268.23 128.003 268.952 127.9C270.572 127.671 271.687 128.223 271.841 129.307C271.907 129.775 271.733 130.182 271.32 130.541C270.908 130.913 270.394 131.136 269.765 131.225Z" fill="#F05127"/>
<path d="M120.106 116.596L118.674 109.297L88.1171 102.745L61.9216 120.429L65.8955 140.689L96.7806 146.914L122.648 129.557L125.906 146.167L100.039 163.525L69.1536 157.299L75.8104 152.596" stroke="#F05127" stroke-width="2.30691"/>
<path d="M100.192 163.246L91.4054 118.448" stroke="#F05127" stroke-width="2.30691"/>
<path d="M74.2634 122.059L107.862 115.469" stroke="#F05127" stroke-width="2.30691"/>
<circle r="1.30645" transform="matrix(-0.981301 0.192478 0.192478 0.981301 120.868 120.3)" fill="#F05127"/>
</g>
<defs>
<filter id="filter0_d_698:8534" x="0.366943" y="0.00708008" width="337.351" height="251.856" filterUnits="userSpaceOnUse" color-interpolation-filters="sRGB">
<feFlood flood-opacity="0" result="BackgroundImageFix"/>
<feColorMatrix in="SourceAlpha" type="matrix" values="0 0 0 0 0 0 0 0 0 0 0 0 0 0 0 0 0 0 127 0" result="hardAlpha"/>
<feOffset dy="4"/>
<feGaussianBlur stdDeviation="10"/>
<feComposite in2="hardAlpha" operator="out"/>
<feColorMatrix type="matrix" values="0 0 0 0 0 0 0 0 0 0 0 0 0 0 0 0 0 0 0.25 0"/>
<feBlend mode="normal" in2="BackgroundImageFix" result="effect1_dropShadow_698:8534"/>
<feBlend mode="normal" in="SourceGraphic" in2="effect1_dropShadow_698:8534" result="shape"/>
</filter>
</defs>
</svg>
